<svg width="55" height="55" viewBox="0 0 55 55" fill="none" xmlns="http://www.w3.org/2000/svg">
<path d="M32.8225 3.54883C27.4423 3.54883 23.0645 7.92665 23.0645 13.3069H24.8386C24.8386 8.90434 28.42 5.32302 32.8225 5.32302V3.54883ZM40.8064 13.3069C40.8064 17.7094 37.2251 21.2908 32.8225 21.2908V23.065C38.2028 23.065 42.5806 18.6871 42.5806 13.3069H40.8064Z" fill="#4AAB3D"/>
<path d="M46.129 13.3065C46.129 5.96927 40.1598 0 32.8226 0C27.727 0 23.2979 2.88129 21.0625 7.09677H0.887097C0.770561 7.09663 0.655141 7.11947 0.547448 7.164C0.439754 7.20853 0.341903 7.27387 0.2595 7.35627C0.177096 7.43868 0.111759 7.53653 0.0672297 7.64422C0.0227006 7.75191 -0.000145249 7.86733 6.94845e-07 7.98387V54.1129C6.94845e-07 54.6037 0.396311 55 0.887097 55H39.9194C40.4101 55 40.8064 54.6037 40.8064 54.1129V23.9269C44.0308 21.496 46.129 17.6471 46.129 13.3065ZM22.2021 21.2903H5.32258V12.4194H19.5611C19.5416 12.7139 19.5161 13.0067 19.5161 13.3065C19.5161 16.3038 20.5241 19.0639 22.2021 21.2903ZM39.0323 53.2258H1.77419V8.87097H20.2923C20.0874 9.44758 19.9081 10.0357 19.7838 10.6452H4.43548C4.31895 10.645 4.20353 10.6679 4.09584 10.7124C3.98814 10.7569 3.89029 10.8223 3.80789 10.9047C3.72548 10.9871 3.66015 11.0849 3.61562 11.1926C3.57109 11.3003 3.54824 11.4157 3.54839 11.5323V22.1774C3.54839 22.6682 3.9447 23.0645 4.43548 23.0645H23.8061C26.1802 25.2593 29.3417 26.6129 32.8226 26.6129C35.065 26.6129 37.1767 26.0507 39.0323 25.0666V53.2258ZM32.8226 24.8387C26.4639 24.8387 21.2903 19.6652 21.2903 13.3065C21.2903 6.94774 26.4639 1.77419 32.8226 1.77419C39.1813 1.77419 44.3548 6.94774 44.3548 13.3065C44.3548 19.6652 39.1813 24.8387 32.8226 24.8387Z" fill="#4AAB3D"/>
<path d="M33.7101 17.7418C35.1772 17.7418 36.3714 16.5476 36.3714 15.0806C36.3714 13.6135 35.1772 12.4193 33.7101 12.4193H31.9359C31.4465 12.4193 31.0488 12.0216 31.0488 11.5322C31.0488 11.0427 31.4465 10.6451 31.9359 10.6451H36.3714V8.87087H33.7101V7.09668H31.9359V8.87087C30.4689 8.87087 29.2746 10.0651 29.2746 11.5322C29.2746 12.9992 30.4689 14.1935 31.9359 14.1935H33.7101C34.1996 14.1935 34.5972 14.5911 34.5972 15.0806C34.5972 15.57 34.1996 15.9676 33.7101 15.9676H29.2746V17.7418H31.9359V19.516H33.7101V17.7418ZM9.75851 26.6128H4.43593C4.31939 26.6127 4.20397 26.6355 4.09628 26.68C3.98858 26.7246 3.89073 26.7899 3.80833 26.8723C3.72592 26.9547 3.66059 27.0526 3.61606 27.1603C3.57153 27.2679 3.54868 27.3834 3.54883 27.4999V32.8225C3.54883 33.3133 3.94514 33.7096 4.43593 33.7096H9.75851C10.2493 33.7096 10.6456 33.3133 10.6456 32.8225V27.4999C10.6456 27.0091 10.2493 26.6128 9.75851 26.6128ZM8.87141 31.9354H5.32302V28.387H8.87141V31.9354ZM18.6295 26.6128H13.3069C13.1904 26.6127 13.0749 26.6355 12.9672 26.68C12.8596 26.7246 12.7617 26.7899 12.6793 26.8723C12.5969 26.9547 12.5316 27.0526 12.487 27.1603C12.4425 27.2679 12.4197 27.3834 12.4198 27.4999V32.8225C12.4198 33.3133 12.8161 33.7096 13.3069 33.7096H18.6295C19.1203 33.7096 19.5166 33.3133 19.5166 32.8225V27.4999C19.5166 27.0091 19.1203 26.6128 18.6295 26.6128ZM17.7424 31.9354H14.194V28.387H17.7424V31.9354ZM27.5004 26.6128H22.1779C22.0613 26.6127 21.9459 26.6355 21.8382 26.68C21.7305 26.7246 21.6327 26.7899 21.5503 26.8723C21.4679 26.9547 21.4025 27.0526 21.358 27.1603C21.3135 27.2679 21.2906 27.3834 21.2908 27.4999V32.8225C21.2908 33.3133 21.6871 33.7096 22.1779 33.7096H27.5004C27.9912 33.7096 28.3875 33.3133 28.3875 32.8225V27.4999C28.3875 27.0091 27.9912 26.6128 27.5004 26.6128ZM26.6133 31.9354H23.065V28.387H26.6133V31.9354ZM9.75851 35.4838H4.43593C4.31939 35.4836 4.20397 35.5065 4.09628 35.551C3.98858 35.5955 3.89073 35.6609 3.80833 35.7433C3.72592 35.8257 3.66059 35.9235 3.61606 36.0312C3.57153 36.1389 3.54868 36.2543 3.54883 36.3709V41.6935C3.54883 42.1842 3.94514 42.5805 4.43593 42.5805H9.75851C10.2493 42.5805 10.6456 42.1842 10.6456 41.6935V36.3709C10.6456 35.8801 10.2493 35.4838 9.75851 35.4838ZM8.87141 40.8064H5.32302V37.258H8.87141V40.8064ZM18.6295 35.4838H13.3069C13.1904 35.4836 13.0749 35.5065 12.9672 35.551C12.8596 35.5955 12.7617 35.6609 12.6793 35.7433C12.5969 35.8257 12.5316 35.9235 12.487 36.0312C12.4425 36.1389 12.4197 36.2543 12.4198 36.3709V41.6935C12.4198 42.1842 12.8161 42.5805 13.3069 42.5805H18.6295C19.1203 42.5805 19.5166 42.1842 19.5166 41.6935V36.3709C19.5166 35.8801 19.1203 35.4838 18.6295 35.4838ZM17.7424 40.8064H14.194V37.258H17.7424V40.8064ZM27.5004 35.4838H22.1779C22.0613 35.4836 21.9459 35.5065 21.8382 35.551C21.7305 35.5955 21.6327 35.6609 21.5503 35.7433C21.4679 35.8257 21.4025 35.9235 21.358 36.0312C21.3135 36.1389 21.2906 36.2543 21.2908 36.3709V41.6935C21.2908 42.1842 21.6871 42.5805 22.1779 42.5805H27.5004C27.9912 42.5805 28.3875 42.1842 28.3875 41.6935V36.3709C28.3875 35.8801 27.9912 35.4838 27.5004 35.4838ZM26.6133 40.8064H23.065V37.258H26.6133V40.8064ZM30.1617 36.3709V50.5644C30.1617 51.0552 30.558 51.4515 31.0488 51.4515H36.3714C36.8622 51.4515 37.2585 51.0552 37.2585 50.5644V36.3709C37.2585 35.8801 36.8622 35.4838 36.3714 35.4838H31.0488C30.9323 35.4836 30.8169 35.5065 30.7092 35.551C30.6015 35.5955 30.5036 35.6609 30.4212 35.7433C30.3388 35.8257 30.2735 35.9235 30.229 36.0312C30.1844 36.1389 30.1616 36.2543 30.1617 36.3709ZM31.9359 37.258H35.4843V49.6773H31.9359V37.258ZM9.75851 44.3547H4.43593C4.31939 44.3546 4.20397 44.3774 4.09628 44.422C3.98858 44.4665 3.89073 44.5318 3.80833 44.6142C3.72592 44.6966 3.66059 44.7945 3.61606 44.9022C3.57153 45.0099 3.54868 45.1253 3.54883 45.2418V50.5644C3.54883 51.0552 3.94514 51.4515 4.43593 51.4515H9.75851C10.2493 51.4515 10.6456 51.0552 10.6456 50.5644V45.2418C10.6456 44.7511 10.2493 44.3547 9.75851 44.3547ZM8.87141 49.6773H5.32302V46.1289H8.87141V49.6773ZM18.6295 44.3547H13.3069C13.1904 44.3546 13.0749 44.3774 12.9672 44.422C12.8596 44.4665 12.7617 44.5318 12.6793 44.6142C12.5969 44.6966 12.5316 44.7945 12.487 44.9022C12.4425 45.0099 12.4197 45.1253 12.4198 45.2418V50.5644C12.4198 51.0552 12.8161 51.4515 13.3069 51.4515H18.6295C19.1203 51.4515 19.5166 51.0552 19.5166 50.5644V45.2418C19.5166 44.7511 19.1203 44.3547 18.6295 44.3547ZM17.7424 49.6773H14.194V46.1289H17.7424V49.6773ZM27.5004 44.3547H22.1779C22.0613 44.3546 21.9459 44.3774 21.8382 44.422C21.7305 44.4665 21.6327 44.5318 21.5503 44.6142C21.4679 44.6966 21.4025 44.7945 21.358 44.9022C21.3135 45.0099 21.2906 45.1253 21.2908 45.2418V50.5644C21.2908 51.0552 21.6871 51.4515 22.1779 51.4515H27.5004C27.9912 51.4515 28.3875 51.0552 28.3875 50.5644V45.2418C28.3875 44.7511 27.9912 44.3547 27.5004 44.3547ZM26.6133 49.6773H23.065V46.1289H26.6133V49.6773Z" fill="#4AAB3D"/>
</svg>
