<svg width="55" height="55" viewBox="0 0 55 55" fill="none" xmlns="http://www.w3.org/2000/svg">
<path d="M10.3125 22.3438C9.46266 22.3438 8.6319 22.0917 7.92528 21.6196C7.21867 21.1475 6.66793 20.4764 6.34271 19.6912C6.01748 18.9061 5.93239 18.0421 6.09819 17.2086C6.26398 16.3751 6.67322 15.6095 7.27415 15.0085C7.87508 14.4076 8.64071 13.9984 9.47422 13.8326C10.3077 13.6668 11.1717 13.7519 11.9568 14.0771C12.742 14.4023 13.4131 14.953 13.8852 15.6597C14.3574 16.3663 14.6094 17.197 14.6094 18.0469C14.608 19.1861 14.1549 20.2782 13.3493 21.0837C12.5438 21.8892 11.4517 22.3424 10.3125 22.3438ZM10.3125 15.4688C9.8026 15.4688 9.30414 15.62 8.88017 15.9032C8.4562 16.1865 8.12575 16.5892 7.93062 17.0603C7.73549 17.5314 7.68444 18.0497 7.78391 18.5498C7.88339 19.05 8.12893 19.5093 8.48949 19.8699C8.85005 20.2304 9.30943 20.476 9.80953 20.5755C10.3096 20.6749 10.828 20.6239 11.2991 20.4288C11.7702 20.2336 12.1728 19.9032 12.4561 19.4792C12.7394 19.0552 12.8906 18.5568 12.8906 18.0469C12.8906 17.3631 12.619 16.7074 12.1355 16.2239C11.652 15.7404 10.9963 15.4688 10.3125 15.4688ZM13.75 47.2656H6.875C5.73582 47.2643 4.64368 46.8111 3.83816 46.0056C3.03263 45.2001 2.57949 44.1079 2.57812 42.9688C2.57812 42.5129 2.75921 42.0757 3.08154 41.7534C3.40386 41.4311 3.84103 41.25 4.29688 41.25H16.3281C16.784 41.25 17.2211 41.4311 17.5435 41.7534C17.8658 42.0757 18.0469 42.5129 18.0469 42.9688C18.0455 44.1079 17.5924 45.2001 16.7868 46.0056C15.9813 46.8111 14.8892 47.2643 13.75 47.2656ZM4.29688 42.9688C4.29688 43.6525 4.5685 44.3083 5.05199 44.7918C5.53548 45.2753 6.19124 45.5469 6.875 45.5469H13.75C14.4338 45.5469 15.0895 45.2753 15.573 44.7918C16.0565 44.3083 16.3281 43.6525 16.3281 42.9688H4.29688Z" fill="#4AAB3D"/>
<path d="M3.4375 43.8281C3.20958 43.8281 2.99099 43.7376 2.82983 43.5764C2.66867 43.4153 2.57813 43.1967 2.57812 42.9688V23.2031C2.57812 22.9752 2.66867 22.7566 2.82983 22.5955C2.99099 22.4343 3.20958 22.3438 3.4375 22.3438C3.66542 22.3438 3.88401 22.4343 4.04517 22.5955C4.20633 22.7566 4.29688 22.9752 4.29688 23.2031V42.9688C4.29688 43.1967 4.20633 43.4153 4.04517 43.5764C3.88401 43.7376 3.66542 43.8281 3.4375 43.8281ZM10.3125 53.2812C10.0846 53.2812 9.86599 53.1907 9.70483 53.0295C9.54367 52.8684 9.45312 52.6498 9.45312 52.4219V46.4062C9.45312 46.1783 9.54367 45.9597 9.70483 45.7986C9.86599 45.6374 10.0846 45.5469 10.3125 45.5469C10.5404 45.5469 10.759 45.6374 10.9202 45.7986C11.0813 45.9597 11.1719 46.1783 11.1719 46.4062V52.4219C11.1719 52.6498 11.0813 52.8684 10.9202 53.0295C10.759 53.1907 10.5404 53.2812 10.3125 53.2812Z" fill="#4AAB3D"/>
<path d="M14.6094 53.2813H6.01562C5.7877 53.2813 5.56912 53.1907 5.40796 53.0295C5.24679 52.8684 5.15625 52.6498 5.15625 52.4219C5.15625 52.194 5.24679 51.9754 5.40796 51.8142C5.56912 51.653 5.7877 51.5625 6.01562 51.5625H14.6094C14.8373 51.5625 15.0559 51.653 15.217 51.8142C15.3782 51.9754 15.4688 52.194 15.4688 52.4219C15.4688 52.6498 15.3782 52.8684 15.217 53.0295C15.0559 53.1907 14.8373 53.2813 14.6094 53.2813ZM23.3561 53.2813C22.6294 53.2826 21.9232 53.0404 21.3502 52.5933C20.7773 52.1462 20.3707 51.5201 20.1953 50.8148L18.2351 42.9688H10.3125C9.17332 42.9674 8.08118 42.5142 7.27566 41.7087C6.47013 40.9032 6.01699 39.8111 6.01562 38.6719V25.7813C6.01562 25.1797 6.325 23.2031 10.3125 23.2031C14.3 23.2031 14.6094 25.1797 14.6094 25.7813V29.2188H19.7656C20.4494 29.2188 21.1051 29.4904 21.5886 29.9739C22.0721 30.4574 22.3438 31.1131 22.3438 31.7969C22.3438 32.4806 22.0721 33.1364 21.5886 33.6199C21.1051 34.1034 20.4494 34.375 19.7656 34.375H14.6094V36.0938H17.9309C19.149 36.0981 20.3375 36.4703 21.3405 37.1616C22.3435 37.8529 23.1144 38.831 23.552 39.9678L26.4567 49.0316C26.6131 49.5199 26.6521 50.0382 26.5703 50.5443C26.4885 51.0505 26.2884 51.5301 25.9862 51.9443C25.684 52.3585 25.2883 52.6954 24.8313 52.9278C24.3742 53.1601 23.8688 53.2812 23.3561 53.2813ZM10.3125 24.9219C8.63844 24.9219 7.73438 25.3645 7.73438 25.7813V38.6719C7.73438 39.3556 8.006 40.0114 8.48949 40.4949C8.97298 40.9784 9.62874 41.25 10.3125 41.25H18.9062C19.0978 41.25 19.2839 41.314 19.4349 41.4319C19.586 41.5498 19.6933 41.7147 19.7398 41.9006L21.8634 50.3981C21.913 50.5985 22.0025 50.7869 22.1265 50.9521C22.2505 51.1172 22.4064 51.2557 22.5851 51.3593C22.7638 51.4629 22.9615 51.5294 23.1664 51.5549C23.3713 51.5804 23.5793 51.5645 23.7779 51.5079C23.9765 51.4513 24.1617 51.3553 24.3225 51.2257C24.4832 51.096 24.6162 50.9353 24.7135 50.7531C24.8108 50.571 24.8704 50.3711 24.8888 50.1654C24.9071 49.9597 24.8839 49.7524 24.8205 49.5559L21.9312 40.5324C21.6132 39.7308 21.0619 39.043 20.3488 38.5581C19.6356 38.0732 18.7933 37.8135 17.9309 37.8125H13.75C13.5221 37.8125 13.3035 37.722 13.1423 37.5608C12.9812 37.3996 12.8906 37.181 12.8906 36.9531V34.3561C12.1641 34.2896 11.4667 34.0381 10.865 33.6256C10.2632 33.2131 9.77715 32.6534 9.45312 31.9997L8.68398 30.4623C8.5821 30.2583 8.56543 30.0222 8.63763 29.8059C8.70983 29.5896 8.865 29.4109 9.06898 29.309C9.27297 29.2071 9.50908 29.1904 9.72536 29.2626C9.94164 29.3348 10.1204 29.49 10.2223 29.694L10.9905 31.2314C11.2033 31.6606 11.5322 32.0216 11.9397 32.2735C12.3472 32.5253 12.8172 32.6579 13.2963 32.6563H19.7656C19.9935 32.6563 20.2121 32.5657 20.3733 32.4045C20.5345 32.2434 20.625 32.0248 20.625 31.7969C20.625 31.569 20.5345 31.3504 20.3733 31.1892C20.2121 31.028 19.9935 30.9375 19.7656 30.9375H13.75C13.5221 30.9375 13.3035 30.847 13.1423 30.6858C12.9812 30.5246 12.8906 30.306 12.8906 30.0781V25.7813C12.8906 25.3645 11.9866 24.9219 10.3125 24.9219ZM44.6609 22.3438C43.811 22.3438 42.9803 22.0917 42.2736 21.6196C41.567 21.1475 41.0163 20.4764 40.6911 19.6912C40.3658 18.9061 40.2808 18.0421 40.4465 17.2086C40.6123 16.3751 41.0216 15.6095 41.6225 15.0085C42.2234 14.4076 42.9891 13.9984 43.8226 13.8326C44.6561 13.6668 45.5201 13.7519 46.3052 14.0771C47.0904 14.4023 47.7614 14.953 48.2336 15.6597C48.7057 16.3663 48.9577 17.197 48.9577 18.0469C48.9564 19.1861 48.5032 20.2782 47.6977 21.0837C46.8922 21.8892 45.8 22.3424 44.6609 22.3438ZM44.6609 15.4688C44.151 15.4688 43.6525 15.62 43.2285 15.9032C42.8046 16.1865 42.4741 16.5892 42.279 17.0603C42.0839 17.5314 42.0328 18.0497 42.1323 18.5498C42.2318 19.05 42.4773 19.5093 42.8378 19.8699C43.1984 20.2304 43.6578 20.476 44.1579 20.5755C44.658 20.6749 45.1764 20.6239 45.6475 20.4288C46.1186 20.2336 46.5212 19.9032 46.8045 19.4792C47.0878 19.0552 47.239 18.5568 47.239 18.0469C47.239 17.3631 46.9674 16.7074 46.4839 16.2239C46.0004 15.7404 45.3446 15.4688 44.6609 15.4688ZM48.0984 47.2656H41.2234C40.0842 47.2643 38.992 46.8111 38.1865 46.0056C37.381 45.2001 36.9279 44.1079 36.9265 42.9688C36.9265 42.5129 37.1076 42.0757 37.4299 41.7534C37.7522 41.4311 38.1894 41.25 38.6452 41.25H50.6765C51.1323 41.25 51.5695 41.4311 51.8918 41.7534C52.2142 42.0757 52.3952 42.5129 52.3952 42.9688C52.3939 44.1079 51.9407 45.2001 51.1352 46.0056C50.3297 46.8111 49.2375 47.2643 48.0984 47.2656ZM38.6452 42.9688C38.6452 43.6525 38.9169 44.3083 39.4003 44.7918C39.8838 45.2753 40.5396 45.5469 41.2234 45.5469H48.0984C48.7821 45.5469 49.4379 45.2753 49.9214 44.7918C50.4049 44.3083 50.6765 43.6525 50.6765 42.9688H38.6452Z" fill="#4AAB3D"/>
<path d="M51.5352 43.8281C51.3072 43.8281 51.0886 43.7376 50.9275 43.5764C50.7663 43.4153 50.6758 43.1967 50.6758 42.9688V23.2031C50.6758 22.9752 50.7663 22.7566 50.9275 22.5955C51.0886 22.4343 51.3072 22.3438 51.5352 22.3438C51.7631 22.3438 51.9817 22.4343 52.1428 22.5955C52.304 22.7566 52.3945 22.9752 52.3945 23.2031V42.9688C52.3945 43.1967 52.304 43.4153 52.1428 43.5764C51.9817 43.7376 51.7631 43.8281 51.5352 43.8281ZM44.6602 53.2812C44.4322 53.2812 44.2136 53.1907 44.0525 53.0295C43.8913 52.8684 43.8008 52.6498 43.8008 52.4219V46.4062C43.8008 46.1783 43.8913 45.9597 44.0525 45.7986C44.2136 45.6374 44.4322 45.5469 44.6602 45.5469C44.8881 45.5469 45.1067 45.6374 45.2678 45.7986C45.429 45.9597 45.5195 46.1783 45.5195 46.4062V52.4219C45.5195 52.6498 45.429 52.8684 45.2678 53.0295C45.1067 53.1907 44.8881 53.2812 44.6602 53.2812Z" fill="#4AAB3D"/>
<path d="M48.958 53.2812H40.3642C40.1363 53.2812 39.9177 53.1907 39.7566 53.0295C39.5954 52.8684 39.5049 52.6498 39.5049 52.4219C39.5049 52.194 39.5954 51.9754 39.7566 51.8142C39.9177 51.653 40.1363 51.5625 40.3642 51.5625H48.958C49.1859 51.5625 49.4045 51.653 49.5657 51.8142C49.7268 51.9754 49.8174 52.194 49.8174 52.4219C49.8174 52.6498 49.7268 52.8684 49.5657 53.0295C49.4045 53.1907 49.1859 53.2812 48.958 53.2812ZM31.6175 53.2812C31.1048 53.2814 30.5992 53.1604 30.1421 52.9281C29.6849 52.6959 29.2891 52.3589 28.9869 51.9447C28.6847 51.5304 28.4846 51.0507 28.4029 50.5445C28.3212 50.0382 28.3603 49.5199 28.5169 49.0316L31.4061 40.0082C31.8396 38.8629 32.6099 37.8759 33.6155 37.1771C34.6211 36.4783 35.8148 36.1006 37.0393 36.0938H40.3608V34.375H35.2045C34.5208 34.375 33.865 34.1034 33.3815 33.6199C32.898 33.1364 32.6264 32.4806 32.6264 31.7969C32.6264 31.1131 32.898 30.4574 33.3815 29.9739C33.865 29.4904 34.5208 29.2188 35.2045 29.2188H40.3608V25.7812C40.3608 25.1797 40.6702 23.2031 44.6577 23.2031C48.6452 23.2031 48.9545 25.1797 48.9545 25.7812V38.6719C48.9532 39.8111 48.5 40.9032 47.6945 41.7087C46.889 42.5142 45.7969 42.9674 44.6577 42.9688H36.7385L34.7766 50.8148C34.6013 51.5198 34.1949 52.1457 33.6223 52.5928C33.0497 53.0398 32.3439 53.2822 31.6175 53.2812ZM37.0393 37.8125C36.1692 37.8156 35.3203 38.0814 34.6039 38.5752C33.8874 39.0689 33.3369 39.7676 33.0243 40.5797L30.1531 49.5559C30.092 49.7517 30.0707 49.9578 30.0904 50.162C30.1101 50.3662 30.1705 50.5643 30.268 50.7448C30.3655 50.9253 30.4982 51.0845 30.6581 51.2129C30.8181 51.3414 31.0022 51.4365 31.1995 51.4927C31.3968 51.5489 31.6033 51.5651 31.8069 51.5402C32.0106 51.5154 32.2072 51.45 32.3852 51.348C32.5632 51.246 32.7189 51.1094 32.8433 50.9462C32.9677 50.7831 33.0582 50.5967 33.1094 50.398L35.2346 41.9005C35.2812 41.7147 35.3885 41.5498 35.5395 41.4319C35.6906 41.314 35.8766 41.25 36.0682 41.25H44.662C45.3457 41.25 46.0015 40.9784 46.485 40.4949C46.9685 40.0114 47.2401 39.3556 47.2401 38.6719V25.7812C47.2401 25.3645 46.336 24.9219 44.662 24.9219C42.9879 24.9219 42.0838 25.3645 42.0838 25.7812V30.0781C42.0838 30.306 41.9933 30.5246 41.8321 30.6858C41.671 30.847 41.4524 30.9375 41.2245 30.9375H35.2088C34.9809 30.9375 34.7623 31.028 34.6012 31.1892C34.44 31.3504 34.3495 31.569 34.3495 31.7969C34.3495 32.0248 34.44 32.2434 34.6012 32.4045C34.7623 32.5657 34.9809 32.6562 35.2088 32.6562H41.6799C42.159 32.658 42.629 32.5255 43.0366 32.2736C43.4441 32.0218 43.7729 31.6607 43.9856 31.2314L44.7539 29.694C44.8038 29.5921 44.8734 29.5012 44.9586 29.4263C45.0439 29.3515 45.1431 29.2943 45.2505 29.258C45.358 29.2217 45.4715 29.207 45.5847 29.2148C45.6978 29.2226 45.8083 29.2527 45.9098 29.3034C46.0112 29.3541 46.1017 29.4244 46.1758 29.5102C46.25 29.596 46.3064 29.6956 46.3419 29.8034C46.3774 29.9111 46.3912 30.0248 46.3825 30.1379C46.3738 30.251 46.3428 30.3612 46.2913 30.4623L45.5231 31.9997C45.1992 32.6535 44.7132 33.2134 44.1114 33.6259C43.5097 34.0385 42.8122 34.2898 42.0856 34.3561V36.9531C42.0856 37.181 41.995 37.3996 41.8339 37.5608C41.6727 37.722 41.4541 37.8125 41.2262 37.8125H37.0393Z" fill="#4AAB3D"/>
<path d="M35.2344 34.375H18.9062C18.6783 34.375 18.4597 34.2845 18.2986 34.1233C18.1374 33.9621 18.0469 33.7436 18.0469 33.5156C18.0469 33.2877 18.1374 33.0691 18.2986 32.908C18.4597 32.7468 18.6783 32.6563 18.9062 32.6563H35.2344C35.4623 32.6563 35.6809 32.7468 35.842 32.908C36.0032 33.0691 36.0938 33.2877 36.0938 33.5156C36.0938 33.7436 36.0032 33.9621 35.842 34.1233C35.6809 34.2845 35.4623 34.375 35.2344 34.375ZM29.2188 24.0625H25.7812C25.5533 24.0625 25.3347 23.972 25.1736 23.8108C25.0124 23.6496 24.9219 23.4311 24.9219 23.2031V22.6686C24.9282 22.2264 24.8175 21.7903 24.6009 21.4047C24.3843 21.0191 24.0696 20.6976 23.6887 20.4729C22.3189 19.6964 21.2188 18.5204 20.5353 17.102C19.8518 15.6836 19.6174 14.0904 19.8636 12.5352C20.1097 10.9801 20.8247 9.53708 21.9128 8.39911C23.001 7.26113 24.4105 6.48236 25.9531 6.16688C27.7572 5.79879 29.6335 6.0864 31.2445 6.97798C32.8555 7.86957 34.0956 9.30664 34.7417 11.0308C35.3879 12.755 35.3978 14.6531 34.7696 16.3839C34.1414 18.1147 32.9164 19.5646 31.3148 20.4729C30.9331 20.6971 30.6176 21.0183 30.4004 21.404C30.1832 21.7897 30.072 22.226 30.0781 22.6686V23.2031C30.0781 23.4311 29.9876 23.6496 29.8264 23.8108C29.6653 23.972 29.4467 24.0625 29.2188 24.0625ZM26.6286 22.3438H28.3714C28.4171 21.654 28.6319 20.9861 28.9969 20.3991C29.3618 19.812 29.8657 19.3238 30.464 18.9776C31.6199 18.3228 32.5266 17.3039 33.0425 16.0797C33.5585 14.8555 33.6547 13.4949 33.3161 12.2103C32.9776 10.9257 32.2233 9.78925 31.171 8.97835C30.1187 8.16746 28.8276 7.7277 27.4991 7.7277C26.1707 7.7277 24.8795 8.16746 23.8273 8.97835C22.775 9.78925 22.0207 10.9257 21.6821 12.2103C21.3436 13.4949 21.4398 14.8555 21.9557 16.0797C22.4717 17.3039 23.3784 18.3228 24.5343 18.9776C25.1329 19.3236 25.6371 19.8117 26.0024 20.3988C26.3676 20.9859 26.5827 21.6539 26.6286 22.3438Z" fill="#4AAB3D"/>
<path d="M30.0781 26.6406H24.9219C24.694 26.6406 24.4754 26.5501 24.3142 26.3889C24.153 26.2278 24.0625 26.0092 24.0625 25.7812V23.2031C24.0625 22.9752 24.153 22.7566 24.3142 22.5955C24.4754 22.4343 24.694 22.3438 24.9219 22.3438H30.0781C30.306 22.3438 30.5246 22.4343 30.6858 22.5955C30.847 22.7566 30.9375 22.9752 30.9375 23.2031V25.7812C30.9375 26.0092 30.847 26.2278 30.6858 26.3889C30.5246 26.5501 30.306 26.6406 30.0781 26.6406ZM25.7812 24.9219H29.2188V24.0625H25.7812V24.9219Z" fill="#4AAB3D"/>
<path d="M27.5 29.2188C26.8162 29.2188 26.1605 28.9471 25.677 28.4636C25.1935 27.9801 24.9219 27.3244 24.9219 26.6406C24.9219 26.4127 25.0124 26.1941 25.1736 26.033C25.3347 25.8718 25.5533 25.7812 25.7812 25.7812C26.0092 25.7812 26.2278 25.8718 26.3889 26.033C26.5501 26.1941 26.6406 26.4127 26.6406 26.6406C26.6406 26.8685 26.7312 27.0871 26.8923 27.2483C27.0535 27.4095 27.2721 27.5 27.5 27.5C27.7279 27.5 27.9465 27.4095 28.1077 27.2483C28.2688 27.0871 28.3594 26.8685 28.3594 26.6406C28.3594 26.4127 28.4499 26.1941 28.6111 26.033C28.7722 25.8718 28.9908 25.7812 29.2188 25.7812C29.4467 25.7812 29.6653 25.8718 29.8264 26.033C29.9876 26.1941 30.0781 26.4127 30.0781 26.6406C30.0781 27.3244 29.8065 27.9801 29.323 28.4636C28.8395 28.9471 28.1838 29.2188 27.5 29.2188ZM27.5 5.15625C27.2721 5.15625 27.0535 5.06571 26.8923 4.90454C26.7312 4.74338 26.6406 4.5248 26.6406 4.29688V2.57812C26.6406 2.3502 26.7312 2.13162 26.8923 1.97046C27.0535 1.80929 27.2721 1.71875 27.5 1.71875C27.7279 1.71875 27.9465 1.80929 28.1077 1.97046C28.2688 2.13162 28.3594 2.3502 28.3594 2.57812V4.29688C28.3594 4.5248 28.2688 4.74338 28.1077 4.90454C27.9465 5.06571 27.7279 5.15625 27.5 5.15625ZM22.7734 6.42297C22.6224 6.42312 22.4741 6.38348 22.3433 6.30804C22.2125 6.23261 22.1039 6.12405 22.0284 5.99328L21.169 4.50484C21.1117 4.40707 21.0743 4.29893 21.0589 4.18664C21.0435 4.07435 21.0506 3.96013 21.0795 3.85056C21.1085 3.74099 21.1588 3.63823 21.2277 3.54821C21.2965 3.45818 21.3825 3.38265 21.4807 3.32598C21.5788 3.26932 21.6872 3.23262 21.7996 3.21801C21.912 3.20341 22.0261 3.21117 22.1355 3.24087C22.2449 3.27056 22.3473 3.3216 22.4369 3.39104C22.5265 3.46047 22.6014 3.54695 22.6574 3.64547L23.5168 5.13391C23.5922 5.26448 23.6319 5.4126 23.6319 5.56337C23.632 5.71415 23.5923 5.86228 23.517 5.9929C23.4417 6.12352 23.3333 6.23202 23.2028 6.3075C23.0723 6.38299 22.9242 6.42281 22.7734 6.42297ZM19.3136 9.88281C19.1626 9.88325 19.0142 9.84318 18.8839 9.7668L17.3955 8.90742C17.2942 8.85291 17.2048 8.77861 17.1328 8.68893C17.0607 8.59926 17.0074 8.49603 16.976 8.38537C16.9446 8.2747 16.9357 8.15886 16.9499 8.0447C16.9641 7.93054 17.001 7.82039 17.0586 7.72078C17.1161 7.62117 17.1931 7.53413 17.2849 7.46482C17.3767 7.3955 17.4815 7.34532 17.5931 7.31726C17.7046 7.28919 17.8207 7.28381 17.9344 7.30143C18.048 7.31906 18.157 7.35932 18.2548 7.41984L19.7433 8.27922C19.9071 8.37381 20.0351 8.51982 20.1075 8.69459C20.1799 8.86936 20.1926 9.06314 20.1436 9.24586C20.0947 9.42859 19.9868 9.59005 19.8367 9.70521C19.6866 9.82038 19.5028 9.8828 19.3136 9.88281ZM18.0469 14.6094H16.3281C16.1002 14.6094 15.8816 14.5188 15.7205 14.3577C15.5593 14.1965 15.4688 13.9779 15.4688 13.75C15.4688 13.5221 15.5593 13.3035 15.7205 13.1423C15.8816 12.9812 16.1002 12.8906 16.3281 12.8906H18.0469C18.2748 12.8906 18.4934 12.9812 18.6545 13.1423C18.8157 13.3035 18.9062 13.5221 18.9062 13.75C18.9062 13.9779 18.8157 14.1965 18.6545 14.3577C18.4934 14.5188 18.2748 14.6094 18.0469 14.6094ZM17.8269 20.1953C17.6377 20.1953 17.4538 20.1329 17.3037 20.0177C17.1537 19.9026 17.0458 19.7411 16.9968 19.5584C16.9479 19.3756 16.9606 19.1819 17.0329 19.0071C17.1053 18.8323 17.2334 18.6863 17.3972 18.5917L18.8856 17.7323C18.9834 17.675 19.0915 17.6376 19.2038 17.6223C19.3161 17.6069 19.4303 17.6139 19.5399 17.6429C19.6495 17.6719 19.7522 17.7222 19.8423 17.7911C19.9323 17.8599 20.0078 17.9459 20.0645 18.044C20.1212 18.1422 20.1578 18.2506 20.1725 18.3629C20.1871 18.4753 20.1793 18.5895 20.1496 18.6989C20.1199 18.8083 20.0689 18.9107 19.9994 19.0002C19.93 19.0898 19.8435 19.1648 19.745 19.2208L18.2566 20.0802C18.126 20.1559 17.9778 20.1956 17.8269 20.1953ZM37.1731 20.1953C37.0222 20.1956 36.874 20.1559 36.7434 20.0802L35.255 19.2208C35.1565 19.1648 35.07 19.0898 35.0006 19.0002C34.9311 18.9107 34.8801 18.8083 34.8504 18.6989C34.8207 18.5895 34.8129 18.4753 34.8275 18.3629C34.8422 18.2506 34.8788 18.1422 34.9355 18.044C34.9922 17.9459 35.0677 17.8599 35.1577 17.7911C35.2478 17.7222 35.3505 17.6719 35.4601 17.6429C35.5697 17.6139 35.6839 17.6069 35.7962 17.6223C35.9085 17.6376 36.0166 17.675 36.1144 17.7323L37.6028 18.5917C37.7666 18.6863 37.8947 18.8323 37.9671 19.0071C38.0394 19.1819 38.0521 19.3756 38.0032 19.5584C37.9542 19.7411 37.8463 19.9026 37.6963 20.0177C37.5462 20.1329 37.3623 20.1953 37.1731 20.1953ZM38.6719 14.6094H36.9531C36.7252 14.6094 36.5066 14.5188 36.3455 14.3577C36.1843 14.1965 36.0938 13.9779 36.0938 13.75C36.0938 13.5221 36.1843 13.3035 36.3455 13.1423C36.5066 12.9812 36.7252 12.8906 36.9531 12.8906H38.6719C38.8998 12.8906 39.1184 12.9812 39.2795 13.1423C39.4407 13.3035 39.5312 13.5221 39.5312 13.75C39.5312 13.9779 39.4407 14.1965 39.2795 14.3577C39.1184 14.5188 38.8998 14.6094 38.6719 14.6094ZM35.6864 9.88281C35.4972 9.8828 35.3134 9.82038 35.1633 9.70521C35.0132 9.59005 34.9053 9.42859 34.8564 9.24586C34.8074 9.06314 34.8201 8.86936 34.8925 8.69459C34.9649 8.51982 35.0929 8.37381 35.2567 8.27922L36.7452 7.41984C36.843 7.35932 36.952 7.31906 37.0656 7.30143C37.1793 7.28381 37.2954 7.28919 37.4069 7.31726C37.5185 7.34532 37.6233 7.3955 37.7151 7.46482C37.8069 7.53413 37.8839 7.62117 37.9414 7.72078C37.999 7.82039 38.0359 7.93054 38.0501 8.0447C38.0643 8.15886 38.0554 8.2747 38.024 8.38537C37.9926 8.49603 37.9393 8.59926 37.8672 8.68893C37.7952 8.77861 37.7058 8.85291 37.6045 8.90742L36.1161 9.7668C35.9858 9.84318 35.8374 9.88325 35.6864 9.88281ZM32.2266 6.42297C32.0758 6.42281 31.9277 6.38299 31.7972 6.3075C31.6667 6.23202 31.5583 6.12352 31.483 5.9929C31.4077 5.86228 31.368 5.71415 31.3681 5.56337C31.3681 5.4126 31.4078 5.26448 31.4832 5.13391L32.3426 3.64547C32.3986 3.54695 32.4735 3.46047 32.5631 3.39104C32.6527 3.3216 32.7551 3.27056 32.8645 3.24087C32.9739 3.21117 33.088 3.20341 33.2004 3.21801C33.3128 3.23262 33.4212 3.26932 33.5193 3.32598C33.6175 3.38265 33.7035 3.45818 33.7723 3.54821C33.8412 3.63823 33.8915 3.74099 33.9205 3.85056C33.9494 3.96013 33.9565 4.07435 33.9411 4.18664C33.9257 4.29893 33.8883 4.40707 33.831 4.50484L32.9716 5.99328C32.8961 6.12405 32.7875 6.23261 32.6567 6.30804C32.5259 6.38348 32.3776 6.42312 32.2266 6.42297Z" fill="#4AAB3D"/>
</svg>
