<svg width="55" height="55" viewBox="0 0 55 55" fill="none" xmlns="http://www.w3.org/2000/svg">
<path d="M32.6562 48.9844H30.9375V45.9027L27.7518 42.717C27.5906 42.5558 27.5 42.3373 27.5 42.1094V35.2344C27.5 34.5506 27.7716 33.8949 28.2551 33.4114C28.7386 32.9279 29.3944 32.6562 30.0781 32.6562H30.9375V24.9219C30.9375 24.2381 31.2091 23.5824 31.6926 23.0989C32.1761 22.6154 32.8319 22.3438 33.5156 22.3438C34.1994 22.3438 34.8551 22.6154 35.3386 23.0989C35.8221 23.5824 36.0938 24.2381 36.0938 24.9219V36.0938H34.375V24.9219C34.375 24.694 34.2845 24.4754 34.1233 24.3142C33.9621 24.153 33.7435 24.0625 33.5156 24.0625C33.2877 24.0625 33.0691 24.153 32.908 24.3142C32.7468 24.4754 32.6562 24.694 32.6562 24.9219V33.5156C32.6562 33.7435 32.5657 33.9621 32.4045 34.1233C32.2434 34.2845 32.0248 34.375 31.7969 34.375H30.0781C29.8502 34.375 29.6316 34.4655 29.4705 34.6267C29.3093 34.7879 29.2188 35.0065 29.2188 35.2344V41.7536L32.4045 44.9393C32.5656 45.1004 32.6562 45.319 32.6562 45.5469V48.9844Z" fill="#4AAB3D"/>
<path d="M36.0938 36.0938H34.375V30.9375C34.375 30.2537 34.6466 29.598 35.1301 29.1145C35.6136 28.631 36.2694 28.3594 36.9531 28.3594C37.6369 28.3594 38.2926 28.631 38.7761 29.1145C39.2596 29.598 39.5312 30.2537 39.5312 30.9375V32.6562H37.8125V30.9375C37.8125 30.7096 37.722 30.491 37.5608 30.3298C37.3996 30.1687 37.181 30.0781 36.9531 30.0781C36.7252 30.0781 36.5066 30.1687 36.3455 30.3298C36.1843 30.491 36.0938 30.7096 36.0938 30.9375V36.0938Z" fill="#4AAB3D"/>
<path d="M39.5312 36.0938H37.8125V31.7969C37.8125 31.1131 38.0841 30.4574 38.5676 29.9739C39.0511 29.4904 39.7069 29.2188 40.3906 29.2188C41.0744 29.2188 41.7301 29.4904 42.2136 29.9739C42.6971 30.4574 42.9688 31.1131 42.9688 31.7969V33.5156H41.25V31.7969C41.25 31.569 41.1595 31.3504 40.9983 31.1892C40.8371 31.028 40.6185 30.9375 40.3906 30.9375C40.1627 30.9375 39.9441 31.028 39.783 31.1892C39.6218 31.3504 39.5312 31.569 39.5312 31.7969V36.0938Z" fill="#4AAB3D"/>
<path d="M44.6875 48.9844H42.9688V45.5469C42.969 45.3772 43.0192 45.2113 43.1131 45.0699L44.6875 42.7109V32.6562C44.6875 32.4283 44.597 32.2097 44.4358 32.0486C44.2746 31.8874 44.056 31.7969 43.8281 31.7969C43.6002 31.7969 43.3816 31.8874 43.2205 32.0486C43.0593 32.2097 42.9688 32.4283 42.9688 32.6562V36.0938H41.25V32.6562C41.25 31.9725 41.5216 31.3167 42.0051 30.8332C42.4886 30.3497 43.1444 30.0781 43.8281 30.0781C44.5119 30.0781 45.1676 30.3497 45.6511 30.8332C46.1346 31.3167 46.4062 31.9725 46.4062 32.6562V42.9688C46.406 43.1385 46.3558 43.3043 46.2619 43.4457L44.6875 45.8047V48.9844ZM30.9375 33.5156H32.6562V40.3906H30.9375V33.5156Z" fill="#4AAB3D"/>
<path d="M45.5469 55H30.0781C29.8502 55 29.6316 54.9095 29.4705 54.7483C29.3093 54.5871 29.2188 54.3685 29.2188 54.1406V48.9844C29.2188 48.7565 29.3093 48.5379 29.4705 48.3767C29.6316 48.2155 29.8502 48.125 30.0781 48.125H45.5469C45.7748 48.125 45.9934 48.2155 46.1545 48.3767C46.3157 48.5379 46.4062 48.7565 46.4062 48.9844V54.1406C46.4062 54.3685 46.3157 54.5871 46.1545 54.7483C45.9934 54.9095 45.7748 55 45.5469 55ZM30.9375 53.2812H44.6875V49.8438H30.9375V53.2812Z" fill="#4AAB3D"/>
<path d="M27.5 55H2.57812C1.89436 55 1.23861 54.7284 0.755115 54.2449C0.271623 53.7614 0 53.1056 0 52.4219V7.73438C4.86728e-05 7.50647 0.0906218 7.28792 0.251797 7.1268L7.1268 0.251797C7.28792 0.0906217 7.50647 4.86728e-05 7.73438 0H38.6719C39.3556 0 40.0114 0.271623 40.4949 0.755115C40.9784 1.23861 41.25 1.89436 41.25 2.57812V5.15625H39.5312V2.57812C39.5312 2.3502 39.4407 2.13162 39.2795 1.97046C39.1184 1.80929 38.8998 1.71875 38.6719 1.71875H8.09016L1.71875 8.09016V52.4219C1.71875 52.6498 1.80929 52.8684 1.97046 53.0295C2.13162 53.1907 2.3502 53.2812 2.57812 53.2812H27.5V55Z" fill="#4AAB3D"/>
<path d="M7.73438 8.59375H0.859375V6.875H6.875V0.859375H8.59375V7.73438C8.59375 7.9623 8.50321 8.18088 8.34204 8.34204C8.18088 8.50321 7.9623 8.59375 7.73438 8.59375ZM20.625 20.625C19.2579 20.6236 17.9472 20.08 16.9805 19.1133C16.0138 18.1466 15.4701 16.8359 15.4688 15.4688V13.75C15.4688 13.5221 15.5593 13.3035 15.7205 13.1423C15.8816 12.9812 16.1002 12.8906 16.3281 12.8906C16.5577 12.9055 16.7878 12.8713 17.0031 12.7902C17.2184 12.7091 17.4139 12.583 17.5766 12.4203C17.7392 12.2576 17.8653 12.0621 17.9464 11.8468C18.0275 11.6316 18.0618 11.4014 18.0469 11.1719C18.0469 10.944 18.1374 10.7254 18.2986 10.5642C18.4597 10.403 18.6783 10.3125 18.9062 10.3125C19.1342 10.3125 19.3528 10.403 19.5139 10.5642C19.6751 10.7254 19.7656 10.944 19.7656 11.1719C19.7656 11.1719 20.0363 12.8906 24.9219 12.8906C25.1498 12.8906 25.3684 12.9812 25.5295 13.1423C25.6907 13.3035 25.7812 13.5221 25.7812 13.75V15.4688C25.7799 16.8359 25.2362 18.1466 24.2695 19.1133C23.3028 20.08 21.9921 20.6236 20.625 20.625ZM17.1875 14.5011V15.4688C17.1875 16.3804 17.5497 17.2548 18.1943 17.8994C18.839 18.5441 19.7133 18.9062 20.625 18.9062C21.5367 18.9062 22.411 18.5441 23.0557 17.8994C23.7003 17.2548 24.0625 16.3804 24.0625 15.4688V14.5913C21.493 14.4805 20.0234 13.8695 19.1752 13.1923C18.6918 13.8536 17.986 14.3183 17.1875 14.5011Z" fill="#4AAB3D"/>
<path d="M25.7812 13.75H24.0625V12.0312C24.0625 11.1196 23.7003 10.2452 23.0557 9.60057C22.411 8.95591 21.5367 8.59375 20.625 8.59375C19.7133 8.59375 18.839 8.95591 18.1943 9.60057C17.5497 10.2452 17.1875 11.1196 17.1875 12.0312V13.75H15.4688V12.0312C15.4688 10.6637 16.012 9.35222 16.979 8.38523C17.946 7.41825 19.2575 6.875 20.625 6.875C21.9925 6.875 23.304 7.41825 24.271 8.38523C25.238 9.35222 25.7812 10.6637 25.7812 12.0312V13.75ZM20.625 23.2031C19.9412 23.2031 19.2855 22.9315 18.802 22.448C18.3185 21.9645 18.0469 21.3088 18.0469 20.625V19.4133H19.7656V20.625C19.7656 20.8529 19.8562 21.0715 20.0173 21.2327C20.1785 21.3938 20.3971 21.4844 20.625 21.4844C20.736 21.4855 20.846 21.4641 20.9485 21.4216C21.051 21.3791 21.1438 21.3162 21.2214 21.2369C21.3046 21.1582 21.3709 21.0633 21.4161 20.9581C21.4613 20.8529 21.4845 20.7395 21.4844 20.625V19.4133H23.2031V20.625C23.1993 21.3076 22.9264 21.9611 22.4438 22.4438C21.9611 22.9264 21.3076 23.1993 20.625 23.2031Z" fill="#4AAB3D"/>
<path d="M20.625 34.3747C17.6463 34.3783 14.7484 33.4057 12.375 31.6058C12.2683 31.5258 12.1816 31.422 12.122 31.3026C12.0623 31.1833 12.0312 31.0517 12.0312 30.9183V23.2029C12.0313 23.0347 12.0806 22.8702 12.1732 22.7299C12.2658 22.5895 12.3975 22.4793 12.552 22.4131L18.5677 19.835L19.2448 21.4145L13.75 23.7692V30.4818C15.7633 31.8967 18.1642 32.656 20.625 32.656C23.0858 32.656 25.4867 31.8967 27.5 30.4818V23.7692L22.0052 21.4145L22.6823 19.835L28.698 22.4131C28.8525 22.4793 28.9842 22.5895 29.0768 22.7299C29.1694 22.8702 29.2187 23.0347 29.2188 23.2029V30.9192C29.2188 31.0526 29.1877 31.1842 29.128 31.3035C29.0684 31.4228 28.9817 31.5266 28.875 31.6067C26.5015 33.4063 23.6036 34.3785 20.625 34.3747Z" fill="#4AAB3D"/>
<path d="M19.7656 22.3438H21.4844V33.5156H19.7656V22.3438ZM7.73438 36.0938H9.45312V37.8125H7.73438V36.0938ZM11.1719 36.0938H25.7812V37.8125H11.1719V36.0938ZM6.01562 39.5312H25.7812V41.25H6.01562V39.5312ZM6.01562 42.9688H25.7812V44.6875H6.01562V42.9688ZM38.6719 24.9219C38.444 24.9219 38.2254 24.8313 38.0642 24.6702C37.903 24.509 37.8125 24.2904 37.8125 24.0625V21.4844H30.0781C29.3944 21.4844 28.7386 21.2128 28.2551 20.7293C27.7716 20.2458 27.5 19.59 27.5 18.9062V8.59375C27.5 7.90999 27.7716 7.25423 28.2551 6.77074C28.7386 6.28725 29.3944 6.01563 30.0781 6.01562H45.5469C46.2306 6.01562 46.8864 6.28725 47.3699 6.77074C47.8534 7.25423 48.125 7.90999 48.125 8.59375V18.9062C48.125 19.59 47.8534 20.2458 47.3699 20.7293C46.8864 21.2128 46.2306 21.4844 45.5469 21.4844H42.4652L39.2795 24.6701C39.1183 24.8313 38.8998 24.9218 38.6719 24.9219ZM30.0781 7.73438C29.8502 7.73438 29.6316 7.82492 29.4705 7.98608C29.3093 8.14724 29.2188 8.36583 29.2188 8.59375V18.9062C29.2188 19.1342 29.3093 19.3528 29.4705 19.5139C29.6316 19.6751 29.8502 19.7656 30.0781 19.7656H38.6719C38.8998 19.7656 39.1184 19.8562 39.2795 20.0173C39.4407 20.1785 39.5312 20.3971 39.5312 20.625V21.988L41.5018 20.0174C41.6629 19.8562 41.8815 19.7657 42.1094 19.7656H45.5469C45.7748 19.7656 45.9934 19.6751 46.1545 19.5139C46.3157 19.3528 46.4062 19.1342 46.4062 18.9062V8.59375C46.4062 8.36583 46.3157 8.14724 46.1545 7.98608C45.9934 7.82492 45.7748 7.73438 45.5469 7.73438H30.0781Z" fill="#4AAB3D"/>
<path d="M36.0939 17.1877C35.866 17.1876 35.6475 17.097 35.4863 16.9359L33.7676 15.2171L34.9827 14.002L36.0939 15.1131L40.6426 10.5645L41.8577 11.7796L36.7015 16.9359C36.5404 17.097 36.3218 17.1876 36.0939 17.1877Z" fill="#4AAB3D"/>
</svg>
