<svg width="16" height="18" viewBox="0 0 16 18" fill="none" xmlns="http://www.w3.org/2000/svg">
<path d="M9.52009 8.55615C10.4326 8.10481 11.1657 7.35811 11.6002 6.43741C12.0347 5.51671 12.145 4.47612 11.9132 3.48479C11.6815 2.49345 11.1213 1.60963 10.3237 0.97697C9.52603 0.34431 8.53788 0 7.51982 0C6.50175 0 5.5136 0.34431 4.71598 0.97697C3.91836 1.60963 3.35814 2.49345 3.12639 3.48479C2.89463 4.47612 3.00496 5.51671 3.43943 6.43741C3.87391 7.35811 4.60699 8.10481 5.51955 8.55615C3.93426 8.9936 2.53607 9.93867 1.53917 11.2466C0.542262 12.5545 0.0016004 14.1532 0 15.7977V16.5497C0 16.7492 0.0792266 16.9404 0.22025 17.0814C0.361274 17.2225 0.552544 17.3017 0.751982 17.3017H14.2877C14.4871 17.3017 14.6784 17.2225 14.8194 17.0814C14.9604 16.9404 15.0396 16.7492 15.0396 16.5497V15.7977C15.038 14.1532 14.4974 12.5545 13.5005 11.2466C12.5036 9.93867 11.1054 8.9936 9.52009 8.55615ZM4.51189 4.51801C4.51189 3.9231 4.6883 3.34155 5.01882 2.8469C5.34933 2.35225 5.81911 1.96671 6.36873 1.73905C6.91836 1.51139 7.52315 1.45182 8.10663 1.56788C8.69011 1.68394 9.22608 1.97042 9.64674 2.39109C10.0674 2.81175 10.3539 3.34771 10.4699 3.93119C10.586 4.51468 10.5264 5.11947 10.2988 5.6691C10.0711 6.21872 9.68558 6.6885 9.19093 7.01901C8.69628 7.34953 8.11473 7.52594 7.51982 7.52594C6.72206 7.52594 5.95699 7.20903 5.39289 6.64494C4.8288 6.08084 4.51189 5.31576 4.51189 4.51801ZM1.50396 15.7977C1.50396 14.2022 2.13777 12.6721 3.26597 11.5439C4.39416 10.4157 5.92431 9.78188 7.51982 9.78188C9.11532 9.78188 10.6455 10.4157 11.7737 11.5439C12.9019 12.6721 13.5357 14.2022 13.5357 15.7977H1.50396Z" fill="#4AAB3D"/>
</svg>
