<svg width="15" height="15" viewBox="0 0 15 15" fill="none" xmlns="http://www.w3.org/2000/svg">
<path d="M10.9324 14.9983C5.83277 15.1414 -3.19491 6.11619 1.14621 1.21111C1.16186 1.19612 1.82958 0.614931 1.82958 0.614931C2.24865 0.228064 2.79967 0.0153351 3.37035 0.0200959C3.94104 0.0248566 4.48842 0.246749 4.90096 0.640553L6.24767 2.08914C6.64436 2.50314 6.86374 3.05531 6.85918 3.62829C6.85462 4.20127 6.62649 4.74989 6.22326 5.15755L5.98046 5.40377C6.70358 7.00289 7.98296 8.28584 9.58126 9.01461L9.83847 8.76464C10.2556 8.36787 10.8096 8.14656 11.3857 8.14656C11.9618 8.14656 12.5159 8.36787 12.933 8.76464L14.3329 10.0614C14.7476 10.4659 14.9856 11.0175 14.9952 11.5963C15.0048 12.1751 14.7852 12.7343 14.3842 13.1523C14.3842 13.1523 13.8022 13.8184 13.7872 13.8341C13.4122 14.2072 12.9668 14.5022 12.4767 14.7021C11.9866 14.9019 11.4617 15.0026 10.9324 14.9983ZM2.45287 2.56221C-0.587859 6.32304 9.14509 15.4814 12.4374 12.5298C12.4374 12.5298 13.0156 11.868 13.0313 11.853C13.0899 11.7944 13.1229 11.715 13.1229 11.6321C13.1229 11.5493 13.0899 11.4698 13.0313 11.4112L11.6307 10.1151C11.443 9.95888 11.3372 9.95701 11.1633 10.0901L10.4524 10.7888C10.3241 10.9148 10.1624 11.0013 9.98629 11.0381C9.81022 11.0749 9.62728 11.0603 9.45924 10.9963C8.21055 10.5322 7.07635 9.80554 6.13354 8.86543C5.19073 7.92532 4.46134 6.79378 3.99482 5.5475C3.92692 5.37833 3.90987 5.19306 3.94577 5.01436C3.98167 4.83566 4.06896 4.67129 4.19695 4.54137L4.89033 3.83769C4.9219 3.80968 4.94728 3.7754 4.96483 3.73704C4.98238 3.69867 4.99172 3.65707 4.99225 3.6149C4.99278 3.57273 4.98449 3.53091 4.96791 3.49211C4.95133 3.45332 4.92682 3.41841 4.89596 3.38962L3.548 1.94103C3.48836 1.89126 3.41192 1.86612 3.33433 1.87077C3.25674 1.87541 3.18386 1.90949 3.1306 1.96603C3.11558 1.98165 2.45287 2.56221 2.45287 2.56221ZM15 5.93683C14.9982 4.36285 14.3712 2.85385 13.2567 1.74087C12.1422 0.62789 10.6311 0.00181935 9.05497 0C8.80602 0 8.56726 0.098761 8.39122 0.274557C8.21518 0.450352 8.11629 0.688782 8.11629 0.937395C8.11629 1.18601 8.21518 1.42444 8.39122 1.60023C8.56726 1.77603 8.80602 1.87479 9.05497 1.87479C10.1334 1.87611 11.1672 2.3045 11.9298 3.066C12.6923 3.82749 13.1213 4.85992 13.1226 5.93683C13.1226 6.18545 13.2215 6.42388 13.3976 6.59967C13.5736 6.77547 13.8124 6.87423 14.0613 6.87423C14.3103 6.87423 14.549 6.77547 14.7251 6.59967C14.9011 6.42388 15 6.18545 15 5.93683ZM11.871 5.93683C11.8702 5.19125 11.5733 4.47644 11.0453 3.94923C10.5174 3.42203 9.80159 3.12548 9.05497 3.12465C8.80602 3.12465 8.56726 3.22341 8.39122 3.39921C8.21518 3.575 8.11629 3.81343 8.11629 4.06204C8.11629 4.31066 8.21518 4.54909 8.39122 4.72488C8.56726 4.90068 8.80602 4.99944 9.05497 4.99944C9.30393 4.99944 9.54269 5.0982 9.71873 5.274C9.89476 5.44979 9.99366 5.68822 9.99366 5.93683C9.99366 6.18545 10.0926 6.42388 10.2686 6.59967C10.4446 6.77547 10.6834 6.87423 10.9324 6.87423C11.1813 6.87423 11.4201 6.77547 11.5961 6.59967C11.7721 6.42388 11.871 6.18545 11.871 5.93683Z" fill="#515151"/>
</svg>
