<svg width="55" height="56" viewBox="0 0 55 56" fill="none" xmlns="http://www.w3.org/2000/svg">
<path d="M7.67551 16.7348C7.35884 16.7348 7.04216 16.7095 6.72549 16.6462C5.39546 16.3802 4.31876 15.5695 3.62208 14.3154C2.83673 12.9221 2.55806 11.0347 2.77339 8.70397C3.05207 5.7779 3.12807 4.61253 3.1534 4.11852C3.17874 3.70051 3.17874 3.61184 3.28007 3.37117C3.34341 3.2065 3.47008 3.0925 3.62208 3.0165C3.77408 2.95316 3.95142 2.95316 4.11609 3.0165C7.62484 4.52387 10.1456 6.24657 11.5896 8.12129C13.1856 10.2113 13.1096 11.9847 12.755 13.1121C12.0963 15.2401 9.89223 16.7348 7.67551 16.7348ZM4.39477 4.53653C4.35677 5.18255 4.2681 6.39858 4.04009 8.81797C3.68542 12.5547 4.76211 14.9488 6.9915 15.3921C8.86621 15.7721 10.9943 14.5308 11.5516 12.7447C12.3876 10.034 9.72756 6.99393 4.39477 4.53653Z" fill="#4AAB3D"/>
<path d="M11.5782 20.5474H11.4896C11.1476 20.4967 10.9069 20.18 10.9449 19.838C10.9449 19.8254 11.1856 18.0646 10.7929 16.2026C10.2989 13.8339 9.07017 12.3772 7.14479 11.8705C6.80278 11.7818 6.60011 11.4398 6.68878 11.0978C6.77745 10.7558 7.11946 10.5531 7.46146 10.6418C9.88086 11.2625 11.4642 13.1119 12.0469 15.9746C12.4649 18.052 12.2116 19.9267 12.1989 20.0027C12.1609 20.3194 11.8822 20.5474 11.5782 20.5474ZM20.4578 16.7346C18.2284 16.7346 16.037 15.2399 15.3783 13.1245C15.0236 11.9972 14.9476 10.2238 16.5437 8.13374C17.9877 6.24636 20.4958 4.53632 24.0172 3.02895C24.1692 2.96561 24.3465 2.96561 24.5112 3.02895C24.6632 3.09228 24.7899 3.21895 24.8532 3.38362C24.9546 3.62429 24.9546 3.7003 24.9799 4.13097C25.0052 4.62498 25.0812 5.79035 25.3599 8.71642C25.5752 11.0345 25.2966 12.9219 24.5112 14.3279C23.8019 15.5819 22.7378 16.3926 21.4078 16.6586C21.0911 16.6966 20.7745 16.7346 20.4578 16.7346ZM23.7385 4.53632C18.4057 6.99371 15.7457 10.0338 16.5817 12.7445C17.139 14.5306 19.2671 15.7719 21.1418 15.3919C23.3712 14.9486 24.4479 12.5418 24.0932 8.81775C23.8652 6.39836 23.7765 5.18233 23.7385 4.53632Z" fill="#4AAB3D"/>
<path d="M16.5559 20.5477C16.2392 20.5477 15.9732 20.3197 15.9352 20.003C15.9226 19.927 15.6692 18.0523 16.0872 15.9749C16.6699 13.1122 18.2533 11.2628 20.6727 10.6421C21.0147 10.5535 21.3567 10.7562 21.4454 11.0982C21.534 11.4402 21.3314 11.7822 20.9894 11.8708C19.064 12.3649 17.8353 13.8216 17.3413 16.203C16.9613 18.065 17.1893 19.8257 17.1893 19.8384C17.2399 20.1804 16.9993 20.5097 16.6446 20.5477H16.5559Z" fill="#4AAB3D"/>
<path d="M27.5 55.749H0.633349C0.278673 55.749 0 55.4703 0 55.1156V19.9141C0 19.5594 0.278673 19.2808 0.633349 19.2808H27.5C27.8547 19.2808 28.1333 19.5594 28.1333 19.9141V55.1156C28.1333 55.4576 27.842 55.749 27.5 55.749ZM1.2667 54.4823H26.8667V20.5475H1.2667V54.4823Z" fill="#4AAB3D"/>
<path d="M22.0916 55.7487C21.7369 55.7487 21.4582 55.4701 21.4582 55.1154V44.2345H6.66318V55.1154C6.66318 55.4701 6.38451 55.7487 6.02983 55.7487C5.67516 55.7487 5.39648 55.4701 5.39648 55.1154V43.6011C5.39648 43.2464 5.67516 42.9678 6.02983 42.9678H22.0916C22.4462 42.9678 22.7249 43.2464 22.7249 43.6011V55.1154C22.7249 55.4574 22.4462 55.7487 22.0916 55.7487Z" fill="#4AAB3D"/>
<path d="M14.0605 55.7494C13.7058 55.7494 13.4271 55.4707 13.4271 55.116V44.3111C13.4271 43.9564 13.7058 43.6777 14.0605 43.6777C14.4151 43.6777 14.6938 43.9564 14.6938 44.3111V55.116C14.6938 55.458 14.4151 55.7494 14.0605 55.7494ZM22.636 39.1556H5.48491C5.13024 39.1556 4.85156 38.8769 4.85156 38.5223V33.7975C4.85156 33.4428 5.13024 33.1641 5.48491 33.1641H22.636C22.9907 33.1641 23.2693 33.4428 23.2693 33.7975V38.5223C23.2693 38.8769 22.9907 39.1556 22.636 39.1556ZM6.11826 37.8889H22.0026V34.4308H6.11826V37.8889ZM22.636 30.3521H5.48491C5.13024 30.3521 4.85156 30.0734 4.85156 29.7187V24.9939C4.85156 24.6393 5.13024 24.3606 5.48491 24.3606H22.636C22.9907 24.3606 23.2693 24.6393 23.2693 24.9939V29.7187C23.2693 30.0734 22.9907 30.3521 22.636 30.3521ZM6.11826 29.0854H22.0026V25.6273H6.11826V29.0854ZM54.3541 55.7494H27.5001C27.1454 55.7494 26.8668 55.4707 26.8668 55.116C26.8668 54.7613 27.1454 54.4827 27.5001 54.4827H53.7334V26.5393H27.5001C27.1454 26.5393 26.8668 26.2606 26.8668 25.906C26.8668 25.5513 27.1454 25.2726 27.5001 25.2726H54.3668C54.7214 25.2726 55.0001 25.5513 55.0001 25.906V55.116C54.9874 55.458 54.7088 55.7494 54.3541 55.7494Z" fill="#4AAB3D"/>
<path d="M38.3295 34.9377H33.0474C32.6927 34.9377 32.4141 34.659 32.4141 34.3044V28.7562C32.4141 28.4016 32.6927 28.1229 33.0474 28.1229H38.3295C38.6842 28.1229 38.9629 28.4016 38.9629 28.7562V34.3044C38.9629 34.6464 38.6842 34.9377 38.3295 34.9377ZM33.6808 33.671H37.6962V29.3896H33.6808V33.671ZM48.8051 34.9377H43.523C43.1683 34.9377 42.8896 34.659 42.8896 34.3044V28.7562C42.8896 28.4016 43.1683 28.1229 43.523 28.1229H48.8051C49.1598 28.1229 49.4385 28.4016 49.4385 28.7562V34.3044C49.4385 34.6464 49.1598 34.9377 48.8051 34.9377ZM44.1563 33.671H48.1718V29.3896H44.1563V33.671ZM38.3295 43.9186H33.0474C32.6927 43.9186 32.4141 43.6399 32.4141 43.2853V37.7371C32.4141 37.3825 32.6927 37.1038 33.0474 37.1038H38.3295C38.6842 37.1038 38.9629 37.3825 38.9629 37.7371V43.2853C38.9629 43.6399 38.6842 43.9186 38.3295 43.9186ZM33.6808 42.6519H37.6962V38.3705H33.6808V42.6519ZM48.8051 43.9186H43.523C43.1683 43.9186 42.8896 43.6399 42.8896 43.2853V37.7371C42.8896 37.3825 43.1683 37.1038 43.523 37.1038H48.8051C49.1598 37.1038 49.4385 37.3825 49.4385 37.7371V43.2853C49.4385 43.6399 49.1598 43.9186 48.8051 43.9186ZM44.1563 42.6519H48.1718V38.3705H44.1563V42.6519ZM38.3295 52.8995H33.0474C32.6927 52.8995 32.4141 52.6208 32.4141 52.2661V46.718C32.4141 46.3633 32.6927 46.0847 33.0474 46.0847H38.3295C38.6842 46.0847 38.9629 46.3633 38.9629 46.718V52.2661C38.9629 52.6208 38.6842 52.8995 38.3295 52.8995ZM33.6808 51.6328H37.6962V47.3514H33.6808V51.6328ZM48.8051 52.8995H43.523C43.1683 52.8995 42.8896 52.6208 42.8896 52.2661V46.718C42.8896 46.3633 43.1683 46.0847 43.523 46.0847H48.8051C49.1598 46.0847 49.4385 46.3633 49.4385 46.718V52.2661C49.4385 52.6208 49.1598 52.8995 48.8051 52.8995ZM44.1563 51.6328H48.1718V47.3514H44.1563V51.6328ZM43.257 26.5395C42.9023 26.5395 42.6236 26.2608 42.6236 25.9062V13.8472C42.6236 13.4925 42.9023 13.2139 43.257 13.2139C43.6117 13.2139 43.8903 13.4925 43.8903 13.8472V25.9062C43.8903 26.2608 43.6117 26.5395 43.257 26.5395ZM38.5955 26.5395C38.2409 26.5395 37.9622 26.2608 37.9622 25.9062V13.8472C37.9622 13.4925 38.2409 13.2139 38.5955 13.2139C38.9502 13.2139 39.2289 13.4925 39.2289 13.8472V25.9062C39.2289 26.2608 38.9502 26.5395 38.5955 26.5395Z" fill="#4AAB3D"/>
<path d="M52.6816 14.4801H29.1717C28.969 14.4801 28.7917 14.3914 28.665 14.2267C28.5383 14.062 28.5003 13.872 28.551 13.682L32.0851 0.470387C32.1611 0.191714 32.4144 0.00170898 32.6931 0.00170898H49.1602C49.4515 0.00170898 49.6922 0.191714 49.7682 0.470387L53.2896 13.682C53.3403 13.872 53.3023 14.0747 53.1756 14.2267C53.0616 14.3914 52.8843 14.4801 52.6816 14.4801ZM29.995 13.2134H51.8582L48.6788 1.26841H33.1745L29.995 13.2134Z" fill="#4AAB3D"/>
<path d="M50.3386 5.67637H31.5155C31.1608 5.67637 30.8822 5.39769 30.8822 5.04302C30.8822 4.68834 31.1608 4.40967 31.5155 4.40967H50.326C50.6806 4.40967 50.9593 4.68834 50.9593 5.04302C50.9593 5.39769 50.6806 5.67637 50.3386 5.67637ZM51.504 10.0718H30.3501C29.9955 10.0718 29.7168 9.79313 29.7168 9.43846C29.7168 9.08378 29.9955 8.80511 30.3501 8.80511H51.5167C51.8713 8.80511 52.15 9.08378 52.15 9.43846C52.15 9.79313 51.8587 10.0718 51.504 10.0718Z" fill="#4AAB3D"/>
<path d="M37.0131 14.4801H36.9625C36.6078 14.4548 36.3544 14.1381 36.3924 13.7961L37.5705 0.584426C37.5958 0.229751 37.9125 -0.0235883 38.2545 0.0144126C38.6092 0.0397466 38.8625 0.356421 38.8245 0.698429L37.6465 13.9101C37.6085 14.2268 37.3298 14.4801 37.0131 14.4801ZM44.8413 14.4801C44.512 14.4801 44.246 14.2268 44.208 13.8974L43.0299 0.685762C43.0046 0.331087 43.2579 0.0270795 43.6 0.00174559C43.942 -0.0235884 44.2586 0.229751 44.284 0.571759L45.462 13.7834C45.4873 14.1381 45.234 14.4421 44.892 14.4674C44.8793 14.4801 44.8667 14.4801 44.8413 14.4801Z" fill="#4AAB3D"/>
</svg>
