<svg width="55" height="55" viewBox="0 0 55 55" fill="none" xmlns="http://www.w3.org/2000/svg">
<path d="M54.0833 53.1667H34.8333V51.3333C34.8333 50.8471 34.6402 50.3808 34.2964 50.037C33.9525 49.6932 33.4862 49.5 33 49.5V45.8333H46.0222C46.3486 45.8332 46.6691 45.7459 46.9505 45.5804C47.2319 45.4149 47.4641 45.1773 47.6229 44.8921C47.7818 44.6069 47.8616 44.2845 47.8541 43.9581C47.8467 43.6318 47.7522 43.3133 47.5805 43.0357L32.8368 19.2023C32.6735 18.9359 32.4444 18.716 32.1714 18.5638C31.8985 18.4116 31.591 18.3323 31.2785 18.3333H18.1445C17.8181 18.3335 17.4976 18.4208 17.2162 18.5863C16.9347 18.7517 16.7026 18.9893 16.5438 19.2745C16.3849 19.5597 16.3051 19.8822 16.3125 20.2085C16.32 20.5349 16.4145 20.8534 16.5862 21.131L27.5 38.775V49.5C27.0138 49.5 26.5475 49.6932 26.2036 50.037C25.8598 50.3808 25.6667 50.8471 25.6667 51.3333V53.1667H15.5833V51.3333C15.5833 50.8471 15.3902 50.3808 15.0464 50.037C14.7025 49.6932 14.2362 49.5 13.75 49.5V45.8333H23.0881C23.4159 45.8332 23.7378 45.7452 24.02 45.5785C24.3023 45.4117 24.5347 45.1723 24.693 44.8852C24.8513 44.5981 24.9297 44.2738 24.9201 43.9461C24.9104 43.6184 24.8131 43.2992 24.6382 43.0219L13.6538 25.6053C13.4888 25.3424 13.2596 25.1259 12.9877 24.9762C12.7159 24.8265 12.4103 24.7487 12.1 24.75H2.57858C2.25073 24.7501 1.9289 24.8381 1.64662 25.0049C1.36435 25.1716 1.13195 25.411 0.973656 25.6981C0.815358 25.9853 0.736948 26.3096 0.746594 26.6373C0.75624 26.965 0.853589 27.2841 1.0285 27.5614L8.25 39.0115V49.5C7.76377 49.5 7.29745 49.6932 6.95364 50.037C6.60982 50.3808 6.41667 50.8471 6.41667 51.3333V53.1667H0.916667C0.673552 53.1667 0.440394 53.2632 0.268485 53.4352C0.0965771 53.6071 0 53.8402 0 54.0833C0 54.3265 0.0965771 54.5596 0.268485 54.7315C0.440394 54.9034 0.673552 55 0.916667 55H54.0833C54.3265 55 54.5596 54.9034 54.7315 54.7315C54.9034 54.5596 55 54.3265 55 54.0833C55 53.8402 54.9034 53.6071 54.7315 53.4352C54.5596 53.2632 54.3265 53.1667 54.0833 53.1667ZM32.8882 44L27.7851 35.75H40.9218L46.0267 44H32.8882ZM39.7879 33.9167H26.6503L22.6811 27.5H35.8169L39.7879 33.9167ZM31.2785 20.1667L34.6821 25.6667H21.5472L18.1445 20.1667H31.2785ZM29.3333 41.7386L31.1667 44.7022V49.5H29.3333V41.7386ZM13.5667 44L10.098 38.5H19.6231L23.0936 44H13.5667ZM18.469 36.6667H8.93842L6.05 32.0833H15.5733L18.469 36.6667ZM12.1 26.5833L14.4137 30.25H4.89133L2.57858 26.5833H12.1ZM10.0833 41.9183L11.9167 44.825V49.5H10.0833V41.9183ZM8.25 53.1667V51.3333H13.75V53.1667H8.25ZM27.5 53.1667V51.3333H33V53.1667H27.5ZM49.5 11C49.5 9.9122 49.1774 8.84883 48.5731 7.94436C47.9687 7.03989 47.1098 6.33494 46.1048 5.91866C45.0998 5.50238 43.9939 5.39346 42.927 5.60568C41.8601 5.8179 40.8801 6.34172 40.1109 7.11091C39.3417 7.8801 38.8179 8.86011 38.6057 9.927C38.3935 10.9939 38.5024 12.0998 38.9187 13.1048C39.3349 14.1098 40.0399 14.9687 40.9444 15.5731C41.8488 16.1774 42.9122 16.5 44 16.5C45.4582 16.4985 46.8563 15.9186 47.8875 14.8875C48.9186 13.8563 49.4985 12.4582 49.5 11ZM44 14.6667C43.2748 14.6667 42.5659 14.4516 41.9629 14.0487C41.3599 13.6458 40.89 13.0732 40.6124 12.4032C40.3349 11.7332 40.2623 10.9959 40.4038 10.2847C40.5453 9.57341 40.8945 8.92007 41.4073 8.40728C41.9201 7.89448 42.5734 7.54527 43.2847 7.40379C43.9959 7.26231 44.7332 7.33492 45.4032 7.61244C46.0732 7.88996 46.6458 8.35993 47.0487 8.96291C47.4516 9.56589 47.6667 10.2748 47.6667 11C47.6667 11.9725 47.2804 12.9051 46.5927 13.5927C45.9051 14.2804 44.9725 14.6667 44 14.6667ZM44 3.66667C44.2431 3.66667 44.4763 3.57009 44.6482 3.39818C44.8201 3.22627 44.9167 2.99312 44.9167 2.75V0.916667C44.9167 0.673552 44.8201 0.440394 44.6482 0.268485C44.4763 0.0965771 44.2431 0 44 0C43.7569 0 43.5237 0.0965771 43.3518 0.268485C43.1799 0.440394 43.0833 0.673552 43.0833 0.916667V2.75C43.0833 2.99312 43.1799 3.22627 43.3518 3.39818C43.5237 3.57009 43.7569 3.66667 44 3.66667ZM43.0833 19.25V21.0833C43.0833 21.3264 43.1799 21.5596 43.3518 21.7315C43.5237 21.9034 43.7569 22 44 22C44.2431 22 44.4763 21.9034 44.6482 21.7315C44.8201 21.5596 44.9167 21.3264 44.9167 21.0833V19.25C44.9167 19.0069 44.8201 18.7737 44.6482 18.6018C44.4763 18.4299 44.2431 18.3333 44 18.3333C43.7569 18.3333 43.5237 18.4299 43.3518 18.6018C43.1799 18.7737 43.0833 19.0069 43.0833 19.25ZM39.0812 4.31383C39.2036 4.52266 39.4036 4.67458 39.6377 4.73645C39.8717 4.79832 40.1207 4.76512 40.3303 4.64409C40.5399 4.52305 40.6932 4.32401 40.7566 4.09041C40.82 3.8568 40.7885 3.6076 40.6688 3.39717L39.7522 1.8095C39.6924 1.70441 39.6125 1.61217 39.5169 1.53811C39.4214 1.46404 39.3121 1.4096 39.1955 1.37792C39.0788 1.34625 38.957 1.33797 38.8371 1.35355C38.7173 1.36913 38.6016 1.40827 38.497 1.46872C38.3923 1.52916 38.3006 1.60972 38.2271 1.70575C38.1537 1.80178 38.1 1.91139 38.0691 2.02827C38.0382 2.14514 38.0307 2.26697 38.0471 2.38675C38.0635 2.50652 38.1034 2.62188 38.1645 2.72617L39.0812 4.31383ZM48.2478 20.1905C48.3076 20.2956 48.3875 20.3878 48.4831 20.4619C48.5786 20.536 48.6879 20.5904 48.8045 20.6221C48.9212 20.6537 49.043 20.662 49.1629 20.6465C49.2827 20.6309 49.3984 20.5917 49.5031 20.5313C49.6077 20.4708 49.6994 20.3903 49.7729 20.2942C49.8463 20.1982 49.9 20.0886 49.9309 19.9717C49.9618 19.8549 49.9693 19.733 49.9529 19.6133C49.9365 19.4935 49.8966 19.3781 49.8355 19.2738L48.9188 17.6862C48.8591 17.5811 48.7791 17.4888 48.6836 17.4148C48.5881 17.3407 48.4788 17.2863 48.3621 17.2546C48.2455 17.2229 48.1237 17.2146 48.0038 17.2302C47.8839 17.2458 47.7683 17.2849 47.6636 17.3454C47.5589 17.4058 47.4672 17.4864 47.3938 17.5824C47.3204 17.6784 47.2666 17.7881 47.2357 17.9049C47.2048 18.0218 47.1974 18.1436 47.2137 18.2634C47.2301 18.3832 47.27 18.4985 47.3312 18.6028L48.2478 20.1905ZM34.8095 6.75217L36.3972 7.66883C36.6076 7.78847 36.8568 7.82003 37.0904 7.7566C37.324 7.69318 37.5231 7.53993 37.6441 7.3303C37.7651 7.12067 37.7983 6.87168 37.7365 6.63766C37.6746 6.40364 37.5227 6.20359 37.3138 6.08117L35.7262 5.1645C35.6219 5.10336 35.5065 5.06345 35.3867 5.04708C35.267 5.0307 35.1451 5.03818 35.0283 5.06908C34.9114 5.09998 34.8018 5.15369 34.7058 5.22712C34.6097 5.30055 34.5292 5.39226 34.4687 5.49695C34.4083 5.60164 34.3691 5.71726 34.3535 5.83714C34.338 5.95702 34.3462 6.0788 34.3779 6.19547C34.4096 6.31213 34.464 6.42138 34.5381 6.51693C34.6122 6.61247 34.7044 6.69242 34.8095 6.75217ZM50.6862 15.9188L52.2738 16.8355C52.3781 16.8966 52.4935 16.9365 52.6133 16.9529C52.733 16.9693 52.8549 16.9618 52.9717 16.9309C53.0886 16.9 53.1982 16.8463 53.2943 16.7729C53.3903 16.6994 53.4708 16.6077 53.5313 16.5031C53.5917 16.3984 53.6309 16.2827 53.6465 16.1629C53.662 16.043 53.6538 15.9212 53.6221 15.8045C53.5904 15.6879 53.536 15.5786 53.4619 15.4831C53.3878 15.3875 53.2956 15.3076 53.1905 15.2478L51.6028 14.3312C51.4985 14.27 51.3832 14.2301 51.2634 14.2137C51.1436 14.1974 51.0218 14.2048 50.9049 14.2357C50.7881 14.2666 50.6785 14.3204 50.5824 14.3938C50.4864 14.4672 50.4058 14.5589 50.3454 14.6636C50.2849 14.7683 50.2458 14.8839 50.2302 15.0038C50.2146 15.1237 50.2229 15.2455 50.2546 15.3621C50.2863 15.4788 50.3407 15.5881 50.4148 15.6836C50.4888 15.7791 50.5811 15.8591 50.6862 15.9188ZM33.9167 11.9167H35.75C35.9931 11.9167 36.2263 11.8201 36.3982 11.6482C36.5701 11.4763 36.6667 11.2431 36.6667 11C36.6667 10.7569 36.5701 10.5237 36.3982 10.3518C36.2263 10.1799 35.9931 10.0833 35.75 10.0833H33.9167C33.6736 10.0833 33.4404 10.1799 33.2685 10.3518C33.0966 10.5237 33 10.7569 33 11C33 11.2431 33.0966 11.4763 33.2685 11.6482C33.4404 11.8201 33.6736 11.9167 33.9167 11.9167ZM54.0833 10.0833H52.25C52.0069 10.0833 51.7737 10.1799 51.6018 10.3518C51.4299 10.5237 51.3333 10.7569 51.3333 11C51.3333 11.2431 51.4299 11.4763 51.6018 11.6482C51.7737 11.8201 52.0069 11.9167 52.25 11.9167H54.0833C54.3265 11.9167 54.5596 11.8201 54.7315 11.6482C54.9034 11.4763 55 11.2431 55 11C55 10.7569 54.9034 10.5237 54.7315 10.3518C54.5596 10.1799 54.3265 10.0833 54.0833 10.0833ZM36.3972 14.3312L34.8095 15.2478C34.7044 15.3076 34.6122 15.3875 34.5381 15.4831C34.464 15.5786 34.4096 15.6879 34.3779 15.8045C34.3462 15.9212 34.338 16.043 34.3535 16.1629C34.3691 16.2827 34.4083 16.3984 34.4687 16.5031C34.5292 16.6077 34.6097 16.6994 34.7058 16.7729C34.8018 16.8463 34.9114 16.9 35.0283 16.9309C35.1451 16.9618 35.267 16.9693 35.3867 16.9529C35.5065 16.9365 35.6219 16.8966 35.7262 16.8355L37.3138 15.9188C37.5227 15.7964 37.6746 15.5964 37.7365 15.3623C37.7983 15.1283 37.7651 14.8793 37.6441 14.6697C37.5231 14.4601 37.324 14.3068 37.0904 14.2434C36.8568 14.18 36.6076 14.2115 36.3972 14.3312ZM51.15 7.79167C51.311 7.79201 51.4691 7.74962 51.6083 7.66883L53.196 6.75217C53.3011 6.69242 53.3933 6.61247 53.4674 6.51693C53.5415 6.42138 53.5959 6.31213 53.6276 6.19547C53.6593 6.0788 53.6675 5.95702 53.652 5.83714C53.6364 5.71726 53.5972 5.60164 53.5368 5.49695C53.4763 5.39226 53.3958 5.30055 53.2997 5.22712C53.2037 5.15369 53.0941 5.09998 52.9772 5.06908C52.8604 5.03818 52.7385 5.0307 52.6188 5.04708C52.499 5.06345 52.3836 5.10336 52.2793 5.1645L50.6917 6.08117C50.5169 6.18207 50.3804 6.33781 50.3031 6.52423C50.2259 6.71065 50.2124 6.91735 50.2646 7.11225C50.3168 7.30716 50.4319 7.47939 50.592 7.60223C50.7521 7.72507 50.9482 7.79166 51.15 7.79167ZM38.5 20.5269C38.6043 20.5871 38.7194 20.6261 38.8388 20.6417C38.9582 20.6574 39.0795 20.6493 39.1958 20.6181C39.3121 20.5869 39.421 20.533 39.5165 20.4596C39.612 20.3863 39.6921 20.2948 39.7522 20.1905L40.6688 18.6028C40.7885 18.3924 40.82 18.1432 40.7566 17.9096C40.6932 17.676 40.5399 17.4769 40.3303 17.3559C40.1207 17.2349 39.8717 17.2017 39.6377 17.2635C39.4036 17.3254 39.2036 17.4773 39.0812 17.6862L38.1645 19.2738C38.1042 19.3781 38.065 19.4933 38.0492 19.6127C38.0334 19.7322 38.0413 19.8535 38.0725 19.9699C38.1036 20.0863 38.1574 20.1954 38.2308 20.291C38.3042 20.3866 38.3956 20.4667 38.5 20.5269ZM47.6667 4.64933C47.8772 4.77089 48.1274 4.80383 48.3622 4.74091C48.5971 4.67799 48.7973 4.52437 48.9188 4.31383L49.8355 2.72617C49.8966 2.62188 49.9365 2.50652 49.9529 2.38675C49.9693 2.26697 49.9618 2.14514 49.9309 2.02827C49.9 1.91139 49.8463 1.80178 49.7729 1.70575C49.6994 1.60972 49.6077 1.52916 49.5031 1.46872C49.3984 1.40827 49.2827 1.36913 49.1629 1.35355C49.043 1.33797 48.9212 1.34625 48.8045 1.37792C48.6879 1.4096 48.5786 1.46404 48.4831 1.53811C48.3875 1.61217 48.3076 1.70441 48.2478 1.8095L47.3312 3.39717C47.2096 3.60771 47.1767 3.85791 47.2396 4.09273C47.3025 4.32756 47.4561 4.52777 47.6667 4.64933Z" fill="#4AAB3D"/>
</svg>
