<svg width="25" height="25" viewBox="0 0 25 25" fill="none" xmlns="http://www.w3.org/2000/svg">
<path d="M12.5 24.9999C19.4033 24.9999 24.9999 19.4028 24.9999 12.5C24.9999 5.59715 19.4038 0 12.5 0C5.59618 0 0 5.59764 0 12.5C0 19.4023 5.59667 24.9999 12.5 24.9999Z" fill="#F0F0F0"/>
<path fill-rule="evenodd" clip-rule="evenodd" d="M23.1518 5.97314H11.937V2.70898H20.27C21.4142 3.61998 22.3896 4.7248 23.1518 5.97314ZM24.999 12.5H11.9438V9.2368H24.5688C24.8552 10.3008 24.9999 11.3981 24.999 12.5ZM12.499 24.9999C15.325 25.0065 18.0687 24.0488 20.2768 22.2851H4.72167C6.92945 24.049 9.67309 25.0068 12.499 24.9999ZM23.1655 19.0283H1.83252C1.2103 18.0136 0.737821 16.9143 0.429688 15.7646H24.5683C24.2603 16.9144 23.7878 18.0136 23.1655 19.0283Z" fill="#D80027"/>
<path fill-rule="evenodd" clip-rule="evenodd" d="M5.80321 1.94532H5.79198V1.95313L5.80321 1.94532ZM5.80321 1.94532H6.93358L5.86864 2.70948L6.27147 3.95947L5.20897 3.19532L4.15331 3.95947L4.50048 2.88086C3.56742 3.6618 2.75334 4.57474 2.08398 5.59082H2.45214L1.77832 6.0791L1.47265 6.6162L1.79199 7.60937L1.18799 7.16991L0.771483 8.13964L1.11865 9.2285H2.43701L1.38916 10.0005L1.79199 11.2505L0.729491 10.4863L0.104493 10.9443C0.0347477 11.4599 -0.000162066 11.9797 5.656e-07 12.5H12.5V1.05285e-05C10.1279 -0.00307449 7.80443 0.671868 5.80321 1.94532ZM6.26903 11.2441L6.27831 11.2514H6.27147L6.26903 11.2441ZM5.86815 10.001L6.26903 11.2441L5.20848 10.4873L4.14599 11.2514L4.54882 10.0015L3.48632 9.23729H4.80468L5.20751 7.9873L5.61034 9.23729H6.92869L5.86815 10.001ZM5.87547 6.3623L6.27831 7.6123L5.21581 6.84814L4.15331 7.6123L4.55614 6.3623L3.49364 5.59814H4.812L5.21483 4.34814L5.61766 5.59814H6.93602L5.87547 6.3623ZM9.70164 10.4873L10.7641 11.2514L10.3613 10.0015L11.4258 9.23729H10.1074L9.70457 7.9873L9.30174 9.23729H7.98338L9.04588 10.0015L8.64305 11.2514L9.70164 10.4873ZM10.3613 6.3623L10.7641 7.6123L9.70164 6.84814L8.63914 7.6123L9.04197 6.3623L7.97947 5.59814H9.29783L9.70066 4.34814L10.1035 5.59814H11.4218L10.3613 6.3623ZM10.7641 3.97315L10.3613 2.72315L11.4258 1.95899H10.1074L9.70457 0.708993L9.30174 1.95899H7.98338L9.04588 2.72315L8.64305 3.97315L9.70554 3.20899L10.7641 3.97315Z" fill="#0052B4"/>
</svg>
