<svg width="16" height="18" viewBox="0 0 16 18" fill="none" xmlns="http://www.w3.org/2000/svg">
<path d="M7.65 4.5C7.02699 4.5 6.41797 4.67155 5.89996 4.99295C5.38194 5.31435 4.9782 5.77118 4.73978 6.30565C4.50136 6.84012 4.43898 7.42824 4.56053 7.99564C4.68207 8.56303 4.98208 9.08422 5.42261 9.49329C5.86315 9.90235 6.42443 10.1809 7.03547 10.2938C7.64651 10.4067 8.27987 10.3487 8.85545 10.1273C9.43104 9.90596 9.923 9.53105 10.2691 9.05004C10.6153 8.56903 10.8 8.00351 10.8 7.425C10.8 6.64924 10.4681 5.90526 9.87739 5.35671C9.28665 4.80817 8.48543 4.5 7.65 4.5ZM7.65 8.8875C7.3385 8.8875 7.03399 8.80172 6.77498 8.64102C6.51597 8.48032 6.3141 8.25191 6.19489 7.98467C6.07568 7.71744 6.04449 7.42338 6.10526 7.13968C6.16604 6.85598 6.31604 6.59539 6.53631 6.39086C6.75658 6.18632 7.03721 6.04703 7.34273 5.9906C7.64825 5.93417 7.96493 5.96313 8.25273 6.07383C8.54052 6.18452 8.7865 6.37197 8.95957 6.61248C9.13263 6.85298 9.225 7.13574 9.225 7.425C9.225 7.81288 9.05906 8.18487 8.76369 8.45914C8.46832 8.73341 8.06772 8.8875 7.65 8.8875Z" fill="#4AAB3D"/>
<path d="M7.65 17.9999C7.00935 18.0032 6.37724 17.8551 5.80659 17.568C5.23595 17.281 4.74338 16.8633 4.37012 16.3501C1.47066 12.4077 0 9.44394 0 7.5406C0 5.54071 0.80598 3.62273 2.24063 2.20859C3.67529 0.794454 5.62109 0 7.65 0C9.67891 0 11.6247 0.794454 13.0594 2.20859C14.494 3.62273 15.3 5.54071 15.3 7.5406C15.3 9.44394 13.8293 12.4077 10.9299 16.3501C10.5566 16.8633 10.0641 17.281 9.49341 17.568C8.92276 17.8551 8.29065 18.0032 7.65 17.9999ZM7.65 1.63711C6.06173 1.6389 4.53904 2.2616 3.41596 3.36861C2.29289 4.47563 1.66115 5.97655 1.65934 7.5421C1.65934 9.04947 3.09956 11.837 5.71372 15.3909C5.93565 15.6922 6.2268 15.9375 6.56334 16.1066C6.89988 16.2757 7.27226 16.3638 7.65 16.3638C8.02774 16.3638 8.40012 16.2757 8.73666 16.1066C9.0732 15.9375 9.36435 15.6922 9.58628 15.3909C12.2004 11.837 13.6407 9.04947 13.6407 7.5421C13.6388 5.97655 13.0071 4.47563 11.884 3.36861C10.761 2.2616 9.23827 1.6389 7.65 1.63711Z" fill="#4AAB3D"/>
</svg>
