<svg width="17" height="17" viewBox="0 0 17 17" fill="none" xmlns="http://www.w3.org/2000/svg">
<path d="M13.4583 0H3.54167C2.6027 0.00122698 1.70252 0.408682 1.03857 1.13299C0.374625 1.85729 0.00112473 2.83931 0 3.86364L0 13.1364C0.00112473 14.1607 0.374625 15.1427 1.03857 15.867C1.70252 16.5913 2.6027 16.9988 3.54167 17H13.4583C14.3973 16.9988 15.2975 16.5913 15.9614 15.867C16.6254 15.1427 16.9989 14.1607 17 13.1364V3.86364C16.9989 2.83931 16.6254 1.85729 15.9614 1.13299C15.2975 0.408682 14.3973 0.00122698 13.4583 0ZM3.54167 1.54545H13.4583C13.8825 1.54636 14.2967 1.68572 14.6476 1.94558C14.9985 2.20544 15.2701 2.57391 15.4275 3.00359L10.0031 8.92191C9.60389 9.35565 9.06342 9.59918 8.5 9.59918C7.93658 9.59918 7.39611 9.35565 6.99692 8.92191L1.5725 3.00359C1.72986 2.57391 2.00148 2.20544 2.35241 1.94558C2.70334 1.68572 3.11753 1.54636 3.54167 1.54545ZM13.4583 15.4545H3.54167C2.97808 15.4545 2.43758 15.2103 2.03906 14.7756C1.64055 14.3408 1.41667 13.7512 1.41667 13.1364V5.02273L5.99533 10.0145C6.66019 10.738 7.56093 11.1443 8.5 11.1443C9.43907 11.1443 10.3398 10.738 11.0047 10.0145L15.5833 5.02273V13.1364C15.5833 13.7512 15.3595 14.3408 14.9609 14.7756C14.5624 15.2103 14.0219 15.4545 13.4583 15.4545Z" fill="#4AAB3D"/>
</svg>
