<svg width="25" height="24" viewBox="0 0 25 24" fill="none" xmlns="http://www.w3.org/2000/svg">
<path d="M12.7852 5.98897C9.4602 5.98897 6.75523 8.68611 6.75523 12.0008C6.75523 15.3155 9.4602 18.0126 12.7852 18.0126C16.1096 18.0126 18.8151 15.316 18.8151 12.0008C18.8151 8.68558 16.1096 5.98897 12.7852 5.98897ZM12.7852 4.22188C12.4732 4.22188 12.174 4.09838 11.9534 3.87853C11.7328 3.65868 11.6087 3.36048 11.6086 3.04949V1.17292C11.6086 0.861844 11.7326 0.563507 11.9532 0.343541C12.1739 0.123575 12.4731 0 12.7852 0C13.0972 0 13.3965 0.123575 13.6171 0.343541C13.8378 0.563507 13.9617 0.861844 13.9617 1.17292V3.04949C13.9616 3.36048 13.8376 3.65868 13.6169 3.87853C13.3963 4.09838 13.0971 4.22188 12.7852 4.22188ZM12.7852 19.7781C12.6306 19.7781 12.4777 19.8085 12.3349 19.8674C12.1922 19.9263 12.0625 20.0127 11.9532 20.1217C11.844 20.2306 11.7573 20.3599 11.6982 20.5022C11.639 20.6445 11.6086 20.797 11.6086 20.951V22.8271C11.6086 23.1382 11.7326 23.4365 11.9532 23.6565C12.1739 23.8764 12.4731 24 12.7852 24C13.0972 24 13.3965 23.8764 13.6171 23.6565C13.8378 23.4365 13.9617 23.1382 13.9617 22.8271V20.951C13.9616 20.64 13.8376 20.3417 13.617 20.1218C13.3963 19.9019 13.0972 19.7783 12.7852 19.7781ZM18.3017 6.50023C18.0812 6.2802 17.9574 5.98191 17.9574 5.6709C17.9574 5.35988 18.0812 5.06159 18.3017 4.84156L19.6329 3.51452C19.7417 3.40374 19.8715 3.31557 20.0147 3.25511C20.1579 3.19466 20.3118 3.16311 20.4673 3.16231C20.6228 3.1615 20.777 3.19144 20.9208 3.25041C21.0647 3.30937 21.1954 3.39619 21.3054 3.50583C21.4154 3.61547 21.5024 3.74577 21.5616 3.88918C21.6207 4.03259 21.6508 4.18627 21.65 4.34132C21.6492 4.49638 21.6175 4.64974 21.5569 4.79252C21.4962 4.93531 21.4078 5.06469 21.2967 5.17319L19.9655 6.50023C19.7449 6.72017 19.4456 6.84373 19.1336 6.84373C18.8216 6.84373 18.5223 6.72017 18.3017 6.50023ZM7.26808 17.5008C7.1589 17.3918 7.02922 17.3053 6.88647 17.2463C6.74373 17.1873 6.59071 17.1569 6.43617 17.1569C6.28163 17.1569 6.12861 17.1873 5.98587 17.2463C5.84312 17.3053 5.71344 17.3918 5.60426 17.5008L4.27311 18.8273C4.05626 19.0481 3.93552 19.3452 3.93714 19.6541C3.93875 19.9631 4.06258 20.259 4.28173 20.4774C4.50087 20.6959 4.79764 20.8193 5.10755 20.8209C5.41747 20.8226 5.7155 20.7022 5.93692 20.486L7.26808 19.1584C7.37735 19.0497 7.46404 18.9205 7.52318 18.7782C7.58233 18.636 7.61277 18.4836 7.61277 18.3296C7.61277 18.1757 7.58233 18.0232 7.52318 17.881C7.46404 17.7388 7.37735 17.6096 7.26808 17.5008ZM20.5871 12.0003C20.5871 11.3524 21.1138 10.8273 21.7637 10.8273H23.6461C23.8026 10.824 23.9583 10.8519 24.1039 10.9093C24.2496 10.9668 24.3822 11.0526 24.4941 11.1618C24.6061 11.2711 24.695 11.4015 24.7557 11.5454C24.8164 11.6893 24.8477 11.8439 24.8477 12C24.8477 12.1561 24.8164 12.3107 24.7557 12.4546C24.695 12.5985 24.6061 12.7289 24.4941 12.8382C24.3822 12.9474 24.2496 13.0332 24.1039 13.0907C23.9583 13.1481 23.8026 13.176 23.6461 13.1727H21.7637C21.6092 13.1727 21.4562 13.1425 21.3135 13.0836C21.1707 13.0247 21.041 12.9383 20.9318 12.8295C20.8225 12.7206 20.7358 12.5913 20.6767 12.449C20.6175 12.3068 20.5871 12.1543 20.5871 12.0003ZM4.98267 12.0003C4.98267 11.8462 4.95223 11.6937 4.89311 11.5514C4.83398 11.4091 4.74731 11.2798 4.63806 11.1709C4.52881 11.062 4.3991 10.9756 4.25636 10.9166C4.11361 10.8577 3.96062 10.8273 3.80611 10.8273H1.92426C1.76768 10.824 1.61201 10.8519 1.46638 10.9093C1.32074 10.9668 1.18808 11.0526 1.07616 11.1618C0.964247 11.2711 0.875331 11.4015 0.814628 11.5454C0.753925 11.6893 0.722656 11.8439 0.722656 12C0.722656 12.1561 0.753925 12.3107 0.814628 12.4546C0.875331 12.5985 0.964247 12.7289 1.07616 12.8382C1.18808 12.9474 1.32074 13.0332 1.46638 13.0907C1.61201 13.1481 1.76768 13.176 1.92426 13.1727H3.80664C4.11854 13.1727 4.41767 13.0491 4.63822 12.8293C4.85876 12.6094 4.98267 12.3112 4.98267 12.0003ZM18.3017 17.5008C18.5224 17.281 18.8216 17.1576 19.1336 17.1576C19.4456 17.1576 19.7448 17.281 19.9655 17.5008L21.2967 18.8279C21.5172 19.0478 21.6411 19.3461 21.6411 19.6571C21.641 19.9681 21.517 20.2664 21.2964 20.4863C21.1872 20.5952 21.0575 20.6815 20.9147 20.7404C20.772 20.7993 20.6191 20.8296 20.4646 20.8296C20.1526 20.8296 19.8534 20.706 19.6329 20.486L18.3017 19.159C18.1924 19.0501 18.1057 18.9209 18.0466 18.7786C17.9874 18.6364 17.957 18.4839 17.957 18.3299C17.957 18.1759 17.9874 18.0234 18.0466 17.8812C18.1057 17.7389 18.1924 17.6097 18.3017 17.5008ZM7.26808 6.50023C7.4887 6.28027 7.61264 5.98195 7.61264 5.6709C7.61264 5.35984 7.4887 5.06152 7.26808 4.84156L5.93692 3.51505C5.71483 3.30256 5.41805 3.18531 5.11024 3.18843C4.80244 3.19156 4.50812 3.31482 4.29042 3.53178C4.07272 3.74874 3.94898 4.04211 3.94575 4.34896C3.94251 4.65582 4.06003 4.95172 4.27311 5.17319L5.60426 6.50023C5.71344 6.60926 5.84312 6.69576 5.98587 6.75478C6.12861 6.81379 6.28163 6.84417 6.43617 6.84417C6.59071 6.84417 6.74373 6.81379 6.88647 6.75478C7.02922 6.69576 7.1589 6.60926 7.26808 6.50023Z" fill="#4AAB3D"/>
</svg>
