<svg width="175" height="74" viewBox="0 0 175 74" fill="none" xmlns="http://www.w3.org/2000/svg">
<path fill-rule="evenodd" clip-rule="evenodd" d="M59 17.2642C52.0415 20.3302 45.6402 24.679 40.1594 30.1598C28.5321 41.787 22 57.557 22 74.0004H23C23 57.8222 29.4268 42.3066 40.8665 30.8669C46.1529 25.5805 52.3097 21.3646 59 18.3587V17.2642ZM108 17.9201C115.077 20.9488 121.585 25.3181 127.134 30.8669C138.573 42.3066 145 57.8222 145 74.0004H146C146 57.557 139.468 41.787 127.841 30.1598C122.098 24.4174 115.345 19.9178 108 16.834V17.9201Z" fill="white"/>
<path d="M140.781 23.5516L142.624 25.6702C142.965 26.0625 143.208 26.4764 143.354 26.9118C143.499 27.3472 143.537 27.7921 143.465 28.2465C143.405 28.7016 143.228 29.1628 142.935 29.6301C142.648 30.0921 142.242 30.5515 141.716 31.0083C141.191 31.4651 140.677 31.8064 140.174 32.0322C139.676 32.2528 139.195 32.3639 138.73 32.3655C138.276 32.368 137.844 32.267 137.433 32.0626C137.022 31.8582 136.645 31.5599 136.304 31.1675L134.461 29.0489L140.781 23.5516ZM136.974 30.5847C137.2 30.8443 137.45 31.0459 137.723 31.1897C138.003 31.3282 138.295 31.4025 138.601 31.4124C138.906 31.4223 139.216 31.3645 139.531 31.239C139.858 31.1143 140.178 30.9154 140.492 30.6423L141.524 29.7445C141.838 29.4715 142.076 29.1847 142.239 28.8841C142.412 28.5843 142.516 28.2825 142.548 27.9785C142.581 27.6746 142.545 27.3772 142.44 27.0864C142.342 26.7904 142.18 26.5126 141.954 26.253L140.772 24.895L135.793 29.2267L136.974 30.5847Z" fill="white"/>
<path d="M141.959 38.4288C141.659 37.9747 141.465 37.5133 141.376 37.0447C141.299 36.5784 141.324 36.1159 141.453 35.6572C141.593 35.2008 141.84 34.7549 142.195 34.3196C142.557 33.8798 143.031 33.4661 143.619 33.0785C144.207 32.6908 144.771 32.4196 145.311 32.2647C145.85 32.1098 146.358 32.0579 146.832 32.1091C147.311 32.1669 147.746 32.3255 148.138 32.5848C148.54 32.8464 148.892 33.2042 149.191 33.6583C149.486 34.1057 149.675 34.566 149.757 35.039C149.845 35.5076 149.82 35.9701 149.68 36.4265C149.545 36.8896 149.299 37.3388 148.945 37.7741C148.59 38.2095 148.118 38.621 147.531 39.0086C146.943 39.3963 146.376 39.6697 145.829 39.829C145.289 39.9839 144.78 40.0324 144.301 39.9746C143.833 39.9191 143.398 39.7605 142.995 39.4989C142.599 39.2329 142.254 38.8762 141.959 38.4288ZM142.71 37.9332C142.908 38.2338 143.144 38.4757 143.419 38.659C143.693 38.8422 143.99 38.958 144.309 39.0061C144.633 39.061 144.968 39.046 145.314 38.9611C145.661 38.8763 146.008 38.7194 146.355 38.4903L147.517 37.7239C147.864 37.4948 148.145 37.2377 148.359 36.9525C148.574 36.6673 148.72 36.3652 148.797 36.0461C148.878 35.7336 148.888 35.4152 148.828 35.091C148.767 34.7668 148.638 34.4544 148.44 34.1539C148.242 33.8533 148.005 33.6114 147.731 33.4282C147.457 33.2449 147.158 33.1258 146.834 33.071C146.515 33.0228 146.182 33.0411 145.835 33.126C145.489 33.2108 145.142 33.3677 144.795 33.5968L143.633 34.3632C143.285 34.5923 143.005 34.8494 142.79 35.1346C142.576 35.4198 142.428 35.7186 142.347 36.031C142.27 36.3502 142.261 36.6719 142.322 36.9961C142.382 37.3204 142.512 37.6327 142.71 37.9332Z" fill="white"/>
<path d="M145.649 44.5488L152.585 39.4398L152.997 40.4244L149.626 42.8082L147.007 44.6569L147.016 44.6791L150.204 44.1911L154.328 43.6106L154.772 44.6727L151.448 47.1671L148.873 49.0886L148.886 49.1218L152.04 48.5831L156.123 47.9032L156.521 48.8546L147.971 50.1025L147.541 49.0736L150.97 46.4574L153.506 44.5654L153.497 44.5432L150.359 44.997L146.079 45.5776L145.649 44.5488Z" fill="white"/>
<path d="M154.371 55.323L156.013 53.9937L156.007 53.9584L149.162 55.2313L148.982 54.2653L157.205 52.736L157.418 53.8788L152.958 57.8163L151.316 59.1455L151.322 59.1809L158.167 57.9079L158.347 58.874L150.124 60.4033L149.911 59.2605L154.371 55.323Z" fill="white"/>
<path d="M16.3405 62.1057C16.1816 62.7669 15.9215 63.3009 15.5604 63.7078C15.1915 64.1128 14.7461 64.4253 14.2242 64.6454L13.7914 63.7762C14.2418 63.58 14.6101 63.3312 14.8965 63.0298C15.1751 62.7265 15.3715 62.3376 15.4855 61.8632C15.6258 61.2798 15.5924 60.8028 15.3853 60.4321C15.18 60.0536 14.8441 59.8083 14.3774 59.6961C13.9885 59.6026 13.6609 59.6473 13.3948 59.8301C13.1287 60.013 12.8689 60.3578 12.6154 60.8646L12.3039 61.4932C11.9532 62.1988 11.5591 62.7088 11.1215 63.0232C10.6779 63.328 10.1412 63.4046 9.51111 63.2532C9.1533 63.1671 8.85029 63.0244 8.60205 62.8248C8.35382 62.6253 8.16442 62.3864 8.03383 62.1081C7.90512 61.8221 7.83337 61.5045 7.81857 61.1554C7.79786 60.7966 7.83519 60.4189 7.93056 60.0222C8.07828 59.4077 8.31729 58.9098 8.64759 58.5284C8.97975 58.1393 9.40009 57.8454 9.90861 57.6468L10.2686 58.5108C9.90324 58.6616 9.59277 58.875 9.3372 59.1509C9.08163 59.4268 8.8968 59.802 8.78274 60.2764C8.65745 60.7976 8.67112 61.237 8.82377 61.5945C8.9705 61.9425 9.26555 62.1697 9.70892 62.2763C10.0978 62.3698 10.4233 62.3164 10.6854 62.1162C10.9416 61.9062 11.1897 61.5586 11.4298 61.0733L11.7414 60.4447C12.1129 59.6865 12.5244 59.1725 12.976 58.9026C13.4276 58.6326 13.9568 58.5706 14.5635 58.7165C14.9369 58.8062 15.2593 58.9537 15.5309 59.1589C15.8044 59.3562 16.0171 59.6007 16.1691 59.8924C16.3212 60.184 16.4135 60.5188 16.446 60.8969C16.4804 61.2672 16.4452 61.6701 16.3405 62.1057Z" fill="white"/>
<path d="M18.3478 54.8663C17.9643 55.8587 17.33 56.5013 16.445 56.794C15.5526 57.0837 14.4497 56.9749 13.1364 56.4673C11.823 55.9598 10.9223 55.2944 10.4343 54.4711C9.93874 53.645 9.88275 52.7357 10.2663 51.7432C10.52 51.0865 10.8812 50.5957 11.3499 50.2708C11.8214 49.9384 12.3771 49.7544 13.017 49.7186L13.1818 50.6571C12.7183 50.6581 12.3051 50.7729 11.9423 51.0015C11.5721 51.2272 11.2932 51.5826 11.1058 52.0676C10.976 52.4034 10.9227 52.7301 10.9457 53.0478C10.9716 53.358 11.0679 53.6525 11.2346 53.9314C11.3968 54.1998 11.6232 54.446 11.9141 54.6699C12.1975 54.8909 12.5406 55.0793 12.9436 55.235L14.1077 55.6849C14.9136 55.9963 15.6163 56.0534 16.2156 55.8562C16.815 55.659 17.2459 55.2209 17.5083 54.5418C17.7015 54.0419 17.7362 53.575 17.6122 53.1411C17.4808 52.7044 17.2327 52.3255 16.8679 52.0044L17.6279 51.4361C18.0849 51.8958 18.3845 52.4189 18.5265 53.0056C18.6612 53.5894 18.6016 54.2096 18.3478 54.8663Z" fill="white"/>
<path d="M20.889 48.873L20.4345 49.7719L12.9655 45.9947L14.4699 43.02C14.8018 42.3637 15.2416 41.9456 15.7894 41.7658C16.3408 41.5788 16.959 41.6585 17.6438 42.0048C18.1931 42.2826 18.5811 42.6401 18.8079 43.0773C19.0312 43.5037 19.0755 43.9919 18.9407 44.5419L23.1023 44.4965L22.5882 45.5131L18.5609 45.5054L17.6789 47.2496L20.889 48.873ZM17.9582 44.7841C18.1386 44.4274 18.1848 44.1059 18.0967 43.8194C18.0122 43.5259 17.7988 43.2926 17.4564 43.1194L16.9 42.838C16.5575 42.6648 16.2431 42.6312 15.9566 42.7372C15.6737 42.836 15.4421 43.0637 15.2617 43.4204L14.2119 45.4963L16.9084 46.86L17.9582 44.7841Z" fill="white"/>
<path d="M25.3819 39.411C25.1022 39.8767 24.7705 40.2506 24.3868 40.5327C24.0003 40.8039 23.5728 40.9804 23.1042 41.0625C22.6329 41.1335 22.1246 41.1032 21.5794 40.9715C21.0273 40.8356 20.4499 40.5867 19.8472 40.2248C19.2445 39.8629 18.7569 39.4722 18.3844 39.0529C18.0119 38.6335 17.7463 38.1991 17.5875 37.7496C17.4328 37.2933 17.3878 36.833 17.4524 36.3686C17.5142 35.8932 17.685 35.4226 17.9646 34.9569C18.2402 34.498 18.5732 34.1296 18.9638 33.8516C19.3475 33.5695 19.7751 33.393 20.2464 33.3219C20.7218 33.244 21.2322 33.2709 21.7774 33.4026C22.3227 33.5343 22.8966 33.7812 23.4993 34.1431C24.102 34.505 24.593 34.8977 24.9724 35.3212C25.3449 35.7406 25.6085 36.1784 25.7631 36.6347C25.915 37.08 25.9601 37.5404 25.8982 38.0158C25.8295 38.4871 25.6574 38.9521 25.3819 39.411ZM24.6114 38.9483C24.7965 38.6401 24.9123 38.323 24.959 37.9969C25.0058 37.6709 24.9819 37.3537 24.8875 37.0454C24.7972 36.7303 24.639 36.435 24.4131 36.1595C24.1871 35.884 23.8961 35.6393 23.5399 35.4255L22.3482 34.7099C21.9921 34.496 21.6394 34.3541 21.29 34.2841C20.9407 34.2141 20.6057 34.2132 20.2851 34.2816C19.9686 34.3432 19.6774 34.4712 19.4115 34.6656C19.1457 34.8601 18.9202 35.1114 18.7351 35.4196C18.55 35.7278 18.4342 36.0449 18.3874 36.371C18.3407 36.697 18.3625 37.0176 18.4528 37.3328C18.5473 37.6411 18.7075 37.933 18.9334 38.2084C19.1594 38.4839 19.4504 38.7286 19.8066 38.9424L20.9982 39.658C21.3544 39.8719 21.7071 40.0138 22.0565 40.0838C22.4058 40.1538 22.7387 40.1581 23.0552 40.0965C23.3759 40.0282 23.6691 39.8967 23.935 39.7023C24.2008 39.5078 24.4263 39.2565 24.6114 38.9483Z" fill="white"/>
<path d="M29.1674 34.2278L22.6785 28.9314L23.3159 28.1505L29.1168 32.8854L31.3705 30.1244L32.0584 30.6859L29.1674 34.2278Z" fill="white"/>
<path d="M33.2786 28.7541L27.1096 23.0729L27.7933 22.3305L33.3083 27.4094L35.7257 24.7845L36.3797 25.3868L33.2786 28.7541Z" fill="white"/>
<path d="M82.7266 45L82.7266 61M82.7266 61L76.7266 55M82.7266 61L88.7266 55" stroke="white" stroke-width="2" stroke-linecap="round" stroke-linejoin="round"/>
<path d="M99.9596 27.0784L86.9129 18.479C86.8495 18.3497 86.7788 18.2241 86.7014 18.1028L86.0101 2.40786C85.9508 1.05793 84.8483 0.000206223 83.5 0C82.1518 0.000274964 81.0492 1.05793 80.9899 2.40779L80.2986 18.1028C80.221 18.2242 80.1503 18.35 80.0868 18.4795L67.0409 27.0781C66.0599 27.7231 65.7191 29.002 66.2484 30.053C66.6524 30.8551 67.4615 31.318 68.2997 31.318C68.6477 31.318 69.0009 31.238 69.332 31.0696L83.3241 23.975C83.3822 23.9778 83.4409 23.9797 83.5 23.9797C83.5598 23.9797 83.6191 23.9778 83.6781 23.975L97.6672 31.0691C97.9873 31.2327 98.3413 31.3179 98.7003 31.3178C99.5385 31.3178 100.348 30.8548 100.752 30.053C101.281 29.002 100.94 27.7231 99.9596 27.0784ZM84.3864 16.9922C84.4213 16.1947 82.7019 16.4707 83.5001 16.4707C84.298 16.4707 82.4357 16.1947 82.4707 16.9922L85.6261 16.9922C84.9989 16.5641 84.2581 16.3356 83.5 16.3365C82.7419 16.3356 82.0011 16.5641 81.3739 16.9923L84.3864 16.9922ZM66.2484 28.3088C65.6239 28.627 67.4794 30.2152 67.1632 29.5871C66.8703 29.0058 67.0591 28.2982 67.6024 27.9408L79.7045 19.9642C79.7013 20.0283 79.6997 20.0931 79.6997 20.1581C79.6997 21.6585 81.4413 19.0442 78.353 19.9642L66.2484 28.3088ZM83.5 22.9485C81.9699 22.9485 80.725 21.6967 80.725 20.1581C80.725 18.6194 81.9696 17.3676 83.5 17.3676C85.0301 17.3676 86.275 18.6194 86.275 20.1581C86.275 21.6967 85.0301 22.9485 83.5 22.9485ZM99.8368 29.5871C99.5206 30.2152 98.7551 30.4674 98.1297 30.1489L85.1815 23.5838C86.4357 22.959 87.3004 21.6585 87.3004 20.1581C87.3004 20.0931 84.5326 23.7406 84.5295 23.6765L98.7003 30.8823C99.2435 31.2394 100.13 29.0058 99.8368 29.5871Z" fill="white"/>
<path d="M83.5 18.5404C82.6129 18.5404 81.8914 19.2661 81.8914 20.1579C81.8914 21.05 82.6129 21.7755 83.5 21.7755C84.3868 21.7755 85.1085 21.05 85.1085 20.158C85.1085 19.2661 84.3868 18.5404 83.5 18.5404ZM83.5 20.7444C83.1782 20.7444 82.9168 20.4812 82.9168 20.158C82.9168 19.8348 83.1785 19.5715 83.5 19.5715C83.8215 19.5715 84.0832 19.8346 84.0832 20.1579C84.0832 20.4812 83.8215 20.7444 83.5 20.7444ZM88.1674 8.42471C88.1049 8.39952 88.0381 8.38695 87.9708 8.38773C87.9035 8.38851 87.837 8.40261 87.7752 8.42924C87.7133 8.45587 87.6572 8.49449 87.6102 8.54291C87.5632 8.59133 87.5261 8.6486 87.5011 8.71143C87.4761 8.77427 87.4636 8.84145 87.4643 8.90915C87.4651 8.97685 87.4791 9.04373 87.5056 9.10597C87.5321 9.16821 87.5705 9.2246 87.6187 9.2719C87.6668 9.31921 87.7238 9.3565 87.7863 9.38166C89.35 10.0113 90.7869 11.0017 91.9415 12.2458C91.9895 12.2975 92.0475 12.3387 92.112 12.3669C92.1766 12.3951 92.2461 12.4096 92.3165 12.4095C92.4164 12.4095 92.514 12.3801 92.5975 12.325C92.681 12.2699 92.7467 12.1914 92.7865 12.0993C92.8263 12.0072 92.8385 11.9054 92.8215 11.8064C92.8046 11.7075 92.7592 11.6156 92.6911 11.5422C91.4344 10.1883 89.8702 9.1102 88.1674 8.42471ZM83.5 32.7956C86.3534 32.7956 89.149 31.805 91.3714 30.0067C91.4774 29.921 91.5451 29.7964 91.5597 29.6605C91.5743 29.5245 91.5347 29.3883 91.4494 29.2817C91.2721 29.0599 90.9493 29.025 90.7287 29.2033C88.6582 30.8789 86.1585 31.7645 83.5 31.7645C83.3253 31.7645 83.1488 31.7604 82.9753 31.7526C82.6925 31.74 82.4527 31.9602 82.4401 32.2445C82.4371 32.3122 82.4473 32.3798 82.4702 32.4434C82.4932 32.5071 82.5284 32.5656 82.5738 32.6156C82.6192 32.6656 82.674 32.706 82.735 32.7347C82.796 32.7634 82.8621 32.7797 82.9293 32.7826C83.1181 32.7912 83.3101 32.7956 83.5 32.7956ZM74.3772 11.4692C72.8004 13.1412 71.7099 15.2083 71.2228 17.4469C71.2064 17.5222 71.207 17.6003 71.2246 17.6753C71.2422 17.7504 71.2762 17.8205 71.3243 17.8805C71.3724 17.9405 71.4333 17.989 71.5025 18.0222C71.5716 18.0555 71.6473 18.0727 71.724 18.0726C71.9599 18.0726 72.1718 17.9083 72.2244 17.6674C72.6715 15.6124 73.6731 13.7145 75.1212 12.1786C75.1675 12.1295 75.2038 12.0717 75.2279 12.0084C75.252 11.9452 75.2635 11.8779 75.2617 11.8102C75.2599 11.7425 75.2448 11.6758 75.2174 11.614C75.19 11.5522 75.1508 11.4964 75.1019 11.4498C74.8966 11.2538 74.5721 11.2627 74.3772 11.4692Z" fill="white"/>
<path d="M87.7142 7.01321C90.4585 7.90224 92.8204 9.61005 94.5448 11.9516C96.3037 14.3398 97.2333 17.1775 97.2333 20.1583C97.2333 21.1886 97.1157 22.2278 96.8839 23.2476C96.8537 23.3809 96.8773 23.5208 96.9496 23.6366C97.0219 23.7524 97.137 23.8345 97.2696 23.865C97.4021 23.8954 97.5413 23.8717 97.6564 23.7989C97.7715 23.7262 97.8532 23.6105 97.8835 23.4772C98.1323 22.3821 98.2586 21.2657 98.2586 20.1584C98.2586 16.9549 97.2594 13.9047 95.3689 11.3377C93.5162 8.8222 90.9782 6.98743 88.0288 6.03173C87.9647 6.01094 87.8972 6.00305 87.8301 6.00852C87.763 6.01399 87.6976 6.03271 87.6377 6.06361C87.5777 6.09451 87.5245 6.13698 87.4809 6.1886C87.4373 6.24022 87.4043 6.29997 87.3836 6.36443C87.3419 6.49455 87.3533 6.636 87.4153 6.75767C87.4773 6.87934 87.5848 6.97126 87.7142 7.01321ZM92.8182 30.3C90.2735 32.666 86.9639 33.9688 83.4995 33.9688C80.035 33.9688 76.7255 32.666 74.1805 30.3001C74.0807 30.2073 73.9482 30.1581 73.8124 30.1634C73.6765 30.1687 73.5483 30.2281 73.456 30.3285C73.4103 30.3782 73.3748 30.4365 73.3514 30.5C73.3281 30.5635 73.3175 30.631 73.3202 30.6987C73.3228 30.7663 73.3387 30.8328 73.3669 30.8943C73.3951 30.9558 73.4351 31.0111 73.4846 31.057C76.2195 33.5996 79.7764 35 83.4995 35C87.2226 35 90.7792 33.5996 93.5141 31.057C93.5635 31.011 93.6035 30.9558 93.6317 30.8943C93.6598 30.8328 93.6757 30.7664 93.6783 30.6987C93.681 30.6311 93.6703 30.5636 93.647 30.5001C93.6237 30.4366 93.5882 30.3783 93.5425 30.3286C93.4968 30.2789 93.4419 30.2387 93.3807 30.2104C93.3196 30.1821 93.2535 30.1661 93.1863 30.1635C93.119 30.1608 93.0519 30.1715 92.9887 30.1949C92.9256 30.2184 92.8676 30.2541 92.8182 30.3ZM69.6145 23.8782C69.6524 23.8782 69.6909 23.8738 69.7294 23.865C69.795 23.8499 69.8571 23.822 69.912 23.7828C69.9668 23.7436 70.0135 23.694 70.0493 23.6366C70.0851 23.5793 70.1094 23.5154 70.1206 23.4487C70.1319 23.382 70.1299 23.3137 70.1149 23.2477C69.8832 22.228 69.7656 21.1886 69.7656 20.1583C69.7656 17.1775 70.6952 14.3398 72.4539 11.9515C74.1783 9.61004 76.5404 7.90252 79.2844 7.01314C79.4138 6.97123 79.5214 6.87935 79.5834 6.75771C79.6454 6.63607 79.6568 6.49464 79.6151 6.36454C79.5735 6.23443 79.4821 6.1263 79.3611 6.06394C79.2402 6.00158 79.0995 5.99009 78.9701 6.032C76.0208 6.98743 73.4825 8.82248 71.6298 11.338C69.7395 13.905 68.7402 16.9551 68.7402 20.1583C68.7402 21.2657 68.8663 22.3825 69.1152 23.4775C69.1411 23.5912 69.2046 23.6927 69.2953 23.7654C69.386 23.8382 69.4985 23.878 69.6145 23.8782Z" fill="white"/>
</svg>
