<svg width="72" height="74" viewBox="0 0 72 74" fill="none" xmlns="http://www.w3.org/2000/svg">
<circle cx="36.5" cy="30.5039" r="30.5" fill="white" fill-opacity="0.2"/>
<path d="M20.25 40.4688C20.8713 40.4688 21.375 39.9511 21.375 39.3125C21.375 38.6739 20.8713 38.1562 20.25 38.1562C19.6287 38.1562 19.125 38.6739 19.125 39.3125C19.125 39.9511 19.6287 40.4688 20.25 40.4688Z" fill="white"/>
<path d="M49.5 68.2188C50.1213 68.2188 50.625 67.7011 50.625 67.0625C50.625 66.4239 50.1213 65.9062 49.5 65.9062C48.8787 65.9062 48.375 66.4239 48.375 67.0625C48.375 67.7011 48.8787 68.2188 49.5 68.2188Z" fill="white"/>
<path d="M11.8125 67.0625C12.7445 67.0625 13.5 66.286 13.5 65.3281C13.5 64.3703 12.7445 63.5938 11.8125 63.5938C10.8805 63.5938 10.125 64.3703 10.125 65.3281C10.125 66.286 10.8805 67.0625 11.8125 67.0625Z" fill="white"/>
<path d="M60.1875 41.625C61.1195 41.625 61.875 40.8485 61.875 39.8906C61.875 38.9328 61.1195 38.1562 60.1875 38.1562C59.2555 38.1562 58.5 38.9328 58.5 39.8906C58.5 40.8485 59.2555 41.625 60.1875 41.625Z" fill="white"/>
<path d="M47.8125 30.0625C48.7445 30.0625 49.5 29.286 49.5 28.3281C49.5 27.3703 48.7445 26.5938 47.8125 26.5938C46.8805 26.5938 46.125 27.3703 46.125 28.3281C46.125 29.286 46.8805 30.0625 47.8125 30.0625Z" fill="white"/>
<path d="M16.3125 30.0625C17.2445 30.0625 18 29.286 18 28.3281C18 27.3703 17.2445 26.5938 16.3125 26.5938C15.3805 26.5938 14.625 27.3703 14.625 28.3281C14.625 29.286 15.3805 30.0625 16.3125 30.0625Z" fill="white"/>
<path d="M70.875 21.9688H55.125V13.875C55.1257 13.1156 54.9808 12.3635 54.6983 11.6617C54.4159 10.96 54.0016 10.3223 53.4791 9.78534C52.9566 9.24835 52.3363 8.82254 51.6535 8.53227C50.9707 8.24201 50.2389 8.09299 49.5 8.09375H43.3474L41.5913 0.876438C41.5305 0.626188 41.3901 0.403991 41.1924 0.245182C40.9947 0.0863735 40.7509 7.12515e-05 40.5 0L31.5 0C31.2491 7.12515e-05 31.0053 0.0863735 30.8076 0.245182C30.6099 0.403991 30.4695 0.626188 30.4088 0.876438L28.6526 8.09375H22.5C21.7611 8.09299 21.0293 8.24201 20.3465 8.53227C19.6637 8.82254 19.0434 9.24835 18.5209 9.78534C17.9984 10.3223 17.5841 10.96 17.3017 11.6617C17.0193 12.3635 16.8743 13.1156 16.875 13.875V21.9688H1.125C0.826631 21.9688 0.540483 22.0906 0.329505 22.3074C0.118526 22.5242 0 22.8183 0 23.125L0 68.2188C0.00178634 69.7515 0.594992 71.2209 1.6495 72.3047C2.704 73.3885 4.13371 73.9982 5.625 74H66.375C67.8663 73.9982 69.296 73.3885 70.3505 72.3047C71.405 71.2209 71.9982 69.7515 72 68.2188V23.125C72 22.8183 71.8815 22.5242 71.6705 22.3074C71.4595 22.0906 71.1734 21.9688 70.875 21.9688ZM2.25 50.875H10.125C12.956 50.8705 15.7129 49.9443 18 48.2295C21.0722 45.8523 24.5997 44.1712 28.35 43.2969C28.642 43.2335 28.8974 43.0534 29.0602 42.7963C29.223 42.5393 29.2797 42.2263 29.2179 41.9262C29.1562 41.6261 28.981 41.3636 28.7308 41.1963C28.4807 41.029 28.1762 40.9707 27.8842 41.0342C23.8254 41.9709 20.0067 43.7839 16.6815 46.3529C14.7775 47.7819 12.4826 48.5553 10.125 48.5625H2.25V34.6875H32.0625V55.5C32.0625 55.8067 32.181 56.1008 32.392 56.3176C32.603 56.5344 32.8891 56.6562 33.1875 56.6562H38.8125C39.1109 56.6562 39.397 56.5344 39.608 56.3176C39.819 56.1008 39.9375 55.8067 39.9375 55.5V42.8125C45.0452 43.1382 49.9418 45.0241 54 48.2283C56.2869 49.9436 59.0438 50.8702 61.875 50.875H69.75V56.6562H58.5C55.7026 56.6445 52.9429 57.3184 50.4495 58.6219C45.9881 61.0337 41.04 62.3403 36 62.4375C30.9614 62.3404 26.0147 61.0338 21.555 58.6219C19.06 57.3184 16.2988 56.6446 13.5 56.6562H2.25V50.875ZM47.25 16.1875V21.9688H24.75V16.1875H47.25ZM37.6875 24.2812V54.3438H34.3125V24.2812H37.6875ZM69.75 32.375H43.875C43.5766 32.375 43.2905 32.4968 43.0795 32.7137C42.8685 32.9305 42.75 33.2246 42.75 33.5312C42.75 33.8379 42.8685 34.132 43.0795 34.3488C43.2905 34.5657 43.5766 34.6875 43.875 34.6875H69.75V48.5625H61.875C59.5146 48.5581 57.2163 47.7845 55.3106 46.3529C50.8596 42.8879 45.5109 40.8532 39.9375 40.5046V24.2812H69.75V32.375ZM49.5 10.4062C49.9435 10.4053 50.3827 10.4944 50.7926 10.6684C51.2025 10.8424 51.5749 11.0979 51.8885 11.4202C52.202 11.7425 52.4506 12.1252 52.6199 12.5465C52.7892 12.9677 52.8759 13.4192 52.875 13.875V21.9688H49.5V15.0312C49.5 14.7246 49.3815 14.4305 49.1705 14.2137C48.9595 13.9968 48.6734 13.875 48.375 13.875H44.7536L43.9099 10.4062H49.5ZM32.3786 2.3125H39.6214L42.4339 13.875H37.125V6.9375C37.125 6.63084 37.0065 6.33675 36.7955 6.11991C36.5845 5.90307 36.2984 5.78125 36 5.78125C35.7016 5.78125 35.4155 5.90307 35.2045 6.11991C34.9935 6.33675 34.875 6.63084 34.875 6.9375V13.875H29.5661L32.3786 2.3125ZM19.125 13.875C19.1241 13.4192 19.2108 12.9677 19.3801 12.5465C19.5494 12.1252 19.798 11.7425 20.1115 11.4202C20.4251 11.0979 20.7975 10.8424 21.2074 10.6684C21.6173 10.4944 22.0565 10.4053 22.5 10.4062H28.0901L27.2464 13.875H23.625C23.3266 13.875 23.0405 13.9968 22.8295 14.2137C22.6185 14.4305 22.5 14.7246 22.5 15.0312V21.9688H19.125V13.875ZM32.0625 24.2812V32.375H2.25V24.2812H32.0625ZM66.375 71.6875H5.625C4.72989 71.6875 3.87145 71.322 3.23851 70.6715C2.60558 70.021 2.25 69.1387 2.25 68.2188V58.9688H13.5C15.9405 58.9567 18.3486 59.543 20.5245 60.6788C25.303 63.2589 30.603 64.6532 36 64.75C41.398 64.6527 46.6989 63.2585 51.4789 60.6788C53.6535 59.5426 56.0606 58.9563 58.5 58.9688H69.75V68.2188C69.75 69.1387 69.3944 70.021 68.7615 70.6715C68.1285 71.322 67.2701 71.6875 66.375 71.6875Z" fill="white"/>
<path d="M60.1875 61.2812C59.8891 61.2812 59.603 61.4031 59.392 61.6199C59.181 61.8367 59.0625 62.1308 59.0625 62.4375C59.0625 62.7442 59.181 63.0383 59.392 63.2551C59.603 63.4719 59.8891 63.5938 60.1875 63.5938C60.5213 63.5938 60.8475 63.6955 61.125 63.886C61.4025 64.0766 61.6188 64.3475 61.7465 64.6644C61.8743 64.9813 61.9077 65.3301 61.8426 65.6665C61.7775 66.0029 61.6167 66.312 61.3807 66.5545C61.1447 66.7971 60.8441 66.9623 60.5167 67.0292C60.1894 67.0961 59.8501 67.0617 59.5417 66.9305C59.2334 66.7992 58.9698 66.5769 58.7844 66.2917C58.599 66.0065 58.5 65.6712 58.5 65.3281C58.5 65.0215 58.3815 64.7274 58.1705 64.5105C57.9595 64.2937 57.6734 64.1719 57.375 64.1719C57.0766 64.1719 56.7905 64.2937 56.5795 64.5105C56.3685 64.7274 56.25 65.0215 56.25 65.3281C56.25 66.1285 56.4809 66.9109 56.9136 67.5764C57.3462 68.242 57.9612 68.7607 58.6807 69.0669C59.4002 69.3732 60.1919 69.4534 60.9557 69.2972C61.7195 69.1411 62.4211 68.7557 62.9717 68.1897C63.5224 67.6237 63.8974 66.9026 64.0493 66.1176C64.2013 65.3326 64.1233 64.5189 63.8253 63.7795C63.5273 63.04 63.0226 62.4079 62.3751 61.9633C61.7275 61.5186 60.9663 61.2812 60.1875 61.2812ZM12.375 39.8906C12.0766 39.8906 11.7905 40.0124 11.5795 40.2293C11.3685 40.4461 11.25 40.7402 11.25 41.0469C11.25 41.3899 11.151 41.7252 10.9656 42.0104C10.7802 42.2957 10.5166 42.518 10.2083 42.6492C9.89993 42.7805 9.56063 42.8148 9.23329 42.7479C8.90594 42.681 8.60526 42.5158 8.36926 42.2733C8.13326 42.0307 7.97254 41.7217 7.90743 41.3852C7.84231 41.0488 7.87573 40.7001 8.00345 40.3832C8.13118 40.0662 8.34747 39.7954 8.62498 39.6048C8.90248 39.4142 9.22875 39.3125 9.5625 39.3125C9.86087 39.3125 10.147 39.1907 10.358 38.9738C10.569 38.757 10.6875 38.4629 10.6875 38.1562C10.6875 37.8496 10.569 37.5555 10.358 37.3387C10.147 37.1218 9.86087 37 9.5625 37C8.78374 37 8.02246 37.2373 7.37494 37.682C6.72743 38.1267 6.22275 38.7587 5.92473 39.4982C5.62671 40.2377 5.54873 41.0514 5.70066 41.8364C5.85259 42.6214 6.2276 43.3425 6.77827 43.9084C7.32894 44.4744 8.03053 44.8598 8.79433 45.016C9.55813 45.1721 10.3498 45.092 11.0693 44.7857C11.7888 44.4794 12.4038 43.9607 12.8364 43.2952C13.2691 42.6297 13.5 41.8473 13.5 41.0469C13.5 40.7402 13.3815 40.4461 13.1705 40.2293C12.9595 40.0124 12.6734 39.8906 12.375 39.8906Z" fill="white"/>
</svg>
