<svg width="61" height="74" viewBox="0 0 61 74" fill="none" xmlns="http://www.w3.org/2000/svg">
<circle cx="30.5" cy="30.5" r="30.5" fill="white" fill-opacity="0.2"/>
<path d="M30.4999 5.82753C27.4618 5.82753 24.9902 8.27706 24.9902 11.2881C24.9902 14.2991 27.4618 16.7485 30.4999 16.7485C33.5381 16.7485 36.0097 14.2988 36.0097 11.2881C36.0098 8.27706 33.5381 5.82753 30.4999 5.82753ZM30.4999 14.5691C28.6744 14.5691 27.189 13.0972 27.189 11.288C27.189 9.4787 28.6742 8.00664 30.4999 8.00664C32.3256 8.00664 33.8108 9.47856 33.8108 11.288C33.8108 13.0974 32.3256 14.5691 30.4999 14.5691ZM30.4999 9.58905e-09C30.2083 9.58905e-09 29.9287 0.1148 29.7225 0.319145C29.5163 0.523489 29.4005 0.80064 29.4005 1.08963V2.54651C29.4052 2.83242 29.5231 3.10505 29.7288 3.3056C29.9344 3.50614 30.2114 3.61854 30.4999 3.61854C30.7885 3.61854 31.0654 3.50614 31.2711 3.3056C31.4768 3.10505 31.5947 2.83242 31.5994 2.54651V1.08963C31.5994 0.94653 31.571 0.804831 31.5157 0.672623C31.4605 0.540414 31.3795 0.420287 31.2774 0.319102C31.1753 0.217917 31.0541 0.137656 30.9207 0.0829043C30.7873 0.0281521 30.6443 -1.89751e-05 30.4999 9.58905e-09ZM25.0406 4.33625L24.0011 3.30617C23.7939 3.10682 23.5158 2.99627 23.227 2.99842C22.9382 3.00057 22.6619 3.11523 22.4577 3.31765C22.2535 3.52006 22.1378 3.79397 22.1357 4.08019C22.1336 4.36641 22.2452 4.64197 22.4464 4.84732L23.4857 5.87754C23.7004 6.09029 23.9819 6.19667 24.2632 6.19667C24.5445 6.19667 24.8259 6.09029 25.0408 5.8774C25.2469 5.67301 25.3628 5.39581 25.3627 5.1068C25.3627 4.81778 25.2468 4.5406 25.0406 4.33625ZM21.6799 10.1982H20.2099C20.0655 10.1982 19.9225 10.2264 19.7891 10.2811C19.6557 10.3359 19.5345 10.4161 19.4324 10.5173C19.3303 10.6185 19.2494 10.7386 19.1941 10.8708C19.1389 11.003 19.1104 11.1447 19.1104 11.2878C19.1104 11.5768 19.2262 11.854 19.4324 12.0583C19.6386 12.2626 19.9183 12.3774 20.2099 12.3774H21.6799C21.9684 12.3728 22.2434 12.2559 22.4458 12.0521C22.6481 11.8483 22.7615 11.5738 22.7615 11.2878C22.7615 11.0019 22.6481 10.7274 22.4458 10.5235C22.2434 10.3197 21.9684 10.2028 21.6799 10.1982ZM25.0406 16.6987C24.8344 16.4943 24.5547 16.3795 24.263 16.3795C23.9714 16.3795 23.6917 16.4943 23.4854 16.6987L22.4461 17.7287C22.343 17.8297 22.2612 17.9499 22.2051 18.0824C22.1491 18.2149 22.1201 18.357 22.1197 18.5006C22.1193 18.6442 22.1476 18.7865 22.2028 18.9193C22.2581 19.0521 22.3393 19.1727 22.4418 19.2743C22.5443 19.3758 22.666 19.4563 22.8 19.511C22.934 19.5658 23.0776 19.5938 23.2225 19.5934C23.3674 19.5929 23.5108 19.5641 23.6445 19.5086C23.7781 19.4531 23.8994 19.3719 24.0013 19.2697L25.0406 18.2397C25.2468 18.0353 25.3626 17.7581 25.3626 17.4692C25.3626 17.1802 25.2468 16.903 25.0406 16.6987ZM30.4999 18.9398C30.2083 18.9398 29.9287 19.0546 29.7225 19.2589C29.5163 19.4633 29.4005 19.7404 29.4005 20.0294V21.4863C29.4052 21.7722 29.5231 22.0448 29.7288 22.2454C29.9344 22.4459 30.2114 22.5583 30.4999 22.5583C30.7885 22.5583 31.0654 22.4459 31.2711 22.2454C31.4768 22.0448 31.5947 21.7722 31.5994 21.4863V20.0294C31.5994 19.8863 31.571 19.7446 31.5157 19.6124C31.4605 19.4802 31.3795 19.3601 31.2774 19.2589C31.1753 19.1577 31.0541 19.0774 30.9207 19.0227C30.7873 18.9679 30.6443 18.9398 30.4999 18.9398ZM38.5539 17.729L37.5145 16.6989C37.308 16.4965 37.0289 16.3832 36.7383 16.384C36.4478 16.3848 36.1694 16.4995 35.9639 16.7031C35.7584 16.9067 35.6426 17.1827 35.6418 17.4706C35.6409 17.7586 35.7551 18.0352 35.9594 18.24L36.9987 19.27C37.1008 19.3714 37.222 19.4517 37.3554 19.5065C37.4888 19.5612 37.6319 19.5893 37.7763 19.5892C37.9938 19.5892 38.2064 19.5253 38.3872 19.4056C38.568 19.2859 38.709 19.1157 38.7922 18.9166C38.8755 18.7175 38.8972 18.4984 38.8548 18.287C38.8124 18.0756 38.7077 17.8814 38.5539 17.729ZM40.7903 10.1985H39.3203C39.0318 10.2031 38.7567 10.32 38.5543 10.5238C38.352 10.7277 38.2386 11.0021 38.2386 11.2881C38.2386 11.5741 38.352 11.8485 38.5543 12.0524C38.7567 12.2562 39.0318 12.3731 39.3203 12.3777H40.7903C41.3977 12.3777 41.8897 11.8898 41.8897 11.2881C41.8897 10.6864 41.3977 10.1985 40.7903 10.1985ZM38.5538 3.30603C38.3476 3.10171 38.0679 2.98692 37.7763 2.98692C37.4847 2.98692 37.2051 3.10171 36.9989 3.30603L35.9595 4.33611C35.7533 4.5405 35.6375 4.81769 35.6375 5.10671C35.6376 5.39573 35.7534 5.6729 35.9597 5.87725C36.0616 5.97863 36.1827 6.05903 36.3161 6.11382C36.4495 6.16861 36.5926 6.19672 36.737 6.19652C36.8814 6.1967 37.0245 6.16859 37.1579 6.1138C37.2914 6.05901 37.4126 5.97862 37.5145 5.87725L38.5539 4.84717C38.7601 4.64278 38.8759 4.36559 38.8759 4.07657C38.8759 3.78755 38.76 3.51038 38.5538 3.30603ZM60.9975 55.8156C60.9966 55.7965 60.9965 55.7775 60.9946 55.7585C60.9909 55.7205 60.985 55.6828 60.9771 55.6454L60.9767 55.643L59.0185 46.425L59.0165 46.4152L57.0585 37.1978L57.0565 37.188L55.0966 27.9615C55.0447 27.7168 54.9094 27.4973 54.7135 27.3397C54.5176 27.1822 54.2729 27.0962 54.0207 27.0963H6.97904C6.72677 27.0963 6.48217 27.1823 6.28627 27.3398C6.09037 27.4973 5.95507 27.7168 5.90308 27.9615L3.94365 37.187L3.94117 37.1985L1.98335 46.4161C1.98274 46.4187 1.98221 46.4213 1.98174 46.424L0.0237713 55.6421C0.0154863 55.6814 0.00935238 55.721 0.00539624 55.7609C0.00452124 55.7702 0.00466676 55.7797 0.00393759 55.789C0.00204174 55.8148 0 55.8407 0 55.8671V60.2382C0 60.5272 0.115834 60.8044 0.32202 61.0087C0.528206 61.2131 0.807854 61.3279 1.09944 61.3279H27.195V67.4497H18.7393C18.4477 67.4497 18.168 67.5645 17.9618 67.7688C17.7557 67.9732 17.6398 68.2503 17.6398 68.5393V71.8207H6.97919C6.6907 71.8254 6.41562 71.9423 6.21326 72.1461C6.01091 72.3499 5.89751 72.6244 5.89751 72.9104C5.89751 73.1963 6.01091 73.4708 6.21326 73.6747C6.41562 73.8785 6.6907 73.9953 6.97919 74H54.0189C54.3074 73.9953 54.5825 73.8785 54.7848 73.6747C54.9872 73.4708 55.1006 73.1963 55.1006 72.9104C55.1006 72.6244 54.9872 72.3499 54.7848 72.1461C54.5825 71.9423 54.3074 71.8254 54.0189 71.8207H43.3599V68.5393C43.3599 68.2503 43.244 67.9732 43.0379 67.7688C42.8317 67.5645 42.552 67.4497 42.2604 67.4497H33.8047V61.3279H59.9004C60.192 61.3279 60.4716 61.2131 60.6778 61.0087C60.884 60.8044 60.9998 60.5272 60.9998 60.2382V55.8867L61 55.8817V55.8676C61.0001 55.8498 60.9984 55.8329 60.9975 55.8156ZM58.5457 54.7777H41.3255L40.8263 47.7298H57.0486L58.5457 54.7777ZM55.0886 38.5028L56.5859 45.5506H40.672L40.1728 38.5028H55.0886ZM53.1286 29.2757L54.6259 36.3235H40.0185L39.5193 29.2757H53.1286ZM23.6846 29.2757H37.3151L37.8142 36.3235H23.1856L23.6846 29.2757ZM23.0315 38.5028H37.9685L38.4677 45.5506H22.5324L23.0315 38.5028ZM22.3783 47.73H38.622L39.1211 54.7777H21.8792L22.3783 47.73ZM7.87126 29.2757H21.4804L20.9813 36.3235H6.37412L7.87126 29.2757ZM5.91139 38.5028H20.827L20.328 45.5506H4.41426L5.91139 38.5028ZM41.161 69.6293V71.821H19.839V69.6293H41.161ZM29.3942 67.45V61.3281H31.6058V67.45H29.3942ZM32.7181 59.1488C32.7138 59.1488 32.7096 59.1482 32.7054 59.1482H28.2948C28.2905 59.1482 28.2863 59.1488 28.2821 59.1488H2.19889V56.9571H7.43653C7.72812 56.9571 8.00776 56.8423 8.21395 56.6379C8.42014 56.4336 8.53597 56.1564 8.53597 55.8674C8.53597 55.5785 8.42014 55.3013 8.21395 55.097C8.00776 54.8926 7.72812 54.7778 7.43653 54.7778H2.45439L3.95138 47.73H20.1737L19.6746 54.7777H12.1912C11.8996 54.7777 11.6199 54.8925 11.4137 55.0968C11.2075 55.3012 11.0917 55.5783 11.0917 55.8673C11.0917 56.1563 11.2075 56.4334 11.4137 56.6378C11.6199 56.8421 11.8996 56.9569 12.1912 56.9569H58.8008V59.1486H32.7181V59.1488Z" fill="white"/>
</svg>
