<svg width="145" height="145" viewBox="0 0 145 145" fill="none" xmlns="http://www.w3.org/2000/svg">
<path d="M32.6657 100.925C23.8008 90.3602 19.4959 76.7067 20.6979 62.9679C21.8999 49.2291 28.5103 36.5305 39.075 27.6657C49.6398 18.8008 63.2933 14.4959 77.0321 15.6979C90.7709 16.8999 103.469 23.5103 112.334 34.075" stroke="#C3E3BF"/>
<circle cx="20.5" cy="67.5" r="4.5" fill="#C3E3BF"/>
<g filter="url(#filter0_d_298_52)">
<circle cx="72.5" cy="67.5" r="42.5" fill="#4AAB3D"/>
</g>
<path d="M78.3118 74.625C77.123 74.625 76.1555 75.5924 76.1555 76.7812C76.1555 77.9701 77.123 78.9375 78.3118 78.9375C79.5006 78.9375 80.468 77.9701 80.468 76.7812C80.468 75.5924 79.5006 74.625 78.3118 74.625ZM78.3118 77.5C78.1212 77.5 77.9383 77.4243 77.8035 77.2895C77.6688 77.1547 77.593 76.9719 77.593 76.7812C77.593 76.5906 77.6688 76.4078 77.8035 76.273C77.9383 76.1382 78.1212 76.0625 78.3118 76.0625C78.5024 76.0625 78.6852 76.1382 78.82 76.273C78.9548 76.4078 79.0305 76.5906 79.0305 76.7812C79.0305 76.9719 78.9548 77.1547 78.82 77.2895C78.6852 77.4243 78.5024 77.5 78.3118 77.5ZM55.3125 83.25H61.0625V77.5H55.3125V83.25ZM56.75 78.9375H59.625V81.8125H56.75V78.9375Z" fill="white"/>
<path d="M95.5625 50.6087L87.9538 43H66.8125V48.75H59.625V49.4688C59.625 51.4503 58.0128 53.0625 56.0312 53.0625C54.0497 53.0625 52.4375 51.4503 52.4375 49.4688C52.4375 47.4872 54.0497 45.875 56.0312 45.875C57.3099 45.875 58.503 46.5636 59.1449 47.6726L60.3883 46.9524C59.9453 46.1889 59.3099 45.5549 58.5454 45.1136C57.7808 44.6723 56.914 44.4392 56.0312 44.4375C53.2576 44.4375 51 46.6951 51 49.4688C51 52.2424 53.2576 54.5 56.0312 54.5C58.562 54.5 60.6614 52.6226 61.0115 50.1875H66.8125V60.25H59.625V60.9688C59.625 62.9503 58.0128 64.5625 56.0312 64.5625C54.0497 64.5625 52.4375 62.9503 52.4375 60.9688C52.4375 58.9872 54.0497 57.375 56.0312 57.375C57.3099 57.375 58.503 58.0636 59.1449 59.1726L60.3883 58.4524C59.9453 57.6889 59.3099 57.0549 58.5454 56.6136C57.7808 56.1723 56.914 55.9392 56.0312 55.9375C53.2576 55.9375 51 58.1951 51 60.9688C51 63.7424 53.2576 66 56.0312 66C58.562 66 60.6614 64.1226 61.0115 61.6875H66.8125V66.2846L63.9382 64.4245L51.0007 72.7958V74.625H52.4382V87.5625H86.9375V81.8125H95.5625V50.6087ZM91.25 51.625V54.5H71.125V47.3125H86.9375V51.625H91.25ZM88.375 50.1875V45.4538L93.1087 50.1875H88.375ZM89.7543 76.2824C89.6893 76.0066 89.5703 75.7463 89.4041 75.5167C89.2379 75.2871 89.0279 75.0928 88.7861 74.9448L84.4521 72.2783C84.7518 71.6861 85.21 71.1887 85.7758 70.8417C86.3415 70.4946 86.9925 70.3114 87.6562 70.3125C89.6378 70.3125 91.25 71.9247 91.25 73.9062C91.25 75.0778 90.6779 76.1099 89.8082 76.7669C89.8084 76.6039 89.7903 76.4414 89.7543 76.2824ZM88.0322 76.1682C88.1131 76.2171 88.1834 76.2817 88.2389 76.3583C88.2945 76.4348 88.3341 76.5217 88.3556 76.6138C88.378 76.7057 88.3818 76.8012 88.3667 76.8947C88.3517 76.9881 88.3181 77.0776 88.2679 77.1579C88.1655 77.3172 88.0054 77.4307 87.8211 77.4746C87.6369 77.5184 87.4428 77.4891 87.2796 77.3929L78.3125 71.8751L69.3454 77.3936C69.1822 77.49 68.9881 77.5194 68.8037 77.4757C68.6193 77.432 68.459 77.3186 68.3564 77.1593C68.2543 76.9933 68.2241 76.805 68.2694 76.6152C68.3147 76.4255 68.4261 76.2709 68.5921 76.1696L77.9366 70.4189C78.0499 70.3508 78.1796 70.3149 78.3118 70.3149C78.444 70.3149 78.5737 70.3508 78.687 70.4189L88.0322 76.1682ZM70.6945 73.1875H64.657V66.6023L72.8162 71.8815L70.6945 73.1875ZM63.2195 66.6023V73.1875H53.0427L63.2195 66.6023ZM53.8757 74.625H68.3585L67.8396 74.9441C67.5977 75.0918 67.3876 75.286 67.2214 75.5154C67.0552 75.7449 66.9363 76.0052 66.8714 76.281C66.7751 76.685 66.7984 77.1083 66.9383 77.4993H62.5007V83.2493H68.2507V78.7988C68.4793 78.8793 68.7172 78.9368 68.9695 78.9368C69.216 78.9368 69.4575 78.8901 69.6875 78.8081V86.125H53.8757V74.625ZM66.8132 78.9375V81.8125H63.9382V78.9375H66.8132ZM81.1875 86.125H75.4375V81.8125H81.1875V86.125ZM82.625 86.125V80.375H74V86.125H71.125V77.9866L78.3125 73.5627L85.5 77.9859V86.125H82.625ZM86.9375 80.375V78.8088C87.1678 78.8922 87.4106 78.9357 87.6555 78.9375C90.4292 78.9375 92.6875 76.6799 92.6875 73.9062C92.6875 71.1326 90.4299 68.875 87.6562 68.875C86.7474 68.874 85.8553 69.1201 85.0755 69.5869C84.2957 70.0536 83.6573 70.7236 83.2288 71.525L79.4402 69.1941C79.0996 68.9889 78.7095 68.8804 78.3118 68.8804C77.9141 68.8804 77.524 68.9889 77.1833 69.1941L74.1718 71.0471L68.25 67.2154V44.4375H86.9375V45.875H69.6875V55.9375H92.6875V51.625H94.125V80.375H86.9375Z" fill="white"/>
<path d="M55.3128 61.3903L54.3835 60.4609L53.3672 61.4772L55.3128 63.4229L58.696 60.0398L57.6797 59.0234L55.3128 61.3903ZM55.3128 49.8903L54.3835 48.9609L53.3672 49.9772L55.3128 51.9229L58.696 48.5397L57.6797 47.5234L55.3128 49.8903ZM69.6878 61.6878H74.0003V57.3753H69.6878V61.6878ZM71.1253 58.8128H72.5628V60.2503H71.1253V58.8128ZM75.4378 57.3753H76.8753V58.8128H75.4378V57.3753ZM78.3128 57.3753H92.6878V58.8128H78.3128V57.3753ZM75.4378 60.2503H92.6878V61.6878H75.4378V60.2503ZM69.6878 67.4378H74.0003V63.1253H69.6878V67.4378ZM71.1253 64.5628H72.5628V66.0003H71.1253V64.5628ZM91.2503 66.0003H92.6878V67.4378H91.2503V66.0003ZM75.4378 66.0003H89.8128V67.4378H75.4378V66.0003ZM75.4378 63.1253H92.6878V64.5628H75.4378V63.1253Z" fill="white"/>
<defs>
<filter id="filter0_d_298_52" x="0" y="0" width="145" height="145" filterUnits="userSpaceOnUse" color-interpolation-filters="sRGB">
<feFlood flood-opacity="0" result="BackgroundImageFix"/>
<feColorMatrix in="SourceAlpha" type="matrix" values="0 0 0 0 0 0 0 0 0 0 0 0 0 0 0 0 0 0 127 0" result="hardAlpha"/>
<feOffset dy="5"/>
<feGaussianBlur stdDeviation="15"/>
<feComposite in2="hardAlpha" operator="out"/>
<feColorMatrix type="matrix" values="0 0 0 0 0.290196 0 0 0 0 0.670588 0 0 0 0 0.239216 0 0 0 0.4 0"/>
<feBlend mode="normal" in2="BackgroundImageFix" result="effect1_dropShadow_298_52"/>
<feBlend mode="normal" in="SourceGraphic" in2="effect1_dropShadow_298_52" result="shape"/>
</filter>
</defs>
</svg>
