<svg width="145" height="145" viewBox="0 0 145 145" fill="none" xmlns="http://www.w3.org/2000/svg">
<path d="M32.6657 100.925C23.8008 90.3602 19.4959 76.7067 20.6979 62.9679C21.8999 49.2291 28.5103 36.5305 39.075 27.6657C49.6398 18.8008 63.2933 14.4959 77.0321 15.6979C90.7709 16.8999 103.469 23.5103 112.334 34.075" stroke="#C3E3BF"/>
<circle cx="20.5" cy="67.5" r="4.5" fill="#C3E3BF"/>
<g filter="url(#filter0_d_2_5530)">
<circle cx="72.5" cy="67.5" r="42.5" fill="#4AAB3D"/>
</g>
<path d="M92.3412 65.9749L89.4851 60.2627C89.4273 60.1437 89.3369 60.0436 89.2243 59.9741C89.1118 59.9046 88.9819 59.8685 88.8496 59.87H88.3069L87.5929 59.156H88.8496C89.039 59.156 89.2206 59.0807 89.3545 58.9468C89.4884 58.8129 89.5636 58.6313 89.5636 58.4419V55.5858C89.5636 55.3965 89.4884 55.2148 89.3545 55.0809C89.2206 54.947 89.039 54.8718 88.8496 54.8718H87.5929L88.4855 53.9864C88.6192 53.8516 88.6943 53.6694 88.6943 53.4794C88.6943 53.2895 88.6192 53.1073 88.4855 52.9725L86.4648 50.9518C86.3299 50.818 86.1477 50.7429 85.9578 50.7429C85.7679 50.7429 85.5857 50.818 85.4508 50.9518L84.5654 51.8443V50.5876C84.5654 50.3983 84.4902 50.2166 84.3563 50.0827C84.2224 49.9488 84.0408 49.8736 83.8514 49.8736H80.9953C80.8059 49.8736 80.6243 49.9488 80.4904 50.0827C80.3565 50.2166 80.2813 50.3983 80.2813 50.5876V51.8443L79.3959 50.9518C79.2611 50.818 79.0789 50.7429 78.8889 50.7429C78.699 50.7429 78.5168 50.818 78.382 50.9518L76.3613 52.9725C76.2275 53.1073 76.1524 53.2895 76.1524 53.4794C76.1524 53.6694 76.2275 53.8516 76.3613 53.9864L77.2538 54.8718H75.9971C75.8078 54.8718 75.6261 54.947 75.4922 55.0809C75.3583 55.2148 75.2831 55.3965 75.2831 55.5858V58.4419C75.2831 58.6313 75.3583 58.8129 75.4922 58.9468C75.6261 59.0807 75.8078 59.156 75.9971 59.156H77.2538L76.5398 59.87H72.427V58.392C72.426 58.0945 72.4878 57.8002 72.6084 57.5282C72.7289 57.2563 72.9056 57.0129 73.1267 56.814C73.944 56.0878 74.5624 55.1652 74.9237 54.1334C75.2849 53.1016 75.3769 51.9947 75.1911 50.9175C75.0052 49.8402 74.5476 48.8281 73.8615 47.977C73.1754 47.1259 72.2836 46.4639 71.2703 46.0536C71.1615 46.0089 71.0435 45.9918 70.9265 46.0037C70.8096 46.0156 70.6974 46.0562 70.5999 46.1219C70.5024 46.1876 70.4227 46.2763 70.3677 46.3803C70.3128 46.4842 70.2843 46.6001 70.2849 46.7176V51.6301L68.8569 52.5869L67.4288 51.6301V46.7176C67.4294 46.6001 67.4009 46.4842 67.346 46.3803C67.2911 46.2763 67.2113 46.1876 67.1138 46.1219C67.0163 46.0562 66.9041 46.0156 66.7872 46.0037C66.6703 45.9918 66.5522 46.0089 66.4434 46.0536C65.4302 46.4639 64.5383 47.1259 63.8522 47.977C63.1661 48.8281 62.7085 49.8402 62.5226 50.9175C62.3368 51.9947 62.4288 53.1016 62.79 54.1334C63.1513 55.1652 63.7697 56.0878 64.587 56.814C64.8081 57.0129 64.9848 57.2563 65.1054 57.5282C65.2259 57.8002 65.2877 58.0945 65.2867 58.392V59.87H64.5727C64.4404 59.8685 64.3105 59.9046 64.198 59.9741C64.0854 60.0436 63.995 60.1437 63.9372 60.2627L61.0811 65.9749C61.0263 66.0836 61.0002 66.2045 61.0053 66.3261C61.0104 66.4477 61.0465 66.566 61.1102 66.6698C61.1739 66.7735 61.263 66.8592 61.3691 66.9188C61.4753 66.9784 61.5949 67.0099 61.7166 67.0103H63.8587V75.7357L62.4306 76.0927V74.8646C62.4306 74.6752 62.3554 74.4936 62.2215 74.3597C62.0876 74.2258 61.906 74.1505 61.7166 74.1505H56.0044C55.815 74.1505 55.6334 74.2258 55.4995 74.3597C55.3656 74.4936 55.2903 74.6752 55.2903 74.8646V75.5786H50.2922C50.1028 75.5786 49.9212 75.6538 49.7873 75.7877C49.6534 75.9216 49.5781 76.1032 49.5781 76.2926V86.289C49.5781 86.4784 49.6534 86.66 49.7873 86.7939C49.9212 86.9278 50.1028 87.003 50.2922 87.003H55.2903V87.717C55.2903 87.9064 55.3656 88.088 55.4995 88.2219C55.6334 88.3558 55.815 88.4311 56.0044 88.4311H61.7166C61.906 88.4311 62.0876 88.3558 62.2215 88.2219C62.3554 88.088 62.4306 87.9064 62.4306 87.717V86.7317L63.3517 87.1887C64.0461 87.5343 64.8109 87.7151 65.5866 87.717H76.2756C77.1534 87.7189 78.0159 87.4873 78.7747 87.0459L90.7703 80.1198C91.2979 79.8154 91.7141 79.3502 91.958 78.7921C92.202 78.2341 92.2608 77.6126 92.1259 77.0187C91.991 76.4247 91.6694 75.8896 91.2084 75.4917C90.7473 75.0938 90.1709 74.854 89.5636 74.8074V67.0103H91.7057C91.8274 67.0099 91.947 66.9784 92.0532 66.9188C92.1593 66.8592 92.2484 66.7735 92.3121 66.6698C92.3758 66.566 92.4119 66.4477 92.417 66.3261C92.4221 66.2045 92.396 66.0836 92.3412 65.9749ZM55.2903 85.575H51.0062V77.0066H55.2903V85.575ZM61.0026 87.003H56.7184V75.5786H61.0026V87.003ZM76.7112 57.7279V56.2999H78.3891C78.5425 56.2994 78.6917 56.25 78.815 56.1588C78.9383 56.0676 79.0292 55.9394 79.0746 55.7929C79.1058 55.6917 79.1465 55.5937 79.196 55.5001C79.2663 55.3653 79.2917 55.2116 79.2686 55.0614C79.2455 54.9111 79.175 54.7722 79.0674 54.6647L77.875 53.4794L78.8889 52.4655L80.0742 53.658C80.1816 53.7655 80.3206 53.836 80.4709 53.8591C80.6211 53.8822 80.7748 53.8568 80.9096 53.7865C81.0032 53.737 81.1012 53.6963 81.2024 53.6651C81.3489 53.6198 81.4771 53.5288 81.5683 53.4055C81.6595 53.2822 81.7089 53.133 81.7093 52.9796V51.3017H83.1374V52.9796C83.1378 53.133 83.1873 53.2822 83.2785 53.4055C83.3697 53.5288 83.4978 53.6198 83.6444 53.6651C83.7455 53.6963 83.8435 53.737 83.9371 53.7865C84.0719 53.8568 84.2256 53.8822 84.3759 53.8591C84.5261 53.836 84.6651 53.7655 84.7725 53.658L85.9578 52.4655L86.9717 53.4794L85.7793 54.6647C85.6717 54.7722 85.6013 54.9111 85.5781 55.0614C85.555 55.2116 85.5805 55.3653 85.6508 55.5001C85.7003 55.5937 85.7409 55.6917 85.7722 55.7929C85.8175 55.9394 85.9084 56.0676 86.0317 56.1588C86.155 56.25 86.3043 56.2994 86.4576 56.2999H88.1356V57.7279H86.4576C86.3043 57.7284 86.155 57.7778 86.0317 57.869C85.9084 57.9602 85.8175 58.0884 85.7722 58.2349C85.7409 58.336 85.7003 58.434 85.6508 58.5276C85.5805 58.6624 85.555 58.8161 85.5781 58.9664C85.6013 59.1166 85.6717 59.2556 85.7793 59.363L86.2934 59.87H78.5533L79.0674 59.363C79.175 59.2556 79.2455 59.1166 79.2686 58.9664C79.2917 58.8161 79.2663 58.6624 79.196 58.5276C79.1465 58.434 79.1058 58.336 79.0746 58.2349C79.0292 58.0884 78.9383 57.9602 78.815 57.869C78.6917 57.7778 78.5425 57.7284 78.3891 57.7279H76.7112ZM77.4252 63.6115L78.9318 66.6175C78.9896 66.7365 79.08 66.8366 79.1925 66.9061C79.305 66.9757 79.435 67.0118 79.5673 67.0103H88.1356V75.0645C88.0642 75.1002 87.9856 75.1359 87.9142 75.1716L80.9525 79.1916C80.5723 78.6219 79.9993 78.2086 79.3388 78.0277L77.4252 77.5207V63.6115ZM63.8587 52.0157C63.8569 51.2091 64.0509 50.4141 64.424 49.699C64.7971 48.9839 65.3382 48.37 66.0007 47.91V52.0157C66.0014 52.1333 66.031 52.2489 66.0871 52.3523C66.1431 52.4557 66.2238 52.5437 66.3221 52.6083L68.4641 54.0364C68.5794 54.1166 68.7164 54.1596 68.8569 54.1596C68.9973 54.1596 69.1343 54.1166 69.2496 54.0364L71.3916 52.6083C71.4899 52.5437 71.5706 52.4557 71.6266 52.3523C71.6827 52.2489 71.7124 52.1333 71.713 52.0157V47.91C72.3328 48.3414 72.8468 48.9077 73.2164 49.5662C73.586 50.2247 73.8016 50.9585 73.8469 51.7123C73.8923 52.4661 73.7662 53.2203 73.4782 53.9184C73.1903 54.6165 72.7479 55.2403 72.1842 55.7429C71.8093 56.0745 71.5096 56.4824 71.3052 56.9393C71.1008 57.3962 70.9963 57.8914 70.9989 58.392V59.87H69.5709V57.7279C69.5709 57.5385 69.4957 57.3569 69.3617 57.223C69.2278 57.0891 69.0462 57.0139 68.8569 57.0139C68.6675 57.0139 68.4859 57.0891 68.352 57.223C68.2181 57.3569 68.1428 57.5385 68.1428 57.7279V59.87H66.7148V58.392C66.7171 57.8922 66.6132 57.3976 66.4101 56.9409C66.207 56.4843 65.9093 56.0759 65.5366 55.7429C65.0086 55.2762 64.5858 54.7025 64.2965 54.0599C64.0072 53.4173 63.858 52.7204 63.8587 52.0157ZM62.8733 65.5822L65.0154 61.298H75.5544L73.4123 65.5822H62.8733ZM75.9971 63.6115V77.1352L68.6855 75.1787C67.8656 74.9575 67.0028 74.9501 66.1793 75.1573L65.2867 75.3787V67.0103H73.855C73.9873 67.0118 74.1173 66.9757 74.2298 66.9061C74.3423 66.8366 74.4327 66.7365 74.4905 66.6175L75.9971 63.6115ZM90.5704 76.9352C90.76 77.2621 90.8124 77.6507 90.7161 78.0161C90.6197 78.3814 90.3825 78.6937 90.0563 78.8845L78.0607 85.8106C77.5182 86.1245 76.9024 86.2896 76.2756 86.289H65.5866C65.0312 86.2901 64.4832 86.1605 63.9872 85.9106L62.4306 85.1323V77.5636L66.522 76.5425C67.1107 76.3937 67.7279 76.3986 68.3142 76.5568L78.9675 79.4129C79.2416 79.4841 79.4881 79.6355 79.6756 79.8477C79.8631 80.0599 79.9829 80.3233 80.0198 80.604C80.0566 80.8848 80.0087 81.1702 79.8823 81.4236C79.7559 81.677 79.5567 81.8868 79.3102 82.0262C79.1493 82.1212 78.9709 82.1827 78.7856 82.2073C78.6004 82.2318 78.4121 82.2188 78.232 82.169L69.7137 79.8842C69.53 79.8349 69.3343 79.8607 69.1696 79.9558C69.0049 80.0508 68.8847 80.2074 68.8354 80.3911C68.7862 80.5748 68.8119 80.7705 68.907 80.9352C69.0021 81.0999 69.1587 81.2201 69.3424 81.2694L77.8607 83.5471C78.1029 83.6123 78.3525 83.6459 78.6033 83.6471C79.1029 83.6478 79.5935 83.5147 80.0242 83.2615C80.3506 83.0751 80.6367 82.8257 80.8659 82.5279C81.0951 82.23 81.2629 81.8896 81.3595 81.5264C81.4387 81.2117 81.4652 80.8859 81.438 80.5625L88.6283 76.414C88.9563 76.2319 89.3424 76.1844 89.7048 76.2817C90.0672 76.379 90.3776 76.6133 90.5704 76.9352ZM80.01 65.5822L77.8679 61.298H88.4069L90.549 65.5822H80.01Z" fill="white"/>
<path d="M85.2786 57.0143C85.2786 56.4494 85.1111 55.8972 84.7973 55.4275C84.4834 54.9579 84.0374 54.5918 83.5155 54.3756C82.9936 54.1594 82.4193 54.1029 81.8653 54.2131C81.3113 54.3233 80.8024 54.5953 80.4029 54.9947C80.0035 55.3942 79.7315 55.9031 79.6213 56.4571C79.5111 57.0111 79.5676 57.5854 79.7838 58.1073C80 58.6292 80.3661 59.0752 80.8357 59.3891C81.3054 59.7029 81.8576 59.8704 82.4225 59.8704C83.18 59.8704 83.9065 59.5695 84.4421 59.0339C84.9777 58.4983 85.2786 57.7718 85.2786 57.0143ZM82.4225 58.4424C82.1401 58.4424 81.864 58.3586 81.6291 58.2017C81.3943 58.0448 81.2113 57.8217 81.1032 57.5608C80.9951 57.2999 80.9668 57.0127 81.0219 56.7357C81.077 56.4587 81.213 56.2042 81.4127 56.0045C81.6124 55.8048 81.8669 55.6688 82.1439 55.6137C82.4209 55.5586 82.7081 55.5869 82.969 55.695C83.23 55.803 83.453 55.9861 83.6099 56.2209C83.7668 56.4558 83.8506 56.7319 83.8506 57.0143C83.8506 57.3931 83.7001 57.7563 83.4323 58.0241C83.1645 58.2919 82.8013 58.4424 82.4225 58.4424Z" fill="white"/>
<defs>
<filter id="filter0_d_2_5530" x="0" y="0" width="145" height="145" filterUnits="userSpaceOnUse" color-interpolation-filters="sRGB">
<feFlood flood-opacity="0" result="BackgroundImageFix"/>
<feColorMatrix in="SourceAlpha" type="matrix" values="0 0 0 0 0 0 0 0 0 0 0 0 0 0 0 0 0 0 127 0" result="hardAlpha"/>
<feOffset dy="5"/>
<feGaussianBlur stdDeviation="15"/>
<feComposite in2="hardAlpha" operator="out"/>
<feColorMatrix type="matrix" values="0 0 0 0 0.290196 0 0 0 0 0.670588 0 0 0 0 0.239216 0 0 0 0.4 0"/>
<feBlend mode="normal" in2="BackgroundImageFix" result="effect1_dropShadow_2_5530"/>
<feBlend mode="normal" in="SourceGraphic" in2="effect1_dropShadow_2_5530" result="shape"/>
</filter>
</defs>
</svg>
