<svg width="145" height="145" viewBox="0 0 145 145" fill="none" xmlns="http://www.w3.org/2000/svg">
<path d="M32.6657 100.925C23.8008 90.3602 19.4959 76.7067 20.6979 62.9679C21.8999 49.2291 28.5103 36.5305 39.075 27.6657C49.6398 18.8008 63.2933 14.4959 77.0321 15.6979C90.7709 16.8999 103.469 23.5103 112.334 34.075" stroke="#C3E3BF"/>
<circle cx="20.5" cy="67.5" r="4.5" fill="#C3E3BF"/>
<g filter="url(#filter0_d_2_5553)">
<circle cx="72.5" cy="67.5" r="42.5" fill="#4AAB3D"/>
</g>
<path d="M74.2845 79.3084C74.2872 79.1423 74.4265 79.0097 74.5957 79.0123C74.7649 79.0149 74.8999 79.1517 74.8972 79.3178L74.801 84.4267C74.7936 84.8242 74.6542 85.2301 74.4097 85.5264C74.1743 85.8117 73.8452 85.9999 73.4417 85.9999H52.4724C51.662 85.9999 51 85.35 51 84.5543V50.7725C51 49.9768 51.6619 49.3269 52.4724 49.3269H73.4417C73.8449 49.3269 74.1778 49.4752 74.417 49.7238C74.6579 49.9742 74.7955 50.324 74.8048 50.7212L74.8972 54.6761C74.9005 54.8422 74.7661 54.9795 74.5969 54.9828C74.4277 54.9861 74.2878 54.854 74.2845 54.6879L74.1921 50.733C74.1863 50.4887 74.1076 50.2796 73.9701 50.1367C73.846 50.0078 73.6662 49.9308 73.4417 49.9308H52.4724C52.0015 49.9308 51.6151 50.3102 51.6151 50.7725V84.5543C51.6151 85.0166 52.0015 85.396 52.4724 85.396H73.4417C73.642 85.396 73.81 85.2968 73.934 85.1466C74.0927 84.9542 74.1833 84.6849 74.1883 84.4173L74.2845 79.3084ZM83.7104 57.6495C83.7304 57.9036 83.6467 58.4332 83.2518 58.2927C83.1271 58.2483 83.0496 58.1327 83.0496 58.0096H83.0488V57.4556C83.0488 57.2888 83.1865 57.1536 83.3564 57.1536C83.6279 57.1536 83.6936 57.4361 83.7104 57.6495ZM81.7132 58.898C81.5562 58.8505 81.4119 58.7828 81.2844 58.6992C81.1434 58.6066 81.0223 58.4942 80.9264 58.3674C80.9153 58.3528 80.8961 58.3421 80.8729 58.3363C80.8451 58.3293 80.8146 58.3308 80.7865 58.3421L79.5721 58.8269C79.5657 58.8295 79.5606 58.8322 79.5568 58.8349C79.5418 58.8458 79.5314 58.8644 79.5259 58.8859C79.5196 58.9106 79.5206 58.9357 79.529 58.9559C79.5308 58.9604 79.5325 58.9636 79.5339 58.9655C79.7523 59.2576 80.0469 59.4978 80.4001 59.6844C80.7751 59.8825 81.2148 60.0202 81.699 60.0956C81.7216 60.0991 81.7486 60.103 81.7795 60.1072C81.7929 60.109 81.8204 60.1122 81.8616 60.1169C82.0185 60.1345 82.1341 60.2651 82.1339 60.4165H82.1344V61.7862C82.1344 61.8802 82.1808 61.9678 82.2557 62.0333C82.3402 62.1072 82.459 62.1531 82.5916 62.1531C82.7242 62.1531 82.843 62.1072 82.9275 62.0333C83.0023 61.9678 83.0488 61.8802 83.0488 61.7862V60.3092C83.0488 60.1644 83.1526 60.0434 83.2912 60.014C83.8086 59.8746 84.2658 59.6276 84.6135 59.3002C84.9441 58.9888 85.1758 58.6038 85.2642 58.1696C85.38 57.601 85.2301 57.0376 84.8888 56.5617C84.5293 56.0607 83.9601 55.6552 83.2627 55.4355C83.1326 55.3945 83.0497 55.2761 83.0497 55.1488H83.0488V53.1397C83.0488 52.973 83.1865 52.8378 83.3564 52.8378C83.3965 52.8378 83.4348 52.8453 83.4699 52.859C83.627 52.9065 83.7712 52.9742 83.8987 53.0578C84.0398 53.1504 84.1608 53.2628 84.2568 53.3896C84.2678 53.4042 84.2871 53.4149 84.3103 53.4207C84.338 53.4277 84.3685 53.4262 84.3967 53.4149L85.611 52.9301C85.6175 52.9275 85.6226 52.9248 85.6263 52.9221C85.6414 52.9112 85.6518 52.8926 85.6573 52.8711C85.6636 52.8464 85.6625 52.8213 85.6542 52.8011C85.6523 52.7967 85.6507 52.7934 85.6492 52.7915C85.4309 52.4994 85.1363 52.2592 84.783 52.0726C84.408 51.8745 83.9684 51.7368 83.4842 51.6614C83.4615 51.6579 83.4347 51.654 83.4037 51.6498C83.3903 51.648 83.3627 51.6448 83.3215 51.6401C83.1647 51.6225 83.049 51.4919 83.0492 51.3405H83.0488V49.9708C83.0488 49.8768 83.0023 49.7892 82.9275 49.7237C82.843 49.6498 82.7242 49.6039 82.5916 49.6039C82.459 49.6039 82.3402 49.6498 82.2557 49.7237C82.1808 49.7892 82.1344 49.8768 82.1344 49.9708V51.4478C82.1344 51.5926 82.0305 51.7136 81.892 51.743C81.3746 51.8824 80.9174 52.1294 80.5697 52.4568C80.2391 52.7681 80.0074 53.1532 79.919 53.5873C79.8032 54.156 79.953 54.7194 80.2944 55.1953C80.6538 55.6963 81.223 56.1018 81.9205 56.3215C82.0506 56.3625 82.1335 56.4808 82.1335 56.6082H82.1344V58.6173C82.1344 58.784 81.9967 58.9192 81.8268 58.9192C81.7867 58.9192 81.7484 58.9117 81.7132 58.898ZM81.4189 58.0088C81.448 58.0472 81.4816 58.0836 81.5193 58.1174V56.8211C80.7887 56.5479 80.1882 56.094 79.7922 55.5421C79.3559 54.9338 79.1655 54.2079 79.3159 53.4694C79.4297 52.9106 79.7246 52.4181 80.1444 52.0227C80.5177 51.6712 80.9896 51.3974 81.5193 51.224V49.9708C81.5193 49.6969 81.6449 49.4501 81.8472 49.2731C82.0399 49.1046 82.3036 49 82.5916 49C82.8796 49 83.1432 49.1046 83.3359 49.2731C83.5383 49.4501 83.6639 49.6969 83.6639 49.9708V51.0805C84.1844 51.1693 84.6609 51.3237 85.0738 51.5418C85.5062 51.7703 85.8701 52.0687 86.1442 52.4352C86.177 52.4791 86.2035 52.526 86.2236 52.5746C86.2806 52.7121 86.2905 52.8705 86.2532 53.0174C86.215 53.1675 86.1271 53.3086 85.9892 53.4081C85.9442 53.4404 85.895 53.4679 85.8417 53.4892L84.6273 53.974C84.4744 54.0351 84.3091 54.0434 84.1589 54.0058C84.0041 53.967 83.8631 53.8788 83.7642 53.7482C83.7352 53.7098 83.7016 53.6735 83.6639 53.6396V54.9358C84.3945 55.2091 84.995 55.6629 85.3909 56.2149C85.8273 56.8232 86.0177 57.5491 85.8673 58.2876C85.7535 58.8464 85.4586 59.3389 85.0388 59.7342C84.6655 60.0858 84.1936 60.3596 83.6639 60.533V61.7862C83.6639 62.0601 83.5383 62.3069 83.3359 62.4839C83.1432 62.6524 82.8796 62.757 82.5916 62.757C82.3036 62.757 82.0399 62.6524 81.8472 62.4839C81.6449 62.3069 81.5193 62.0601 81.5193 61.7862V60.6764C80.9988 60.5877 80.5223 60.4333 80.1094 60.2152C79.677 59.9867 79.313 59.6883 79.0389 59.3218C79.0061 59.2779 78.9797 59.231 78.9596 59.1824C78.9026 59.0449 78.8927 58.8865 78.93 58.7396C78.9682 58.5895 79.056 58.4484 79.194 58.3489C79.2389 58.3166 79.2881 58.2891 79.3415 58.2678L80.5558 57.783C80.7088 57.7219 80.8741 57.7136 81.0243 57.7512C81.1791 57.79 81.3201 57.8782 81.4189 58.0088ZM81.4728 54.1075C81.4528 53.8534 81.5365 53.3238 81.9313 53.4644C82.056 53.5088 82.1336 53.6243 82.1336 53.7475H82.1344V54.3014C82.1344 54.4682 81.9967 54.6034 81.8268 54.6034C81.5553 54.6034 81.4896 54.3209 81.4728 54.1075ZM62.8633 70.599V71.2029H62.2482V70.599H62.8633ZM77.6258 70.599V71.2029H77.0107V70.599H77.6258ZM75.1654 70.599V71.2029H74.5503V70.599H75.1654ZM72.705 70.599V71.2029H72.0899V70.599H72.705ZM70.2446 70.599V71.2029H69.6295V70.599H70.2446ZM67.7842 70.599V71.2029H67.1691V70.599H67.7842ZM65.3238 70.599V71.2029H64.7087V70.599H65.3238ZM54.8049 56.6862C54.6988 56.6862 54.6127 56.6017 54.6127 56.4975C54.6127 56.3933 54.6988 56.3088 54.8049 56.3088H71.1092C71.2153 56.3088 71.3014 56.3933 71.3014 56.4975C71.3014 56.6017 71.2153 56.6862 71.1092 56.6862H54.8049ZM54.8049 53.9932C54.6988 53.9932 54.6127 53.9087 54.6127 53.8044C54.6127 53.7002 54.6988 53.6157 54.8049 53.6157H71.1092C71.2153 53.6157 71.3014 53.7002 71.3014 53.8044C71.3014 53.9087 71.2153 53.9932 71.1092 53.9932H54.8049ZM67.978 62.9578C67.9084 63.1096 67.7266 63.1772 67.572 63.1088C67.4174 63.0404 67.3485 62.8619 67.4182 62.7101C68.1763 61.0657 69.6055 59.6246 71.4884 58.5321C73.3349 57.4608 75.1024 56.7847 77.6213 56.519C77.7899 56.5014 77.941 56.6213 77.9589 56.7867C77.9768 56.9522 77.8548 57.1006 77.6862 57.1182C75.2568 57.3745 73.5745 58.022 71.8008 59.0511C70.0253 60.0812 68.6829 61.4291 67.978 62.9578ZM87.5603 57.7072C89.0049 58.3 90.118 59.0913 91.2222 60.123C92.8206 61.6167 93.7369 63.4502 93.6521 65.436C93.586 66.9826 93.0372 68.0975 92.5631 69.0607C92.1409 69.9183 91.783 70.6454 91.9438 71.4032C92.1984 72.6027 92.9523 73.9422 93.587 75.0699C93.6515 75.1845 93.7148 75.297 93.7762 75.4069C93.9991 75.8058 94.043 76.184 93.9628 76.4654C93.8731 76.7803 93.6244 77.003 93.2846 77.0159C93.0355 77.0253 92.7431 76.9153 92.4477 76.6453C91.708 75.9692 90.584 74.9632 89.4321 74.2366C88.3392 73.5471 87.2299 73.1079 86.4555 73.4776C86.3595 73.5234 86.2687 73.5648 86.183 73.6017C86.0945 73.64 86.0029 73.6774 85.9084 73.7139C85.7505 73.7745 85.5725 73.6979 85.5108 73.5429C85.4491 73.3878 85.5271 73.213 85.685 73.1524C85.8552 73.0866 86.0242 73.0135 86.1888 72.9349C87.1999 72.4522 88.5098 72.9384 89.7637 73.7294C90.9587 74.4832 92.1093 75.5127 92.8658 76.2042C93.0312 76.3553 93.1664 76.4179 93.263 76.4143C93.2874 76.4134 93.3072 76.4061 93.3217 76.3938C93.3431 76.3757 93.3602 76.3454 93.3718 76.3049C93.4125 76.1619 93.3781 75.9479 93.238 75.6971C93.1766 75.5871 93.1133 75.4747 93.0488 75.3601C92.3943 74.1973 91.6169 72.816 91.3431 71.5258C91.1398 70.5675 91.5392 69.7561 92.0104 68.7988C92.4593 67.887 92.9788 66.8317 93.0394 65.4124C93.1163 63.6111 92.2717 61.9354 90.7993 60.5595C89.7503 59.5793 88.7028 58.8295 87.3317 58.2657C86.9479 58.1079 87.1512 57.5394 87.5603 57.7072ZM57.2801 63.9119H83.2421C84.0525 63.9119 84.7145 64.5618 84.7145 65.3575V76.2632C84.7145 77.0589 84.0525 77.7089 83.2421 77.7089H69.5833V77.7077L69.5341 77.7077C69.1086 77.7074 68.9281 77.7073 68.6033 77.9609L62.655 82.6053C62.5223 82.7089 62.3292 82.6873 62.2237 82.557C62.1914 82.5171 62.1711 82.4717 62.1622 82.4248L61.2086 78.586C61.0786 78.0626 60.6176 77.7089 60.0693 77.7089H57.2801C56.4697 77.7089 55.8077 77.0589 55.8077 76.2632V65.3575C55.8077 64.5618 56.4697 63.9119 57.2801 63.9119ZM83.2421 64.5158H57.2801C56.8092 64.5158 56.4228 64.8952 56.4228 65.3575V76.2632C56.4228 76.7256 56.8092 77.1049 57.2801 77.1049H60.0693C60.9024 77.1049 61.6072 77.6501 61.8045 78.4444L62.6481 81.8406L68.2212 77.4891C68.7124 77.1056 68.9571 77.1057 69.5341 77.1061L69.5833 77.1061V77.1049H83.2421C83.713 77.1049 84.0994 76.7256 84.0994 76.2632V65.3575C84.0994 64.8952 83.713 64.5158 83.2421 64.5158Z" fill="white" stroke="white" stroke-width="0.8"/>
<defs>
<filter id="filter0_d_2_5553" x="0" y="0" width="145" height="145" filterUnits="userSpaceOnUse" color-interpolation-filters="sRGB">
<feFlood flood-opacity="0" result="BackgroundImageFix"/>
<feColorMatrix in="SourceAlpha" type="matrix" values="0 0 0 0 0 0 0 0 0 0 0 0 0 0 0 0 0 0 127 0" result="hardAlpha"/>
<feOffset dy="5"/>
<feGaussianBlur stdDeviation="15"/>
<feComposite in2="hardAlpha" operator="out"/>
<feColorMatrix type="matrix" values="0 0 0 0 0.290196 0 0 0 0 0.670588 0 0 0 0 0.239216 0 0 0 0.4 0"/>
<feBlend mode="normal" in2="BackgroundImageFix" result="effect1_dropShadow_2_5553"/>
<feBlend mode="normal" in="SourceGraphic" in2="effect1_dropShadow_2_5553" result="shape"/>
</filter>
</defs>
</svg>
