<svg width="74" height="74" viewBox="0 0 74 74" fill="none" xmlns="http://www.w3.org/2000/svg">
<circle cx="37.5" cy="30.501" r="30.5" fill="white" fill-opacity="0.2"/>
<path d="M72.8438 68.8382C71.0106 68.8042 69.2167 69.3695 67.7366 70.4474C66.6143 71.2582 65.2634 71.6948 63.877 71.6948C62.4907 71.6948 61.1398 71.2582 60.0175 70.4474C58.5229 69.3997 56.7399 68.8376 54.9124 68.8378C53.0849 68.838 51.3021 69.4005 49.8078 70.4486C48.6862 71.259 47.3361 71.6954 45.9505 71.6954C44.565 71.6954 43.2149 71.259 42.0933 70.4486C40.5991 69.4007 38.8163 68.8382 36.989 68.8382C35.1617 68.8382 33.379 69.4007 31.8848 70.4486C30.7635 71.2588 29.4138 71.6951 28.0287 71.6951C26.6435 71.6951 25.2938 71.2588 24.1726 70.4486C22.6946 69.3704 20.9027 68.8047 19.0712 68.8382C17.2393 68.8047 15.447 69.3703 13.9687 70.4486C12.8611 71.2844 11.5029 71.7235 10.1137 71.6949C8.72459 71.7233 7.36644 71.2842 6.25878 70.4486C4.78055 69.3702 2.98812 68.8045 1.15625 68.8382C0.849593 68.8382 0.555497 68.9596 0.338658 69.1756C0.121819 69.3916 0 69.6846 0 69.9901C0 70.2956 0.121819 70.5886 0.338658 70.8046C0.555497 71.0206 0.849593 71.142 1.15625 71.142C2.54536 71.1137 3.90349 71.5528 5.01119 72.3883C6.48942 73.4667 8.28185 74.0324 10.1137 73.9987C11.9452 74.0322 13.7372 73.4666 15.2151 72.3883C16.3231 71.5524 17.6817 71.1133 19.0712 71.142C20.4603 71.1136 21.8185 71.5527 22.9261 72.3883C24.4044 73.4667 26.1968 74.0324 28.0287 73.9987C29.8605 74.0321 31.6528 73.4665 33.1312 72.3883C34.2529 71.5777 35.6032 71.1411 36.989 71.1411C38.3748 71.1411 39.7251 71.5777 40.8468 72.3883C42.341 73.436 44.1234 73.9983 45.9505 73.9983C47.7776 73.9983 49.5601 73.436 51.0542 72.3883C52.1762 71.5777 53.5267 71.1412 54.9126 71.1412C56.2986 71.1412 57.6491 71.5777 58.771 72.3883C60.2662 73.436 62.0496 73.9982 63.8776 73.9982C65.7056 73.9982 67.489 73.436 68.9842 72.3883C70.0932 71.5519 71.4531 71.1127 72.8438 71.142C73.1504 71.142 73.4445 71.0206 73.6613 70.8046C73.8782 70.5886 74 70.2956 74 69.9901C74 69.6846 73.8782 69.3916 73.6613 69.1756C73.4445 68.9596 73.1504 68.8382 72.8438 68.8382ZM72.8438 11.52H67.0625C66.7558 11.52 66.4617 11.6414 66.2449 11.8574C66.0281 12.0734 65.9062 12.3664 65.9062 12.6719V18.4314H8.09375V12.6719C8.09375 12.3664 7.97193 12.0734 7.75509 11.8574C7.53825 11.6414 7.24416 11.52 6.9375 11.52H1.15625C0.849593 11.52 0.555497 11.6414 0.338658 11.8574C0.121819 12.0734 0 12.3664 0 12.6719L0 55.0155C0 55.321 0.121819 55.614 0.338658 55.83C0.555497 56.046 0.849593 56.1674 1.15625 56.1674C5.12797 56.1674 5.291 59.0241 10.1172 59.0241C11.9459 59.0579 13.7351 58.493 15.2105 57.416C15.5435 57.2041 15.858 57.0094 16.1875 56.8343V57.454C16.1884 58.5541 15.8197 59.6227 15.1402 60.4897C14.4606 61.3567 13.5092 61.9721 12.4378 62.2379C12.2896 62.2737 12.1499 62.3385 12.0269 62.4283C11.9039 62.5182 11.8 62.6314 11.7211 62.7615C11.6422 62.8916 11.59 63.0359 11.5673 63.1862C11.5447 63.3364 11.5521 63.4897 11.5891 63.6371C11.6262 63.7845 11.6922 63.9232 11.7833 64.045C11.8744 64.1669 11.9888 64.2697 12.1199 64.3473C12.251 64.425 12.3962 64.476 12.5472 64.4975C12.6982 64.519 12.852 64.5105 12.9997 64.4725C14.5718 64.0827 15.9677 63.1796 16.9645 61.9073C17.9614 60.6351 18.502 59.0669 18.5 57.4529V38.0136C18.5 36.7915 18.9873 35.6196 19.8546 34.7555C20.722 33.8914 21.8984 33.406 23.125 33.406C24.3516 33.406 25.528 33.8914 26.3954 34.7555C27.2627 35.6196 27.75 36.7915 27.75 38.0136V57.454C27.75 57.5738 27.7731 57.689 27.7801 57.8077C27.7728 57.8504 27.7681 57.8934 27.7662 57.9367C27.7755 57.9765 27.7871 58.0157 27.8009 58.0542C27.9208 59.5575 28.5112 60.9855 29.4888 62.137C30.4664 63.2884 31.782 64.1053 33.2503 64.4725C33.398 64.5105 33.5518 64.519 33.7028 64.4975C33.8538 64.476 33.999 64.425 34.1301 64.3473C34.2612 64.2697 34.3756 64.1669 34.4667 64.045C34.5578 63.9232 34.6238 63.7845 34.6609 63.6371C34.6979 63.4897 34.7053 63.3364 34.6827 63.1862C34.66 63.0359 34.6078 62.8916 34.5289 62.7615C34.45 62.6314 34.3461 62.5182 34.2231 62.4283C34.1001 62.3385 33.9604 62.2737 33.8122 62.2379C32.963 62.0254 32.186 61.5915 31.5609 60.9807C30.9358 60.3699 30.4853 59.6043 30.2556 58.7626C31.2892 58.4815 32.2661 58.0239 33.1427 57.4103C34.2636 56.602 35.6121 56.167 36.9958 56.1674C38.3794 56.1678 39.7276 56.6036 40.848 57.4126C41.7267 58.0281 42.7065 58.4861 43.7433 58.7661C43.5131 59.607 43.0625 60.3718 42.4377 60.9819C41.8129 61.592 41.0363 62.0255 40.1878 62.2379C40.0396 62.2737 39.8999 62.3385 39.7769 62.4283C39.6539 62.5182 39.55 62.6314 39.4711 62.7615C39.3922 62.8916 39.34 63.0359 39.3173 63.1862C39.2947 63.3364 39.3021 63.4897 39.3391 63.6371C39.3762 63.7845 39.4422 63.9232 39.5333 64.045C39.6244 64.1669 39.7388 64.2697 39.8699 64.3473C40.001 64.425 40.1462 64.476 40.2972 64.4975C40.4482 64.519 40.602 64.5105 40.7497 64.4725C42.22 64.105 43.5372 63.2866 44.5153 62.1328C45.4933 60.979 46.0828 59.5483 46.2003 58.0427C46.2135 58.0064 46.2247 57.9695 46.2338 57.9321C46.2316 57.89 46.227 57.8481 46.2199 57.8065C46.2257 57.6879 46.25 57.5738 46.25 57.454V38.0136C46.25 36.7915 46.7373 35.6196 47.6046 34.7555C48.472 33.8914 49.6484 33.406 50.875 33.406C52.1016 33.406 53.278 33.8914 54.1454 34.7555C55.0127 35.6196 55.5 36.7915 55.5 38.0136V57.454C55.4983 59.0678 56.0389 60.6358 57.0358 61.9078C58.0327 63.1798 59.4283 64.0827 61.0003 64.4725C61.148 64.5105 61.3018 64.519 61.4528 64.4975C61.6038 64.476 61.749 64.425 61.8801 64.3473C62.0112 64.2697 62.1256 64.1669 62.2167 64.045C62.3078 63.9232 62.3738 63.7845 62.4109 63.6371C62.4479 63.4897 62.4553 63.3364 62.4327 63.1862C62.41 63.0359 62.3578 62.8916 62.2789 62.7615C62.2 62.6314 62.0961 62.5182 61.9731 62.4283C61.8501 62.3385 61.7104 62.2737 61.5622 62.2379C60.4909 61.9722 59.5397 61.3569 58.8602 60.4902C58.1806 59.6234 57.8118 58.555 57.8125 57.4552V56.8435C58.1363 57.0163 58.4461 57.2075 58.7733 57.416C60.2677 58.4632 62.0501 59.0252 63.877 59.0252C65.704 59.0252 67.4864 58.4632 68.9807 57.416C70.0903 56.578 71.4516 56.138 72.8438 56.1674C73.1504 56.1674 73.4445 56.046 73.6613 55.83C73.8782 55.614 74 55.321 74 55.0155V12.6719C74 12.3664 73.8782 12.0734 73.6613 11.8574C73.4445 11.6414 73.1504 11.52 72.8438 11.52ZM68.2188 13.8238H71.6875V53.927C70.4503 54.0669 69.2628 54.4917 68.2188 55.1675V13.8238ZM2.3125 13.8238H5.78125V55.1745C4.73685 54.4979 3.54979 54.0706 2.3125 53.9258V13.8238ZM23.125 31.1022C21.2857 31.1043 19.5224 31.8332 18.2218 33.1288C16.9212 34.4245 16.1896 36.1812 16.1875 38.0136V43.4044C14.6166 42.0047 13.5094 40.1628 13.0123 38.1224C12.5153 36.0821 12.6518 33.9395 13.4038 31.9781C14.1558 30.0167 15.4879 28.329 17.2237 27.1384C18.9596 25.9477 21.0175 25.3102 23.125 25.3102C25.2325 25.3102 27.2904 25.9477 29.0263 27.1384C30.7621 28.329 32.0942 30.0167 32.8462 31.9781C33.5982 33.9395 33.7347 36.0821 33.2377 38.1224C32.7406 40.1628 31.6334 42.0047 30.0625 43.4044V38.0136C30.0604 36.1812 29.3288 34.4245 28.0282 33.1288C26.7276 31.8332 24.9643 31.1043 23.125 31.1022ZM50.875 31.1022C49.0357 31.1043 47.2724 31.8332 45.9718 33.1288C44.6712 34.4245 43.9396 36.1812 43.9375 38.0136V43.4044C42.3666 42.0047 41.2594 40.1628 40.7623 38.1224C40.2653 36.0821 40.4018 33.9395 41.1538 31.9781C41.9058 30.0167 43.2379 28.329 44.9737 27.1384C46.7096 25.9477 48.7675 25.3102 50.875 25.3102C52.9825 25.3102 55.0404 25.9477 56.7763 27.1384C58.5121 28.329 59.8442 30.0167 60.5962 31.9781C61.3482 33.9395 61.4847 36.0821 60.9877 38.1224C60.4906 40.1628 59.3834 42.0047 57.8125 43.4044V38.0136C57.8104 36.1812 57.0788 34.4245 55.7782 33.1288C54.4776 31.8332 52.7143 31.1043 50.875 31.1022ZM60.0198 55.4739C59.3324 55.0052 58.5914 54.6196 57.8125 54.3255V46.2957C60.1105 44.8058 61.8637 42.616 62.8108 40.0527C63.7579 37.4893 63.8482 34.6897 63.0682 32.0711C62.2882 29.4525 60.6797 27.1551 58.4825 25.5213C56.2852 23.8876 53.6168 23.0049 50.875 23.0049C48.1332 23.0049 45.4648 23.8876 43.2675 25.5213C41.0703 27.1551 39.4618 29.4525 38.6818 32.0711C37.9018 34.6897 37.9921 37.4893 38.9392 40.0527C39.8863 42.616 41.6395 44.8058 43.9375 46.2957V56.4116C43.2847 56.1787 42.6648 55.8628 42.0933 55.4716C40.6009 54.4254 38.8208 53.8636 36.9959 53.863C35.1711 53.8624 33.3905 54.423 31.8975 55.4682C31.3283 55.8574 30.7117 56.1729 30.0625 56.407V46.2957C32.3605 44.8058 34.1137 42.616 35.0608 40.0527C36.0079 37.4893 36.0982 34.6897 35.3182 32.0711C34.5382 29.4525 32.9297 27.1551 30.7325 25.5213C28.5352 23.8876 25.8668 23.0049 23.125 23.0049C20.3832 23.0049 17.7148 23.8876 15.5175 25.5213C13.3203 27.1551 11.7118 29.4525 10.9318 32.0711C10.1518 34.6897 10.2421 37.4893 11.1892 40.0527C12.1363 42.616 13.8895 44.8058 16.1875 46.2957V54.3209C15.4017 54.6153 14.6547 55.0036 13.9629 55.4774C12.8582 56.3115 11.503 56.7495 10.1172 56.7203C9.43091 56.7325 8.74729 56.6321 8.09375 56.4231V20.7352H65.9062V56.4208C64.9182 56.7258 63.8728 56.7991 62.8516 56.6348C61.8304 56.4706 60.8612 56.0733 60.0198 55.4739Z" fill="white"/>
<path d="M30.0617 10.368H33.5304V14.9756C33.5302 15.197 33.5941 15.4138 33.7144 15.6C33.8347 15.7863 34.0064 15.934 34.2088 16.0255C34.4112 16.117 34.6358 16.1485 34.8557 16.1161C35.0756 16.0837 35.2815 15.9889 35.4486 15.843L44.6986 7.77972C44.8759 7.6254 45.0017 7.42086 45.0591 7.19343C45.1166 6.96601 45.1029 6.72653 45.0201 6.50701C44.9373 6.28749 44.7892 6.09839 44.5956 5.96499C44.402 5.83158 44.1721 5.76022 43.9367 5.76045H40.4679V1.15288C40.4681 0.931436 40.4042 0.71463 40.2839 0.528426C40.1636 0.342222 39.992 0.194514 39.7896 0.102989C39.5872 0.0114646 39.3626 -0.0199964 39.1427 0.0123739C38.9228 0.0447442 38.7169 0.139574 38.5497 0.285506L29.2997 8.34876C29.1225 8.50307 28.9967 8.70761 28.9393 8.93504C28.8818 9.16247 28.8954 9.40195 28.9782 9.62146C29.0611 9.84098 29.2092 10.0301 29.4028 10.1635C29.5964 10.2969 29.8263 10.3683 30.0617 10.368ZM38.1554 3.69165V6.91234C38.1554 7.21785 38.2772 7.51083 38.4941 7.72686C38.7109 7.94288 39.005 8.06424 39.3117 8.06424H40.8587L35.8429 12.4368V9.21613C35.8429 8.91063 35.7211 8.61764 35.5043 8.40162C35.2874 8.1856 34.9933 8.06424 34.6867 8.06424H33.1396L38.1554 3.69165Z" fill="white"/>
</svg>
