<svg width="61" height="74" viewBox="0 0 61 74" fill="none" xmlns="http://www.w3.org/2000/svg">
<circle cx="30.5" cy="30.5" r="30.5" fill="white" fill-opacity="0.2"/>
<path d="M12.1152 73H48.8852" stroke="white" stroke-width="2" stroke-miterlimit="10" stroke-linecap="round" stroke-linejoin="round"/>
<path d="M34.9265 73L32.9766 35.1833" stroke="white" stroke-width="2" stroke-miterlimit="10" stroke-linecap="round" stroke-linejoin="round"/>
<path d="M26.7122 60.6674L26.0762 73" stroke="white" stroke-width="2" stroke-miterlimit="10" stroke-linecap="round" stroke-linejoin="round"/>
<path d="M28.0254 35.1835L26.9746 55.5625" stroke="white" stroke-width="2" stroke-miterlimit="10" stroke-linecap="round" stroke-linejoin="round"/>
<path d="M28.4583 18.7534C28.0344 18.5582 27.6882 18.2306 27.4737 17.8218C27.2592 17.413 27.1886 16.9459 27.2729 16.4936L29.8637 2.5825C29.9465 2.13822 30.1854 1.73652 30.5386 1.44731C30.8918 1.1581 31.3371 0.999697 31.797 0.99966C32.8825 0.99966 33.7623 1.86395 33.7623 2.9299V15.4421C33.7623 18.1203 30.9275 19.8902 28.4583 18.7534Z" stroke="white" stroke-width="2" stroke-miterlimit="10" stroke-linecap="round" stroke-linejoin="round"/>
<path d="M30.5 25.0889V19.1043" stroke="white" stroke-width="2" stroke-miterlimit="10" stroke-linecap="round" stroke-linejoin="round"/>
<path d="M21.2259 38.0027C21.2658 38.4609 21.1501 38.9192 20.8969 39.306C20.6436 39.6928 20.2671 39.9864 19.8262 40.1409L6.26456 44.8927C5.83144 45.0444 5.35784 45.0422 4.92621 44.8864C4.49459 44.7305 4.13227 44.431 3.90235 44.0398C3.35955 43.1166 3.68169 41.936 4.62171 41.403L15.6543 35.147C18.0157 33.8078 20.9938 35.3342 21.2259 38.0027Z" stroke="white" stroke-width="2" stroke-miterlimit="10" stroke-linecap="round" stroke-linejoin="round"/>
<path d="M25.7899 33.0988L20.5137 36.0918" stroke="white" stroke-width="2" stroke-miterlimit="10" stroke-linecap="round" stroke-linejoin="round"/>
<path d="M41.8146 34.5298C42.1987 34.2668 42.6607 34.1361 43.1284 34.1581C43.5961 34.1801 44.0432 34.3535 44.4 34.6514L55.3706 43.8106C55.721 44.1031 55.9559 44.5071 56.0343 44.9522C56.1127 45.3973 56.0297 45.8552 55.7997 46.2464C55.257 47.1697 54.0551 47.4861 53.1151 46.9529L42.0825 40.6969C39.7209 39.3577 39.5778 36.0617 41.8146 34.5298Z" stroke="white" stroke-width="2" stroke-miterlimit="10" stroke-linecap="round" stroke-linejoin="round"/>
<path d="M40.4865 36.0918L35.209 33.0988" stroke="white" stroke-width="2" stroke-miterlimit="10" stroke-linecap="round" stroke-linejoin="round"/>
<path d="M35.1832 33.1408C33.6583 35.6812 30.3254 36.5265 27.7389 35.0288C25.1524 33.5312 24.2918 30.2577 25.8166 27.7173C27.3413 25.177 30.6744 24.3317 33.2608 25.8294C35.8472 27.3269 36.7079 30.6003 35.1832 33.1408Z" stroke="white" stroke-width="2" stroke-miterlimit="10" stroke-linecap="round" stroke-linejoin="round"/>
<path d="M30.5803 30.4835C30.5983 30.4658 30.6051 30.4457 30.6051 30.4286C30.6051 30.4115 30.5983 30.3914 30.5803 30.3738C30.5617 30.3555 30.5328 30.3421 30.4988 30.3421C30.4649 30.3421 30.4359 30.3555 30.4173 30.3738C30.3993 30.3914 30.3926 30.4115 30.3926 30.4286C30.3926 30.4457 30.3993 30.4658 30.4173 30.4835C30.4359 30.5017 30.4649 30.5151 30.4988 30.5151C30.5328 30.5151 30.5617 30.5017 30.5803 30.4835Z" fill="white" stroke="white" stroke-width="2"/>
<path d="M38.9102 57.7539C42.8087 56.6167 46.3692 54.7088 49.4107 52.2112" stroke="white" stroke-width="2" stroke-miterlimit="10" stroke-linecap="round" stroke-linejoin="round"/>
<path d="M11.5898 52.2112C14.6298 54.7088 18.1919 56.6167 22.0904 57.7539" stroke="white" stroke-width="2" stroke-miterlimit="10" stroke-linecap="round" stroke-linejoin="round"/>
<path d="M1.8732 37C1.30237 34.7502 1 32.3975 1 29.9738C1 17.8773 8.54757 7.51188 19.2708 3.17305" stroke="white" stroke-width="2" stroke-miterlimit="10" stroke-linecap="round" stroke-linejoin="round"/>
<path d="M41.7285 3.17305C52.4518 7.51188 59.9993 17.8773 59.9993 29.9738C59.9993 32.3975 59.697 34.7502 59.1261 37" stroke="white" stroke-width="2" stroke-miterlimit="10" stroke-linecap="round" stroke-linejoin="round"/>
<path d="M38.4434 15.9045C43.724 18.6889 47.3155 24.165 47.3155 30.4639" stroke="white" stroke-width="2" stroke-miterlimit="10" stroke-linecap="round" stroke-linejoin="round"/>
<path d="M13.6855 30.4639C13.6855 24.165 17.2772 18.6889 22.5577 15.9045" stroke="white" stroke-width="2" stroke-miterlimit="10" stroke-linecap="round" stroke-linejoin="round"/>
</svg>
