<svg width="145" height="145" viewBox="0 0 145 145" fill="none" xmlns="http://www.w3.org/2000/svg">
<path d="M32.6657 100.925C23.8008 90.3602 19.4959 76.7067 20.6979 62.9679C21.8999 49.2291 28.5103 36.5305 39.075 27.6657C49.6398 18.8008 63.2933 14.4959 77.0321 15.6979C90.7709 16.8999 103.469 23.5103 112.334 34.075" stroke="#C3E3BF"/>
<circle cx="20.5" cy="67.5002" r="4.5" fill="#C3E3BF"/>
<g filter="url(#filter0_d_521_86)">
<circle cx="72.5" cy="67.5002" r="42.5" fill="#4AAB3D"/>
</g>
<path d="M88.6357 67.4918V89" stroke="white" stroke-width="1.5" stroke-miterlimit="10" stroke-linecap="round" stroke-linejoin="round"/>
<path d="M56.3643 89V67.4918" stroke="white" stroke-width="1.5" stroke-miterlimit="10" stroke-linecap="round" stroke-linejoin="round"/>
<path d="M81.936 59.7318L90.6116 64.7392C90.7036 64.7924 90.78 64.8688 90.8331 64.9608C90.8863 65.0529 90.9143 65.1572 90.9144 65.2635V67.7578C90.9144 68.2242 90.41 68.5157 90.006 68.283L76.875 60.7048" stroke="white" stroke-width="1.5" stroke-miterlimit="10" stroke-linecap="round" stroke-linejoin="round"/>
<path d="M65.6935 58.2148L54.388 64.7392C54.296 64.7924 54.2197 64.8688 54.1665 64.9608C54.1134 65.0529 54.0853 65.1572 54.0852 65.2635V67.7578C54.0852 68.2242 54.5896 68.5157 54.9937 68.283L65.5548 62.1879" stroke="white" stroke-width="1.5" stroke-miterlimit="10" stroke-linecap="round" stroke-linejoin="round"/>
<path d="M51.3541 57.0175C50.1855 54.0008 51.9439 49.7466 56.1144 47.35C56.3643 47.2062 56.6793 47.376 56.6935 47.6639C56.7207 48.2125 56.8233 48.8705 57.0982 49.5618C57.512 50.6019 58.0185 50.9699 58.5778 51.8246C59.296 52.9222 59.945 54.5833 59.8252 55.9441C59.5662 58.8868 55.7052 60.5252 55.4156 60.6439C54.618 60.34 52.2443 59.3155 51.3541 57.0175Z" stroke="white" stroke-width="1.5" stroke-miterlimit="10" stroke-linecap="round" stroke-linejoin="round"/>
<path d="M55.3283 52.2657C54.984 53.5176 54.6223 55.434 54.8196 57.7553C55.029 60.2245 55.7903 62.1963 56.4695 63.5374" stroke="white" stroke-width="1.5" stroke-miterlimit="10" stroke-linecap="round" stroke-linejoin="round"/>
<path d="M53.4309 54.7385L54.7395 56.2825" stroke="white" stroke-width="1.5" stroke-miterlimit="10" stroke-linecap="round" stroke-linejoin="round"/>
<path d="M57.1229 55.3451C56.5822 55.7442 56.096 56.2124 55.6768 56.7377C55.3581 57.1375 55.08 57.5681 54.8467 58.0231" stroke="white" stroke-width="1.5" stroke-miterlimit="10" stroke-linecap="round" stroke-linejoin="round"/>
<path d="M93.6461 57.0175C94.8147 54.0008 93.0564 49.7466 88.8858 47.35C88.6359 47.2062 88.3209 47.376 88.3067 47.6639C88.2796 48.2125 88.177 48.8705 87.902 49.5618C87.4883 50.6019 86.9817 50.9699 86.4224 51.8246C85.7042 52.9222 85.0552 54.5833 85.175 55.9441C85.434 58.8868 89.295 60.5252 89.5846 60.6439C90.3822 60.34 92.7559 59.3155 93.6461 57.0175Z" stroke="white" stroke-width="1.5" stroke-miterlimit="10" stroke-linecap="round" stroke-linejoin="round"/>
<path d="M89.6715 52.2657C90.0158 53.5176 90.3775 55.434 90.1802 57.7553C89.9708 60.2245 89.2094 62.1963 88.5303 63.5374" stroke="white" stroke-width="1.5" stroke-miterlimit="10" stroke-linecap="round" stroke-linejoin="round"/>
<path d="M91.5691 54.7385L90.2605 56.2825" stroke="white" stroke-width="1.5" stroke-miterlimit="10" stroke-linecap="round" stroke-linejoin="round"/>
<path d="M87.877 55.3451C88.4177 55.7442 88.9038 56.2124 89.323 56.7377C89.6418 57.1375 89.9199 57.5681 90.1532 58.0231" stroke="white" stroke-width="1.5" stroke-miterlimit="10" stroke-linecap="round" stroke-linejoin="round"/>
<path d="M60.7058 86.3013V73.6747C60.7058 73.3399 60.9766 73.0691 61.3114 73.0691H70.7109C71.0457 73.0691 71.3165 73.3399 71.3165 73.6747V86.3013" stroke="white" stroke-width="1.5" stroke-miterlimit="10" stroke-linecap="round" stroke-linejoin="round"/>
<path d="M74.63 61.7189C75.2685 62.2986 75.6699 63.1361 75.6699 64.067C75.6699 65.8181 74.251 67.2371 72.4999 67.2371C70.7487 67.2371 69.3298 65.8181 69.3298 64.067C69.3298 63.1361 69.7313 62.2986 70.3698 61.7189" stroke="white" stroke-width="1.5" stroke-miterlimit="10" stroke-linecap="round" stroke-linejoin="round"/>
<path d="M80.5031 54.003C80.5031 58.4229 76.92 62.006 72.5001 62.006C68.0802 62.006 64.4971 58.4229 64.4971 54.003C64.4971 49.5831 68.0802 46 72.5001 46C76.92 46 80.5031 49.5831 80.5031 54.003Z" stroke="white" stroke-width="1.5" stroke-miterlimit="10" stroke-linecap="round" stroke-linejoin="round"/>
<path d="M73.7757 49.2859C74.1685 49.2827 74.4303 49.6431 74.2988 49.9828C73.9492 50.8854 73.5622 51.7767 73.1848 52.6682C73.162 52.7222 73.1784 52.7447 73.223 52.7705C73.9296 53.1784 74.6346 53.5891 75.3419 53.9958C75.6903 54.1962 75.7458 54.6038 75.4551 54.8797C74.174 56.0948 72.891 57.3079 71.6085 58.5215C71.2043 58.9038 70.4753 58.6044 70.7009 58.0213C70.8347 57.6755 70.9813 57.3346 71.1237 56.9922C71.3529 56.4396 71.5837 55.8876 71.816 55.3362C71.8398 55.28 71.8198 55.26 71.7766 55.2351C71.0611 54.8237 70.3387 54.4206 69.6323 53.9941C69.3034 53.7956 69.2645 53.3907 69.5449 53.1251C70.8267 51.9106 72.1123 50.6999 73.3915 49.4828C73.5095 49.3706 73.639 49.2904 73.7757 49.2859Z" stroke="white" stroke-width="1.5" stroke-miterlimit="10" stroke-linecap="round" stroke-linejoin="round"/>
<path d="M59.408 89V86.9074C59.408 86.7467 59.4718 86.5927 59.5853 86.4791C59.6989 86.3655 59.853 86.3017 60.0136 86.3017H72.0088C72.1694 86.3017 72.3234 86.3655 72.437 86.4791C72.5506 86.5927 72.6144 86.7467 72.6144 86.9074V89" stroke="white" stroke-width="1.5" stroke-miterlimit="10" stroke-linecap="round" stroke-linejoin="round"/>
<path d="M84.1367 80.0065H75.8153C75.6547 80.0065 75.5007 79.9427 75.3871 79.8291C75.2735 79.7155 75.2097 79.5615 75.2097 79.4008V73.6751C75.2097 73.5145 75.2735 73.3604 75.3871 73.2468C75.5007 73.1333 75.6547 73.0695 75.8153 73.0695H84.1367C84.2973 73.0695 84.4513 73.1333 84.5649 73.2468C84.6785 73.3604 84.7423 73.5145 84.7423 73.6751V79.4008C84.7423 79.5615 84.6785 79.7155 84.5649 79.8291C84.4513 79.9427 84.2973 80.0065 84.1367 80.0065Z" stroke="white" stroke-width="1.5" stroke-miterlimit="10" stroke-linecap="round" stroke-linejoin="round"/>
<path d="M79.9761 73.0692V80.0062" stroke="white" stroke-width="1.5" stroke-miterlimit="10" stroke-linecap="round" stroke-linejoin="round"/>
<path d="M75.2097 76.5379H84.7423" stroke="white" stroke-width="1.5" stroke-miterlimit="10" stroke-linecap="round" stroke-linejoin="round"/>
<path d="M53.9417 89H91.0583" stroke="white" stroke-width="1.5" stroke-miterlimit="10" stroke-linecap="round" stroke-linejoin="round"/>
<defs>
<filter id="filter0_d_521_86" x="0" y="0.000244141" width="145" height="145" filterUnits="userSpaceOnUse" color-interpolation-filters="sRGB">
<feFlood flood-opacity="0" result="BackgroundImageFix"/>
<feColorMatrix in="SourceAlpha" type="matrix" values="0 0 0 0 0 0 0 0 0 0 0 0 0 0 0 0 0 0 127 0" result="hardAlpha"/>
<feOffset dy="5"/>
<feGaussianBlur stdDeviation="15"/>
<feComposite in2="hardAlpha" operator="out"/>
<feColorMatrix type="matrix" values="0 0 0 0 0.290196 0 0 0 0 0.670588 0 0 0 0 0.239216 0 0 0 0.4 0"/>
<feBlend mode="normal" in2="BackgroundImageFix" result="effect1_dropShadow_521_86"/>
<feBlend mode="normal" in="SourceGraphic" in2="effect1_dropShadow_521_86" result="shape"/>
</filter>
</defs>
</svg>
