<svg width="145" height="145" viewBox="0 0 145 145" fill="none" xmlns="http://www.w3.org/2000/svg">
<path d="M32.6657 100.925C23.8008 90.3602 19.4959 76.7067 20.6979 62.9679C21.8999 49.2291 28.5103 36.5305 39.075 27.6657C49.6398 18.8008 63.2933 14.4959 77.0321 15.6979C90.7709 16.8999 103.469 23.5103 112.334 34.075" stroke="#C3E3BF"/>
<circle cx="20.5" cy="67.5" r="4.5" fill="#C3E3BF"/>
<g filter="url(#filter0_d_2_6472)">
<circle cx="72.5" cy="67.5005" r="42.5" fill="#4AAB3D"/>
</g>
<path d="M91.0248 70.5723L92.264 69.3256C95.9121 65.6559 95.9121 59.6846 92.264 56.0148L90.814 54.5561C90.679 54.4203 90.4959 54.3441 90.305 54.3441C90.1142 54.3441 89.9311 54.4203 89.7962 54.5561L88.346 56.0148C84.6979 59.6846 84.6979 65.6558 88.3461 69.3256L89.5853 70.5722C89.5853 71.385 89.733 72.3536 89.5712 73.141C89.2778 72.9056 89.0503 72.5209 88.802 72.2365C87.9836 71.2994 87.0832 70.4382 86.1117 69.6632C84.8101 68.625 83.3839 67.7456 81.8726 67.0522C80.5666 66.453 79.1978 65.9932 77.7958 65.6833C77.4322 65.6029 73.3913 65.0236 73.3913 65.2043V60.1362H83.1077C83.2283 60.1362 83.347 60.1057 83.4529 60.0475C83.5587 59.9893 83.6483 59.9053 83.7134 59.8032C83.7786 59.7011 83.8172 59.5841 83.8257 59.4631C83.8341 59.342 83.8122 59.2208 83.762 59.1105L79.8035 50.4224C79.746 50.2963 79.6539 50.1895 79.5379 50.1147C79.4219 50.0398 79.287 50 79.1492 50H65.8341C65.6963 50 65.5614 50.0398 65.4454 50.1147C65.3294 50.1895 65.2373 50.2963 65.1799 50.4224L61.2213 59.1105C61.1711 59.2208 61.1492 59.342 61.1577 59.4631C61.1661 59.5841 61.2047 59.701 61.2698 59.8032C61.335 59.9053 61.4246 59.9893 61.5304 60.0475C61.6363 60.1057 61.755 60.1362 61.8756 60.1362H71.9519V65.2558C68.1535 65.522 64.444 66.8841 61.3645 69.1337C59.7928 70.2818 58.3838 71.6536 57.1915 73.1961L57.195 61.7296L61.7615 65.7491C61.8981 65.8693 62.067 65.9283 62.2351 65.9283C62.4355 65.9283 62.6348 65.8446 62.7771 65.681C63.0388 65.3801 63.0085 64.9227 62.7094 64.6594L57.1956 59.8061L57.1973 53.9823C57.1974 53.5824 56.8753 53.2581 56.4776 53.258C56.0802 53.258 55.7579 53.5821 55.7578 53.9818L55.7561 59.8092L50.2458 64.6594C49.9467 64.9227 49.9163 65.3801 50.1781 65.681C50.3204 65.8446 50.5197 65.9282 50.72 65.9282C50.8882 65.9282 51.0572 65.8693 51.1936 65.7491L55.7555 61.7338L55.7514 75.3192C53.9281 78.4016 52.8789 81.9989 52.8789 85.8386C52.8789 86.2384 53.2011 86.5626 53.5986 86.5626H93.184C93.5815 86.5626 93.9037 86.2384 93.9037 85.8386C93.9037 81.9943 92.8521 78.3931 91.0248 75.3083V70.5723ZM89.3639 68.3017C86.277 65.1965 86.277 60.144 89.3638 57.0387L90.305 56.092L91.2461 57.0387C94.333 60.144 94.333 65.1965 91.2461 68.3017L91.0248 68.5243V64.1182C91.0248 63.7183 90.7025 63.3942 90.305 63.3942C89.9075 63.3942 89.5853 63.7184 89.5853 64.1182V68.5244L89.3639 68.3017ZM74.3124 51.448L76.093 58.6881H69.3176L71.0982 51.448H74.3124ZM81.9861 58.6881H77.5758L75.7952 51.448H78.6873L81.9861 58.6881ZM66.296 51.448H69.6154L67.8348 58.6881H62.9971L66.296 51.448ZM87.962 73.4724L85.0201 78.2089C84.3832 79.2127 83.4664 79.3225 81.6682 79.3225C81.0851 79.3225 79.7191 78.9508 79.0864 78.6631C78.4418 78.3691 77.273 77.6041 76.9641 76.5954L76.2487 73.7168C76.2461 73.7063 76.2433 73.6958 76.2402 73.6853C75.7856 72.1532 74.5046 70.6982 72.9798 69.9801L67.779 67.5004C69.5541 66.9496 71.4387 66.6523 73.3913 66.6523C79.2284 66.6523 84.4606 69.3042 87.962 73.4724ZM54.3317 85.1146C54.4497 81.9277 55.3445 78.9373 56.8302 76.3293C57.0391 76.2078 57.1814 75.9841 57.1896 75.7259C59.2454 72.405 62.2812 69.7594 65.8875 68.201L72.3664 71.2901C73.5162 71.8316 74.5149 72.953 74.8564 74.0846L75.572 76.9641C75.5746 76.9747 75.5775 76.9854 75.5807 76.9959C76.1236 78.8219 78.1012 79.8037 78.4928 79.9822C79.1994 80.3036 80.7877 80.7705 81.6682 80.7705C83.2779 80.7705 85.1023 80.7705 86.2372 78.9821L88.904 74.6886C91.0133 77.6497 92.3073 81.2366 92.4509 85.1146H54.3317Z" fill="white"/>
<path d="M69.793 76.4266H69.4332C68.6394 76.4266 67.9937 75.777 67.9937 74.9786C67.9937 73.3817 66.7023 72.0825 65.1148 72.0825C62.9321 72.0825 61.1562 73.8689 61.1562 76.0646C61.1562 80.0568 64.3849 83.3047 68.3535 83.3047H68.7134C70.8961 83.3047 72.672 81.5184 72.672 79.3226C72.672 77.7258 71.3805 76.4266 69.793 76.4266ZM68.7134 81.8567H68.3535C65.1786 81.8567 62.5957 79.2584 62.5957 76.0646C62.5957 74.6673 63.7257 73.5306 65.1148 73.5306C65.9085 73.5306 66.5543 74.1801 66.5543 74.9786C66.5543 76.5755 67.8457 77.8746 69.4332 77.8746H69.7931C70.5868 77.8746 71.2325 78.5242 71.2325 79.3227C71.2325 80.7199 70.1025 81.8567 68.7134 81.8567Z" fill="white"/>
<defs>
<filter id="filter0_d_2_6472" x="0" y="0.000488281" width="145" height="145" filterUnits="userSpaceOnUse" color-interpolation-filters="sRGB">
<feFlood flood-opacity="0" result="BackgroundImageFix"/>
<feColorMatrix in="SourceAlpha" type="matrix" values="0 0 0 0 0 0 0 0 0 0 0 0 0 0 0 0 0 0 127 0" result="hardAlpha"/>
<feOffset dy="5"/>
<feGaussianBlur stdDeviation="15"/>
<feComposite in2="hardAlpha" operator="out"/>
<feColorMatrix type="matrix" values="0 0 0 0 0.290196 0 0 0 0 0.670588 0 0 0 0 0.239216 0 0 0 0.4 0"/>
<feBlend mode="normal" in2="BackgroundImageFix" result="effect1_dropShadow_2_6472"/>
<feBlend mode="normal" in="SourceGraphic" in2="effect1_dropShadow_2_6472" result="shape"/>
</filter>
</defs>
</svg>
