<svg width="145" height="145" viewBox="0 0 145 145" fill="none" xmlns="http://www.w3.org/2000/svg">
<path d="M32.6657 100.925C23.8008 90.3602 19.4959 76.7067 20.6979 62.9679C21.8999 49.2291 28.5103 36.5305 39.075 27.6657C49.6398 18.8008 63.2933 14.4959 77.0321 15.6979C90.7709 16.8999 103.469 23.5103 112.334 34.075" stroke="#C3E3BF"/>
<circle cx="20.5" cy="67.5" r="4.5" fill="#C3E3BF"/>
<g filter="url(#filter0_d_2_6461)">
<circle cx="72.5" cy="67.5005" r="42.5" fill="#4AAB3D"/>
</g>
<path d="M95.5246 61.139L93.3749 60.3116C93.0667 59.1638 92.6096 58.0613 92.0153 57.0321L92.951 54.9256C93.0118 54.7886 93.0298 54.6363 93.0024 54.4889C92.975 54.3415 92.9035 54.2058 92.7975 54.0998L89.9001 51.2026C89.7941 51.0966 89.6585 51.0251 89.5111 50.9977C89.3637 50.9703 89.2115 50.9882 89.0745 51.0491L86.9671 51.9849C85.9381 51.3909 84.8359 50.934 83.6885 50.6257L82.8608 48.4754C82.807 48.3355 82.712 48.2151 82.5884 48.1303C82.4648 48.0454 82.3184 48 82.1684 48H78.0711C77.9211 48 77.7747 48.0454 77.6511 48.1303C77.5275 48.2152 77.4325 48.3355 77.3787 48.4754L76.5509 50.6258C75.4035 50.9341 74.3013 51.3911 73.2723 51.985L71.165 51.0491C71.028 50.9882 70.8757 50.9703 70.7283 50.9977C70.5809 51.0251 70.4453 51.0965 70.3393 51.2026L67.442 54.0999C67.336 54.206 67.2646 54.3416 67.2372 54.489C67.2098 54.6364 67.2277 54.7887 67.2886 54.9257L67.4889 55.3767C66.6914 54.882 65.6714 54.836 65.3258 54.836H65.3223C64.8983 54.836 63.4627 54.9048 62.6643 55.783C62.4331 56.0373 62.2812 56.3328 62.2131 56.6559C58.9554 57.9244 56.7956 61.0406 56.7766 64.5714C56.0443 64.8048 55.5123 65.4914 55.5123 66.3001C55.5123 67.3 56.3257 68.1135 57.3255 68.1139C57.8075 70.5406 59.3513 72.5524 61.433 73.6821C59.0562 74.3012 56.8465 75.4849 54.9929 77.161C52.1779 79.7066 50.4062 83.1778 50.0042 86.9354C49.9932 87.0389 50.004 87.1436 50.0361 87.2426C50.0681 87.3416 50.1206 87.4328 50.1902 87.5102C50.2597 87.5876 50.3448 87.6495 50.4398 87.6919C50.5349 87.7343 50.6378 87.7562 50.7418 87.7563H79.9054C80.0095 87.7563 80.1125 87.7345 80.2075 87.6921C80.3026 87.6497 80.3877 87.5878 80.4573 87.5104C80.5269 87.4329 80.5794 87.3417 80.6114 87.2427C80.6434 87.1436 80.6542 87.0389 80.6431 86.9354C80.3644 84.331 79.4271 81.8643 77.9412 79.7478C77.9837 79.7554 78.0268 79.7604 78.0711 79.7604H82.1685C82.3184 79.7604 82.4649 79.7149 82.5885 79.6301C82.7121 79.5452 82.8071 79.4249 82.8609 79.285L83.6884 77.1353C84.8361 76.827 85.9387 76.3699 86.9679 75.7757L89.0745 76.7113C89.2115 76.7721 89.3637 76.79 89.5112 76.7626C89.6586 76.7352 89.7942 76.6638 89.9002 76.5578L92.7975 73.6604C92.9035 73.5544 92.9749 73.4188 93.0023 73.2713C93.0297 73.1239 93.0118 72.9717 92.9509 72.8347L92.0149 70.7274C92.6089 69.6984 93.0658 68.5963 93.3742 67.4489L95.5245 66.6212C95.6644 66.5674 95.7847 66.4724 95.8696 66.3488C95.9545 66.2252 95.9999 66.0787 95.9999 65.9288V61.8314C95.9999 61.6815 95.9545 61.5351 95.8696 61.4115C95.7848 61.2879 95.6645 61.1929 95.5246 61.139ZM63.7623 56.7812C64.0092 56.5095 64.6504 56.3199 65.3225 56.3199H65.3256C65.997 56.3199 66.6382 56.5095 66.8852 56.7813C66.9724 56.8773 67.0025 56.9756 66.9885 57.1206C66.9877 57.1294 66.9877 57.1381 66.9871 57.1468L66.9857 57.1466L66.5996 60.1196C66.5629 60.4032 66.3285 60.609 66.0426 60.609H64.6047C64.3187 60.609 64.0845 60.4032 64.0476 60.1196L63.6616 57.1466L63.6602 57.1468C63.6596 57.1381 63.6596 57.1293 63.6588 57.1206C63.645 56.9755 63.675 56.8772 63.7623 56.7812ZM62.306 58.2308L62.5762 60.3108C62.7082 61.3268 63.5802 62.0929 64.6048 62.0929H66.0427C67.0672 62.0929 67.9393 61.3268 68.0713 60.3108L68.3413 58.2308C70.7543 59.3659 72.3345 61.7714 72.3844 64.4863H58.2629C58.3128 61.7714 59.8931 59.3659 62.306 58.2308ZM73.8709 64.5713C73.8652 63.3275 73.5882 62.0998 73.0594 60.974C74.2294 58.1339 77.0274 56.247 80.1197 56.247C84.3288 56.247 87.753 59.6712 87.753 63.8802C87.753 68.089 84.3288 71.5133 80.1197 71.5133C77.5311 71.5133 75.1326 70.1897 73.7352 68.0644C74.5363 67.8764 75.1352 67.1576 75.1352 66.3001C75.1352 65.4913 74.6033 64.8046 73.8709 64.5713ZM56.9962 66.3001C56.9962 66.1212 57.1473 65.9702 57.3262 65.9702H73.3215C73.5004 65.9702 73.6515 66.1212 73.6515 66.3001C73.6515 66.4789 73.5004 66.6299 73.3215 66.6299H57.3262C57.1473 66.6299 56.9962 66.4789 56.9962 66.3001ZM58.845 68.1138H71.8025C71.0805 71.0554 68.4304 73.1837 65.325 73.1843H65.3224C62.217 73.1837 59.5669 71.0554 58.845 68.1138ZM65.3238 74.6682H65.3251C67.0664 74.6684 68.7369 74.9872 70.2789 75.5715L65.3237 80.5267L60.3684 75.5715C61.9104 74.9873 63.5811 74.6684 65.3224 74.6682H65.3238ZM55.6333 78.5758C56.0926 78.1321 56.5819 77.7205 57.0976 77.3441C57.098 78.7438 57.0986 80.1431 57.0995 81.5419C57.1006 83.1178 57.1013 84.6945 57.1016 86.2724H55.6333V78.5758ZM58.5834 81.5409C58.5822 79.8272 58.5812 78.1134 58.581 76.398C58.6923 76.3367 58.8044 76.2769 58.9172 76.2187L64.5817 81.8832V86.2723H58.5855C58.5852 84.6942 58.5844 83.1172 58.5834 81.5409ZM54.1495 80.264V86.2724H51.5918C51.9649 84.0334 52.8628 81.9906 54.1495 80.264ZM66.0656 86.2724V81.8833L71.7301 76.2188C75.5279 78.1806 78.3173 81.8429 79.0556 86.2724H66.0656ZM75.6545 77.1609C75.4509 76.9772 75.2425 76.7989 75.0294 76.6262C75.5262 76.8255 76.0343 76.9952 76.5511 77.1346L77.1682 78.7382C76.7014 78.1774 76.1956 77.6504 75.6545 77.1609ZM94.5161 65.4195L92.4829 66.202C92.3705 66.2453 92.2703 66.3153 92.1909 66.406C92.1116 66.4967 92.0556 66.6054 92.0277 66.7226C91.7279 67.9823 91.2288 69.1861 90.5493 70.2885C90.4862 70.3911 90.449 70.5076 90.4409 70.6278C90.4328 70.7481 90.4542 70.8685 90.5031 70.9786L91.3881 72.9714L89.2113 75.1483L87.2192 74.2636C87.1091 74.2147 86.9887 74.1933 86.8684 74.2014C86.7481 74.2095 86.6317 74.2467 86.5291 74.31C85.4265 74.9897 84.2224 75.4889 82.9623 75.7886C82.8451 75.8165 82.7364 75.8725 82.6457 75.9518C82.555 76.0312 82.4849 76.1314 82.4416 76.2439L81.6592 78.2765H78.5807L77.7981 76.2433C77.7548 76.1308 77.6848 76.0306 77.5941 75.9513C77.5034 75.872 77.3947 75.8159 77.2775 75.788C76.0177 75.4883 74.8139 74.9893 73.7116 74.3097C73.609 74.2466 73.4925 74.2094 73.3723 74.2013C73.2521 74.1933 73.1317 74.2146 73.0215 74.2634L72.0137 74.711C71.1164 74.278 70.1789 73.9334 69.2148 73.6821C70.8923 72.7718 72.2199 71.2883 72.9249 69.4767C74.6309 71.6622 77.2793 72.9972 80.12 72.9972C85.1472 72.9972 89.2371 68.9074 89.2371 63.8803C89.2371 58.8531 85.1472 54.7632 80.12 54.7632C76.7834 54.7632 73.7337 56.6028 72.1453 59.4593C71.4947 58.5992 70.6866 57.8705 69.7639 57.3122C69.8207 57.138 69.8111 56.949 69.7368 56.7815L68.8519 54.789L71.0287 52.6121L73.0215 53.4971C73.1316 53.546 73.252 53.5673 73.3722 53.5592C73.4925 53.5512 73.6089 53.5139 73.7115 53.4507C74.8139 52.7712 76.0176 52.2722 77.2774 51.9724C77.3946 51.9445 77.5033 51.8885 77.594 51.8092C77.6847 51.7298 77.7548 51.6296 77.798 51.5172L78.5807 49.4839H81.6592L82.4417 51.5171C82.485 51.6295 82.555 51.7297 82.6458 51.8091C82.7365 51.8884 82.8451 51.9444 82.9624 51.9723C84.2221 52.2721 85.4259 52.7712 86.5282 53.4506C86.6308 53.5138 86.7473 53.551 86.8675 53.5591C86.9878 53.5672 87.1082 53.5459 87.2183 53.497L89.2111 52.612L91.388 54.7888L90.5032 56.7807C90.4543 56.8909 90.433 57.0113 90.4411 57.1316C90.4492 57.2519 90.4864 57.3684 90.5496 57.471C91.2294 58.5735 91.7285 59.7777 92.0281 61.0378C92.056 61.155 92.112 61.2637 92.1914 61.3544C92.2707 61.4451 92.3709 61.5151 92.4834 61.5584L94.5161 62.3408V65.4195ZM78.7557 65.5356L78.2668 69.7259C78.2481 69.8856 78.2819 70.047 78.363 70.1859C78.444 70.3247 78.568 70.4335 78.7162 70.4958C78.8644 70.5581 79.0289 70.5706 79.1848 70.5314C79.3408 70.4922 79.4797 70.4034 79.5808 70.2783L85.2284 63.2921C85.3166 63.1831 85.372 63.0515 85.3884 62.9123C85.4049 62.7732 85.3815 62.6322 85.3211 62.5058C85.2608 62.3794 85.1658 62.2726 85.0473 62.1979C84.9288 62.1232 84.7915 62.0836 84.6514 62.0836H81.4367L81.6749 57.9915C81.6841 57.8336 81.6425 57.6769 81.5564 57.5443C81.4702 57.4117 81.344 57.3101 81.196 57.2543C81.048 57.1985 80.8861 57.1914 80.7339 57.2341C80.5816 57.2768 80.447 57.367 80.3496 57.4916L75.0034 64.3369C74.9179 64.4464 74.8648 64.5778 74.8503 64.7161C74.8358 64.8543 74.8604 64.9939 74.9214 65.1188C74.9823 65.2438 75.0771 65.3491 75.195 65.4227C75.3129 65.4964 75.4491 65.5355 75.5881 65.5355L78.7557 65.5356ZM80.0554 60.2791L79.9097 62.7824C79.9038 62.8833 79.9186 62.9843 79.9532 63.0793C79.9878 63.1743 80.0414 63.2612 80.1107 63.3347C80.1801 63.4082 80.2637 63.4667 80.3565 63.5068C80.4493 63.5468 80.5493 63.5675 80.6503 63.5675H83.0976L80.0377 67.3527L80.3263 64.8796C80.3385 64.7756 80.3285 64.6702 80.297 64.5704C80.2655 64.4705 80.2132 64.3784 80.1436 64.3002C80.074 64.222 79.9886 64.1594 79.893 64.1166C79.7975 64.0738 79.694 64.0516 79.5893 64.0517H77.1091L80.0554 60.2791Z" fill="white"/>
<defs>
<filter id="filter0_d_2_6461" x="0" y="0.000488281" width="145" height="145" filterUnits="userSpaceOnUse" color-interpolation-filters="sRGB">
<feFlood flood-opacity="0" result="BackgroundImageFix"/>
<feColorMatrix in="SourceAlpha" type="matrix" values="0 0 0 0 0 0 0 0 0 0 0 0 0 0 0 0 0 0 127 0" result="hardAlpha"/>
<feOffset dy="5"/>
<feGaussianBlur stdDeviation="15"/>
<feComposite in2="hardAlpha" operator="out"/>
<feColorMatrix type="matrix" values="0 0 0 0 0.290196 0 0 0 0 0.670588 0 0 0 0 0.239216 0 0 0 0.4 0"/>
<feBlend mode="normal" in2="BackgroundImageFix" result="effect1_dropShadow_2_6461"/>
<feBlend mode="normal" in="SourceGraphic" in2="effect1_dropShadow_2_6461" result="shape"/>
</filter>
</defs>
</svg>
