<svg width="145" height="145" viewBox="0 0 145 145" fill="none" xmlns="http://www.w3.org/2000/svg">
<path d="M32.6657 100.925C23.8008 90.3602 19.4959 76.7067 20.6979 62.9679C21.8999 49.2291 28.5103 36.5305 39.075 27.6657C49.6398 18.8008 63.2933 14.4959 77.0321 15.6979C90.7709 16.8999 103.469 23.5103 112.334 34.075" stroke="#C3E3BF"/>
<circle cx="20.5" cy="67.5" r="4.5" fill="#C3E3BF"/>
<g filter="url(#filter0_d_2_6516)">
<circle cx="72.5" cy="67.5" r="42.5" fill="#4AAB3D"/>
</g>
<path d="M83.8416 56.25C83.8416 54.025 83.1765 51.8499 81.9303 49.9998C80.6842 48.1498 78.913 46.7078 76.8408 45.8564C74.7685 45.0049 72.4883 44.7821 70.2884 45.2162C68.0885 45.6503 66.0678 46.7217 64.4818 48.2951C62.8958 49.8684 61.8157 51.873 61.3781 54.0552C60.9405 56.2375 61.1651 58.4995 62.0234 60.5552C62.8818 62.6109 64.3353 64.3679 66.2003 65.604C68.0653 66.8402 70.2579 67.5 72.5009 67.5C75.5076 67.4966 78.3901 66.3103 80.5162 64.2012C82.6423 62.0922 83.8382 59.2327 83.8416 56.25ZM72.5009 66C70.557 66 68.6567 65.4282 67.0404 64.3568C65.4241 63.2855 64.1643 61.7627 63.4204 59.9812C62.6765 58.1996 62.4819 56.2392 62.8611 54.3479C63.2403 52.4566 64.1764 50.7193 65.551 49.3557C66.9255 47.9922 68.6768 47.0636 70.5834 46.6873C72.49 46.3111 74.4662 46.5042 76.2621 47.2422C78.0581 47.9801 79.5931 49.2298 80.6731 50.8332C81.753 52.4366 82.3295 54.3216 82.3295 56.25C82.3265 58.835 81.29 61.3132 79.4474 63.141C77.6049 64.9688 75.1067 65.997 72.5009 66Z" fill="white"/>
<path d="M72.5001 48C70.8553 48 69.2474 48.4839 67.8797 49.3904C66.5121 50.2969 65.4461 51.5854 64.8167 53.0929C64.1872 54.6004 64.0225 56.2592 64.3434 57.8595C64.6643 59.4598 65.4564 60.9298 66.6194 62.0836C67.7825 63.2374 69.2644 64.0231 70.8776 64.3415C72.4909 64.6598 74.1631 64.4964 75.6827 63.872C77.2024 63.2476 78.5012 62.1902 79.4151 60.8335C80.3289 59.4767 80.8166 57.8817 80.8166 56.25C80.814 54.0628 79.937 51.9658 78.3779 50.4192C76.8188 48.8726 74.705 48.0026 72.5001 48ZM72.5001 63C71.1543 63 69.8388 62.6041 68.7198 61.8624C67.6008 61.1207 66.7287 60.0665 66.2136 58.8331C65.6986 57.5997 65.5639 56.2425 65.8264 54.9331C66.089 53.6238 66.737 52.421 67.6887 51.477C68.6403 50.533 69.8527 49.8901 71.1726 49.6297C72.4926 49.3692 73.8607 49.5029 75.1041 50.0138C76.3474 50.5247 77.4101 51.3899 78.1578 52.4999C78.9055 53.6099 79.3045 54.915 79.3045 56.25C79.3023 58.0395 78.5847 59.7552 77.3091 61.0206C76.0335 62.286 74.3041 62.9978 72.5001 63Z" fill="white"/>
<path d="M72.5 54C73.4231 54 74.0121 54.444 74.0121 54.75C74.0121 54.9489 74.0917 55.1397 74.2335 55.2803C74.3753 55.421 74.5676 55.5 74.7681 55.5C74.9686 55.5 75.1609 55.421 75.3027 55.2803C75.4445 55.1397 75.5242 54.9489 75.5242 54.75C75.5242 53.6842 74.5723 52.8218 73.256 52.575V51.75C73.256 51.5511 73.1764 51.3603 73.0346 51.2197C72.8928 51.079 72.7005 51 72.5 51C72.2995 51 72.1072 51.079 71.9654 51.2197C71.8236 51.3603 71.7439 51.5511 71.7439 51.75V52.575C70.4276 52.8203 69.4758 53.6827 69.4758 54.75C69.4758 56.0115 70.8042 57 72.5 57C73.4231 57 74.0121 57.444 74.0121 57.75C74.0121 58.056 73.4231 58.5 72.5 58.5C71.5768 58.5 70.9879 58.056 70.9879 57.75C70.9879 57.5511 70.9082 57.3603 70.7664 57.2197C70.6246 57.079 70.4323 57 70.2318 57C70.0313 57 69.839 57.079 69.6972 57.2197C69.5554 57.3603 69.4758 57.5511 69.4758 57.75C69.4758 58.8157 70.4276 59.6782 71.7439 59.925V60.75C71.7439 60.9489 71.8236 61.1397 71.9654 61.2803C72.1072 61.421 72.2995 61.5 72.5 61.5C72.7005 61.5 72.8928 61.421 73.0346 61.2803C73.1764 61.1397 73.256 60.9489 73.256 60.75V59.925C74.5723 59.6797 75.5242 58.8172 75.5242 57.75C75.5242 56.4885 74.1958 55.5 72.5 55.5C71.5768 55.5 70.9879 55.056 70.9879 54.75C70.9879 54.444 71.5768 54 72.5 54ZM93.4652 57.27C93.4805 57.138 93.488 57.0053 93.4878 56.8725C93.4842 56.185 93.2438 55.5194 92.8065 54.9861C92.3692 54.4527 91.7613 54.0836 91.0836 53.94C90.3172 53.7967 89.5244 53.9468 88.8651 54.3602C88.2057 54.7735 87.7288 55.4193 87.5302 56.1675L84.2036 65.6625C84.1543 65.6819 84.1063 65.7045 84.0599 65.73L77.3765 69.615C76.3538 70.2109 75.5055 71.0613 74.9154 72.0819C74.3254 73.1026 74.014 74.2584 74.0121 75.435V84C73.8116 84 73.6192 84.079 73.4775 84.2197C73.3357 84.3603 73.256 84.5511 73.256 84.75V89.25C73.256 89.4489 73.3357 89.6397 73.4775 89.7803C73.6192 89.921 73.8116 90 74.0121 90H84.5967C84.7972 90 84.9895 89.921 85.1313 89.7803C85.2731 89.6397 85.3528 89.4489 85.3528 89.25V84.75C85.3528 84.5511 85.2731 84.3603 85.1313 84.2197C84.9895 84.079 84.7972 84 84.5967 84V80.85C84.5981 80.5332 84.6661 80.2202 84.7963 79.931C84.9265 79.6417 85.116 79.3825 85.3528 79.17L90.4637 74.6625C91.0227 74.1773 91.4229 73.5374 91.6128 72.825L94.8941 60.6525C94.9641 60.3983 94.9997 60.136 94.9999 59.8725C94.997 59.3432 94.8536 58.8241 94.5842 58.3672C94.3147 57.9104 93.9288 57.5319 93.4652 57.27ZM88.9742 56.61C89.0671 56.2221 89.3038 55.8832 89.6373 55.6608C89.9708 55.4384 90.3765 55.3489 90.7736 55.41C91.1125 55.4804 91.4168 55.664 91.6356 55.9302C91.8544 56.1964 91.9744 56.529 91.9757 56.8725V56.88C91.3 56.895 90.6475 57.1277 90.1169 57.5431C89.5863 57.9585 89.2065 58.534 89.0347 59.1825L86.9254 65.64C86.6073 65.4863 86.2643 65.3898 85.9123 65.355L88.9742 56.61ZM83.8407 88.5H74.7681V85.5H83.8407V88.5ZM93.4349 60.2625L90.1461 72.4425C90.0323 72.8657 89.7957 73.2465 89.4657 73.5375L84.3472 78.045C83.9512 78.3993 83.6342 78.8319 83.4168 79.315C83.1993 79.7981 83.0862 80.3209 83.0846 80.85V84H75.5242V75.435C75.5279 74.5199 75.7709 73.6215 76.2294 72.8275C76.6879 72.0335 77.3463 71.3711 78.1401 70.905L84.816 67.0275C84.9881 66.928 85.1784 66.8632 85.3758 66.8369C85.5732 66.8106 85.774 66.8232 85.9665 66.8741C86.159 66.925 86.3395 67.0131 86.4975 67.1334C86.6556 67.2537 86.7881 67.4037 86.8876 67.575C87.0839 67.9215 87.1381 68.3299 87.0388 68.715C86.9862 68.9052 86.8964 69.0832 86.7745 69.2389C86.6526 69.3947 86.5009 69.525 86.3281 69.6225L81.9959 72.105C81.8314 72.2088 81.7136 72.3716 81.6672 72.5595C81.6208 72.7474 81.6494 72.9458 81.747 73.1133C81.8446 73.2807 82.0036 73.4043 82.1909 73.4582C82.3782 73.5121 82.5792 73.4922 82.752 73.4025L87.0841 70.92C87.4304 70.7251 87.7339 70.4635 87.9767 70.1505C88.2195 69.8375 88.3967 69.4795 88.4979 69.0975C88.7037 68.3301 88.595 67.5131 88.1955 66.825L88.1502 66.7575L90.4863 59.61C90.5791 59.2221 90.8159 58.8832 91.1494 58.6608C91.4829 58.4384 91.8886 58.3488 92.2857 58.41C92.6246 58.4804 92.9289 58.664 93.1477 58.9302C93.3665 59.1964 93.4865 59.529 93.4878 59.8725C93.4904 60.0044 93.4725 60.1359 93.4349 60.2625ZM70.9879 84V75.435C70.9859 74.2584 70.6745 73.1026 70.0845 72.0819C69.4945 71.0613 68.6462 70.2109 67.6235 69.615L60.94 65.7225C60.8946 65.7 60.8417 65.685 60.7964 65.6625L57.4924 56.22C57.2996 55.459 56.8216 54.7996 56.1557 54.376C55.4899 53.9524 54.6864 53.7965 53.9088 53.94C53.2325 54.0853 52.6264 54.455 52.1907 54.9882C51.7549 55.5214 51.5155 56.1861 51.5121 56.8725C51.5119 57.0053 51.5195 57.138 51.5348 57.27C51.0711 57.5319 50.6852 57.9104 50.4158 58.3672C50.1464 58.8241 50.003 59.3432 50 59.8725C50.0015 60.1354 50.0345 60.3973 50.0983 60.6525L53.3871 72.8175C53.575 73.5329 53.9754 74.1757 54.5363 74.6625L59.6396 79.17C59.8788 79.3811 60.0704 79.6398 60.202 79.9292C60.3335 80.2187 60.4021 80.5325 60.4032 80.85V84C60.2027 84 60.0104 84.079 59.8686 84.2197C59.7268 84.3603 59.6472 84.5511 59.6472 84.75V89.25C59.6472 89.4489 59.7268 89.6397 59.8686 89.7803C60.0104 89.921 60.2027 90 60.4032 90H70.9879C71.1884 90 71.3807 89.921 71.5225 89.7803C71.6643 89.6397 71.7439 89.4489 71.7439 89.25V84.75C71.7439 84.5511 71.6643 84.3603 71.5225 84.2197C71.3807 84.079 71.1884 84 70.9879 84ZM53.0242 56.8725C53.0251 56.5301 53.1441 56.1983 53.3614 55.9322C53.5787 55.6662 53.8813 55.4819 54.2187 55.41C54.6269 55.3505 55.0425 55.4467 55.382 55.6791C55.7215 55.9115 55.9596 56.2629 56.0484 56.6625L59.0877 65.355C58.9375 65.3659 58.7883 65.3885 58.6416 65.4225C58.4457 65.476 58.2558 65.5488 58.0746 65.64L55.9803 59.22C55.8099 58.5654 55.4292 57.9837 54.8958 57.5629C54.3625 57.142 53.7055 56.905 53.0242 56.8875V56.8725ZM60.6451 78.045L55.5343 73.5375C55.2024 73.2449 54.9656 72.8612 54.8538 72.435L51.565 60.2625C51.5274 60.1359 51.5095 60.0044 51.5121 59.8725C51.513 59.5301 51.632 59.1983 51.8493 58.9322C52.0666 58.6662 52.3692 58.4819 52.7067 58.41C53.1116 58.3511 53.524 58.4458 53.8617 58.6752C54.1994 58.9045 54.4376 59.2517 54.5287 59.6475L56.8498 66.7575C56.8373 66.7817 56.8221 66.8043 56.8044 66.825C56.4047 67.5143 56.2973 68.3328 56.5057 69.1007C56.7141 69.8686 57.2213 70.5229 57.9158 70.92L62.248 73.4025C62.4208 73.4922 62.6218 73.5121 62.8091 73.4582C62.9963 73.4043 63.1554 73.2807 63.253 73.1133C63.3506 72.9458 63.3791 72.7474 63.3328 72.5595C63.2864 72.3716 63.1686 72.2088 63.004 72.105L58.6719 69.6225C58.4996 69.5245 58.3485 69.3938 58.2271 69.2379C58.1058 69.0819 58.0166 68.9038 57.9646 68.7137C57.9127 68.5236 57.899 68.3251 57.9243 68.1298C57.9497 67.9344 58.0136 67.7459 58.1124 67.575C58.3144 67.2326 58.6439 66.9825 59.03 66.8787C59.416 66.7749 59.8277 66.8257 60.1764 67.02L66.8599 70.905C67.6537 71.3711 68.312 72.0335 68.7705 72.8275C69.229 73.6215 69.472 74.5199 69.4758 75.435V84H61.9153V80.85C61.914 80.3202 61.8002 79.7966 61.5814 79.3133C61.3626 78.83 61.0435 78.3979 60.6451 78.045ZM70.2318 88.5H61.1593V85.5H70.2318V88.5Z" fill="white"/>
<defs>
<filter id="filter0_d_2_6516" x="0" y="0" width="145" height="145" filterUnits="userSpaceOnUse" color-interpolation-filters="sRGB">
<feFlood flood-opacity="0" result="BackgroundImageFix"/>
<feColorMatrix in="SourceAlpha" type="matrix" values="0 0 0 0 0 0 0 0 0 0 0 0 0 0 0 0 0 0 127 0" result="hardAlpha"/>
<feOffset dy="5"/>
<feGaussianBlur stdDeviation="15"/>
<feComposite in2="hardAlpha" operator="out"/>
<feColorMatrix type="matrix" values="0 0 0 0 0.290196 0 0 0 0 0.670588 0 0 0 0 0.239216 0 0 0 0.4 0"/>
<feBlend mode="normal" in2="BackgroundImageFix" result="effect1_dropShadow_2_6516"/>
<feBlend mode="normal" in="SourceGraphic" in2="effect1_dropShadow_2_6516" result="shape"/>
</filter>
</defs>
</svg>
