<svg width="100" height="20" viewBox="0 0 100 20" fill="none" xmlns="http://www.w3.org/2000/svg">
<path d="M89.4199 1.76685C89.6011 1.38729 90.1413 1.38729 90.3224 1.76685L92.398 6.11641C92.4708 6.26916 92.6161 6.37467 92.7839 6.39679L97.5619 7.02663C97.9789 7.08159 98.1458 7.59543 97.8408 7.88497L94.3455 11.203C94.2227 11.3195 94.1673 11.4902 94.1981 11.6567L95.0756 16.3955C95.1521 16.809 94.7151 17.1266 94.3454 16.926L90.1097 14.627C89.9609 14.5463 89.7814 14.5463 89.6327 14.627L85.397 16.926C85.0273 17.1266 84.5902 16.809 84.6668 16.3955L85.5443 11.6567C85.5751 11.4902 85.5196 11.3195 85.3969 11.203L81.9016 7.88497C81.5966 7.59543 81.7635 7.08159 82.1805 7.02663L86.9585 6.39679C87.1263 6.37467 87.2715 6.26916 87.3444 6.11641L89.4199 1.76685Z" fill="url(#paint0_linear_1_484)"/>
<path d="M9.10836 1.72815C9.29186 1.35685 9.82136 1.35685 10.0049 1.72815L12.1758 6.12074C12.25 6.27099 12.3946 6.37405 12.5609 6.39521L17.5284 7.02745C17.9507 7.08119 18.117 7.60441 17.8031 7.89205L14.1927 11.2012C14.0648 11.3184 14.0068 11.4936 14.0394 11.664L14.9492 16.4075C15.028 16.8186 14.5969 17.1388 14.226 16.9445L9.78869 14.6192C9.64334 14.543 9.46988 14.543 9.32453 14.6192L4.88719 16.9445C4.51636 17.1388 4.0852 16.8186 4.16406 16.4075L5.07378 11.664C5.10646 11.4936 5.04847 11.3184 4.92056 11.2012L1.31009 7.89205C0.996263 7.60441 1.16251 7.08119 1.5848 7.02745L6.55235 6.39521C6.71861 6.37405 6.86321 6.27099 6.93746 6.12074L9.10836 1.72815Z" fill="url(#paint1_linear_1_484)"/>
<path d="M29.1018 1.76685C29.2829 1.38729 29.8232 1.38729 30.0043 1.76685L32.0798 6.11641C32.1527 6.26916 32.2979 6.37467 32.4657 6.39679L37.2437 7.02663C37.6607 7.08159 37.8276 7.59543 37.5226 7.88497L34.0273 11.203C33.9046 11.3195 33.8491 11.4902 33.8799 11.6567L34.7574 16.3955C34.834 16.809 34.3969 17.1266 34.0272 16.926L29.7915 14.627C29.6428 14.5463 29.4633 14.5463 29.3145 14.627L25.0788 16.926C24.7092 17.1266 24.2721 16.809 24.3486 16.3955L25.2261 11.6567C25.2569 11.4902 25.2015 11.3195 25.0787 11.203L21.5834 7.88497C21.2784 7.59543 21.4453 7.08159 21.8623 7.02663L26.6403 6.39679C26.8081 6.37467 26.9534 6.26916 27.0263 6.11641L29.1018 1.76685Z" fill="url(#paint2_linear_1_484)"/>
<path d="M69.4267 1.72815C69.6102 1.35685 70.1397 1.35685 70.3232 1.72815L72.4941 6.12074C72.5684 6.27099 72.713 6.37405 72.8792 6.39521L77.8468 7.02745C78.2691 7.08119 78.4353 7.60441 78.1215 7.89205L74.511 11.2012C74.3831 11.3184 74.3251 11.4936 74.3578 11.664L75.2675 16.4075C75.3464 16.8186 74.9152 17.1388 74.5444 16.9445L70.107 14.6192C69.9617 14.543 69.7882 14.543 69.6429 14.6192L65.2055 16.9445C64.8347 17.1388 64.4036 16.8186 64.4824 16.4075L65.3921 11.664C65.4248 11.4936 65.3668 11.3184 65.2389 11.2012L61.6284 7.89205C61.3146 7.60441 61.4809 7.08119 61.9032 7.02745L66.8707 6.39521C67.037 6.37405 67.1816 6.27099 67.2558 6.12074L69.4267 1.72815Z" fill="url(#paint3_linear_1_484)"/>
<path d="M49.1017 1.72815C49.2852 1.35685 49.8147 1.35685 49.9982 1.72815L52.1691 6.12074C52.2434 6.27099 52.388 6.37405 52.5543 6.39521L57.5218 7.02745C57.9441 7.08119 58.1103 7.60441 57.7965 7.89205L54.186 11.2012C54.0581 11.3184 54.0001 11.4936 54.0328 11.664L54.9425 16.4075C55.0214 16.8186 54.5902 17.1388 54.2194 16.9445L49.7821 14.6192C49.6367 14.543 49.4633 14.543 49.3179 14.6192L44.8806 16.9445C44.5097 17.1388 44.0786 16.8186 44.1574 16.4075L45.0672 11.664C45.0998 11.4936 45.0418 11.3184 44.9139 11.2012L41.3035 7.89205C40.9896 7.60441 41.1559 7.08119 41.5782 7.02745L46.5457 6.39521C46.712 6.37405 46.8566 6.27099 46.9308 6.12074L49.1017 1.72815Z" fill="url(#paint4_linear_1_484)"/>
<defs>
<linearGradient id="paint0_linear_1_484" x1="89.8712" y1="0.821167" x2="89.8712" y2="19.1788" gradientUnits="userSpaceOnUse">
<stop offset="0.0985536" stop-color="#FFA364"/>
<stop offset="0.788912" stop-color="#FFC112"/>
</linearGradient>
<linearGradient id="paint1_linear_1_484" x1="9.55661" y1="0.821167" x2="9.55661" y2="19.1788" gradientUnits="userSpaceOnUse">
<stop offset="0.0985536" stop-color="#FFA364"/>
<stop offset="0.788912" stop-color="#FFC112"/>
</linearGradient>
<linearGradient id="paint2_linear_1_484" x1="29.553" y1="0.821167" x2="29.553" y2="19.1788" gradientUnits="userSpaceOnUse">
<stop offset="0.0985536" stop-color="#FFA364"/>
<stop offset="0.788912" stop-color="#FFC112"/>
</linearGradient>
<linearGradient id="paint3_linear_1_484" x1="69.875" y1="0.821167" x2="69.875" y2="19.1788" gradientUnits="userSpaceOnUse">
<stop offset="0.0985536" stop-color="#FFA364"/>
<stop offset="0.788912" stop-color="#FFC112"/>
</linearGradient>
<linearGradient id="paint4_linear_1_484" x1="49.55" y1="0.821167" x2="49.55" y2="19.1788" gradientUnits="userSpaceOnUse">
<stop offset="0.0985536" stop-color="#FFA364"/>
<stop offset="0.788912" stop-color="#FFC112"/>
</linearGradient>
</defs>
</svg>
