<svg width="25" height="25" viewBox="0 0 25 25" fill="none" xmlns="http://www.w3.org/2000/svg">
<path fill-rule="evenodd" clip-rule="evenodd" d="M16.2125 3.07264C14.2525 2.19935 12.0628 1.98299 9.9699 2.45583C7.87698 2.92867 5.99296 4.06537 4.59883 5.69642C3.20469 7.32746 2.37514 9.36546 2.23387 11.5065C2.0926 13.6475 2.64719 15.7768 3.81494 17.5769C4.98268 19.377 6.70101 20.7514 8.71367 21.4951C10.7263 22.2388 12.9255 22.3121 14.9831 21.7039C17.0408 21.0956 18.8468 19.8386 20.1317 18.1202C21.4165 16.4018 22.1116 14.3141 22.113 12.1684V11.1512C22.113 10.858 22.2295 10.5768 22.4368 10.3695C22.6442 10.1621 22.9254 10.0456 23.2186 10.0456C23.5118 10.0456 23.7931 10.1621 24.0004 10.3695C24.2077 10.5768 24.3242 10.858 24.3242 11.1512V12.1684C24.3227 14.1278 23.848 16.0578 22.9403 17.7942C22.0326 19.5307 20.7188 21.0222 19.1108 22.1417C17.5028 23.2613 15.6482 23.9759 13.7046 24.2246C11.7611 24.4734 9.78625 24.2489 7.94811 23.5704C6.41852 23.0055 5.01814 22.1387 3.83027 21.0217C2.6424 19.9047 1.69128 18.5602 1.03349 17.0681C0.375698 15.5761 0.0246602 13.967 0.0012532 12.3366C-0.0221538 10.7062 0.282548 9.08774 0.897237 7.57745C1.51193 6.06716 2.42405 4.69591 3.57937 3.54523C4.73469 2.39456 6.1096 1.48796 7.62235 0.879359C9.1351 0.270755 10.7548 -0.027428 12.3851 0.00254296C14.0154 0.0325139 15.623 0.390027 17.1124 1.05382C17.245 1.11291 17.3647 1.19755 17.4646 1.3029C17.5646 1.40825 17.6428 1.53225 17.6948 1.66781C17.7468 1.80338 17.7715 1.94786 17.7677 2.09301C17.7639 2.23816 17.7315 2.38113 17.6724 2.51376C17.6133 2.64639 17.5287 2.76608 17.4233 2.866C17.318 2.96593 17.194 3.04412 17.0584 3.09612C16.9228 3.14812 16.7783 3.1729 16.6332 3.16907C16.4881 3.16523 16.3451 3.13173 16.2125 3.07264Z" fill="#1DBFFF"/>
<path fill-rule="evenodd" clip-rule="evenodd" d="M24.0003 2.54197C24.2076 2.7493 24.324 3.03046 24.324 3.32362C24.324 3.61679 24.2076 3.89795 24.0003 4.10528L12.9443 15.1723C12.737 15.3796 12.4558 15.496 12.1627 15.496C11.8695 15.496 11.5883 15.3796 11.381 15.1723L8.06421 11.8555C7.95861 11.7535 7.87439 11.6315 7.81644 11.4966C7.7585 11.3618 7.728 11.2167 7.72673 11.0699C7.72545 10.9231 7.75342 10.7775 7.80901 10.6416C7.86461 10.5057 7.9467 10.3823 8.05051 10.2785C8.15431 10.1747 8.27776 10.0926 8.41363 10.037C8.5495 9.98141 8.69509 9.95344 8.84189 9.95471C8.98869 9.95599 9.13376 9.98649 9.26865 10.0444C9.40354 10.1024 9.52554 10.1866 9.62752 10.2922L12.1627 12.8262L22.437 2.54197C22.6443 2.3347 22.9255 2.21826 23.2186 2.21826C23.5118 2.21826 23.793 2.3347 24.0003 2.54197Z" fill="#1DBFFF"/>
</svg>
