<svg width="45" height="45" viewBox="0 0 45 45" fill="none" xmlns="http://www.w3.org/2000/svg">
<path d="M19.6869 29.5275C18.5681 29.5275 17.4951 29.972 16.7039 30.7631C15.9128 31.5543 15.4683 32.6273 15.4683 33.7462C15.4683 34.865 15.9128 35.938 16.7039 36.7292C17.4951 37.5203 18.5681 37.9648 19.6869 37.9648C20.8058 37.9648 21.8788 37.5203 22.6699 36.7292C23.4611 35.938 23.9055 34.865 23.9055 33.7462C23.9055 32.6273 23.4611 31.5543 22.6699 30.7631C21.8788 29.972 20.8058 29.5275 19.6869 29.5275ZM16.8745 33.7462C16.8745 33.1899 17.0395 32.6462 17.3485 32.1837C17.6575 31.7212 18.0968 31.3607 18.6107 31.1478C19.1246 30.935 19.6901 30.8793 20.2356 30.9878C20.7812 31.0963 21.2823 31.3642 21.6756 31.7575C22.0689 32.1508 22.3368 32.6519 22.4453 33.1975C22.5538 33.743 22.4981 34.3085 22.2853 34.8224C22.0724 35.3363 21.7119 35.7755 21.2494 36.0846C20.7869 36.3936 20.2432 36.5586 19.6869 36.5586C18.941 36.5586 18.2257 36.2623 17.6983 35.7348C17.1708 35.2074 16.8745 34.492 16.8745 33.7462ZM22.4993 14.7624H23.2024C23.3889 14.7624 23.5678 14.6883 23.6996 14.5565C23.8315 14.4246 23.9055 14.2458 23.9055 14.0593C23.9055 13.8728 23.8315 13.694 23.6996 13.5621C23.5678 13.4303 23.3889 13.3562 23.2024 13.3562H22.4993C22.3129 13.3562 22.134 13.4303 22.0022 13.5621C21.8703 13.694 21.7962 13.8728 21.7962 14.0593C21.7962 14.2458 21.8703 14.4246 22.0022 14.5565C22.134 14.6883 22.3129 14.7624 22.4993 14.7624ZM16.8745 13.3562H16.1714C15.985 13.3562 15.8061 13.4303 15.6743 13.5621C15.5424 13.694 15.4683 13.8728 15.4683 14.0593C15.4683 14.2458 15.5424 14.4246 15.6743 14.5565C15.8061 14.6883 15.985 14.7624 16.1714 14.7624H16.8745C17.061 14.7624 17.2398 14.6883 17.3717 14.5565C17.5036 14.4246 17.5776 14.2458 17.5776 14.0593C17.5776 13.8728 17.5036 13.694 17.3717 13.5621C17.2398 13.4303 17.061 13.3562 16.8745 13.3562Z" fill="white"/>
<path d="M44.9092 25.6676L38.5813 14.4179C38.5201 14.309 38.431 14.2184 38.3231 14.1554C38.2152 14.0923 38.0925 14.0592 37.9675 14.0594C37.8426 14.0595 37.7199 14.0929 37.6121 14.1562C37.5043 14.2194 37.4154 14.3103 37.3544 14.4194L32.8349 22.4966H31.4427L33.654 18.6295C33.7164 18.5204 33.7485 18.3966 33.7468 18.2709C33.7468 18.1381 33.7152 17.7085 33.7116 17.6916C33.5155 13.5243 31.847 9.15804 28.7119 4.69897C27.6957 3.24783 26.3446 2.06306 24.7732 1.24508C23.2018 0.427091 21.4563 0 19.6848 0C17.9132 0 16.1677 0.427091 14.5963 1.24508C13.0249 2.06306 11.6738 3.24783 10.6576 4.69897C7.52321 9.15664 5.85334 13.5236 5.65718 17.6902C5.65718 17.712 5.62413 18.1352 5.62273 18.2681C5.62084 18.3937 5.65265 18.5176 5.71483 18.6267L7.92609 22.4966H5.01665C4.72783 22.4966 4.44209 22.556 4.17714 22.671C3.91219 22.7859 3.67368 22.9541 3.47639 23.165C3.27909 23.376 3.12722 23.6252 3.03019 23.8972C2.93315 24.1693 2.89302 24.4583 2.91227 24.7465L3.19 28.9159L0.588519 34.4416C0.201417 35.2699 0.00053978 36.173 2.29788e-05 37.0873C-0.00220314 37.9034 0.157337 38.7118 0.469422 39.4658C0.781507 40.2199 1.23995 40.9045 1.81824 41.4803L4.18559 43.8498L4.21793 44.342C4.23042 44.5199 4.31006 44.6864 4.44074 44.8078C4.57142 44.9293 4.74336 44.9965 4.92173 44.9958H34.452C34.6307 44.9962 34.8029 44.9286 34.9335 44.8066C35.0641 44.6846 35.1433 44.5175 35.1551 44.3391L35.1882 43.847L37.5506 41.4803C38.1299 40.905 38.5893 40.2206 38.9023 39.4665C39.2152 38.7124 39.3755 37.9038 39.3737 37.0873C39.3727 36.1727 39.1706 35.2695 38.7817 34.4416L36.1859 28.9257L36.1816 28.9187L36.3265 26.7152H44.2954C44.4182 26.7152 44.5388 26.6831 44.6453 26.6221C44.7518 26.561 44.8404 26.4732 44.9024 26.3672C44.9645 26.2613 44.9976 26.141 44.9987 26.0182C44.9998 25.8955 44.9694 25.7746 44.9092 25.6676ZM29.8235 22.4966H23.9111C24.6762 21.928 25.3183 21.2104 25.7988 20.387C26.2792 19.5636 26.588 18.6515 26.7066 17.7057L27.1939 13.8091C30.1715 14.8391 32.0362 16.4105 32.3265 17.9208C32.3265 17.9799 32.3378 18.0396 32.3392 18.098L29.8235 22.4966ZM14.0621 17.5313L13.9798 16.8718H17.5776C17.7164 16.8716 17.8521 16.8305 17.9678 16.7537L19.6869 15.6062L21.406 16.7522C21.5215 16.8296 21.6572 16.8711 21.7962 16.8718H25.3939L25.3117 17.5313C25.1406 18.9025 24.4746 20.164 23.4388 21.0786C22.403 21.9933 21.0687 22.498 19.6869 22.498C18.305 22.498 16.9708 21.9933 15.935 21.0786C14.8991 20.164 14.2331 18.9025 14.0621 17.5313ZM25.5697 15.4656H22.0071L20.075 14.1775C19.9594 14.1004 19.8237 14.0593 19.6848 14.0593C19.5459 14.0593 19.4101 14.1004 19.2945 14.1775L17.3666 15.4656H13.804L13.546 13.4027C15.5538 12.8985 17.6167 12.6467 19.6869 12.6532C21.758 12.6391 23.8226 12.8877 25.8313 13.3928L25.5697 15.4656ZM11.8072 5.50473C12.6938 4.23825 13.8727 3.20422 15.244 2.4903C16.6152 1.77638 18.1384 1.40362 19.6844 1.40362C21.2304 1.40362 22.7536 1.77638 24.1248 2.4903C25.4961 3.20422 26.675 4.23825 27.5616 5.50473C29.6104 8.2878 31.0897 11.448 31.9145 14.804C29.4888 12.6602 24.9348 11.247 19.6869 11.247C14.4389 11.247 9.88212 12.6532 7.45993 14.7829C8.28601 11.4348 9.76319 8.28213 11.8072 5.50473ZM7.03104 18.098C7.03104 18.0382 7.04159 17.9778 7.0437 17.918C7.3397 16.2516 9.32034 14.7695 12.1763 13.8048L12.6643 17.7057C12.7832 18.6517 13.0925 19.564 13.5734 20.3874C14.0543 21.2107 14.697 21.9282 15.4626 22.4966H9.54603L7.03104 18.098ZM2.81243 40.4883C2.36481 40.0425 2.01005 39.5124 1.76867 38.9287C1.5273 38.3449 1.4041 37.719 1.40623 37.0873C1.40723 36.3796 1.56347 35.6807 1.86395 35.0399L3.38475 31.8057L4.04567 41.7194L2.81243 40.4883ZM37.5077 35.0406C37.8087 35.6811 37.9657 36.3797 37.9675 37.0873C37.9697 37.7191 37.8465 38.3449 37.6051 38.9287C37.3637 39.5125 37.009 40.0425 36.5613 40.4883L35.3309 41.7194L35.9918 31.8057L37.5077 35.0406ZM33.7918 43.5896H5.57703L4.31144 24.6523C4.30508 24.5561 4.31856 24.4597 4.35103 24.369C4.38351 24.2782 4.43429 24.1951 4.50022 24.1249C4.56616 24.0546 4.64584 23.9986 4.73431 23.9604C4.82279 23.9222 4.91817 23.9026 5.01454 23.9028H32.0495L31.0617 25.669C31.0018 25.7759 30.971 25.8967 30.9723 26.0192C30.9735 26.1418 31.0068 26.2619 31.0687 26.3676C31.1307 26.4733 31.2192 26.561 31.3255 26.622C31.4318 26.683 31.5522 26.7151 31.6748 26.7152H34.9175L33.7918 43.5896ZM32.8735 25.309L37.9675 16.1996L43.0938 25.309H32.8735Z" fill="white"/>
<path d="M37.2644 18.2781V21.0905C37.2644 21.2769 37.3385 21.4558 37.4703 21.5876C37.6022 21.7195 37.781 21.7936 37.9675 21.7936C38.154 21.7936 38.3328 21.7195 38.4647 21.5876C38.5965 21.4558 38.6706 21.2769 38.6706 21.0905V18.2781C38.6706 18.0916 38.5965 17.9127 38.4647 17.7809C38.3328 17.649 38.154 17.575 37.9675 17.575C37.781 17.575 37.6022 17.649 37.4703 17.7809C37.3385 17.9127 37.2644 18.0916 37.2644 18.2781Z" fill="white"/>
<path d="M37.9675 24.6059C38.3558 24.6059 38.6706 24.2911 38.6706 23.9028C38.6706 23.5145 38.3558 23.1997 37.9675 23.1997C37.5792 23.1997 37.2644 23.5145 37.2644 23.9028C37.2644 24.2911 37.5792 24.6059 37.9675 24.6059Z" fill="white"/>
</svg>
