<svg width="48" height="45" viewBox="0 0 48 45" fill="none" xmlns="http://www.w3.org/2000/svg">
<path d="M21.4286 30.2885H12.3549L10.0346 27.9459C9.87386 27.7836 9.65588 27.6924 9.42857 27.6923H0.857143C0.629814 27.6923 0.411797 27.7835 0.251051 27.9458C0.090306 28.1081 0 28.3282 0 28.5577V44.1346C0 44.3641 0.090306 44.5842 0.251051 44.7465C0.411797 44.9088 0.629814 45 0.857143 45H21.4286C21.6559 45 21.8739 44.9088 22.0347 44.7465C22.1954 44.5842 22.2857 44.3641 22.2857 44.1346V31.1538C22.2857 30.9243 22.1954 30.7042 22.0347 30.5419C21.8739 30.3796 21.6559 30.2885 21.4286 30.2885ZM20.5714 43.2692H1.71429V29.4231H9.07372L11.394 31.7657C11.5547 31.928 11.7727 32.0192 12 32.0192H20.5714V43.2692ZM8.57143 31.1538C8.57143 31.3834 8.48112 31.6035 8.32038 31.7658C8.15963 31.9281 7.94161 32.0192 7.71429 32.0192H4.28571C4.05839 32.0192 3.84037 31.9281 3.67962 31.7658C3.51888 31.6035 3.42857 31.3834 3.42857 31.1538C3.42857 30.9243 3.51888 30.7042 3.67962 30.5419C3.84037 30.3796 4.05839 30.2885 4.28571 30.2885H7.71429C7.94161 30.2885 8.15963 30.3796 8.32038 30.5419C8.48112 30.7042 8.57143 30.9243 8.57143 31.1538ZM47.1429 30.2885H38.0691L35.7489 27.9459C35.5882 27.7836 35.3702 27.6924 35.1429 27.6923H26.5714C26.3441 27.6923 26.1261 27.7835 25.9653 27.9458C25.8046 28.1081 25.7143 28.3282 25.7143 28.5577V44.1346C25.7143 44.3641 25.8046 44.5842 25.9653 44.7465C26.1261 44.9088 26.3441 45 26.5714 45H47.1429C47.3702 45 47.5882 44.9088 47.749 44.7465C47.9097 44.5842 48 44.3641 48 44.1346V31.1538C48 30.9243 47.9097 30.7042 47.749 30.5419C47.5882 30.3796 47.3702 30.2885 47.1429 30.2885ZM46.2857 43.2692H27.4286V29.4231H34.788L37.1083 31.7657C37.269 31.928 37.487 32.0192 37.7143 32.0192H46.2857V43.2692ZM34.2857 31.1538C34.2857 31.3834 34.1954 31.6035 34.0347 31.7658C33.8739 31.9281 33.6559 32.0192 33.4286 32.0192H30C29.7727 32.0192 29.5547 31.9281 29.3939 31.7658C29.2332 31.6035 29.1429 31.3834 29.1429 31.1538C29.1429 30.9243 29.2332 30.7042 29.3939 30.5419C29.5547 30.3796 29.7727 30.2885 30 30.2885H33.4286C33.6559 30.2885 33.8739 30.3796 34.0347 30.5419C34.1954 30.7042 34.2857 30.9243 34.2857 31.1538ZM8.57143 12.1154H39.4286C39.6559 12.1154 39.8739 12.0242 40.0347 11.8619C40.1954 11.6996 40.2857 11.4795 40.2857 11.25V0.865385C40.2857 0.63587 40.1954 0.415757 40.0347 0.253465C39.8739 0.0911744 39.6559 0 39.4286 0H8.57143C8.3441 0 8.12608 0.0911744 7.96534 0.253465C7.80459 0.415757 7.71429 0.63587 7.71429 0.865385V11.25C7.71429 11.4795 7.80459 11.6996 7.96534 11.8619C8.12608 12.0242 8.3441 12.1154 8.57143 12.1154ZM9.42857 1.73077H38.5714V10.3846H9.42857V1.73077ZM13.7143 3.46154C13.2057 3.46154 12.7085 3.6138 12.2857 3.89907C11.8628 4.18434 11.5332 4.5898 11.3386 5.06419C11.144 5.53857 11.093 6.06057 11.1923 6.56418C11.2915 7.06778 11.5364 7.53037 11.896 7.89345C12.2556 8.25653 12.7138 8.50379 13.2126 8.60396C13.7114 8.70413 14.2285 8.65272 14.6983 8.45623C15.1682 8.25973 15.5698 7.92697 15.8524 7.50004C16.1349 7.0731 16.2857 6.57116 16.2857 6.05769C16.285 5.36936 16.0139 4.70942 15.5318 4.22269C15.0497 3.73597 14.3961 3.46223 13.7143 3.46154ZM13.7143 6.92308C13.5448 6.92308 13.379 6.87232 13.2381 6.77723C13.0971 6.68214 12.9873 6.54699 12.9224 6.38886C12.8575 6.23073 12.8405 6.05673 12.8736 5.88886C12.9067 5.721 12.9883 5.5668 13.1082 5.44577C13.2281 5.32475 13.3808 5.24233 13.5471 5.20894C13.7133 5.17554 13.8857 5.19268 14.0423 5.25818C14.1989 5.32368 14.3328 5.4346 14.427 5.57691C14.5212 5.71922 14.5714 5.88654 14.5714 6.05769C14.5712 6.28714 14.4808 6.50712 14.3201 6.66936C14.1594 6.8316 13.9415 6.92285 13.7143 6.92308ZM19.7143 3.46154C19.2057 3.46154 18.7085 3.6138 18.2857 3.89907C17.8628 4.18434 17.5332 4.5898 17.3386 5.06419C17.144 5.53857 17.093 6.06057 17.1923 6.56418C17.2915 7.06778 17.5364 7.53037 17.896 7.89345C18.2556 8.25653 18.7138 8.50379 19.2126 8.60396C19.7114 8.70413 20.2285 8.65272 20.6983 8.45623C21.1682 8.25973 21.5698 7.92697 21.8524 7.50004C22.1349 7.0731 22.2857 6.57116 22.2857 6.05769C22.285 5.36936 22.0139 4.70942 21.5318 4.22269C21.0497 3.73597 20.3961 3.46223 19.7143 3.46154ZM19.7143 6.92308C19.5448 6.92308 19.379 6.87232 19.2381 6.77723C19.0971 6.68214 18.9873 6.54699 18.9224 6.38886C18.8575 6.23073 18.8405 6.05673 18.8736 5.88886C18.9067 5.721 18.9883 5.5668 19.1082 5.44577C19.2281 5.32475 19.3808 5.24233 19.5471 5.20894C19.7133 5.17554 19.8857 5.19268 20.0423 5.25818C20.1989 5.32368 20.3328 5.4346 20.427 5.57691C20.5212 5.71922 20.5714 5.88654 20.5714 6.05769C20.5712 6.28714 20.4808 6.50712 20.3201 6.66936C20.1594 6.8316 19.9415 6.92285 19.7143 6.92308ZM36.8571 25.0962V20.7692H12.8571V25.0962C12.8571 25.3257 12.7668 25.5458 12.6061 25.7081C12.4453 25.8704 12.2273 25.9615 12 25.9615C11.7727 25.9615 11.5547 25.8704 11.3939 25.7081C11.2332 25.5458 11.1429 25.3257 11.1429 25.0962V19.9038C11.1429 19.6743 11.2332 19.4542 11.3939 19.2919C11.5547 19.1296 11.7727 19.0385 12 19.0385H23.1429V14.7115C23.1429 14.482 23.2332 14.2619 23.3939 14.0996C23.5547 13.9373 23.7727 13.8462 24 13.8462C24.2273 13.8462 24.4453 13.9373 24.6061 14.0996C24.7668 14.2619 24.8571 14.482 24.8571 14.7115V19.0385H37.7143C37.9416 19.0385 38.1596 19.1296 38.3204 19.2919C38.4811 19.4542 38.5714 19.6743 38.5714 19.9038V25.0962C38.5714 25.3257 38.4811 25.5458 38.3204 25.7081C38.1596 25.8704 37.9416 25.9615 37.7143 25.9615C37.487 25.9615 37.2689 25.8704 37.1082 25.7081C36.9474 25.5458 36.8571 25.3257 36.8571 25.0962ZM36 3.46154H28.2857C28.0584 3.46154 27.8404 3.55271 27.6796 3.715C27.5189 3.8773 27.4286 4.09741 27.4286 4.32692V7.78846C27.4286 8.01798 27.5189 8.23809 27.6796 8.40038C27.8404 8.56267 28.0584 8.65385 28.2857 8.65385H36C36.2273 8.65385 36.4453 8.56267 36.6061 8.40038C36.7668 8.23809 36.8571 8.01798 36.8571 7.78846V4.32692C36.8571 4.09741 36.7668 3.8773 36.6061 3.715C36.4453 3.55271 36.2273 3.46154 36 3.46154ZM35.1429 6.92308H29.1429V5.19231H35.1429V6.92308Z" fill="white"/>
</svg>
