<svg width="29" height="45" viewBox="0 0 29 45" fill="none" xmlns="http://www.w3.org/2000/svg">
<path d="M24.5255 0H3.89393C2.91717 0.00115248 1.98076 0.383866 1.29009 1.06419C0.599419 1.74452 0.210887 2.66691 0.209717 3.62903V41.371C0.210887 42.3331 0.599419 43.2555 1.29009 43.9358C1.98076 44.6161 2.91717 44.9988 3.89393 45H24.5255C25.5023 44.9988 26.4387 44.6161 27.1293 43.9358C27.82 43.2555 28.2085 42.3331 28.2097 41.371V3.62903C28.2085 2.66691 27.82 1.74452 27.1293 1.06419C26.4387 0.383866 25.5023 0.00115248 24.5255 0ZM3.89393 1.45161H24.5255C25.1116 1.45219 25.6735 1.68178 26.0879 2.09C26.5024 2.49822 26.7354 3.05172 26.736 3.62903V36.2903H1.6834V3.62903C1.68399 3.05172 1.91707 2.49822 2.3315 2.09C2.74592 1.68178 3.30784 1.45219 3.89393 1.45161ZM26.736 41.371C26.7354 41.9483 26.5024 42.5018 26.0879 42.91C25.6735 43.3182 25.1116 43.5478 24.5255 43.5484H3.89393C3.30784 43.5478 2.74592 43.3182 2.3315 42.91C1.91707 42.5018 1.68399 41.9483 1.6834 41.371V37.7419H26.736V41.371Z" fill="white"/>
<path d="M14.2097 42.8227C14.6469 42.8227 15.0743 42.695 15.4378 42.4557C15.8014 42.2165 16.0847 41.8764 16.252 41.4785C16.4193 41.0806 16.4631 40.6428 16.3778 40.2205C16.2925 39.7981 16.082 39.4101 15.7728 39.1056C15.4637 38.8011 15.0698 38.5937 14.641 38.5097C14.2122 38.4257 13.7677 38.4688 13.3638 38.6336C12.9599 38.7984 12.6147 39.0775 12.3718 39.4355C12.1289 39.7936 11.9992 40.2146 11.9992 40.6453C11.9998 41.2226 12.2329 41.7761 12.6473 42.1843C13.0617 42.5925 13.6237 42.8221 14.2097 42.8227ZM14.2097 39.9194C14.3555 39.9194 14.4979 39.962 14.6191 40.0418C14.7403 40.1215 14.8347 40.2349 14.8905 40.3675C14.9463 40.5001 14.9609 40.6461 14.9324 40.7869C14.904 40.9276 14.8338 41.057 14.7308 41.1585C14.6277 41.26 14.4964 41.3291 14.3535 41.3571C14.2106 41.3851 14.0624 41.3707 13.9278 41.3158C13.7931 41.2609 13.678 41.1678 13.5971 41.0485C13.5161 40.9291 13.4729 40.7888 13.4729 40.6453C13.4729 40.4528 13.5505 40.2681 13.6887 40.132C13.8269 39.9959 14.0143 39.9194 14.2097 39.9194ZM20.1045 41.3711H23.0519C23.2473 41.3711 23.4347 41.2946 23.5729 41.1585C23.7111 41.0224 23.7887 40.8377 23.7887 40.6453C23.7887 40.4528 23.7111 40.2681 23.5729 40.132C23.4347 39.9959 23.2473 39.9194 23.0519 39.9194H20.1045C19.9091 39.9194 19.7216 39.9959 19.5835 40.132C19.4453 40.2681 19.3676 40.4528 19.3676 40.6453C19.3676 40.8377 19.4453 41.0224 19.5835 41.1585C19.7216 41.2946 19.9091 41.3711 20.1045 41.3711ZM5.36764 41.3711H8.31501C8.51043 41.3711 8.69785 41.2946 8.83604 41.1585C8.97422 41.0224 9.05185 40.8377 9.05185 40.6453C9.05185 40.4528 8.97422 40.2681 8.83604 40.132C8.69785 39.9959 8.51043 39.9194 8.31501 39.9194H5.36764C5.17222 39.9194 4.9848 39.9959 4.84661 40.132C4.70843 40.2681 4.6308 40.4528 4.6308 40.6453C4.6308 40.8377 4.70843 41.0224 4.84661 41.1585C4.9848 41.2946 5.17222 41.3711 5.36764 41.3711ZM11.2624 4.35493H17.1571C17.3525 4.35493 17.54 4.27846 17.6781 4.14235C17.8163 4.00623 17.894 3.82162 17.894 3.62913C17.894 3.43663 17.8163 3.25202 17.6781 3.1159C17.54 2.97979 17.3525 2.90332 17.1571 2.90332H11.2624C11.067 2.90332 10.8795 2.97979 10.7414 3.1159C10.6032 3.25202 10.5255 3.43663 10.5255 3.62913C10.5255 3.82162 10.6032 4.00623 10.7414 4.14235C10.8795 4.27846 11.067 4.35493 11.2624 4.35493Z" fill="white"/>
<path d="M20.1045 4.35493C20.5114 4.35493 20.8413 4.02998 20.8413 3.62913C20.8413 3.22827 20.5114 2.90332 20.1045 2.90332C19.6975 2.90332 19.3676 3.22827 19.3676 3.62913C19.3676 4.02998 19.6975 4.35493 20.1045 4.35493Z" fill="white"/>
<path d="M8.31505 32.6613H20.1045C20.6906 32.6607 21.2525 32.4311 21.667 32.0229C22.0814 31.6147 22.3145 31.0612 22.3151 30.4839V18.871C22.3145 18.2937 22.0814 17.7402 21.667 17.332C21.2525 16.9237 20.6906 16.6941 20.1045 16.6936V13.7903C20.1045 12.2504 19.4835 10.7735 18.378 9.68456C17.2725 8.59564 15.7732 7.98389 14.2098 7.98389C12.6464 7.98389 11.1471 8.59564 10.0416 9.68456C8.9361 10.7735 8.31505 12.2504 8.31505 13.7903V16.6936C7.72896 16.6941 7.16704 16.9237 6.75262 17.332C6.33819 17.7402 6.10511 18.2937 6.10452 18.871V30.4839C6.10511 31.0612 6.33819 31.6147 6.75262 32.0229C7.16704 32.4311 7.72896 32.6607 8.31505 32.6613ZM9.78873 13.7903C9.78873 12.6354 10.2545 11.5277 11.0836 10.711C11.9127 9.89431 13.0373 9.4355 14.2098 9.4355C15.3823 9.4355 16.5068 9.89431 17.3359 10.711C18.1651 11.5277 18.6308 12.6354 18.6308 13.7903V16.6936H9.78873V13.7903ZM7.57821 18.871C7.57821 18.6785 7.65584 18.4939 7.79402 18.3578C7.93221 18.2216 8.11963 18.1452 8.31505 18.1452H20.1045C20.2999 18.1452 20.4874 18.2216 20.6256 18.3578C20.7637 18.4939 20.8414 18.6785 20.8414 18.871V30.4839C20.8414 30.6764 20.7637 30.861 20.6256 30.9971C20.4874 31.1332 20.2999 31.2097 20.1045 31.2097H8.31505C8.11963 31.2097 7.93221 31.1332 7.79402 30.9971C7.65584 30.861 7.57821 30.6764 7.57821 30.4839V18.871Z" fill="white"/>
<path d="M13.4729 25.9954V26.8548C13.4729 27.0473 13.5505 27.2319 13.6887 27.368C13.8269 27.5041 14.0143 27.5806 14.2097 27.5806C14.4052 27.5806 14.5926 27.5041 14.7308 27.368C14.8689 27.2319 14.9466 27.0473 14.9466 26.8548V25.9954C15.4382 25.8242 15.8526 25.4873 16.1164 25.0443C16.3803 24.6013 16.4766 24.0806 16.3884 23.5743C16.3002 23.0681 16.0332 22.6089 15.6345 22.2778C15.2359 21.9467 14.7312 21.7651 14.2097 21.7651C13.6883 21.7651 13.1836 21.9467 12.7849 22.2778C12.3863 22.6089 12.1192 23.0681 12.031 23.5743C11.9429 24.0806 12.0392 24.6013 12.3031 25.0443C12.5669 25.4873 12.9813 25.8242 13.4729 25.9954ZM14.2097 23.2258C14.3555 23.2258 14.4979 23.2683 14.6191 23.3481C14.7403 23.4278 14.8347 23.5412 14.8905 23.6738C14.9463 23.8064 14.9609 23.9524 14.9324 24.0932C14.904 24.234 14.8338 24.3633 14.7308 24.4648C14.6277 24.5663 14.4964 24.6354 14.3535 24.6634C14.2106 24.6914 14.0624 24.6771 13.9278 24.6221C13.7931 24.5672 13.678 24.4742 13.5971 24.3548C13.5161 24.2355 13.4729 24.0951 13.4729 23.9516C13.4729 23.7591 13.5505 23.5745 13.6887 23.4384C13.8269 23.3022 14.0143 23.2258 14.2097 23.2258Z" fill="white"/>
</svg>
