<svg width="54" height="45" viewBox="0 0 54 45" fill="none" xmlns="http://www.w3.org/2000/svg">
<path d="M25.6119 33.3864L22.4431 30.3784C22.2936 30.2364 22.2067 30.0409 22.2014 29.8348C22.1961 29.6287 22.2729 29.429 22.4148 29.2795C22.485 29.2055 22.5692 29.1461 22.6624 29.1046C22.7557 29.0632 22.8561 29.0405 22.9581 29.0378C23.0602 29.0352 23.1617 29.0527 23.2569 29.0893C23.3522 29.1259 23.4393 29.1809 23.5133 29.2511L26.0105 31.6221L30.5237 24.8104C30.7609 24.4526 31.2433 24.3547 31.6007 24.5918C31.6858 24.6481 31.759 24.7207 31.816 24.8053C31.8731 24.8899 31.9129 24.985 31.9332 25.085C31.9535 25.185 31.9539 25.2881 31.9343 25.3882C31.9148 25.4884 31.8757 25.5838 31.8193 25.6688L26.7948 33.2525C26.537 33.641 25.9526 33.7139 25.6119 33.3864Z" fill="white"/>
<path d="M26.1332 44.9047C14.6046 39.5199 12.4943 27.8095 12.13 24.3303C12.0462 23.5266 12.4877 22.7733 13.2289 22.4563C15.4954 21.487 17.0208 19.3573 17.2103 16.8981C17.2709 16.1056 17.9142 15.5042 18.7055 15.4994L34.1717 15.4087H34.1802C34.956 15.4087 35.6149 16.0093 35.6821 16.7803C35.8966 19.2383 37.4452 21.3531 39.7226 22.2985C40.4714 22.609 40.9243 23.3581 40.8498 24.1623C40.5265 27.6455 38.5566 39.3874 27.0891 44.8994C26.8143 45.0314 26.4084 45.0334 26.1332 44.9047ZM18.7567 17.0531C18.5107 20.0766 16.6296 22.6924 13.84 23.8855C13.7291 23.9328 13.6631 24.0466 13.6757 24.1683C14.016 27.4229 15.9524 38.3832 26.6022 43.4089C37.1915 38.259 38.9997 27.2768 39.3021 24.0187C39.3135 23.8965 39.243 23.7819 39.1269 23.7334C36.3269 22.5714 34.4189 19.9798 34.1381 16.9629L18.7567 17.0531Z" fill="white"/>
<path d="M25.9777 41.7157C22.5018 39.8154 19.7236 37.0668 17.7685 33.4569C16.1462 30.4618 15.4302 27.5284 15.1149 25.5948C15.0296 25.0703 15.2676 24.5542 15.7216 24.2803C17.5911 23.1523 18.9437 21.3734 19.5306 19.2712C19.6848 18.7179 20.1936 18.329 20.7667 18.3258L32.1431 18.259C32.7186 18.2594 33.2294 18.6383 33.3905 19.1899C34.002 21.2848 35.3753 23.0478 37.2582 24.154C37.7151 24.4228 37.9591 24.9355 37.8799 25.4609C37.5877 27.398 36.906 30.3392 35.3186 33.3537C33.4059 36.9863 30.6602 39.7672 27.2073 41.7083C26.8791 41.8928 26.4083 41.9513 25.9777 41.7157ZM16.6775 25.5168C16.9871 27.3312 17.6635 30.0001 19.1347 32.7171C20.9188 36.0108 23.4245 38.5534 26.5834 40.2767C29.7222 38.5161 32.198 35.944 33.9433 32.6296C35.3829 29.8953 36.0277 27.2191 36.3158 25.4018C34.2257 24.1236 32.6866 22.1509 31.9552 19.8144L20.9722 19.8787C20.2688 22.2235 18.7526 24.2143 16.6774 25.5168H16.6775Z" fill="white"/>
<path d="M44.5344 34.5816H40.8644C40.7623 34.5816 40.6612 34.5616 40.5669 34.5225C40.4726 34.4835 40.387 34.4263 40.3148 34.3541C40.2426 34.2819 40.1854 34.1962 40.1463 34.1019C40.1073 34.0076 40.0872 33.9066 40.0873 33.8045C40.0873 33.5984 40.1691 33.4007 40.3149 33.255C40.4606 33.1093 40.6583 33.0274 40.8644 33.0274H44.5344C48.373 33.0274 51.4956 29.9048 51.4956 26.0663C51.4956 22.2282 48.373 19.0813 44.5344 19.1053C43.6469 19.1109 43.5692 18.5281 43.5611 17.2908C43.506 8.61406 36.5017 1.55419 27.8249 1.55419C21.4891 1.55419 15.5483 5.59146 13.2053 11.4569C13.0839 11.7609 12.7529 11.9357 12.0996 11.9361C6.28484 11.9397 1.55419 16.6672 1.55419 22.4816C1.55419 28.2963 6.28474 33.0273 12.0996 33.0273C12.3057 33.0273 12.5033 33.1092 12.6491 33.2549C12.7948 33.4006 12.8767 33.5983 12.8767 33.8044C12.8767 34.0105 12.7948 34.2082 12.6491 34.3539C12.5033 34.4996 12.3057 34.5815 12.0996 34.5815C5.42796 34.5816 0 29.1537 0 22.4817C0 15.8533 5.35751 10.4525 11.9701 10.3828C15.6973 1.41898 24.2993 0 27.8249 0C37.3588 0 45.1157 7.75677 45.1157 17.2908C45.1157 17.3838 45.1145 17.477 45.1132 17.5706C49.5399 17.8686 53.0498 21.5651 53.0498 26.0662C53.0498 30.7616 49.2299 34.5815 44.5344 34.5815V34.5816Z" fill="white"/>
</svg>
