<svg width="45" height="45" viewBox="0 0 45 45" fill="none" xmlns="http://www.w3.org/2000/svg">
<path d="M41.1176 16.4343C41.3109 16.4343 41.4962 16.3575 41.6329 16.2208C41.7696 16.0842 41.8464 15.8988 41.8464 15.7055V14.5203H45V13.0628H41.8464V11.8776C41.8464 11.6844 41.7696 11.499 41.6329 11.3623C41.4962 11.2257 41.3109 11.1489 41.1176 11.1489H39.0269V8.73009C39.0269 7.20993 37.7902 5.97307 36.2699 5.97307H33.851V3.88239C33.851 3.68911 33.7742 3.50375 33.6376 3.36709C33.5009 3.23042 33.3156 3.15364 33.1223 3.15364H31.9371V0H30.4796V3.15364H29.2944C29.1011 3.15364 28.9157 3.23042 28.7791 3.36709C28.6424 3.50375 28.5656 3.68911 28.5656 3.88239V5.97316H25.1426V3.88239C25.1426 3.68911 25.0658 3.50375 24.9292 3.36709C24.7925 3.23042 24.6071 3.15364 24.4139 3.15364H23.2287V0H21.7713V3.15364H20.586C20.3928 3.15364 20.2074 3.23042 20.0707 3.36709C19.9341 3.50375 19.8573 3.68911 19.8573 3.88239V5.97316H16.4343V3.88239C16.4343 3.68911 16.3575 3.50375 16.2208 3.36709C16.0842 3.23042 15.8988 3.15364 15.7055 3.15364H14.5203V0H13.0628V3.15364H11.8776C11.6844 3.15364 11.499 3.23042 11.3623 3.36709C11.2257 3.50375 11.1489 3.68911 11.1489 3.88239V5.97316H8.73C7.20984 5.97316 5.97298 7.20993 5.97298 8.73018V11.149H3.88239C3.68911 11.149 3.50375 11.2258 3.36709 11.3624C3.23042 11.4991 3.15364 11.6844 3.15364 11.8777V13.0629H0V14.5204H3.15364V15.7056C3.15364 15.8989 3.23042 16.0843 3.36709 16.2209C3.50375 16.3576 3.68911 16.4344 3.88239 16.4344H5.97307V19.8574H3.88239C3.68911 19.8574 3.50375 19.9342 3.36709 20.0708C3.23042 20.2075 3.15364 20.3929 3.15364 20.5861V21.7713H0V23.2287H3.15364V24.414C3.15364 24.6072 3.23042 24.7926 3.36709 24.9293C3.50375 25.0659 3.68911 25.1427 3.88239 25.1427H5.97307V28.5657H3.88239C3.68911 28.5657 3.50375 28.6425 3.36709 28.7792C3.23042 28.9158 3.15364 29.1012 3.15364 29.2945V30.4797H0V31.9372H3.15364V33.1225C3.15364 33.3157 3.23042 33.5011 3.36709 33.6378C3.50375 33.7744 3.68911 33.8512 3.88239 33.8512H5.97307V36.27C5.97307 37.7902 7.20984 39.027 8.73009 39.027H11.149V41.1177C11.149 41.311 11.2258 41.4963 11.3624 41.633C11.4991 41.7697 11.6844 41.8464 11.8777 41.8464H13.0629V45H14.5204V41.8464H15.7056C15.8989 41.8464 16.0843 41.7696 16.2209 41.6329C16.3576 41.4962 16.4344 41.3109 16.4344 41.1176V39.0269H19.8574V41.1176C19.8574 41.3109 19.9342 41.4962 20.0708 41.6329C20.2075 41.7696 20.3929 41.8464 20.5861 41.8464H21.7713V45H23.2287V41.8464H24.414C24.6072 41.8464 24.7926 41.7696 24.9293 41.6329C25.0659 41.4962 25.1427 41.3109 25.1427 41.1176V39.0269H28.5657V41.1176C28.5657 41.3109 28.6425 41.4962 28.7792 41.6329C28.9158 41.7696 29.1012 41.8464 29.2945 41.8464H30.4797V45H31.9372V41.8464H33.1224C33.3156 41.8464 33.501 41.7696 33.6377 41.6329C33.7743 41.4962 33.8511 41.3109 33.8511 41.1176V39.0269H36.27C37.7902 39.0269 39.027 37.7902 39.027 36.2699V33.8511H41.1177C41.311 33.8511 41.4963 33.7743 41.633 33.6377C41.7697 33.501 41.8464 33.3156 41.8464 33.1224V31.9371H45V30.4796H41.8464V29.2944C41.8464 29.1011 41.7696 28.9157 41.6329 28.7791C41.4962 28.6424 41.3109 28.5656 41.1176 28.5656H39.0269V25.1426H41.1176C41.3109 25.1426 41.4962 25.0658 41.6329 24.9292C41.7696 24.7925 41.8464 24.6071 41.8464 24.4139V23.2287H45V21.7713H41.8464V20.586C41.8464 20.3928 41.7696 20.2074 41.6329 20.0707C41.4962 19.9341 41.3109 19.8573 41.1176 19.8573H39.0269V16.4343H41.1176ZM4.61113 14.9768V12.6065H5.97307V14.9768H4.61113ZM4.61113 23.6852V21.3149H5.97307V23.6852H4.61113ZM4.61113 32.3936V30.0232H5.97307V32.3936H4.61113ZM30.0232 4.61113H32.3935V5.97316H30.0232V4.61113ZM21.3148 4.61113H23.6851V5.97316H21.3148V4.61113ZM12.6065 4.61113H14.9768V5.97316H12.6065V4.61113ZM14.9768 40.3889H12.6065V39.0269H14.9768V40.3889ZM23.6852 40.3889H21.3149V39.0269H23.6852V40.3889ZM32.3935 40.3889H30.0232V39.0269H32.3935V40.3889ZM37.5694 36.2699C37.5694 36.9864 36.9865 37.5694 36.2699 37.5694H8.73009C8.01355 37.5694 7.43056 36.9865 7.43056 36.2699V8.73018C7.43056 8.01364 8.01346 7.43065 8.73009 7.43065H36.2699C36.9864 7.43065 37.5694 8.01355 37.5694 8.73018V36.2699ZM40.3889 12.6065V14.9768H39.0269V12.6065H40.3889ZM40.3889 30.0232V32.3936H39.0269V30.0232H40.3889ZM40.3889 21.3148V23.6851H39.0269V21.3148H40.3889ZM35.201 9.07023H13.4322C13.239 9.07025 13.0536 9.14702 12.9169 9.28366L9.28366 12.9169C9.14702 13.0536 9.07025 13.239 9.07023 13.4322V35.201C9.07023 35.3943 9.14701 35.5797 9.28368 35.7163C9.42034 35.853 9.6057 35.9298 9.79898 35.9298H35.2009C35.3942 35.9298 35.5796 35.853 35.7162 35.7163C35.8529 35.5797 35.9297 35.3943 35.9297 35.201V9.79898C35.9297 9.70328 35.9109 9.60852 35.8742 9.52011C35.8376 9.43169 35.784 9.35135 35.7163 9.28368C35.6486 9.21601 35.5683 9.16233 35.4799 9.12571C35.3915 9.08908 35.2967 9.07023 35.201 9.07023ZM34.4723 34.4723H10.5277V13.7341L13.734 10.5278H34.4722L34.4723 34.4723ZM17.0481 32.7367H27.9519C29.1625 32.7367 30.1474 31.7518 30.1474 30.5412V21.6684C30.1474 20.458 29.1629 19.4732 27.9526 19.473V17.7158C27.9526 14.7093 25.5065 12.2633 22.5 12.2633C19.4935 12.2633 17.0475 14.7094 17.0475 17.7158V19.4729C15.8372 19.4732 14.8526 20.458 14.8526 21.6683V30.5411C14.8526 31.7518 15.8374 32.7367 17.0481 32.7367ZM22.5 13.7208C24.7029 13.7208 26.4951 15.513 26.4951 17.7158V19.4729H25.7074V17.7158C25.7074 15.9473 24.2686 14.5085 22.5 14.5085C20.7315 14.5085 19.2927 15.9473 19.2927 17.7158V19.4729H18.505V17.7158C18.505 15.513 20.2971 13.7208 22.5 13.7208ZM24.2499 19.473H20.7502V17.7158C20.7502 16.7509 21.5351 15.966 22.5 15.966C23.4649 15.966 24.2499 16.7509 24.2499 17.7158V19.473ZM16.31 21.6684C16.31 21.2615 16.6412 20.9304 17.0482 20.9304H27.952C28.3589 20.9304 28.6901 21.2615 28.6901 21.6684V30.5412C28.6901 30.9481 28.3589 31.2792 27.952 31.2792H17.0482C16.6412 31.2792 16.31 30.9481 16.31 30.5412V21.6684ZM20.944 27.0836V28.0492C20.944 28.9072 21.642 29.6052 22.5 29.6052C23.358 29.6052 24.056 28.9072 24.056 28.0492V27.0836C24.3537 26.849 24.5943 26.5498 24.7595 26.2086C24.9247 25.8674 25.0103 25.4932 25.0097 25.1141C25.0097 23.7303 23.8839 22.6044 22.5 22.6044C21.1161 22.6044 19.9904 23.7302 19.9904 25.1141C19.9898 25.4932 20.0754 25.8674 20.2406 26.2086C20.4058 26.5498 20.6463 26.849 20.944 27.0836ZM22.5 24.0619C23.0802 24.0619 23.5522 24.5339 23.5522 25.1141C23.5522 25.5063 23.3361 25.8635 22.9883 26.0463C22.8707 26.1081 22.7722 26.2008 22.7035 26.3145C22.6349 26.4282 22.5986 26.5585 22.5986 26.6914V28.0491C22.5986 28.1016 22.5526 28.1476 22.5001 28.1476C22.4476 28.1476 22.4016 28.1016 22.4016 28.0491V26.6914C22.4016 26.5586 22.3653 26.4283 22.2967 26.3146C22.228 26.2009 22.1296 26.1082 22.012 26.0463C21.8418 25.9573 21.6992 25.8234 21.5998 25.659C21.5003 25.4947 21.4479 25.3062 21.4481 25.1141C21.4479 24.5339 21.9199 24.0619 22.5 24.0619Z" fill="white"/>
</svg>
