<svg width="43" height="45" viewBox="0 0 43 45" fill="none" xmlns="http://www.w3.org/2000/svg">
<path fill-rule="evenodd" clip-rule="evenodd" d="M4.81577 1.02857C3.80865 1.02857 2.84279 1.43263 2.13065 2.15185C1.41851 2.87107 1.01844 3.84654 1.01844 4.86367V40.129C1.01844 42.2449 2.72069 43.9641 4.81577 43.9641H38.1842C39.1901 43.9641 40.1549 43.561 40.8668 42.8434C41.5787 42.1258 41.9796 41.1522 41.9816 40.1363V4.86367C41.9816 4.36004 41.8833 3.86134 41.6925 3.39604C41.5017 2.93075 41.222 2.50797 40.8694 2.15185C40.5167 1.79572 40.0981 1.51323 39.6374 1.3205C39.1767 1.12777 38.6829 1.02857 38.1842 1.02857H4.81577ZM38.1842 45H4.81577C3.53914 44.9981 2.31535 44.485 1.41263 43.5733C0.509916 42.6616 0.00192409 41.4257 0 40.1363V4.86367C0 2.18204 2.16055 0 4.81577 0H38.1842C40.8395 0 43 2.18204 43 4.86367V40.129C43 41.4196 42.4929 42.6574 41.5899 43.5707C40.687 44.484 39.4621 44.9981 38.1842 45Z" fill="white"/>
<path fill-rule="evenodd" clip-rule="evenodd" d="M42.4908 9.63911H0.50922C0.374166 9.63911 0.244644 9.58492 0.149147 9.48848C0.0536497 9.39203 0 9.26122 0 9.12482C0 8.98842 0.0536497 8.85761 0.149147 8.76117C0.244644 8.66472 0.374166 8.61054 0.50922 8.61054H42.4835C42.6186 8.61054 42.7481 8.66472 42.8436 8.76117C42.9391 8.85761 42.9927 8.98842 42.9927 9.12482C42.9927 9.26122 42.9391 9.39203 42.8436 9.48848C42.7481 9.58492 42.6258 9.63911 42.4908 9.63911ZM5.29589 3.82768C5.15689 3.81056 5.01587 3.82344 4.88216 3.86546C4.74846 3.90748 4.62511 3.97769 4.52027 4.07145C4.41543 4.1652 4.33149 4.28036 4.27401 4.40932C4.21652 4.53828 4.18679 4.67809 4.18679 4.81951C4.18679 4.96094 4.21652 5.10075 4.27401 5.22971C4.33149 5.35867 4.41543 5.47383 4.52027 5.56758C4.62511 5.66134 4.74846 5.73155 4.88216 5.77357C5.01587 5.81559 5.15689 5.82847 5.29589 5.81135C5.53576 5.78181 5.75664 5.66462 5.91684 5.48191C6.07703 5.29919 6.16548 5.06357 6.16548 4.81951C6.16548 4.57546 6.07703 4.33984 5.91684 4.15712C5.75664 3.97441 5.53576 3.85722 5.29589 3.82768ZM5.29589 6.83992C5.02254 6.85656 4.74872 6.81656 4.49125 6.72236C4.23379 6.62816 3.99812 6.48177 3.79874 6.29218C3.59937 6.1026 3.4405 5.87383 3.33191 5.61994C3.22332 5.36605 3.16731 5.09241 3.16731 4.81584C3.16731 4.53928 3.22332 4.26564 3.33191 4.01175C3.4405 3.75786 3.59937 3.52908 3.79874 3.3395C3.99812 3.14991 4.23379 3.00352 4.49125 2.90932C4.74872 2.81513 5.02254 2.77512 5.29589 2.79176C5.82839 2.79176 6.33907 3.0054 6.71561 3.38568C7.09214 3.76595 7.30367 4.28172 7.30367 4.81951C7.30367 5.35731 7.09214 5.87308 6.71561 6.25335C6.33907 6.63363 5.82839 6.84727 5.29589 6.84727V6.83992ZM10.9992 3.82768C10.8602 3.81056 10.7191 3.82344 10.5854 3.86546C10.4517 3.90748 10.3284 3.97769 10.2235 4.07145C10.1187 4.1652 10.0348 4.28036 9.97727 4.40932C9.91978 4.53828 9.89006 4.67809 9.89006 4.81951C9.89006 4.96094 9.91978 5.10075 9.97727 5.22971C10.0348 5.35867 10.1187 5.47383 10.2235 5.56758C10.3284 5.66134 10.4517 5.73155 10.5854 5.77357C10.7191 5.81559 10.8602 5.82847 10.9992 5.81135C11.239 5.78181 11.4599 5.66462 11.6201 5.48191C11.7803 5.29919 11.8687 5.06357 11.8687 4.81951C11.8687 4.57546 11.7803 4.33984 11.6201 4.15712C11.4599 3.97441 11.239 3.85722 10.9992 3.82768ZM10.9992 6.83992C10.7258 6.85656 10.452 6.81656 10.1945 6.72236C9.93705 6.62816 9.70138 6.48177 9.50201 6.29218C9.30264 6.1026 9.14377 5.87383 9.03518 5.61994C8.92659 5.36605 8.87057 5.09241 8.87057 4.81584C8.87057 4.53928 8.92659 4.26564 9.03518 4.01175C9.14377 3.75786 9.30264 3.52908 9.50201 3.3395C9.70138 3.14991 9.93705 3.00352 10.1945 2.90932C10.452 2.81513 10.7258 2.77512 10.9992 2.79176C11.5317 2.79176 12.0423 3.0054 12.4189 3.38568C12.7954 3.76595 13.0069 4.28172 13.0069 4.81951C13.0069 5.35731 12.7954 5.87308 12.4189 6.25335C12.0423 6.63363 11.5317 6.84727 10.9992 6.84727V6.83992ZM16.6951 3.82768C16.5561 3.81056 16.4151 3.82344 16.2814 3.86546C16.1477 3.90748 16.0244 3.97769 15.9195 4.07145C15.8147 4.1652 15.7307 4.28036 15.6733 4.40932C15.6158 4.53828 15.586 4.67809 15.586 4.81951C15.586 4.96094 15.6158 5.10075 15.6733 5.22971C15.7307 5.35867 15.8147 5.47383 15.9195 5.56758C16.0244 5.66134 16.1477 5.73155 16.2814 5.77357C16.4151 5.81559 16.5561 5.82847 16.6951 5.81135C16.935 5.78181 17.1559 5.66462 17.3161 5.48191C17.4763 5.29919 17.5647 5.06357 17.5647 4.81951C17.5647 4.57546 17.4763 4.33984 17.3161 4.15712C17.1559 3.97441 16.935 3.85722 16.6951 3.82768ZM16.6951 6.83992C16.4218 6.85656 16.148 6.81656 15.8905 6.72236C15.633 6.62816 15.3974 6.48177 15.198 6.29218C14.9986 6.1026 14.8398 5.87383 14.7312 5.61994C14.6226 5.36605 14.5666 5.09241 14.5666 4.81584C14.5666 4.53928 14.6226 4.26564 14.7312 4.01175C14.8398 3.75786 14.9986 3.52908 15.198 3.3395C15.3974 3.14991 15.633 3.00352 15.8905 2.90932C16.148 2.81513 16.4218 2.77512 16.6951 2.79176C17.2276 2.79176 17.7383 3.0054 18.1149 3.38568C18.4914 3.76595 18.7029 4.28172 18.7029 4.81951C18.7029 5.35731 18.4914 5.87308 18.1149 6.25335C17.7383 6.63363 17.2276 6.84727 16.6951 6.84727V6.83992ZM22.3984 3.82768C22.1585 3.85722 21.9377 3.97441 21.7775 4.15712C21.6173 4.33984 21.5288 4.57546 21.5288 4.81951C21.5288 5.06357 21.6173 5.29919 21.7775 5.48191C21.9377 5.66462 22.1585 5.78181 22.3984 5.81135H37.6968C37.9367 5.78181 38.1576 5.66462 38.3178 5.48191C38.478 5.29919 38.5664 5.06357 38.5664 4.81951C38.5664 4.57546 38.478 4.33984 38.3178 4.15712C38.1576 3.97441 37.9367 3.85722 37.6968 3.82768H22.3984ZM37.7041 6.83992H22.3984C21.8973 6.79672 21.4305 6.56516 21.0903 6.19103C20.7501 5.8169 20.5614 5.32745 20.5614 4.81951C20.5614 4.31157 20.7501 3.82213 21.0903 3.448C21.4305 3.07387 21.8973 2.84231 22.3984 2.79911H37.6968C38.1979 2.84231 38.6648 3.07387 39.0049 3.448C39.3451 3.82213 39.5339 4.31157 39.5339 4.81951C39.5339 5.32745 39.3451 5.8169 39.0049 6.19103C38.6648 6.56516 38.2052 6.79672 37.7041 6.83992ZM26.2467 34.7803H15.1457C15.0106 34.7803 14.8811 34.7261 14.7856 34.6297C14.6901 34.5333 14.6364 34.4024 14.6364 34.266C14.6364 34.1296 14.6901 33.9988 14.7856 33.9024C14.8811 33.8059 15.0106 33.7518 15.1457 33.7518H26.2394C26.3744 33.7518 26.504 33.8059 26.5995 33.9024C26.695 33.9988 26.7486 34.1296 26.7486 34.266C26.7486 34.4024 26.695 34.5333 26.5995 34.6297C26.504 34.7261 26.3817 34.7803 26.2467 34.7803ZM32.2336 34.7803H29.1638C29.0287 34.7803 28.8992 34.7261 28.8037 34.6297C28.7082 34.5333 28.6545 34.4024 28.6545 34.266C28.6545 34.1296 28.7082 33.9988 28.8037 33.9024C28.8992 33.8059 29.0287 33.7518 29.1638 33.7518H32.2336C33.3203 33.7463 34.3688 33.3468 35.1881 32.6259C36.0075 31.9051 36.5431 30.9109 36.6974 29.8246C36.8517 28.7383 36.6144 27.6321 36.0287 26.7077C35.443 25.7833 34.548 25.1022 33.5067 24.7885C33.4302 24.7667 33.3599 24.7271 33.3013 24.673C33.2427 24.6188 33.1975 24.5516 33.1692 24.4766C33.1409 24.4017 33.1304 24.3211 33.1385 24.2413C33.1466 24.1615 33.173 24.0847 33.2157 24.0171C33.7757 23.1329 34.0178 22.0811 33.9015 21.0381C33.7851 19.995 33.3173 19.0241 32.5764 18.2879C31.8356 17.5518 30.8667 17.0952 29.8322 16.9946C28.7977 16.894 27.7604 17.1555 26.8941 17.7354C26.8217 17.7836 26.7383 17.8123 26.6518 17.8188C26.5654 17.8254 26.4787 17.8095 26.4 17.7727C26.3213 17.7359 26.2532 17.6794 26.2022 17.6086C26.1512 17.5378 26.1189 17.455 26.1084 17.3681C26.032 16.74 25.8273 16.1348 25.5072 15.5908C25.1871 15.0468 24.7587 14.5759 24.249 14.2079C23.7393 13.8399 23.1594 13.5828 22.5462 13.4529C21.933 13.323 21.2997 13.3231 20.6866 13.4533C20.0734 13.5835 19.4937 13.8409 18.9842 14.2091C18.4746 14.5774 18.0464 15.0485 17.7266 15.5927C17.4067 16.1368 17.2023 16.7421 17.1262 17.3702C17.05 17.9983 17.1039 18.6356 17.2844 19.2416C17.3101 19.3268 17.3135 19.4174 17.2941 19.5044C17.2748 19.5914 17.2333 19.6718 17.1739 19.7378C17.1145 19.8037 17.0391 19.8529 16.9552 19.8806C16.8712 19.9082 16.7816 19.9133 16.6951 19.8954C16.0561 19.7587 15.3953 19.7634 14.7582 19.909C14.1211 20.0547 13.5228 20.338 13.0044 20.7394C12.486 21.1408 12.0598 21.6508 11.7551 22.2343C11.4504 22.8179 11.2744 23.4612 11.2392 24.1199C11.2318 24.2512 11.1749 24.3745 11.0802 24.4647C10.9855 24.5549 10.8602 24.605 10.73 24.6048C9.57445 24.6747 8.48918 25.1885 7.69681 26.0408C6.90444 26.8931 6.46505 28.0194 6.46877 29.1885C6.4725 30.3576 6.91905 31.481 7.71683 32.3282C8.51461 33.1753 9.60313 33.6821 10.7591 33.7444H12.8105C12.9456 33.7444 13.0751 33.7986 13.1706 33.895C13.2661 33.9915 13.3197 34.1223 13.3197 34.2587C13.3197 34.3951 13.2661 34.5259 13.1706 34.6224C13.0751 34.7188 12.9456 34.773 12.8105 34.773H10.7664C9.35906 34.742 8.01596 34.1722 7.00895 33.1788C6.00195 32.1855 5.40626 30.8428 5.34247 29.4226C5.27867 28.0025 5.75154 26.6108 6.66536 25.5295C7.57918 24.4481 8.86567 23.7578 10.2644 23.5983C10.4565 22.1934 11.1694 20.9144 12.259 20.0198C13.3487 19.1252 14.734 18.6816 16.135 18.7787C15.9366 17.3681 16.2775 15.9341 17.0884 14.7682C17.8993 13.6024 19.1193 12.7921 20.5005 12.502C21.8817 12.212 23.3204 12.464 24.5242 13.2069C25.728 13.9497 26.6066 15.1276 26.9814 16.5011C28.0223 15.9895 29.1955 15.8193 30.3369 16.0144C31.4783 16.2095 32.5307 16.7602 33.3469 17.5893C34.163 18.4185 34.7021 19.4846 34.8886 20.6384C35.075 21.7923 34.8996 22.9762 34.3869 24.0244C35.5629 24.5302 36.5301 25.4304 37.125 26.573C37.7199 27.7156 37.9061 29.0306 37.6521 30.2958C37.3982 31.561 36.7196 32.6989 35.7311 33.5173C34.7425 34.3357 33.5046 34.7844 32.2264 34.7877L32.2336 34.7803Z" fill="white"/>
<path fill-rule="evenodd" clip-rule="evenodd" d="M20.7472 24.9576C18.7176 24.9576 16.8189 25.751 15.3858 27.1984C14.6788 27.9075 14.118 28.7512 13.7359 29.6806C13.3538 30.61 13.158 31.6067 13.1598 32.6131C13.1598 34.6629 13.9527 36.5804 15.3858 38.0351C16.8189 39.4825 18.7176 40.2759 20.7472 40.2759C20.9131 40.2759 21.0722 40.2094 21.1896 40.0909C21.3069 39.9724 21.3728 39.8117 21.3728 39.6441C21.3728 39.4765 21.3069 39.3158 21.1896 39.1973C21.0722 39.0788 20.9131 39.0123 20.7472 39.0123C19.9147 39.0149 19.0899 38.8507 18.3207 38.5291C17.5515 38.2075 16.8531 37.7349 16.266 37.1388C15.6758 36.5459 15.2079 35.8405 14.8895 35.0637C14.571 34.2868 14.4084 33.4539 14.411 32.6131C14.411 30.9086 15.0657 29.307 16.266 28.0947C16.8531 27.4986 17.5515 27.026 18.3207 26.7044C19.0899 26.3828 19.9147 26.2186 20.7472 26.2212C22.3491 26.221 23.8915 26.8342 25.0633 27.9373C26.2351 29.0403 26.9492 30.5511 27.0615 32.1649C27.0655 32.2349 27.0552 32.3049 27.0314 32.3708C27.0076 32.4366 26.9707 32.4968 26.9231 32.5477C26.8754 32.5986 26.8179 32.6392 26.7541 32.6668C26.6904 32.6945 26.6217 32.7087 26.5523 32.7086H25.9485L27.7089 35.787L29.4621 32.7086H28.8292C28.6991 32.7088 28.5738 32.6587 28.4791 32.5685C28.3844 32.4783 28.3274 32.3549 28.32 32.2237C28.2264 30.2603 27.3872 28.4088 25.9769 27.0542C24.5665 25.6996 22.6935 24.9534 20.7472 24.9576ZM20.7472 41.3045C18.4484 41.3045 16.2879 40.4008 14.6584 38.7625C13.8569 37.9566 13.2217 36.9981 12.7896 35.9425C12.3576 34.887 12.1372 33.7553 12.1414 32.6131C12.1414 30.2914 13.0361 28.1094 14.6584 26.471C16.2879 24.8253 18.4411 23.9217 20.7472 23.9217C22.8708 23.917 24.9207 24.7076 26.5008 26.1406C28.0809 27.5735 29.0789 29.5471 29.3021 31.68H30.3496C30.4386 31.6808 30.5259 31.7052 30.6026 31.7506C30.6794 31.7961 30.7431 31.8611 30.7872 31.9391C30.8314 32.0172 30.8545 32.1055 30.8543 32.1954C30.8541 32.2853 30.8306 32.3736 30.7861 32.4514L28.1454 37.08C28.1006 37.1578 28.0364 37.2223 27.9592 37.2672C27.8819 37.312 27.7944 37.3356 27.7053 37.3356C27.6162 37.3356 27.5287 37.312 27.4515 37.2672C27.3742 37.2223 27.31 37.1578 27.2652 37.08L24.6245 32.4514C24.58 32.3736 24.5565 32.2853 24.5563 32.1954C24.5561 32.1055 24.5792 32.0172 24.6234 31.9391C24.6675 31.8611 24.7312 31.7961 24.808 31.7506C24.8848 31.7052 24.972 31.6808 25.061 31.68H25.9776C25.8127 30.7106 25.3867 29.8058 24.7462 29.0647C24.1057 28.3237 23.2756 27.7751 22.3468 27.4792C21.418 27.1832 20.4264 27.1512 19.4808 27.3868C18.5352 27.6224 17.6722 28.1164 16.9862 28.8147C16.4909 29.3124 16.0982 29.9043 15.831 30.5563C15.5637 31.2083 15.4273 31.9074 15.4295 32.6131C15.4295 34.0531 15.9823 35.3976 16.9862 36.4114C17.479 36.9117 18.0651 37.3083 18.7107 37.5782C19.3563 37.8481 20.0485 37.9859 20.7472 37.9837C21.1565 38.0226 21.5368 38.2144 21.8135 38.5215C22.0903 38.8285 22.2437 39.2289 22.2437 39.6441C22.2437 40.0593 22.0903 40.4597 21.8135 40.7667C21.5368 41.0738 21.1565 41.2656 20.7472 41.3045Z" fill="white"/>
</svg>
