<svg width="42" height="42" viewBox="0 0 42 42" fill="none" xmlns="http://www.w3.org/2000/svg">
<circle cx="20.9984" cy="21" r="21" fill="white" fill-opacity="0.1"/>
<path d="M20.9999 15.7515C20.3705 15.7515 19.7552 15.9372 19.2318 16.2851C18.7085 16.633 18.3006 17.1275 18.0597 17.7061C17.8188 18.2847 17.7558 18.9214 17.8786 19.5356C18.0014 20.1498 18.3045 20.714 18.7496 21.1568C19.1947 21.5997 19.7617 21.9012 20.3791 22.0234C20.9964 22.1456 21.6363 22.0829 22.2178 21.8432C22.7994 21.6036 23.2964 21.1977 23.6461 20.677C23.9958 20.1563 24.1824 19.5441 24.1824 18.9179C24.1824 18.0781 23.8471 17.2727 23.2503 16.6789C22.6535 16.0851 21.844 15.7515 20.9999 15.7515ZM20.9999 20.5011C20.6852 20.5011 20.3776 20.4082 20.1159 20.2342C19.8542 20.0603 19.6503 19.813 19.5298 19.5237C19.4094 19.2344 19.3779 18.9161 19.4393 18.609C19.5007 18.3019 19.6522 18.0198 19.8748 17.7984C20.0973 17.577 20.3808 17.4262 20.6895 17.3651C20.9982 17.304 21.3181 17.3353 21.6089 17.4552C21.8996 17.575 22.1482 17.7779 22.323 18.0383C22.4979 18.2986 22.5912 18.6047 22.5912 18.9179C22.5912 19.3377 22.4235 19.7404 22.1251 20.0373C21.8267 20.3343 21.422 20.5011 20.9999 20.5011Z" fill="white"/>
<path d="M21 29.9999C20.33 30.0034 19.669 29.847 19.0723 29.544C18.4755 29.241 17.9604 28.8002 17.5701 28.2584C14.5379 24.097 13 20.9686 13 18.9595C13 16.8485 13.8429 14.824 15.3431 13.3313C16.8434 11.8386 18.8783 11 21 11C23.1217 11 25.1566 11.8386 26.6569 13.3313C28.1571 14.824 29 16.8485 29 18.9595C29 20.9686 27.4621 24.097 24.4299 28.2584C24.0396 28.8002 23.5245 29.241 22.9277 29.544C22.331 29.847 21.67 30.0034 21 29.9999ZM21 12.7281C19.3391 12.7299 17.7467 13.3872 16.5722 14.5558C15.3978 15.7243 14.7372 17.3086 14.7353 18.9611C14.7353 20.5522 16.2414 23.4946 18.9751 27.246C19.2072 27.564 19.5117 27.8229 19.8636 28.0014C20.2156 28.1799 20.605 28.2729 21 28.2729C21.395 28.2729 21.7844 28.1799 22.1364 28.0014C22.4883 27.8229 22.7928 27.564 23.0249 27.246C25.7586 23.4946 27.2647 20.5522 27.2647 18.9611C27.2628 17.3086 26.6022 15.7243 25.4277 14.5558C24.2533 13.3872 22.6609 12.7299 21 12.7281Z" fill="white"/>
</svg>
