<svg width="19" height="19" viewBox="0 0 19 19" fill="none" xmlns="http://www.w3.org/2000/svg">
<path d="M3.46696 6.93392C5.38171 6.93392 6.93392 5.38171 6.93392 3.46696C6.93392 1.55221 5.38171 0 3.46696 0C1.55221 0 0 1.55221 0 3.46696C0 5.38171 1.55221 6.93392 3.46696 6.93392Z" fill="#324320"/>
<path d="M3.46694 19C5.38169 19 6.9339 17.4478 6.9339 15.5331C6.9339 13.6183 5.38169 12.0661 3.46694 12.0661C1.55219 12.0661 -1.52588e-05 13.6183 -1.52588e-05 15.5331C-1.52588e-05 17.4478 1.55219 19 3.46694 19Z" fill="#324320"/>
<path d="M15.533 6.93388C17.4478 6.93388 19 5.38168 19 3.46693C19 1.55218 17.4478 -3.05176e-05 15.533 -3.05176e-05C13.6183 -3.05176e-05 12.0661 1.55218 12.0661 3.46693C12.0661 5.38168 13.6183 6.93388 15.533 6.93388Z" fill="#324320"/>
<path d="M15.533 19C17.4478 19 19 17.4478 19 15.5331C19 13.6183 17.4478 12.0661 15.533 12.0661C13.6183 12.0661 12.0661 13.6183 12.0661 15.5331C12.0661 17.4478 13.6183 19 15.533 19Z" fill="#324320"/>
</svg>
