<svg width="372" height="119" viewBox="0 0 372 119" fill="none" xmlns="http://www.w3.org/2000/svg">
<path opacity="0.05" d="M42.0343 98.5405C42.7197 98.3692 43.3622 98.3692 43.9618 98.5405C44.6472 98.6262 45.204 99.0973 45.6323 99.954C44.69 100.297 43.662 100.596 42.5483 100.853C41.5203 101.025 39.6357 101.582 36.8943 102.524C34.924 103.209 32.9965 103.895 31.1118 104.58C29.2272 105.265 27.5995 105.865 26.2288 106.379C25.0295 106.979 23.8302 107.535 22.6308 108.049C21.4315 108.478 20.2322 109.035 19.0328 109.72C17.8335 110.32 16.5485 110.919 15.1778 111.519C13.8928 112.119 12.6078 112.804 11.3228 113.575C11.0658 114.089 10.766 114.603 10.4233 115.117C10.1663 115.631 9.95216 116.145 9.78083 116.659C8.8385 120.086 7.46783 123.255 5.66883 126.168C3.9555 129.166 2.07083 132.079 0.0148296 134.906C-3.66884 139.703 -8.3805 143.216 -14.1202 145.443C-15.8335 146.043 -17.5468 146.385 -19.2602 146.471C-21.0592 146.557 -22.8582 146.214 -24.6572 145.443C-24.9142 145.272 -25.1712 145.1 -25.4282 144.929C-25.7708 144.843 -26.0278 144.715 -26.1992 144.544C-27.1415 143.773 -27.6983 142.916 -27.8697 141.974C-28.041 141.117 -27.9553 140.217 -27.6127 139.275C-26.9273 137.733 -26.1992 136.234 -25.4282 134.778C-24.7428 133.321 -23.8005 131.993 -22.6012 130.794C-19.7742 127.539 -16.6473 124.669 -13.2207 122.185C-9.87967 119.786 -6.36734 117.601 -2.68367 115.631C-1.22734 114.86 0.228996 114.175 1.68533 113.575C3.14166 112.89 4.42666 112.076 5.54033 111.133C6.31133 110.02 6.654 109.035 6.56833 108.178C6.56833 107.321 6.56833 106.722 6.56833 106.379C6.05433 104.58 5.32616 103.252 4.38383 102.395C3.4415 101.881 2.49916 101.496 1.55683 101.239C0.700163 100.982 -0.11367 100.725 -0.884671 100.468C-1.65567 100.211 -2.29817 99.8683 -2.81217 99.44C-3.41184 99.0117 -3.7545 98.3692 -3.84017 97.5125C-4.0115 96.3988 -3.84017 95.3708 -3.32617 94.4285C-2.89784 93.4862 -2.25534 92.5867 -1.39867 91.73C-0.62767 90.8733 0.314663 90.1452 1.42833 89.5455C2.542 88.8602 3.65566 88.2605 4.76933 87.7465C6.22566 87.0612 7.63916 86.8898 9.00983 87.2325C10.2092 87.4895 11.0658 88.2177 11.5798 89.417C11.4085 90.5307 11.023 91.473 10.4233 92.244C9.82366 93.015 9.13833 93.7432 8.36733 94.4285C7.59633 95.0282 6.7825 95.6707 5.92583 96.356C5.15483 96.9557 4.51233 97.641 3.99833 98.412C4.084 98.3263 4.341 98.3692 4.76933 98.5405C5.19766 98.6262 5.66883 98.7975 6.18283 99.0545C6.69683 99.3115 7.168 99.6542 7.59633 100.082C8.11033 100.425 8.49583 100.768 8.75283 101.111C9.78083 102.396 10.3805 103.595 10.5518 104.708C10.8088 105.736 11.1943 106.936 11.7083 108.306C13.6787 107.364 15.649 106.507 17.6193 105.736C19.6753 104.965 21.6457 104.194 23.5303 103.423C26.7857 102.395 29.9553 101.453 33.0393 100.596C36.209 99.7398 39.2073 99.0545 42.0343 98.5405ZM0.52883 125.783C1.47116 124.241 2.07083 123.041 2.32783 122.185C2.6705 121.414 2.9275 120.257 3.09883 118.715C2.32783 118.372 1.6425 118.372 1.04283 118.715C0.100496 119.4 -0.799004 119.957 -1.65567 120.386C-2.598 120.9 -3.54034 121.499 -4.48267 122.185C-9.70834 125.354 -14.5057 129.252 -18.8747 133.878C-20.1597 135.42 -21.2733 137.262 -22.2157 139.404C-22.4727 140.089 -22.5583 140.774 -22.4727 141.46C-22.4727 142.231 -22.0872 143.087 -21.3162 144.03C-19.6028 144.115 -18.018 143.773 -16.5617 143.002C-15.191 142.316 -13.906 141.502 -12.7067 140.56C-7.56667 136.791 -3.15484 131.865 0.52883 125.783ZM65.333 58.7055C64.6477 58.2772 63.7482 58.1487 62.6345 58.32C57.8372 59.2623 53.0827 60.2903 48.371 61.404C43.6593 62.432 38.9905 63.6742 34.3645 65.1305C32.5655 65.7302 30.895 66.4155 29.353 67.1865C27.7253 67.8718 26.1833 68.7285 24.727 69.7565C24.1273 70.1848 23.5277 70.6132 22.928 71.0415C22.2427 71.4698 21.6002 71.2557 21.0005 70.399C20.5722 69.4567 20.7007 68.7285 21.386 68.2145C22.0713 67.7005 22.6282 67.2293 23.0565 66.801C24.5128 65.773 26.0977 64.9163 27.811 64.231C29.4387 63.5457 31.1092 62.8603 32.8225 62.175C37.7912 60.633 42.8455 59.2623 47.9855 58.063C53.1255 56.8637 58.3512 55.7928 63.6625 54.8505C67.1748 54.1652 69.702 52.3662 71.244 49.4535C75.0133 43.2855 79.1253 37.5887 83.58 32.363C88.1203 27.1373 93.346 22.4257 99.257 18.228C101.998 16.0863 104.868 14.1588 107.866 12.4455C110.95 10.7322 114.249 9.36149 117.761 8.3335C120.502 7.47683 123.286 6.96283 126.113 6.79149C129.026 6.53449 131.939 6.83433 134.851 7.691C137.935 8.63333 140.42 10.0468 142.304 11.9315C144.275 13.7305 145.645 15.7865 146.416 18.0995C147.187 20.4125 147.316 22.8968 146.802 25.5525C146.288 28.1225 145.089 30.6925 143.204 33.2625C141.491 35.6612 139.563 37.6743 137.421 39.302C135.28 40.9297 132.967 42.386 130.482 43.671C126.285 46.1553 121.873 48.04 117.247 49.325C112.707 50.61 108.038 51.638 103.24 52.409C99.1285 53.0087 95.1022 53.5227 91.1615 53.951C87.3065 54.3793 83.4515 54.8077 79.5965 55.236C77.4548 55.493 75.7415 56.0498 74.4565 56.9065C73.1715 57.7632 72.015 59.1767 70.987 61.147C68.5027 65.8587 66.0183 70.6132 63.534 75.4105C61.0497 80.2078 58.6938 85.0908 56.4665 90.0595C56.2952 90.6592 56.0382 91.216 55.6955 91.73C55.3528 92.1583 55.2672 92.8437 55.4385 93.786C56.8092 93.1863 58.0942 92.6295 59.2935 92.1155C60.4928 91.5158 61.735 91.0018 63.02 90.5735C64.048 90.1452 65.076 89.7168 66.104 89.2885C67.132 88.8602 68.2457 88.4318 69.445 88.0035C69.702 87.8322 70.0018 87.8322 70.3445 88.0035C70.7728 88.0892 71.0727 88.3462 71.244 88.7745C71.9293 89.8882 71.8008 90.7448 70.8585 91.3445C70.4302 91.7728 70.0018 92.0727 69.5735 92.244C69.1452 92.3297 68.674 92.4582 68.16 92.6295C66.0183 93.4862 64.048 94.3428 62.249 95.1995C60.45 95.9705 58.651 97.0842 56.852 98.5405C54.9673 99.8255 53.5967 101.367 52.74 103.166C51.8833 104.965 51.6692 107.064 52.0975 109.463C52.3545 112.033 53.2112 113.832 54.6675 114.86C56.1238 115.888 58.0513 115.931 60.45 114.988C62.506 114.132 64.4335 113.147 66.2325 112.033C68.5455 110.748 70.8585 109.42 73.1715 108.049C75.5702 106.593 78.183 105.008 81.01 103.295C82.3807 102.438 83.7513 101.624 85.122 100.853C86.4927 100.082 87.7348 99.44 88.8485 98.926C90.0478 98.3263 91.0758 97.898 91.9325 97.641C92.8748 97.384 93.5602 97.3412 93.9885 97.5125C94.2455 97.5125 94.374 97.7267 94.374 98.155C94.4597 98.4977 94.117 98.7547 93.346 98.926C92.061 99.5257 90.3477 100.468 88.206 101.753C86.0643 103.038 84.0083 104.366 82.038 105.736C78.8683 107.964 75.5702 110.148 72.1435 112.29C68.7168 114.432 65.2902 116.359 61.8635 118.072C58.2655 119.786 55.0102 118.629 52.0975 114.603C51.4978 113.746 50.9838 112.804 50.5555 111.776C50.2128 110.662 49.4847 109.677 48.371 108.82C46.6577 112.847 45.3298 117.044 44.3875 121.414C44.2162 121.842 44.0877 122.313 44.002 122.827C43.9163 123.341 43.5737 123.512 42.974 123.341C42.3743 123.341 41.9032 123.127 41.5605 122.699C41.1322 122.356 40.8752 121.928 40.7895 121.414C40.7895 120.471 40.8323 119.529 40.918 118.586C40.918 117.558 41.0465 116.573 41.3035 115.631C41.9032 112.547 42.8027 109.506 44.002 106.507C45.1157 103.423 46.3578 100.425 47.7285 97.5125C50.2128 91.6015 52.7828 85.7333 55.4385 79.908C58.1798 74.0827 61.0068 68.3002 63.9195 62.5605C64.1765 61.8752 64.4763 61.2755 64.819 60.7615C65.1617 60.2475 65.333 59.5622 65.333 58.7055ZM77.669 51.124C78.183 51.5523 78.6542 51.8093 79.0825 51.895C79.5108 51.895 79.8535 51.895 80.1105 51.895C85.2505 50.9527 90.262 50.1817 95.145 49.582C100.028 48.9823 104.911 48.0828 109.794 46.8835C114.677 45.6842 119.26 44.0993 123.543 42.129C127.827 40.073 131.853 37.4173 135.622 34.162C137.593 32.5343 139.263 30.7782 140.634 28.8935C142.005 26.9232 142.99 24.7387 143.589 22.34C144.018 20.1127 143.889 18.2708 143.204 16.8145C142.519 15.2725 141.191 13.9875 139.22 12.9595C137.25 12.0172 135.237 11.5032 133.181 11.4175C131.125 11.2462 128.983 11.289 126.756 11.546C123.329 12.06 120.074 13.0023 116.99 14.373C113.992 15.658 111.079 17.2 108.252 18.999C102.17 22.854 96.7298 27.2658 91.9325 32.2345C87.1352 37.2032 82.809 42.643 78.954 48.554C78.6113 48.9823 78.2687 49.3678 77.926 49.7105C77.5833 50.0532 77.4977 50.5243 77.669 51.124ZM138.145 97.127C138.574 97.7267 138.788 98.1122 138.788 98.2835C138.788 98.4548 138.873 98.669 139.045 98.926C138.873 99.2687 138.702 99.5685 138.531 99.8255C138.359 100.082 138.188 100.211 138.017 100.211C133.305 102.181 128.679 104.366 124.139 106.764C119.684 109.163 115.229 111.647 110.775 114.217C108.804 115.588 106.791 116.787 104.735 117.815C102.679 118.843 100.495 119.614 98.1818 120.129C95.4405 119.614 93.1703 118.201 91.3713 115.888C90.943 114.603 90.7716 113.275 90.8573 111.904C90.8573 110.534 91.0286 109.163 91.3713 107.792C92.3136 104.194 93.8556 100.554 95.9973 96.87C98.139 93.1863 100.623 89.9738 103.45 87.2325C104.136 87.2325 104.735 87.361 105.249 87.618C105.763 87.875 106.106 88.389 106.277 89.16C106.192 90.1023 105.892 91.0018 105.378 91.8585C104.864 92.6295 104.35 93.4433 103.836 94.3C102.122 97.2983 100.495 100.339 98.9528 103.423C97.4965 106.422 96.34 109.549 95.4833 112.804C95.055 113.661 95.3548 114.689 96.3828 115.888C97.6678 115.717 98.91 115.417 100.109 114.988C101.309 114.474 102.465 113.918 103.579 113.318C106.149 111.862 108.505 110.577 110.646 109.463C112.874 108.264 115.272 107.021 117.842 105.736C121.697 103.766 125.21 102.138 128.379 100.853C131.635 99.5685 134.89 98.3263 138.145 97.127ZM104.478 80.422C105.506 79.8223 106.277 79.3512 106.791 79.0085C107.391 78.6658 107.905 78.5373 108.333 78.623C108.762 78.7087 109.233 79.0085 109.747 79.5225C110.261 80.0365 110.903 80.7647 111.674 81.707C111.417 83.249 110.603 84.277 109.233 84.791C108.033 84.791 107.048 84.4912 106.277 83.8915C105.592 83.2062 104.992 82.0497 104.478 80.422ZM140.624 109.591C139.682 109.763 138.953 109.634 138.439 109.206C137.84 108.692 137.326 108.049 136.897 107.278C137.326 105.308 137.883 103.166 138.568 100.853C139.168 98.5405 140.11 96.6558 141.395 95.1995C142.509 94.6855 143.408 94.5998 144.093 94.9425C144.864 95.2852 145.635 95.585 146.406 95.842C149.148 94.1287 151.889 92.5867 154.63 91.216C157.457 89.7597 160.499 88.6888 163.754 88.0035C165.296 88.3462 166.667 88.903 167.866 89.674C169.065 90.3593 170.093 91.4302 170.95 92.8865C171.121 94.0858 171.164 95.328 171.078 96.613C171.078 97.8123 170.864 99.0545 170.436 100.339C170.179 101.796 169.879 103.252 169.536 104.708C169.194 106.165 168.937 107.621 168.765 109.077C168.594 109.763 168.508 110.534 168.508 111.39C168.594 112.247 169.022 113.018 169.793 113.703C171.25 113.446 172.62 113.061 173.905 112.547C175.19 112.033 176.518 111.433 177.889 110.748C180.63 109.292 183.372 107.878 186.113 106.507C188.94 105.137 191.767 103.766 194.594 102.395C195.279 102.053 195.965 101.753 196.65 101.496C197.421 101.153 198.192 100.811 198.963 100.468C199.648 100.297 200.419 100.254 201.276 100.339C202.218 100.339 202.989 100.596 203.589 101.111C203.76 101.539 203.589 101.881 203.075 102.138C202.561 102.31 202.175 102.481 201.918 102.652C200.376 103.423 198.792 104.194 197.164 104.965C195.622 105.736 194.123 106.507 192.666 107.278C190.353 108.478 187.998 109.677 185.599 110.876C183.286 111.99 181.016 113.318 178.788 114.86C178.446 115.117 178.06 115.374 177.632 115.631C177.204 115.802 176.775 115.974 176.347 116.145C172.578 118.629 168.98 118.458 165.553 115.631C164.182 114.003 163.411 112.333 163.24 110.619C163.154 108.82 163.326 106.979 163.754 105.094C164.011 103.466 164.311 101.924 164.653 100.468C164.996 98.926 165.382 97.384 165.81 95.842C165.896 95.4137 165.896 94.9853 165.81 94.557C165.81 94.043 165.81 93.5718 165.81 93.1435C165.125 92.3725 164.311 92.1583 163.368 92.501C159.513 93.9573 155.873 95.842 152.446 98.155C149.105 100.382 145.978 103.124 143.065 106.379C142.637 106.893 142.166 107.493 141.652 108.178C141.224 108.863 140.881 109.334 140.624 109.591ZM171.91 190.932C171.396 189.476 171.182 187.977 171.267 186.435C171.267 184.893 171.396 183.393 171.653 181.937C172.595 176.54 173.837 171.186 175.379 165.875C176.921 160.563 178.549 155.209 180.262 149.812C181.719 145.7 183.346 141.545 185.145 137.348C186.859 133.15 188.658 129.081 190.542 125.14C191.399 123.17 192.298 121.242 193.241 119.357C194.183 117.387 195.168 115.417 196.196 113.446C199.109 107.45 202.236 101.624 205.577 95.9705C209.003 90.3165 212.516 84.7053 216.114 79.137C216.542 78.4517 216.885 77.8092 217.142 77.2095C217.484 76.5242 217.87 75.9245 218.298 75.4105C217.956 74.8108 217.656 74.2968 217.399 73.8685C217.142 73.3545 216.928 72.8833 216.756 72.455C216.756 71.941 216.799 71.5127 216.885 71.17C217.227 70.913 217.484 70.6132 217.656 70.2705C217.913 69.9278 218.213 69.5852 218.555 69.2425C220.526 67.5292 222.453 65.9015 224.338 64.3595C226.222 62.7318 228.064 61.1042 229.863 59.4765C230.549 59.3052 231.063 59.348 231.405 59.605C231.834 59.7763 232.176 60.0333 232.433 60.376C232.69 61.3183 232.647 62.2178 232.305 63.0745C231.105 64.8735 229.863 66.7582 228.578 68.7285C227.293 70.6988 225.923 72.6692 224.466 74.6395C222.582 77.8092 220.697 80.936 218.812 84.02C217.013 87.0183 215.129 90.1452 213.158 93.4005C212.901 93.8288 212.644 94.3 212.387 94.814C212.216 95.2423 212.216 95.7563 212.387 96.356C212.559 97.0413 212.987 97.5982 213.672 98.0265C214.358 98.4548 214.829 99.0117 215.086 99.697C215.428 100.211 215.728 100.768 215.985 101.367C216.328 101.881 216.842 102.353 217.527 102.781C217.956 102.781 218.384 102.824 218.812 102.909C219.326 102.995 219.883 102.952 220.483 102.781C221.682 102.353 222.924 101.881 224.209 101.367C225.58 100.768 226.865 100.211 228.064 99.697C229.264 99.2687 230.42 98.8403 231.534 98.412C232.733 97.898 234.018 97.4268 235.389 96.9985C237.359 96.3132 238.815 95.9705 239.758 95.9705C240.786 95.9705 241.557 96.4417 242.071 97.384C240.614 97.898 238.944 98.5833 237.059 99.44C235.175 100.211 233.59 100.896 232.305 101.496C230.848 102.181 229.435 102.824 228.064 103.423C226.694 104.023 225.366 104.666 224.081 105.351C222.796 105.437 221.682 105.651 220.74 105.993C219.797 106.336 218.598 106.25 217.142 105.736C216.97 105.908 216.799 106.079 216.628 106.25C216.542 106.422 216.499 106.593 216.499 106.764C216.157 112.076 215.257 117.216 213.801 122.185C212.344 127.239 210.802 132.208 209.175 137.091C208.318 139.661 207.333 142.188 206.219 144.672C205.191 147.156 204.206 149.598 203.264 151.997C201.293 157.222 199.023 162.234 196.453 167.031C193.883 171.828 191.099 176.54 188.101 181.166C187.073 182.622 185.916 183.993 184.631 185.278C183.346 186.563 182.018 187.805 180.648 189.005C179.448 190.118 178.163 190.889 176.793 191.318C175.336 191.832 173.709 191.703 171.91 190.932ZM176.793 187.463C177.135 187.291 177.435 187.12 177.692 186.949C177.949 186.863 178.121 186.649 178.206 186.306C180.005 184.25 181.719 182.066 183.346 179.753C184.974 177.525 186.473 175.169 187.844 172.685C190.157 168.145 192.427 163.562 194.654 158.936C196.796 154.395 198.766 149.726 200.565 144.929C202.364 139.618 204.249 134.264 206.219 128.867C208.19 123.555 209.56 118.03 210.331 112.29C210.503 110.834 210.631 109.377 210.717 107.921C210.888 106.465 210.888 105.051 210.717 103.68C210.717 103.252 210.588 102.695 210.331 102.01C209.989 101.924 209.646 101.924 209.303 102.01C208.961 102.096 208.704 102.31 208.532 102.652C208.104 103.166 207.676 103.68 207.247 104.194C206.905 104.708 206.605 105.222 206.348 105.736C203.606 111.133 200.865 116.53 198.124 121.928C195.382 127.41 192.855 132.979 190.542 138.633C187.458 145.572 184.803 152.553 182.575 159.578C180.262 166.603 178.335 173.799 176.793 181.166C176.536 182.108 176.364 183.094 176.279 184.122C176.193 185.235 176.364 186.349 176.793 187.463ZM267.364 48.6825C264.794 48.5112 262.31 48.7682 259.911 49.4535C257.512 50.1388 255.071 50.7385 252.587 51.2525C247.704 52.3662 242.778 53.5655 237.809 54.8505C232.755 56.0498 228.043 57.8917 223.674 60.376C223.074 60.5473 222.518 60.7187 222.004 60.89C221.404 61.0613 220.933 60.7615 220.59 59.9905C220.162 59.1338 220.205 58.577 220.719 58.32C221.233 57.9773 221.747 57.5918 222.261 57.1635C224.231 56.2212 226.201 55.3217 228.172 54.465C230.056 53.5227 232.069 52.666 234.211 51.895C239.865 50.096 245.562 48.6397 251.302 47.526C257.041 46.4123 262.867 45.2987 268.778 44.185C270.234 44.0137 271.433 43.6282 272.376 43.0285C273.318 42.3432 274.217 41.5293 275.074 40.587C279.957 34.933 285.14 29.7073 290.623 24.91C296.105 20.1127 302.145 15.8293 308.741 12.06C313.367 9.31866 318.122 7.04849 323.005 5.24949C327.888 3.36483 333.113 2.25116 338.682 1.9085C345.192 0.96616 351.275 2.12266 356.929 5.378C359.156 6.40599 361.083 7.73383 362.711 9.36149C364.339 10.9035 365.624 12.7025 366.566 14.7585C369.05 20.9265 367.723 25.8952 362.583 29.6645C361.126 30.7782 359.627 31.7205 358.085 32.4915C356.543 33.2625 355.001 33.9907 353.459 34.676C347.976 36.6463 342.408 38.1455 336.754 39.1735C331.186 40.1158 325.446 40.844 319.535 41.358C313.367 42.2147 307.285 43.0285 301.288 43.7995C295.291 44.4848 289.166 45.0417 282.913 45.47C280.771 45.8983 278.972 46.5408 277.516 47.3975C276.059 48.2542 274.689 49.5392 273.404 51.2525C266.807 59.9905 261.025 69.0283 256.056 78.366C251.173 87.7037 247.318 97.7267 244.491 108.435C243.806 109.977 243.377 111.947 243.206 114.346C243.206 115.631 243.42 116.445 243.849 116.787C244.363 117.13 245.262 117.044 246.547 116.53C248.003 115.588 249.331 114.646 250.531 113.703C251.73 112.675 253.015 111.733 254.386 110.876C256.784 109.077 258.797 107.664 260.425 106.636C262.138 105.522 263.68 104.58 265.051 103.809C266.422 103.038 267.707 102.353 268.906 101.753C270.191 101.068 271.605 100.339 273.147 99.5685C273.575 99.0545 274.217 98.6262 275.074 98.2835C275.931 97.9408 276.787 97.7695 277.644 97.7695C277.987 97.5982 278.115 97.4697 278.03 97.384C278.03 97.2983 278.115 97.4268 278.287 97.7695C278.715 98.1978 278.843 98.5405 278.672 98.7975C278.586 98.9688 278.329 99.2258 277.901 99.5685C275.331 101.025 272.247 102.824 268.649 104.965C265.051 107.021 260.511 110.148 255.028 114.346C253.914 115.288 252.929 116.231 252.073 117.173C251.302 118.115 250.188 118.886 248.732 119.486C245.99 120.343 243.72 120.086 241.921 118.715C240.208 117.259 239.522 115.074 239.865 112.161C240.379 106.679 241.45 101.453 243.078 96.4845C244.705 91.5158 246.59 86.5472 248.732 81.5785C251.045 76.6098 253.572 71.7268 256.313 66.9295C259.14 62.0465 262.181 57.292 265.437 52.666C265.865 52.152 266.293 51.5952 266.722 50.9955C267.15 50.3958 267.364 49.6248 267.364 48.6825ZM282.913 40.9725C283.512 41.1438 283.983 41.2723 284.326 41.358C284.669 41.358 285.011 41.358 285.354 41.358C292.293 40.5013 299.232 39.6018 306.171 38.6595C313.196 37.7172 320.263 36.7748 327.374 35.8325C332.257 34.9758 336.925 34.0335 341.38 33.0055C345.92 31.8918 350.418 30.3498 354.873 28.3795C356.329 27.7798 357.785 27.0517 359.242 26.195C360.698 25.2527 361.94 24.0962 362.968 22.7255C364.424 21.0978 365.11 19.6415 365.024 18.3565C365.024 16.9858 364.21 15.4867 362.583 13.859C360.869 11.8887 358.899 10.4323 356.672 9.49C354.444 8.462 352.088 7.64816 349.604 7.04849C345.492 6.19183 341.551 6.02049 337.782 6.5345C334.098 7.0485 330.329 7.948 326.474 9.23299C317.907 12.4027 310.112 16.6003 303.087 21.826C296.148 27.0517 289.68 33.0055 283.684 39.6875C283.512 39.8588 283.384 40.0302 283.298 40.2015C283.212 40.3728 283.084 40.6298 282.913 40.9725ZM280.572 109.72C280.144 110.834 280.058 111.733 280.315 112.418C280.658 113.104 281.129 113.789 281.729 114.474C282.843 115.074 283.956 115.331 285.07 115.245C286.269 115.16 287.426 114.903 288.539 114.474C291.623 113.275 294.707 112.161 297.791 111.133C300.875 110.02 304.002 108.863 307.172 107.664C308.885 106.979 310.642 106.379 312.441 105.865C314.325 105.265 316.21 104.623 318.095 103.937C319.208 103.509 320.407 103.209 321.693 103.038C322.978 102.867 324.048 102.781 324.905 102.781C325.762 103.038 326.147 103.809 326.062 105.094C325.119 105.522 324.091 105.908 322.978 106.25C321.864 106.593 320.793 106.979 319.765 107.407C318.566 107.835 317.409 108.306 316.296 108.82C315.267 109.249 314.154 109.677 312.954 110.105C310.984 111.048 309.057 111.904 307.172 112.675C305.373 113.446 303.531 114.26 301.646 115.117C299.933 115.888 298.22 116.573 296.507 117.173C294.879 117.687 293.208 118.287 291.495 118.972C290.296 119.4 289.096 119.614 287.897 119.614C286.783 119.614 285.67 119.529 284.556 119.357C282.671 118.329 281.044 117.173 279.673 115.888C278.388 114.517 277.274 112.89 276.332 111.005C275.475 107.407 275.604 104.194 276.717 101.367C277.831 98.4548 279.544 95.585 281.857 92.758C282.543 92.3297 283.314 91.8585 284.17 91.3445C285.113 90.7448 286.055 90.2737 286.997 89.931C287.94 89.5027 288.925 89.1172 289.953 88.7745C290.981 88.4318 291.966 88.0463 292.908 87.618C295.05 88.132 296.806 89.1172 298.177 90.5735C299.034 92.1155 299.162 93.8288 298.563 95.7135C297.278 97.3412 296.207 98.669 295.35 99.697C294.579 100.639 293.594 101.539 292.394 102.395C291.281 103.252 289.824 104.237 288.025 105.351C286.226 106.379 283.742 107.835 280.572 109.72ZM281.215 103.038C283.1 102.181 284.684 101.41 285.969 100.725C287.34 100.04 288.497 99.3972 289.439 98.7975C290.381 98.1122 291.152 97.384 291.752 96.613C292.437 95.842 293.123 94.9853 293.808 94.043C293.38 93.529 292.951 93.3148 292.523 93.4005C292.095 93.4005 291.666 93.4862 291.238 93.6575C289.182 94.5142 287.426 95.6707 285.969 97.127C284.513 98.5833 282.928 100.554 281.215 103.038ZM321.242 112.932C319.186 112.076 318.029 110.919 317.772 109.463C318.115 108.521 318.672 107.878 319.443 107.535C320.214 107.193 320.899 106.807 321.499 106.379C321.927 105.694 322.527 105.137 323.298 104.708C323.983 104.194 324.668 103.723 325.354 103.295C327.238 101.667 328.995 99.9968 330.622 98.2835C332.336 96.4845 333.835 94.4713 335.12 92.244C335.034 92.1583 334.948 92.0298 334.863 91.8585C334.777 91.7728 334.734 91.6015 334.734 91.3445C333.963 91.4302 333.321 91.5158 332.807 91.6015C332.293 91.6872 331.736 91.8585 331.136 92.1155C330.622 92.3725 330.023 92.7152 329.337 93.1435C328.738 93.5718 327.924 94.1287 326.896 94.814C326.724 94.814 326.596 94.7712 326.51 94.6855C326.339 94.5142 326.168 94.4285 325.996 94.4285C325.225 93.6575 325.011 92.7152 325.354 91.6015C326.553 90.0595 328.052 89.0315 329.851 88.5175C331.65 87.9178 333.492 87.2753 335.377 86.59C336.062 86.9327 336.619 87.1897 337.047 87.361C337.561 87.5323 338.032 87.7893 338.461 88.132C338.975 88.5603 339.232 89.1172 339.232 89.8025C339.317 90.4878 339.703 91.0018 340.388 91.3445C342.016 90.6592 343.429 89.8025 344.629 88.7745C345.914 87.6608 347.413 86.9327 349.126 86.59C350.326 86.59 351.097 86.8898 351.439 87.4895C351.782 88.0035 351.953 88.7317 351.953 89.674C351.525 90.6163 350.968 91.3873 350.283 91.987C349.597 92.501 348.912 93.1007 348.227 93.786C347.113 94.557 346.085 95.2852 345.143 95.9705C344.2 96.5702 343.258 97.2127 342.316 97.898C341.545 98.5833 340.774 99.2687 340.003 99.954C339.232 100.554 338.546 101.325 337.947 102.267C337.775 102.61 337.69 102.909 337.69 103.166C337.69 103.338 337.775 103.895 337.947 104.837C338.803 105.694 339.831 105.779 341.031 105.094C343.087 104.323 345.186 103.552 347.327 102.781C349.469 101.924 351.568 101.025 353.624 100.082C356.108 99.1402 358.378 98.412 360.434 97.898C362.576 97.384 365.232 96.7843 368.401 96.099C369.515 95.585 370.586 95.2852 371.614 95.1995C372.727 95.1138 373.755 95.1567 374.698 95.328C375.383 96.0133 375.469 96.4845 374.955 96.7415C374.526 96.9985 374.098 97.2127 373.67 97.384C369.558 98.5833 365.746 99.8255 362.233 101.111C358.807 102.31 355.209 103.852 351.439 105.736C350.497 106.165 349.555 106.55 348.612 106.893C347.67 107.236 346.728 107.578 345.785 107.921C344.929 108.435 344.115 108.735 343.344 108.82C342.573 108.906 341.716 108.949 340.774 108.949C339.574 108.949 338.504 108.778 337.561 108.435C336.619 108.007 335.805 107.236 335.12 106.122C334.948 105.951 334.734 105.779 334.477 105.608C334.22 105.351 334.006 105.094 333.835 104.837C331.436 105.951 329.337 107.321 327.538 108.949C325.739 110.491 323.64 111.819 321.242 112.932Z" fill="#324320"/>
</svg>
