<svg width="108" height="106" viewBox="0 0 108 106" fill="none" xmlns="http://www.w3.org/2000/svg">
<path d="M1.88782 89.1211C1.69688 89.1211 1.56323 89.0542 1.48686 88.9206C1.41048 88.7869 1.3723 88.6437 1.3723 88.491C1.39139 88.1664 1.46776 87.985 1.60142 87.9468C1.73507 87.9086 1.89736 87.8896 2.0883 87.8896C2.69928 87.8896 3.12888 87.7845 3.3771 87.5745C3.62531 87.3454 3.77806 87.0685 3.83534 86.744C3.91171 86.4003 3.9499 86.047 3.9499 85.6843V74.3142C3.9499 73.9514 3.91171 73.6077 3.83534 73.2832C3.77806 72.9395 3.62531 72.6626 3.3771 72.4526C3.12888 72.2235 2.69928 72.1089 2.0883 72.1089C1.89736 72.1089 1.73507 72.0898 1.60142 72.0516C1.46776 72.0134 1.39139 71.8321 1.3723 71.5075C1.3723 71.3547 1.41048 71.2115 1.48686 71.0779C1.56323 70.9442 1.69688 70.8774 1.88782 70.8774C2.4988 70.8965 3.0716 70.9156 3.60622 70.9347C4.14083 70.9538 4.69454 70.9633 5.26734 70.9633C6.43203 70.9633 7.62536 70.9347 8.84734 70.8774C9.03827 70.8774 9.17192 70.9442 9.2483 71.0779C9.32467 71.2115 9.36286 71.3547 9.36286 71.5075C9.34376 71.8321 9.26739 72.0134 9.13374 72.0516C9.01918 72.0898 8.85688 72.1089 8.64686 72.1089C8.05496 72.1089 7.62536 72.2235 7.35806 72.4526C7.10984 72.6626 6.9571 72.9395 6.89982 73.2832C6.84254 73.6077 6.80435 73.9514 6.78526 74.3142V79.498C7.10984 79.4217 7.48216 79.2307 7.90222 78.9252C8.34136 78.6006 8.78051 78.257 9.21966 77.8942C9.9452 77.2259 10.6517 76.5099 11.339 75.7462C12.0264 74.9634 12.666 74.2187 13.2579 73.5123C14.0216 72.6531 13.9357 72.1948 13.0001 72.1376C12.7901 72.1185 12.6565 71.918 12.5992 71.5361C12.5992 71.3643 12.6469 71.2115 12.7424 71.0779C12.8378 70.9442 12.962 70.8774 13.1147 70.8774C13.6111 70.9156 14.1362 70.9442 14.6899 70.9633C15.2436 70.9633 15.7687 70.9633 16.2651 70.9633C16.647 70.9633 17.0861 70.9538 17.5825 70.9347C18.079 70.9156 18.5086 70.8965 18.8713 70.8774C19.0623 70.8774 19.1959 70.9442 19.2723 71.0779C19.3678 71.2115 19.4155 71.3643 19.4155 71.5361C19.3964 71.8225 19.3296 71.9944 19.215 72.0516C19.1196 72.1089 18.9954 72.1376 18.8427 72.1376C18.1362 72.0994 17.4393 72.2139 16.752 72.4812C16.0646 72.7485 15.3295 73.2736 14.5467 74.0564C14.2985 74.3237 13.9739 74.6674 13.5729 75.0875C13.1911 75.4884 12.7806 75.9085 12.3414 76.3476C11.9214 76.7868 11.5204 77.1973 11.1385 77.5792C10.7758 77.961 10.4798 78.2761 10.2507 78.5243C10.0216 78.7725 9.90702 78.8966 9.90702 78.8966C11.0335 80.2522 12.1696 81.5028 13.3152 82.6484C14.4799 83.794 15.4727 84.806 16.2937 85.6843C16.9429 86.3334 17.468 86.849 17.8689 87.2308C18.289 87.5936 18.8236 87.8132 19.4728 87.8896C19.6255 87.9086 19.7783 87.9373 19.931 87.9755C20.0838 87.9946 20.1697 88.1664 20.1888 88.491C20.1888 88.6437 20.1506 88.7869 20.0742 88.9206C19.9978 89.0542 19.8642 89.1211 19.6733 89.1211C19.2723 89.102 18.9573 89.0829 18.7281 89.0638C18.5181 89.0638 18.3081 89.0542 18.0981 89.0352C17.9071 89.0352 17.6207 89.0352 17.2389 89.0352H15.4059C14.3558 87.8705 13.277 86.6676 12.1696 85.4265C11.0813 84.1854 9.90702 82.8394 8.64686 81.3883C8.30318 80.9873 7.97859 80.7009 7.6731 80.5291C7.3867 80.3572 7.09075 80.2618 6.78526 80.2427V85.6843C6.80435 86.047 6.84254 86.4003 6.89982 86.744C6.9571 87.0685 7.10984 87.3454 7.35806 87.5745C7.62536 87.7845 8.05496 87.8896 8.64686 87.8896C8.85688 87.8896 9.01918 87.9086 9.13374 87.9468C9.26739 87.985 9.34376 88.1664 9.36286 88.491C9.36286 88.6437 9.32467 88.7869 9.2483 88.9206C9.17192 89.0542 9.03827 89.1211 8.84734 89.1211C7.62536 89.0638 6.44158 89.0352 5.29598 89.0352C4.72318 89.0352 4.15992 89.0352 3.60622 89.0352C3.0716 89.0542 2.4988 89.0829 1.88782 89.1211ZM26.8957 89.3788C25.4255 89.3788 24.1844 89.0638 23.1725 88.4337C22.1796 87.8036 21.435 86.9635 20.9386 85.9134C20.4421 84.8633 20.1939 83.7177 20.1939 82.4766C20.1939 81.6365 20.3371 80.825 20.6235 80.0422C20.929 79.2403 21.3586 78.5147 21.9123 77.8656C22.466 77.1973 23.1343 76.6722 23.9171 76.2904C24.7 75.9085 25.5878 75.7176 26.5806 75.7176C28.3372 75.7176 29.6547 76.1758 30.533 77.0923C31.4304 77.9897 31.9459 79.1353 32.0795 80.5291C32.0795 81.1973 31.8886 81.6365 31.5067 81.8465C31.144 82.0565 30.6666 82.1616 30.0747 82.1616H23.1152C23.1152 83.269 23.268 84.2618 23.5734 85.1401C23.8789 85.9993 24.3563 86.6867 25.0054 87.2022C25.6737 87.6986 26.552 87.9468 27.6403 87.9468C28.4422 87.9468 29.1296 87.775 29.7024 87.4313C30.2752 87.0876 30.8289 86.4862 31.3635 85.627C31.5163 85.4361 31.7263 85.4265 31.9936 85.5984C32.1464 85.6747 32.2418 85.7988 32.28 85.9707C32.3182 86.1234 32.2991 86.2571 32.2227 86.3716C31.6308 87.3072 30.8862 88.0423 29.9888 88.5769C29.0914 89.1115 28.0604 89.3788 26.8957 89.3788ZM23.1152 81.0732H27.7835C28.2418 81.0732 28.6045 80.9873 28.8718 80.8155C29.1582 80.6245 29.311 80.3095 29.3301 79.8704C29.3301 79.0493 29.101 78.3238 28.6427 77.6937C28.2036 77.0445 27.5162 76.72 26.5806 76.72C25.626 76.72 24.8241 77.1018 24.1749 77.8656C23.5448 78.6293 23.1916 79.6985 23.1152 81.0732ZM34.8276 89.1211C34.694 89.1211 34.5794 89.0638 34.4839 88.9492C34.4076 88.8156 34.3694 88.6819 34.3694 88.5483C34.3885 88.2619 34.4553 88.1091 34.5699 88.09C34.7035 88.0518 34.8563 88.0328 35.0281 88.0328C35.5627 88.0328 35.9255 87.9468 36.1164 87.775C36.3264 87.5841 36.441 87.3358 36.4601 87.0304C36.4983 86.7249 36.5174 86.4098 36.5174 86.0852V79.5267C36.5174 79.183 36.4983 78.868 36.4601 78.5816C36.441 78.2761 36.336 78.0374 36.1451 77.8656C35.9541 77.6746 35.5914 77.5792 35.0567 77.5792C34.8849 77.5792 34.7226 77.5601 34.5699 77.5219C34.4362 77.4646 34.3694 77.2928 34.3694 77.0064C34.3694 76.72 34.5221 76.5481 34.8276 76.4908C35.7059 76.3572 36.3742 76.2235 36.8324 76.0899C37.3098 75.9562 37.663 75.8417 37.8921 75.7462C38.1403 75.6507 38.3599 75.5934 38.5508 75.5744C38.7036 75.5553 38.8277 75.5839 38.9231 75.6603C39.0377 75.7366 39.095 75.8894 39.095 76.1185V77.9228H39.1809C39.5628 77.5601 39.9351 77.2164 40.2979 76.8918C40.6606 76.5481 41.0998 76.2713 41.6153 76.0612C42.1308 75.8321 42.7895 75.7176 43.5915 75.7176C44.527 75.7176 45.329 75.918 45.9972 76.319C46.6655 76.7009 47.1524 77.2355 47.4579 77.9228H47.5151C47.897 77.5601 48.298 77.2164 48.718 76.8918C49.1381 76.5481 49.6345 76.2713 50.2073 76.0612C50.7801 75.8321 51.4675 75.7176 52.2694 75.7176C53.5677 75.7176 54.5988 76.109 55.3625 76.8918C56.1262 77.6746 56.5081 78.7057 56.5081 79.9849V86.0852C56.5081 86.4098 56.5176 86.7249 56.5367 87.0304C56.5749 87.3358 56.6895 87.5841 56.8804 87.775C57.0904 87.9468 57.4628 88.0328 57.9974 88.0328C58.1692 88.0328 58.3124 88.0518 58.427 88.09C58.5606 88.1091 58.637 88.2619 58.6561 88.5483C58.6561 88.6819 58.6179 88.8156 58.5415 88.9492C58.4652 89.0638 58.3506 89.1211 58.1979 89.1211C57.6442 89.0829 57.1286 89.0542 56.6513 89.0352C56.1931 89.0352 55.7062 89.0352 55.1907 89.0352C54.6751 89.0352 54.1883 89.0352 53.73 89.0352C53.2718 89.0542 52.7658 89.0829 52.2121 89.1211C52.0594 89.1211 51.9448 89.0638 51.8684 88.9492C51.792 88.8156 51.7539 88.6819 51.7539 88.5483C51.773 88.2619 51.8398 88.1091 51.9543 88.09C52.088 88.0518 52.2407 88.0328 52.4126 88.0328C52.9472 88.0328 53.31 87.9468 53.5009 87.775C53.7109 87.5841 53.8255 87.3358 53.8446 87.0304C53.8828 86.7249 53.9019 86.4098 53.9019 86.0852V80.0136C53.9019 79.3835 53.7587 78.868 53.4723 78.467C53.205 78.066 52.8613 77.7701 52.4412 77.5792C52.0212 77.3882 51.5916 77.2928 51.1524 77.2928C50.5032 77.2928 49.9495 77.4169 49.4913 77.6651C49.0331 77.8942 48.6703 78.1615 48.403 78.467C48.1357 78.7725 47.9447 79.0398 47.8302 79.2689V86.0852C47.8302 86.4098 47.8302 86.7249 47.8302 87.0304C47.8493 87.3358 47.9447 87.5841 48.1166 87.775C48.3075 87.9468 48.6703 88.0328 49.2049 88.0328C49.3958 88.0328 49.5486 88.0518 49.6631 88.09C49.7777 88.1091 49.8445 88.2619 49.8636 88.5483C49.8636 88.6819 49.8254 88.8156 49.7491 88.9492C49.6727 89.0638 49.5581 89.1211 49.4054 89.1211C48.8517 89.0829 48.3552 89.0542 47.9161 89.0352C47.477 89.0352 46.9996 89.0352 46.4841 89.0352C45.9877 89.0352 45.5199 89.0352 45.0807 89.0352C44.6607 89.0542 44.1738 89.0829 43.6201 89.1211C43.4674 89.1211 43.3528 89.0638 43.2764 88.9492C43.2 88.8156 43.1619 88.6819 43.1619 88.5483C43.181 88.2619 43.2478 88.1091 43.3623 88.09C43.4769 88.0518 43.6296 88.0328 43.8206 88.0328C44.3552 88.0328 44.7084 87.9468 44.8803 87.775C45.0712 87.5841 45.1667 87.3358 45.1667 87.0304C45.1858 86.7249 45.1953 86.4098 45.1953 86.0852V80.0136C45.1953 79.0589 44.9089 78.3715 44.3361 77.9515C43.7633 77.5123 43.1428 77.2928 42.4745 77.2928C41.8062 77.2928 41.243 77.4169 40.7847 77.6651C40.3265 77.8942 39.9637 78.1615 39.6964 78.467C39.4291 78.7725 39.2382 79.0398 39.1236 79.2689V86.0852C39.1236 86.4098 39.1332 86.7249 39.1523 87.0304C39.1904 87.3358 39.305 87.5841 39.4959 87.775C39.706 87.9468 40.0783 88.0328 40.6129 88.0328C40.7847 88.0328 40.9279 88.0518 41.0425 88.09C41.1762 88.1091 41.2525 88.2619 41.2716 88.5483C41.2716 88.6819 41.2334 88.8156 41.1571 88.9492C41.0807 89.0638 40.9661 89.1211 40.8134 89.1211C40.2597 89.0829 39.7442 89.0542 39.2668 89.0352C38.8086 89.0352 38.3217 89.0352 37.8062 89.0352C37.2907 89.0352 36.8038 89.0352 36.3455 89.0352C35.8873 89.0542 35.3813 89.0829 34.8276 89.1211ZM60.4743 89.1211C60.3406 89.1211 60.2261 89.0638 60.1306 88.9492C60.0542 88.8156 60.0161 88.6819 60.0161 88.5483C60.0542 88.2619 60.1306 88.1091 60.2452 88.09C60.3597 88.0518 60.5125 88.0328 60.7034 88.0328C61.238 88.0328 61.6008 87.9468 61.7917 87.775C61.9827 87.5841 62.0877 87.3358 62.1068 87.0304C62.145 86.7249 62.1641 86.4098 62.1641 86.0852V79.5267C62.1641 79.183 62.145 78.868 62.1068 78.5816C62.0877 78.2761 61.9827 78.0374 61.7917 77.8656C61.6008 77.6746 61.238 77.5792 60.7034 77.5792C60.5316 77.5792 60.3693 77.5601 60.2165 77.5219C60.0829 77.4646 60.0161 77.2928 60.0161 77.0064C60.0161 76.72 60.1688 76.5481 60.4743 76.4908C61.3526 76.3572 62.0209 76.2235 62.4791 76.0899C62.9564 75.9562 63.3192 75.8417 63.5674 75.7462C63.8156 75.6507 64.0352 75.5934 64.2261 75.5744C64.3789 75.5553 64.503 75.5839 64.5985 75.6603C64.713 75.7366 64.7703 75.8894 64.7703 76.1185V86.0852C64.7703 86.4098 64.7798 86.7249 64.7989 87.0304C64.8371 87.3358 64.9517 87.5841 65.1426 87.775C65.3526 87.9468 65.725 88.0328 66.2596 88.0328C66.4314 88.0328 66.5746 88.0518 66.6892 88.09C66.8228 88.1091 66.8992 88.2619 66.9183 88.5483C66.9183 88.6819 66.8801 88.8156 66.8037 88.9492C66.7274 89.0638 66.6128 89.1211 66.4601 89.1211C65.9063 89.0829 65.3908 89.0542 64.9135 89.0352C64.4553 89.0352 63.9684 89.0352 63.4529 89.0352C62.9373 89.0352 62.4505 89.0352 61.9922 89.0352C61.534 89.0542 61.028 89.0829 60.4743 89.1211ZM63.3097 72.3953C62.775 72.3953 62.3263 72.233 61.9636 71.9084C61.6008 71.5648 61.4194 71.1447 61.4194 70.6483C61.4194 70.2091 61.639 69.8177 62.0781 69.474C62.5173 69.1304 63.0137 68.9585 63.5674 68.9585C64.0447 68.9585 64.4362 69.1304 64.7417 69.474C65.0471 69.7986 65.1999 70.2187 65.1999 70.7342C65.1999 71.1924 65.0185 71.5838 64.6557 71.9084C64.293 72.233 63.8443 72.3953 63.3097 72.3953ZM73.789 89.3788C72.3188 89.3788 71.0873 89.1211 70.0944 88.6056C69.1207 88.0709 68.6338 87.3072 68.6338 86.3144C68.6338 85.7606 68.7961 85.312 69.1207 84.9683C69.4643 84.6246 69.9035 84.4528 70.4381 84.4528C70.7818 84.4528 71.0586 84.5482 71.2687 84.7392C71.4978 84.911 71.6123 85.0351 71.6123 85.1115C71.6123 85.1688 71.4978 85.3024 71.2687 85.5124C71.0586 85.7034 70.9536 86.0184 70.9536 86.4576C70.9536 86.9922 71.2018 87.4409 71.6983 87.8036C72.2138 88.1473 72.9871 88.3192 74.0181 88.3192C74.9155 88.3192 75.6124 88.1282 76.1088 87.7464C76.6243 87.3454 76.8821 86.7917 76.8821 86.0852C76.8821 85.5124 76.6912 85.0733 76.3093 84.7678C75.9465 84.4432 75.4692 84.1854 74.8773 83.9945C74.3045 83.8036 73.684 83.6126 73.0157 83.4217C72.3665 83.2308 71.746 82.9921 71.1541 82.7057C70.5622 82.4193 70.0753 82.0279 69.6935 81.5315C69.3307 81.016 69.1493 80.3381 69.1493 79.498C69.1493 78.6388 69.4071 77.9324 69.9226 77.3787C70.4381 76.825 71.0968 76.4145 71.8987 76.1472C72.7007 75.8608 73.5121 75.7176 74.3331 75.7176C75.0396 75.7176 75.7079 75.8226 76.3379 76.0326C76.968 76.2235 77.4835 76.5195 77.8845 76.9204C78.3046 77.3214 78.5146 77.8274 78.5146 78.4384C78.5146 78.9157 78.3618 79.3453 78.0563 79.7272C77.7509 80.109 77.3308 80.3 76.7962 80.3C76.4525 80.3 76.1661 80.214 75.937 80.0422C75.727 79.8513 75.6219 79.7176 75.6219 79.6412C75.6219 79.603 75.6888 79.5362 75.8224 79.4408C75.9752 79.3262 76.1184 79.183 76.252 79.0112C76.3857 78.8202 76.4525 78.5816 76.4525 78.2952C76.4143 77.7414 76.147 77.3309 75.6506 77.0636C75.1542 76.7963 74.6005 76.6627 73.9895 76.6627C73.3212 76.6627 72.7007 76.825 72.1279 77.1496C71.5551 77.4741 71.2687 77.9419 71.2687 78.5529C71.2687 79.1066 71.3832 79.5362 71.6123 79.8417C71.8606 80.1472 72.2424 80.4145 72.7579 80.6436C73.2926 80.8537 73.9799 81.0923 74.82 81.3596C75.6601 81.6269 76.3952 81.9038 77.0253 82.1902C77.6745 82.4766 78.1709 82.8585 78.5146 83.3358C78.8774 83.794 79.0587 84.4241 79.0587 85.226C79.0587 86.028 78.8296 86.744 78.3714 87.374C77.9131 88.0041 77.2831 88.5005 76.4811 88.8633C75.6983 89.207 74.8009 89.3788 73.789 89.3788ZM86.4295 89.522C85.8567 89.522 85.3126 89.3788 84.797 89.0924C84.2815 88.806 83.8519 88.3669 83.5082 87.775C83.1837 87.1831 83.0214 86.4385 83.0214 85.5411V77.1209L81.3602 77.1782C81.2266 77.1782 81.1216 77.1305 81.0452 77.035C80.9879 76.9204 80.9593 76.7963 80.9593 76.6627C80.9593 76.2808 81.0929 76.0612 81.3602 76.004C82.0667 75.8703 82.6013 75.6507 82.9641 75.3452C83.3269 75.0206 83.6037 74.6388 83.7946 74.1996C84.0047 73.7605 84.1956 73.2832 84.3674 72.7676C84.4247 72.6149 84.5106 72.5194 84.6252 72.4812C84.7398 72.424 84.8639 72.3953 84.9975 72.3953C85.1121 72.3953 85.2362 72.424 85.3698 72.4812C85.5226 72.5385 85.599 72.6435 85.599 72.7963L85.3985 76.0612L88.7494 75.8608C88.9212 75.8417 89.0358 75.8894 89.093 76.004C89.1503 76.1185 89.179 76.2522 89.179 76.4049C89.179 76.5958 89.1408 76.7868 89.0644 76.9777C89.0071 77.1686 88.9307 77.2641 88.8353 77.2641L85.6276 77.1782V85.8848C85.6276 86.4385 85.7422 86.9444 85.9713 87.4027C86.2195 87.8609 86.6586 88.09 87.2887 88.09C87.4987 88.09 87.7374 88.0709 88.0047 88.0328C88.272 87.9946 88.5584 87.9086 88.8639 87.775C88.9403 87.7368 89.0167 87.7082 89.093 87.6891C89.1694 87.6509 89.2458 87.6318 89.3222 87.6318C89.4749 87.6318 89.5895 87.6986 89.6658 87.8323C89.7422 87.9468 89.809 88.0709 89.8663 88.2046C89.9236 88.3764 89.8759 88.5101 89.7231 88.6056C89.1312 88.9874 88.5871 89.2356 88.0906 89.3502C87.5942 89.4648 87.0405 89.522 86.4295 89.522ZM93.8446 95.2787C93.2909 95.2787 92.7658 95.1546 92.2694 94.9064C91.7921 94.6581 91.4102 94.324 91.1238 93.904C90.8374 93.503 90.6942 93.0638 90.6942 92.5865C90.7133 92.071 90.8278 91.67 91.0379 91.3836C91.2288 91.1163 91.4484 90.9254 91.6966 90.8108C91.9448 90.7154 92.1548 90.6581 92.3267 90.639C92.4985 90.6199 92.5653 90.6104 92.5272 90.6104C92.8899 90.6104 93.1668 90.6772 93.3577 90.8108C93.5486 90.9636 93.6441 91.0877 93.6441 91.1832C93.6441 91.2213 93.5677 91.3073 93.415 91.4409C93.2813 91.5937 93.205 91.8514 93.1859 92.2142C93.1668 92.5579 93.2718 92.892 93.5009 93.2166C93.73 93.5412 94.0833 93.7035 94.5606 93.7035C95.0952 93.7035 95.5821 93.503 96.0212 93.102C96.4604 92.7202 96.8518 92.2428 97.1955 91.67C97.5392 91.0972 97.8351 90.5435 98.0833 90.0089C98.217 89.5889 98.2074 89.1497 98.0547 88.6915C97.5964 87.6604 97.1477 86.5626 96.7086 85.3979C96.2694 84.2332 95.8398 83.1067 95.4198 82.0184C95.0188 80.93 94.6179 79.9754 94.2169 79.1544C93.9114 78.4479 93.6155 77.9515 93.3291 77.6651C93.0427 77.3596 92.6131 77.1686 92.0403 77.0923C91.7921 77.0541 91.6202 77.0159 91.5248 76.9777C91.4484 76.9395 91.4006 76.7963 91.3816 76.5481C91.3625 76.2235 91.4484 76.0517 91.6393 76.0326C91.8493 75.9944 92.0976 75.9658 92.384 75.9467C93.5677 75.8894 94.4938 76.0612 95.162 76.4622C95.8303 76.8632 96.3745 77.541 96.7945 78.4956C97.0618 79.0875 97.3578 79.8226 97.6824 80.7009C98.0069 81.5792 98.3506 82.467 98.7134 83.3644C99.0762 84.2618 99.4294 85.0733 99.7731 85.7988H99.859L102.666 78.2952C102.857 77.7414 102.866 77.3978 102.694 77.2641C102.523 77.1305 102.15 77.0636 101.577 77.0636C101.406 77.0636 101.262 77.0541 101.148 77.035C101.033 76.9968 100.966 76.8345 100.947 76.5481C100.947 76.4336 100.976 76.3094 101.033 76.1758C101.11 76.0421 101.215 75.9753 101.348 75.9753C101.902 75.9944 102.379 76.0135 102.78 76.0326C103.181 76.0517 103.63 76.0612 104.126 76.0612C104.47 76.0612 104.747 76.0612 104.957 76.0612C105.167 76.0421 105.387 76.0326 105.616 76.0326C105.845 76.0135 106.141 75.9944 106.503 75.9753C106.656 75.9753 106.761 76.0421 106.819 76.1758C106.895 76.3094 106.933 76.4336 106.933 76.5481C106.914 76.8345 106.838 76.9968 106.704 77.035C106.589 77.0541 106.456 77.0636 106.303 77.0636C105.673 77.0636 105.167 77.1782 104.785 77.4073C104.422 77.6364 104.107 78.0851 103.84 78.7534C103.84 78.7534 103.735 79.0016 103.525 79.498C103.334 79.9945 103.076 80.6436 102.752 81.4456C102.427 82.2475 102.083 83.0971 101.721 83.9945C101.358 84.8728 101.014 85.7129 100.69 86.5148C100.365 87.3168 100.098 87.9755 99.8876 88.491C99.6776 89.0065 99.563 89.2834 99.544 89.3216C99.2957 89.9134 98.9902 90.5531 98.6275 91.2404C98.2838 91.9469 97.8733 92.5961 97.396 93.188C96.9377 93.7989 96.4126 94.2954 95.8208 94.6772C95.2289 95.0782 94.5701 95.2787 93.8446 95.2787Z" fill="#324320"/>
<path d="M20.1733 103.268C19.7275 103.268 19.3245 103.186 18.9642 103.021C18.6039 102.856 18.2955 102.633 18.0391 102.352C17.7826 102.071 17.5872 101.754 17.4528 101.4C17.3185 101.039 17.2513 100.664 17.2513 100.273C17.2513 99.7662 17.3368 99.3174 17.5078 98.9266C17.6849 98.5357 17.9169 98.206 18.2039 97.9373C18.4909 97.6686 18.8054 97.4671 19.1474 97.3327C19.4955 97.1923 19.8375 97.122 20.1733 97.122C20.6313 97.122 21.0405 97.2045 21.4008 97.3694C21.7672 97.5342 22.0786 97.7571 22.3351 98.038C22.5916 98.319 22.787 98.6396 22.9213 98.9998C23.0557 99.354 23.1229 99.7235 23.1229 100.108C23.1229 100.615 23.0343 101.064 22.8572 101.455C22.6801 101.846 22.445 102.175 22.1519 102.444C21.8588 102.713 21.5382 102.917 21.1901 103.058C20.8481 103.198 20.5092 103.268 20.1733 103.268ZM20.1642 102.865C20.5977 102.865 20.9519 102.737 21.2267 102.481C21.5015 102.224 21.7031 101.888 21.8313 101.473C21.9656 101.052 22.0328 100.597 22.0328 100.108C22.0328 99.6502 21.9626 99.2258 21.8221 98.835C21.6878 98.438 21.4832 98.1205 21.2084 97.8823C20.9336 97.6381 20.5855 97.5159 20.1642 97.5159C19.7367 97.5159 19.3856 97.6442 19.1108 97.9006C18.8421 98.151 18.6436 98.4838 18.5154 98.8991C18.3871 99.3082 18.323 99.7571 18.323 100.246C18.323 100.704 18.3871 101.134 18.5154 101.537C18.6497 101.934 18.8543 102.255 19.1291 102.499C19.4039 102.743 19.7489 102.865 20.1642 102.865ZM23.9607 103.113C23.918 103.113 23.8813 103.094 23.8508 103.058C23.8264 103.015 23.8141 102.972 23.8141 102.929C23.8264 102.838 23.8508 102.789 23.8874 102.783C23.9241 102.771 23.9729 102.765 24.034 102.765C24.205 102.765 24.321 102.737 24.3821 102.682C24.4431 102.621 24.4767 102.542 24.4828 102.444C24.495 102.346 24.5011 102.246 24.5011 102.142V100.044C24.5011 99.9342 24.495 99.8334 24.4828 99.7418C24.4767 99.6441 24.4431 99.5678 24.3821 99.5128C24.321 99.4517 24.205 99.4212 24.034 99.4212C23.979 99.4212 23.9271 99.4151 23.8783 99.4029C23.8355 99.3846 23.8141 99.3296 23.8141 99.238C23.8141 99.1464 23.863 99.0914 23.9607 99.0731C24.2416 99.0304 24.4553 98.9876 24.6019 98.9449C24.7546 98.9021 24.8675 98.8655 24.9408 98.835C25.0202 98.8044 25.0904 98.7861 25.1515 98.78C25.2004 98.7739 25.2401 98.7831 25.2706 98.8075C25.3072 98.8319 25.3255 98.8808 25.3255 98.954V99.522H25.353C25.5607 99.3204 25.7744 99.1556 25.9942 99.0273C26.2141 98.893 26.4156 98.8258 26.5988 98.8258C26.8125 98.8258 26.9743 98.9052 27.0843 99.064C27.2003 99.2227 27.2583 99.3907 27.2583 99.5678C27.2583 99.7204 27.2095 99.87 27.1117 100.017C27.014 100.157 26.8675 100.227 26.6721 100.227C26.5744 100.227 26.495 100.209 26.4339 100.172C26.3789 100.13 26.3484 100.099 26.3423 100.081C26.3423 100.069 26.3698 100.032 26.4247 99.9708C26.4858 99.9097 26.5163 99.8334 26.5163 99.7418C26.5163 99.6319 26.4858 99.5433 26.4247 99.4762C26.3698 99.409 26.2935 99.3754 26.1957 99.3754C26.0919 99.3754 25.9576 99.4273 25.7927 99.5311C25.6339 99.6349 25.4813 99.7601 25.3347 99.9067V102.142C25.3347 102.246 25.3378 102.346 25.3439 102.444C25.3561 102.542 25.3927 102.621 25.4538 102.682C25.521 102.737 25.64 102.765 25.811 102.765C25.866 102.765 25.9118 102.771 25.9484 102.783C25.9912 102.789 26.0156 102.838 26.0217 102.929C26.0217 102.972 26.0095 103.015 25.9851 103.058C25.9606 103.094 25.924 103.113 25.8751 103.113C25.6981 103.1 25.5332 103.091 25.3805 103.085C25.2339 103.085 25.0782 103.085 24.9133 103.085C24.7485 103.085 24.5927 103.085 24.4462 103.085C24.2996 103.091 24.1378 103.1 23.9607 103.113ZM29.5832 105.082C28.2946 105.082 27.6504 104.716 27.6504 103.983C27.6504 103.781 27.7145 103.601 27.8428 103.442C27.971 103.29 28.142 103.213 28.3557 103.213C28.4962 103.213 28.6122 103.25 28.7038 103.323C28.7954 103.403 28.8412 103.458 28.8412 103.488C28.8412 103.5 28.8168 103.528 28.7679 103.571C28.7252 103.613 28.6794 103.671 28.6305 103.745C28.5878 103.818 28.5664 103.916 28.5664 104.038C28.5664 104.508 28.9694 104.743 29.7755 104.743C30.2335 104.743 30.5877 104.664 30.8381 104.505C31.0946 104.346 31.2228 104.105 31.2228 103.781C31.2228 103.604 31.1648 103.47 31.0488 103.378C30.9388 103.287 30.7892 103.223 30.5999 103.186C30.4167 103.149 30.2121 103.125 29.9862 103.113C29.7602 103.107 29.5312 103.1 29.2992 103.094C29.0732 103.088 28.8626 103.07 28.6672 103.039C28.4534 103.003 28.2733 102.933 28.1267 102.829C27.9863 102.719 27.916 102.542 27.916 102.297C27.916 102.071 27.9954 101.876 28.1542 101.711C28.3191 101.54 28.5633 101.455 28.887 101.455C28.4962 101.302 28.2336 101.116 28.0992 100.896C27.971 100.676 27.9069 100.45 27.9069 100.218C27.9069 99.9555 27.9802 99.7204 28.1267 99.5128C28.2794 99.2991 28.487 99.1311 28.7496 99.009C29.0183 98.8808 29.3267 98.8166 29.6748 98.8166C29.8457 98.8166 30.0228 98.8319 30.206 98.8624C30.3953 98.8869 30.5572 98.9327 30.6915 98.9998L31.9464 98.7617C32.0136 98.7556 32.0594 98.777 32.0838 98.8258C32.1083 98.8747 32.1205 98.9266 32.1205 98.9815C32.1205 99.0609 32.1083 99.1403 32.0838 99.2197C32.0594 99.293 32.0258 99.3296 31.9831 99.3296L31.0762 99.293V99.3113C31.18 99.4151 31.2686 99.5525 31.3419 99.7235C31.4152 99.8945 31.4518 100.056 31.4518 100.209C31.4518 100.502 31.3663 100.756 31.1953 100.969C31.0304 101.183 30.8167 101.348 30.5541 101.464C30.2976 101.574 30.0289 101.629 29.748 101.629H29.345C29.0274 101.629 28.7954 101.659 28.6488 101.72C28.5084 101.781 28.4382 101.882 28.4382 102.023C28.4382 102.133 28.4748 102.218 28.5481 102.279C28.6275 102.334 28.7679 102.368 28.9694 102.38L30.2244 102.426C30.8778 102.45 31.3419 102.554 31.6167 102.737C31.8976 102.92 32.038 103.192 32.038 103.552C32.038 103.876 31.9342 104.151 31.7266 104.377C31.5251 104.609 31.2381 104.783 30.8656 104.899C30.4992 105.021 30.0717 105.082 29.5832 105.082ZM29.6748 101.363C29.9557 101.363 30.1847 101.265 30.3618 101.07C30.5388 100.868 30.6274 100.581 30.6274 100.209C30.6274 99.867 30.5358 99.5983 30.3526 99.4029C30.1755 99.2014 29.9465 99.1006 29.6656 99.1006C29.3969 99.1006 29.171 99.1983 28.9878 99.3937C28.8107 99.583 28.7221 99.8487 28.7221 100.191C28.7221 100.563 28.8107 100.853 28.9878 101.061C29.171 101.262 29.4 101.363 29.6748 101.363ZM33.7366 103.195C33.3641 103.195 33.0649 103.088 32.839 102.875C32.6191 102.661 32.5092 102.404 32.5092 102.105C32.5092 101.794 32.5886 101.549 32.7474 101.372C32.9122 101.195 33.126 101.064 33.3886 100.978C33.6573 100.893 33.9473 100.835 34.2588 100.804C34.5763 100.774 34.8847 100.749 35.1839 100.731V100.007C35.1839 99.7204 35.1106 99.4975 34.9641 99.3388C34.8236 99.1739 34.5824 99.0914 34.2404 99.0914C34.0695 99.0914 33.9076 99.1464 33.755 99.2563C33.6084 99.3662 33.5351 99.525 33.5351 99.7326C33.5351 99.8304 33.5595 99.9128 33.6084 99.98C33.6573 100.047 33.7061 100.099 33.755 100.136C33.8038 100.172 33.8282 100.197 33.8282 100.209C33.8282 100.233 33.7916 100.279 33.7183 100.346C33.6511 100.407 33.5565 100.438 33.4344 100.438C33.2451 100.438 33.0985 100.368 32.9947 100.227C32.8909 100.087 32.839 99.9311 32.839 99.7601C32.839 99.5281 32.9092 99.3449 33.0496 99.2105C33.1962 99.0762 33.3825 98.9785 33.6084 98.9174C33.8343 98.8563 34.0633 98.8258 34.2954 98.8258C34.5702 98.8258 34.8358 98.8594 35.0923 98.9266C35.3549 98.9937 35.5686 99.122 35.7335 99.3113C35.9045 99.5006 35.99 99.7846 35.99 100.163V102.297C35.9961 102.359 36.0114 102.432 36.0358 102.517C36.0602 102.603 36.106 102.679 36.1732 102.746C36.2465 102.807 36.3442 102.838 36.4663 102.838C36.5091 102.838 36.5427 102.847 36.5671 102.865C36.5915 102.878 36.6037 102.917 36.6037 102.984C36.6037 103.039 36.5732 103.082 36.5121 103.113C36.4511 103.143 36.3808 103.165 36.3014 103.177C36.2221 103.189 36.1549 103.195 36.0999 103.195C35.874 103.195 35.6725 103.131 35.4954 103.003C35.3183 102.868 35.2145 102.685 35.1839 102.453C35.0496 102.697 34.8481 102.884 34.5794 103.012C34.3168 103.134 34.0359 103.195 33.7366 103.195ZM34.0298 102.7C34.2374 102.7 34.4267 102.649 34.5977 102.545C34.7748 102.441 34.9152 102.3 35.019 102.123C35.129 101.94 35.1839 101.739 35.1839 101.519V100.997C34.5549 101.039 34.1061 101.14 33.8374 101.299C33.5687 101.458 33.4344 101.717 33.4344 102.078C33.4344 102.493 33.6328 102.7 34.0298 102.7ZM37.1908 103.113C37.1481 103.113 37.1114 103.094 37.0809 103.058C37.0565 103.015 37.0443 102.972 37.0443 102.929C37.0565 102.838 37.0809 102.789 37.1175 102.783C37.1542 102.771 37.203 102.765 37.2641 102.765C37.4351 102.765 37.5511 102.737 37.6122 102.682C37.6732 102.621 37.7068 102.542 37.7129 102.444C37.7252 102.346 37.7313 102.246 37.7313 102.142V100.044C37.7313 99.9342 37.7252 99.8334 37.7129 99.7418C37.7068 99.6441 37.6732 99.5678 37.6122 99.5128C37.5511 99.4517 37.4351 99.4212 37.2641 99.4212C37.2091 99.4212 37.1572 99.4151 37.1084 99.4029C37.0656 99.3846 37.0443 99.3296 37.0443 99.238C37.0443 99.1464 37.0931 99.0914 37.1908 99.0731C37.4717 99.0304 37.6855 98.9876 37.832 98.9449C37.9847 98.9021 38.0977 98.8655 38.1709 98.835C38.2503 98.8044 38.3206 98.7861 38.3816 98.78C38.4305 98.7739 38.4702 98.7831 38.5007 98.8075C38.5373 98.8319 38.5557 98.8808 38.5557 98.954V99.5311H38.5831C38.7053 99.4151 38.8305 99.3052 38.9587 99.2014C39.0869 99.0914 39.2366 99.0029 39.4075 98.9357C39.5846 98.8624 39.8014 98.8258 40.0579 98.8258C40.4732 98.8258 40.8029 98.951 41.0472 99.2014C41.2914 99.4517 41.4136 99.7815 41.4136 100.191V102.142C41.4136 102.246 41.4166 102.346 41.4227 102.444C41.435 102.542 41.4716 102.621 41.5327 102.682C41.5998 102.737 41.7189 102.765 41.8899 102.765C41.9449 102.765 41.9907 102.771 42.0273 102.783C42.07 102.789 42.0945 102.838 42.1006 102.929C42.1006 102.972 42.0884 103.015 42.0639 103.058C42.0395 103.094 42.0029 103.113 41.954 103.113C41.7769 103.1 41.612 103.091 41.4594 103.085C41.3128 103.085 41.1571 103.085 40.9922 103.085C40.8273 103.085 40.6716 103.085 40.5251 103.085C40.3785 103.091 40.2167 103.1 40.0396 103.113C39.9968 103.113 39.9602 103.094 39.9297 103.058C39.9052 103.015 39.893 102.972 39.893 102.929C39.8991 102.838 39.9205 102.789 39.9571 102.783C39.9999 102.771 40.0487 102.765 40.1037 102.765C40.2747 102.765 40.3907 102.737 40.4518 102.682C40.519 102.621 40.5556 102.542 40.5617 102.444C40.5739 102.346 40.58 102.246 40.58 102.142V100.2C40.58 99.9983 40.5342 99.8334 40.4426 99.7052C40.3571 99.5769 40.2472 99.4823 40.1129 99.4212C39.9785 99.3601 39.8411 99.3296 39.7007 99.3296C39.493 99.3296 39.3098 99.3693 39.1511 99.4487C38.9923 99.522 38.864 99.6075 38.7663 99.7052C38.6686 99.8029 38.6015 99.8884 38.5648 99.9616V102.142C38.5648 102.246 38.5679 102.346 38.574 102.444C38.5862 102.542 38.6228 102.621 38.6839 102.682C38.7511 102.737 38.8702 102.765 39.0411 102.765C39.0961 102.765 39.1419 102.771 39.1785 102.783C39.2213 102.789 39.2457 102.838 39.2518 102.929C39.2518 102.972 39.2396 103.015 39.2152 103.058C39.1908 103.094 39.1541 103.113 39.1053 103.113C38.9282 103.1 38.7633 103.091 38.6106 103.085C38.4641 103.085 38.3083 103.085 38.1435 103.085C37.9786 103.085 37.8229 103.085 37.6763 103.085C37.5297 103.091 37.3679 103.1 37.1908 103.113ZM42.6743 103.113C42.6315 103.113 42.5949 103.094 42.5644 103.058C42.5399 103.015 42.5277 102.972 42.5277 102.929C42.5399 102.838 42.5644 102.789 42.601 102.783C42.6377 102.771 42.6865 102.765 42.7476 102.765C42.9186 102.765 43.0346 102.737 43.0957 102.682C43.1567 102.621 43.1903 102.542 43.1964 102.444C43.2086 102.346 43.2147 102.246 43.2147 102.142V100.044C43.2147 99.9342 43.2086 99.8334 43.1964 99.7418C43.1903 99.6441 43.1567 99.5678 43.0957 99.5128C43.0346 99.4517 42.9186 99.4212 42.7476 99.4212C42.6926 99.4212 42.6407 99.4151 42.5919 99.4029C42.5491 99.3846 42.5277 99.3296 42.5277 99.238C42.5277 99.1464 42.5766 99.0914 42.6743 99.0731C42.9552 99.0304 43.1689 98.9876 43.3155 98.9449C43.4682 98.9021 43.5842 98.8655 43.6636 98.835C43.743 98.8044 43.8132 98.7861 43.8743 98.78C43.9231 98.7739 43.9628 98.7831 43.9933 98.8075C44.03 98.8319 44.0483 98.8808 44.0483 98.954V102.142C44.0483 102.246 44.0513 102.346 44.0575 102.444C44.0697 102.542 44.1063 102.621 44.1674 102.682C44.2345 102.737 44.3536 102.765 44.5246 102.765C44.5796 102.765 44.6254 102.771 44.662 102.783C44.7048 102.789 44.7292 102.838 44.7353 102.929C44.7353 102.972 44.7231 103.015 44.6987 103.058C44.6742 103.094 44.6376 103.113 44.5887 103.113C44.4116 103.1 44.2468 103.091 44.0941 103.085C43.9475 103.085 43.7918 103.085 43.6269 103.085C43.4621 103.085 43.3063 103.085 43.1598 103.085C43.0132 103.091 42.8514 103.1 42.6743 103.113ZM43.5811 97.7632C43.4101 97.7632 43.2666 97.7113 43.1506 97.6075C43.0346 97.4976 42.9766 97.3633 42.9766 97.2045C42.9766 97.064 43.0468 96.9388 43.1873 96.8289C43.3277 96.719 43.4865 96.664 43.6636 96.664C43.8162 96.664 43.9414 96.719 44.0391 96.8289C44.1368 96.9327 44.1857 97.0671 44.1857 97.232C44.1857 97.3785 44.1277 97.5037 44.0117 97.6075C43.8956 97.7113 43.7521 97.7632 43.5811 97.7632ZM47.2457 103.195C46.6167 103.195 46.1251 102.997 45.771 102.6C45.4229 102.197 45.2488 101.665 45.2488 101.006C45.2672 100.585 45.371 100.212 45.5603 99.8884C45.7557 99.5647 46.0122 99.3113 46.3297 99.1281C46.6534 98.9388 47.0106 98.838 47.4014 98.8258C47.6152 98.8258 47.832 98.8533 48.0518 98.9082C48.2777 98.9571 48.464 99.0518 48.6106 99.1922C48.7632 99.3266 48.8396 99.522 48.8396 99.7784C48.8396 99.9555 48.7846 100.12 48.6747 100.273C48.5648 100.42 48.4121 100.493 48.2167 100.493C48.0823 100.493 47.9785 100.459 47.9052 100.392C47.832 100.325 47.7953 100.276 47.7953 100.246C47.7953 100.233 47.8197 100.209 47.8686 100.172C47.9236 100.13 47.9755 100.075 48.0243 100.007C48.0732 99.9342 48.0976 99.8456 48.0976 99.7418C48.0976 99.5464 48.0274 99.4029 47.8869 99.3113C47.7465 99.2197 47.5877 99.1708 47.4106 99.1647C47.1419 99.1647 46.9251 99.2197 46.7602 99.3296C46.6015 99.4395 46.4793 99.5861 46.3938 99.7693C46.3083 99.9464 46.2503 100.142 46.2198 100.356C46.1954 100.569 46.1832 100.777 46.1832 100.978C46.1832 101.314 46.2351 101.617 46.3389 101.885C46.4427 102.148 46.5892 102.355 46.7786 102.508C46.9679 102.661 47.1938 102.737 47.4564 102.737C47.7251 102.737 47.951 102.679 48.1342 102.563C48.3174 102.447 48.4854 102.276 48.638 102.05C48.6808 101.989 48.7449 101.983 48.8304 102.032C48.8731 102.056 48.9037 102.09 48.922 102.133C48.9403 102.175 48.9342 102.218 48.9037 102.261C48.7022 102.548 48.4518 102.777 48.1526 102.948C47.8533 103.113 47.551 103.195 47.2457 103.195ZM53.6876 103.268C53.0525 103.268 52.564 103.158 52.222 102.939C51.8801 102.713 51.7091 102.383 51.7091 101.949C51.7091 101.73 51.7823 101.549 51.9289 101.409C52.0816 101.262 52.277 101.189 52.5151 101.189C52.6739 101.195 52.7838 101.235 52.8449 101.308C52.9121 101.381 52.9457 101.436 52.9457 101.473C52.9457 101.485 52.9182 101.507 52.8632 101.537C52.8083 101.562 52.7533 101.61 52.6983 101.684C52.6434 101.751 52.6159 101.858 52.6159 102.004C52.6159 102.279 52.7014 102.499 52.8724 102.664C53.0434 102.823 53.3151 102.902 53.6876 102.902C53.9502 102.902 54.1731 102.853 54.3563 102.755C54.5456 102.652 54.6891 102.52 54.7868 102.362C54.8845 102.197 54.9334 102.029 54.9334 101.858C54.9334 101.601 54.8601 101.391 54.7135 101.226C54.567 101.061 54.3746 100.92 54.1365 100.804C53.9044 100.682 53.6571 100.566 53.3945 100.456C53.1319 100.346 52.8815 100.221 52.6434 100.081C52.4113 99.9403 52.219 99.7662 52.0663 99.5586C51.9136 99.3449 51.8343 99.0792 51.8281 98.7617C51.822 98.377 51.9045 98.0655 52.0755 97.8274C52.2465 97.5831 52.4846 97.406 52.7899 97.2961C53.0953 97.1801 53.4342 97.122 53.8067 97.122C54.0815 97.122 54.3502 97.1617 54.6128 97.2411C54.8815 97.3205 55.1013 97.4457 55.2723 97.6167C55.4494 97.7816 55.5379 98.0014 55.5379 98.2762C55.5379 98.496 55.4616 98.6792 55.3089 98.8258C55.1624 98.9663 54.97 99.0365 54.7319 99.0365C54.5731 99.0243 54.4601 98.9846 54.3929 98.9174C54.3319 98.8441 54.3013 98.7892 54.3013 98.7525C54.3013 98.7342 54.338 98.7128 54.4113 98.6884C54.4845 98.6579 54.5578 98.609 54.6311 98.5418C54.7044 98.4686 54.741 98.3617 54.741 98.2212C54.741 97.9892 54.6525 97.8121 54.4754 97.69C54.2983 97.5617 54.0785 97.4976 53.8159 97.4976C53.4189 97.4976 53.1289 97.5923 52.9457 97.7816C52.7686 97.9648 52.68 98.1724 52.68 98.4044C52.68 98.6304 52.7411 98.8136 52.8632 98.954C52.9854 99.0945 53.1686 99.2319 53.4128 99.3662C53.6876 99.5128 53.9655 99.6502 54.2464 99.7784C54.5273 99.9006 54.7868 100.038 55.025 100.191C55.2693 100.343 55.4647 100.536 55.6112 100.768C55.7578 100.994 55.8311 101.287 55.8311 101.647C55.8311 101.959 55.7334 102.236 55.5379 102.481C55.3486 102.725 55.0922 102.917 54.7685 103.058C54.4449 103.198 54.0846 103.268 53.6876 103.268ZM56.4837 103.113C56.4349 103.113 56.3982 103.094 56.3738 103.058C56.3494 103.015 56.3372 102.972 56.3372 102.929C56.3433 102.838 56.3646 102.789 56.4013 102.783C56.444 102.771 56.4929 102.765 56.5478 102.765C56.7188 102.765 56.8348 102.737 56.8959 102.682C56.9631 102.621 56.9997 102.542 57.0058 102.444C57.018 102.346 57.0242 102.246 57.0242 102.142V97.6808C57.0242 97.5709 57.018 97.4701 57.0058 97.3785C56.9997 97.2808 56.9661 97.2045 56.9051 97.1495C56.844 97.0885 56.728 97.0579 56.557 97.0579C56.502 97.0579 56.4501 97.0518 56.4013 97.0396C56.3585 97.0213 56.3372 96.9663 56.3372 96.8747C56.3372 96.7831 56.386 96.7282 56.4837 96.7098C56.7646 96.6671 56.9784 96.6244 57.1249 96.5816C57.2776 96.5389 57.3936 96.5022 57.473 96.4717C57.5524 96.4412 57.6226 96.4228 57.6837 96.4167C57.7325 96.4106 57.7722 96.4198 57.8028 96.4442C57.8394 96.4686 57.8577 96.5175 57.8577 96.5908V100.777C58.1264 100.722 58.3462 100.609 58.5172 100.438L59.2867 99.6502C59.3233 99.6075 59.363 99.5617 59.4058 99.5128C59.4546 99.464 59.4821 99.4182 59.4882 99.3754C59.5004 99.3327 59.476 99.2991 59.4149 99.2746C59.3538 99.2502 59.2378 99.2441 59.0668 99.2563C58.9997 99.2441 58.963 99.1892 58.9569 99.0914C58.9569 99.0426 58.9691 98.9998 58.9936 98.9632C59.0241 98.9266 59.0607 98.9082 59.1035 98.9082C59.2439 98.9144 59.4119 98.9205 59.6073 98.9266C59.8088 98.9327 59.9767 98.9357 60.1111 98.9357C60.2149 98.9357 60.3156 98.9327 60.4134 98.9266C60.5172 98.9205 60.621 98.9144 60.7248 98.9082C60.7736 98.9082 60.8103 98.9266 60.8347 98.9632C60.8591 98.9998 60.8714 99.0426 60.8714 99.0914C60.8652 99.1708 60.8469 99.2197 60.8164 99.238C60.792 99.2502 60.7584 99.2563 60.7156 99.2563C60.4775 99.2563 60.2851 99.2991 60.1386 99.3846C59.992 99.4701 59.8271 99.6075 59.6439 99.7968L58.8745 100.585C58.9478 100.682 59.0455 100.801 59.1676 100.942C59.2897 101.082 59.418 101.232 59.5523 101.391C59.6928 101.543 59.8241 101.69 59.9462 101.83C60.0683 101.965 60.166 102.075 60.2393 102.16C60.4164 102.349 60.563 102.496 60.679 102.6C60.8011 102.697 60.9507 102.752 61.1278 102.765C61.1767 102.771 61.2225 102.78 61.2652 102.792C61.308 102.798 61.3294 102.844 61.3294 102.929C61.3294 102.972 61.3171 103.015 61.2927 103.058C61.2744 103.094 61.2378 103.113 61.1828 103.113C61.0973 103.107 61.0271 103.1 60.9721 103.094C60.9172 103.094 60.8561 103.091 60.7889 103.085C60.7217 103.085 60.624 103.085 60.4958 103.085C60.3737 103.085 60.1966 103.085 59.9645 103.085C59.7508 102.853 59.5035 102.575 59.2226 102.252C58.9478 101.928 58.673 101.607 58.3982 101.29C58.3371 101.223 58.2577 101.162 58.16 101.107C58.0684 101.046 57.9676 101.021 57.8577 101.033V102.142C57.8577 102.246 57.8608 102.346 57.8669 102.444C57.8791 102.542 57.9157 102.621 57.9768 102.682C58.044 102.737 58.16 102.765 58.3249 102.765C58.3859 102.765 58.4348 102.771 58.4714 102.783C58.5142 102.789 58.5386 102.838 58.5447 102.929C58.5447 102.972 58.5325 103.015 58.5081 103.058C58.4836 103.094 58.447 103.113 58.3982 103.113C58.2211 103.1 58.0562 103.091 57.9035 103.085C57.7508 103.085 57.5951 103.085 57.4364 103.085C57.2715 103.085 57.1158 103.085 56.9692 103.085C56.8226 103.091 56.6608 103.1 56.4837 103.113ZM61.7725 103.113C61.7298 103.113 61.6932 103.094 61.6626 103.058C61.6382 103.015 61.626 102.972 61.626 102.929C61.6382 102.838 61.6626 102.789 61.6993 102.783C61.7359 102.771 61.7848 102.765 61.8458 102.765C62.0168 102.765 62.1328 102.737 62.1939 102.682C62.255 102.621 62.2886 102.542 62.2947 102.444C62.3069 102.346 62.313 102.246 62.313 102.142V100.044C62.313 99.9342 62.3069 99.8334 62.2947 99.7418C62.2886 99.6441 62.255 99.5678 62.1939 99.5128C62.1328 99.4517 62.0168 99.4212 61.8458 99.4212C61.7909 99.4212 61.739 99.4151 61.6901 99.4029C61.6474 99.3846 61.626 99.3296 61.626 99.238C61.626 99.1464 61.6748 99.0914 61.7725 99.0731C62.0534 99.0304 62.2672 98.9876 62.4137 98.9449C62.5664 98.9021 62.6824 98.8655 62.7618 98.835C62.8412 98.8044 62.9114 98.7861 62.9725 98.78C63.0214 98.7739 63.061 98.7831 63.0916 98.8075C63.1282 98.8319 63.1465 98.8808 63.1465 98.954V102.142C63.1465 102.246 63.1496 102.346 63.1557 102.444C63.1679 102.542 63.2046 102.621 63.2656 102.682C63.3328 102.737 63.4519 102.765 63.6229 102.765C63.6778 102.765 63.7236 102.771 63.7603 102.783C63.803 102.789 63.8274 102.838 63.8335 102.929C63.8335 102.972 63.8213 103.015 63.7969 103.058C63.7725 103.094 63.7358 103.113 63.687 103.113C63.5099 103.1 63.345 103.091 63.1923 103.085C63.0458 103.085 62.8901 103.085 62.7252 103.085C62.5603 103.085 62.4046 103.085 62.258 103.085C62.1115 103.091 61.9496 103.1 61.7725 103.113ZM62.6794 97.7632C62.5084 97.7632 62.3649 97.7113 62.2489 97.6075C62.1328 97.4976 62.0748 97.3633 62.0748 97.2045C62.0748 97.064 62.145 96.9388 62.2855 96.8289C62.426 96.719 62.5847 96.664 62.7618 96.664C62.9145 96.664 63.0397 96.719 63.1374 96.8289C63.2351 96.9327 63.2839 97.0671 63.2839 97.232C63.2839 97.3785 63.2259 97.5037 63.1099 97.6075C62.9939 97.7113 62.8504 97.7632 62.6794 97.7632ZM64.4382 103.113C64.3955 103.113 64.3589 103.094 64.3283 103.058C64.3039 103.015 64.2917 102.972 64.2917 102.929C64.3039 102.838 64.3283 102.789 64.365 102.783C64.4016 102.771 64.4505 102.765 64.5115 102.765C64.6825 102.765 64.7985 102.737 64.8596 102.682C64.9207 102.621 64.9543 102.542 64.9604 102.444C64.9726 102.346 64.9787 102.246 64.9787 102.142V100.044C64.9787 99.9342 64.9726 99.8334 64.9604 99.7418C64.9543 99.6441 64.9207 99.5678 64.8596 99.5128C64.7985 99.4517 64.6825 99.4212 64.5115 99.4212C64.4566 99.4212 64.4047 99.4151 64.3558 99.4029C64.3131 99.3846 64.2917 99.3296 64.2917 99.238C64.2917 99.1464 64.3405 99.0914 64.4382 99.0731C64.7191 99.0304 64.9329 98.9876 65.0794 98.9449C65.2321 98.9021 65.3451 98.8655 65.4184 98.835C65.4977 98.8044 65.568 98.7861 65.629 98.78C65.6779 98.7739 65.7176 98.7831 65.7481 98.8075C65.7848 98.8319 65.8031 98.8808 65.8031 98.954V99.5311H65.8306C65.9527 99.4151 66.0779 99.3052 66.2061 99.2014C66.3344 99.0914 66.484 99.0029 66.655 98.9357C66.8321 98.8624 67.0488 98.8258 67.3053 98.8258C67.7206 98.8258 68.0503 98.951 68.2946 99.2014C68.5389 99.4517 68.661 99.7815 68.661 100.191V102.142C68.661 102.246 68.6641 102.346 68.6702 102.444C68.6824 102.542 68.719 102.621 68.7801 102.682C68.8473 102.737 68.9663 102.765 69.1373 102.765C69.1923 102.765 69.2381 102.771 69.2747 102.783C69.3175 102.789 69.3419 102.838 69.348 102.929C69.348 102.972 69.3358 103.015 69.3114 103.058C69.2869 103.094 69.2503 103.113 69.2014 103.113C69.0243 103.1 68.8595 103.091 68.7068 103.085C68.5602 103.085 68.4045 103.085 68.2396 103.085C68.0748 103.085 67.919 103.085 67.7725 103.085C67.6259 103.091 67.4641 103.1 67.287 103.113C67.2443 103.113 67.2076 103.094 67.1771 103.058C67.1527 103.015 67.1404 102.972 67.1404 102.929C67.1465 102.838 67.1679 102.789 67.2046 102.783C67.2473 102.771 67.2962 102.765 67.3511 102.765C67.5221 102.765 67.6381 102.737 67.6992 102.682C67.7664 102.621 67.803 102.542 67.8091 102.444C67.8213 102.346 67.8274 102.246 67.8274 102.142V100.2C67.8274 99.9983 67.7816 99.8334 67.69 99.7052C67.6045 99.5769 67.4946 99.4823 67.3603 99.4212C67.2259 99.3601 67.0885 99.3296 66.9481 99.3296C66.7405 99.3296 66.5573 99.3693 66.3985 99.4487C66.2397 99.522 66.1115 99.6075 66.0138 99.7052C65.9161 99.8029 65.8489 99.8884 65.8122 99.9616V102.142C65.8122 102.246 65.8153 102.346 65.8214 102.444C65.8336 102.542 65.8703 102.621 65.9313 102.682C65.9985 102.737 66.1176 102.765 66.2886 102.765C66.3435 102.765 66.3893 102.771 66.426 102.783C66.4687 102.789 66.4931 102.838 66.4992 102.929C66.4992 102.972 66.487 103.015 66.4626 103.058C66.4382 103.094 66.4015 103.113 66.3527 103.113C66.1756 103.1 66.0107 103.091 65.858 103.085C65.7115 103.085 65.5558 103.085 65.3909 103.085C65.226 103.085 65.0703 103.085 64.9237 103.085C64.7772 103.091 64.6153 103.1 64.4382 103.113ZM71.8095 103.195C71.1805 103.195 70.689 102.997 70.3348 102.6C69.9867 102.197 69.8127 101.665 69.8127 101.006C69.831 100.585 69.9348 100.212 70.1241 99.8884C70.3195 99.5647 70.576 99.3113 70.8935 99.1281C71.2172 98.9388 71.5744 98.838 71.9653 98.8258C72.179 98.8258 72.3958 98.8533 72.6156 98.9082C72.8416 98.9571 73.0278 99.0518 73.1744 99.1922C73.327 99.3266 73.4034 99.522 73.4034 99.7784C73.4034 99.9555 73.3484 100.12 73.2385 100.273C73.1286 100.42 72.9759 100.493 72.7805 100.493C72.6461 100.493 72.5423 100.459 72.4691 100.392C72.3958 100.325 72.3591 100.276 72.3591 100.246C72.3591 100.233 72.3836 100.209 72.4324 100.172C72.4874 100.13 72.5393 100.075 72.5881 100.007C72.637 99.9342 72.6614 99.8456 72.6614 99.7418C72.6614 99.5464 72.5912 99.4029 72.4507 99.3113C72.3103 99.2197 72.1515 99.1708 71.9744 99.1647C71.7057 99.1647 71.4889 99.2197 71.3241 99.3296C71.1653 99.4395 71.0431 99.5861 70.9577 99.7693C70.8722 99.9464 70.8141 100.142 70.7836 100.356C70.7592 100.569 70.747 100.777 70.747 100.978C70.747 101.314 70.7989 101.617 70.9027 101.885C71.0065 102.148 71.1531 102.355 71.3424 102.508C71.5317 102.661 71.7576 102.737 72.0202 102.737C72.2889 102.737 72.5149 102.679 72.6981 102.563C72.8813 102.447 73.0492 102.276 73.2019 102.05C73.2446 101.989 73.3087 101.983 73.3942 102.032C73.437 102.056 73.4675 102.09 73.4858 102.133C73.5041 102.175 73.498 102.218 73.4675 102.261C73.266 102.548 73.0156 102.777 72.7164 102.948C72.4171 103.113 72.1149 103.195 71.8095 103.195ZM75.3234 103.195C74.9509 103.195 74.6517 103.088 74.4257 102.875C74.2059 102.661 74.096 102.404 74.096 102.105C74.096 101.794 74.1753 101.549 74.3341 101.372C74.499 101.195 74.7127 101.064 74.9753 100.978C75.244 100.893 75.5341 100.835 75.8455 100.804C76.1631 100.774 76.4715 100.749 76.7707 100.731V100.007C76.7707 99.7204 76.6974 99.4975 76.5508 99.3388C76.4104 99.1739 76.1692 99.0914 75.8272 99.0914C75.6562 99.0914 75.4944 99.1464 75.3417 99.2563C75.1952 99.3662 75.1219 99.525 75.1219 99.7326C75.1219 99.8304 75.1463 99.9128 75.1952 99.98C75.244 100.047 75.2929 100.099 75.3417 100.136C75.3906 100.172 75.415 100.197 75.415 100.209C75.415 100.233 75.3784 100.279 75.3051 100.346C75.2379 100.407 75.1433 100.438 75.0211 100.438C74.8318 100.438 74.6853 100.368 74.5814 100.227C74.4776 100.087 74.4257 99.9311 74.4257 99.7601C74.4257 99.5281 74.4959 99.3449 74.6364 99.2105C74.783 99.0762 74.9692 98.9785 75.1952 98.9174C75.4211 98.8563 75.6501 98.8258 75.8822 98.8258C76.157 98.8258 76.4226 98.8594 76.6791 98.9266C76.9417 98.9937 77.1554 99.122 77.3203 99.3113C77.4913 99.5006 77.5768 99.7846 77.5768 100.163V102.297C77.5829 102.359 77.5981 102.432 77.6226 102.517C77.647 102.603 77.6928 102.679 77.76 102.746C77.8332 102.807 77.9309 102.838 78.0531 102.838C78.0958 102.838 78.1294 102.847 78.1538 102.865C78.1783 102.878 78.1905 102.917 78.1905 102.984C78.1905 103.039 78.1599 103.082 78.0989 103.113C78.0378 103.143 77.9676 103.165 77.8882 103.177C77.8088 103.189 77.7416 103.195 77.6867 103.195C77.4607 103.195 77.2592 103.131 77.0821 103.003C76.905 102.868 76.8012 102.685 76.7707 102.453C76.6363 102.697 76.4348 102.884 76.1661 103.012C75.9035 103.134 75.6226 103.195 75.3234 103.195ZM75.6165 102.7C75.8241 102.7 76.0135 102.649 76.1844 102.545C76.3615 102.441 76.502 102.3 76.6058 102.123C76.7157 101.94 76.7707 101.739 76.7707 101.519V100.997C76.1417 101.039 75.6929 101.14 75.4242 101.299C75.1555 101.458 75.0211 101.717 75.0211 102.078C75.0211 102.493 75.2196 102.7 75.6165 102.7ZM78.7776 103.113C78.7348 103.113 78.6982 103.094 78.6677 103.058C78.6432 103.015 78.631 102.972 78.631 102.929C78.6432 102.838 78.6677 102.789 78.7043 102.783C78.7409 102.771 78.7898 102.765 78.8509 102.765C79.0218 102.765 79.1379 102.737 79.1989 102.682C79.26 102.621 79.2936 102.542 79.2997 102.444C79.3119 102.346 79.318 102.246 79.318 102.142V100.044C79.318 99.9342 79.3119 99.8334 79.2997 99.7418C79.2936 99.6441 79.26 99.5678 79.1989 99.5128C79.1379 99.4517 79.0218 99.4212 78.8509 99.4212C78.7959 99.4212 78.744 99.4151 78.6951 99.4029C78.6524 99.3846 78.631 99.3296 78.631 99.238C78.631 99.1464 78.6799 99.0914 78.7776 99.0731C79.0585 99.0304 79.2722 98.9876 79.4188 98.9449C79.5714 98.9021 79.6844 98.8655 79.7577 98.835C79.8371 98.8044 79.9073 98.7861 79.9684 98.78C80.0172 98.7739 80.0569 98.7831 80.0875 98.8075C80.1241 98.8319 80.1424 98.8808 80.1424 98.954V99.522H80.1699C80.3775 99.3204 80.5913 99.1556 80.8111 99.0273C81.0309 98.893 81.2325 98.8258 81.4157 98.8258C81.6294 98.8258 81.7912 98.9052 81.9011 99.064C82.0172 99.2227 82.0752 99.3907 82.0752 99.5678C82.0752 99.7204 82.0263 99.87 81.9286 100.017C81.8309 100.157 81.6843 100.227 81.4889 100.227C81.3912 100.227 81.3118 100.209 81.2508 100.172C81.1958 100.13 81.1653 100.099 81.1592 100.081C81.1592 100.069 81.1867 100.032 81.2416 99.9708C81.3027 99.9097 81.3332 99.8334 81.3332 99.7418C81.3332 99.6319 81.3027 99.5433 81.2416 99.4762C81.1867 99.409 81.1103 99.3754 81.0126 99.3754C80.9088 99.3754 80.7745 99.4273 80.6096 99.5311C80.4508 99.6349 80.2981 99.7601 80.1516 99.9067V102.142C80.1516 102.246 80.1546 102.346 80.1607 102.444C80.1729 102.542 80.2096 102.621 80.2707 102.682C80.3378 102.737 80.4569 102.765 80.6279 102.765C80.6829 102.765 80.7287 102.771 80.7653 102.783C80.808 102.789 80.8325 102.838 80.8386 102.929C80.8386 102.972 80.8264 103.015 80.8019 103.058C80.7775 103.094 80.7409 103.113 80.692 103.113C80.5149 103.1 80.35 103.091 80.1974 103.085C80.0508 103.085 79.8951 103.085 79.7302 103.085C79.5653 103.085 79.4096 103.085 79.2631 103.085C79.1165 103.091 78.9547 103.1 78.7776 103.113ZM84.7032 103.195C84.233 103.195 83.836 103.094 83.5124 102.893C83.1948 102.691 82.9567 102.423 82.7979 102.087C82.6391 101.751 82.5597 101.384 82.5597 100.988C82.5597 100.719 82.6055 100.459 82.6971 100.209C82.7948 99.9525 82.9322 99.7204 83.1093 99.5128C83.2864 99.2991 83.5002 99.1311 83.7505 99.009C84.0009 98.8869 84.2849 98.8258 84.6024 98.8258C85.1642 98.8258 85.5856 98.9724 85.8665 99.2655C86.1535 99.5525 86.3184 99.9189 86.3611 100.365C86.3611 100.578 86.3001 100.719 86.1779 100.786C86.0619 100.853 85.9092 100.887 85.7199 100.887H83.494C83.494 101.241 83.5429 101.559 83.6406 101.839C83.7383 102.114 83.891 102.334 84.0986 102.499C84.3123 102.658 84.5932 102.737 84.9413 102.737C85.1978 102.737 85.4176 102.682 85.6008 102.572C85.784 102.462 85.9611 102.27 86.1321 101.995C86.181 101.934 86.2482 101.931 86.3336 101.986C86.3825 102.01 86.413 102.05 86.4252 102.105C86.4375 102.154 86.4314 102.197 86.4069 102.233C86.2176 102.533 85.9795 102.768 85.6924 102.939C85.4054 103.11 85.0757 103.195 84.7032 103.195ZM83.494 100.539H84.9871C85.1337 100.539 85.2497 100.511 85.3352 100.456C85.4268 100.395 85.4757 100.294 85.4818 100.154C85.4818 99.8914 85.4085 99.6594 85.2619 99.4578C85.1215 99.2502 84.9016 99.1464 84.6024 99.1464C84.2971 99.1464 84.0406 99.2685 83.833 99.5128C83.6314 99.7571 83.5185 100.099 83.494 100.539Z" fill="#324320"/>
<path d="M34.1208 57.2751C34.1208 48.1225 37.7566 39.3448 44.2285 32.8729C50.7004 26.401 59.4781 22.7651 68.6308 22.7651" stroke="#324320" stroke-width="2.38" stroke-miterlimit="10"/>
<path d="M63.7408 23.0752V36.7652" stroke="#324320" stroke-width="2.38" stroke-miterlimit="10"/>
<path d="M57.4108 24.6152V47.7852" stroke="#324320" stroke-width="2.38" stroke-miterlimit="10"/>
<path d="M51.0808 28.2551V57.2351" stroke="#324320" stroke-width="2.38" stroke-miterlimit="10"/>
<path d="M44.7408 33.1453V60.0553" stroke="#324320" stroke-width="2.38" stroke-miterlimit="10"/>
<path d="M38.4108 40.4451V60.0551" stroke="#324320" stroke-width="2.38" stroke-miterlimit="10"/>
<path d="M73.8508 32.665L64.2108 36.995" stroke="#324320" stroke-width="2.38" stroke-miterlimit="10"/>
<path d="M74.9108 39.4351L57.3808 47.3051" stroke="#324320" stroke-width="2.38" stroke-miterlimit="10"/>
<path d="M69.3308 48.7852L51.0808 56.9752" stroke="#324320" stroke-width="2.38" stroke-miterlimit="10"/>
<path d="M65.2608 56.3452L57.0108 60.0552" stroke="#324320" stroke-width="2.38" stroke-miterlimit="10"/>
<path d="M54.4108 7.91504H43.5508C42.7552 7.91504 41.9921 7.59897 41.4295 7.03636C40.8669 6.47375 40.5508 5.71069 40.5508 4.91504C40.5508 4.11939 40.8669 3.35633 41.4295 2.79372C41.9921 2.23111 42.7552 1.91504 43.5508 1.91504H54.4108C55.2064 1.91504 55.9695 2.23111 56.5321 2.79372C57.0947 3.35633 57.4108 4.11939 57.4108 4.91504C57.4108 5.309 57.3332 5.69911 57.1824 6.06309C57.0317 6.42707 56.8107 6.75779 56.5321 7.03636C56.2536 7.31494 55.9228 7.53592 55.5588 7.68668C55.1949 7.83744 54.8048 7.91504 54.4108 7.91504Z" stroke="#324320" stroke-width="2.29" stroke-miterlimit="10"/>
<path d="M53.1408 7.91504H44.7408V13.475H53.1408V7.91504Z" stroke="#324320" stroke-width="2.29" stroke-miterlimit="10"/>
<path d="M70.4108 26.6951L49.3308 60.0551" stroke="#EEE1B3" stroke-width="2.38" stroke-miterlimit="10"/>
<path d="M60.0708 13.4751H38.6708C37.8356 13.4755 37.0152 13.6956 36.2921 14.1134C35.5689 14.5311 34.9684 15.1318 34.5508 15.8551L23.8508 34.3851C23.433 35.1087 23.213 35.9295 23.213 36.7651C23.213 37.6006 23.433 38.4215 23.8508 39.1451L34.5508 57.6751C34.9684 58.3984 35.5689 58.999 36.2921 59.4168C37.0152 59.8346 37.8356 60.0547 38.6708 60.0551H60.0708C60.9059 60.0547 61.7263 59.8346 62.4495 59.4168C63.1726 58.999 63.7732 58.3984 64.1908 57.6751L74.8908 39.1451C75.3086 38.4215 75.5285 37.6006 75.5285 36.7651C75.5285 35.9295 75.3086 35.1087 74.8908 34.3851L64.1908 15.8551C63.7732 15.1318 63.1726 14.5311 62.4495 14.1134C61.7263 13.6956 60.9059 13.4755 60.0708 13.4751Z" stroke="#324320" stroke-width="2.29" stroke-miterlimit="10"/>
</svg>
