<svg width="121" height="109" viewBox="0 0 121 109" fill="none" xmlns="http://www.w3.org/2000/svg">
<path d="M9.29063 92.2448C7.93263 92.2448 6.6878 91.9214 5.55613 91.2748C4.42446 90.6281 3.51105 89.7066 2.81588 88.5103C2.13688 87.3139 1.79738 85.8832 1.79738 84.218C1.79738 82.569 2.12071 81.1302 2.76738 79.9015C3.41405 78.6567 4.32746 77.6948 5.50763 77.0158C6.70396 76.3206 8.11046 75.973 9.72713 75.973C10.3091 75.973 10.9073 76.0296 11.5216 76.1428C12.1521 76.2559 12.7341 76.4499 13.2676 76.7248C13.8011 76.9834 14.2295 77.331 14.5529 77.7675C14.8924 78.204 15.0621 78.7456 15.0621 79.3923C15.0783 80.0874 14.8681 80.7018 14.4316 81.2353C13.9951 81.7526 13.3808 82.0113 12.5886 82.0113C12.1036 82.0113 11.756 81.8981 11.5459 81.6718C11.3519 81.4293 11.263 81.2514 11.2791 81.1383C11.2791 81.0898 11.3761 81.0089 11.5701 80.8958C11.7803 80.7664 11.9824 80.5805 12.1764 80.338C12.3865 80.0793 12.4916 79.7398 12.4916 79.3195C12.4916 78.592 12.2491 78.0181 11.7641 77.5978C11.2791 77.1613 10.592 76.943 9.70288 76.943C8.73288 76.943 7.85988 77.2178 7.08388 77.7675C6.32405 78.3172 5.72588 79.1255 5.28938 80.1925C4.85288 81.2433 4.63463 82.5367 4.63463 84.0725C4.63463 85.3658 4.86096 86.546 5.31363 87.613C5.78246 88.6638 6.42913 89.5045 7.25363 90.135C8.0943 90.7493 9.0643 91.0565 10.1636 91.0565C11.0366 91.0565 11.7803 90.8787 12.3946 90.523C13.0251 90.1512 13.591 89.5611 14.0921 88.7528C14.2376 88.4779 14.4963 88.4537 14.8681 88.68C15.0136 88.777 15.1268 88.8983 15.2076 89.0438C15.2885 89.1731 15.2723 89.3105 15.1591 89.456C14.5448 90.232 13.9628 90.8221 13.4131 91.2263C12.8635 91.6143 12.2653 91.881 11.6186 92.0265C10.972 92.172 10.196 92.2448 9.29063 92.2448ZM22.552 92.0508C21.4203 92.0508 20.4261 91.784 19.5692 91.2505C18.7286 90.717 18.0738 90.0218 17.605 89.165C17.1361 88.3082 16.9017 87.3948 16.9017 86.4248C16.9017 85.4709 17.0715 84.6222 17.411 83.8785C17.7505 83.1348 18.1951 82.5124 18.7447 82.0113C19.3106 81.5101 19.9249 81.1302 20.5877 80.8715C21.2506 80.6128 21.9053 80.4835 22.552 80.4835C23.6836 80.4835 24.6698 80.7503 25.5105 81.2838C26.3673 81.8173 27.0301 82.5124 27.499 83.3693C27.9678 84.2261 28.2022 85.1395 28.2022 86.1095C28.2022 87.0633 28.0244 87.9121 27.6687 88.6558C27.3292 89.3994 26.8766 90.0218 26.3107 90.523C25.7611 91.0242 25.1548 91.4041 24.492 91.6628C23.8291 91.9214 23.1825 92.0508 22.552 92.0508ZM22.552 91.1535C23.3441 91.1535 23.9666 90.9191 24.4192 90.4503C24.8881 89.9814 25.2195 89.3671 25.4135 88.6073C25.6236 87.8313 25.7287 86.9987 25.7287 86.1095C25.7287 85.2527 25.6236 84.4686 25.4135 83.7573C25.2033 83.0459 24.8638 82.472 24.395 82.0355C23.9261 81.599 23.3118 81.3808 22.552 81.3808C21.7598 81.3808 21.1293 81.6152 20.6605 82.084C20.1916 82.5367 19.8602 83.1429 19.6662 83.9028C19.4722 84.6464 19.3752 85.4709 19.3752 86.3763C19.3752 87.2169 19.4722 88.001 19.6662 88.7285C19.8764 89.456 20.2159 90.0461 20.6847 90.4988C21.1536 90.9353 21.776 91.1535 22.552 91.1535ZM34.4794 92.0508C33.2345 92.0508 32.1918 91.8325 31.3511 91.396C30.5266 90.9433 30.1144 90.2967 30.1144 89.456C30.1144 88.9872 30.2518 88.6073 30.5266 88.3163C30.8176 88.0253 31.1895 87.8798 31.6421 87.8798C31.9331 87.8798 32.1675 87.9606 32.3454 88.1223C32.5394 88.2678 32.6364 88.3728 32.6364 88.4375C32.6364 88.486 32.5394 88.5992 32.3454 88.777C32.1675 88.9387 32.0786 89.2054 32.0786 89.5773C32.0786 90.0299 32.2888 90.4098 32.7091 90.717C33.1456 91.008 33.8004 91.1535 34.6734 91.1535C35.4332 91.1535 36.0233 90.9918 36.4436 90.6685C36.8801 90.329 37.0984 89.8602 37.0984 89.262C37.0984 88.777 36.9367 88.4052 36.6134 88.1465C36.3062 87.8717 35.902 87.6534 35.4009 87.4918C34.9159 87.3301 34.3905 87.1684 33.8246 87.0068C33.275 86.8451 32.7495 86.643 32.2484 86.4005C31.7472 86.158 31.335 85.8266 31.0116 85.4063C30.7045 84.9698 30.5509 84.3958 30.5509 83.6845C30.5509 82.957 30.7691 82.3588 31.2056 81.89C31.6421 81.4212 32.1999 81.0736 32.8789 80.8473C33.5579 80.6048 34.245 80.4835 34.9401 80.4835C35.5383 80.4835 36.1041 80.5724 36.6376 80.7503C37.1711 80.9119 37.6076 81.1625 37.9471 81.502C38.3028 81.8415 38.4806 82.2699 38.4806 82.7873C38.4806 83.1914 38.3513 83.5552 38.0926 83.8785C37.834 84.2018 37.4783 84.3635 37.0256 84.3635C36.7346 84.3635 36.4921 84.2908 36.2981 84.1453C36.1203 83.9836 36.0314 83.8704 36.0314 83.8058C36.0314 83.7734 36.088 83.7168 36.2011 83.636C36.3305 83.539 36.4517 83.4178 36.5649 83.2723C36.678 83.1106 36.7346 82.9085 36.7346 82.666C36.7023 82.1972 36.476 81.8496 36.0556 81.6233C35.6353 81.3969 35.1665 81.2838 34.6491 81.2838C34.0833 81.2838 33.5579 81.4212 33.0729 81.696C32.5879 81.9708 32.3454 82.3669 32.3454 82.8843C32.3454 83.3531 32.4424 83.7168 32.6364 83.9755C32.8465 84.2342 33.1699 84.4605 33.6064 84.6545C34.059 84.8323 34.641 85.0344 35.3524 85.2608C36.0637 85.4871 36.6861 85.7215 37.2196 85.964C37.7693 86.2065 38.1896 86.5298 38.4806 86.934C38.7878 87.322 38.9414 87.8555 38.9414 88.5345C38.9414 89.2135 38.7474 89.8198 38.3594 90.3533C37.9714 90.8868 37.4379 91.3071 36.7589 91.6143C36.096 91.9053 35.3362 92.0508 34.4794 92.0508ZM41.1568 91.8325C41.0437 91.8325 40.9467 91.784 40.8658 91.687C40.8012 91.5738 40.7688 91.4607 40.7688 91.3475C40.785 91.105 40.8416 90.9757 40.9386 90.9595C41.0518 90.9272 41.1811 90.911 41.3266 90.911C41.7793 90.911 42.0864 90.8383 42.2481 90.6928C42.4259 90.5311 42.5229 90.3209 42.5391 90.0623C42.5714 89.8036 42.5876 89.5368 42.5876 89.262V83.7088C42.5876 83.4178 42.5714 83.151 42.5391 82.9085C42.5229 82.6498 42.434 82.4478 42.2723 82.3023C42.1107 82.1406 41.8035 82.0598 41.3508 82.0598C41.2053 82.0598 41.0679 82.0436 40.9386 82.0113C40.8254 81.9628 40.7688 81.8173 40.7688 81.5748C40.7688 81.3323 40.8982 81.1868 41.1568 81.1383C41.9005 81.0251 42.4663 80.9119 42.8543 80.7988C43.2585 80.6856 43.5576 80.5886 43.7516 80.5078C43.9618 80.4269 44.1477 80.3784 44.3093 80.3623C44.4387 80.3461 44.5438 80.3703 44.6246 80.435C44.7216 80.4997 44.7701 80.629 44.7701 80.823V82.3508H44.8428C45.1662 82.0436 45.4814 81.7526 45.7886 81.4778C46.0958 81.1868 46.4676 80.9523 46.9041 80.7745C47.3406 80.5805 47.8983 80.4835 48.5773 80.4835C49.3695 80.4835 50.0485 80.6533 50.6143 80.9928C51.1802 81.3161 51.5924 81.7688 51.8511 82.3508H51.8996C52.2229 82.0436 52.5624 81.7526 52.9181 81.4778C53.2738 81.1868 53.6941 80.9523 54.1791 80.7745C54.6641 80.5805 55.2461 80.4835 55.9251 80.4835C57.0244 80.4835 57.8974 80.8149 58.5441 81.4778C59.1908 82.1406 59.5141 83.0136 59.5141 84.0968V89.262C59.5141 89.5368 59.5222 89.8036 59.5383 90.0623C59.5707 90.3209 59.6677 90.5311 59.8293 90.6928C60.0072 90.8383 60.3224 90.911 60.7751 90.911C60.9206 90.911 61.0418 90.9272 61.1388 90.9595C61.252 90.9757 61.3167 91.105 61.3328 91.3475C61.3328 91.4607 61.3005 91.5738 61.2358 91.687C61.1712 91.784 61.0742 91.8325 60.9448 91.8325C60.476 91.8002 60.0395 91.7759 59.6353 91.7598C59.2473 91.7598 58.8351 91.7598 58.3986 91.7598C57.9621 91.7598 57.5498 91.7598 57.1618 91.7598C56.7738 91.7759 56.3454 91.8002 55.8766 91.8325C55.7473 91.8325 55.6503 91.784 55.5856 91.687C55.5209 91.5738 55.4886 91.4607 55.4886 91.3475C55.5048 91.105 55.5613 90.9757 55.6583 90.9595C55.7715 90.9272 55.9008 90.911 56.0463 90.911C56.499 90.911 56.8062 90.8383 56.9678 90.6928C57.1457 90.5311 57.2427 90.3209 57.2588 90.0623C57.2912 89.8036 57.3073 89.5368 57.3073 89.262V84.121C57.3073 83.5875 57.1861 83.151 56.9436 82.8115C56.7173 82.472 56.4263 82.2214 56.0706 82.0598C55.7149 81.8981 55.3512 81.8173 54.9793 81.8173C54.4297 81.8173 53.9608 81.9223 53.5728 82.1325C53.1848 82.3265 52.8777 82.5528 52.6513 82.8115C52.425 83.0702 52.2633 83.2965 52.1663 83.4905V89.262C52.1663 89.5368 52.1663 89.8036 52.1663 90.0623C52.1825 90.3209 52.2633 90.5311 52.4088 90.6928C52.5705 90.8383 52.8777 90.911 53.3303 90.911C53.492 90.911 53.6213 90.9272 53.7183 90.9595C53.8153 90.9757 53.8719 91.105 53.8881 91.3475C53.8881 91.4607 53.8558 91.5738 53.7911 91.687C53.7264 91.784 53.6294 91.8325 53.5001 91.8325C53.0313 91.8002 52.6109 91.7759 52.2391 91.7598C51.8673 91.7598 51.4631 91.7598 51.0266 91.7598C50.6063 91.7598 50.2102 91.7598 49.8383 91.7598C49.4827 91.7759 49.0704 91.8002 48.6016 91.8325C48.4723 91.8325 48.3753 91.784 48.3106 91.687C48.2459 91.5738 48.2136 91.4607 48.2136 91.3475C48.2298 91.105 48.2863 90.9757 48.3833 90.9595C48.4803 90.9272 48.6097 90.911 48.7713 90.911C49.224 90.911 49.5231 90.8383 49.6686 90.6928C49.8303 90.5311 49.9111 90.3209 49.9111 90.0623C49.9273 89.8036 49.9353 89.5368 49.9353 89.262V84.121C49.9353 83.3127 49.6928 82.7307 49.2078 82.375C48.7228 82.0032 48.1974 81.8173 47.6316 81.8173C47.0658 81.8173 46.5888 81.9223 46.2008 82.1325C45.8128 82.3265 45.5057 82.5528 45.2793 82.8115C45.053 83.0702 44.8913 83.2965 44.7943 83.4905V89.262C44.7943 89.5368 44.8024 89.8036 44.8186 90.0623C44.8509 90.3209 44.9479 90.5311 45.1096 90.6928C45.2874 90.8383 45.6027 90.911 46.0553 90.911C46.2008 90.911 46.3221 90.9272 46.4191 90.9595C46.5323 90.9757 46.5969 91.105 46.6131 91.3475C46.6131 91.4607 46.5808 91.5738 46.5161 91.687C46.4514 91.784 46.3544 91.8325 46.2251 91.8325C45.7563 91.8002 45.3198 91.7759 44.9156 91.7598C44.5276 91.7598 44.1153 91.7598 43.6788 91.7598C43.2423 91.7598 42.8301 91.7598 42.4421 91.7598C42.0541 91.7759 41.6257 91.8002 41.1568 91.8325ZM68.2581 92.0508C67.0133 92.0508 65.9624 91.784 65.1056 91.2505C64.2649 90.717 63.6344 90.0057 63.2141 89.1165C62.7938 88.2273 62.5836 87.2573 62.5836 86.2065C62.5836 85.4952 62.7049 84.8081 62.9474 84.1453C63.206 83.4663 63.5698 82.8519 64.0386 82.3023C64.5074 81.7364 65.0733 81.2918 65.7361 80.9685C66.3989 80.6452 67.1507 80.4835 67.9914 80.4835C69.4787 80.4835 70.5942 80.8715 71.3379 81.6475C72.0977 82.4073 72.5342 83.3773 72.6474 84.5575C72.6474 85.1233 72.4857 85.4952 72.1624 85.673C71.8552 85.8508 71.451 85.9398 70.9499 85.9398H65.0571C65.0571 86.8774 65.1864 87.7181 65.4451 88.4618C65.7038 89.1893 66.1079 89.7713 66.6576 90.2078C67.2234 90.6281 67.9671 90.8383 68.8886 90.8383C69.5676 90.8383 70.1496 90.6928 70.6346 90.4018C71.1196 90.1108 71.5884 89.6015 72.0411 88.874C72.1704 88.7123 72.3483 88.7043 72.5746 88.8498C72.7039 88.9144 72.7848 89.0195 72.8171 89.165C72.8494 89.2943 72.8333 89.4075 72.7686 89.5045C72.2674 90.2967 71.6369 90.9191 70.8771 91.3718C70.1173 91.8244 69.2443 92.0508 68.2581 92.0508ZM65.0571 85.0183H69.0099C69.3979 85.0183 69.705 84.9455 69.9314 84.8C70.1739 84.6383 70.3032 84.3716 70.3194 83.9998C70.3194 83.3046 70.1254 82.6903 69.7374 82.1568C69.3655 81.6071 68.7835 81.3323 67.9914 81.3323C67.183 81.3323 66.504 81.6556 65.9544 82.3023C65.4209 82.9489 65.1218 83.8543 65.0571 85.0183ZM79.8485 92.0508C78.9431 92.0508 78.1025 91.8083 77.3265 91.3233C76.5505 90.8383 75.9281 90.1593 75.4592 89.2863C74.9904 88.4133 74.756 87.4028 74.756 86.255C74.756 85.2527 74.9904 84.315 75.4592 83.442C75.9442 82.5528 76.6071 81.8415 77.4477 81.308C78.3046 80.7583 79.2746 80.4835 80.3577 80.4835C80.8751 80.4835 81.3843 80.5482 81.8855 80.6775C82.3866 80.7907 82.8151 80.9523 83.1707 81.1625H83.2435V77.4523C83.2435 77.1613 83.2273 76.8945 83.195 76.652C83.1788 76.3933 83.0899 76.1913 82.9282 76.0458C82.7666 75.8841 82.4594 75.8033 82.0067 75.8033C81.8612 75.8033 81.7238 75.7871 81.5945 75.7548C81.4813 75.7063 81.4247 75.5608 81.4247 75.3183C81.4247 75.0758 81.5541 74.9303 81.8127 74.8818C82.5564 74.7686 83.1222 74.6554 83.5102 74.5423C83.9144 74.4291 84.2216 74.3321 84.4317 74.2513C84.6419 74.1704 84.8278 74.1219 84.9895 74.1058C85.1188 74.0896 85.2239 74.1138 85.3047 74.1785C85.4017 74.2432 85.4502 74.3725 85.4502 74.5665V89.5288C85.4502 90.4826 86.0807 90.9595 87.3417 90.9595C87.5196 90.9595 87.6327 91.008 87.6812 91.105C87.7297 91.1858 87.754 91.2667 87.754 91.3475C87.754 91.5738 87.6166 91.7113 87.3417 91.7598L83.486 92.0265C83.3728 92.0265 83.3081 91.978 83.292 91.881C83.2758 91.784 83.2677 91.6708 83.2677 91.5415V90.5715H83.195C82.7908 90.9918 82.2816 91.3475 81.6672 91.6385C81.0691 91.9133 80.4628 92.0508 79.8485 92.0508ZM80.673 90.8383C81.2873 90.8383 81.7966 90.717 82.2007 90.4745C82.6049 90.2158 82.9525 89.9329 83.2435 89.6258V83.2238C83.1626 82.9489 83.0091 82.6741 82.7827 82.3993C82.5726 82.1083 82.2816 81.8658 81.9097 81.6718C81.5541 81.4616 81.1176 81.3565 80.6002 81.3565C79.6626 81.3565 78.8704 81.8011 78.2237 82.6903C77.5771 83.5633 77.2537 84.7919 77.2537 86.3763C77.2537 87.1361 77.375 87.8636 77.6175 88.5588C77.8761 89.2378 78.2561 89.7874 78.7572 90.2078C79.2584 90.6281 79.897 90.8383 80.673 90.8383ZM89.0169 91.8325C88.9037 91.8325 88.8067 91.784 88.7259 91.687C88.6612 91.5738 88.6289 91.4607 88.6289 91.3475C88.6612 91.105 88.7259 90.9757 88.8229 90.9595C88.9199 90.9272 89.0492 90.911 89.2109 90.911C89.6635 90.911 89.9707 90.8383 90.1324 90.6928C90.294 90.5311 90.3829 90.3209 90.3991 90.0623C90.4314 89.8036 90.4476 89.5368 90.4476 89.262V83.7088C90.4476 83.4178 90.4314 83.151 90.3991 82.9085C90.3829 82.6498 90.294 82.4478 90.1324 82.3023C89.9707 82.1406 89.6635 82.0598 89.2109 82.0598C89.0654 82.0598 88.9279 82.0436 88.7986 82.0113C88.6854 81.9628 88.6289 81.8173 88.6289 81.5748C88.6289 81.3323 88.7582 81.1868 89.0169 81.1383C89.7605 81.0251 90.3264 80.9119 90.7144 80.7988C91.1185 80.6856 91.4257 80.5886 91.6359 80.5078C91.846 80.4269 92.0319 80.3784 92.1936 80.3623C92.3229 80.3461 92.428 80.3703 92.5089 80.435C92.6059 80.4997 92.6544 80.629 92.6544 80.823V89.262C92.6544 89.5368 92.6624 89.8036 92.6786 90.0623C92.7109 90.3209 92.8079 90.5311 92.9696 90.6928C93.1474 90.8383 93.4627 90.911 93.9154 90.911C94.0609 90.911 94.1821 90.9272 94.2791 90.9595C94.3923 90.9757 94.4569 91.105 94.4731 91.3475C94.4731 91.4607 94.4408 91.5738 94.3761 91.687C94.3114 91.784 94.2144 91.8325 94.0851 91.8325C93.6163 91.8002 93.1798 91.7759 92.7756 91.7598C92.3876 91.7598 91.9754 91.7598 91.5389 91.7598C91.1024 91.7598 90.6901 91.7598 90.3021 91.7598C89.9141 91.7759 89.4857 91.8002 89.0169 91.8325ZM91.4176 77.6705C90.9649 77.6705 90.585 77.5331 90.2779 77.2583C89.9707 76.9673 89.8171 76.6116 89.8171 76.1913C89.8171 75.8194 90.003 75.488 90.3749 75.197C90.7467 74.906 91.167 74.7605 91.6359 74.7605C92.04 74.7605 92.3714 74.906 92.6301 75.197C92.8888 75.4718 93.0181 75.8275 93.0181 76.264C93.0181 76.652 92.8645 76.9834 92.5574 77.2583C92.2502 77.5331 91.8703 77.6705 91.4176 77.6705ZM101.119 92.0508C99.454 92.0508 98.1525 91.5253 97.2149 90.4745C96.2934 89.4075 95.8326 88.001 95.8326 86.255C95.8811 85.1395 96.156 84.1533 96.6571 83.2965C97.1745 82.4397 97.8535 81.7688 98.6941 81.2838C99.551 80.7826 100.497 80.5158 101.531 80.4835C102.097 80.4835 102.671 80.5563 103.253 80.7018C103.851 80.8311 104.344 81.0817 104.732 81.4535C105.137 81.8092 105.339 82.3265 105.339 83.0055C105.339 83.4743 105.193 83.9108 104.902 84.315C104.611 84.703 104.207 84.897 103.69 84.897C103.334 84.897 103.059 84.8081 102.865 84.6303C102.671 84.4524 102.574 84.3231 102.574 84.2423C102.574 84.2099 102.639 84.1453 102.768 84.0483C102.914 83.9351 103.051 83.7896 103.18 83.6118C103.31 83.4178 103.374 83.1833 103.374 82.9085C103.374 82.3912 103.188 82.0113 102.817 81.7688C102.445 81.5263 102.024 81.3969 101.556 81.3808C100.844 81.3808 100.27 81.5263 99.8339 81.8173C99.4135 82.1083 99.0902 82.4963 98.8639 82.9813C98.6375 83.4501 98.484 83.9674 98.4031 84.5333C98.3385 85.0991 98.3061 85.6488 98.3061 86.1823C98.3061 87.0714 98.4435 87.8717 98.7184 88.583C98.9932 89.2782 99.3812 89.8278 99.8824 90.232C100.384 90.6362 100.982 90.8383 101.677 90.8383C102.388 90.8383 102.986 90.6847 103.471 90.3775C103.956 90.0703 104.401 89.6177 104.805 89.0195C104.918 88.8578 105.088 88.8417 105.314 88.971C105.428 89.0357 105.508 89.1246 105.557 89.2378C105.605 89.3509 105.589 89.4641 105.508 89.5773C104.975 90.3371 104.312 90.9433 103.52 91.396C102.728 91.8325 101.927 92.0508 101.119 92.0508ZM112.992 92.0508C111.86 92.0508 110.866 91.784 110.009 91.2505C109.169 90.717 108.514 90.0218 108.045 89.165C107.576 88.3082 107.342 87.3948 107.342 86.4248C107.342 85.4709 107.512 84.6222 107.851 83.8785C108.191 83.1348 108.635 82.5124 109.185 82.0113C109.751 81.5101 110.365 81.1302 111.028 80.8715C111.691 80.6128 112.345 80.4835 112.992 80.4835C114.124 80.4835 115.11 80.7503 115.951 81.2838C116.807 81.8173 117.47 82.5124 117.939 83.3693C118.408 84.2261 118.642 85.1395 118.642 86.1095C118.642 87.0633 118.465 87.9121 118.109 88.6558C117.769 89.3994 117.317 90.0218 116.751 90.523C116.201 91.0242 115.595 91.4041 114.932 91.6628C114.269 91.9214 113.623 92.0508 112.992 92.0508ZM112.992 91.1535C113.784 91.1535 114.407 90.9191 114.859 90.4503C115.328 89.9814 115.66 89.3671 115.854 88.6073C116.064 87.8313 116.169 86.9987 116.169 86.1095C116.169 85.2527 116.064 84.4686 115.854 83.7573C115.643 83.0459 115.304 82.472 114.835 82.0355C114.366 81.599 113.752 81.3808 112.992 81.3808C112.2 81.3808 111.569 81.6152 111.101 82.084C110.632 82.5367 110.3 83.1429 110.106 83.9028C109.912 84.6464 109.815 85.4709 109.815 86.3763C109.815 87.2169 109.912 88.001 110.106 88.7285C110.317 89.456 110.656 90.0461 111.125 90.4988C111.594 90.9353 112.216 91.1535 112.992 91.1535Z" fill="#324320"/>
<path d="M16.5366 106.1C15.7393 106.1 15.126 105.962 14.6966 105.686C14.2673 105.402 14.0526 104.988 14.0526 104.444C14.0526 104.168 14.1446 103.942 14.3286 103.765C14.5203 103.581 14.7656 103.489 15.0646 103.489C15.264 103.497 15.402 103.547 15.4786 103.639C15.563 103.731 15.6051 103.8 15.6051 103.846C15.6051 103.861 15.5706 103.888 15.5016 103.926C15.4326 103.957 15.3636 104.018 15.2946 104.11C15.2256 104.195 15.1911 104.329 15.1911 104.513C15.1911 104.858 15.2985 105.134 15.5131 105.341C15.7278 105.54 16.069 105.64 16.5366 105.64C16.8663 105.64 17.1461 105.579 17.3761 105.456C17.6138 105.326 17.794 105.161 17.9166 104.961C18.0393 104.754 18.1006 104.544 18.1006 104.329C18.1006 104.007 18.0086 103.742 17.8246 103.535C17.6406 103.328 17.3991 103.152 17.1001 103.006C16.8088 102.853 16.4983 102.707 16.1686 102.569C15.839 102.431 15.5246 102.274 15.2256 102.098C14.9343 101.922 14.6928 101.703 14.5011 101.442C14.3095 101.174 14.2098 100.841 14.2021 100.442C14.1945 99.9589 14.298 99.5679 14.5126 99.2689C14.7273 98.9622 15.0263 98.7399 15.4096 98.6019C15.793 98.4562 16.2185 98.3834 16.6861 98.3834C17.0311 98.3834 17.3685 98.4332 17.6981 98.5329C18.0355 98.6325 18.3115 98.7897 18.5261 99.0044C18.7485 99.2114 18.8596 99.4874 18.8596 99.8324C18.8596 100.108 18.7638 100.338 18.5721 100.522C18.3881 100.699 18.1466 100.787 17.8476 100.787C17.6483 100.772 17.5065 100.722 17.4221 100.637C17.3455 100.545 17.3071 100.476 17.3071 100.43C17.3071 100.407 17.3531 100.381 17.4451 100.35C17.5371 100.312 17.6291 100.25 17.7211 100.166C17.8131 100.074 17.8591 99.9397 17.8591 99.7634C17.8591 99.472 17.748 99.2497 17.5256 99.0964C17.3033 98.9354 17.0273 98.8549 16.6976 98.8549C16.1993 98.8549 15.8351 98.9737 15.6051 99.2114C15.3828 99.4414 15.2716 99.702 15.2716 99.9934C15.2716 100.277 15.3483 100.507 15.5016 100.683C15.655 100.86 15.885 101.032 16.1916 101.201C16.5366 101.385 16.8855 101.557 17.2381 101.718C17.5908 101.872 17.9166 102.044 18.2156 102.236C18.5223 102.428 18.7676 102.669 18.9516 102.96C19.1356 103.244 19.2276 103.612 19.2276 104.064C19.2276 104.455 19.105 104.804 18.8596 105.111C18.622 105.418 18.3 105.659 17.8936 105.835C17.4873 106.012 17.035 106.1 16.5366 106.1ZM20.047 105.904C19.9857 105.904 19.9397 105.881 19.909 105.835C19.8783 105.782 19.863 105.728 19.863 105.674C19.8707 105.559 19.8975 105.498 19.9435 105.49C19.9972 105.475 20.0585 105.467 20.1275 105.467C20.3422 105.467 20.4878 105.433 20.5645 105.364C20.6488 105.287 20.6948 105.188 20.7025 105.065C20.7178 104.942 20.7255 104.816 20.7255 104.685V99.0849C20.7255 98.9469 20.7178 98.8204 20.7025 98.7054C20.6948 98.5827 20.6527 98.4869 20.576 98.4179C20.4993 98.3412 20.3537 98.3029 20.139 98.3029C20.07 98.3029 20.0048 98.2952 19.9435 98.2799C19.8898 98.2569 19.863 98.1879 19.863 98.0729C19.863 97.9579 19.9243 97.8889 20.047 97.8659C20.3997 97.8122 20.668 97.7585 20.852 97.7049C21.0437 97.6512 21.1893 97.6052 21.289 97.5669C21.3887 97.5285 21.4768 97.5055 21.5535 97.4979C21.6148 97.4902 21.6647 97.5017 21.703 97.5324C21.749 97.563 21.772 97.6244 21.772 97.7164V102.972C22.1093 102.903 22.3853 102.761 22.6 102.546L23.566 101.557C23.612 101.504 23.6618 101.446 23.7155 101.385C23.7768 101.324 23.8113 101.266 23.819 101.212C23.8343 101.159 23.8037 101.117 23.727 101.086C23.6503 101.055 23.5047 101.048 23.29 101.063C23.2057 101.048 23.1597 100.979 23.152 100.856C23.152 100.795 23.1673 100.741 23.198 100.695C23.2363 100.649 23.2823 100.626 23.336 100.626C23.5123 100.634 23.7232 100.641 23.9685 100.649C24.2215 100.657 24.4323 100.66 24.601 100.66C24.7313 100.66 24.8578 100.657 24.9805 100.649C25.1108 100.641 25.2412 100.634 25.3715 100.626C25.4328 100.626 25.4788 100.649 25.5095 100.695C25.5402 100.741 25.5555 100.795 25.5555 100.856C25.5478 100.956 25.5248 101.017 25.4865 101.04C25.4558 101.055 25.4137 101.063 25.36 101.063C25.061 101.063 24.8195 101.117 24.6355 101.224C24.4515 101.331 24.2445 101.504 24.0145 101.741L23.0485 102.73C23.1405 102.853 23.2632 103.003 23.4165 103.179C23.5698 103.355 23.7308 103.543 23.8995 103.742C24.0758 103.934 24.2407 104.118 24.394 104.294C24.5473 104.463 24.67 104.601 24.762 104.708C24.9843 104.946 25.1683 105.13 25.314 105.26C25.4673 105.383 25.6552 105.452 25.8775 105.467C25.9388 105.475 25.9963 105.487 26.05 105.502C26.1037 105.51 26.1305 105.567 26.1305 105.674C26.1305 105.728 26.1152 105.782 26.0845 105.835C26.0615 105.881 26.0155 105.904 25.9465 105.904C25.8392 105.897 25.751 105.889 25.682 105.881C25.613 105.881 25.5363 105.878 25.452 105.87C25.3677 105.87 25.245 105.87 25.084 105.87C24.9307 105.87 24.7083 105.87 24.417 105.87C24.1487 105.579 23.8382 105.23 23.4855 104.823C23.1405 104.417 22.7955 104.015 22.4505 103.616C22.3738 103.532 22.2742 103.455 22.1515 103.386C22.0365 103.309 21.91 103.279 21.772 103.294V104.685C21.772 104.816 21.7758 104.942 21.7835 105.065C21.7988 105.188 21.8448 105.287 21.9215 105.364C22.0058 105.433 22.1515 105.467 22.3585 105.467C22.4352 105.467 22.4965 105.475 22.5425 105.49C22.5962 105.498 22.6268 105.559 22.6345 105.674C22.6345 105.728 22.6192 105.782 22.5885 105.835C22.5578 105.881 22.5118 105.904 22.4505 105.904C22.2282 105.889 22.0212 105.878 21.8295 105.87C21.6378 105.87 21.4423 105.87 21.243 105.87C21.036 105.87 20.8405 105.87 20.6565 105.87C20.4725 105.878 20.2693 105.889 20.047 105.904ZM26.6869 105.904C26.6332 105.904 26.5872 105.881 26.5489 105.835C26.5182 105.782 26.5029 105.728 26.5029 105.674C26.5182 105.559 26.5489 105.498 26.5949 105.49C26.6409 105.475 26.7022 105.467 26.7789 105.467C26.9936 105.467 27.1392 105.433 27.2159 105.364C27.2926 105.287 27.3347 105.188 27.3424 105.065C27.3577 104.942 27.3654 104.816 27.3654 104.685V102.052C27.3654 101.914 27.3577 101.787 27.3424 101.672C27.3347 101.55 27.2926 101.454 27.2159 101.385C27.1392 101.308 26.9936 101.27 26.7789 101.27C26.7099 101.27 26.6447 101.262 26.5834 101.247C26.5297 101.224 26.5029 101.155 26.5029 101.04C26.5029 100.925 26.5642 100.856 26.6869 100.833C27.0396 100.779 27.3079 100.726 27.4919 100.672C27.6836 100.618 27.8292 100.572 27.9289 100.534C28.0286 100.496 28.1167 100.473 28.1934 100.465C28.2547 100.457 28.3046 100.469 28.3429 100.499C28.3889 100.53 28.4119 100.591 28.4119 100.683V104.685C28.4119 104.816 28.4157 104.942 28.4234 105.065C28.4387 105.188 28.4847 105.287 28.5614 105.364C28.6457 105.433 28.7952 105.467 29.0099 105.467C29.0789 105.467 29.1364 105.475 29.1824 105.49C29.2361 105.498 29.2667 105.559 29.2744 105.674C29.2744 105.728 29.2591 105.782 29.2284 105.835C29.1977 105.881 29.1517 105.904 29.0904 105.904C28.8681 105.889 28.6611 105.878 28.4694 105.87C28.2854 105.87 28.0899 105.87 27.8829 105.87C27.6759 105.87 27.4804 105.87 27.2964 105.87C27.1124 105.878 26.9092 105.889 26.6869 105.904ZM27.8254 99.1884C27.6107 99.1884 27.4306 99.1232 27.2849 98.9929C27.1392 98.8549 27.0664 98.6862 27.0664 98.4869C27.0664 98.3105 27.1546 98.1534 27.3309 98.0154C27.5072 97.8774 27.7066 97.8084 27.9289 97.8084C28.1206 97.8084 28.2777 97.8774 28.4004 98.0154C28.5231 98.1457 28.5844 98.3144 28.5844 98.5214C28.5844 98.7054 28.5116 98.8625 28.3659 98.9929C28.2202 99.1232 28.0401 99.1884 27.8254 99.1884ZM30.0336 105.904C29.9799 105.904 29.9339 105.881 29.8956 105.835C29.8649 105.782 29.8496 105.728 29.8496 105.674C29.8649 105.559 29.8956 105.498 29.9416 105.49C29.9876 105.475 30.0489 105.467 30.1256 105.467C30.3403 105.467 30.4859 105.433 30.5626 105.364C30.6393 105.287 30.6814 105.188 30.6891 105.065C30.7044 104.942 30.7121 104.816 30.7121 104.685V102.052C30.7121 101.914 30.7044 101.787 30.6891 101.672C30.6814 101.55 30.6393 101.454 30.5626 101.385C30.4859 101.308 30.3403 101.27 30.1256 101.27C30.0566 101.27 29.9914 101.262 29.9301 101.247C29.8764 101.224 29.8496 101.155 29.8496 101.04C29.8496 100.925 29.9109 100.856 30.0336 100.833C30.3863 100.779 30.6546 100.726 30.8386 100.672C31.0303 100.618 31.1721 100.572 31.2641 100.534C31.3638 100.496 31.4519 100.473 31.5286 100.465C31.5899 100.457 31.6398 100.469 31.6781 100.499C31.7241 100.53 31.7471 100.591 31.7471 100.683V101.408H31.7816C31.9349 101.262 32.0921 101.124 32.2531 100.994C32.4141 100.856 32.6019 100.745 32.8166 100.66C33.0389 100.568 33.3111 100.522 33.6331 100.522C34.1544 100.522 34.5684 100.68 34.8751 100.994C35.1818 101.308 35.3351 101.722 35.3351 102.236V104.685C35.3351 104.816 35.3389 104.942 35.3466 105.065C35.3619 105.188 35.4079 105.287 35.4846 105.364C35.5689 105.433 35.7184 105.467 35.9331 105.467C36.0021 105.467 36.0596 105.475 36.1056 105.49C36.1593 105.498 36.1899 105.559 36.1976 105.674C36.1976 105.728 36.1823 105.782 36.1516 105.835C36.1209 105.881 36.0749 105.904 36.0136 105.904C35.7913 105.889 35.5843 105.878 35.3926 105.87C35.2086 105.87 35.0131 105.87 34.8061 105.87C34.5991 105.87 34.4036 105.87 34.2196 105.87C34.0356 105.878 33.8324 105.889 33.6101 105.904C33.5564 105.904 33.5104 105.881 33.4721 105.835C33.4414 105.782 33.4261 105.728 33.4261 105.674C33.4338 105.559 33.4606 105.498 33.5066 105.49C33.5603 105.475 33.6216 105.467 33.6906 105.467C33.9053 105.467 34.0509 105.433 34.1276 105.364C34.2119 105.287 34.2579 105.188 34.2656 105.065C34.2809 104.942 34.2886 104.816 34.2886 104.685V102.247C34.2886 101.994 34.2311 101.787 34.1161 101.626C34.0088 101.465 33.8708 101.347 33.7021 101.27C33.5334 101.193 33.3609 101.155 33.1846 101.155C32.9239 101.155 32.6939 101.205 32.4946 101.304C32.2953 101.396 32.1343 101.504 32.0116 101.626C31.8889 101.749 31.8046 101.856 31.7586 101.948V104.685C31.7586 104.816 31.7624 104.942 31.7701 105.065C31.7854 105.188 31.8314 105.287 31.9081 105.364C31.9924 105.433 32.1419 105.467 32.3566 105.467C32.4256 105.467 32.4831 105.475 32.5291 105.49C32.5828 105.498 32.6134 105.559 32.6211 105.674C32.6211 105.728 32.6058 105.782 32.5751 105.835C32.5444 105.881 32.4984 105.904 32.4371 105.904C32.2148 105.889 32.0078 105.878 31.8161 105.87C31.6321 105.87 31.4366 105.87 31.2296 105.87C31.0226 105.87 30.8271 105.87 30.6431 105.87C30.4591 105.878 30.2559 105.889 30.0336 105.904ZM39.2879 106.008C38.4983 106.008 37.8811 105.759 37.4364 105.26C36.9994 104.754 36.7809 104.087 36.7809 103.259C36.8039 102.73 36.9343 102.263 37.1719 101.856C37.4173 101.45 37.7393 101.132 38.1379 100.902C38.5443 100.664 38.9928 100.538 39.4834 100.522C39.7518 100.522 40.0239 100.557 40.2999 100.626C40.5836 100.687 40.8174 100.806 41.0014 100.982C41.1931 101.151 41.2889 101.396 41.2889 101.718C41.2889 101.941 41.2199 102.148 41.0819 102.339C40.9439 102.523 40.7523 102.615 40.5069 102.615C40.3383 102.615 40.2079 102.573 40.1159 102.489C40.0239 102.405 39.9779 102.343 39.9779 102.305C39.9779 102.29 40.0086 102.259 40.0699 102.213C40.1389 102.159 40.2041 102.09 40.2654 102.006C40.3268 101.914 40.3574 101.803 40.3574 101.672C40.3574 101.427 40.2693 101.247 40.0929 101.132C39.9166 101.017 39.7173 100.956 39.4949 100.948C39.1576 100.948 38.8854 101.017 38.6784 101.155C38.4791 101.293 38.3258 101.477 38.2184 101.707C38.1111 101.929 38.0383 102.175 37.9999 102.443C37.9693 102.711 37.9539 102.972 37.9539 103.225C37.9539 103.647 38.0191 104.026 38.1494 104.363C38.2798 104.693 38.4638 104.954 38.7014 105.145C38.9391 105.337 39.2228 105.433 39.5524 105.433C39.8898 105.433 40.1734 105.36 40.4034 105.214C40.6334 105.069 40.8443 104.854 41.0359 104.57C41.0896 104.494 41.1701 104.486 41.2774 104.547C41.3311 104.578 41.3694 104.62 41.3924 104.674C41.4154 104.728 41.4078 104.781 41.3694 104.835C41.1164 105.195 40.8021 105.483 40.4264 105.697C40.0508 105.904 39.6713 106.008 39.2879 106.008ZM43.6995 106.008C43.2318 106.008 42.8561 105.874 42.5725 105.605C42.2965 105.337 42.1585 105.015 42.1585 104.639C42.1585 104.248 42.2581 103.942 42.4575 103.719C42.6645 103.497 42.9328 103.332 43.2625 103.225C43.5998 103.118 43.964 103.045 44.355 103.006C44.7536 102.968 45.1408 102.937 45.5165 102.914V102.006C45.5165 101.646 45.4245 101.366 45.2405 101.166C45.0641 100.959 44.7613 100.856 44.332 100.856C44.1173 100.856 43.9141 100.925 43.7225 101.063C43.5385 101.201 43.4465 101.4 43.4465 101.661C43.4465 101.784 43.4771 101.887 43.5385 101.971C43.5998 102.056 43.6611 102.121 43.7225 102.167C43.7838 102.213 43.8145 102.244 43.8145 102.259C43.8145 102.29 43.7685 102.347 43.6765 102.431C43.5921 102.508 43.4733 102.546 43.32 102.546C43.0823 102.546 42.8983 102.458 42.768 102.282C42.6376 102.106 42.5725 101.91 42.5725 101.695C42.5725 101.404 42.6606 101.174 42.837 101.005C43.021 100.837 43.2548 100.714 43.5385 100.637C43.8221 100.561 44.1096 100.522 44.401 100.522C44.746 100.522 45.0795 100.565 45.4015 100.649C45.7311 100.733 45.9995 100.894 46.2065 101.132C46.4211 101.37 46.5285 101.726 46.5285 102.201V104.881C46.5361 104.958 46.5553 105.05 46.586 105.157C46.6166 105.264 46.6741 105.36 46.7585 105.444C46.8505 105.521 46.9731 105.559 47.1265 105.559C47.1801 105.559 47.2223 105.571 47.253 105.594C47.2836 105.609 47.299 105.659 47.299 105.743C47.299 105.812 47.2606 105.866 47.184 105.904C47.1073 105.943 47.0191 105.97 46.9195 105.985C46.8198 106 46.7355 106.008 46.6665 106.008C46.3828 106.008 46.1298 105.927 45.9075 105.766C45.6851 105.598 45.5548 105.368 45.5165 105.076C45.3478 105.383 45.0948 105.617 44.7575 105.778C44.4278 105.931 44.0751 106.008 43.6995 106.008ZM44.0675 105.387C44.3281 105.387 44.5658 105.322 44.7805 105.191C45.0028 105.061 45.1791 104.885 45.3095 104.662C45.4475 104.432 45.5165 104.179 45.5165 103.903V103.248C44.7268 103.302 44.1633 103.428 43.826 103.627C43.4886 103.827 43.32 104.153 43.32 104.605C43.32 105.126 43.5691 105.387 44.0675 105.387ZM48.036 105.904C47.9824 105.904 47.9364 105.881 47.898 105.835C47.8674 105.782 47.852 105.728 47.852 105.674C47.8674 105.559 47.898 105.498 47.944 105.49C47.99 105.475 48.0514 105.467 48.128 105.467C48.3427 105.467 48.4884 105.433 48.565 105.364C48.6417 105.287 48.6839 105.188 48.6915 105.065C48.7069 104.942 48.7145 104.816 48.7145 104.685V102.052C48.7145 101.914 48.7069 101.787 48.6915 101.672C48.6839 101.55 48.6417 101.454 48.565 101.385C48.4884 101.308 48.3427 101.27 48.128 101.27C48.059 101.27 47.9939 101.262 47.9325 101.247C47.8789 101.224 47.852 101.155 47.852 101.04C47.852 100.925 47.9134 100.856 48.036 100.833C48.3887 100.779 48.657 100.726 48.841 100.672C49.0327 100.618 49.1745 100.572 49.2665 100.534C49.3662 100.496 49.4544 100.473 49.531 100.465C49.5924 100.457 49.6422 100.469 49.6805 100.499C49.7265 100.53 49.7495 100.591 49.7495 100.683V101.396H49.784C50.0447 101.143 50.313 100.936 50.589 100.775C50.865 100.607 51.118 100.522 51.348 100.522C51.6164 100.522 51.8195 100.622 51.9575 100.821C52.1032 101.021 52.176 101.232 52.176 101.454C52.176 101.646 52.1147 101.833 51.992 102.017C51.8694 102.194 51.6854 102.282 51.44 102.282C51.3174 102.282 51.2177 102.259 51.141 102.213C51.072 102.159 51.0337 102.121 51.026 102.098C51.026 102.083 51.0605 102.037 51.1295 101.96C51.2062 101.883 51.2445 101.787 51.2445 101.672C51.2445 101.534 51.2062 101.423 51.1295 101.339C51.0605 101.255 50.9647 101.212 50.842 101.212C50.7117 101.212 50.543 101.278 50.336 101.408C50.1367 101.538 49.945 101.695 49.761 101.879V104.685C49.761 104.816 49.7649 104.942 49.7725 105.065C49.7879 105.188 49.8339 105.287 49.9105 105.364C49.9949 105.433 50.1444 105.467 50.359 105.467C50.428 105.467 50.4855 105.475 50.5315 105.49C50.5852 105.498 50.6159 105.559 50.6235 105.674C50.6235 105.728 50.6082 105.782 50.5775 105.835C50.5469 105.881 50.5009 105.904 50.4395 105.904C50.2172 105.889 50.0102 105.878 49.8185 105.87C49.6345 105.87 49.439 105.87 49.232 105.87C49.025 105.87 48.8295 105.87 48.6455 105.87C48.4615 105.878 48.2584 105.889 48.036 105.904ZM55.4754 106.008C54.885 106.008 54.3867 105.881 53.9804 105.628C53.5817 105.375 53.2827 105.038 53.0834 104.616C52.884 104.195 52.7844 103.735 52.7844 103.236C52.7844 102.899 52.8419 102.573 52.9569 102.259C53.0795 101.937 53.252 101.646 53.4744 101.385C53.6967 101.117 53.965 100.906 54.2794 100.752C54.5937 100.599 54.9502 100.522 55.3489 100.522C56.0542 100.522 56.5832 100.706 56.9359 101.074C57.2962 101.435 57.5032 101.895 57.5569 102.454C57.5569 102.723 57.4802 102.899 57.3269 102.983C57.1812 103.068 56.9895 103.11 56.7519 103.11H53.9574C53.9574 103.555 54.0187 103.953 54.1414 104.306C54.264 104.651 54.4557 104.927 54.7164 105.134C54.9847 105.333 55.3374 105.433 55.7744 105.433C56.0964 105.433 56.3724 105.364 56.6024 105.226C56.8324 105.088 57.0547 104.846 57.2694 104.501C57.3307 104.425 57.415 104.421 57.5224 104.49C57.5837 104.521 57.622 104.57 57.6374 104.639C57.6527 104.701 57.645 104.754 57.6144 104.8C57.3767 105.176 57.0777 105.471 56.7174 105.686C56.357 105.901 55.943 106.008 55.4754 106.008ZM53.9574 102.673H55.8319C56.0159 102.673 56.1615 102.638 56.2689 102.569C56.3839 102.493 56.4452 102.366 56.4529 102.19C56.4529 101.86 56.3609 101.569 56.1769 101.316C56.0005 101.055 55.7245 100.925 55.3489 100.925C54.9655 100.925 54.6435 101.078 54.3829 101.385C54.1299 101.692 53.988 102.121 53.9574 102.673ZM61.3359 105.904C61.2669 105.904 61.2132 105.878 61.1749 105.824C61.1442 105.77 61.1289 105.713 61.1289 105.651C61.1365 105.521 61.1672 105.448 61.2209 105.433C61.2822 105.418 61.3512 105.41 61.4279 105.41C61.6732 105.41 61.8457 105.368 61.9454 105.283C62.045 105.191 62.1064 105.08 62.1294 104.95C62.16 104.812 62.1754 104.67 62.1754 104.524V99.9589C62.1754 99.8132 62.16 99.6752 62.1294 99.5449C62.1064 99.4069 62.045 99.2957 61.9454 99.2114C61.8457 99.1194 61.6732 99.0734 61.4279 99.0734C61.3512 99.0734 61.2822 99.0657 61.2209 99.0504C61.1672 99.035 61.1365 98.9622 61.1289 98.8319C61.1289 98.7705 61.1442 98.713 61.1749 98.6594C61.2132 98.6057 61.2669 98.5789 61.3359 98.5789C61.5812 98.5865 61.815 98.5942 62.0374 98.6019C62.2597 98.6095 62.4859 98.6134 62.7159 98.6134H64.4409C64.5865 98.6134 64.7744 98.6249 65.0044 98.6479C65.242 98.6709 65.4912 98.7169 65.7519 98.7859C66.0202 98.8549 66.2732 98.966 66.5109 99.1194C66.7485 99.2727 66.9402 99.4759 67.0859 99.7289C67.2392 99.9819 67.3159 100.3 67.3159 100.683C67.3159 101.044 67.2315 101.37 67.0629 101.661C66.9019 101.952 66.6834 102.201 66.4074 102.408C66.139 102.615 65.8324 102.776 65.4874 102.891C65.15 102.999 64.805 103.052 64.4524 103.052C64.2837 103.052 64.0997 103.041 63.9004 103.018C63.701 102.995 63.5017 102.945 63.3024 102.868V104.524C63.31 104.67 63.3254 104.812 63.3484 104.95C63.3714 105.08 63.4327 105.191 63.5324 105.283C63.6397 105.368 63.8122 105.41 64.0499 105.41C64.1342 105.41 64.2032 105.418 64.2569 105.433C64.3105 105.448 64.3412 105.521 64.3489 105.651C64.3489 105.713 64.3297 105.77 64.2914 105.824C64.2607 105.878 64.2109 105.904 64.1419 105.904C63.6512 105.881 63.172 105.87 62.7044 105.87C62.4744 105.87 62.2482 105.87 62.0259 105.87C61.8112 105.878 61.5812 105.889 61.3359 105.904ZM64.1189 102.535C64.2952 102.535 64.4907 102.508 64.7054 102.454C64.9277 102.393 65.1385 102.297 65.3379 102.167C65.5449 102.029 65.7135 101.845 65.8439 101.615C65.9742 101.377 66.0394 101.078 66.0394 100.718C66.0394 100.327 65.9627 100.02 65.8094 99.7979C65.656 99.5679 65.4644 99.3992 65.2344 99.2919C65.012 99.1845 64.7897 99.1155 64.5674 99.0849C64.345 99.0542 64.1649 99.0389 64.0269 99.0389C63.8429 99.0389 63.6972 99.058 63.5899 99.0964C63.4825 99.1347 63.4059 99.219 63.3599 99.3494C63.3215 99.472 63.3024 99.6637 63.3024 99.9244V102.408C63.379 102.439 63.4902 102.47 63.6359 102.5C63.7815 102.523 63.9425 102.535 64.1189 102.535ZM68.1498 105.904C68.0961 105.904 68.0501 105.881 68.0118 105.835C67.9811 105.782 67.9658 105.728 67.9658 105.674C67.9811 105.559 68.0118 105.498 68.0578 105.49C68.1038 105.475 68.1651 105.467 68.2418 105.467C68.4565 105.467 68.6021 105.433 68.6788 105.364C68.7555 105.287 68.7976 105.188 68.8053 105.065C68.8206 104.942 68.8283 104.816 68.8283 104.685V102.052C68.8283 101.914 68.8206 101.787 68.8053 101.672C68.7976 101.55 68.7555 101.454 68.6788 101.385C68.6021 101.308 68.4565 101.27 68.2418 101.27C68.1728 101.27 68.1076 101.262 68.0463 101.247C67.9926 101.224 67.9658 101.155 67.9658 101.04C67.9658 100.925 68.0271 100.856 68.1498 100.833C68.5025 100.779 68.7708 100.726 68.9548 100.672C69.1465 100.618 69.2883 100.572 69.3803 100.534C69.48 100.496 69.5681 100.473 69.6448 100.465C69.7061 100.457 69.756 100.469 69.7943 100.499C69.8403 100.53 69.8633 100.591 69.8633 100.683V101.396H69.8978C70.1585 101.143 70.4268 100.936 70.7028 100.775C70.9788 100.607 71.2318 100.522 71.4618 100.522C71.7301 100.522 71.9333 100.622 72.0713 100.821C72.217 101.021 72.2898 101.232 72.2898 101.454C72.2898 101.646 72.2285 101.833 72.1058 102.017C71.9831 102.194 71.7991 102.282 71.5538 102.282C71.4311 102.282 71.3315 102.259 71.2548 102.213C71.1858 102.159 71.1475 102.121 71.1398 102.098C71.1398 102.083 71.1743 102.037 71.2433 101.96C71.32 101.883 71.3583 101.787 71.3583 101.672C71.3583 101.534 71.32 101.423 71.2433 101.339C71.1743 101.255 71.0785 101.212 70.9558 101.212C70.8255 101.212 70.6568 101.278 70.4498 101.408C70.2505 101.538 70.0588 101.695 69.8748 101.879V104.685C69.8748 104.816 69.8786 104.942 69.8863 105.065C69.9016 105.188 69.9476 105.287 70.0243 105.364C70.1086 105.433 70.2581 105.467 70.4728 105.467C70.5418 105.467 70.5993 105.475 70.6453 105.49C70.699 105.498 70.7296 105.559 70.7373 105.674C70.7373 105.728 70.722 105.782 70.6913 105.835C70.6606 105.881 70.6146 105.904 70.5533 105.904C70.331 105.889 70.124 105.878 69.9323 105.87C69.7483 105.87 69.5528 105.87 69.3458 105.87C69.1388 105.87 68.9433 105.87 68.7593 105.87C68.5753 105.878 68.3721 105.889 68.1498 105.904ZM75.5776 106.008C75.041 106.008 74.5695 105.881 74.1631 105.628C73.7645 105.375 73.454 105.046 73.2316 104.639C73.0093 104.233 72.8981 103.8 72.8981 103.34C72.8981 102.888 72.9786 102.485 73.1396 102.132C73.3006 101.78 73.5115 101.485 73.7721 101.247C74.0405 101.009 74.3318 100.829 74.6461 100.706C74.9605 100.584 75.271 100.522 75.5776 100.522C76.1143 100.522 76.582 100.649 76.9806 100.902C77.387 101.155 77.7013 101.485 77.9236 101.891C78.146 102.297 78.2571 102.73 78.2571 103.19C78.2571 103.643 78.1728 104.045 78.0041 104.398C77.8431 104.751 77.6285 105.046 77.3601 105.283C77.0995 105.521 76.812 105.701 76.4976 105.824C76.1833 105.947 75.8766 106.008 75.5776 106.008ZM75.5776 105.582C75.9533 105.582 76.2485 105.471 76.4631 105.249C76.6855 105.027 76.8426 104.735 76.9346 104.375C77.0343 104.007 77.0841 103.612 77.0841 103.19C77.0841 102.784 77.0343 102.412 76.9346 102.075C76.835 101.738 76.674 101.465 76.4516 101.258C76.2293 101.051 75.938 100.948 75.5776 100.948C75.202 100.948 74.903 101.059 74.6806 101.281C74.4583 101.496 74.3011 101.784 74.2091 102.144C74.1171 102.497 74.0711 102.888 74.0711 103.317C74.0711 103.716 74.1171 104.087 74.2091 104.432C74.3088 104.777 74.4698 105.057 74.6921 105.272C74.9145 105.479 75.2096 105.582 75.5776 105.582ZM81.6134 106.008C81.1841 106.008 80.7854 105.893 80.4174 105.663C80.0494 105.433 79.7543 105.111 79.5319 104.697C79.3096 104.283 79.1984 103.804 79.1984 103.259C79.1984 102.784 79.3096 102.339 79.5319 101.925C79.7619 101.504 80.0763 101.166 80.4749 100.913C80.8813 100.653 81.3413 100.522 81.8549 100.522C82.1003 100.522 82.3418 100.553 82.5794 100.614C82.8171 100.668 83.0203 100.745 83.1889 100.844H83.2234V99.0849C83.2234 98.9469 83.2158 98.8204 83.2004 98.7054C83.1928 98.5827 83.1506 98.4869 83.0739 98.4179C82.9973 98.3412 82.8516 98.3029 82.6369 98.3029C82.5679 98.3029 82.5028 98.2952 82.4414 98.2799C82.3878 98.2569 82.3609 98.1879 82.3609 98.0729C82.3609 97.9579 82.4223 97.8889 82.5449 97.8659C82.8976 97.8122 83.1659 97.7585 83.3499 97.7049C83.5416 97.6512 83.6873 97.6052 83.7869 97.5669C83.8866 97.5285 83.9748 97.5055 84.0514 97.4979C84.1128 97.4902 84.1626 97.5017 84.2009 97.5324C84.2469 97.563 84.2699 97.6244 84.2699 97.7164V104.812C84.2699 105.264 84.5689 105.49 85.1669 105.49C85.2513 105.49 85.3049 105.513 85.3279 105.559C85.3509 105.598 85.3624 105.636 85.3624 105.674C85.3624 105.782 85.2973 105.847 85.1669 105.87L83.3384 105.996C83.2848 105.996 83.2541 105.973 83.2464 105.927C83.2388 105.881 83.2349 105.828 83.2349 105.766V105.306H83.2004C83.0088 105.506 82.7673 105.674 82.4759 105.812C82.1923 105.943 81.9048 106.008 81.6134 106.008ZM82.0044 105.433C82.2958 105.433 82.5373 105.375 82.7289 105.26C82.9206 105.138 83.0854 105.004 83.2234 104.858V101.822C83.1851 101.692 83.1123 101.561 83.0049 101.431C82.9053 101.293 82.7673 101.178 82.5909 101.086C82.4223 100.986 82.2153 100.936 81.9699 100.936C81.5253 100.936 81.1496 101.147 80.8429 101.569C80.5363 101.983 80.3829 102.566 80.3829 103.317C80.3829 103.677 80.4404 104.022 80.5554 104.352C80.6781 104.674 80.8583 104.935 81.0959 105.134C81.3336 105.333 81.6364 105.433 82.0044 105.433ZM88.1578 106.008C87.6365 106.008 87.2225 105.851 86.9158 105.536C86.6092 105.222 86.4558 104.808 86.4558 104.294V102.167C86.4558 102.029 86.4482 101.902 86.4328 101.787C86.4252 101.665 86.383 101.569 86.3063 101.5C86.2297 101.423 86.084 101.385 85.8693 101.385C85.8003 101.385 85.7352 101.377 85.6738 101.362C85.6202 101.339 85.5933 101.27 85.5933 101.155C85.5933 101.04 85.6547 100.971 85.7773 100.948C86.13 100.894 86.3983 100.841 86.5823 100.787C86.774 100.733 86.9197 100.687 87.0193 100.649C87.119 100.611 87.2072 100.588 87.2838 100.58C87.3452 100.572 87.395 100.584 87.4333 100.614C87.4793 100.645 87.5023 100.706 87.5023 100.798V104.283C87.5023 104.536 87.556 104.743 87.6633 104.904C87.7783 105.065 87.9202 105.184 88.0888 105.26C88.2575 105.337 88.43 105.375 88.6063 105.375C88.8747 105.375 89.1085 105.329 89.3078 105.237C89.5072 105.138 89.6682 105.027 89.7908 104.904C89.9135 104.774 89.994 104.666 90.0323 104.582V102.167C90.0323 102.029 90.0247 101.902 90.0093 101.787C90.0017 101.665 89.9595 101.569 89.8828 101.5C89.8062 101.423 89.6605 101.385 89.4458 101.385C89.3768 101.385 89.3117 101.377 89.2503 101.362C89.1967 101.339 89.1698 101.27 89.1698 101.155C89.1698 101.04 89.2312 100.971 89.3538 100.948C89.7065 100.894 89.9748 100.841 90.1588 100.787C90.3505 100.733 90.4962 100.687 90.5958 100.649C90.6955 100.611 90.7837 100.588 90.8603 100.58C90.9217 100.572 90.9715 100.584 91.0098 100.614C91.0558 100.645 91.0788 100.706 91.0788 100.798V104.777C91.0788 105.23 91.3817 105.456 91.9873 105.456C92.0717 105.456 92.1253 105.479 92.1483 105.525C92.1713 105.571 92.1828 105.621 92.1828 105.674C92.1828 105.782 92.1177 105.847 91.9873 105.87L90.1358 105.996C90.0822 105.996 90.0515 105.973 90.0438 105.927C90.0362 105.881 90.0323 105.828 90.0323 105.766V105.122H90.0093C89.8637 105.26 89.7065 105.398 89.5378 105.536C89.3768 105.674 89.1852 105.786 88.9628 105.87C88.7482 105.962 88.4798 106.008 88.1578 106.008ZM95.1708 106.008C94.3811 106.008 93.7639 105.759 93.3193 105.26C92.8823 104.754 92.6638 104.087 92.6638 103.259C92.6868 102.73 92.8171 102.263 93.0548 101.856C93.3001 101.45 93.6221 101.132 94.0208 100.902C94.4271 100.664 94.8756 100.538 95.3663 100.522C95.6346 100.522 95.9068 100.557 96.1828 100.626C96.4664 100.687 96.7003 100.806 96.8843 100.982C97.0759 101.151 97.1718 101.396 97.1718 101.718C97.1718 101.941 97.1028 102.148 96.9648 102.339C96.8268 102.523 96.6351 102.615 96.3898 102.615C96.2211 102.615 96.0908 102.573 95.9988 102.489C95.9068 102.405 95.8608 102.343 95.8608 102.305C95.8608 102.29 95.8914 102.259 95.9528 102.213C96.0218 102.159 96.0869 102.09 96.1483 102.006C96.2096 101.914 96.2403 101.803 96.2403 101.672C96.2403 101.427 96.1521 101.247 95.9758 101.132C95.7994 101.017 95.6001 100.956 95.3778 100.948C95.0404 100.948 94.7683 101.017 94.5613 101.155C94.3619 101.293 94.2086 101.477 94.1013 101.707C93.9939 101.929 93.9211 102.175 93.8828 102.443C93.8521 102.711 93.8368 102.972 93.8368 103.225C93.8368 103.647 93.9019 104.026 94.0323 104.363C94.1626 104.693 94.3466 104.954 94.5843 105.145C94.8219 105.337 95.1056 105.433 95.4353 105.433C95.7726 105.433 96.0563 105.36 96.2863 105.214C96.5163 105.069 96.7271 104.854 96.9188 104.57C96.9724 104.494 97.0529 104.486 97.1603 104.547C97.2139 104.578 97.2523 104.62 97.2753 104.674C97.2983 104.728 97.2906 104.781 97.2523 104.835C96.9993 105.195 96.6849 105.483 96.3093 105.697C95.9336 105.904 95.5541 106.008 95.1708 106.008ZM100.134 106.065C99.9043 106.065 99.6858 106.008 99.4788 105.893C99.2718 105.778 99.0993 105.602 98.9613 105.364C98.8309 105.126 98.7658 104.827 98.7658 104.467V101.086L98.0988 101.109C98.0451 101.109 98.0029 101.09 97.9723 101.051C97.9493 101.005 97.9378 100.956 97.9378 100.902C97.9378 100.749 97.9914 100.66 98.0988 100.637C98.3824 100.584 98.5971 100.496 98.7428 100.373C98.8884 100.243 98.9996 100.089 99.0763 99.9129C99.1606 99.7365 99.2373 99.5449 99.3063 99.3379C99.3293 99.2765 99.3638 99.2382 99.4098 99.2229C99.4558 99.1999 99.5056 99.1884 99.5593 99.1884C99.6053 99.1884 99.6551 99.1999 99.7088 99.2229C99.7701 99.2459 99.8008 99.288 99.8008 99.3494L99.7203 100.66L101.066 100.58C101.135 100.572 101.181 100.591 101.204 100.637C101.227 100.683 101.238 100.737 101.238 100.798C101.238 100.875 101.223 100.952 101.192 101.028C101.169 101.105 101.139 101.143 101.1 101.143L99.8123 101.109V104.605C99.8123 104.827 99.8583 105.03 99.9503 105.214C100.05 105.398 100.226 105.49 100.479 105.49C100.564 105.49 100.659 105.483 100.767 105.467C100.874 105.452 100.989 105.418 101.112 105.364C101.142 105.349 101.173 105.337 101.204 105.329C101.234 105.314 101.265 105.306 101.296 105.306C101.357 105.306 101.403 105.333 101.434 105.387C101.464 105.433 101.491 105.483 101.514 105.536C101.537 105.605 101.518 105.659 101.457 105.697C101.219 105.851 101.001 105.95 100.801 105.996C100.602 106.042 100.38 106.065 100.134 106.065ZM104.515 106.008C103.924 106.008 103.43 105.904 103.031 105.697C102.64 105.483 102.445 105.176 102.445 104.777C102.445 104.555 102.51 104.375 102.64 104.237C102.778 104.099 102.955 104.03 103.169 104.03C103.307 104.03 103.418 104.068 103.503 104.145C103.595 104.214 103.641 104.264 103.641 104.294C103.641 104.317 103.595 104.371 103.503 104.455C103.418 104.532 103.376 104.659 103.376 104.835C103.376 105.05 103.476 105.23 103.675 105.375C103.882 105.513 104.193 105.582 104.607 105.582C104.967 105.582 105.247 105.506 105.446 105.352C105.653 105.191 105.757 104.969 105.757 104.685C105.757 104.455 105.68 104.279 105.527 104.156C105.381 104.026 105.189 103.923 104.952 103.846C104.722 103.769 104.473 103.693 104.204 103.616C103.944 103.539 103.694 103.443 103.457 103.328C103.219 103.213 103.024 103.056 102.87 102.857C102.725 102.65 102.652 102.378 102.652 102.04C102.652 101.695 102.755 101.412 102.962 101.189C103.169 100.967 103.434 100.802 103.756 100.695C104.078 100.58 104.404 100.522 104.733 100.522C105.017 100.522 105.285 100.565 105.538 100.649C105.791 100.726 105.998 100.844 106.159 101.005C106.328 101.166 106.412 101.37 106.412 101.615C106.412 101.807 106.351 101.979 106.228 102.132C106.106 102.286 105.937 102.362 105.722 102.362C105.584 102.362 105.469 102.328 105.377 102.259C105.293 102.182 105.251 102.129 105.251 102.098C105.251 102.083 105.278 102.056 105.331 102.017C105.393 101.971 105.45 101.914 105.504 101.845C105.557 101.768 105.584 101.672 105.584 101.557C105.569 101.335 105.462 101.17 105.262 101.063C105.063 100.956 104.841 100.902 104.595 100.902C104.327 100.902 104.078 100.967 103.848 101.097C103.618 101.228 103.503 101.416 103.503 101.661C103.503 101.883 103.549 102.056 103.641 102.178C103.74 102.301 103.894 102.408 104.101 102.5C104.315 102.585 104.591 102.681 104.929 102.788C105.266 102.895 105.561 103.006 105.814 103.121C106.075 103.236 106.274 103.39 106.412 103.581C106.558 103.765 106.631 104.018 106.631 104.34C106.631 104.662 106.539 104.95 106.355 105.203C106.171 105.456 105.918 105.655 105.596 105.801C105.281 105.939 104.921 106.008 104.515 106.008Z" fill="#324320"/>
<path d="M90.2691 29.7799C90.2691 29.7799 88.7891 23.1099 85.1591 25.4899C85.1591 25.4899 83.9891 20.1399 87.0391 20.2699C91.8191 20.4899 91.5991 27.0599 90.2691 29.7799Z" fill="#324320"/>
<path d="M76.1091 0.929829C76.1091 0.929829 61.9691 6.40983 62.3691 18.6798C62.3691 18.6798 60.8791 6.44983 65.2891 2.67983C69.1691 -0.570172 76.1091 0.929829 76.1091 0.929829Z" fill="#324320"/>
<path d="M55.8192 58.9399C55.8192 58.9399 38.2592 31.1299 44.8992 13.2799C51.5392 -4.57006 76.1092 0.929942 76.1092 0.929942C76.1092 0.929942 65.4392 -1.01006 63.4492 7.04994C59.6592 22.4299 67.9792 39.0099 55.8192 58.9399Z" fill="#324320"/>
<path d="M59.2592 3.22974C56.8826 4.88304 55.0848 7.24046 54.1192 9.96974C53.1441 12.6745 52.7323 15.55 52.9092 18.4197C53.0992 21.2797 53.4792 24.1397 53.7792 26.9997L54.7092 35.5897C55.2892 41.3197 55.7892 47.0597 56.1192 52.8097C56.4942 58.5837 56.4942 64.3758 56.1192 70.1497L54.9392 70.0397C55.396 64.3247 55.4829 58.586 55.1992 52.8597C54.9692 47.1097 54.5692 41.3697 54.0892 35.6397L53.3192 27.0397C53.0692 24.1697 52.7392 21.3097 52.5992 18.4297C52.4633 15.5306 52.9227 12.6344 53.9492 9.91973C54.9678 7.18465 56.8267 4.8426 59.2592 3.22974Z" fill="#EEE1B3"/>
<path d="M65.8292 58.7799C65.8292 58.7799 63.2091 22.5699 82.4991 18.5699C82.9191 18.4799 88.6891 17.9799 90.4991 21.7099C91.0963 22.9684 91.3826 24.3519 91.3339 25.7441C91.2852 27.1362 90.9029 28.4963 90.2192 29.7099C90.2192 29.7099 92.3892 19.7099 87.2192 22.9199C81.7092 26.5099 78.5292 52.1899 65.8292 58.7799Z" fill="#324320"/>
<path d="M83.0092 20.2698C80.9666 21.4034 79.2459 23.0379 78.0092 25.0198C76.7425 26.9598 75.7055 29.0404 74.9192 31.2198C74.0992 33.3798 73.5292 35.6298 72.9192 37.8698L71.0592 44.5698C69.7692 49.0298 68.3692 53.4798 66.6292 57.8198C65.7702 60.0001 64.7886 62.1302 63.6892 64.1998C62.6 66.306 61.2566 68.2706 59.6892 70.0498L58.8292 69.2398C60.3798 67.5565 61.7227 65.6932 62.8292 63.6898C63.9429 61.6733 64.9445 59.5968 65.8292 57.4698C67.604 53.1908 69.1627 48.8253 70.4992 44.3898L72.4992 37.7198C73.1792 35.4998 73.7892 33.2398 74.6692 31.0798C75.5122 28.9014 76.6098 26.8304 77.9392 24.9098C79.2115 22.9609 80.9554 21.3648 83.0092 20.2698Z" fill="#EEE1B3"/>
<path d="M20.0491 29.7799C20.0491 29.7799 21.5291 23.1099 25.1591 25.4899C25.1591 25.4899 26.3291 20.1399 23.2791 20.2699C18.4991 20.4899 18.7191 27.0599 20.0491 29.7799Z" fill="#324320"/>
<path d="M44.4891 58.7799C44.4891 58.7799 47.1091 22.5699 27.8191 18.5699C27.3991 18.4799 21.6191 17.9799 19.8191 21.7099C19.2219 22.9684 18.9357 24.3519 18.9844 25.7441C19.0331 27.1362 19.4154 28.4963 20.0991 29.7099C20.0991 29.7099 17.9191 19.7099 23.0991 22.9199C28.6591 26.5099 31.7891 52.1899 44.4891 58.7799Z" fill="#324320"/>
<path d="M27.3091 20.2698C29.3622 21.3607 31.1088 22.9492 32.3891 24.8898C33.7107 26.8009 34.8079 28.8577 35.6591 31.0198C36.5291 33.1798 37.1691 35.3998 37.8791 37.5998L39.9591 44.2098C41.3791 48.5998 42.8891 52.9598 44.6391 57.2098C46.2953 61.4799 48.4466 65.541 51.0491 69.3098L50.0491 70.0098C47.4813 66.1233 45.3801 61.9478 43.7891 57.5698C42.1091 53.2498 40.6891 48.8398 39.3491 44.4098L37.3491 37.7598C36.6991 35.5498 36.0991 33.3098 35.2791 31.1698C34.4939 29.0043 33.4604 26.9372 32.1991 25.0098C30.9884 23.0479 29.3077 21.4188 27.3091 20.2698Z" fill="#EEE1B3"/>
<path d="M78.6591 47.0999C78.8778 50.2535 78.4347 53.4181 77.3584 56.3904C76.2821 59.3628 74.5963 62.0773 72.4091 64.3599C70.1954 66.6979 67.5276 68.5592 64.5691 69.8299C61.5935 71.1098 58.3883 71.7699 55.1491 71.7699C51.91 71.7699 48.7047 71.1098 45.7291 69.8299C42.769 68.557 40.0984 66.696 37.8791 64.3599C35.6989 62.0737 34.0196 59.3579 32.9486 56.3859C31.8776 53.4139 31.4384 50.2512 31.6591 47.0999C32.0992 53.1822 34.7827 58.8842 39.1891 63.0999C43.5099 67.1947 49.2362 69.4771 55.1891 69.4771C61.142 69.4771 66.8684 67.1947 71.1891 63.0999C75.5734 58.8748 78.235 53.1739 78.6591 47.0999Z" fill="#DADCD1"/>
</svg>
