<svg width="89" height="91" viewBox="0 0 89 91" fill="none" xmlns="http://www.w3.org/2000/svg">
<path d="M10.138 88.4171C10.0666 88.4171 10.0167 88.3921 9.9881 88.3422C9.95954 88.285 9.94526 88.2244 9.94526 88.1601C9.9524 88.0316 9.98096 87.9637 10.0309 87.9566C10.0809 87.9495 10.1452 87.9459 10.2237 87.9459C10.5307 87.9459 10.7735 87.9316 10.952 87.9031C11.1376 87.8674 11.2697 87.7817 11.3483 87.646C11.4268 87.5032 11.4661 87.2747 11.4661 86.9606V84.7329C11.4732 84.4187 11.4589 84.1867 11.4232 84.0367C11.3875 83.8868 11.3233 83.7868 11.2305 83.7369C11.1376 83.6869 11.0055 83.6655 10.8342 83.6726C10.67 83.6726 10.4558 83.669 10.1916 83.6619C10.1202 83.6619 10.0702 83.6369 10.0416 83.5869C10.0131 83.5298 9.99881 83.4691 9.99881 83.4049C10.0059 83.2763 10.0345 83.2049 10.0845 83.1907C10.1345 83.1764 10.1987 83.1692 10.2773 83.1692C10.52 83.1692 10.7699 83.1335 11.027 83.0621C11.2911 82.9907 11.5232 82.9158 11.7231 82.8372C11.9302 82.7515 12.0623 82.698 12.1194 82.6766C12.1765 82.6552 12.2372 82.6552 12.3015 82.6766C12.3657 82.6909 12.3978 82.7658 12.3978 82.9015V86.9606C12.3978 87.2747 12.4371 87.5032 12.5157 87.646C12.5942 87.7817 12.7227 87.8674 12.9012 87.9031C13.0869 87.9316 13.3332 87.9459 13.6402 87.9459C13.7187 87.9459 13.783 87.9495 13.833 87.9566C13.883 87.9637 13.9115 88.0316 13.9187 88.1601C13.9187 88.2244 13.9044 88.285 13.8758 88.3422C13.8544 88.3921 13.8044 88.4171 13.7259 88.4171C13.5545 88.41 13.351 88.4029 13.1154 88.3957C12.8869 88.3957 12.662 88.3921 12.4407 88.385C12.2265 88.385 12.0551 88.385 11.9266 88.385C11.8052 88.385 11.6339 88.385 11.4125 88.385C11.1983 88.3921 10.9734 88.3957 10.7378 88.3957C10.5093 88.4029 10.3094 88.41 10.138 88.4171ZM17.1181 88.5992C16.5398 88.5992 16.0614 88.46 15.683 88.1815C15.3046 87.8959 15.0225 87.5282 14.8369 87.0784C14.6584 86.6286 14.5691 86.1502 14.5691 85.6432C14.5691 85.1292 14.6584 84.6508 14.8369 84.2081C15.0225 83.7583 15.3046 83.3977 15.683 83.1264C16.0614 82.8479 16.5398 82.7087 17.1181 82.7087C17.675 82.7087 18.1427 82.8479 18.5211 83.1264C18.8995 83.4049 19.1851 83.769 19.3779 84.2188C19.5707 84.6615 19.6671 85.1363 19.6671 85.6432C19.6671 86.0145 19.61 86.3787 19.4957 86.7357C19.3886 87.0855 19.228 87.4033 19.0138 87.6889C18.7996 87.9673 18.5318 88.1887 18.2105 88.3529C17.8964 88.5171 17.5322 88.5992 17.1181 88.5992ZM17.1288 88.2029C17.6072 88.2029 17.9785 87.9852 18.2427 87.5496C18.5068 87.1069 18.6389 86.4715 18.6389 85.6432C18.6389 84.815 18.5068 84.1867 18.2427 83.7583C17.9785 83.3227 17.6072 83.105 17.1288 83.105C16.6362 83.105 16.2577 83.3227 15.9936 83.7583C15.7294 84.1867 15.5973 84.815 15.5973 85.6432C15.5973 86.4715 15.7294 87.1069 15.9936 87.5496C16.2577 87.9852 16.6362 88.2029 17.1288 88.2029ZM23.383 88.5992C22.8047 88.5992 22.3263 88.46 21.9479 88.1815C21.5695 87.8959 21.2875 87.5282 21.1018 87.0784C20.9233 86.6286 20.8341 86.1502 20.8341 85.6432C20.8341 85.1292 20.9233 84.6508 21.1018 84.2081C21.2875 83.7583 21.5695 83.3977 21.9479 83.1264C22.3263 82.8479 22.8047 82.7087 23.383 82.7087C23.94 82.7087 24.4076 82.8479 24.7861 83.1264C25.1645 83.4049 25.4501 83.769 25.6429 84.2188C25.8356 84.6615 25.932 85.1363 25.932 85.6432C25.932 86.0145 25.8749 86.3787 25.7607 86.7357C25.6536 87.0855 25.4929 87.4033 25.2787 87.6889C25.0645 87.9673 24.7968 88.1887 24.4755 88.3529C24.1613 88.5171 23.7972 88.5992 23.383 88.5992ZM23.3938 88.2029C23.8721 88.2029 24.2434 87.9852 24.5076 87.5496C24.7718 87.1069 24.9039 86.4715 24.9039 85.6432C24.9039 84.815 24.7718 84.1867 24.5076 83.7583C24.2434 83.3227 23.8721 83.105 23.3938 83.105C22.9011 83.105 22.5227 83.3227 22.2585 83.7583C21.9943 84.1867 21.8622 84.815 21.8622 85.6432C21.8622 86.4715 21.9943 87.1069 22.2585 87.5496C22.5227 87.9852 22.9011 88.2029 23.3938 88.2029ZM28.9732 85.0435C28.6305 85.0435 28.3342 84.9614 28.0843 84.7972C27.8344 84.6258 27.6416 84.4045 27.506 84.1331C27.3703 83.8618 27.3025 83.5726 27.3025 83.2656C27.3025 82.8658 27.3882 82.5302 27.5595 82.2589C27.7309 81.9876 27.9451 81.7841 28.2021 81.6484C28.4663 81.5056 28.7233 81.4342 28.9732 81.4342C29.316 81.4342 29.6123 81.5163 29.8622 81.6805C30.1121 81.8448 30.3049 82.059 30.4405 82.3231C30.5833 82.5873 30.6547 82.8729 30.6547 83.1799C30.6547 83.5798 30.5655 83.9189 30.387 84.1974C30.2156 84.4759 30.0014 84.6865 29.7444 84.8293C29.4873 84.9721 29.2303 85.0435 28.9732 85.0435ZM28.2021 88.4386C28.1236 88.4029 28.0629 88.3493 28.0201 88.2779C27.9772 88.1994 27.9844 88.1244 28.0415 88.053L33.2144 81.7769C33.2787 81.6984 33.3465 81.6556 33.4179 81.6484C33.4893 81.6413 33.5536 81.6448 33.6107 81.6591C33.6964 81.6948 33.757 81.7519 33.7927 81.8305C33.8356 81.9019 33.8284 81.9769 33.7713 82.0554L28.577 88.3207C28.4627 88.4421 28.3378 88.4814 28.2021 88.4386ZM28.9732 84.5937C29.1946 84.5937 29.3695 84.5294 29.498 84.4009C29.6266 84.2724 29.7194 84.101 29.7765 83.8868C29.8336 83.6655 29.8622 83.4298 29.8622 83.1799C29.8622 82.8301 29.7943 82.5266 29.6587 82.2696C29.5302 82.0054 29.3017 81.8733 28.9732 81.8733C28.7448 81.8733 28.5663 81.9376 28.4377 82.0661C28.3092 82.1946 28.22 82.3624 28.17 82.5695C28.12 82.7765 28.095 83.005 28.095 83.2549C28.095 83.4905 28.12 83.7119 28.17 83.9189C28.2271 84.1189 28.3199 84.2831 28.4485 84.4116C28.577 84.533 28.7519 84.5937 28.9732 84.5937ZM32.9895 88.5992C32.6539 88.5992 32.3576 88.5171 32.1006 88.3529C31.8507 88.1815 31.6579 87.9602 31.5222 87.6889C31.3866 87.4175 31.3187 87.1284 31.3187 86.8213C31.3187 86.4215 31.4044 86.0859 31.5758 85.8146C31.7471 85.5361 31.9613 85.3291 32.2184 85.1934C32.4826 85.0506 32.7396 84.9792 32.9895 84.9792C33.3322 84.9792 33.6285 85.0613 33.8784 85.2256C34.1355 85.3898 34.3318 85.604 34.4675 85.8682C34.6103 86.1323 34.6817 86.4215 34.6817 86.7357C34.6817 87.1355 34.5924 87.4747 34.4139 87.7531C34.2426 88.0316 34.0248 88.2422 33.7606 88.385C33.5036 88.5278 33.2465 88.5992 32.9895 88.5992ZM32.9895 88.1387C33.2108 88.1387 33.3858 88.0744 33.5143 87.9459C33.6428 87.8174 33.7356 87.646 33.7927 87.4318C33.8499 87.2176 33.8784 86.9856 33.8784 86.7357C33.8784 86.3858 33.8106 86.0788 33.6749 85.8146C33.5464 85.5504 33.3179 85.4183 32.9895 85.4183C32.761 85.4183 32.5825 85.4826 32.454 85.6111C32.3326 85.7396 32.2469 85.911 32.197 86.1252C32.147 86.3323 32.122 86.5607 32.122 86.8106C32.122 87.0391 32.147 87.2569 32.197 87.4639C32.2541 87.6639 32.3469 87.8281 32.4754 87.9566C32.6039 88.078 32.7753 88.1387 32.9895 88.1387ZM38.1873 88.4171C38.1159 88.4171 38.0659 88.3921 38.0373 88.3422C38.0088 88.2922 37.9945 88.2386 37.9945 88.1815C38.0016 88.0601 38.0302 87.9923 38.0802 87.978C38.1302 87.9637 38.1908 87.9566 38.2622 87.9566C38.4907 87.9566 38.6478 87.9173 38.7335 87.8388C38.8263 87.7531 38.8834 87.6496 38.9048 87.5282C38.9263 87.3997 38.937 87.2676 38.937 87.1319L38.9584 82.8801C38.9584 82.5445 38.9013 82.3303 38.787 82.2375C38.6728 82.1446 38.4907 82.0732 38.2408 82.0233C38.1337 82.0018 38.0623 81.984 38.0266 81.9697C37.9909 81.9483 37.9731 81.884 37.9731 81.7769C37.9731 81.6556 38.0159 81.5913 38.1016 81.5842C38.1873 81.5699 38.2872 81.5627 38.4015 81.5627C38.8013 81.5627 39.1226 81.5949 39.3654 81.6591C39.6153 81.7234 39.833 81.8376 40.0187 82.0018C40.2115 82.1661 40.4185 82.3981 40.6399 82.698L43.5744 86.5536H43.6065L43.5851 82.8801C43.5851 82.7444 43.5744 82.6159 43.553 82.4945C43.5316 82.366 43.4744 82.2625 43.3816 82.1839C43.2959 82.0982 43.1389 82.0554 42.9104 82.0554C42.839 82.0554 42.7783 82.0483 42.7283 82.034C42.6783 82.0197 42.6462 81.9519 42.6319 81.8305C42.6319 81.7734 42.6462 81.7198 42.6748 81.6698C42.7105 81.6199 42.7604 81.5949 42.8247 81.5949C42.9818 81.602 43.1067 81.6091 43.1996 81.6163C43.2995 81.6163 43.3959 81.6199 43.4887 81.627C43.5887 81.627 43.7101 81.627 43.8529 81.627C43.9957 81.627 44.1135 81.627 44.2063 81.627C44.2991 81.6199 44.3919 81.6163 44.4848 81.6163C44.5847 81.6091 44.7097 81.602 44.8596 81.5949C44.931 81.5949 44.981 81.6199 45.0095 81.6698C45.0381 81.7198 45.0524 81.7734 45.0524 81.8305C45.0452 81.9519 45.0167 82.0197 44.9667 82.034C44.9239 82.0483 44.8632 82.0554 44.7846 82.0554C44.5633 82.0554 44.4062 82.0982 44.3134 82.1839C44.2206 82.2625 44.1635 82.366 44.142 82.4945C44.1278 82.6159 44.117 82.7444 44.1099 82.8801L44.0885 88.2779C44.0813 88.335 44.0456 88.3707 43.9814 88.385C43.9243 88.4064 43.8707 88.4171 43.8207 88.4171C43.6851 88.4171 43.5815 88.3707 43.5101 88.2779L39.4725 82.8801H39.4403L39.4618 87.1319C39.4689 87.2676 39.4796 87.3997 39.4939 87.5282C39.5153 87.6496 39.5724 87.7531 39.6653 87.8388C39.7581 87.9173 39.9152 87.9566 40.1365 87.9566C40.215 87.9566 40.2793 87.9637 40.3293 87.978C40.3793 87.9923 40.4078 88.0601 40.415 88.1815C40.415 88.2386 40.3971 88.2922 40.3614 88.3422C40.3328 88.3921 40.2864 88.4171 40.2222 88.4171C40.0722 88.41 39.9437 88.4029 39.8366 88.3957C39.7367 88.3957 39.6367 88.3921 39.5367 88.385C39.4439 88.385 39.3261 88.385 39.1833 88.385C39.0405 88.385 38.9227 88.385 38.8299 88.385C38.7442 88.3921 38.6549 88.3957 38.5621 88.3957C38.4693 88.4029 38.3444 88.41 38.1873 88.4171ZM46.8844 88.5135C46.4488 88.5135 46.099 88.3886 45.8348 88.1387C45.5778 87.8888 45.4492 87.5889 45.4492 87.239C45.4492 86.8749 45.5421 86.5893 45.7277 86.3822C45.9205 86.1752 46.1704 86.0217 46.4774 85.9217C46.7916 85.8217 47.1307 85.7539 47.4949 85.7182C47.8661 85.6825 48.2267 85.654 48.5766 85.6325V84.7864C48.5766 84.4509 48.4909 84.1903 48.3195 84.0046C48.1553 83.8118 47.8733 83.7154 47.4734 83.7154C47.2735 83.7154 47.0843 83.7797 46.9058 83.9082C46.7344 84.0367 46.6488 84.2224 46.6488 84.4651C46.6488 84.5794 46.6773 84.6758 46.7344 84.7543C46.7916 84.8329 46.8487 84.8935 46.9058 84.9364C46.9629 84.9792 46.9915 85.0078 46.9915 85.0221C46.9915 85.0506 46.9486 85.1042 46.863 85.1827C46.7844 85.2541 46.6738 85.2898 46.531 85.2898C46.3096 85.2898 46.1383 85.2077 46.0169 85.0435C45.8955 84.8793 45.8348 84.6972 45.8348 84.4973C45.8348 84.226 45.9169 84.0118 46.0811 83.8547C46.2525 83.6976 46.4703 83.5834 46.7344 83.512C46.9986 83.4406 47.2664 83.4049 47.5377 83.4049C47.859 83.4049 48.1696 83.4441 48.4695 83.5227C48.7765 83.6012 49.0264 83.7511 49.2192 83.9725C49.4191 84.1938 49.519 84.5258 49.519 84.9685V87.4639C49.5262 87.5353 49.544 87.621 49.5726 87.721C49.6012 87.8209 49.6547 87.9102 49.7332 87.9887C49.8189 88.0601 49.9332 88.0958 50.076 88.0958C50.1259 88.0958 50.1652 88.1065 50.1938 88.128C50.2223 88.1422 50.2366 88.1887 50.2366 88.2672C50.2366 88.3315 50.2009 88.3814 50.1295 88.4171C50.0581 88.4528 49.976 88.4778 49.8832 88.4921C49.7904 88.5064 49.7118 88.5135 49.6476 88.5135C49.3834 88.5135 49.1478 88.4386 48.9407 88.2886C48.7336 88.1315 48.6123 87.9173 48.5766 87.646C48.4195 87.9316 48.1839 88.1494 47.8697 88.2993C47.5627 88.4421 47.2342 88.5135 46.8844 88.5135ZM47.2271 87.9352C47.4699 87.9352 47.6912 87.8745 47.8911 87.7531C48.0982 87.6317 48.2624 87.4675 48.3838 87.2605C48.5123 87.0463 48.5766 86.8106 48.5766 86.5536V85.9431C47.8411 85.9931 47.3164 86.1109 47.0022 86.2966C46.688 86.4822 46.531 86.7856 46.531 87.2069C46.531 87.6924 46.763 87.9352 47.2271 87.9352ZM52.6907 88.5671C52.4765 88.5671 52.273 88.5135 52.0802 88.4064C51.8875 88.2993 51.7268 88.1351 51.5983 87.9138C51.4769 87.6924 51.4162 87.414 51.4162 87.0784V83.9296L50.795 83.9511C50.7451 83.9511 50.7058 83.9332 50.6772 83.8975C50.6558 83.8547 50.6451 83.8083 50.6451 83.7583C50.6451 83.6155 50.6951 83.5334 50.795 83.512C51.0592 83.462 51.2591 83.3799 51.3948 83.2656C51.5305 83.1442 51.634 83.0014 51.7054 82.8372C51.7839 82.673 51.8553 82.4945 51.9196 82.3017C51.941 82.2446 51.9731 82.2089 52.016 82.1946C52.0588 82.1732 52.1052 82.1625 52.1552 82.1625C52.198 82.1625 52.2445 82.1732 52.2944 82.1946C52.3516 82.216 52.3801 82.2553 52.3801 82.3124L52.3051 83.5334L53.5582 83.4584C53.6225 83.4513 53.6653 83.4691 53.6867 83.512C53.7082 83.5548 53.7189 83.6048 53.7189 83.6619C53.7189 83.7333 53.7046 83.8047 53.676 83.8761C53.6546 83.9475 53.626 83.9832 53.5903 83.9832L52.3908 83.9511V87.2069C52.3908 87.414 52.4337 87.6032 52.5193 87.7745C52.6122 87.9459 52.7764 88.0316 53.012 88.0316C53.0905 88.0316 53.1798 88.0244 53.2798 88.0102C53.3797 87.9959 53.4868 87.9637 53.6011 87.9138C53.6296 87.8995 53.6582 87.8888 53.6867 87.8816C53.7153 87.8674 53.7439 87.8602 53.7724 87.8602C53.8295 87.8602 53.8724 87.8852 53.9009 87.9352C53.9295 87.978 53.9545 88.0244 53.9759 88.0744C53.9973 88.1387 53.9795 88.1887 53.9224 88.2244C53.701 88.3672 53.4975 88.46 53.3119 88.5028C53.1263 88.5457 52.9192 88.5671 52.6907 88.5671ZM57.0058 88.5135C56.5203 88.5135 56.1348 88.3672 55.8492 88.0744C55.5636 87.7817 55.4208 87.3961 55.4208 86.9177V84.9364C55.4208 84.8079 55.4136 84.6901 55.3993 84.583C55.3922 84.4687 55.3529 84.3795 55.2815 84.3152C55.2101 84.2438 55.0745 84.2081 54.8745 84.2081C54.8103 84.2081 54.7496 84.201 54.6925 84.1867C54.6425 84.1653 54.6175 84.101 54.6175 83.9939C54.6175 83.8868 54.6746 83.8225 54.7889 83.8011C55.1173 83.7511 55.3672 83.7012 55.5386 83.6512C55.7171 83.6012 55.8527 83.5584 55.9455 83.5227C56.0384 83.487 56.1205 83.4655 56.1919 83.4584C56.249 83.4513 56.2954 83.462 56.3311 83.4905C56.3739 83.5191 56.3954 83.5762 56.3954 83.6619V86.907C56.3954 87.1426 56.4453 87.3354 56.5453 87.4854C56.6524 87.6353 56.7845 87.746 56.9416 87.8174C57.0987 87.8888 57.2593 87.9245 57.4235 87.9245C57.6734 87.9245 57.8912 87.8816 58.0768 87.796C58.2625 87.7031 58.4124 87.5996 58.5267 87.4854C58.6409 87.364 58.7159 87.264 58.7516 87.1855V84.9364C58.7516 84.8079 58.7444 84.6901 58.7301 84.583C58.723 84.4687 58.6837 84.3795 58.6123 84.3152C58.5409 84.2438 58.4053 84.2081 58.2054 84.2081C58.1411 84.2081 58.0804 84.201 58.0233 84.1867C57.9733 84.1653 57.9483 84.101 57.9483 83.9939C57.9483 83.8868 58.0054 83.8225 58.1197 83.8011C58.4481 83.7511 58.698 83.7012 58.8694 83.6512C59.0479 83.6012 59.1835 83.5584 59.2764 83.5227C59.3692 83.487 59.4513 83.4655 59.5227 83.4584C59.5798 83.4513 59.6262 83.462 59.6619 83.4905C59.7048 83.5191 59.7262 83.5762 59.7262 83.6619V87.3676C59.7262 87.7888 60.0082 87.9994 60.5723 87.9994C60.6508 87.9994 60.7008 88.0209 60.7222 88.0637C60.7436 88.1065 60.7543 88.153 60.7543 88.2029C60.7543 88.3029 60.6936 88.3636 60.5723 88.385L58.848 88.5028C58.798 88.5028 58.7694 88.4814 58.7623 88.4386C58.7551 88.3957 58.7516 88.3457 58.7516 88.2886V87.6889H58.7301C58.5945 87.8174 58.4481 87.9459 58.291 88.0744C58.1411 88.2029 57.9626 88.3065 57.7555 88.385C57.5556 88.4707 57.3057 88.5135 57.0058 88.5135ZM61.3402 88.4171C61.2902 88.4171 61.2474 88.3957 61.2117 88.3529C61.1831 88.3029 61.1688 88.2529 61.1688 88.2029C61.1831 88.0958 61.2117 88.0387 61.2545 88.0316C61.2974 88.0173 61.3545 88.0102 61.4259 88.0102C61.6258 88.0102 61.7615 87.978 61.8329 87.9138C61.9043 87.8424 61.9435 87.7495 61.9507 87.6353C61.965 87.5211 61.9721 87.4033 61.9721 87.2819V84.8293C61.9721 84.7008 61.965 84.583 61.9507 84.4759C61.9435 84.3616 61.9043 84.2724 61.8329 84.2081C61.7615 84.1367 61.6258 84.101 61.4259 84.101C61.3616 84.101 61.3009 84.0939 61.2438 84.0796C61.1938 84.0582 61.1688 83.9939 61.1688 83.8868C61.1688 83.7797 61.226 83.7154 61.3402 83.694C61.6686 83.644 61.9185 83.5941 62.0899 83.5441C62.2684 83.4941 62.4005 83.4513 62.4862 83.4156C62.579 83.3799 62.6611 83.3584 62.7325 83.3513C62.7896 83.3442 62.836 83.3549 62.8717 83.3834C62.9146 83.412 62.936 83.4691 62.936 83.5548V84.2188H62.9681C63.2109 83.9832 63.4608 83.7904 63.7178 83.6405C63.9749 83.4834 64.2105 83.4049 64.4247 83.4049C64.6746 83.4049 64.8638 83.4977 64.9923 83.6833C65.128 83.869 65.1958 84.0653 65.1958 84.2724C65.1958 84.4509 65.1387 84.6258 65.0244 84.7972C64.9102 84.9614 64.7388 85.0435 64.5104 85.0435C64.3961 85.0435 64.3033 85.0221 64.2319 84.9792C64.1676 84.9292 64.1319 84.8935 64.1248 84.8721C64.1248 84.8578 64.1569 84.815 64.2212 84.7436C64.2926 84.6722 64.3283 84.583 64.3283 84.4759C64.3283 84.3473 64.2926 84.2438 64.2212 84.1653C64.1569 84.0867 64.0677 84.0475 63.9534 84.0475C63.8321 84.0475 63.675 84.1081 63.4822 84.2295C63.2966 84.3509 63.1181 84.4973 62.9467 84.6686V87.2819C62.9467 87.4033 62.9503 87.5211 62.9574 87.6353C62.9717 87.7495 63.0145 87.8424 63.0859 87.9138C63.1645 87.978 63.3037 88.0102 63.5036 88.0102C63.5679 88.0102 63.6214 88.0173 63.6643 88.0316C63.7143 88.0387 63.7428 88.0958 63.75 88.2029C63.75 88.2529 63.7357 88.3029 63.7071 88.3529C63.6786 88.3957 63.6357 88.4171 63.5786 88.4171C63.3715 88.4029 63.1788 88.3921 63.0003 88.385C62.8289 88.385 62.6468 88.385 62.454 88.385C62.2613 88.385 62.0792 88.385 61.9078 88.385C61.7365 88.3921 61.5473 88.4029 61.3402 88.4171ZM67.1644 88.5135C66.7288 88.5135 66.379 88.3886 66.1148 88.1387C65.8577 87.8888 65.7292 87.5889 65.7292 87.239C65.7292 86.8749 65.822 86.5893 66.0077 86.3822C66.2005 86.1752 66.4504 86.0217 66.7574 85.9217C67.0715 85.8217 67.4107 85.7539 67.7748 85.7182C68.1461 85.6825 68.5067 85.654 68.8565 85.6325V84.7864C68.8565 84.4509 68.7709 84.1903 68.5995 84.0046C68.4353 83.8118 68.1532 83.7154 67.7534 83.7154C67.5535 83.7154 67.3643 83.7797 67.1858 83.9082C67.0144 84.0367 66.9287 84.2224 66.9287 84.4651C66.9287 84.5794 66.9573 84.6758 67.0144 84.7543C67.0715 84.8329 67.1287 84.8935 67.1858 84.9364C67.2429 84.9792 67.2715 85.0078 67.2715 85.0221C67.2715 85.0506 67.2286 85.1042 67.1429 85.1827C67.0644 85.2541 66.9537 85.2898 66.8109 85.2898C66.5896 85.2898 66.4182 85.2077 66.2968 85.0435C66.1755 84.8793 66.1148 84.6972 66.1148 84.4973C66.1148 84.226 66.1969 84.0118 66.3611 83.8547C66.5325 83.6976 66.7502 83.5834 67.0144 83.512C67.2786 83.4406 67.5463 83.4049 67.8177 83.4049C68.139 83.4049 68.4496 83.4441 68.7494 83.5227C69.0565 83.6012 69.3064 83.7511 69.4991 83.9725C69.6991 84.1938 69.799 84.5258 69.799 84.9685V87.4639C69.8062 87.5353 69.824 87.621 69.8526 87.721C69.8811 87.8209 69.9347 87.9102 70.0132 87.9887C70.0989 88.0601 70.2131 88.0958 70.3559 88.0958C70.4059 88.0958 70.4452 88.1065 70.4737 88.128C70.5023 88.1422 70.5166 88.1887 70.5166 88.2672C70.5166 88.3315 70.4809 88.3814 70.4095 88.4171C70.3381 88.4528 70.256 88.4778 70.1632 88.4921C70.0703 88.5064 69.9918 88.5135 69.9275 88.5135C69.6634 88.5135 69.4277 88.4386 69.2207 88.2886C69.0136 88.1315 68.8922 87.9173 68.8565 87.646C68.6995 87.9316 68.4638 88.1494 68.1497 88.2993C67.8427 88.4421 67.5142 88.5135 67.1644 88.5135ZM67.5071 87.9352C67.7498 87.9352 67.9712 87.8745 68.1711 87.7531C68.3782 87.6317 68.5424 87.4675 68.6638 87.2605C68.7923 87.0463 68.8565 86.8106 68.8565 86.5536V85.9431C68.1211 85.9931 67.5963 86.1109 67.2822 86.2966C66.968 86.4822 66.8109 86.7856 66.8109 87.2069C66.8109 87.6924 67.043 87.9352 67.5071 87.9352ZM71.1482 88.4171C71.0982 88.4171 71.0554 88.3957 71.0197 88.3529C70.9911 88.3029 70.9769 88.2529 70.9769 88.2029C70.984 88.0958 71.009 88.0387 71.0518 88.0316C71.1018 88.0173 71.1589 88.0102 71.2232 88.0102C71.4231 88.0102 71.5588 87.978 71.6302 87.9138C71.7087 87.8424 71.7516 87.7495 71.7587 87.6353C71.773 87.5211 71.7801 87.4033 71.7801 87.2819V82.0554C71.7801 81.9269 71.773 81.8091 71.7587 81.702C71.7516 81.5877 71.7123 81.4985 71.6409 81.4342C71.5695 81.3628 71.4338 81.3271 71.2339 81.3271C71.1696 81.3271 71.109 81.32 71.0518 81.3057C71.0019 81.2843 70.9769 81.22 70.9769 81.1129C70.9769 81.0058 71.034 80.9416 71.1482 80.9201C71.4767 80.8702 71.7266 80.8202 71.8979 80.7702C72.0764 80.7202 72.2121 80.6774 72.3049 80.6417C72.3977 80.606 72.4798 80.5846 72.5512 80.5774C72.6084 80.5703 72.6548 80.581 72.6905 80.6095C72.7333 80.6381 72.7547 80.6952 72.7547 80.7809V87.2819C72.7547 87.4033 72.7583 87.5211 72.7654 87.6353C72.7797 87.7495 72.8226 87.8424 72.894 87.9138C72.9725 87.978 73.1117 88.0102 73.3116 88.0102C73.3759 88.0102 73.4295 88.0173 73.4723 88.0316C73.5223 88.0387 73.5508 88.0958 73.558 88.2029C73.558 88.2529 73.5437 88.3029 73.5151 88.3529C73.4866 88.3957 73.4437 88.4171 73.3866 88.4171C73.1796 88.4029 72.9868 88.3921 72.8083 88.385C72.6369 88.385 72.4548 88.385 72.2621 88.385C72.0693 88.385 71.8872 88.385 71.7159 88.385C71.5445 88.3921 71.3553 88.4029 71.1482 88.4171Z" fill="#CCC9C4"/>
<path d="M8.87341 72.3967C7.77452 72.3967 6.781 72.1934 5.89285 71.787C5.0047 71.3806 4.24451 70.8311 3.61227 70.1387C2.98003 69.4462 2.49832 68.6634 2.16715 67.7903C1.83598 66.9022 1.67039 65.9764 1.67039 65.013C1.67039 63.7636 1.88114 62.6572 2.30263 61.6937C2.73918 60.7303 3.3112 59.9175 4.01871 59.2551C4.72622 58.5928 5.50146 58.096 6.34445 57.7648C7.20249 57.4186 8.04548 57.2455 8.87341 57.2455C10.0024 57.2455 11.011 57.4487 11.8991 57.8551C12.8023 58.2616 13.5701 58.811 14.2023 59.5035C14.8345 60.1959 15.3162 60.9862 15.6474 61.8744C15.9786 62.7475 16.1442 63.6582 16.1442 64.6066C16.1442 65.856 15.9259 66.9624 15.4894 67.9258C15.0528 68.8892 14.4733 69.7021 13.7507 70.3645C13.0281 71.0268 12.2378 71.5311 11.3798 71.8773C10.5368 72.2236 9.70134 72.3967 8.87341 72.3967ZM8.85083 71.4031C9.91962 71.4031 10.7927 71.087 11.4701 70.4548C12.1475 69.8225 12.6443 68.9946 12.9604 67.971C13.2916 66.9323 13.4572 65.8108 13.4572 64.6066C13.4572 63.4776 13.284 62.4314 12.9378 61.4679C12.6066 60.4895 12.1024 59.7067 11.425 59.1196C10.7476 58.5175 9.88951 58.2164 8.85083 58.2164C7.7971 58.2164 6.93153 58.5325 6.25413 59.1648C5.59178 59.782 5.10255 60.6024 4.78643 61.626C4.47031 62.6346 4.31225 63.741 4.31225 64.9453C4.31225 66.0743 4.47031 67.1355 4.78643 68.129C5.1176 69.1075 5.62189 69.8978 6.29929 70.4999C6.97669 71.1021 7.8272 71.4031 8.85083 71.4031ZM18.2095 72.0128C18.1042 72.0128 18.0138 71.9676 17.9386 71.8773C17.8784 71.772 17.8483 71.6666 17.8483 71.5612C17.8784 71.3354 17.9386 71.215 18.0289 71.1999C18.1192 71.1698 18.2396 71.1548 18.3902 71.1548C18.8117 71.1548 19.0977 71.087 19.2482 70.9515C19.3987 70.801 19.4815 70.6053 19.4966 70.3645C19.5267 70.1236 19.5418 69.8752 19.5418 69.6193V64.4485C19.5418 64.1775 19.5267 63.9292 19.4966 63.7034C19.4815 63.4625 19.3987 63.2743 19.2482 63.1389C19.0977 62.9883 18.8117 62.9131 18.3902 62.9131C18.2547 62.9131 18.1267 62.898 18.0063 62.8679C17.9009 62.8227 17.8483 62.6873 17.8483 62.4615C17.8483 62.2357 17.9687 62.1002 18.2095 62.055C18.902 61.9497 19.4289 61.8443 19.7901 61.7389C20.1665 61.6335 20.445 61.5432 20.6256 61.4679C20.8213 61.3927 20.9944 61.3475 21.1449 61.3325C21.2654 61.3174 21.3632 61.34 21.4385 61.4002C21.5288 61.4604 21.574 61.5808 21.574 61.7615V63.1614H21.6417C22.1535 62.6647 22.6804 62.2582 23.2223 61.9421C23.7642 61.611 24.261 61.4454 24.7126 61.4454C25.2394 61.4454 25.6384 61.6411 25.9093 62.0324C26.1953 62.4238 26.3383 62.8378 26.3383 63.2743C26.3383 63.6507 26.2179 64.0195 25.9771 64.3808C25.7362 64.727 25.3749 64.9001 24.8932 64.9001C24.6524 64.9001 24.4567 64.8549 24.3061 64.7646C24.1707 64.6593 24.0954 64.584 24.0803 64.5388C24.0803 64.5087 24.1481 64.4184 24.2836 64.2679C24.4341 64.1173 24.5094 63.9292 24.5094 63.7034C24.5094 63.4324 24.4341 63.2141 24.2836 63.0485C24.1481 62.883 23.9599 62.8002 23.7191 62.8002C23.4631 62.8002 23.132 62.9281 22.7255 63.184C22.3341 63.4399 21.9578 63.7485 21.5965 64.1098V69.6193C21.5965 69.8752 21.6041 70.1236 21.6191 70.3645C21.6492 70.6053 21.7395 70.801 21.8901 70.9515C22.0557 71.087 22.3492 71.1548 22.7707 71.1548C22.9062 71.1548 23.0191 71.1698 23.1094 71.1999C23.2148 71.215 23.275 71.3354 23.29 71.5612C23.29 71.6666 23.2599 71.772 23.1997 71.8773C23.1395 71.9676 23.0492 72.0128 22.9288 72.0128C22.4922 71.9827 22.0858 71.9601 21.7094 71.9451C21.3482 71.9451 20.9643 71.9451 20.5579 71.9451C20.1514 71.9451 19.7676 71.9451 19.4063 71.9451C19.045 71.9601 18.6461 71.9827 18.2095 72.0128ZM32.0692 76.8675C28.893 76.8675 27.3049 75.9643 27.3049 74.1579C27.3049 73.6611 27.4629 73.2171 27.779 72.8257C28.0952 72.4494 28.5167 72.2612 29.0435 72.2612C29.3898 72.2612 29.6758 72.3515 29.9016 72.5321C30.1274 72.7278 30.2403 72.8633 30.2403 72.9386C30.2403 72.9687 30.1801 73.0364 30.0596 73.1418C29.9543 73.2472 29.8414 73.3902 29.7209 73.5708C29.6156 73.7515 29.5629 73.9923 29.5629 74.2934C29.5629 75.4525 30.5564 76.032 32.5434 76.032C33.6724 76.032 34.5455 75.8364 35.1627 75.445C35.7949 75.0536 36.1111 74.459 36.1111 73.6611C36.1111 73.2246 35.9681 72.8934 35.682 72.6676C35.4111 72.4418 35.0423 72.2838 34.5756 72.1934C34.124 72.1031 33.6197 72.0429 33.0628 72.0128C32.5058 71.9978 31.9413 71.9827 31.3693 71.9676C30.8123 71.9526 30.293 71.9074 29.8112 71.8322C29.2844 71.7418 28.8403 71.5687 28.479 71.3128C28.1328 71.0419 27.9597 70.6053 27.9597 70.0032C27.9597 69.4462 28.1554 68.9645 28.5468 68.5581C28.9532 68.1366 29.5553 67.9258 30.3532 67.9258C29.3898 67.5495 28.7425 67.0904 28.4113 66.5484C28.0952 66.0065 27.9371 65.4496 27.9371 64.8775C27.9371 64.2302 28.1177 63.6507 28.479 63.1389C28.8554 62.612 29.3672 62.198 30.0145 61.897C30.6768 61.5808 31.437 61.4228 32.295 61.4228C32.7165 61.4228 33.1531 61.4604 33.6047 61.5357C34.0713 61.5959 34.4703 61.7088 34.8014 61.8744L37.8949 61.2873C38.0605 61.2723 38.1734 61.3249 38.2336 61.4454C38.2938 61.5658 38.3239 61.6937 38.3239 61.8292C38.3239 62.0249 38.2938 62.2206 38.2336 62.4163C38.1734 62.5969 38.0906 62.6873 37.9852 62.6873L35.7498 62.5969V62.6421C36.0057 62.898 36.224 63.2367 36.4046 63.6582C36.5852 64.0797 36.6756 64.4786 36.6756 64.8549C36.6756 65.5775 36.4648 66.2022 36.0433 66.7291C35.6369 67.256 35.11 67.6624 34.4627 67.9484C33.8305 68.2194 33.1681 68.3548 32.4757 68.3548H31.4822C30.6994 68.3548 30.1274 68.4301 29.7661 68.5806C29.4199 68.7312 29.2467 68.9796 29.2467 69.3258C29.2467 69.5967 29.3371 69.8075 29.5177 69.958C29.7134 70.0935 30.0596 70.1763 30.5564 70.2064L33.6498 70.3193C35.2606 70.3795 36.4046 70.6354 37.082 71.087C37.7745 71.5386 38.1207 72.2085 38.1207 73.0966C38.1207 73.8945 37.8648 74.5719 37.353 75.1288C36.8562 75.7009 36.1487 76.1299 35.2304 76.4159C34.3272 76.717 33.2735 76.8675 32.0692 76.8675ZM32.295 67.7C32.9875 67.7 33.552 67.4592 33.9885 66.9775C34.4251 66.4807 34.6434 65.7732 34.6434 64.8549C34.6434 64.012 34.4176 63.3496 33.966 62.8679C33.5294 62.3711 32.9649 62.1228 32.2725 62.1228C31.6101 62.1228 31.0531 62.3636 30.6015 62.8453C30.165 63.312 29.9467 63.9668 29.9467 64.8098C29.9467 65.728 30.165 66.4431 30.6015 66.9549C31.0531 67.4516 31.6176 67.7 32.295 67.7ZM42.3079 72.216C41.3896 72.216 40.652 71.9526 40.095 71.4257C39.5531 70.8989 39.2821 70.2666 39.2821 69.529C39.2821 68.7613 39.4778 68.1592 39.8692 67.7226C40.2757 67.2861 40.8025 66.9624 41.4498 66.7517C42.1122 66.5409 42.8272 66.3979 43.5949 66.3226C44.3777 66.2474 45.1379 66.1872 45.8755 66.142V64.3582C45.8755 63.6507 45.6949 63.1012 45.3336 62.7098C44.9874 62.3034 44.3928 62.1002 43.5498 62.1002C43.1283 62.1002 42.7294 62.2357 42.353 62.5066C41.9917 62.7776 41.8111 63.169 41.8111 63.6808C41.8111 63.9216 41.8713 64.1249 41.9917 64.2904C42.1122 64.456 42.2326 64.584 42.353 64.6743C42.4735 64.7646 42.5337 64.8248 42.5337 64.8549C42.5337 64.9152 42.4433 65.0281 42.2627 65.1936C42.0971 65.3442 41.8638 65.4194 41.5627 65.4194C41.0961 65.4194 40.7348 65.2463 40.4789 64.9001C40.223 64.5539 40.095 64.17 40.095 63.7485C40.095 63.1765 40.2681 62.7249 40.6144 62.3937C40.9756 62.0626 41.4348 61.8217 41.9917 61.6712C42.5487 61.5206 43.1132 61.4454 43.6852 61.4454C44.3626 61.4454 45.0175 61.5282 45.6497 61.6937C46.297 61.8593 46.8239 62.1755 47.2303 62.6421C47.6518 63.1088 47.8625 63.8087 47.8625 64.742V70.0032C47.8776 70.1537 47.9152 70.3344 47.9754 70.5451C48.0357 70.7559 48.1486 70.944 48.3141 71.1096C48.4948 71.2601 48.7356 71.3354 49.0367 71.3354C49.1421 71.3354 49.2249 71.358 49.2851 71.4031C49.3453 71.4333 49.3754 71.5311 49.3754 71.6967C49.3754 71.8322 49.3001 71.9375 49.1496 72.0128C48.9991 72.0881 48.826 72.1408 48.6303 72.1709C48.4346 72.201 48.269 72.216 48.1335 72.216C47.5765 72.216 47.0798 72.058 46.6432 71.7418C46.2067 71.4107 45.9508 70.9591 45.8755 70.387C45.5443 70.9892 45.0476 71.4483 44.3852 71.7644C43.7379 72.0655 43.0455 72.216 42.3079 72.216ZM43.0304 70.9967C43.5422 70.9967 44.0089 70.8688 44.4304 70.6128C44.8669 70.3569 45.2132 70.0107 45.4691 69.5742C45.74 69.1226 45.8755 68.6258 45.8755 68.0839V66.7968C44.325 66.9022 43.2186 67.1506 42.5562 67.542C41.8939 67.9334 41.5627 68.5731 41.5627 69.4613C41.5627 70.4849 42.052 70.9967 43.0304 70.9967ZM50.8226 72.0128C50.7173 72.0128 50.6269 71.9676 50.5517 71.8773C50.4915 71.772 50.4614 71.6666 50.4614 71.5612C50.4915 71.3354 50.5517 71.215 50.642 71.1999C50.7323 71.1698 50.8527 71.1548 51.0033 71.1548C51.4248 71.1548 51.7108 71.087 51.8613 70.9515C52.0119 70.801 52.0946 70.6053 52.1097 70.3645C52.1398 70.1236 52.1549 69.8752 52.1549 69.6193V64.4485C52.1549 64.1775 52.1398 63.9292 52.1097 63.7034C52.0946 63.4625 52.0119 63.2743 51.8613 63.1389C51.7108 62.9883 51.4248 62.9131 51.0033 62.9131C50.8678 62.9131 50.7398 62.898 50.6194 62.8679C50.514 62.8227 50.4614 62.6873 50.4614 62.4615C50.4614 62.2357 50.5818 62.1002 50.8226 62.055C51.5151 61.9497 52.042 61.8443 52.4032 61.7389C52.7796 61.6335 53.0581 61.5432 53.2387 61.4679C53.4344 61.3927 53.6075 61.3475 53.758 61.3325C53.8785 61.3174 53.9763 61.34 54.0516 61.4002C54.1419 61.4604 54.1871 61.5808 54.1871 61.7615V63.184H54.2548C54.5559 62.898 54.8645 62.6271 55.1806 62.3711C55.4967 62.1002 55.8655 61.8819 56.287 61.7163C56.7235 61.5357 57.2579 61.4454 57.8902 61.4454C58.9138 61.4454 59.7267 61.754 60.3288 62.3711C60.931 62.9883 61.232 63.8012 61.232 64.8098V69.6193C61.232 69.8752 61.2395 70.1236 61.2546 70.3645C61.2847 70.6053 61.375 70.801 61.5256 70.9515C61.6911 71.087 61.9847 71.1548 62.4062 71.1548C62.5417 71.1548 62.6546 71.1698 62.7449 71.1999C62.8503 71.215 62.9105 71.3354 62.9255 71.5612C62.9255 71.6666 62.8954 71.772 62.8352 71.8773C62.775 71.9676 62.6847 72.0128 62.5642 72.0128C62.1277 71.9827 61.7213 71.9601 61.3449 71.9451C60.9836 71.9451 60.5998 71.9451 60.1933 71.9451C59.7869 71.9451 59.403 71.9451 59.0418 71.9451C58.6805 71.9601 58.2816 71.9827 57.845 72.0128C57.7396 72.0128 57.6493 71.9676 57.5741 71.8773C57.5138 71.772 57.4837 71.6666 57.4837 71.5612C57.4988 71.3354 57.5515 71.215 57.6418 71.1999C57.7472 71.1698 57.8676 71.1548 58.0031 71.1548C58.4246 71.1548 58.7106 71.087 58.8611 70.9515C59.0267 70.801 59.117 70.6053 59.1321 70.3645C59.1622 70.1236 59.1772 69.8752 59.1772 69.6193V64.8324C59.1772 64.3356 59.0643 63.9292 58.8385 63.613C58.6278 63.2969 58.3568 63.0636 58.0257 62.9131C57.6945 62.7625 57.3558 62.6873 57.0096 62.6873C56.4977 62.6873 56.0461 62.7851 55.6548 62.9808C55.2634 63.1614 54.9473 63.3722 54.7064 63.613C54.4655 63.8539 54.3 64.0646 54.2096 64.2453V69.6193C54.2096 69.8752 54.2172 70.1236 54.2322 70.3645C54.2623 70.6053 54.3526 70.801 54.5032 70.9515C54.6688 71.087 54.9623 71.1548 55.3838 71.1548C55.5193 71.1548 55.6322 71.1698 55.7225 71.1999C55.8279 71.215 55.8881 71.3354 55.9031 71.5612C55.9031 71.6666 55.873 71.772 55.8128 71.8773C55.7526 71.9676 55.6623 72.0128 55.5419 72.0128C55.1053 71.9827 54.6989 71.9601 54.3225 71.9451C53.9613 71.9451 53.5774 71.9451 53.171 71.9451C52.7645 71.9451 52.3807 71.9451 52.0194 71.9451C51.6581 71.9601 51.2592 71.9827 50.8226 72.0128ZM64.3398 72.0128C64.2344 72.0128 64.1441 71.9676 64.0688 71.8773C64.0086 71.772 63.9785 71.6666 63.9785 71.5612C64.0086 71.3354 64.0688 71.215 64.1591 71.1999C64.2494 71.1698 64.3699 71.1548 64.5204 71.1548C64.9419 71.1548 65.2279 71.087 65.3784 70.9515C65.529 70.801 65.6118 70.6053 65.6268 70.3645C65.6569 70.1236 65.672 69.8752 65.672 69.6193V64.4485C65.672 64.1775 65.6569 63.9292 65.6268 63.7034C65.6118 63.4625 65.529 63.2743 65.3784 63.1389C65.2279 62.9883 64.9419 62.9131 64.5204 62.9131C64.3849 62.9131 64.257 62.898 64.1365 62.8679C64.0312 62.8227 63.9785 62.6873 63.9785 62.4615C63.9785 62.2357 64.0989 62.1002 64.3398 62.055C65.0322 61.9497 65.5591 61.8443 65.9204 61.7389C66.2967 61.6335 66.5827 61.5432 66.7784 61.4679C66.9741 61.3927 67.1472 61.3475 67.2977 61.3325C67.4182 61.3174 67.516 61.34 67.5913 61.4002C67.6816 61.4604 67.7268 61.5808 67.7268 61.7615V69.6193C67.7268 69.8752 67.7343 70.1236 67.7493 70.3645C67.7795 70.6053 67.8698 70.801 68.0203 70.9515C68.1859 71.087 68.4794 71.1548 68.9009 71.1548C69.0364 71.1548 69.1493 71.1698 69.2396 71.1999C69.345 71.215 69.4052 71.3354 69.4203 71.5612C69.4203 71.6666 69.3902 71.772 69.3299 71.8773C69.2697 71.9676 69.1794 72.0128 69.059 72.0128C68.6224 71.9827 68.216 71.9601 67.8397 71.9451C67.4784 71.9451 67.0945 71.9451 66.6881 71.9451C66.2816 71.9451 65.8978 71.9451 65.5365 71.9451C65.1752 71.9601 64.7763 71.9827 64.3398 72.0128ZM66.5752 58.8261C66.1537 58.8261 65.7999 58.6981 65.5139 58.4422C65.2279 58.1713 65.0849 57.8401 65.0849 57.4487C65.0849 57.1025 65.258 56.7939 65.6042 56.5229C65.9505 56.252 66.3419 56.1165 66.7784 56.1165C67.1547 56.1165 67.4633 56.252 67.7042 56.5229C67.945 56.7788 68.0655 57.11 68.0655 57.5164C68.0655 57.8777 67.9225 58.1863 67.6364 58.4422C67.3504 58.6981 66.9967 58.8261 66.5752 58.8261ZM74.8372 72.216C73.6781 72.216 72.7071 72.0128 71.9244 71.6064C71.1566 71.1849 70.7728 70.5827 70.7728 69.8C70.7728 69.3634 70.9007 69.0097 71.1566 68.7387C71.4276 68.4677 71.7738 68.3323 72.1953 68.3323C72.4663 68.3323 72.6845 68.4075 72.8501 68.5581C73.0308 68.6935 73.1211 68.7914 73.1211 68.8516C73.1211 68.8968 73.0308 69.0021 72.8501 69.1677C72.6845 69.3183 72.6018 69.5666 72.6018 69.9129C72.6018 70.3344 72.7974 70.6881 73.1888 70.9741C73.5953 71.2451 74.2049 71.3806 75.0178 71.3806C75.7253 71.3806 76.2748 71.23 76.6662 70.929C77.0726 70.6128 77.2758 70.1763 77.2758 69.6193C77.2758 69.1677 77.1253 68.8215 76.8242 68.5806C76.5382 68.3247 76.1619 68.1215 75.6952 67.971C75.2436 67.8205 74.7544 67.6699 74.2275 67.5194C73.7157 67.3689 73.2265 67.1807 72.7598 66.9549C72.2932 66.7291 71.9093 66.4205 71.6082 66.0291C71.3222 65.6227 71.1792 65.0883 71.1792 64.4259C71.1792 63.7485 71.3824 63.1916 71.7889 62.755C72.1953 62.3185 72.7147 61.9948 73.3469 61.7841C73.9791 61.5583 74.6189 61.4454 75.2662 61.4454C75.8232 61.4454 76.35 61.5282 76.8468 61.6937C77.3436 61.8443 77.75 62.0776 78.0661 62.3937C78.3973 62.7098 78.5629 63.1088 78.5629 63.5905C78.5629 63.9668 78.4424 64.3055 78.2016 64.6066C77.9607 64.9076 77.6296 65.0582 77.2081 65.0582C76.9371 65.0582 76.7113 64.9904 76.5307 64.8549C76.3651 64.7044 76.2823 64.599 76.2823 64.5388C76.2823 64.5087 76.335 64.456 76.4404 64.3808C76.5608 64.2904 76.6737 64.1775 76.7791 64.0421C76.8844 63.8915 76.9371 63.7034 76.9371 63.4776C76.907 63.041 76.6963 62.7174 76.3049 62.5066C75.9135 62.2959 75.4769 62.1905 74.9952 62.1905C74.4684 62.1905 73.9791 62.3185 73.5275 62.5744C73.0759 62.8303 72.8501 63.1991 72.8501 63.6808C72.8501 64.1173 72.9405 64.456 73.1211 64.6969C73.3168 64.9377 73.6179 65.1485 74.0243 65.3291C74.4458 65.4947 74.9877 65.6829 75.6501 65.8936C76.3124 66.1044 76.892 66.3226 77.3887 66.5484C77.9005 66.7742 78.2919 67.0753 78.5629 67.4516C78.8489 67.8129 78.9919 68.3097 78.9919 68.9419C78.9919 69.5742 78.8113 70.1387 78.45 70.6354C78.0887 71.1322 77.5919 71.5236 76.9597 71.8096C76.3425 72.0805 75.635 72.216 74.8372 72.216ZM84.8031 72.3289C84.3515 72.3289 83.9224 72.216 83.516 71.9902C83.1096 71.7644 82.7709 71.4182 82.4999 70.9515C82.244 70.4849 82.116 69.8978 82.116 69.1903V62.5518L80.8064 62.5969C80.701 62.5969 80.6182 62.5593 80.558 62.484C80.5129 62.3937 80.4903 62.2959 80.4903 62.1905C80.4903 61.8894 80.5957 61.7163 80.8064 61.6712C81.3634 61.5658 81.7849 61.3927 82.0709 61.1518C82.3569 60.8959 82.5752 60.5949 82.7257 60.2486C82.8913 59.9024 83.0418 59.5261 83.1773 59.1196C83.2225 58.9992 83.2902 58.9239 83.3805 58.8938C83.4708 58.8487 83.5687 58.8261 83.6741 58.8261C83.7644 58.8261 83.8622 58.8487 83.9676 58.8938C84.088 58.939 84.1482 59.0218 84.1482 59.1422L83.9902 61.7163L86.632 61.5583C86.7675 61.5432 86.8578 61.5808 86.903 61.6712C86.9482 61.7615 86.9707 61.8669 86.9707 61.9873C86.9707 62.1378 86.9406 62.2884 86.8804 62.4389C86.8353 62.5894 86.7751 62.6647 86.6998 62.6647L84.1708 62.5969V69.4613C84.1708 69.8978 84.2611 70.2967 84.4418 70.658C84.6375 71.0193 84.9837 71.1999 85.4805 71.1999C85.6461 71.1999 85.8342 71.1849 86.045 71.1548C86.2557 71.1247 86.4815 71.0569 86.7224 70.9515C86.7826 70.9214 86.8428 70.8989 86.903 70.8838C86.9632 70.8537 87.0234 70.8386 87.0836 70.8386C87.2041 70.8386 87.2944 70.8913 87.3546 70.9967C87.4148 71.087 87.4675 71.1849 87.5127 71.2902C87.5578 71.4257 87.5202 71.5311 87.3998 71.6064C86.9331 71.9074 86.5041 72.1031 86.1127 72.1934C85.7213 72.2838 85.2848 72.3289 84.8031 72.3289Z" fill="#CCC9C4"/>
<path d="M78.5391 49.2751C78.5391 50.2751 61.1491 51.0751 39.6991 51.0751C18.2491 51.0751 0.869141 50.2651 0.869141 49.2751C0.869141 48.2851 18.2491 47.4451 39.6991 47.4451C61.1491 47.4451 78.5391 48.2851 78.5391 49.2751Z" fill="#CCC9C4"/>
<path d="M53.939 17.7651C53.939 17.7651 45.2591 8.38512 48.7791 5.06512C51.6091 2.41512 54.1691 10.2751 54.1691 10.2751C54.1691 10.2751 52.8391 0.545122 57.2891 0.615122C62.8091 0.705122 58.6491 10.6151 58.6491 10.6151C58.6491 10.6151 64.779 3.35512 66.939 6.55512C69.099 9.75512 58.6791 14.4451 58.6791 14.4451C58.6791 14.4451 66.9591 12.9151 66.0291 16.2551C65.0991 19.5951 53.939 17.7651 53.939 17.7651Z" fill="#CCC9C4"/>
<path d="M29.0291 16.4451C29.0291 16.4451 19.439 16.505 19.389 12.865C19.389 9.96505 23.8391 12.075 23.8391 12.075C23.8391 12.075 18.9491 8.32505 21.2391 5.90505C24.0891 2.90505 26.949 8.32505 26.949 8.32505C26.949 8.32505 26.5591 3.15505 29.4291 3.57505C32.2991 3.99505 30.3491 11.045 30.3491 11.045C30.3491 11.045 32.9491 6.77505 34.3491 8.98505C35.7491 11.1951 29.0291 16.4451 29.0291 16.4451Z" fill="#CCC9C4"/>
<path d="M56.4091 13.3152C56.4091 13.3152 40.919 47.2152 3.00903 49.3152" stroke="#CCC9C4" stroke-width="1.18" stroke-miterlimit="10" stroke-linecap="round"/>
<path d="M27.7691 13.0352C27.7691 13.0352 41.5291 34.8952 15.3691 47.3552" stroke="#CCC9C4" stroke-width="1.18" stroke-miterlimit="10" stroke-linecap="round"/>
<path d="M72.209 28.1251C72.439 29.5851 66.8691 31.6651 58.4691 32.9751C52.9328 33.7352 47.3167 33.7049 41.7891 32.8851C46.7985 30.4117 52.1358 28.6674 57.639 27.7051C66.029 26.3851 72.029 26.6651 72.209 28.1251Z" fill="#CCC9C4"/>
<path d="M41.2791 12.3152C42.2791 12.3152 43.1091 16.4152 43.0591 22.3752C42.9471 26.2944 42.2736 30.1773 41.0591 33.9052C39.9237 30.1551 39.3244 26.2632 39.2791 22.3452C39.3691 16.3852 40.2391 12.3052 41.2791 12.3152Z" fill="#CCC9C4"/>
<path d="M25.2491 23.735C25.9691 23.635 27.9291 25.095 28.4591 29.275C28.9891 33.455 27.1391 38.865 27.1391 38.865C27.1391 38.865 24.0091 34.095 23.4891 29.925C22.9691 25.755 24.5191 23.825 25.2491 23.735Z" fill="#CCC9C4"/>
<path d="M1.21909 45.7051V10.1951C1.21513 9.57271 1.33431 8.95571 1.56974 8.37959C1.80517 7.80346 2.15223 7.27959 2.59092 6.83811C3.0296 6.39664 3.55127 6.04628 4.12589 5.80721C4.70051 5.56813 5.31669 5.44506 5.93906 5.44507H14.2291" stroke="#CCC9C4" stroke-width="2" stroke-miterlimit="10" stroke-linecap="round"/>
<path d="M77.709 45.7051V10.1951C77.717 8.94496 77.2288 7.74274 76.3514 6.85222C75.474 5.9617 74.2791 5.45564 73.0291 5.44507" stroke="#CCC9C4" stroke-width="2" stroke-miterlimit="10" stroke-linecap="round"/>
</svg>
