<svg width="89" height="115" viewBox="0 0 89 115" fill="none" xmlns="http://www.w3.org/2000/svg">
<path d="M8.52902 112.581C8.0078 112.581 7.53656 112.485 7.1153 112.292C6.69404 112.099 6.33347 111.839 6.03359 111.51C5.73371 111.182 5.50523 110.811 5.34815 110.397C5.19107 109.975 5.11253 109.536 5.11253 109.079C5.11253 108.487 5.21249 107.962 5.41241 107.505C5.61947 107.048 5.89079 106.662 6.22637 106.348C6.56195 106.034 6.92966 105.798 7.3295 105.641C7.73648 105.477 8.13632 105.395 8.52902 105.395C9.06452 105.395 9.5429 105.491 9.96416 105.684C10.3926 105.877 10.7567 106.138 11.0566 106.466C11.3565 106.794 11.5849 107.169 11.742 107.591C11.8991 108.005 11.9776 108.437 11.9776 108.886C11.9776 109.479 11.8741 110.004 11.6671 110.461C11.46 110.918 11.1851 111.303 10.8424 111.617C10.4997 111.932 10.1248 112.171 9.71783 112.335C9.31799 112.499 8.92172 112.581 8.52902 112.581ZM8.51831 112.11C9.02525 112.11 9.43937 111.96 9.76067 111.66C10.082 111.36 10.3176 110.968 10.4675 110.482C10.6246 109.99 10.7032 109.458 10.7032 108.886C10.7032 108.351 10.621 107.855 10.4568 107.398C10.2997 106.934 10.0606 106.562 9.73925 106.284C9.41795 105.998 9.01097 105.856 8.51831 105.856C8.01851 105.856 7.60796 106.005 7.28666 106.305C6.9725 106.598 6.74045 106.987 6.59051 107.473C6.44057 107.951 6.3656 108.476 6.3656 109.047C6.3656 109.583 6.44057 110.086 6.59051 110.557C6.74759 111.021 6.98678 111.396 7.30808 111.682C7.62938 111.967 8.03279 112.11 8.51831 112.11ZM12.9573 112.399C12.9073 112.399 12.8645 112.378 12.8288 112.335C12.8002 112.285 12.7859 112.235 12.7859 112.185C12.8002 112.078 12.8288 112.021 12.8716 112.014C12.9144 111.999 12.9716 111.992 13.043 111.992C13.2429 111.992 13.3785 111.96 13.4499 111.896C13.5213 111.825 13.5606 111.732 13.5677 111.617C13.582 111.503 13.5892 111.385 13.5892 111.264V108.811C13.5892 108.683 13.582 108.565 13.5677 108.458C13.5606 108.344 13.5213 108.255 13.4499 108.19C13.3785 108.119 13.2429 108.083 13.043 108.083C12.9787 108.083 12.918 108.076 12.8609 108.062C12.8109 108.04 12.7859 107.976 12.7859 107.869C12.7859 107.762 12.843 107.698 12.9573 107.676C13.2857 107.626 13.5356 107.576 13.707 107.526C13.8855 107.476 14.0176 107.433 14.1032 107.398C14.1961 107.362 14.2782 107.341 14.3496 107.333C14.4067 107.326 14.4531 107.337 14.4888 107.366C14.5316 107.394 14.5531 107.451 14.5531 107.537V108.212H14.5852C14.728 108.076 14.8744 107.948 15.0243 107.826C15.1742 107.698 15.3492 107.594 15.5491 107.516C15.7562 107.43 16.0096 107.387 16.3095 107.387C16.795 107.387 17.1806 107.533 17.4662 107.826C17.7518 108.119 17.8946 108.504 17.8946 108.983V111.264C17.8946 111.385 17.8982 111.503 17.9053 111.617C17.9196 111.732 17.9624 111.825 18.0338 111.896C18.1124 111.96 18.2516 111.992 18.4515 111.992C18.5158 111.992 18.5693 111.999 18.6122 112.014C18.6621 112.021 18.6907 112.078 18.6978 112.185C18.6978 112.235 18.6836 112.285 18.655 112.335C18.6264 112.378 18.5836 112.399 18.5265 112.399C18.3194 112.385 18.1266 112.374 17.9481 112.367C17.7768 112.367 17.5947 112.367 17.4019 112.367C17.2091 112.367 17.0271 112.367 16.8557 112.367C16.6844 112.374 16.4951 112.385 16.2881 112.399C16.2381 112.399 16.1953 112.378 16.1596 112.335C16.131 112.285 16.1167 112.235 16.1167 112.185C16.1239 112.078 16.1489 112.021 16.1917 112.014C16.2417 111.999 16.2988 111.992 16.3631 111.992C16.563 111.992 16.6986 111.96 16.77 111.896C16.8486 111.825 16.8914 111.732 16.8986 111.617C16.9128 111.503 16.92 111.385 16.92 111.264V108.994C16.92 108.758 16.8664 108.565 16.7593 108.415C16.6594 108.265 16.5308 108.155 16.3738 108.083C16.2167 108.012 16.056 107.976 15.8918 107.976C15.6491 107.976 15.4349 108.022 15.2492 108.115C15.0636 108.201 14.9136 108.301 14.7994 108.415C14.6852 108.529 14.6066 108.629 14.5638 108.715V111.264C14.5638 111.385 14.5673 111.503 14.5745 111.617C14.5888 111.732 14.6316 111.825 14.703 111.896C14.7815 111.96 14.9208 111.992 15.1207 111.992C15.185 111.992 15.2385 111.999 15.2813 112.014C15.3313 112.021 15.3599 112.078 15.367 112.185C15.367 112.235 15.3527 112.285 15.3242 112.335C15.2956 112.378 15.2528 112.399 15.1957 112.399C14.9886 112.385 14.7958 112.374 14.6173 112.367C14.446 112.367 14.2639 112.367 14.0711 112.367C13.8783 112.367 13.6963 112.367 13.5249 112.367C13.3535 112.374 13.1643 112.385 12.9573 112.399ZM19.2615 112.399C19.2115 112.399 19.1687 112.378 19.133 112.335C19.1044 112.285 19.0902 112.235 19.0902 112.185C19.0973 112.078 19.1223 112.021 19.1651 112.014C19.2151 111.999 19.2722 111.992 19.3365 111.992C19.5364 111.992 19.6721 111.96 19.7435 111.896C19.822 111.825 19.8649 111.732 19.872 111.617C19.8863 111.503 19.8934 111.385 19.8934 111.264V106.038C19.8934 105.909 19.8863 105.791 19.872 105.684C19.8649 105.57 19.8256 105.481 19.7542 105.416C19.6828 105.345 19.5471 105.309 19.3472 105.309C19.2829 105.309 19.2223 105.302 19.1651 105.288C19.1152 105.266 19.0902 105.202 19.0902 105.095C19.0902 104.988 19.1473 104.924 19.2615 104.902C19.59 104.852 19.8399 104.802 20.0112 104.752C20.1897 104.702 20.3254 104.66 20.4182 104.624C20.511 104.588 20.5931 104.567 20.6645 104.56C20.7217 104.552 20.7681 104.563 20.8038 104.592C20.8466 104.62 20.868 104.677 20.868 104.763V111.264C20.868 111.385 20.8716 111.503 20.8787 111.617C20.893 111.732 20.9359 111.825 21.0073 111.896C21.0858 111.96 21.225 111.992 21.4249 111.992C21.4892 111.992 21.5428 111.999 21.5856 112.014C21.6356 112.021 21.6641 112.078 21.6713 112.185C21.6713 112.235 21.657 112.285 21.6284 112.335C21.5999 112.378 21.557 112.399 21.4999 112.399C21.2929 112.385 21.1001 112.374 20.9216 112.367C20.7502 112.367 20.5681 112.367 20.3754 112.367C20.1826 112.367 20.0005 112.367 19.8292 112.367C19.6578 112.374 19.4686 112.385 19.2615 112.399ZM22.4331 112.399C22.3831 112.399 22.3403 112.378 22.3046 112.335C22.276 112.285 22.2618 112.235 22.2618 112.185C22.276 112.078 22.3046 112.021 22.3474 112.014C22.3903 111.999 22.4474 111.992 22.5188 111.992C22.7187 111.992 22.8544 111.96 22.9258 111.896C22.9972 111.825 23.0364 111.732 23.0436 111.617C23.0579 111.503 23.065 111.385 23.065 111.264V108.811C23.065 108.683 23.0579 108.565 23.0436 108.458C23.0364 108.344 22.9972 108.255 22.9258 108.19C22.8544 108.119 22.7187 108.083 22.5188 108.083C22.4545 108.083 22.3938 108.076 22.3367 108.062C22.2867 108.04 22.2618 107.976 22.2618 107.869C22.2618 107.762 22.3189 107.698 22.4331 107.676C22.7616 107.626 23.0115 107.576 23.1828 107.526C23.3613 107.476 23.497 107.433 23.5898 107.398C23.6826 107.362 23.7647 107.341 23.8361 107.333C23.8932 107.326 23.9397 107.337 23.9754 107.366C24.0182 107.394 24.0396 107.451 24.0396 107.537V111.264C24.0396 111.385 24.0432 111.503 24.0503 111.617C24.0646 111.732 24.1074 111.825 24.1788 111.896C24.2574 111.96 24.3966 111.992 24.5965 111.992C24.6608 111.992 24.7143 111.999 24.7572 112.014C24.8072 112.021 24.8357 112.078 24.8429 112.185C24.8429 112.235 24.8286 112.285 24.8 112.335C24.7715 112.378 24.7286 112.399 24.6715 112.399C24.4644 112.385 24.2717 112.374 24.0932 112.367C23.9218 112.367 23.7397 112.367 23.547 112.367C23.3542 112.367 23.1721 112.367 23.0007 112.367C22.8294 112.374 22.6402 112.385 22.4331 112.399ZM23.4934 106.145C23.2935 106.145 23.1257 106.084 22.99 105.963C22.8544 105.834 22.7865 105.677 22.7865 105.491C22.7865 105.327 22.8687 105.181 23.0329 105.052C23.1971 104.924 23.3827 104.859 23.5898 104.859C23.7683 104.859 23.9147 104.924 24.0289 105.052C24.1431 105.174 24.2003 105.331 24.2003 105.523C24.2003 105.695 24.1324 105.841 23.9968 105.963C23.8611 106.084 23.6933 106.145 23.4934 106.145ZM25.5499 112.399C25.4999 112.399 25.4571 112.378 25.4214 112.335C25.3928 112.285 25.3785 112.235 25.3785 112.185C25.3928 112.078 25.4214 112.021 25.4642 112.014C25.507 111.999 25.5642 111.992 25.6356 111.992C25.8355 111.992 25.9711 111.96 26.0425 111.896C26.1139 111.825 26.1532 111.732 26.1604 111.617C26.1746 111.503 26.1818 111.385 26.1818 111.264V108.811C26.1818 108.683 26.1746 108.565 26.1604 108.458C26.1532 108.344 26.1139 108.255 26.0425 108.19C25.9711 108.119 25.8355 108.083 25.6356 108.083C25.5713 108.083 25.5106 108.076 25.4535 108.062C25.4035 108.04 25.3785 107.976 25.3785 107.869C25.3785 107.762 25.4356 107.698 25.5499 107.676C25.8783 107.626 26.1282 107.576 26.2996 107.526C26.4781 107.476 26.6102 107.433 26.6959 107.398C26.7887 107.362 26.8708 107.341 26.9422 107.333C26.9993 107.326 27.0457 107.337 27.0814 107.366C27.1243 107.394 27.1457 107.451 27.1457 107.537V108.212H27.1778C27.3206 108.076 27.467 107.948 27.6169 107.826C27.7669 107.698 27.9418 107.594 28.1417 107.516C28.3488 107.43 28.6022 107.387 28.9021 107.387C29.3876 107.387 29.7732 107.533 30.0588 107.826C30.3444 108.119 30.4872 108.504 30.4872 108.983V111.264C30.4872 111.385 30.4908 111.503 30.4979 111.617C30.5122 111.732 30.555 111.825 30.6264 111.896C30.705 111.96 30.8442 111.992 31.0441 111.992C31.1084 111.992 31.1619 111.999 31.2048 112.014C31.2547 112.021 31.2833 112.078 31.2904 112.185C31.2904 112.235 31.2762 112.285 31.2476 112.335C31.219 112.378 31.1762 112.399 31.1191 112.399C30.912 112.385 30.7192 112.374 30.5407 112.367C30.3694 112.367 30.1873 112.367 29.9945 112.367C29.8018 112.367 29.6197 112.367 29.4483 112.367C29.277 112.374 29.0878 112.385 28.8807 112.399C28.8307 112.399 28.7879 112.378 28.7522 112.335C28.7236 112.285 28.7093 112.235 28.7093 112.185C28.7165 112.078 28.7415 112.021 28.7843 112.014C28.8343 111.999 28.8914 111.992 28.9557 111.992C29.1556 111.992 29.2912 111.96 29.3626 111.896C29.4412 111.825 29.484 111.732 29.4912 111.617C29.5054 111.503 29.5126 111.385 29.5126 111.264V108.994C29.5126 108.758 29.459 108.565 29.3519 108.415C29.252 108.265 29.1235 108.155 28.9664 108.083C28.8093 108.012 28.6486 107.976 28.4844 107.976C28.2417 107.976 28.0275 108.022 27.8418 108.115C27.6562 108.201 27.5062 108.301 27.392 108.415C27.2778 108.529 27.1992 108.629 27.1564 108.715V111.264C27.1564 111.385 27.16 111.503 27.1671 111.617C27.1814 111.732 27.2242 111.825 27.2956 111.896C27.3742 111.96 27.5134 111.992 27.7133 111.992C27.7776 111.992 27.8311 111.999 27.874 112.014C27.9239 112.021 27.9525 112.078 27.9596 112.185C27.9596 112.235 27.9454 112.285 27.9168 112.335C27.8882 112.378 27.8454 112.399 27.7883 112.399C27.5812 112.385 27.3884 112.374 27.2099 112.367C27.0386 112.367 26.8565 112.367 26.6637 112.367C26.4709 112.367 26.2889 112.367 26.1175 112.367C25.9462 112.374 25.7569 112.385 25.5499 112.399ZM34.3399 112.496C33.7901 112.496 33.326 112.378 32.9476 112.142C32.5763 111.907 32.2978 111.592 32.1122 111.2C31.9266 110.807 31.8337 110.379 31.8337 109.915C31.8337 109.6 31.8873 109.297 31.9944 109.004C32.1086 108.704 32.2693 108.433 32.4763 108.19C32.6834 107.94 32.9333 107.744 33.226 107.601C33.5188 107.458 33.8508 107.387 34.2221 107.387C34.8789 107.387 35.3716 107.558 35.7 107.901C36.0356 108.237 36.2284 108.665 36.2784 109.186C36.2784 109.436 36.207 109.6 36.0642 109.679C35.9285 109.758 35.75 109.797 35.5287 109.797H32.9262C32.9262 110.211 32.9833 110.582 33.0975 110.911C33.2118 111.232 33.3903 111.489 33.633 111.682C33.8829 111.867 34.2114 111.96 34.6183 111.96C34.9182 111.96 35.1753 111.896 35.3895 111.767C35.6037 111.639 35.8107 111.414 36.0106 111.093C36.0678 111.021 36.1463 111.018 36.2463 111.082C36.3034 111.111 36.3391 111.157 36.3534 111.221C36.3676 111.278 36.3605 111.328 36.3319 111.371C36.1106 111.721 35.8321 111.996 35.4966 112.196C35.161 112.396 34.7754 112.496 34.3399 112.496ZM32.9262 109.39H34.6719C34.8432 109.39 34.9789 109.358 35.0789 109.293C35.186 109.222 35.2431 109.104 35.2502 108.94C35.2502 108.633 35.1645 108.362 34.9932 108.126C34.829 107.883 34.5719 107.762 34.2221 107.762C33.8651 107.762 33.5652 107.905 33.3224 108.19C33.0868 108.476 32.9547 108.876 32.9262 109.39ZM42.9894 112.581C42.3896 112.581 41.8398 112.439 41.34 112.153C40.8402 111.867 40.4368 111.46 40.1298 110.932C39.8299 110.404 39.68 109.772 39.68 109.036C39.68 108.308 39.8228 107.673 40.1084 107.13C40.394 106.58 40.7974 106.155 41.3186 105.856C41.847 105.548 42.4681 105.395 43.1821 105.395C43.4392 105.395 43.7034 105.42 43.9747 105.47C44.2531 105.52 44.5102 105.606 44.7458 105.727C44.9814 105.841 45.1706 105.995 45.3134 106.188C45.4634 106.38 45.5383 106.619 45.5383 106.905C45.5455 107.212 45.4527 107.483 45.2599 107.719C45.0671 107.948 44.7958 108.062 44.4459 108.062C44.2317 108.062 44.0782 108.012 43.9854 107.912C43.8997 107.805 43.8604 107.726 43.8676 107.676C43.8676 107.655 43.9104 107.619 43.9961 107.569C44.0889 107.512 44.1782 107.43 44.2639 107.323C44.3567 107.209 44.4031 107.059 44.4031 106.873C44.4031 106.552 44.296 106.298 44.0818 106.113C43.8676 105.92 43.5641 105.823 43.1714 105.823C42.743 105.823 42.3575 105.945 42.0148 106.188C41.6792 106.43 41.415 106.787 41.2222 107.259C41.0294 107.723 40.933 108.294 40.933 108.972C40.933 109.543 41.033 110.065 41.2329 110.536C41.44 111 41.7256 111.371 42.0897 111.65C42.461 111.921 42.8894 112.057 43.3749 112.057C43.7605 112.057 44.0889 111.978 44.3602 111.821C44.6387 111.657 44.8886 111.396 45.1099 111.039C45.1742 110.918 45.2884 110.907 45.4527 111.007C45.5169 111.05 45.5669 111.103 45.6026 111.168C45.6383 111.225 45.6312 111.285 45.5812 111.35C45.3099 111.692 45.0528 111.953 44.8101 112.132C44.5673 112.303 44.3031 112.421 44.0175 112.485C43.7319 112.549 43.3892 112.581 42.9894 112.581ZM48.8462 112.496C48.3464 112.496 47.9073 112.378 47.5289 112.142C47.1576 111.907 46.8684 111.6 46.6614 111.221C46.4543 110.843 46.3508 110.439 46.3508 110.011C46.3508 109.59 46.4258 109.215 46.5757 108.886C46.7256 108.558 46.922 108.283 47.1648 108.062C47.4147 107.84 47.686 107.673 47.9787 107.558C48.2715 107.444 48.5606 107.387 48.8462 107.387C49.346 107.387 49.7816 107.505 50.1529 107.74C50.5313 107.976 50.824 108.283 51.0311 108.662C51.2381 109.04 51.3417 109.443 51.3417 109.872C51.3417 110.293 51.2631 110.668 51.106 110.996C50.9561 111.325 50.7562 111.6 50.5063 111.821C50.2635 112.042 49.9958 112.21 49.703 112.324C49.4103 112.439 49.1247 112.496 48.8462 112.496ZM48.8462 112.099C49.1961 112.099 49.471 111.996 49.6709 111.789C49.878 111.582 50.0243 111.31 50.11 110.975C50.2028 110.632 50.2492 110.264 50.2492 109.872C50.2492 109.493 50.2028 109.147 50.11 108.833C50.0172 108.519 49.8672 108.265 49.6602 108.072C49.4531 107.88 49.1818 107.783 48.8462 107.783C48.4964 107.783 48.2179 107.887 48.0108 108.094C47.8038 108.294 47.6574 108.562 47.5717 108.897C47.4861 109.226 47.4432 109.59 47.4432 109.99C47.4432 110.361 47.4861 110.707 47.5717 111.028C47.6646 111.35 47.8145 111.61 48.0216 111.81C48.2286 112.003 48.5035 112.099 48.8462 112.099ZM54.114 112.496C53.5642 112.496 53.1037 112.399 52.7324 112.207C52.3682 112.007 52.1862 111.721 52.1862 111.35C52.1862 111.143 52.2469 110.975 52.3682 110.846C52.4968 110.718 52.661 110.654 52.8609 110.654C52.9894 110.654 53.0929 110.689 53.1715 110.761C53.2572 110.825 53.3 110.871 53.3 110.9C53.3 110.921 53.2572 110.971 53.1715 111.05C53.0929 111.121 53.0537 111.239 53.0537 111.403C53.0537 111.603 53.1465 111.771 53.3321 111.907C53.5249 112.035 53.8141 112.099 54.1996 112.099C54.5352 112.099 54.7958 112.028 54.9815 111.885C55.1743 111.735 55.2706 111.528 55.2706 111.264C55.2706 111.05 55.1992 110.886 55.0564 110.771C54.9208 110.65 54.7423 110.554 54.5209 110.482C54.3067 110.411 54.0747 110.339 53.8248 110.268C53.582 110.197 53.35 110.107 53.1286 110C52.9073 109.893 52.7252 109.747 52.5824 109.561C52.4468 109.368 52.3789 109.115 52.3789 108.801C52.3789 108.479 52.4753 108.215 52.6681 108.008C52.8609 107.801 53.1072 107.648 53.4071 107.548C53.707 107.441 54.0104 107.387 54.3175 107.387C54.5816 107.387 54.8315 107.426 55.0672 107.505C55.3028 107.576 55.4956 107.687 55.6455 107.837C55.8026 107.987 55.8811 108.176 55.8811 108.404C55.8811 108.583 55.824 108.744 55.7098 108.886C55.5955 109.029 55.4384 109.101 55.2385 109.101C55.11 109.101 55.0029 109.069 54.9172 109.004C54.8387 108.933 54.7994 108.883 54.7994 108.854C54.7994 108.84 54.8244 108.815 54.8744 108.779C54.9315 108.736 54.985 108.683 55.035 108.619C55.085 108.547 55.11 108.458 55.11 108.351C55.0957 108.144 54.9958 107.99 54.8101 107.89C54.6245 107.79 54.4174 107.74 54.1889 107.74C53.939 107.74 53.707 107.801 53.4928 107.923C53.2786 108.044 53.1715 108.219 53.1715 108.447C53.1715 108.654 53.2143 108.815 53.3 108.929C53.3928 109.044 53.5356 109.143 53.7284 109.229C53.9283 109.308 54.1854 109.397 54.4995 109.497C54.8137 109.597 55.0886 109.7 55.3242 109.807C55.567 109.915 55.7526 110.057 55.8811 110.236C56.0168 110.407 56.0846 110.643 56.0846 110.943C56.0846 111.243 55.9989 111.51 55.8276 111.746C55.6562 111.982 55.4206 112.167 55.1207 112.303C54.828 112.431 54.4924 112.496 54.114 112.496ZM57.0631 112.399C57.0131 112.399 56.9702 112.378 56.9345 112.335C56.906 112.285 56.8917 112.235 56.8917 112.185C56.8988 112.078 56.9238 112.021 56.9667 112.014C57.0167 111.999 57.0738 111.992 57.138 111.992C57.338 111.992 57.4736 111.96 57.545 111.896C57.6236 111.825 57.6664 111.732 57.6735 111.617C57.6878 111.503 57.695 111.385 57.695 111.264V108.811C57.695 108.683 57.6878 108.565 57.6735 108.458C57.6664 108.344 57.6271 108.255 57.5557 108.19C57.4843 108.119 57.3487 108.083 57.1487 108.083C57.0845 108.083 57.0238 108.076 56.9667 108.062C56.9167 108.04 56.8917 107.976 56.8917 107.869C56.8917 107.762 56.9488 107.698 57.0631 107.676C57.3915 107.626 57.6414 107.576 57.8128 107.526C57.9913 107.476 58.1234 107.433 58.209 107.398C58.3019 107.362 58.384 107.341 58.4554 107.333C58.5125 107.326 58.5589 107.337 58.5946 107.366C58.6374 107.394 58.6589 107.451 58.6589 107.537V108.212H58.691C58.8338 108.076 58.973 107.948 59.1087 107.826C59.2443 107.698 59.4086 107.594 59.6013 107.516C59.7941 107.43 60.0404 107.387 60.3403 107.387C60.6902 107.387 60.9901 107.462 61.24 107.612C61.4899 107.755 61.6719 107.955 61.7862 108.212H61.8076C61.9504 108.076 62.1003 107.948 62.2574 107.826C62.4145 107.698 62.6001 107.594 62.8143 107.516C63.0285 107.43 63.2856 107.387 63.5855 107.387C64.071 107.387 64.4565 107.533 64.7421 107.826C65.0277 108.119 65.1705 108.504 65.1705 108.983V111.264C65.1705 111.385 65.1741 111.503 65.1812 111.617C65.1955 111.732 65.2384 111.825 65.3098 111.896C65.3883 111.96 65.5275 111.992 65.7275 111.992C65.7917 111.992 65.8453 111.999 65.8881 112.014C65.9381 112.021 65.9666 112.078 65.9738 112.185C65.9738 112.235 65.9595 112.285 65.9309 112.335C65.9024 112.378 65.8595 112.399 65.8024 112.399C65.5954 112.385 65.4026 112.374 65.2241 112.367C65.0527 112.367 64.8707 112.367 64.6779 112.367C64.4851 112.367 64.303 112.367 64.1317 112.367C63.9603 112.374 63.7711 112.385 63.564 112.399C63.5069 112.399 63.4641 112.378 63.4355 112.335C63.407 112.285 63.3927 112.235 63.3927 112.185C63.3998 112.078 63.4248 112.021 63.4676 112.014C63.5176 111.999 63.5747 111.992 63.639 111.992C63.8389 111.992 63.9746 111.96 64.046 111.896C64.1245 111.825 64.1674 111.732 64.1745 111.617C64.1888 111.503 64.1959 111.385 64.1959 111.264V108.994C64.1959 108.758 64.1424 108.565 64.0353 108.415C63.9353 108.265 63.8068 108.155 63.6497 108.083C63.4926 108.012 63.332 107.976 63.1678 107.976C62.925 107.976 62.7179 108.022 62.5466 108.115C62.3752 108.201 62.2396 108.301 62.1396 108.415C62.0396 108.529 61.9682 108.629 61.9254 108.715V111.264C61.9254 111.385 61.9254 111.503 61.9254 111.617C61.9325 111.732 61.9682 111.825 62.0325 111.896C62.1039 111.96 62.2396 111.992 62.4395 111.992C62.5109 111.992 62.568 111.999 62.6108 112.014C62.6537 112.021 62.6787 112.078 62.6858 112.185C62.6858 112.235 62.6715 112.285 62.643 112.335C62.6144 112.378 62.5716 112.399 62.5145 112.399C62.3074 112.385 62.1218 112.374 61.9575 112.367C61.7933 112.367 61.6148 112.367 61.422 112.367C61.2364 112.367 61.0615 112.367 60.8972 112.367C60.7402 112.374 60.5581 112.385 60.351 112.399C60.2939 112.399 60.2511 112.378 60.2225 112.335C60.194 112.285 60.1797 112.235 60.1797 112.185C60.1868 112.078 60.2118 112.021 60.2546 112.014C60.2975 111.999 60.3546 111.992 60.426 111.992C60.6259 111.992 60.758 111.96 60.8223 111.896C60.8937 111.825 60.9294 111.732 60.9294 111.617C60.9365 111.503 60.9401 111.385 60.9401 111.264V108.994C60.9401 108.637 60.833 108.379 60.6188 108.222C60.4046 108.058 60.1725 107.976 59.9226 107.976C59.6727 107.976 59.4621 108.022 59.2907 108.115C59.1194 108.201 58.9837 108.301 58.8838 108.415C58.7838 108.529 58.7124 108.629 58.6696 108.715V111.264C58.6696 111.385 58.6731 111.503 58.6803 111.617C58.6946 111.732 58.7374 111.825 58.8088 111.896C58.8873 111.96 59.0266 111.992 59.2265 111.992C59.2907 111.992 59.3443 111.999 59.3871 112.014C59.4371 112.021 59.4657 112.078 59.4728 112.185C59.4728 112.235 59.4585 112.285 59.43 112.335C59.4014 112.378 59.3586 112.399 59.3015 112.399C59.0944 112.385 58.9016 112.374 58.7231 112.367C58.5518 112.367 58.3697 112.367 58.1769 112.367C57.9841 112.367 57.8021 112.367 57.6307 112.367C57.4593 112.374 57.2701 112.385 57.0631 112.399ZM69.0323 112.496C68.4825 112.496 68.0184 112.378 67.64 112.142C67.2687 111.907 66.9903 111.592 66.8046 111.2C66.619 110.807 66.5262 110.379 66.5262 109.915C66.5262 109.6 66.5797 109.297 66.6868 109.004C66.8011 108.704 66.9617 108.433 67.1688 108.19C67.3758 107.94 67.6257 107.744 67.9185 107.601C68.2112 107.458 68.5432 107.387 68.9145 107.387C69.5714 107.387 70.0641 107.558 70.3925 107.901C70.7281 108.237 70.9209 108.665 70.9708 109.186C70.9708 109.436 70.8994 109.6 70.7566 109.679C70.621 109.758 70.4425 109.797 70.2211 109.797H67.6186C67.6186 110.211 67.6757 110.582 67.79 110.911C67.9042 111.232 68.0827 111.489 68.3255 111.682C68.5754 111.867 68.9038 111.96 69.3108 111.96C69.6107 111.96 69.8677 111.896 70.0819 111.767C70.2961 111.639 70.5032 111.414 70.7031 111.093C70.7602 111.021 70.8387 111.018 70.9387 111.082C70.9958 111.111 71.0315 111.157 71.0458 111.221C71.0601 111.278 71.0529 111.328 71.0244 111.371C70.803 111.721 70.5246 111.996 70.189 112.196C69.8534 112.396 69.4679 112.496 69.0323 112.496ZM67.6186 109.39H69.3643C69.5357 109.39 69.6714 109.358 69.7713 109.293C69.8784 109.222 69.9355 109.104 69.9427 108.94C69.9427 108.633 69.857 108.362 69.6856 108.126C69.5214 107.883 69.2644 107.762 68.9145 107.762C68.5575 107.762 68.2576 107.905 68.0149 108.19C67.7793 108.476 67.6472 108.876 67.6186 109.39ZM73.7763 112.549C73.5621 112.549 73.3587 112.496 73.1659 112.389C72.9731 112.282 72.8124 112.117 72.6839 111.896C72.5625 111.675 72.5019 111.396 72.5019 111.061V107.912L71.8807 107.933C71.8307 107.933 71.7914 107.915 71.7629 107.88C71.7414 107.837 71.7307 107.79 71.7307 107.74C71.7307 107.598 71.7807 107.516 71.8807 107.494C72.1449 107.444 72.3448 107.362 72.4804 107.248C72.6161 107.126 72.7196 106.984 72.791 106.819C72.8696 106.655 72.941 106.477 73.0052 106.284C73.0266 106.227 73.0588 106.191 73.1016 106.177C73.1445 106.155 73.1909 106.145 73.2408 106.145C73.2837 106.145 73.3301 106.155 73.3801 106.177C73.4372 106.198 73.4658 106.237 73.4658 106.295L73.3908 107.516L74.6439 107.441C74.7081 107.433 74.751 107.451 74.7724 107.494C74.7938 107.537 74.8045 107.587 74.8045 107.644C74.8045 107.715 74.7902 107.787 74.7617 107.858C74.7402 107.93 74.7117 107.965 74.676 107.965L73.4765 107.933V111.189C73.4765 111.396 73.5193 111.585 73.605 111.757C73.6978 111.928 73.862 112.014 74.0976 112.014C74.1762 112.014 74.2654 112.007 74.3654 111.992C74.4654 111.978 74.5725 111.946 74.6867 111.896C74.7153 111.882 74.7438 111.871 74.7724 111.864C74.8009 111.85 74.8295 111.842 74.8581 111.842C74.9152 111.842 74.958 111.867 74.9866 111.917C75.0151 111.96 75.0401 112.007 75.0616 112.057C75.083 112.121 75.0651 112.171 75.008 112.207C74.7867 112.349 74.5832 112.442 74.3975 112.485C74.2119 112.528 74.0048 112.549 73.7763 112.549ZM76.0459 112.399C75.9959 112.399 75.953 112.378 75.9173 112.335C75.8888 112.285 75.8745 112.235 75.8745 112.185C75.8888 112.078 75.9173 112.021 75.9602 112.014C76.003 111.999 76.0601 111.992 76.1315 111.992C76.3315 111.992 76.4671 111.96 76.5385 111.896C76.6099 111.825 76.6492 111.732 76.6563 111.617C76.6706 111.503 76.6778 111.385 76.6778 111.264V108.811C76.6778 108.683 76.6706 108.565 76.6563 108.458C76.6492 108.344 76.6099 108.255 76.5385 108.19C76.4671 108.119 76.3315 108.083 76.1315 108.083C76.0673 108.083 76.0066 108.076 75.9495 108.062C75.8995 108.04 75.8745 107.976 75.8745 107.869C75.8745 107.762 75.9316 107.698 76.0459 107.676C76.3743 107.626 76.6242 107.576 76.7956 107.526C76.9741 107.476 77.1097 107.433 77.2025 107.398C77.2954 107.362 77.3775 107.341 77.4489 107.333C77.506 107.326 77.5524 107.337 77.5881 107.366C77.6309 107.394 77.6524 107.451 77.6524 107.537V111.264C77.6524 111.385 77.6559 111.503 77.6631 111.617C77.6774 111.732 77.7202 111.825 77.7916 111.896C77.8701 111.96 78.0094 111.992 78.2093 111.992C78.2735 111.992 78.3271 111.999 78.3699 112.014C78.4199 112.021 78.4485 112.078 78.4556 112.185C78.4556 112.235 78.4413 112.285 78.4128 112.335C78.3842 112.378 78.3414 112.399 78.2843 112.399C78.0772 112.385 77.8844 112.374 77.7059 112.367C77.5346 112.367 77.3525 112.367 77.1597 112.367C76.9669 112.367 76.7849 112.367 76.6135 112.367C76.4421 112.374 76.2529 112.385 76.0459 112.399ZM77.1062 106.145C76.9062 106.145 76.7384 106.084 76.6028 105.963C76.4671 105.834 76.3993 105.677 76.3993 105.491C76.3993 105.327 76.4814 105.181 76.6456 105.052C76.8098 104.924 76.9955 104.859 77.2025 104.859C77.381 104.859 77.5274 104.924 77.6417 105.052C77.7559 105.174 77.813 105.331 77.813 105.523C77.813 105.695 77.7452 105.841 77.6095 105.963C77.4739 106.084 77.3061 106.145 77.1062 106.145ZM81.3908 112.496C80.6554 112.496 80.0806 112.264 79.6665 111.8C79.2595 111.328 79.056 110.707 79.056 109.936C79.0775 109.443 79.1988 109.008 79.4202 108.629C79.6487 108.251 79.9485 107.955 80.3198 107.74C80.6982 107.519 81.1159 107.401 81.5729 107.387C81.8228 107.387 82.0763 107.419 82.3333 107.483C82.5975 107.541 82.8153 107.651 82.9866 107.815C83.1651 107.973 83.2544 108.201 83.2544 108.501C83.2544 108.708 83.1901 108.901 83.0616 109.079C82.9331 109.251 82.7546 109.336 82.5261 109.336C82.369 109.336 82.2476 109.297 82.1619 109.218C82.0763 109.14 82.0334 109.083 82.0334 109.047C82.0334 109.033 82.062 109.004 82.1191 108.961C82.1834 108.911 82.2441 108.847 82.3012 108.769C82.3583 108.683 82.3869 108.579 82.3869 108.458C82.3869 108.23 82.3047 108.062 82.1405 107.955C81.9763 107.848 81.7907 107.79 81.5836 107.783C81.2694 107.783 81.016 107.848 80.8232 107.976C80.6376 108.105 80.4948 108.276 80.3948 108.49C80.2948 108.697 80.227 108.926 80.1913 109.176C80.1627 109.426 80.1485 109.668 80.1485 109.904C80.1485 110.297 80.2092 110.65 80.3305 110.964C80.4519 111.271 80.6233 111.514 80.8446 111.692C81.066 111.871 81.3301 111.96 81.6372 111.96C81.9513 111.96 82.2155 111.892 82.4297 111.757C82.6439 111.621 82.8402 111.421 83.0187 111.157C83.0687 111.086 83.1437 111.078 83.2437 111.136C83.2936 111.164 83.3293 111.203 83.3508 111.253C83.3722 111.303 83.365 111.353 83.3293 111.403C83.0937 111.739 82.801 112.007 82.4511 112.207C82.1013 112.399 81.7478 112.496 81.3908 112.496ZM86.0348 112.496C85.485 112.496 85.0245 112.399 84.6532 112.207C84.2891 112.007 84.107 111.721 84.107 111.35C84.107 111.143 84.1677 110.975 84.2891 110.846C84.4176 110.718 84.5818 110.654 84.7817 110.654C84.9102 110.654 85.0138 110.689 85.0923 110.761C85.178 110.825 85.2208 110.871 85.2208 110.9C85.2208 110.921 85.178 110.971 85.0923 111.05C85.0138 111.121 84.9745 111.239 84.9745 111.403C84.9745 111.603 85.0673 111.771 85.253 111.907C85.4457 112.035 85.7349 112.099 86.1205 112.099C86.456 112.099 86.7167 112.028 86.9023 111.885C87.0951 111.735 87.1915 111.528 87.1915 111.264C87.1915 111.05 87.1201 110.886 86.9773 110.771C86.8416 110.65 86.6631 110.554 86.4418 110.482C86.2276 110.411 85.9955 110.339 85.7456 110.268C85.5029 110.197 85.2708 110.107 85.0495 110C84.8281 109.893 84.6461 109.747 84.5033 109.561C84.3676 109.368 84.2998 109.115 84.2998 108.801C84.2998 108.479 84.3962 108.215 84.5889 108.008C84.7817 107.801 85.028 107.648 85.3279 107.548C85.6278 107.441 85.9313 107.387 86.2383 107.387C86.5025 107.387 86.7524 107.426 86.988 107.505C87.2236 107.576 87.4164 107.687 87.5663 107.837C87.7234 107.987 87.8019 108.176 87.8019 108.404C87.8019 108.583 87.7448 108.744 87.6306 108.886C87.5163 109.029 87.3593 109.101 87.1593 109.101C87.0308 109.101 86.9237 109.069 86.838 109.004C86.7595 108.933 86.7202 108.883 86.7202 108.854C86.7202 108.84 86.7452 108.815 86.7952 108.779C86.8523 108.736 86.9059 108.683 86.9558 108.619C87.0058 108.547 87.0308 108.458 87.0308 108.351C87.0165 108.144 86.9166 107.99 86.7309 107.89C86.5453 107.79 86.3382 107.74 86.1098 107.74C85.8599 107.74 85.6278 107.801 85.4136 107.923C85.1994 108.044 85.0923 108.219 85.0923 108.447C85.0923 108.654 85.1351 108.815 85.2208 108.929C85.3136 109.044 85.4564 109.143 85.6492 109.229C85.8491 109.308 86.1062 109.397 86.4203 109.497C86.7345 109.597 87.0094 109.7 87.245 109.807C87.4878 109.915 87.6734 110.057 87.8019 110.236C87.9376 110.407 88.0054 110.643 88.0054 110.943C88.0054 111.243 87.9197 111.51 87.7484 111.746C87.577 111.982 87.3414 112.167 87.0415 112.303C86.7488 112.431 86.4132 112.496 86.0348 112.496Z" fill="#CCC9C4"/>
<path d="M51.6193 39.5272C51.6193 51.1772 42.7893 60.6272 42.7893 60.6272C42.7893 60.6272 33.9593 51.1772 33.9593 39.5272C33.9593 27.8772 42.8293 18.4272 42.8293 18.4272C42.8293 18.4272 51.6193 27.8672 51.6193 39.5272Z" stroke="#CCC9C4" stroke-width="2.38" stroke-miterlimit="10"/>
<path d="M21.6192 38.4274C22.2547 33.7311 23.7497 29.1921 26.0292 25.0374C29.4215 27.5416 32.3836 30.5813 34.7992 34.0374" stroke="#CCC9C4" stroke-width="2.38" stroke-miterlimit="10"/>
<path d="M64.0392 38.4273C63.4041 33.7201 61.9056 29.1706 59.6191 25.0073C56.2268 27.5115 53.2647 30.5513 50.8492 34.0073" stroke="#CCC9C4" stroke-width="2.38" stroke-miterlimit="10"/>
<path d="M42.8292 30.5671L44.0192 73.5071H41.6392L42.8292 30.5671Z" fill="#CCC9C4"/>
<path d="M59.4293 67.6573C57.6531 64.7141 56.5593 61.4101 56.2283 57.9884C55.8972 54.5667 56.3374 51.1144 57.5165 47.8852C58.6955 44.6561 60.5834 41.7323 63.0412 39.3289C65.4991 36.9255 68.4645 35.1037 71.7193 33.9973" stroke="#CCC9C4" stroke-width="2.38" stroke-miterlimit="10"/>
<path d="M67.7192 43.3171C65.3527 46.9367 63.5772 50.9097 62.4592 55.0871C61.3684 59.2273 60.7512 63.4778 60.6192 67.7571L58.2492 67.5471C58.7904 63.1683 59.8236 58.8645 61.3292 54.7171C62.8433 50.6033 65 46.7555 67.7192 43.3171Z" fill="#CCC9C4"/>
<path d="M26.2292 67.6573C28.0054 64.7141 29.0992 61.4101 29.4303 57.9884C29.7613 54.5667 29.3211 51.1144 28.1421 47.8852C26.963 44.6561 25.0751 41.7323 22.6172 39.3289C20.1594 36.9255 17.194 35.1037 13.9392 33.9973" stroke="#CCC9C4" stroke-width="2.38" stroke-miterlimit="10"/>
<path d="M17.9392 43.3171C20.6584 46.7555 22.8151 50.6033 24.3292 54.7171C25.8348 58.8645 26.868 63.1683 27.4092 67.5471L25.0392 67.7571C24.9073 63.4778 24.2899 59.2273 23.1992 55.0871C22.0812 50.9097 20.3057 46.9367 17.9392 43.3171Z" fill="#CCC9C4"/>
<path d="M33.9992 22.5074C33.9992 22.7755 33.9199 23.0376 33.7713 23.2608C33.6227 23.484 33.4115 23.6583 33.1641 23.7618C32.9168 23.8653 32.6444 23.8934 32.3811 23.8425C32.1179 23.7916 31.8755 23.6641 31.6846 23.4759C31.4936 23.2877 31.3625 23.0472 31.3078 22.7847C31.2531 22.5223 31.2772 22.2495 31.3771 22.0006C31.4769 21.7518 31.6481 21.538 31.8691 21.3862C32.0901 21.2344 32.3511 21.1513 32.6192 21.1474C32.7995 21.1447 32.9785 21.1779 33.1458 21.2451C33.3131 21.3122 33.4654 21.412 33.5938 21.5386C33.7222 21.6651 33.8242 21.8159 33.8938 21.9823C33.9634 22.1486 33.9992 22.3271 33.9992 22.5074Z" stroke="#CCC9C4" stroke-width="1.19" stroke-miterlimit="10"/>
<path d="M53.8692 22.5072C53.8692 22.7762 53.7895 23.0391 53.64 23.2628C53.4906 23.4864 53.2782 23.6608 53.0297 23.7637C52.7812 23.8666 52.5077 23.8936 52.2439 23.8411C51.9801 23.7886 51.7378 23.6591 51.5476 23.4689C51.3574 23.2787 51.2278 23.0364 51.1753 22.7725C51.1229 22.5087 51.1498 22.2353 51.2527 21.9868C51.3557 21.7383 51.53 21.5259 51.7536 21.3764C51.9773 21.227 52.2402 21.1472 52.5092 21.1472C52.8699 21.1472 53.2158 21.2905 53.4709 21.5456C53.7259 21.8006 53.8692 22.1465 53.8692 22.5072Z" stroke="#CCC9C4" stroke-width="1.19" stroke-miterlimit="10"/>
<path d="M26.2193 68.6073C28.2003 66.1234 30.7156 64.1177 33.5782 62.7393C36.4407 61.3608 39.5771 60.645 42.7543 60.645C45.9315 60.645 49.0678 61.3608 51.9304 62.7393C54.7929 64.1177 57.3082 66.1234 59.2893 68.6073" stroke="#CCC9C4" stroke-width="2.38" stroke-miterlimit="10"/>
<path d="M64.1622 64.654C75.9482 52.8679 75.9483 33.759 64.1622 21.973C52.3762 10.187 33.2673 10.187 21.4813 21.973C9.69523 33.759 9.69524 52.8679 21.4813 64.654C33.2673 76.44 52.3762 76.44 64.1622 64.654Z" stroke="#CCC9C4" stroke-width="2.29" stroke-miterlimit="10"/>
<path d="M1.89914 96.995C1.7486 96.995 1.64323 96.9423 1.58302 96.8369C1.5228 96.7316 1.4927 96.6187 1.4927 96.4982C1.50775 96.2423 1.56796 96.0993 1.67334 96.0692C1.77871 96.0391 1.90666 96.024 2.0572 96.024C2.5389 96.024 2.87008 95.9413 3.05072 95.7757C3.24641 95.595 3.36684 95.3768 3.412 95.1208C3.45716 94.8499 3.47974 94.5714 3.47974 94.2854L3.5249 85.3211C3.5249 84.6136 3.40447 84.162 3.16362 83.9663C2.92276 83.7706 2.5389 83.6201 2.01204 83.5147C1.78624 83.4696 1.6357 83.4319 1.56044 83.4018C1.48517 83.3567 1.44754 83.2212 1.44754 82.9954C1.44754 82.7395 1.53786 82.604 1.7185 82.5889C1.89914 82.5588 2.10988 82.5438 2.35074 82.5438C3.19372 82.5438 3.87112 82.6115 4.38294 82.747C4.9098 82.8825 5.36893 83.1233 5.76032 83.4696C6.16676 83.8158 6.6033 84.305 7.06996 84.9373L13.2569 93.0661H13.3246L13.2795 85.3211C13.2795 85.0351 13.2569 84.7642 13.2117 84.5082C13.1666 84.2373 13.0461 84.019 12.8504 83.8534C12.6698 83.6728 12.3386 83.5825 11.8569 83.5825C11.7064 83.5825 11.5784 83.5674 11.4731 83.5373C11.3677 83.5072 11.2999 83.3642 11.2698 83.1083C11.2698 82.9879 11.2999 82.875 11.3602 82.7696C11.4354 82.6642 11.5408 82.6115 11.6763 82.6115C12.0074 82.6266 12.2709 82.6416 12.4666 82.6567C12.6773 82.6567 12.8805 82.6642 13.0762 82.6793C13.287 82.6793 13.5429 82.6793 13.844 82.6793C14.145 82.6793 14.3934 82.6793 14.5891 82.6793C14.7848 82.6642 14.9805 82.6567 15.1762 82.6567C15.3869 82.6416 15.6504 82.6266 15.9665 82.6115C16.117 82.6115 16.2224 82.6642 16.2826 82.7696C16.3428 82.875 16.3729 82.9879 16.3729 83.1083C16.3579 83.3642 16.2977 83.5072 16.1923 83.5373C16.102 83.5674 15.974 83.5825 15.8084 83.5825C15.3418 83.5825 15.0106 83.6728 14.8149 83.8534C14.6192 84.019 14.4988 84.2373 14.4536 84.5082C14.4235 84.7642 14.4009 85.0351 14.3859 85.3211L14.3407 96.7014C14.3257 96.8219 14.2504 96.8971 14.1149 96.9272C13.9945 96.9724 13.8816 96.995 13.7762 96.995C13.4902 96.995 13.2719 96.8971 13.1214 96.7014L4.60874 85.3211H4.541L4.58616 94.2854C4.60121 94.5714 4.62379 94.8499 4.6539 95.1208C4.69906 95.3768 4.81948 95.595 5.01518 95.7757C5.21087 95.9413 5.54204 96.024 6.0087 96.024C6.17428 96.024 6.30976 96.0391 6.41514 96.0692C6.52051 96.0993 6.58072 96.2423 6.59578 96.4982C6.59578 96.6187 6.55814 96.7316 6.48288 96.8369C6.42266 96.9423 6.32482 96.995 6.18934 96.995C5.87322 96.9799 5.60226 96.9649 5.37646 96.9498C5.16571 96.9498 4.95496 96.9423 4.74422 96.9272C4.54852 96.9272 4.30014 96.9272 3.99908 96.9272C3.69801 96.9272 3.44963 96.9272 3.25394 96.9272C3.0733 96.9423 2.88513 96.9498 2.68944 96.9498C2.49374 96.9649 2.23031 96.9799 1.89914 96.995ZM20.2353 97.1982C19.3171 97.1982 18.5795 96.9348 18.0225 96.4079C17.4806 95.881 17.2096 95.2488 17.2096 94.5112C17.2096 93.7435 17.4053 93.1413 17.7967 92.7048C18.2031 92.2682 18.73 91.9446 19.3773 91.7338C20.0396 91.5231 20.7547 91.3801 21.5224 91.3048C22.3052 91.2296 23.0654 91.1693 23.803 91.1242V89.3404C23.803 88.6329 23.6223 88.0834 23.2611 87.692C22.9148 87.2856 22.3202 87.0824 21.4772 87.0824C21.0557 87.0824 20.6568 87.2178 20.2805 87.4888C19.9192 87.7598 19.7386 88.1512 19.7386 88.663C19.7386 88.9038 19.7988 89.107 19.9192 89.2726C20.0396 89.4382 20.1601 89.5662 20.2805 89.6565C20.4009 89.7468 20.4611 89.807 20.4611 89.8371C20.4611 89.8973 20.3708 90.0102 20.1902 90.1758C20.0246 90.3264 19.7913 90.4016 19.4902 90.4016C19.0235 90.4016 18.6623 90.2285 18.4064 89.8823C18.1504 89.5361 18.0225 89.1522 18.0225 88.7307C18.0225 88.1587 18.1956 87.7071 18.5418 87.3759C18.9031 87.0447 19.3622 86.8039 19.9192 86.6533C20.4762 86.5028 21.0407 86.4275 21.6127 86.4275C22.2901 86.4275 22.9449 86.5103 23.5772 86.6759C24.2245 86.8415 24.7513 87.1576 25.1578 87.6243C25.5793 88.0909 25.79 88.7909 25.79 89.7242V94.9854C25.8051 95.1359 25.8427 95.3165 25.9029 95.5273C25.9631 95.738 26.076 95.9262 26.2416 96.0918C26.4223 96.2423 26.6631 96.3176 26.9642 96.3176C27.0695 96.3176 27.1523 96.3402 27.2126 96.3853C27.2728 96.4154 27.3029 96.5133 27.3029 96.6789C27.3029 96.8143 27.2276 96.9197 27.0771 96.995C26.9265 97.0703 26.7534 97.1229 26.5577 97.153C26.362 97.1832 26.1965 97.1982 26.061 97.1982C25.504 97.1982 25.0072 97.0401 24.5707 96.724C24.1341 96.3929 23.8782 95.9413 23.803 95.3692C23.4718 95.9714 22.975 96.4305 22.3127 96.7466C21.6654 97.0477 20.9729 97.1982 20.2353 97.1982ZM20.9579 95.9789C21.4697 95.9789 21.9364 95.8509 22.3579 95.595C22.7944 95.3391 23.1406 94.9929 23.3965 94.5563C23.6675 94.1047 23.803 93.608 23.803 93.0661V91.779C22.2525 91.8844 21.1461 92.1328 20.4837 92.5241C19.8214 92.9155 19.4902 93.5553 19.4902 94.4434C19.4902 95.4671 19.9794 95.9789 20.9579 95.9789ZM32.4769 97.3111C32.0253 97.3111 31.5962 97.1982 31.1898 96.9724C30.7834 96.7466 30.4447 96.4004 30.1737 95.9337C29.9178 95.4671 29.7898 94.88 29.7898 94.1725V87.534L28.4802 87.5791C28.3748 87.5791 28.292 87.5415 28.2318 87.4662C28.1867 87.3759 28.1641 87.2781 28.1641 87.1727C28.1641 86.8716 28.2695 86.6985 28.4802 86.6533C29.0372 86.548 29.4587 86.3749 29.7447 86.134C30.0307 85.8781 30.249 85.577 30.3995 85.2308C30.5651 84.8846 30.7156 84.5082 30.8511 84.1018C30.8963 83.9814 30.964 83.9061 31.0543 83.876C31.1446 83.8308 31.2425 83.8083 31.3479 83.8083C31.4382 83.8083 31.536 83.8308 31.6414 83.876C31.7618 83.9212 31.822 84.004 31.822 84.1244L31.664 86.6985L34.3058 86.5404C34.4413 86.5254 34.5316 86.563 34.5768 86.6533C34.622 86.7437 34.6445 86.849 34.6445 86.9695C34.6445 87.12 34.6144 87.2705 34.5542 87.4211C34.5091 87.5716 34.4489 87.6469 34.3736 87.6469L31.8446 87.5791V94.4434C31.8446 94.88 31.9349 95.2789 32.1156 95.6402C32.3113 96.0015 32.6575 96.1821 33.1543 96.1821C33.3199 96.1821 33.508 96.1671 33.7188 96.1369C33.9295 96.1068 34.1553 96.0391 34.3962 95.9337C34.4564 95.9036 34.5166 95.881 34.5768 95.866C34.637 95.8359 34.6972 95.8208 34.7574 95.8208C34.8779 95.8208 34.9682 95.8735 35.0284 95.9789C35.0886 96.0692 35.1413 96.1671 35.1865 96.2724C35.2316 96.4079 35.194 96.5133 35.0736 96.5885C34.6069 96.8896 34.1779 97.0853 33.7865 97.1756C33.3951 97.2659 32.9586 97.3111 32.4769 97.3111ZM41.5745 97.1982C40.5509 97.1982 39.738 96.8896 39.1358 96.2724C38.5337 95.6552 38.2326 94.8424 38.2326 93.8338V89.6565C38.2326 89.3855 38.2176 89.1371 38.1875 88.9113C38.1724 88.6705 38.0896 88.4823 37.9391 88.3468C37.7886 88.1963 37.5026 88.121 37.0811 88.121C36.9456 88.121 36.8176 88.106 36.6972 88.0759C36.5918 88.0307 36.5391 87.8952 36.5391 87.6694C36.5391 87.4436 36.6596 87.3082 36.9004 87.263C37.5929 87.1576 38.1197 87.0523 38.481 86.9469C38.8574 86.8415 39.1434 86.7512 39.3391 86.6759C39.5348 86.6007 39.7079 86.5555 39.8584 86.5404C39.9788 86.5254 40.0767 86.548 40.1519 86.6082C40.2423 86.6684 40.2874 86.7888 40.2874 86.9695V93.8112C40.2874 94.308 40.3928 94.7144 40.6035 95.0305C40.8293 95.3466 41.1078 95.58 41.439 95.7305C41.7702 95.881 42.1089 95.9563 42.4551 95.9563C42.982 95.9563 43.4411 95.866 43.8325 95.6853C44.2239 95.4897 44.54 95.2714 44.7808 95.0305C45.0217 94.7746 45.1798 94.5639 45.255 94.3983V89.6565C45.255 89.3855 45.24 89.1371 45.2099 88.9113C45.1948 88.6705 45.112 88.4823 44.9615 88.3468C44.811 88.1963 44.5249 88.121 44.1034 88.121C43.968 88.121 43.84 88.106 43.7196 88.0759C43.6142 88.0307 43.5615 87.8952 43.5615 87.6694C43.5615 87.4436 43.682 87.3082 43.9228 87.263C44.6153 87.1576 45.1421 87.0523 45.5034 86.9469C45.8797 86.8415 46.1658 86.7512 46.3614 86.6759C46.5571 86.6007 46.7303 86.5555 46.8808 86.5404C47.0012 86.5254 47.0991 86.548 47.1743 86.6082C47.2646 86.6684 47.3098 86.7888 47.3098 86.9695V94.7821C47.3098 95.6703 47.9044 96.1144 49.0936 96.1144C49.2592 96.1144 49.3646 96.1595 49.4097 96.2498C49.4549 96.3402 49.4775 96.438 49.4775 96.5434C49.4775 96.7541 49.3495 96.8821 49.0936 96.9272L45.4582 97.1756C45.3529 97.1756 45.2927 97.1305 45.2776 97.0401C45.2626 96.9498 45.255 96.8445 45.255 96.724V95.4595H45.2099C44.9239 95.7305 44.6153 96.0015 44.2841 96.2724C43.968 96.5434 43.5916 96.7617 43.1551 96.9272C42.7336 97.1079 42.2067 97.1982 41.5745 97.1982ZM50.7127 96.995C50.6073 96.995 50.517 96.9498 50.4417 96.8595C50.3815 96.7541 50.3514 96.6488 50.3514 96.5434C50.3815 96.3176 50.4417 96.1972 50.532 96.1821C50.6224 96.152 50.7428 96.1369 50.8933 96.1369C51.3148 96.1369 51.6008 96.0692 51.7514 95.9337C51.9019 95.7832 51.9847 95.5875 51.9997 95.3466C52.0299 95.1058 52.0449 94.8574 52.0449 94.6015V89.4307C52.0449 89.1597 52.0299 88.9113 51.9997 88.6855C51.9847 88.4447 51.9019 88.2565 51.7514 88.121C51.6008 87.9705 51.3148 87.8952 50.8933 87.8952C50.7578 87.8952 50.6299 87.8802 50.5095 87.8501C50.4041 87.8049 50.3514 87.6694 50.3514 87.4436C50.3514 87.2178 50.4718 87.0824 50.7127 87.0372C51.4051 86.9318 51.932 86.8265 52.2933 86.7211C52.6696 86.6157 52.9481 86.5254 53.1287 86.4501C53.3244 86.3749 53.4976 86.3297 53.6481 86.3146C53.7685 86.2996 53.8664 86.3222 53.9416 86.3824C54.0319 86.4426 54.0771 86.563 54.0771 86.7437V88.1436H54.1448C54.6567 87.6469 55.1835 87.2404 55.7254 86.9243C56.2674 86.5931 56.7641 86.4275 57.2157 86.4275C57.7426 86.4275 58.1415 86.6232 58.4125 87.0146C58.6985 87.406 58.8415 87.82 58.8415 88.2565C58.8415 88.6329 58.7211 89.0017 58.4802 89.3629C58.2394 89.7092 57.8781 89.8823 57.3964 89.8823C57.1555 89.8823 56.9598 89.8371 56.8093 89.7468C56.6738 89.6414 56.5985 89.5662 56.5835 89.521C56.5835 89.4909 56.6512 89.4006 56.7867 89.25C56.9372 89.0995 57.0125 88.9113 57.0125 88.6855C57.0125 88.4146 56.9372 88.1963 56.7867 88.0307C56.6512 87.8651 56.4631 87.7823 56.2222 87.7823C55.9663 87.7823 55.6351 87.9103 55.2287 88.1662C54.8373 88.4221 54.461 88.7307 54.0997 89.092V94.6015C54.0997 94.8574 54.1072 95.1058 54.1223 95.3466C54.1524 95.5875 54.2427 95.7832 54.3932 95.9337C54.5588 96.0692 54.8524 96.1369 55.2738 96.1369C55.4093 96.1369 55.5222 96.152 55.6125 96.1821C55.7179 96.1972 55.7781 96.3176 55.7932 96.5434C55.7932 96.6488 55.7631 96.7541 55.7029 96.8595C55.6427 96.9498 55.5523 96.995 55.4319 96.995C54.9954 96.9649 54.5889 96.9423 54.2126 96.9272C53.8513 96.9272 53.4674 96.9272 53.061 96.9272C52.6546 96.9272 52.2707 96.9272 51.9094 96.9272C51.5481 96.9423 51.1492 96.9649 50.7127 96.995ZM58.518 96.995C58.3674 96.995 58.2621 96.9423 58.2018 96.8369C58.1416 96.7316 58.1115 96.6187 58.1115 96.4982C58.1266 96.2423 58.1868 96.0993 58.2922 96.0692C58.3975 96.0391 58.5255 96.024 58.676 96.024C59.0825 96.024 59.3911 95.9413 59.6018 95.7757C59.8125 95.6101 59.9781 95.3918 60.0986 95.1208C60.234 94.8499 60.362 94.5714 60.4824 94.2854L64.4339 84.9373C64.5845 84.576 64.6146 84.305 64.5242 84.1244C64.4339 83.9287 64.2834 83.7932 64.0726 83.7179C63.8619 83.6276 63.6286 83.5599 63.3727 83.5147C63.1469 83.4696 62.9963 83.4319 62.9211 83.4018C62.8458 83.3567 62.8082 83.2212 62.8082 82.9954C62.8082 82.7395 62.8985 82.604 63.0791 82.5889C63.2598 82.5588 63.4705 82.5438 63.7114 82.5438C64.3285 82.5438 64.8554 82.604 65.292 82.7244C65.7285 82.8449 66.1048 83.0782 66.421 83.4244C66.7371 83.7556 67.0306 84.2599 67.3016 84.9373L71.095 94.2854C71.2004 94.5413 71.3133 94.8047 71.4337 95.0757C71.5541 95.3466 71.7122 95.5724 71.9079 95.7531C72.1186 95.9187 72.3821 96.009 72.6982 96.024C72.8638 96.024 72.9917 96.0391 73.0821 96.0692C73.1874 96.0993 73.2476 96.2423 73.2627 96.4982C73.2627 96.6187 73.2251 96.7316 73.1498 96.8369C73.0896 96.9423 72.9917 96.995 72.8563 96.995C72.3746 96.9649 71.9531 96.9423 71.5918 96.9272C71.2305 96.9272 70.8241 96.9272 70.3725 96.9272C69.4843 96.9272 68.551 96.9498 67.5725 96.995C67.422 96.995 67.3166 96.9423 67.2564 96.8369C67.1962 96.7316 67.1661 96.6187 67.1661 96.4982C67.1812 96.2423 67.2414 96.0993 67.3467 96.0692C67.4521 96.0391 67.5801 96.024 67.7306 96.024C68.4682 96.024 68.8671 95.8886 68.9273 95.6176C69.0026 95.3466 68.9349 94.9026 68.7241 94.2854L67.9564 92.4112H62.3791C62.1533 92.9833 61.9878 93.3972 61.8824 93.6531C61.7921 93.9091 61.7318 94.0746 61.7017 94.1499C61.6867 94.2252 61.6716 94.2703 61.6566 94.2854C61.491 94.7972 61.4007 95.1811 61.3856 95.437C61.3856 95.6778 61.506 95.8359 61.7469 95.9111C62.0028 95.9864 62.4243 96.024 63.0114 96.024C63.177 96.024 63.3049 96.0391 63.3952 96.0692C63.5006 96.0993 63.5608 96.2423 63.5759 96.4982C63.5759 96.6187 63.5382 96.7316 63.463 96.8369C63.4028 96.9423 63.3049 96.995 63.1694 96.995C62.6877 96.9649 62.2662 96.9423 61.905 96.9272C61.5587 96.9272 61.1598 96.9272 60.7082 96.9272C60.4072 96.9272 60.1512 96.9272 59.9405 96.9272C59.7448 96.9423 59.5416 96.9498 59.3308 96.9498C59.1201 96.9649 58.8491 96.9799 58.518 96.995ZM62.8082 91.4403H67.55L65.2694 85.6372H65.2016L62.8082 91.4403ZM73.111 96.995C73.0056 96.995 72.9153 96.9498 72.84 96.8595C72.7798 96.7541 72.7497 96.6488 72.7497 96.5434C72.7648 96.3176 72.8174 96.1972 72.9078 96.1821C73.0131 96.152 73.1336 96.1369 73.269 96.1369C73.6905 96.1369 73.9766 96.0692 74.1271 95.9337C74.2927 95.7832 74.383 95.5875 74.398 95.3466C74.4282 95.1058 74.4432 94.8574 74.4432 94.6015V83.5825C74.4432 83.3115 74.4282 83.0631 74.398 82.8373C74.383 82.5965 74.3002 82.4083 74.1497 82.2728C73.9991 82.1223 73.7131 82.047 73.2916 82.047C73.1561 82.047 73.0282 82.032 72.9078 82.0019C72.8024 81.9567 72.7497 81.8212 72.7497 81.5954C72.7497 81.3696 72.8701 81.2341 73.111 81.189C73.8034 81.0836 74.3303 80.9782 74.6916 80.8729C75.0679 80.7675 75.3539 80.6772 75.5496 80.6019C75.7453 80.5266 75.9184 80.4815 76.069 80.4664C76.1894 80.4514 76.2872 80.474 76.3625 80.5342C76.4528 80.5944 76.498 80.7148 76.498 80.8954V94.6015C76.498 94.8574 76.5055 95.1058 76.5206 95.3466C76.5507 95.5875 76.641 95.7832 76.7915 95.9337C76.9571 96.0692 77.2507 96.1369 77.6721 96.1369C77.8076 96.1369 77.9205 96.152 78.0108 96.1821C78.1162 96.1972 78.1764 96.3176 78.1915 96.5434C78.1915 96.6488 78.1614 96.7541 78.1012 96.8595C78.041 96.9498 77.9506 96.995 77.8302 96.995C77.3937 96.9649 76.9872 96.9423 76.6109 96.9272C76.2496 96.9272 75.8657 96.9272 75.4593 96.9272C75.0529 96.9272 74.669 96.9272 74.3077 96.9272C73.9464 96.9423 73.5475 96.9649 73.111 96.995ZM79.5719 96.995C79.4665 96.995 79.3762 96.9498 79.3009 96.8595C79.2407 96.7541 79.2106 96.6488 79.2106 96.5434C79.2256 96.3176 79.2783 96.1972 79.3686 96.1821C79.474 96.152 79.5944 96.1369 79.7299 96.1369C80.1514 96.1369 80.4374 96.0692 80.588 95.9337C80.7536 95.7832 80.8439 95.5875 80.8589 95.3466C80.889 95.1058 80.9041 94.8574 80.9041 94.6015V83.5825C80.9041 83.3115 80.889 83.0631 80.8589 82.8373C80.8439 82.5965 80.7611 82.4083 80.6105 82.2728C80.46 82.1223 80.174 82.047 79.7525 82.047C79.617 82.047 79.4891 82.032 79.3686 82.0019C79.2633 81.9567 79.2106 81.8212 79.2106 81.5954C79.2106 81.3696 79.331 81.2341 79.5719 81.189C80.2643 81.0836 80.7912 80.9782 81.1525 80.8729C81.5288 80.7675 81.8148 80.6772 82.0105 80.6019C82.2062 80.5266 82.3793 80.4815 82.5298 80.4664C82.6503 80.4514 82.7481 80.474 82.8234 80.5342C82.9137 80.5944 82.9589 80.7148 82.9589 80.8954V94.6015C82.9589 94.8574 82.9664 95.1058 82.9814 95.3466C83.0116 95.5875 83.1019 95.7832 83.2524 95.9337C83.418 96.0692 83.7115 96.1369 84.133 96.1369C84.2685 96.1369 84.3814 96.152 84.4717 96.1821C84.5771 96.1972 84.6373 96.3176 84.6524 96.5434C84.6524 96.6488 84.6223 96.7541 84.562 96.8595C84.5018 96.9498 84.4115 96.995 84.2911 96.995C83.8545 96.9649 83.4481 96.9423 83.0718 96.9272C82.7105 96.9272 82.3266 96.9272 81.9202 96.9272C81.5137 96.9272 81.1299 96.9272 80.7686 96.9272C80.4073 96.9423 80.0084 96.9649 79.5719 96.995Z" fill="#CCC9C4"/>
<path d="M59.6192 92.6973C59.6192 92.9861 59.5336 93.2683 59.3732 93.5084C59.2128 93.7485 58.9847 93.9357 58.718 94.0462C58.4512 94.1567 58.1576 94.1856 57.8744 94.1293C57.5912 94.0729 57.3311 93.9339 57.1269 93.7297C56.9227 93.5255 56.7836 93.2654 56.7273 92.9821C56.671 92.6989 56.6999 92.4054 56.8104 92.1386C56.9209 91.8718 57.108 91.6438 57.3481 91.4834C57.5882 91.3229 57.8705 91.2373 58.1593 91.2373C58.5465 91.2373 58.9178 91.3911 59.1916 91.6649C59.4654 91.9387 59.6192 92.3101 59.6192 92.6973Z" fill="#CCC9C4"/>
</svg>
