<svg width="132" height="117" viewBox="0 0 132 117" fill="none" xmlns="http://www.w3.org/2000/svg">
<path d="M24.0261 35.3819C23.9759 35.4533 23.9158 35.4858 23.8457 35.4792C23.7757 35.4726 23.7121 35.4493 23.655 35.4091C23.5386 35.3167 23.4909 35.2405 23.5117 35.1804C23.5325 35.1204 23.5681 35.0547 23.6182 34.9833C23.7788 34.7548 23.8499 34.5702 23.8316 34.4293C23.8112 34.2763 23.7478 34.1464 23.6415 34.0397C23.528 33.9279 23.4034 33.8244 23.2678 33.7291L19.0311 30.7195C18.6956 30.4836 18.4412 30.3902 18.2681 30.4392C18.095 30.4882 17.8957 30.6201 17.6701 30.8349C17.5734 30.9269 17.5054 30.9858 17.466 31.0114C17.4195 31.0321 17.3427 31.0048 17.2356 30.9295C17.1142 30.8442 17.0801 30.7562 17.1331 30.6655C17.1791 30.5698 17.2422 30.4648 17.3225 30.3506C17.6035 29.9508 17.8614 29.6521 18.0963 29.4545C18.3361 29.2497 18.6034 29.1123 18.8981 29.042C19.1978 28.9647 19.5754 28.9207 20.0308 28.9101L25.9486 28.6854L25.9712 28.6532L22.2827 26.0929C22.1471 25.9976 22.011 25.918 21.8746 25.8541C21.731 25.7852 21.5874 25.7696 21.4436 25.8072C21.2977 25.8326 21.1445 25.9596 20.9839 26.1881C20.9337 26.2595 20.8839 26.3152 20.8345 26.3551C20.7851 26.395 20.6947 26.3795 20.5633 26.3085C20.5062 26.2683 20.4627 26.2164 20.4328 26.1527C20.4079 26.0819 20.418 26.0144 20.4632 25.9501C20.5807 25.7981 20.6757 25.6781 20.748 25.5903C20.8183 25.4904 20.8896 25.3965 20.962 25.3087C21.0322 25.2087 21.1175 25.0874 21.2179 24.9446C21.3182 24.8018 21.401 24.684 21.4663 24.5912C21.5244 24.4933 21.586 24.398 21.6512 24.3052C21.7144 24.2002 21.795 24.0702 21.8933 23.9153C21.9434 23.8439 22.0036 23.8115 22.0736 23.818C22.1437 23.8246 22.2072 23.848 22.2644 23.8881C22.3807 23.9805 22.4285 24.0568 22.4076 24.1168C22.3918 24.1697 22.3563 24.2354 22.3011 24.3139C22.1455 24.5352 22.078 24.7224 22.0984 24.8755C22.1117 25.0235 22.1751 25.1533 22.2886 25.2651C22.3999 25.3647 22.5209 25.4657 22.6515 25.5682L28.0341 29.3831C28.0862 29.4304 28.0968 29.4912 28.0659 29.5655C28.0472 29.6376 28.0203 29.6987 27.9852 29.7487C27.8898 29.8844 27.7707 29.9553 27.6277 29.9614L19.3924 30.2054L19.3698 30.2376L23.6366 33.2043C23.7773 33.2925 23.9169 33.3746 24.0554 33.4506C24.1919 33.5145 24.3355 33.5302 24.4864 33.4976C24.6302 33.46 24.7799 33.3305 24.9354 33.1091C24.9906 33.0306 25.0429 32.9714 25.0923 32.9314C25.1417 32.8915 25.2296 32.9106 25.356 32.9888C25.4131 33.0289 25.4541 33.0844 25.479 33.1552C25.5089 33.2189 25.5013 33.2829 25.4562 33.3471C25.3436 33.492 25.2462 33.6155 25.1638 33.7176C25.0935 33.8176 25.0197 33.915 24.9423 34.01C24.8771 34.1028 24.7943 34.2206 24.6939 34.3634C24.5936 34.5062 24.5108 34.624 24.4455 34.7168C24.3925 34.8075 24.3333 34.8992 24.2681 34.9921C24.21 35.0899 24.1293 35.2198 24.0261 35.3819Z" fill="#CCC9C4"/>
<path d="M30.5908 26.9784C30.2181 27.3617 29.8089 27.5627 29.3629 27.5814C28.9231 27.5938 28.5493 27.4503 28.2414 27.151C27.9209 26.8394 27.749 26.5134 27.7256 26.1729C27.7084 25.8261 27.7871 25.4748 27.9618 25.1191C28.1426 24.7572 28.3731 24.4007 28.6532 24.0497C28.9394 23.6924 29.2228 23.3507 29.5033 23.0245L28.7587 22.3006C28.4634 22.0135 28.1607 21.8659 27.8508 21.8579C27.5406 21.8375 27.2145 22.0032 26.8724 22.3551C26.7014 22.531 26.5961 22.7525 26.5564 23.0195C26.5229 23.2803 26.613 23.5145 26.8266 23.7222C26.9271 23.8199 27.0364 23.8772 27.1544 23.8942C27.2724 23.9111 27.3746 23.9128 27.4612 23.8992C27.5478 23.8855 27.5974 23.8848 27.6099 23.8971C27.635 23.9215 27.6455 24.005 27.6413 24.1476C27.637 24.2778 27.5737 24.4057 27.4515 24.5314C27.2622 24.7262 27.0433 24.8067 26.7949 24.773C26.5466 24.7394 26.3344 24.637 26.1585 24.466C25.9197 24.2338 25.8015 23.9783 25.8038 23.6994C25.8121 23.4142 25.8979 23.1248 26.0611 22.8313C26.2243 22.5377 26.422 22.2715 26.6541 22.0328C26.929 21.75 27.2293 21.5103 27.5549 21.3136C27.8867 21.1106 28.2325 21.019 28.5922 21.0387C28.958 21.0522 29.3357 21.2483 29.7253 21.627L31.9212 23.762C31.9902 23.8168 32.0808 23.8744 32.1932 23.9348C32.3056 23.9951 32.43 24.0244 32.5663 24.0225C32.7025 24.0081 32.8316 23.9382 32.9538 23.8125C32.9965 23.7685 33.0396 23.7431 33.0828 23.7363C33.1198 23.7234 33.1729 23.7505 33.242 23.8177C33.2986 23.8727 33.312 23.9469 33.2823 24.0403C33.2527 24.1336 33.2044 24.2273 33.1376 24.3212C33.0707 24.4151 33.0098 24.4903 32.9548 24.5468C32.7288 24.7793 32.4612 24.9225 32.1521 24.9765C31.8368 25.0243 31.5444 24.9478 31.2751 24.7471C31.3921 25.1297 31.3821 25.5234 31.2453 25.9281C31.1083 26.3205 30.8901 26.6706 30.5908 26.9784ZM30.375 26.182C30.5827 25.9684 30.7187 25.7217 30.7829 25.4419C30.8533 25.1559 30.8493 24.8709 30.7709 24.5869C30.6923 24.2905 30.54 24.0324 30.3138 23.8125L29.7766 23.2902C29.1914 23.9801 28.846 24.5427 28.7406 24.978C28.6352 25.4133 28.7679 25.8112 29.1386 26.1716C29.5658 26.587 29.978 26.5905 30.375 26.182Z" fill="#CCC9C4"/>
<path d="M35.2883 22.7822C35.0884 22.9512 34.8562 23.0618 34.5917 23.114C34.3273 23.1661 34.0478 23.1396 33.7532 23.0344C33.4652 22.9236 33.1888 22.7116 32.924 22.3983L30.4395 19.4593L29.8766 19.9695C29.83 20.0089 29.7792 20.0232 29.7244 20.0124C29.6706 19.9893 29.624 19.9545 29.5845 19.9078C29.4719 19.7745 29.4537 19.6585 29.5301 19.5596C29.7373 19.3045 29.8591 19.0701 29.8956 18.8564C29.9264 18.6361 29.9104 18.4211 29.8474 18.2115C29.7912 17.9962 29.717 17.7733 29.6248 17.5426C29.5998 17.4724 29.6016 17.4138 29.6303 17.3666C29.6534 17.3128 29.6883 17.2662 29.7349 17.2268C29.7749 17.193 29.8267 17.1663 29.8902 17.1469C29.9604 17.1218 30.0181 17.1359 30.0631 17.1893L30.9566 18.388L32.067 17.3293C32.1214 17.2719 32.1754 17.2548 32.2292 17.2779C32.283 17.301 32.3324 17.3392 32.3775 17.3925C32.4339 17.4591 32.4769 17.537 32.5065 17.6262C32.5429 17.7098 32.5444 17.7656 32.5111 17.7938L31.3661 18.7103L33.9352 21.7493C34.0985 21.9425 34.2878 22.0853 34.503 22.1777C34.7249 22.2644 34.9457 22.2148 35.1657 22.0289C35.239 21.9669 35.3166 21.8898 35.3987 21.7976C35.4807 21.7054 35.5553 21.5909 35.6225 21.4541C35.6379 21.4182 35.6561 21.3857 35.6771 21.3565C35.6925 21.3206 35.7136 21.2914 35.7402 21.2689C35.7935 21.2238 35.8532 21.2134 35.9193 21.2375C35.9798 21.2549 36.0397 21.2785 36.0992 21.3083C36.1699 21.3514 36.1926 21.4121 36.1675 21.4905C36.0736 21.7984 35.9569 22.0456 35.8174 22.2321C35.6779 22.4186 35.5016 22.6019 35.2883 22.7822Z" fill="#CCC9C4"/>
<path d="M38.3058 20.4639C37.8133 20.7962 37.3219 20.9116 36.8319 20.8101C36.3418 20.7087 35.933 20.4153 35.6056 19.93L34.2495 17.92C34.1615 17.7896 34.0736 17.675 33.9858 17.5761C33.9004 17.4651 33.7995 17.4015 33.6831 17.3851C33.5618 17.3616 33.3997 17.4182 33.1969 17.5551C33.1317 17.599 33.0653 17.6333 32.9975 17.6579C32.9322 17.6704 32.8628 17.6223 32.7895 17.5137C32.7162 17.405 32.7302 17.3008 32.8314 17.2008C33.1304 16.9253 33.3497 16.7036 33.4893 16.5356C33.6362 16.3627 33.7445 16.2264 33.8142 16.1267C33.8839 16.0269 33.9526 15.949 34.0201 15.8929C34.0732 15.8466 34.1276 15.8257 34.1834 15.8302C34.2464 15.8298 34.3072 15.8731 34.3658 15.96L36.5869 19.252C36.7482 19.4911 36.9309 19.6524 37.1349 19.7361C37.3462 19.8149 37.5559 19.8368 37.7641 19.8017C37.9723 19.7666 38.1597 19.6929 38.3263 19.5805C38.5799 19.4094 38.7714 19.2169 38.9011 19.0029C39.0259 18.7817 39.1072 18.5741 39.1449 18.38C39.1777 18.1787 39.1853 18.0259 39.1678 17.9218L37.6284 15.6403C37.5404 15.5099 37.4525 15.3953 37.3648 15.2964C37.2793 15.1854 37.1784 15.1217 37.062 15.1054C36.9407 15.0818 36.7786 15.1385 36.5758 15.2753C36.5106 15.3193 36.4442 15.3536 36.3765 15.3782C36.3111 15.3907 36.2418 15.3426 36.1685 15.2339C36.0952 15.1253 36.1091 15.021 36.2103 14.9211C36.5093 14.6456 36.7286 14.4238 36.8682 14.2559C37.0151 14.083 37.1234 13.9467 37.1931 13.8469C37.2629 13.7472 37.3315 13.6692 37.399 13.6131C37.4521 13.5668 37.5065 13.5459 37.5623 13.5504C37.6253 13.5501 37.6861 13.5934 37.7448 13.6803L40.2811 17.4395C40.5694 17.8668 40.9997 17.8875 41.5719 17.5014C41.6516 17.4476 41.7169 17.4352 41.768 17.464C41.819 17.4927 41.8616 17.5325 41.8959 17.5832C41.9643 17.6846 41.9442 17.7877 41.8358 17.8925L40.1672 19.1922C40.1165 19.2264 40.0729 19.2243 40.0363 19.1857C39.9997 19.1471 39.9619 19.0988 39.9228 19.0409L39.5123 18.4325L39.4906 18.4471C39.4409 18.6704 39.3804 18.9009 39.309 19.1388C39.2449 19.3718 39.1346 19.599 38.9784 19.8204C38.8342 20.0442 38.61 20.2587 38.3058 20.4639Z" fill="#CCC9C4"/>
<path d="M41.5499 18.2816C41.4958 18.3099 41.4372 18.311 41.3743 18.2849C41.315 18.247 41.2712 18.201 41.2429 18.1468C41.1976 18.0228 41.1962 17.9447 41.2385 17.9127C41.2768 17.873 41.3346 17.8329 41.4119 17.7924C41.6284 17.679 41.757 17.5673 41.7979 17.4572C41.8347 17.3395 41.8246 17.2167 41.7676 17.0889C41.7183 16.9572 41.6592 16.8256 41.5904 16.6941L40.1997 14.0386C40.1269 13.8994 40.0523 13.7759 39.9761 13.6681C39.9036 13.5484 39.8105 13.4741 39.6968 13.445C39.579 13.4081 39.4118 13.4464 39.1954 13.5598C39.1258 13.5962 39.056 13.6229 38.9861 13.6398C38.9198 13.645 38.8563 13.5896 38.7956 13.4736C38.7349 13.3576 38.7603 13.2557 38.8719 13.1677C39.1991 12.9274 39.4414 12.7315 39.5986 12.5803C39.7635 12.4249 39.8822 12.3037 39.9548 12.2164C40.035 12.1251 40.1118 12.0554 40.185 12.0072C40.2428 11.9671 40.2992 11.9523 40.354 11.963C40.4166 11.9697 40.4722 12.0194 40.5207 12.1121L40.8972 12.8311L40.932 12.8129C41.0613 12.4201 41.2225 12.0697 41.4158 11.7616C41.6051 11.4458 41.8157 11.2271 42.0476 11.1057C42.3182 10.964 42.5757 10.9572 42.8201 11.0853C43.0722 11.2094 43.257 11.3835 43.3744 11.6077C43.4756 11.801 43.5129 12.0228 43.4864 12.2731C43.4558 12.5157 43.3169 12.7018 43.0695 12.8313C42.9458 12.8961 42.8331 12.9255 42.7315 12.9196C42.6336 12.9019 42.5747 12.8835 42.5548 12.8644C42.5468 12.8489 42.5573 12.7843 42.5863 12.6706C42.6232 12.5528 42.6112 12.4359 42.5505 12.3199C42.4776 12.1808 42.3803 12.0889 42.2584 12.0444C42.1443 11.9958 42.0254 12.0039 41.9017 12.0686C41.7703 12.1375 41.6346 12.2922 41.4947 12.533C41.3625 12.7697 41.2523 13.0294 41.1639 13.3121L42.6456 16.1415C42.7144 16.2729 42.7851 16.3985 42.8576 16.5181C42.9378 16.6337 43.0369 16.7099 43.1547 16.7467C43.2761 16.7718 43.4451 16.7276 43.6616 16.6143C43.7311 16.5778 43.7932 16.5552 43.8476 16.5464C43.9058 16.5258 43.9691 16.5714 44.0376 16.6833C44.0659 16.7375 44.0788 16.7997 44.0762 16.87C44.0696 16.9326 44.0353 16.98 43.9735 17.0124C43.7412 17.1144 43.5264 17.2121 43.3291 17.3056C43.1435 17.4027 42.9464 17.506 42.7377 17.6153C42.5289 17.7246 42.3318 17.8278 42.1463 17.925C41.9648 18.0299 41.766 18.1487 41.5499 18.2816Z" fill="#CCC9C4"/>
<path d="M46.8227 15.8655C46.3275 16.0607 45.8737 16.0755 45.4613 15.9098C45.057 15.7409 44.7764 15.4576 44.6195 15.0598C44.4563 14.6457 44.4338 14.2794 44.552 13.9607C44.6784 13.6389 44.8937 13.3523 45.198 13.101C45.5104 12.8465 45.8656 12.6173 46.2636 12.4134C46.6697 12.2064 47.0669 12.0122 47.4551 11.831L47.0758 10.869C46.9253 10.4875 46.7111 10.2295 46.433 10.0953C46.1598 9.94973 45.7959 9.96658 45.3413 10.1458C45.114 10.2355 44.9277 10.3934 44.7823 10.6195C44.6451 10.8425 44.6309 11.092 44.7398 11.368C44.791 11.4979 44.8667 11.5947 44.9668 11.6584C45.067 11.7221 45.1592 11.7655 45.2433 11.7886C45.3275 11.8117 45.3727 11.8313 45.3791 11.8476C45.3919 11.8801 45.3672 11.9601 45.305 12.0879C45.2477 12.2043 45.1379 12.2945 44.9755 12.3585C44.7239 12.4577 44.4922 12.4412 44.2806 12.3089C44.069 12.1766 43.9183 11.9968 43.8287 11.7695C43.707 11.461 43.7044 11.1806 43.8207 10.9284C43.9451 10.673 44.1415 10.4454 44.4098 10.2458C44.6782 10.0462 44.9666 9.88553 45.2751 9.76389C45.6404 9.61984 46.0112 9.52524 46.3874 9.48009C46.7717 9.43174 47.1231 9.49018 47.4415 9.65542C47.768 9.81746 48.0305 10.1501 48.229 10.6535L49.3478 13.4908C49.388 13.5688 49.4467 13.6582 49.524 13.7591C49.6012 13.8599 49.7021 13.9374 49.8267 13.9915C49.9561 14.0343 50.102 14.0236 50.2644 13.9596C50.3212 13.9372 50.3706 13.9318 50.4127 13.9433C50.4516 13.9468 50.4886 13.9931 50.5238 14.0824C50.5527 14.1555 50.5345 14.2283 50.4693 14.3009C50.4041 14.3735 50.322 14.4388 50.2228 14.4966C50.1237 14.5545 50.0376 14.5978 49.9645 14.6266C49.6641 14.7451 49.3626 14.7654 49.06 14.6878C48.7541 14.602 48.5201 14.4129 48.3578 14.1204C48.3073 14.5156 48.137 14.8688 47.847 15.1801C47.562 15.4802 47.2205 15.7086 46.8227 15.8655ZM46.9531 15.0542C47.2291 14.9454 47.4536 14.7771 47.6265 14.5495C47.8075 14.3186 47.9206 14.0583 47.9658 13.7684C48.0159 13.4673 47.9833 13.1706 47.8681 12.8783L47.5944 12.1842C46.7806 12.5707 46.2367 12.94 45.9627 13.2919C45.6887 13.6438 45.6462 14.0593 45.8351 14.5383C46.0527 15.0903 46.4254 15.2623 46.9531 15.0542Z" fill="#CCC9C4"/>
<path d="M50.5332 14.3799C50.4744 14.3965 50.4169 14.3857 50.3606 14.3472C50.3103 14.298 50.2769 14.244 50.2602 14.1852C50.2328 14.0569 50.2431 13.9814 50.2911 13.9587C50.3451 13.9252 50.4099 13.8978 50.4855 13.8763C50.7205 13.8096 50.8693 13.7265 50.9318 13.6271C51.0003 13.517 51.0197 13.3935 50.9899 13.2568C50.9686 13.1177 50.9377 12.9768 50.8972 12.8341L49.1525 6.68908C49.1096 6.53797 49.0619 6.40184 49.0093 6.28068C48.9628 6.14875 48.8868 6.05692 48.7814 6.0052C48.6736 5.94509 48.5022 5.9484 48.2672 6.01513C48.1916 6.03659 48.1179 6.04845 48.0459 6.05073C47.98 6.04223 47.9292 5.97501 47.8934 5.84909C47.8577 5.72317 47.9034 5.62855 48.0306 5.56523C48.4001 5.39683 48.6772 5.25464 48.862 5.13868C49.0552 5.02033 49.2004 4.92467 49.2976 4.85171C49.3948 4.77875 49.4842 4.72616 49.5658 4.69393C49.6305 4.66647 49.6887 4.66357 49.7402 4.68523C49.8001 4.70451 49.8443 4.76452 49.8729 4.86526L52.0431 12.5088C52.0836 12.6515 52.1271 12.7888 52.1736 12.9208C52.2285 13.0503 52.3099 13.1452 52.4177 13.2053C52.5315 13.2546 52.7059 13.2459 52.941 13.1792C53.0165 13.1577 53.0819 13.1482 53.137 13.1507C53.1981 13.1424 53.2508 13.2001 53.2949 13.3236C53.3116 13.3824 53.3115 13.4459 53.2946 13.5142C53.2753 13.5741 53.2321 13.6136 53.165 13.6326C52.9167 13.685 52.6865 13.7367 52.4743 13.7879C52.2728 13.8451 52.0587 13.9059 51.832 13.9703C51.6054 14.0346 51.3913 14.0954 51.1898 14.1526C50.9907 14.2182 50.7719 14.2939 50.5332 14.3799Z" fill="#CCC9C4"/>
<path d="M57.3684 12.7801C57.2818 12.7909 57.2174 12.7682 57.1752 12.7119C57.133 12.6556 57.1076 12.5928 57.0989 12.5235C57.0892 12.3752 57.1136 12.2887 57.1721 12.2638C57.2305 12.2389 57.3031 12.2211 57.3897 12.2103C57.6668 12.1757 57.8557 12.1038 57.9563 11.9945C58.056 11.8765 58.1096 11.7423 58.1172 11.5919C58.1324 11.4317 58.1341 11.2688 58.1222 11.1031L57.479 5.94638C57.4498 5.78293 57.4087 5.62975 57.3557 5.48686C57.3103 5.33423 57.2253 5.21731 57.1009 5.13609C56.9753 5.04622 56.774 5.01857 56.4969 5.05313C56.4103 5.06393 56.3356 5.06446 56.2729 5.0547C56.2101 5.04494 56.1652 4.96699 56.1382 4.82086C56.1295 4.75158 56.1387 4.68448 56.1658 4.61954C56.1929 4.5546 56.2497 4.51673 56.3363 4.50593C56.6145 4.48003 56.8754 4.45628 57.1189 4.4347C57.3711 4.41203 57.6271 4.3845 57.8869 4.35209C58.4151 4.28621 58.9547 4.20571 59.5057 4.1106C59.5837 4.10088 59.6437 4.12417 59.6859 4.18046C59.7368 4.23568 59.7665 4.29793 59.7752 4.3672C59.7849 4.51549 59.7605 4.60208 59.702 4.62696C59.6436 4.65184 59.5667 4.67022 59.4715 4.6821C59.203 4.71559 59.0147 4.79185 58.9064 4.91089C58.8057 5.02018 58.7521 5.15439 58.7456 5.3135C58.7379 5.46395 58.7401 5.62199 58.7519 5.7876L59.3951 10.9444C59.4243 11.1078 59.4616 11.2659 59.5071 11.4185C59.5514 11.5625 59.6363 11.6794 59.7619 11.7693C59.895 11.8494 60.0958 11.8727 60.3642 11.8392C60.4595 11.8274 60.5385 11.8263 60.6013 11.836C60.664 11.8458 60.7089 11.9238 60.736 12.0699C60.7446 12.1392 60.7311 12.2068 60.6953 12.2728C60.6682 12.3378 60.6157 12.3751 60.5378 12.3848C59.9803 12.428 59.4418 12.4819 58.9223 12.5468C58.6625 12.5792 58.407 12.611 58.1559 12.6423C57.9058 12.6823 57.6433 12.7283 57.3684 12.7801Z" fill="#CCC9C4"/>
<path d="M61.3995 12.2841C61.3384 12.2853 61.2855 12.2601 61.2408 12.2087C61.2047 12.1483 61.186 12.0875 61.1848 12.0264C61.1996 11.8952 61.2332 11.8247 61.2853 11.8149C61.3373 11.7964 61.407 11.7863 61.4943 11.7845C61.7386 11.7797 61.9036 11.7371 61.9893 11.6568C62.0748 11.5678 62.1206 11.4534 62.1265 11.3136C62.1412 11.1736 62.147 11.0294 62.144 10.8811L62.0841 7.88346C62.0809 7.72638 62.0693 7.58256 62.0493 7.45201C62.0377 7.31256 61.9876 7.20443 61.8987 7.12764C61.8097 7.04212 61.643 7.0018 61.3987 7.00669C61.3202 7.00826 61.2458 7.00102 61.1756 6.98496C61.114 6.96 61.0819 6.88207 61.0793 6.75117C61.0767 6.62027 61.1449 6.54033 61.284 6.51136C61.6842 6.44225 61.9884 6.37505 62.1967 6.30978C62.4136 6.24433 62.574 6.18874 62.6779 6.14301C62.7904 6.09711 62.8903 6.06892 62.9773 6.05845C63.047 6.04833 63.104 6.06028 63.1483 6.09432C63.2014 6.12817 63.2289 6.19746 63.231 6.30218L63.2475 7.12685L63.2868 7.12607C63.458 6.95677 63.6338 6.79611 63.8141 6.6441C63.9942 6.48335 64.2055 6.35254 64.4479 6.25166C64.6989 6.14188 65.0076 6.08332 65.3741 6.07599C65.9675 6.06412 66.4424 6.23359 66.7986 6.5844C67.1548 6.93522 67.3388 7.40297 67.3505 7.98765L67.4062 10.7758C67.4092 10.9242 67.4164 11.0681 67.428 11.2075C67.4482 11.3468 67.5028 11.4592 67.5918 11.5447C67.6894 11.6213 67.8604 11.6572 68.1047 11.6523C68.1832 11.6508 68.2489 11.6582 68.3016 11.6746C68.3628 11.6821 68.3991 11.7512 68.4105 11.8819C68.4117 11.943 68.3955 12.0045 68.3618 12.0662C68.3279 12.1193 68.2761 12.1465 68.2063 12.1479C67.9529 12.1355 67.717 12.1271 67.4986 12.1228C67.2892 12.127 67.0667 12.1314 66.831 12.1361C66.5954 12.1408 66.3729 12.1453 66.1635 12.1495C65.9542 12.1624 65.7232 12.1801 65.4705 12.2026C65.4094 12.2039 65.3565 12.1787 65.3118 12.1272C65.2757 12.0668 65.257 12.0061 65.2558 11.945C65.2619 11.8139 65.2911 11.7435 65.3432 11.7337C65.404 11.7151 65.4736 11.705 65.5522 11.7034C65.7965 11.6985 65.9615 11.6559 66.0472 11.5756C66.1415 11.4864 66.1916 11.3719 66.1975 11.2321C66.2122 11.0922 66.218 10.948 66.215 10.7996L66.1595 8.02457C66.1538 7.73659 66.0836 7.50228 65.949 7.32163C65.8232 7.14082 65.6634 7.0087 65.4697 6.92527C65.276 6.84184 65.0787 6.80213 64.878 6.80615C64.5813 6.81208 64.3206 6.87404 64.096 6.99203C63.8712 7.10129 63.6904 7.22712 63.5536 7.36954C63.4167 7.51196 63.3232 7.63606 63.2729 7.74182L63.3352 10.8572C63.3382 11.0056 63.3454 11.1495 63.357 11.289C63.3772 11.4282 63.4318 11.5406 63.5208 11.6261C63.6184 11.7028 63.7894 11.7386 64.0337 11.7337C64.1123 11.7322 64.1779 11.7396 64.2306 11.756C64.2918 11.7635 64.3282 11.8326 64.3395 11.9633C64.3407 12.0244 64.3245 12.0859 64.2908 12.1477C64.2569 12.2007 64.2051 12.2279 64.1353 12.2293C63.8819 12.2169 63.646 12.2086 63.4276 12.2042C63.2182 12.2084 62.9957 12.2128 62.7601 12.2176C62.5244 12.2223 62.3019 12.2267 62.0925 12.2309C61.8832 12.2438 61.6522 12.2615 61.3995 12.2841Z" fill="#CCC9C4"/>
<path d="M69.9141 15.3832C68.0867 15.1569 67.2374 14.5241 67.3661 13.4848C67.4015 13.199 67.5241 12.9548 67.7339 12.7522C67.9425 12.5582 68.1984 12.4799 68.5016 12.5175C68.7008 12.5422 68.8589 12.6145 68.9759 12.7345C69.0919 12.8632 69.1472 12.9492 69.1418 12.9925C69.1397 13.0098 69.1002 13.0445 69.0234 13.0965C68.9553 13.1496 68.8801 13.2239 68.798 13.3192C68.7245 13.4156 68.677 13.5504 68.6555 13.7237C68.573 14.3905 69.1033 14.7947 70.2464 14.9363C70.896 15.0168 71.4122 14.9664 71.7952 14.7852C72.1868 14.6051 72.4111 14.2855 72.4679 13.8265C72.499 13.5753 72.4403 13.3746 72.2919 13.2243C72.1521 13.0751 71.9512 12.9579 71.6891 12.8727C71.4357 12.7885 71.1499 12.718 70.8316 12.661C70.5122 12.6126 70.1885 12.5637 69.8605 12.5143C69.5412 12.466 69.2456 12.403 68.9738 12.3254C68.6771 12.2359 68.434 12.1046 68.2444 11.9317C68.0645 11.7511 67.996 11.4876 68.0389 11.1412C68.0786 10.8207 68.2255 10.5576 68.4796 10.3516C68.7435 10.1381 69.1049 10.0597 69.5639 10.1166C69.0365 9.83142 68.6968 9.52115 68.5449 9.18578C68.4016 8.85148 68.3504 8.51977 68.3911 8.19068C68.4372 7.81827 68.5825 7.49772 68.8268 7.229C69.0808 6.9527 69.4048 6.751 69.7986 6.62391C70.2022 6.48924 70.6508 6.45247 71.1445 6.5136C71.387 6.54364 71.6355 6.59639 71.8899 6.67187C72.1541 6.73976 72.3756 6.83314 72.5543 6.952L74.3758 6.83466C74.4722 6.8378 74.5334 6.87615 74.5594 6.94973C74.5855 7.0233 74.5937 7.09906 74.5841 7.17701C74.5701 7.28959 74.5389 7.40003 74.4903 7.50833C74.4428 7.60797 74.3887 7.65403 74.3281 7.64652L73.0484 7.43528L73.0452 7.46126C73.1742 7.62672 73.2756 7.83714 73.3495 8.0925C73.4234 8.34787 73.447 8.58381 73.4201 8.80032C73.3687 9.21602 73.2029 9.56042 72.9229 9.8335C72.6515 10.1077 72.3194 10.304 71.9266 10.4224C71.5436 10.5332 71.1529 10.564 70.7545 10.5146L70.1829 10.4438C69.7325 10.3881 69.3981 10.3906 69.1795 10.4515C68.9696 10.5134 68.8523 10.644 68.8276 10.8432C68.8083 10.9991 68.8453 11.1267 68.9385 11.2262C69.0414 11.3181 69.2347 11.3904 69.5183 11.4431L71.29 11.7285C72.2124 11.8779 72.8524 12.1066 73.2099 12.4147C73.5761 12.7239 73.7276 13.1339 73.6643 13.6449C73.6075 14.1039 73.412 14.4754 73.0778 14.7594C72.7513 15.0531 72.3137 15.2495 71.765 15.3486C71.2239 15.4575 70.6069 15.469 69.9141 15.3832ZM70.6972 10.125C71.0956 10.1744 71.4375 10.076 71.723 9.82999C72.0096 9.5753 72.1855 9.18381 72.251 8.65552C72.311 8.17053 72.2283 7.77338 72.0028 7.46407C71.7871 7.14717 71.48 6.96405 71.0816 6.91471C70.7006 6.86751 70.363 6.9664 70.0688 7.21136C69.7844 7.44873 69.6122 7.80991 69.5521 8.29489C69.4867 8.82318 69.5613 9.25011 69.776 9.57567C70.0004 9.89365 70.3075 10.0768 70.6972 10.125Z" fill="#CCC9C4"/>
<path d="M74.1801 13.2C74.1207 13.1856 74.076 13.1478 74.0459 13.0867C74.0264 13.0191 74.0238 12.9556 74.0382 12.8962C74.086 12.7731 74.1364 12.7135 74.1894 12.7174C74.2444 12.7127 74.3143 12.7207 74.3991 12.7413C74.6365 12.7988 74.8069 12.7998 74.9102 12.744C75.0156 12.6797 75.089 12.5808 75.1304 12.4472C75.1802 12.3156 75.2227 12.1777 75.2576 12.0335L75.964 9.12034C76.001 8.96768 76.0265 8.82569 76.0404 8.69437C76.0648 8.55661 76.0438 8.43929 75.9775 8.3424C75.9133 8.23703 75.7624 8.15555 75.525 8.09797C75.4486 8.07946 75.3786 8.0535 75.3149 8.02009C75.2617 7.98025 75.2505 7.89672 75.2814 7.76951C75.3122 7.6423 75.3986 7.58242 75.5404 7.58988C75.9449 7.62511 76.2562 7.63772 76.4741 7.62771C76.7005 7.61975 76.8698 7.60691 76.9818 7.58919C77.1023 7.57351 77.206 7.57172 77.2929 7.5838C77.3628 7.59178 77.4149 7.61786 77.449 7.66207C77.4917 7.70833 77.5007 7.78235 77.476 7.88412L77.2848 8.67284L77.3229 8.6821C77.6791 8.47215 78.0315 8.31514 78.38 8.21107C78.7305 8.09852 79.033 8.0731 79.2875 8.13479C79.5843 8.20676 79.7823 8.37151 79.8815 8.62903C79.9892 8.88861 80.0132 9.14137 79.9535 9.38732C79.9021 9.59934 79.7839 9.79067 79.5988 9.96131C79.4159 10.1235 79.1887 10.1716 78.9173 10.1058C78.7816 10.0729 78.6775 10.0208 78.605 9.9493C78.5431 9.87143 78.511 9.81874 78.5087 9.79124C78.5128 9.77428 78.5633 9.73265 78.6602 9.66635C78.7655 9.60211 78.8337 9.50638 78.8645 9.37916C78.9015 9.22651 78.8889 9.09325 78.8267 8.9794C78.773 8.8676 78.6783 8.79525 78.5426 8.76235C78.3985 8.72739 78.1944 8.75423 77.9305 8.84288C77.675 8.93359 77.4208 9.05604 77.1679 9.21022L76.4153 12.3142C76.3803 12.4584 76.3506 12.5994 76.3262 12.7371C76.3102 12.8769 76.3344 12.9995 76.3986 13.1049C76.4734 13.2038 76.6295 13.2821 76.867 13.3397C76.9433 13.3582 77.0049 13.3821 77.0517 13.4114C77.109 13.4343 77.1264 13.5104 77.1041 13.6396C77.0897 13.699 77.0583 13.7542 77.01 13.8054C76.9637 13.848 76.9067 13.8611 76.8388 13.8447C76.597 13.7681 76.3711 13.6999 76.1611 13.64C75.9576 13.5906 75.7413 13.5382 75.5124 13.4826C75.2834 13.4271 75.0671 13.3747 74.8636 13.3253C74.658 13.2844 74.4301 13.2427 74.1801 13.2Z" fill="#CCC9C4"/>
<path d="M81.0424 15.3389C80.41 15.1117 79.9248 14.7844 79.5869 14.3571C79.2572 13.9326 79.0667 13.4562 79.0154 12.9278C78.9642 12.3994 79.0344 11.8682 79.2262 11.3344C79.356 10.973 79.543 10.6461 79.7872 10.3537C80.0425 10.0559 80.3394 9.81022 80.6779 9.61655C81.0193 9.41466 81.3879 9.29206 81.7836 9.24877C82.1793 9.20548 82.5907 9.26054 83.0178 9.41396C83.7734 9.68539 84.2693 10.0861 84.5054 10.616C84.7528 11.1407 84.7975 11.7131 84.6396 12.3333C84.5363 12.6207 84.3864 12.7801 84.1897 12.8115C84.0012 12.8457 83.7796 12.8172 83.525 12.7257L80.5314 11.6503C80.3603 12.1266 80.2726 12.5773 80.2683 13.0023C80.2669 13.4191 80.366 13.7885 80.5656 14.1106C80.7764 14.4274 81.1158 14.6698 81.5839 14.838C81.9289 14.9619 82.2511 14.9942 82.5506 14.9349C82.8501 14.8756 83.1812 14.7024 83.5439 14.4155C83.6391 14.3569 83.7309 14.3853 83.8193 14.5005C83.8732 14.557 83.8951 14.6251 83.885 14.7049C83.8778 14.7765 83.849 14.8311 83.7984 14.8685C83.3992 15.1795 82.9654 15.3806 82.4967 15.4719C82.0281 15.5632 81.5433 15.5189 81.0424 15.3389ZM80.6996 11.1822L82.7076 11.9035C82.9048 11.9743 83.0741 11.9934 83.2156 11.9608C83.3683 11.9229 83.4827 11.811 83.5588 11.6251C83.6856 11.2719 83.6992 10.9244 83.5994 10.5826C83.5108 10.2355 83.2653 9.9897 82.8629 9.84513C82.4523 9.69761 82.0483 9.73796 81.6511 9.96616C81.262 10.1973 80.9449 10.6026 80.6996 11.1822Z" fill="#CCC9C4"/>
<path d="M85.9082 17.5002C85.4735 17.2771 85.1295 16.9534 84.8764 16.5292C84.6233 16.1051 84.4918 15.6256 84.4818 15.0908C84.4718 14.556 84.6083 14.0129 84.8912 13.4617C85.1383 12.9804 85.482 12.5878 85.9223 12.2842C86.3744 11.9767 86.8681 11.7985 87.4033 11.7495C87.9502 11.6967 88.4838 11.8038 89.004 12.0708C89.2524 12.1983 89.481 12.3549 89.6898 12.5406C89.9026 12.7184 90.0685 12.9017 90.1875 13.0903L90.2224 13.1082L91.137 11.3264C91.2087 11.1867 91.2667 11.0546 91.3109 10.9302C91.3669 10.802 91.374 10.683 91.3322 10.5733C91.2945 10.4558 91.1669 10.3413 90.9495 10.2297C90.8796 10.1938 90.8176 10.1522 90.7635 10.1048C90.7211 10.0536 90.7298 9.96977 90.7895 9.85331C90.8493 9.73686 90.9473 9.69886 91.0835 9.73933C91.4685 9.86829 91.7681 9.95341 91.9823 9.9947C92.2043 10.04 92.3757 10.0691 92.4966 10.0821C92.6174 10.0951 92.7187 10.1176 92.8003 10.1497C92.8664 10.1738 92.9109 10.2114 92.9338 10.2623C92.9644 10.3173 92.9558 10.3914 92.908 10.4845L89.22 17.6699C88.9849 18.1279 89.1701 18.5124 89.7757 18.8232C89.8611 18.867 89.9035 18.9182 89.9029 18.9767C89.9062 19.0275 89.898 19.0723 89.878 19.1111C89.8222 19.2198 89.7224 19.2519 89.5784 19.2075L87.661 18.3852C87.6067 18.3573 87.5876 18.3181 87.6037 18.2675C87.6199 18.2169 87.6439 18.1606 87.6758 18.0985L87.9149 17.6327L87.8799 17.6147C87.5822 17.717 87.25 17.7622 86.8833 17.7506C86.5283 17.7351 86.2033 17.6517 85.9082 17.5002ZM86.603 17.1212C86.8981 17.2726 87.1725 17.3399 87.4264 17.3231C87.6842 17.2985 87.9209 17.2483 88.1363 17.1725L89.7144 14.0981C89.7433 13.9462 89.7373 13.7763 89.6963 13.5886C89.6671 13.397 89.5871 13.2088 89.4564 13.024C89.3374 12.8354 89.1537 12.6774 88.9052 12.5498C88.4549 12.3187 87.9649 12.337 87.4352 12.6046C86.9095 12.8644 86.4514 13.3748 86.0608 14.1356C85.8736 14.5005 85.7525 14.8798 85.6976 15.2734C85.6544 15.6632 85.7014 16.0208 85.8385 16.3462C85.9755 16.6716 86.2304 16.9299 86.603 17.1212Z" fill="#CCC9C4"/>
<path d="M89.3024 19.1996C89.2511 19.166 89.2215 19.1152 89.2136 19.0472C89.2179 18.9767 89.2369 18.9158 89.2705 18.8645C89.3571 18.7641 89.4248 18.7247 89.4736 18.7462C89.5272 18.7603 89.5906 18.7914 89.6639 18.8394C89.8692 18.9738 90.0301 19.032 90.1466 19.014C90.2679 18.9887 90.3706 18.9198 90.4547 18.8073C90.5462 18.6996 90.6327 18.5835 90.7143 18.4588L92.363 15.9408C92.4494 15.8089 92.5212 15.6831 92.5786 15.5636C92.648 15.4415 92.6677 15.3235 92.6376 15.2095C92.6123 15.0882 92.497 14.9604 92.2918 14.826C92.2258 14.7828 92.1683 14.7346 92.1192 14.6816C92.0823 14.626 92.0999 14.5432 92.1719 14.4333C92.2439 14.3233 92.3457 14.2957 92.4774 14.3505C92.8482 14.52 93.1383 14.6367 93.3479 14.7006C93.5647 14.7692 93.7328 14.8165 93.8521 14.8422C93.9714 14.8679 94.0701 14.9011 94.1482 14.9418C94.2116 14.9729 94.2521 15.0151 94.2695 15.0684C94.2943 15.1265 94.2779 15.1996 94.2203 15.2875L91.7149 19.114C91.6333 19.2386 91.5578 19.362 91.4883 19.484C91.4262 19.6109 91.4077 19.735 91.4331 19.8563C91.4705 19.9751 91.5918 20.1017 91.7971 20.2361C91.8631 20.2793 91.9132 20.3226 91.9476 20.366C91.9941 20.407 91.9851 20.4848 91.9204 20.5996C91.8868 20.6509 91.8385 20.6926 91.7756 20.7247C91.7175 20.7495 91.6591 20.7427 91.6005 20.7043C91.3975 20.5504 91.2068 20.4099 91.0283 20.2825C90.8524 20.1673 90.6655 20.045 90.4675 19.9154C90.2696 19.7858 90.0827 19.6634 89.9068 19.5482C89.726 19.4403 89.5246 19.3241 89.3024 19.1996ZM94.5955 13.4909C94.3902 13.3565 94.2588 13.1814 94.2011 12.9656C94.1482 12.7425 94.1841 12.5356 94.3089 12.345C94.4193 12.1764 94.602 12.0813 94.857 12.0598C95.112 12.0382 95.3458 12.0971 95.5584 12.2362C95.7416 12.3562 95.8487 12.5206 95.8796 12.7293C95.9153 12.9308 95.8683 13.1304 95.7388 13.3283C95.6236 13.5043 95.4555 13.6089 95.2347 13.6424C95.0138 13.6758 94.8007 13.6253 94.5955 13.4909Z" fill="#CCC9C4"/>
<path d="M94.4647 23.1156C93.9406 22.6922 93.5888 22.2226 93.4095 21.7065C93.237 21.196 93.2134 20.6821 93.3388 20.1648C93.4642 19.6475 93.7056 19.1676 94.063 18.7252C94.3049 18.4257 94.5896 18.1776 94.9171 17.981C95.2569 17.7831 95.619 17.6481 96.0033 17.5761C96.3931 17.4973 96.7825 17.5026 97.1716 17.5918C97.5606 17.6811 97.9321 17.8687 98.2861 18.1546C98.9123 18.6604 99.25 19.2031 99.2992 19.7827C99.3608 20.361 99.2147 20.9179 98.861 21.4533C98.6686 21.6915 98.474 21.7931 98.2774 21.758C98.0876 21.7284 97.8872 21.6284 97.6762 21.458L95.1951 19.454C94.8762 19.8488 94.6448 20.2467 94.5008 20.6478C94.3623 21.0421 94.3346 21.4246 94.4176 21.7953C94.5129 22.1647 94.7545 22.5061 95.1425 22.8195C95.4284 23.0504 95.7229 23.187 96.0261 23.2294C96.3292 23.2718 96.6998 23.2169 97.1378 23.0645C97.2472 23.0404 97.3249 23.0975 97.3707 23.2357C97.4031 23.3069 97.4014 23.3787 97.3656 23.4509C97.3352 23.5164 97.2899 23.5585 97.2297 23.5774C96.7493 23.7405 96.2722 23.7881 95.7983 23.7203C95.3244 23.6525 94.8799 23.4509 94.4647 23.1156ZM95.5085 19.066L97.1728 20.4102C97.3361 20.5422 97.4902 20.616 97.635 20.6317C97.792 20.6461 97.9372 20.5778 98.0705 20.4267C98.3069 20.134 98.4341 19.8094 98.4522 19.4528C98.4825 19.095 98.331 18.7813 97.9974 18.5119C97.6571 18.237 97.2612 18.1423 96.8099 18.2276C96.3654 18.3185 95.9316 18.5979 95.5085 19.066Z" fill="#CCC9C4"/>
<path d="M96.5744 24.8096C96.5323 24.7656 96.515 24.7099 96.5226 24.6423C96.5425 24.575 96.5744 24.5203 96.6184 24.4782C96.7247 24.4004 96.799 24.3774 96.8415 24.409C96.8901 24.4347 96.9446 24.4789 97.0048 24.5418C97.1734 24.7177 97.3161 24.81 97.4329 24.8186C97.5559 24.8212 97.6707 24.7775 97.7773 24.6875C97.8898 24.6037 97.9995 24.5106 98.1063 24.4083L100.265 22.3399C100.378 22.2315 100.475 22.1259 100.558 22.023C100.652 21.9204 100.698 21.8105 100.694 21.6935C100.696 21.5705 100.613 21.421 100.445 21.2451C100.391 21.1885 100.346 21.1291 100.31 21.0668C100.287 21.0047 100.322 20.9285 100.417 20.8382C100.511 20.7479 100.616 20.744 100.731 20.8264C101.052 21.0733 101.306 21.2511 101.495 21.3597C101.689 21.4747 101.839 21.5548 101.942 21.6001C102.052 21.6516 102.14 21.7058 102.207 21.7626C102.261 21.8069 102.291 21.8568 102.296 21.9123C102.307 21.974 102.274 22.0411 102.199 22.1133L101.605 22.6823L101.632 22.7106C101.872 22.7219 102.109 22.7423 102.342 22.7719C102.582 22.7954 102.82 22.8621 103.058 22.9718C103.308 23.0817 103.559 23.2686 103.812 23.5325C104.222 23.9598 104.418 24.4225 104.401 24.9207C104.385 25.4189 104.166 25.8698 103.745 26.2732L101.737 28.197C101.63 28.2994 101.53 28.4019 101.435 28.5045C101.347 28.6134 101.301 28.7294 101.299 28.8524C101.308 28.9758 101.397 29.1254 101.566 29.3013C101.62 29.3579 101.659 29.411 101.683 29.4607C101.719 29.5107 101.692 29.584 101.604 29.6806C101.56 29.7228 101.504 29.7524 101.436 29.7694C101.374 29.7804 101.319 29.7608 101.271 29.7105C101.109 29.5162 100.956 29.3376 100.812 29.1745C100.667 29.0237 100.514 28.8634 100.351 28.6938C100.188 28.5241 100.035 28.3639 99.8904 28.2131C99.7396 28.0684 99.5706 27.9109 99.3834 27.7407C99.3412 27.6967 99.324 27.641 99.3316 27.5734C99.3515 27.5061 99.3834 27.4514 99.4274 27.4093C99.5276 27.3252 99.599 27.2991 99.6414 27.3307C99.6961 27.3627 99.7506 27.4069 99.8048 27.4635C99.9734 27.6394 100.116 27.7317 100.233 27.7403C100.362 27.7492 100.48 27.7086 100.586 27.6186C100.699 27.5348 100.809 27.4417 100.915 27.3394L102.913 25.4246C103.121 25.2259 103.245 25.0162 103.287 24.7955C103.334 24.581 103.323 24.3746 103.254 24.1762C103.184 23.9777 103.08 23.8062 102.942 23.6617C102.737 23.4481 102.515 23.2988 102.277 23.2137C102.045 23.1226 101.831 23.0749 101.634 23.0707C101.437 23.0665 101.283 23.0817 101.171 23.1163L98.9283 25.2659C98.8214 25.3683 98.7208 25.4708 98.6263 25.5734C98.5378 25.6823 98.4922 25.7983 98.4896 25.9213C98.4993 26.0446 98.5884 26.1943 98.757 26.3702C98.8112 26.4267 98.8501 26.4799 98.8737 26.5296C98.9095 26.5796 98.8834 26.6529 98.7951 26.7495C98.7512 26.7917 98.6951 26.8213 98.6271 26.8383C98.5653 26.8493 98.5103 26.8296 98.4621 26.7794C98.3001 26.5851 98.1469 26.4064 98.0027 26.2433C97.8582 26.0925 97.7046 25.9323 97.542 25.7627C97.3794 25.593 97.2259 25.4328 97.0814 25.282C96.9306 25.1372 96.7616 24.9798 96.5744 24.8096Z" fill="#CCC9C4"/>
<path d="M102.101 31.3584C101.941 31.1516 101.841 30.9152 101.801 30.6492C101.761 30.3832 101.8 30.1056 101.918 29.8165C102.041 29.5343 102.264 29.2681 102.588 29.0179L105.629 26.6703L105.145 26.0865C105.108 26.0383 105.096 25.987 105.109 25.9329C105.134 25.8802 105.171 25.8353 105.219 25.798C105.357 25.6916 105.474 25.6786 105.569 25.7592C105.814 25.977 106.042 26.1088 106.254 26.1546C106.472 26.1951 106.687 26.1886 106.899 26.1351C107.116 26.0885 107.342 26.0244 107.576 25.9427C107.647 25.9208 107.705 25.9252 107.751 25.9559C107.804 25.9813 107.849 26.0181 107.886 26.0664C107.918 26.1077 107.942 26.1605 107.959 26.2248C107.981 26.2959 107.964 26.3527 107.909 26.3953L106.674 27.2332L107.681 28.3872C107.735 28.444 107.75 28.4986 107.725 28.5512C107.699 28.6039 107.659 28.6515 107.604 28.6941C107.535 28.7473 107.455 28.7867 107.365 28.8124C107.28 28.8449 107.225 28.844 107.198 28.8095L106.335 27.6274L103.191 30.0548C102.991 30.2091 102.84 30.3916 102.739 30.6021C102.642 30.8194 102.682 31.0419 102.858 31.2694C102.916 31.3452 102.99 31.4261 103.078 31.5119C103.166 31.5978 103.277 31.6773 103.411 31.7503C103.446 31.7672 103.477 31.7868 103.506 31.8091C103.541 31.826 103.569 31.8483 103.59 31.8758C103.633 31.931 103.641 31.991 103.614 32.0558C103.594 32.1153 103.567 32.1741 103.535 32.232C103.489 32.3006 103.427 32.3206 103.35 32.2921C103.047 32.1849 102.806 32.0576 102.626 31.9103C102.447 31.763 102.272 31.579 102.101 31.3584Z" fill="#CCC9C4"/>
<path d="M104.16 34.2343C103.799 33.6678 103.596 33.1298 103.55 32.6206C103.517 32.1139 103.692 31.7386 104.074 31.4946C104.287 31.3585 104.5 31.3108 104.712 31.3514C104.929 31.3993 105.104 31.5263 105.235 31.7323C105.319 31.8648 105.351 31.9949 105.329 32.1228C105.319 32.2533 105.299 32.3279 105.27 32.3467C105.248 32.3608 105.168 32.3495 105.031 32.3128C104.906 32.2788 104.758 32.3158 104.589 32.4237C104.383 32.5551 104.271 32.761 104.253 33.0415C104.248 33.3246 104.371 33.6648 104.625 34.0621C104.845 34.4079 105.09 34.6296 105.359 34.727C105.641 34.8271 105.917 34.7904 106.19 34.6167C106.41 34.4759 106.533 34.2944 106.557 34.0722C106.592 33.8526 106.574 33.6053 106.503 33.3303C106.435 33.0627 106.356 32.7766 106.266 32.4722C106.18 32.1751 106.119 31.8773 106.084 31.5789C106.049 31.2804 106.08 30.9966 106.178 30.7274C106.287 30.4609 106.504 30.2244 106.827 30.0179C107.159 29.8068 107.494 29.7325 107.834 29.795C108.174 29.8576 108.494 30.0105 108.794 30.2539C109.102 30.4925 109.357 30.77 109.558 31.0864C109.732 31.3586 109.856 31.6419 109.93 31.9363C110.011 32.2261 110.024 32.4975 109.968 32.7505C109.916 33.0109 109.773 33.2162 109.538 33.3664C109.354 33.4837 109.151 33.5304 108.928 33.5065C108.706 33.4827 108.529 33.3677 108.398 33.1617C108.313 33.0293 108.276 32.8978 108.286 32.7673C108.308 32.6394 108.334 32.5661 108.363 32.5473C108.378 32.538 108.42 32.5473 108.49 32.5753C108.571 32.606 108.662 32.626 108.761 32.6353C108.867 32.6399 108.976 32.607 109.086 32.5366C109.29 32.3858 109.382 32.1819 109.363 31.9249C109.344 31.6679 109.26 31.4217 109.11 31.1862C108.945 30.9287 108.73 30.7295 108.464 30.5885C108.199 30.4476 107.948 30.4522 107.713 30.6023C107.499 30.7384 107.362 30.8882 107.3 31.0515C107.244 31.2223 107.234 31.4351 107.273 31.6901C107.323 31.9477 107.4 32.2712 107.504 32.6607C107.607 33.0501 107.681 33.4014 107.726 33.7146C107.775 34.0351 107.75 34.3203 107.65 34.57C107.563 34.8225 107.365 35.0472 107.056 35.2443C106.747 35.4414 106.414 35.5291 106.059 35.5074C105.704 35.4856 105.357 35.3649 105.021 35.145C104.696 34.9278 104.409 34.6242 104.16 34.2343Z" fill="#CCC9C4"/>
<path d="M37.5688 106.918C36.7777 106.473 36.246 105.994 35.974 105.481C35.7062 104.96 35.7241 104.429 36.0277 103.889C36.1816 103.615 36.399 103.442 36.68 103.37C36.9728 103.294 37.2675 103.34 37.5642 103.506C37.7577 103.625 37.8668 103.752 37.8916 103.886C37.924 104.024 37.9273 104.116 37.9017 104.162C37.8931 104.177 37.8439 104.184 37.7541 104.184C37.6685 104.176 37.5658 104.198 37.4461 104.251C37.3306 104.296 37.2215 104.41 37.1189 104.593C36.9265 104.935 36.879 105.269 36.9766 105.594C37.0784 105.911 37.3613 106.2 37.8254 106.461C38.1525 106.645 38.4644 106.74 38.761 106.747C39.0695 106.75 39.3402 106.687 39.5731 106.558C39.8103 106.421 39.9887 106.246 40.1085 106.033C40.288 105.713 40.3443 105.399 40.2772 105.091C40.21 104.783 40.0688 104.474 39.8533 104.162C39.6498 103.848 39.4229 103.53 39.1728 103.209C38.9226 102.889 38.6984 102.557 38.5 102.216C38.3093 101.878 38.1915 101.527 38.1468 101.161C38.1062 100.788 38.1933 100.401 38.4081 100.001C38.6699 99.518 38.9906 99.1877 39.3704 99.0108C39.7544 98.8262 40.1751 98.7724 40.6325 98.8492C41.0941 98.9185 41.5569 99.0835 42.0209 99.3444C42.3633 99.5368 42.6702 99.7744 42.9417 100.057C43.2209 100.344 43.4071 100.654 43.5003 100.987C43.6055 101.316 43.5619 101.652 43.3694 101.994C43.2155 102.268 42.9921 102.443 42.6993 102.519C42.4184 102.591 42.1296 102.544 41.8329 102.377C41.6437 102.251 41.5307 102.122 41.4941 101.991C41.4693 101.857 41.4698 101.768 41.4954 101.722C41.5083 101.699 41.5689 101.698 41.6773 101.719C41.7899 101.732 41.9154 101.723 42.0538 101.69C42.1964 101.65 42.3168 101.543 42.4152 101.368C42.5777 101.079 42.5914 100.796 42.4563 100.52C42.3255 100.236 42.0965 100.002 41.7694 99.8186C41.2749 99.5407 40.8473 99.4555 40.4865 99.563C40.1376 99.6673 39.8819 99.8639 39.7194 100.153C39.5612 100.434 39.509 100.705 39.5628 100.966C39.6166 101.226 39.7486 101.526 39.9588 101.864C40.1986 102.239 40.4485 102.605 40.7086 102.961C40.973 103.31 41.2001 103.663 41.3899 104.02C41.5873 104.381 41.696 104.758 41.7161 105.149C41.7405 105.534 41.6265 105.95 41.3742 106.399C41.1562 106.787 40.8399 107.065 40.4254 107.232C40.0186 107.404 39.5644 107.464 39.0628 107.412C38.5613 107.36 38.0633 107.196 37.5688 106.918Z" fill="#CCC9C4"/>
<path d="M42.0955 108.992C42.0393 108.968 42.0013 108.923 41.9816 108.858C41.9733 108.788 41.9811 108.725 42.0049 108.669C42.072 108.556 42.1314 108.505 42.1829 108.517C42.2379 108.522 42.3055 108.541 42.3858 108.575C42.6106 108.67 42.7785 108.699 42.8894 108.661C43.0037 108.614 43.0921 108.529 43.1546 108.404C43.2251 108.282 43.2893 108.153 43.3472 108.016L44.5162 105.259C44.5775 105.114 44.6256 104.978 44.6606 104.851C44.707 104.719 44.7054 104.6 44.6558 104.494C44.6095 104.379 44.474 104.275 44.2492 104.179C44.1769 104.149 44.1121 104.112 44.0547 104.069C44.0087 104.021 44.0112 103.936 44.0623 103.816C44.1133 103.696 44.2082 103.651 44.3468 103.681C44.74 103.781 45.0448 103.844 45.2613 103.87C45.4858 103.899 45.6588 103.915 45.7802 103.919C45.9016 103.923 46.0041 103.938 46.0878 103.964C46.1554 103.984 46.2025 104.018 46.2291 104.067C46.2636 104.119 46.2605 104.194 46.2196 104.29L44.4431 108.481C44.3852 108.618 44.3331 108.752 44.2866 108.884C44.2482 109.019 44.2522 109.144 44.2984 109.258C44.3561 109.368 44.4973 109.47 44.7221 109.565C44.7944 109.596 44.8512 109.63 44.8926 109.666C44.9454 109.698 44.9502 109.776 44.9072 109.9C44.8834 109.956 44.8435 110.005 44.7876 110.048C44.735 110.082 44.6767 110.086 44.6124 110.059C44.3864 109.944 44.1748 109.84 43.9774 109.747C43.7848 109.665 43.58 109.578 43.3633 109.487C43.1465 109.395 42.9418 109.308 42.7491 109.226C42.553 109.153 42.3351 109.074 42.0955 108.992ZM46.2691 102.464C46.0443 102.369 45.8846 102.221 45.7899 102.02C45.6986 101.81 45.6972 101.601 45.7857 101.393C45.864 101.208 46.0261 101.083 46.272 101.016C46.5179 100.95 46.7573 100.966 46.9901 101.065C47.1908 101.15 47.3248 101.292 47.392 101.491C47.4626 101.682 47.4519 101.886 47.36 102.103C47.2783 102.295 47.1323 102.428 46.9219 102.499C46.7115 102.571 46.4939 102.559 46.2691 102.464Z" fill="#CCC9C4"/>
<path d="M45.8924 110.586C45.8341 110.568 45.7918 110.527 45.7656 110.464C45.7503 110.396 45.7517 110.332 45.7697 110.274C45.8251 110.154 45.8791 110.098 45.9317 110.105C45.9868 110.103 46.0561 110.116 46.1395 110.142C46.3729 110.214 46.5429 110.225 46.6495 110.176C46.7587 110.118 46.838 110.024 46.8876 109.893C46.9456 109.765 46.9965 109.63 47.0403 109.489L47.9262 106.625C47.9727 106.475 48.0069 106.335 48.0289 106.204C48.0618 106.068 48.0482 105.95 47.988 105.849C47.9305 105.74 47.785 105.649 47.5515 105.577C47.4765 105.554 47.4082 105.524 47.3467 105.486C47.2961 105.443 47.2901 105.359 47.3288 105.234C47.3675 105.109 47.4574 105.055 47.5985 105.071C48 105.131 48.3099 105.163 48.528 105.167C48.7545 105.173 48.9242 105.171 49.0371 105.16C49.1584 105.152 49.262 105.156 49.348 105.174C49.4172 105.186 49.4676 105.215 49.4989 105.262C49.5386 105.31 49.543 105.385 49.5121 105.485L49.2683 106.273L49.3059 106.284C49.5216 106.177 49.7389 106.08 49.9578 105.993C50.1793 105.897 50.421 105.839 50.6828 105.82C50.9555 105.794 51.2669 105.836 51.6171 105.944C52.184 106.12 52.5813 106.43 52.8091 106.875C53.0368 107.32 53.0642 107.822 52.8914 108.38L52.0674 111.044C52.0236 111.185 51.9852 111.324 51.9523 111.46C51.9277 111.599 51.9442 111.723 52.0017 111.832C52.0702 111.935 52.2212 112.023 52.4546 112.095C52.5297 112.118 52.5896 112.146 52.6345 112.178C52.6903 112.205 52.703 112.282 52.6726 112.409C52.6546 112.468 52.6198 112.521 52.5684 112.569C52.5196 112.609 52.4619 112.618 52.3952 112.598C52.1586 112.506 51.9373 112.424 51.7315 112.351C51.5314 112.289 51.3188 112.223 51.0937 112.154C50.8686 112.084 50.656 112.018 50.4559 111.956C50.2533 111.903 50.0285 111.847 49.7816 111.789C49.7232 111.771 49.6809 111.73 49.6547 111.668C49.6394 111.599 49.6408 111.535 49.6589 111.477C49.7059 111.354 49.7557 111.297 49.8083 111.304C49.8718 111.305 49.9411 111.318 50.0161 111.341C50.2495 111.413 50.4195 111.425 50.5261 111.375C50.6436 111.32 50.7272 111.227 50.7768 111.097C50.8347 110.968 50.8856 110.833 50.9295 110.692L51.7496 108.041C51.8347 107.765 51.8418 107.521 51.7709 107.307C51.7084 107.096 51.5983 106.92 51.4407 106.78C51.283 106.64 51.1084 106.54 50.9166 106.481C50.6332 106.393 50.3663 106.37 50.116 106.412C49.8683 106.445 49.6571 106.507 49.4825 106.599C49.3078 106.691 49.18 106.78 49.099 106.864L48.1783 109.841C48.1344 109.982 48.0961 110.121 48.0631 110.257C48.0385 110.396 48.055 110.519 48.1126 110.629C48.1811 110.732 48.3321 110.82 48.5655 110.892C48.6405 110.915 48.7005 110.943 48.7453 110.975C48.8011 111.002 48.8138 111.079 48.7835 111.206C48.7654 111.265 48.7307 111.318 48.6793 111.366C48.6305 111.405 48.5727 111.415 48.506 111.394C48.2694 111.303 48.0482 111.221 47.8423 111.148C47.6423 111.086 47.4297 111.02 47.2046 110.951C46.9795 110.881 46.7669 110.815 46.5668 110.753C46.3641 110.7 46.1394 110.644 45.8924 110.586Z" fill="#CCC9C4"/>
<path d="M55.4104 113.155C54.5254 112.998 53.8834 112.595 53.4844 111.948C53.0954 111.294 52.9834 110.503 53.1484 109.575C53.2796 108.987 53.5188 108.489 53.8661 108.081C54.222 107.674 54.6462 107.382 55.1388 107.203C55.6416 107.018 56.1694 106.966 56.7223 107.046C57.0231 107.1 57.3212 107.193 57.6168 107.325C57.9224 107.45 58.1608 107.63 58.3319 107.864C58.5131 108.091 58.5716 108.385 58.5075 108.746C58.4632 108.995 58.3446 109.214 58.1518 109.401C57.9605 109.58 57.7273 109.645 57.4524 109.596C57.2634 109.562 57.1257 109.489 57.0394 109.376C56.9531 109.263 56.9138 109.185 56.9214 109.142C56.9245 109.125 56.9649 109.097 57.0428 109.058C57.1309 109.011 57.2176 108.947 57.3032 108.865C57.3902 108.774 57.4467 108.655 57.4727 108.509C57.5216 108.234 57.4587 108.015 57.284 107.851C57.1093 107.687 56.8981 107.578 56.6505 107.525C56.2724 107.458 55.9536 107.481 55.6942 107.595C55.4433 107.71 55.2348 107.885 55.0687 108.122C54.9041 108.349 54.7736 108.61 54.6772 108.903C54.5894 109.198 54.5202 109.487 54.4698 109.77C54.3858 110.243 54.3833 110.681 54.4621 111.085C54.5425 111.48 54.6968 111.809 54.9249 112.071C55.1531 112.334 55.4519 112.497 55.8214 112.563C56.1994 112.63 56.5318 112.605 56.8186 112.488C57.1054 112.37 57.3844 112.172 57.6558 111.892C57.7312 111.817 57.8229 111.824 57.931 111.914C57.985 111.959 58.0196 112.014 58.0347 112.079C58.0497 112.144 58.0305 112.202 57.9768 112.255C57.6215 112.608 57.2119 112.868 56.7482 113.034C56.2859 113.191 55.84 113.231 55.4104 113.155Z" fill="#CCC9C4"/>
<path d="M61.9287 113.857C61.258 113.816 60.7005 113.638 60.2563 113.322C59.8208 113.007 59.5043 112.604 59.3069 112.111C59.1095 111.618 59.0279 111.088 59.0622 110.522C59.0855 110.139 59.1733 109.773 59.3256 109.424C59.4871 109.066 59.7032 108.747 59.9738 108.466C60.2449 108.177 60.5643 107.956 60.932 107.803C61.2997 107.65 61.71 107.588 62.1629 107.615C62.9643 107.664 63.5527 107.909 63.928 108.352C64.3126 108.786 64.5161 109.323 64.5385 109.963C64.52 110.267 64.4208 110.463 64.2407 110.548C64.0694 110.634 63.8488 110.668 63.5787 110.652L60.4037 110.459C60.3731 110.965 60.4153 111.422 60.5303 111.831C60.6459 112.231 60.8447 112.558 61.1266 112.811C61.4177 113.056 61.8116 113.194 62.3081 113.224C62.6739 113.246 62.9923 113.187 63.2631 113.046C63.5339 112.905 63.8032 112.646 64.0708 112.269C64.1458 112.186 64.2419 112.187 64.3591 112.273C64.4266 112.312 64.4668 112.371 64.4794 112.451C64.4926 112.521 64.4802 112.582 64.4422 112.632C64.1463 113.042 63.7862 113.357 63.3621 113.576C62.9379 113.795 62.4601 113.889 61.9287 113.857ZM60.4338 109.963L62.5636 110.092C62.7726 110.105 62.9405 110.076 63.0672 110.005C63.2031 109.925 63.2815 109.786 63.3024 109.586C63.3251 109.211 63.2406 108.874 63.049 108.574C62.8666 108.266 62.562 108.099 62.1352 108.073C61.6997 108.046 61.3233 108.198 61.006 108.529C60.6974 108.86 60.5067 109.338 60.4338 109.963Z" fill="#CCC9C4"/>
<path d="M69.3149 113.606C69.1504 113.627 69.028 113.598 68.9479 113.52C68.8677 113.442 68.8189 113.334 68.8014 113.196C68.7937 112.994 68.8303 112.831 68.9114 112.707C68.9924 112.582 69.1206 112.447 69.2958 112.302C69.5889 112.045 69.8971 111.769 70.2204 111.473C70.5438 111.177 70.8422 110.858 71.1158 110.516C71.3882 110.165 71.5962 109.791 71.7398 109.395C71.892 108.998 71.9387 108.565 71.8798 108.098C71.8274 107.682 71.6745 107.376 71.421 107.179C71.1751 106.973 70.853 106.895 70.4548 106.945C70.1257 106.986 69.859 107.103 69.6547 107.296C69.4503 107.489 69.3672 107.737 69.4053 108.04C69.4239 108.187 69.4743 108.308 69.5567 108.404C69.6379 108.49 69.717 108.559 69.7939 108.611C69.8784 108.653 69.9217 108.683 69.9239 108.7C69.9294 108.744 69.8861 108.819 69.7942 108.928C69.7023 109.036 69.5611 109.102 69.3707 109.126C69.0936 109.161 68.8662 109.102 68.6886 108.948C68.5109 108.795 68.4063 108.593 68.3746 108.341C68.3277 107.969 68.4108 107.651 68.6237 107.386C68.8454 107.121 69.1272 106.914 69.4691 106.765C69.8185 106.607 70.1664 106.506 70.5127 106.462C70.8937 106.414 71.2742 106.433 71.6542 106.517C72.0418 106.591 72.3704 106.756 72.6402 107.012C72.9186 107.268 73.0878 107.633 73.1478 108.11C73.198 108.508 73.1529 108.883 73.0125 109.235C72.8797 109.577 72.6874 109.9 72.4355 110.205C72.1835 110.509 71.9029 110.795 71.5936 111.063C71.293 111.329 70.9907 111.583 70.6867 111.823C70.3828 112.064 70.1179 112.3 69.8919 112.531L69.9 112.595L73.3806 112.157C73.5538 112.135 73.7037 112.138 73.8304 112.166C73.956 112.186 74.0329 112.308 74.0613 112.533C74.1006 112.845 73.9687 113.02 73.6656 113.058L69.3149 113.606Z" fill="#CCC9C4"/>
<path d="M79.1289 112.086C78.4451 112.265 77.8364 112.249 77.3027 112.037C76.7667 111.817 76.3192 111.469 75.9603 110.995C75.6097 110.519 75.3558 109.981 75.1986 109.382C75.0392 108.774 74.9963 108.181 75.0701 107.602C75.15 107.013 75.3716 106.499 75.7348 106.061C76.0958 105.614 76.6182 105.301 77.3019 105.122C77.9603 104.949 78.5564 104.969 79.0901 105.18C79.6239 105.392 80.0744 105.734 80.4419 106.206C80.8071 106.67 81.0683 107.201 81.2255 107.801C81.3407 108.239 81.3861 108.688 81.3617 109.145C81.3436 109.592 81.2523 110.017 81.0876 110.422C80.9207 110.817 80.6728 111.162 80.3439 111.456C80.0235 111.747 79.6184 111.957 79.1289 112.086ZM79.0186 111.614C79.5842 111.466 79.9556 111.093 80.1328 110.496C80.3078 109.891 80.2669 109.099 80.01 108.119C79.7531 107.14 79.4021 106.438 78.9569 106.014C78.5095 105.581 78.003 105.439 77.4375 105.587C76.8551 105.74 76.4752 106.115 76.298 106.711C76.1185 107.3 76.1573 108.084 76.4141 109.063C76.671 110.042 77.0243 110.752 77.4739 111.194C77.9213 111.627 78.4362 111.767 79.0186 111.614Z" fill="#CCC9C4"/>
<path d="M85.8903 109.681C85.2329 109.949 84.6245 110.013 84.065 109.873C83.5022 109.724 83.0109 109.437 82.5909 109.012C82.1791 108.583 81.8555 108.081 81.62 107.505C81.3813 106.92 81.2605 106.335 81.2578 105.749C81.2599 105.152 81.413 104.611 81.7172 104.127C82.018 103.634 82.4971 103.254 83.1544 102.985C83.7875 102.727 84.3837 102.668 84.9432 102.808C85.5027 102.949 85.9964 103.231 86.4245 103.652C86.8492 104.066 87.1793 104.561 87.4147 105.137C87.5872 105.559 87.6914 106 87.7273 106.458C87.7681 106.906 87.733 107.342 87.6222 107.766C87.5081 108.182 87.3065 108.558 87.0176 108.894C86.7367 109.226 86.361 109.489 85.8903 109.681ZM85.7184 109.225C86.2621 109.003 86.583 108.583 86.681 107.966C86.7757 107.34 86.6307 106.556 86.246 105.615C85.8614 104.673 85.4194 104.02 84.9202 103.656C84.4176 103.284 83.8944 103.209 83.3507 103.431C82.7907 103.66 82.4617 104.083 82.3637 104.701C82.2624 105.31 82.404 106.086 82.7887 107.027C83.1734 107.969 83.6187 108.63 84.1245 109.01C84.6271 109.383 85.1584 109.454 85.7184 109.225Z" fill="#CCC9C4"/>
<path d="M89.6525 107.8C89.5767 107.843 89.5085 107.847 89.4479 107.811C89.383 107.768 89.331 107.712 89.2921 107.644C89.2217 107.503 89.2109 107.414 89.2597 107.376C89.3084 107.338 89.3744 107.295 89.4578 107.248C89.7836 107.061 90.0326 106.899 90.2048 106.761C90.3802 106.61 90.4684 106.439 90.4695 106.248C90.4663 106.048 90.3695 105.782 90.1791 105.449L88.8289 103.084C88.6461 102.747 88.4902 102.509 88.3615 102.372C88.2327 102.234 88.1039 102.167 87.9751 102.17C87.8463 102.173 87.6931 102.231 87.5156 102.342C87.3413 102.442 87.1118 102.568 86.8271 102.72C86.7513 102.763 86.6831 102.767 86.6225 102.732C86.5576 102.688 86.5056 102.632 86.4667 102.564C86.3963 102.424 86.3834 102.33 86.4278 102.285C86.4722 102.24 86.536 102.193 86.6194 102.145C86.877 101.998 87.1206 101.809 87.3502 101.577C87.5873 101.341 87.7881 101.121 87.9527 100.917C88.1205 100.7 88.2283 100.563 88.2759 100.506C88.3235 100.449 88.388 100.412 88.4691 100.396C88.546 100.372 88.6255 100.432 88.7078 100.576L91.1681 104.884C91.3585 105.217 91.5386 105.436 91.7085 105.54C91.8741 105.636 92.0625 105.649 92.2736 105.579C92.4879 105.497 92.758 105.363 93.0838 105.177C93.1672 105.129 93.2376 105.094 93.2949 105.071C93.3523 105.049 93.4237 105.103 93.5092 105.235C93.5482 105.304 93.5698 105.377 93.5741 105.455C93.5817 105.521 93.5438 105.577 93.4604 105.625C93.2742 105.721 93.0539 105.837 92.7995 105.972C92.557 106.111 92.3161 106.243 92.0769 106.37C91.8496 106.5 91.6677 106.604 91.5313 106.681C91.4024 106.755 91.2206 106.859 90.9857 106.993C90.7626 107.13 90.5261 107.271 90.276 107.413C90.0379 107.559 89.83 107.688 89.6525 107.8Z" fill="#CCC9C4"/>
<path d="M18.9828 61.8424C18.494 64.9582 17.8067 67.9823 16.9209 70.9148C16.0656 73.8473 15.1186 76.0008 14.0801 77.3754C13.0415 78.75 11.7891 79.4373 10.3228 79.4373C9.25368 79.4373 8.71912 79.0249 8.71912 78.2002C8.71912 77.5281 8.94822 77.0547 9.40642 76.7797C9.86462 76.5048 10.3992 76.3063 11.0101 76.1841C11.6516 76.0313 12.064 75.8633 12.2473 75.6801C13.3775 74.4887 14.4161 72.3657 15.363 69.3111C16.3405 66.2259 17.0431 63.0948 17.4707 59.918C16.1572 58.5434 15.5005 57.4284 15.5005 56.5731C15.5005 55.7178 15.7448 54.7403 16.2336 53.6406C16.7223 52.5104 17.3027 51.9453 17.9748 51.9453C18.3719 51.9453 18.7231 52.434 19.0286 53.4115C19.3341 54.389 19.4868 55.6109 19.4868 57.0771C21.0752 59.0932 22.3124 60.8344 23.1982 62.3006C24.1452 59.1849 25.4434 56.5731 27.0929 54.4654C28.7425 52.3271 30.6364 51.258 32.7746 51.258C33.5383 51.258 34.1492 51.5329 34.6074 52.0828C35.0656 52.6326 35.2947 53.2435 35.2947 53.9156C35.2947 54.5876 35.1573 55.1985 34.8823 55.7484C34.638 56.2677 34.302 56.5273 33.8743 56.5273C33.4466 56.5273 33.2328 56.3135 33.2328 55.8858C33.2328 55.4582 33.0954 55.1374 32.8204 54.9236C32.5761 54.6792 32.2553 54.557 31.8582 54.557C30.6058 54.557 29.4298 55.2138 28.3301 56.5273C26.7722 58.3906 25.474 61.0482 24.4354 64.5C26.4515 68.8376 27.4595 72.3505 27.4595 75.0386C27.4595 76.1383 27.2151 77.1158 26.7264 77.9711C26.2376 78.7958 25.5198 79.2082 24.5728 79.2082C22.5568 79.2082 21.5487 77.4976 21.5487 74.0764C21.5487 71.6632 21.732 69.3722 22.0986 67.2034C21.1822 65.2484 20.1436 63.4614 18.9828 61.8424ZM23.1982 70.2275C23.0455 71.3272 22.9691 72.4574 22.9691 73.6182C22.9691 74.7789 23.0455 75.6801 23.1982 76.3215C23.351 76.963 23.519 77.2838 23.7023 77.2838C24.0688 77.2838 24.2521 76.6576 24.2521 75.4051C24.2521 74.1527 23.9008 72.4268 23.1982 70.2275ZM44.3703 78.9791C43.179 78.9791 42.2779 78.7347 41.6669 78.246C41.4531 78.0322 41.3462 77.4976 41.3462 76.6423C41.3462 75.7564 41.3767 74.5804 41.4378 73.1141C40.6436 75.0997 39.8494 76.5812 39.0552 77.5587C38.2915 78.5056 37.2987 78.9791 36.0769 78.9791C34.855 78.9791 33.7859 78.414 32.8695 77.2838C31.9531 76.123 31.4949 74.3207 31.4949 71.877C31.4949 69.4027 32.1822 67.2186 33.5568 65.3247C34.9619 63.4308 36.7947 62.4839 39.0552 62.4839C40.0327 62.4839 41.1324 63.1254 42.3542 64.4083C42.5986 64.0723 43.0262 63.6752 43.6372 63.217C44.2787 62.7283 44.8132 62.4839 45.2409 62.4839C45.6991 62.4839 45.9282 63.0643 45.9282 64.2251C45.9282 64.5305 45.8365 65.1262 45.6533 66.012C45.5005 66.8979 45.3172 67.5394 45.1034 67.9365C44.8285 68.6391 44.691 71.1286 44.691 75.4051C44.691 76.2299 44.7827 76.6423 44.966 76.6423C45.4853 76.6117 46.2031 75.9703 47.1195 74.7178C48.0359 73.4349 48.937 71.8006 49.8229 69.8151C50.7393 67.8296 51.2891 66.8368 51.4724 66.8368C51.6862 66.8368 51.7931 66.959 51.7931 67.2034C51.7931 68.0587 51.3502 69.418 50.4644 71.2813C48.0512 76.4132 46.0198 78.9791 44.3703 78.9791ZM38.7803 64.3167C37.925 64.3167 37.0086 64.9582 36.0311 66.2411C35.0841 67.4936 34.6106 68.9751 34.6106 70.6857C34.6106 72.3963 34.855 73.8014 35.3438 74.9011C35.8631 76.0008 36.5351 76.5506 37.3598 76.5506C38.3679 76.5506 39.8494 74.0305 41.8044 68.9903C41.8349 68.746 41.8655 68.3336 41.896 67.7532C41.9571 67.1423 42.0029 66.6841 42.0335 66.3786C41.7586 65.8899 41.2698 65.4317 40.5672 65.004C39.8952 64.5458 39.2996 64.3167 38.7803 64.3167ZM59.299 71.2813C56.8858 76.4132 54.8392 78.9791 53.1591 78.9791C51.5096 78.9791 50.5321 78.7805 50.2267 78.3834C49.9517 77.9863 49.8143 76.6728 49.8143 74.4429C49.8143 72.213 50.0281 68.9903 50.4558 64.7749C48.9284 64.4694 48.1189 63.8432 48.0273 62.8963C48.0273 62.4075 48.348 62.1632 48.9895 62.1632C49.631 62.1632 50.1961 62.2853 50.6849 62.5297C50.9598 60.3304 51.2805 58.1005 51.6471 55.84C51.7387 55.2596 52.0289 54.7098 52.5177 54.1905C53.0064 53.6712 53.4799 53.4115 53.9381 53.4115C54.3352 53.4115 54.5337 54.0377 54.5337 55.2902C54.5337 55.8705 54.3199 58.5434 53.8923 63.3087C54.717 63.1559 55.6182 62.8505 56.5956 62.3923C57.6037 61.9341 58.1993 61.705 58.3826 61.705C58.9325 61.705 59.2074 61.873 59.2074 62.209C59.2379 62.5144 58.6728 62.9421 57.512 63.4919C56.3513 64.0112 55.0989 64.4083 53.7548 64.6833C53.3882 69.1431 53.205 72.5185 53.205 74.8095C53.205 76.0313 53.3882 76.6423 53.7548 76.6423C54.3046 76.6117 55.0378 75.9703 55.9542 74.7178C56.8706 73.4654 57.7717 71.8465 58.6575 69.8609C59.5739 67.8448 60.1238 66.8368 60.3071 66.8368C60.5209 66.8368 60.6278 66.959 60.6278 67.2034C60.6278 68.0587 60.1849 69.418 59.299 71.2813ZM58.253 74.7637L58.528 69.6318C58.528 66.3633 58.6807 64.5763 58.9862 64.2709C59.2916 63.9654 59.8262 63.5225 60.5899 62.9421C61.3841 62.3312 61.9492 62.0257 62.2852 62.0257C62.6518 62.0257 62.8809 62.0868 62.9725 62.209C63.0641 62.3312 63.11 62.5755 63.11 62.9421C63.11 64.2556 62.8198 65.5844 62.2394 66.9284C61.7812 69.7387 61.5521 72.045 61.5521 73.8473C61.5521 75.6495 61.8423 76.5506 62.4227 76.5506C63.1252 76.5506 63.95 75.9397 64.8969 74.7178C65.8439 73.496 66.7908 71.6784 67.7378 69.2653C68.0127 66.2106 68.2265 64.5611 68.3793 64.3167C68.5625 64.0723 68.9902 63.6294 69.6622 62.9879C70.3342 62.3464 70.8841 62.0257 71.3117 62.0257C71.7699 62.0257 71.999 62.6061 71.999 63.7669C71.999 64.0723 71.9074 64.668 71.7241 65.5538C71.5714 66.4397 71.3881 67.0812 71.1743 67.4783C70.8383 68.3336 70.6703 70.9759 70.6703 75.4051C70.6703 76.2299 70.7619 76.6423 70.9452 76.6423C71.4645 76.6117 72.1823 75.9703 73.0987 74.7178C74.0151 73.4349 74.9162 71.8006 75.8021 69.8151C76.7185 67.8296 77.2683 66.8368 77.4516 66.8368C77.6654 66.8368 77.7724 66.959 77.7724 67.2034C77.7724 68.0587 77.3294 69.418 76.4436 71.2813C74.0304 76.4132 71.999 78.9791 70.3495 78.9791C69.1582 78.9791 68.2571 78.7347 67.6461 78.246C67.4323 78.0322 67.3254 77.3754 67.3254 76.2757C67.3254 75.176 67.3712 73.9542 67.4629 72.6101C66.4854 74.6873 65.5079 76.2757 64.5304 77.3754C63.5529 78.4445 62.4532 78.9791 61.2313 78.9791C60.04 78.9791 59.2458 78.6584 58.8487 78.0169C58.4516 77.3754 58.253 76.291 58.253 74.7637ZM78.9744 66.791L81.4945 66.5161C81.7389 66.5161 81.9527 66.6535 82.136 66.9284C82.3193 67.2034 82.4109 67.4936 82.4109 67.799C82.4109 68.1045 82.304 69.1431 82.0902 70.9148C81.9069 72.6865 81.8153 74.0916 81.8153 75.1302C81.8153 76.1383 81.9069 76.6423 82.0902 76.6423C82.6095 76.6117 83.3273 75.9703 84.2437 74.7178C85.1601 73.4349 86.0612 71.8006 86.9471 69.8151C87.8635 67.8296 88.4133 66.8368 88.5966 66.8368C88.8105 66.8368 88.9174 66.959 88.9174 67.2034C88.9174 68.0587 88.4744 69.418 87.5886 71.2813C85.1754 76.4132 83.144 78.9791 81.4945 78.9791C80.3032 78.9791 79.4021 78.7347 78.7911 78.246C78.5773 78.0322 78.4704 76.7034 78.4704 74.2596C78.4704 71.8159 78.73 69.7235 79.2493 67.9823C77.4776 67.9823 76.2405 67.4172 75.5379 66.287C75.1714 65.7066 74.9881 65.0498 74.9881 64.3167C74.9881 63.5836 75.1408 62.9421 75.4463 62.3923C75.7517 61.8424 76.1794 61.5675 76.7292 61.5675C77.3096 61.5675 77.8289 61.873 78.2871 62.4839C78.7759 63.0643 79.0202 63.721 79.0202 64.4542C79.0202 65.1873 78.8064 65.9204 78.3788 66.6535C78.5009 66.7452 78.6995 66.791 78.9744 66.791ZM99.5422 78.9791C98.3509 78.9791 97.4498 78.7347 96.8388 78.246C96.625 78.0322 96.5181 77.4976 96.5181 76.6423C96.5181 75.7564 96.5487 74.5804 96.6097 73.1141C95.8155 75.0997 95.0213 76.5812 94.2271 77.5587C93.4634 78.5056 92.4707 78.9791 91.2488 78.9791C90.0269 78.9791 88.9578 78.414 88.0414 77.2838C87.125 76.123 86.6668 74.3207 86.6668 71.877C86.6668 69.4027 87.3541 67.2186 88.7287 65.3247C90.1339 63.4308 91.9667 62.4839 94.2271 62.4839C95.2046 62.4839 96.3043 63.1254 97.5261 64.4083C97.7705 64.0723 98.1982 63.6752 98.8091 63.217C99.4506 62.7283 99.9852 62.4839 100.413 62.4839C100.871 62.4839 101.1 63.0643 101.1 64.2251C101.1 64.5305 101.008 65.1262 100.825 66.012C100.672 66.8979 100.489 67.5394 100.275 67.9365C100 68.6391 99.863 71.1286 99.863 75.4051C99.863 76.2299 99.9546 76.6423 100.138 76.6423C100.657 76.6117 101.375 75.9703 102.291 74.7178C103.208 73.4349 104.109 71.8006 104.995 69.8151C105.911 67.8296 106.461 66.8368 106.644 66.8368C106.858 66.8368 106.965 66.959 106.965 67.2034C106.965 68.0587 106.522 69.418 105.636 71.2813C103.223 76.4132 101.192 78.9791 99.5422 78.9791ZM93.9522 64.3167C93.0969 64.3167 92.1805 64.9582 91.203 66.2411C90.256 67.4936 89.7826 68.9751 89.7826 70.6857C89.7826 72.3963 90.0269 73.8014 90.5157 74.9011C91.035 76.0008 91.707 76.5506 92.5318 76.5506C93.5398 76.5506 95.0213 74.0305 96.9763 68.9903C97.0069 68.746 97.0374 68.3336 97.0679 67.7532C97.129 67.1423 97.1749 66.6841 97.2054 66.3786C96.9305 65.8899 96.4417 65.4317 95.7392 65.004C95.0671 64.5458 94.4715 64.3167 93.9522 64.3167ZM107.552 78.9791C106.88 78.9791 106.254 78.9027 105.674 78.75C105.124 78.5667 104.788 78.3987 104.665 78.246C104.36 77.8794 104.207 75.9855 104.207 72.5643C104.207 69.1125 104.589 64.4389 105.353 58.5434C105.994 53.6865 107.491 51.258 109.843 51.258C110.393 51.258 110.79 51.5635 111.034 52.1744C111.279 52.7548 111.401 53.3199 111.401 53.8697C111.401 57.8408 110.194 62.2853 107.781 67.2034C107.69 69.7387 107.644 71.9534 107.644 73.8473C107.644 75.7106 107.812 76.6423 108.148 76.6423C108.667 76.6117 109.385 75.9703 110.301 74.7178C111.218 73.4349 112.119 71.8006 113.005 69.8151C113.921 67.8296 114.471 66.8368 114.654 66.8368C114.868 66.8368 114.975 66.959 114.975 67.2034C114.975 68.0587 114.532 69.418 113.646 71.2813C111.233 76.4132 109.202 78.9791 107.552 78.9791ZM110.256 54.2821C110.256 53.3046 110.133 52.8159 109.889 52.8159C108.973 52.8159 108.301 56.6189 107.873 64.2251C109.461 60.0402 110.256 56.7259 110.256 54.2821Z" fill="#CCC9C4"/>
<path d="M57.5137 92.8195C56.6491 92.8195 55.984 92.6698 55.5185 92.3705C55.0529 92.063 54.8201 91.614 54.8201 91.0238C54.8201 90.7245 54.9199 90.4793 55.1194 90.2881C55.3272 90.0885 55.5933 89.9888 55.9175 89.9888C56.1336 89.9971 56.2833 90.0511 56.3664 90.1509C56.4579 90.2506 56.5036 90.3255 56.5036 90.3753C56.5036 90.392 56.4662 90.4211 56.3914 90.4626C56.3165 90.4959 56.2417 90.5624 56.1669 90.6622C56.0921 90.7536 56.0547 90.8991 56.0547 91.0986C56.0547 91.4727 56.1711 91.772 56.4038 91.9964C56.6366 92.2126 57.0065 92.3207 57.5137 92.3207C57.8711 92.3207 58.1746 92.2542 58.424 92.1211C58.6817 91.9798 58.877 91.8011 59.0101 91.5849C59.1431 91.3605 59.2096 91.1319 59.2096 90.8991C59.2096 90.5499 59.1098 90.2631 58.9103 90.0387C58.7108 89.8142 58.4489 89.623 58.1247 89.465C57.8088 89.2988 57.4721 89.1408 57.1146 88.9912C56.7571 88.8415 56.4163 88.6711 56.0921 88.4799C55.7762 88.2887 55.5143 88.0518 55.3065 87.7691C55.0986 87.4782 54.9906 87.1165 54.9822 86.6842C54.9739 86.1605 55.0862 85.7365 55.3189 85.4123C55.5517 85.0798 55.8759 84.8387 56.2916 84.689C56.7073 84.5311 57.1687 84.4521 57.6758 84.4521C58.0499 84.4521 58.4157 84.5061 58.7731 84.6142C59.1389 84.7223 59.4382 84.8927 59.671 85.1255C59.9121 85.3499 60.0326 85.6492 60.0326 86.0233C60.0326 86.3226 59.9287 86.572 59.7208 86.7715C59.5213 86.9627 59.2595 87.0583 58.9352 87.0583C58.7191 87.0417 58.5653 86.9877 58.4738 86.8962C58.3907 86.7965 58.3491 86.7216 58.3491 86.6718C58.3491 86.6468 58.399 86.6177 58.4988 86.5845C58.5985 86.5429 58.6983 86.4764 58.7981 86.3849C58.8978 86.2852 58.9477 86.1397 58.9477 85.9485C58.9477 85.6326 58.8272 85.3915 58.5861 85.2252C58.345 85.0507 58.0457 84.9634 57.6882 84.9634C57.1479 84.9634 56.753 85.0922 56.5036 85.3499C56.2625 85.5993 56.142 85.882 56.142 86.1979C56.142 86.5055 56.2251 86.7549 56.3914 86.9461C56.5576 87.1373 56.807 87.3244 57.1396 87.5072C57.5137 87.7068 57.8919 87.8938 58.2743 88.0684C58.6567 88.2347 59.0101 88.4217 59.3343 88.6295C59.6668 88.8374 59.9328 89.0993 60.1324 89.4152C60.3319 89.7228 60.4316 90.1218 60.4316 90.6123C60.4316 91.0363 60.2986 91.4145 60.0326 91.747C59.7749 92.0796 59.4257 92.3415 58.9851 92.5327C58.5445 92.7239 58.054 92.8195 57.5137 92.8195ZM61.3201 92.6075C61.2536 92.6075 61.2037 92.5825 61.1705 92.5327C61.1372 92.4745 61.1206 92.4163 61.1206 92.3581C61.1289 92.2334 61.158 92.1669 61.2079 92.1586C61.2661 92.1419 61.3326 92.1336 61.4074 92.1336C61.6402 92.1336 61.7981 92.0962 61.8813 92.0214C61.9727 91.9383 62.0226 91.8302 62.0309 91.6972C62.0475 91.5642 62.0559 91.427 62.0559 91.2857V85.2128C62.0559 85.0631 62.0475 84.926 62.0309 84.8013C62.0226 84.6682 61.9769 84.5643 61.8937 84.4895C61.8106 84.4064 61.6527 84.3648 61.4199 84.3648C61.3451 84.3648 61.2744 84.3565 61.2079 84.3399C61.1497 84.3149 61.1206 84.2401 61.1206 84.1154C61.1206 83.9907 61.1871 83.9159 61.3201 83.8909C61.7025 83.8328 61.9935 83.7746 62.193 83.7164C62.4009 83.6582 62.5588 83.6083 62.6669 83.5667C62.775 83.5252 62.8706 83.5002 62.9537 83.4919C63.0202 83.4836 63.0742 83.4961 63.1158 83.5293C63.1657 83.5626 63.1906 83.6291 63.1906 83.7288V89.4276C63.5564 89.3528 63.8557 89.199 64.0885 88.9662L65.1359 87.8938C65.1858 87.8356 65.2399 87.7733 65.2981 87.7068C65.3646 87.6403 65.402 87.5779 65.4103 87.5197C65.4269 87.4615 65.3937 87.4158 65.3105 87.3825C65.2274 87.3493 65.0694 87.341 64.8367 87.3576C64.7452 87.341 64.6953 87.2662 64.687 87.1331C64.687 87.0666 64.7037 87.0084 64.7369 86.9586C64.7785 86.9087 64.8284 86.8837 64.8865 86.8837C65.0778 86.8921 65.3064 86.9004 65.5724 86.9087C65.8467 86.917 66.0754 86.9212 66.2582 86.9212C66.3996 86.9212 66.5367 86.917 66.6698 86.9087C66.8111 86.9004 66.9524 86.8921 67.0937 86.8837C67.1602 86.8837 67.2101 86.9087 67.2434 86.9586C67.2766 87.0084 67.2933 87.0666 67.2933 87.1331C67.2849 87.2412 67.26 87.3077 67.2184 87.3327C67.1852 87.3493 67.1395 87.3576 67.0813 87.3576C66.757 87.3576 66.4952 87.4158 66.2957 87.5322C66.0961 87.6486 65.8717 87.8356 65.6223 88.0933L64.5748 89.1658C64.6746 89.2988 64.8076 89.4609 64.9738 89.6521C65.1401 89.8433 65.3147 90.047 65.4976 90.2631C65.6888 90.471 65.8675 90.6705 66.0338 90.8617C66.2001 91.0446 66.3331 91.1942 66.4328 91.3106C66.6739 91.5683 66.8734 91.7678 67.0314 91.9092C67.1977 92.0422 67.4013 92.117 67.6424 92.1336C67.7089 92.1419 67.7713 92.1544 67.8295 92.171C67.8877 92.1793 67.9168 92.2417 67.9168 92.3581C67.9168 92.4163 67.9001 92.4745 67.8669 92.5327C67.8419 92.5825 67.7921 92.6075 67.7172 92.6075C67.6008 92.5992 67.5052 92.5909 67.4304 92.5825C67.3556 92.5825 67.2725 92.5784 67.181 92.5701C67.0896 92.5701 66.9566 92.5701 66.782 92.5701C66.6157 92.5701 66.3746 92.5701 66.0587 92.5701C65.7678 92.2542 65.4311 91.8759 65.0487 91.4353C64.6746 90.9947 64.3005 90.5582 63.9264 90.1259C63.8432 90.0345 63.7351 89.9514 63.6021 89.8765C63.4774 89.7934 63.3403 89.7602 63.1906 89.7768V91.2857C63.1906 91.427 63.1948 91.5642 63.2031 91.6972C63.2197 91.8302 63.2696 91.9383 63.3527 92.0214C63.4442 92.0962 63.6021 92.1336 63.8266 92.1336C63.9097 92.1336 63.9762 92.1419 64.0261 92.1586C64.0843 92.1669 64.1176 92.2334 64.1259 92.3581C64.1259 92.4163 64.1092 92.4745 64.076 92.5327C64.0427 92.5825 63.9929 92.6075 63.9264 92.6075C63.6853 92.5909 63.4608 92.5784 63.253 92.5701C63.0451 92.5701 62.8332 92.5701 62.617 92.5701C62.3925 92.5701 62.1806 92.5701 61.981 92.5701C61.7815 92.5784 61.5612 92.5909 61.3201 92.6075ZM68.5201 92.6075C68.4619 92.6075 68.412 92.5825 68.3704 92.5327C68.3372 92.4745 68.3206 92.4163 68.3206 92.3581C68.3372 92.2334 68.3704 92.1669 68.4203 92.1586C68.4702 92.1419 68.5367 92.1336 68.6198 92.1336C68.8526 92.1336 69.0106 92.0962 69.0937 92.0214C69.1768 91.9383 69.2226 91.8302 69.2309 91.6972C69.2475 91.5642 69.2558 91.427 69.2558 91.2857V88.43C69.2558 88.2804 69.2475 88.1432 69.2309 88.0185C69.2226 87.8855 69.1768 87.7816 69.0937 87.7068C69.0106 87.6236 68.8526 87.5821 68.6198 87.5821C68.545 87.5821 68.4744 87.5738 68.4079 87.5571C68.3497 87.5322 68.3206 87.4574 68.3206 87.3327C68.3206 87.208 68.3871 87.1331 68.5201 87.1082C68.9025 87.05 69.1935 86.9918 69.393 86.9336C69.6008 86.8754 69.7588 86.8256 69.8668 86.784C69.9749 86.7424 70.0705 86.7175 70.1537 86.7092C70.2202 86.7009 70.2742 86.7133 70.3158 86.7466C70.3656 86.7798 70.3906 86.8463 70.3906 86.9461V91.2857C70.3906 91.427 70.3947 91.5642 70.4031 91.6972C70.4197 91.8302 70.4696 91.9383 70.5527 92.0214C70.6441 92.0962 70.8063 92.1336 71.039 92.1336C71.1138 92.1336 71.1762 92.1419 71.2261 92.1586C71.2843 92.1669 71.3175 92.2334 71.3258 92.3581C71.3258 92.4163 71.3092 92.4745 71.276 92.5327C71.2427 92.5825 71.1928 92.6075 71.1263 92.6075C70.8852 92.5909 70.6608 92.5784 70.4529 92.5701C70.2534 92.5701 70.0414 92.5701 69.817 92.5701C69.5925 92.5701 69.3805 92.5701 69.181 92.5701C68.9815 92.5784 68.7612 92.5909 68.5201 92.6075ZM69.7546 85.325C69.5218 85.325 69.3265 85.2543 69.1685 85.113C69.0106 84.9634 68.9316 84.7805 68.9316 84.5643C68.9316 84.3731 69.0272 84.2027 69.2184 84.0531C69.4096 83.9034 69.6258 83.8286 69.8668 83.8286C70.0747 83.8286 70.2451 83.9034 70.3781 84.0531C70.5111 84.1944 70.5776 84.3773 70.5776 84.6017C70.5776 84.8013 70.4987 84.9717 70.3407 85.113C70.1828 85.2543 69.9874 85.325 69.7546 85.325ZM72.1491 92.6075C72.0909 92.6075 72.041 92.5825 71.9994 92.5327C71.9662 92.4745 71.9495 92.4163 71.9495 92.3581C71.9662 92.2334 71.9994 92.1669 72.0493 92.1586C72.0992 92.1419 72.1657 92.1336 72.2488 92.1336C72.4816 92.1336 72.6395 92.0962 72.7227 92.0214C72.8058 91.9383 72.8515 91.8302 72.8598 91.6972C72.8765 91.5642 72.8848 91.427 72.8848 91.2857V88.43C72.8848 88.2804 72.8765 88.1432 72.8598 88.0185C72.8515 87.8855 72.8058 87.7816 72.7227 87.7068C72.6395 87.6236 72.4816 87.5821 72.2488 87.5821C72.174 87.5821 72.1033 87.5738 72.0368 87.5571C71.9786 87.5322 71.9495 87.4574 71.9495 87.3327C71.9495 87.208 72.016 87.1331 72.1491 87.1082C72.5315 87.05 72.8224 86.9918 73.022 86.9336C73.2298 86.8754 73.3836 86.8256 73.4833 86.784C73.5914 86.7424 73.687 86.7175 73.7702 86.7092C73.8367 86.7009 73.8907 86.7133 73.9323 86.7466C73.9821 86.7798 74.0071 86.8463 74.0071 86.9461V87.7317H74.0445C74.2108 87.5738 74.3812 87.4241 74.5558 87.2828C74.7303 87.1331 74.934 87.0126 75.1668 86.9212C75.4079 86.8214 75.703 86.7715 76.0522 86.7715C76.6175 86.7715 77.0664 86.9419 77.3989 87.2828C77.7315 87.6236 77.8977 88.0726 77.8977 88.6295V91.2857C77.8977 91.427 77.9019 91.5642 77.9102 91.6972C77.9268 91.8302 77.9767 91.9383 78.0598 92.0214C78.1513 92.0962 78.3134 92.1336 78.5462 92.1336C78.621 92.1336 78.6833 92.1419 78.7332 92.1586C78.7914 92.1669 78.8247 92.2334 78.833 92.3581C78.833 92.4163 78.8163 92.4745 78.7831 92.5327C78.7498 92.5825 78.7 92.6075 78.6335 92.6075C78.3924 92.5909 78.1679 92.5784 77.9601 92.5701C77.7606 92.5701 77.5486 92.5701 77.3241 92.5701C77.0996 92.5701 76.8877 92.5701 76.6881 92.5701C76.4886 92.5784 76.2683 92.5909 76.0272 92.6075C75.969 92.6075 75.9191 92.5825 75.8776 92.5327C75.8443 92.4745 75.8277 92.4163 75.8277 92.3581C75.836 92.2334 75.8651 92.1669 75.915 92.1586C75.9732 92.1419 76.0397 92.1336 76.1145 92.1336C76.3473 92.1336 76.5052 92.0962 76.5884 92.0214C76.6798 91.9383 76.7297 91.8302 76.738 91.6972C76.7546 91.5642 76.763 91.427 76.763 91.2857V88.642C76.763 88.3677 76.7006 88.1432 76.5759 87.9686C76.4595 87.7941 76.3099 87.6652 76.127 87.5821C75.9441 87.4989 75.757 87.4574 75.5658 87.4574C75.2832 87.4574 75.0338 87.5114 74.8176 87.6195C74.6015 87.7192 74.4269 87.8356 74.2939 87.9686C74.1609 88.1017 74.0694 88.218 74.0196 88.3178V91.2857C74.0196 91.427 74.0237 91.5642 74.032 91.6972C74.0486 91.8302 74.0985 91.9383 74.1817 92.0214C74.2731 92.0962 74.4352 92.1336 74.668 92.1336C74.7428 92.1336 74.8052 92.1419 74.855 92.1586C74.9132 92.1669 74.9465 92.2334 74.9548 92.3581C74.9548 92.4163 74.9382 92.4745 74.9049 92.5327C74.8717 92.5825 74.8218 92.6075 74.7553 92.6075C74.5142 92.5909 74.2897 92.5784 74.0819 92.5701C73.8824 92.5701 73.6704 92.5701 73.4459 92.5701C73.2215 92.5701 73.0095 92.5701 72.81 92.5701C72.6104 92.5784 72.3901 92.5909 72.1491 92.6075Z" fill="#CCC9C4"/>
<path d="M80.4891 47.9799C77.3791 51.0899 72.1791 50.9799 72.1791 50.9799C72.1791 50.9799 72.0191 45.7799 75.1791 42.6699C78.3391 39.5599 83.4991 39.6699 83.4991 39.6699C83.4991 39.6699 83.5991 44.8599 80.4891 47.9799Z" fill="#CCC9C4"/>
<path d="M52.0292 47.9799C55.1392 51.0899 60.3392 50.9799 60.3392 50.9799C60.3392 50.9799 60.4892 45.7799 57.3392 42.6699C54.1892 39.5599 49.0292 39.6699 49.0292 39.6699C49.0292 39.6699 48.9092 44.8599 52.0292 47.9799Z" fill="#CCC9C4"/>
<path d="M66.2591 26.02C66.2591 26.02 60.3391 31.6 60.3391 38.48C60.3391 43.23 63.1691 47.36 64.9091 49.48L66.2591 55.48V31.82L67.2591 49.82C68.9491 47.82 72.1491 43.53 72.1491 38.47C72.1791 31.6 66.2591 26.02 66.2591 26.02Z" fill="#CCC9C4"/>
<path d="M46.1891 47.0099C45.6307 46.4751 44.8873 46.1766 44.1141 46.1766C43.3409 46.1766 42.5976 46.4751 42.0391 47.0099C41.7678 47.2826 41.4453 47.4991 41.09 47.6467C40.7348 47.7944 40.3538 47.8704 39.9691 47.8704C39.5844 47.8704 39.2035 47.7944 38.8483 47.6467C38.493 47.4991 38.1705 47.2826 37.8991 47.0099C37.3498 46.4616 36.6053 46.1536 35.8291 46.1536C35.0529 46.1536 34.3085 46.4616 33.7591 47.0099C33.4869 47.2829 33.1635 47.4996 32.8075 47.6474C32.4514 47.7952 32.0697 47.8713 31.6841 47.8713C31.2986 47.8713 30.9169 47.7952 30.5608 47.6474C30.2047 47.4996 29.8813 47.2829 29.6091 47.0099C29.0598 46.4616 28.3153 46.1536 27.5391 46.1536C26.7629 46.1536 26.0185 46.4616 25.4691 47.0099C25.1978 47.2826 24.8752 47.4991 24.52 47.6467C24.1648 47.7944 23.7838 47.8704 23.3991 47.8704C23.0144 47.8704 22.6335 47.7944 22.2783 47.6467C21.923 47.4991 21.6005 47.2826 21.3291 47.0099C20.7798 46.4616 20.0353 46.1536 19.2591 46.1536C18.4829 46.1536 17.7385 46.4616 17.1891 47.0099C16.9169 47.2829 16.5935 47.4996 16.2375 47.6474C15.8814 47.7952 15.4997 47.8713 15.1141 47.8713C14.7286 47.8713 14.3469 47.7952 13.9908 47.6474C13.6347 47.4996 13.3113 47.2829 13.0391 47.0099C12.4898 46.4616 11.7453 46.1536 10.9691 46.1536C10.1929 46.1536 9.44846 46.4616 8.89912 47.0099C8.62779 47.2826 8.30524 47.4991 7.95 47.6467C7.59476 47.7944 7.21384 47.8704 6.82913 47.8704C6.44442 47.8704 6.06351 47.7944 5.70827 47.6467C5.35303 47.4991 5.03046 47.2826 4.75912 47.0099C4.2007 46.4751 3.45734 46.1766 2.68413 46.1766C1.91091 46.1766 1.16756 46.4751 0.609131 47.0099" stroke="#CCC9C4" stroke-width="1.15" stroke-miterlimit="10"/>
<path d="M130.859 47.0099C130.31 46.4616 129.565 46.1536 128.789 46.1536C128.013 46.1536 127.269 46.4616 126.719 47.0099C126.447 47.2829 126.124 47.4996 125.768 47.6474C125.411 47.7952 125.03 47.8713 124.644 47.8713C124.259 47.8713 123.877 47.7952 123.521 47.6474C123.165 47.4996 122.841 47.2829 122.569 47.0099C122.02 46.4616 121.275 46.1536 120.499 46.1536C119.723 46.1536 118.979 46.4616 118.429 47.0099C118.158 47.2826 117.835 47.4991 117.48 47.6467C117.125 47.7944 116.744 47.8704 116.359 47.8704C115.974 47.8704 115.594 47.7944 115.238 47.6467C114.883 47.4991 114.561 47.2826 114.289 47.0099C113.74 46.4616 112.995 46.1536 112.219 46.1536C111.443 46.1536 110.699 46.4616 110.149 47.0099C109.877 47.2829 109.554 47.4996 109.198 47.6474C108.841 47.7952 108.46 47.8713 108.074 47.8713C107.689 47.8713 107.307 47.7952 106.951 47.6474C106.595 47.4996 106.271 47.2829 105.999 47.0099C105.45 46.4616 104.705 46.1536 103.929 46.1536C103.153 46.1536 102.409 46.4616 101.859 47.0099C101.588 47.2826 101.265 47.4991 100.91 47.6467C100.555 47.7944 100.174 47.8704 99.7892 47.8704C99.4045 47.8704 99.0235 47.7944 98.6683 47.6467C98.3131 47.4991 97.9905 47.2826 97.7192 47.0099C97.1607 46.4751 96.4174 46.1766 95.6442 46.1766C94.871 46.1766 94.1276 46.4751 93.5692 47.0099C93.2978 47.2826 92.9753 47.4991 92.6201 47.6467C92.2648 47.7944 91.8839 47.8704 91.4992 47.8704C91.1145 47.8704 90.7335 47.7944 90.3783 47.6467C90.0231 47.4991 89.7005 47.2826 89.4292 47.0099C88.8798 46.4616 88.1354 46.1536 87.3592 46.1536C86.583 46.1536 85.8385 46.4616 85.2892 47.0099" stroke="#CCC9C4" stroke-width="1.15" stroke-miterlimit="10"/>
<path d="M46.1891 91.4201C45.6307 90.8853 44.8873 90.5867 44.1141 90.5867C43.3409 90.5867 42.5976 90.8853 42.0391 91.4201C41.7678 91.6928 41.4453 91.9092 41.09 92.0569C40.7348 92.2046 40.3538 92.2806 39.9691 92.2806C39.5844 92.2806 39.2035 92.2046 38.8483 92.0569C38.493 91.9092 38.1705 91.6928 37.8991 91.4201C37.3498 90.8717 36.6053 90.5637 35.8291 90.5637C35.0529 90.5637 34.3085 90.8717 33.7591 91.4201C33.4869 91.6931 33.1635 91.9097 32.8075 92.0576C32.4514 92.2054 32.0697 92.2815 31.6841 92.2815C31.2986 92.2815 30.9169 92.2054 30.5608 92.0576C30.2047 91.9097 29.8813 91.6931 29.6091 91.4201C29.0598 90.8717 28.3153 90.5637 27.5391 90.5637C26.7629 90.5637 26.0185 90.8717 25.4691 91.4201C25.1978 91.6928 24.8752 91.9092 24.52 92.0569C24.1648 92.2046 23.7838 92.2806 23.3991 92.2806C23.0144 92.2806 22.6335 92.2046 22.2783 92.0569C21.923 91.9092 21.6005 91.6928 21.3291 91.4201C20.7798 90.8717 20.0353 90.5637 19.2591 90.5637C18.4829 90.5637 17.7385 90.8717 17.1891 91.4201C16.9169 91.6931 16.5935 91.9097 16.2375 92.0576C15.8814 92.2054 15.4997 92.2815 15.1141 92.2815C14.7286 92.2815 14.3469 92.2054 13.9908 92.0576C13.6347 91.9097 13.3113 91.6931 13.0391 91.4201C12.4898 90.8717 11.7453 90.5637 10.9691 90.5637C10.1929 90.5637 9.44846 90.8717 8.89912 91.4201C8.62779 91.6928 8.30524 91.9092 7.95 92.0569C7.59476 92.2046 7.21384 92.2806 6.82913 92.2806C6.44442 92.2806 6.06351 92.2046 5.70827 92.0569C5.35303 91.9092 5.03046 91.6928 4.75912 91.4201C4.2007 90.8853 3.45734 90.5867 2.68413 90.5867C1.91091 90.5867 1.16756 90.8853 0.609131 91.4201" stroke="#CCC9C4" stroke-width="1.15" stroke-miterlimit="10"/>
<path d="M130.859 91.4201C130.31 90.8717 129.565 90.5637 128.789 90.5637C128.013 90.5637 127.269 90.8717 126.719 91.4201C126.447 91.6931 126.124 91.9097 125.768 92.0576C125.411 92.2054 125.03 92.2815 124.644 92.2815C124.259 92.2815 123.877 92.2054 123.521 92.0576C123.165 91.9097 122.841 91.6931 122.569 91.4201C122.02 90.8717 121.275 90.5637 120.499 90.5637C119.723 90.5637 118.979 90.8717 118.429 91.4201C118.158 91.6928 117.835 91.9092 117.48 92.0569C117.125 92.2046 116.744 92.2806 116.359 92.2806C115.974 92.2806 115.594 92.2046 115.238 92.0569C114.883 91.9092 114.561 91.6928 114.289 91.4201C113.74 90.8717 112.995 90.5637 112.219 90.5637C111.443 90.5637 110.699 90.8717 110.149 91.4201C109.877 91.6931 109.554 91.9097 109.198 92.0576C108.841 92.2054 108.46 92.2815 108.074 92.2815C107.689 92.2815 107.307 92.2054 106.951 92.0576C106.595 91.9097 106.271 91.6931 105.999 91.4201C105.45 90.8717 104.705 90.5637 103.929 90.5637C103.153 90.5637 102.409 90.8717 101.859 91.4201C101.588 91.6928 101.265 91.9092 100.91 92.0569C100.555 92.2046 100.174 92.2806 99.7892 92.2806C99.4045 92.2806 99.0235 92.2046 98.6683 92.0569C98.3131 91.9092 97.9905 91.6928 97.7192 91.4201C97.1607 90.8853 96.4174 90.5867 95.6442 90.5867C94.871 90.5867 94.1276 90.8853 93.5692 91.4201C93.2978 91.6928 92.9753 91.9092 92.6201 92.0569C92.2648 92.2046 91.8839 92.2806 91.4992 92.2806C91.1145 92.2806 90.7335 92.2046 90.3783 92.0569C90.0231 91.9092 89.7005 91.6928 89.4292 91.4201C88.8798 90.8717 88.1354 90.5637 87.3592 90.5637C86.583 90.5637 85.8385 90.8717 85.2892 91.4201" stroke="#CCC9C4" stroke-width="1.15" stroke-miterlimit="10"/>
<path d="M54.6991 34.17C55.5773 34.17 56.2891 33.4581 56.2891 32.58C56.2891 31.7019 55.5773 30.99 54.6991 30.99C53.821 30.99 53.1091 31.7019 53.1091 32.58C53.1091 33.4581 53.821 34.17 54.6991 34.17Z" fill="#CCC9C4"/>
<path d="M77.0491 34.17C77.9272 34.17 78.6391 33.4581 78.6391 32.58C78.6391 31.7019 77.9272 30.99 77.0491 30.99C76.171 30.99 75.4591 31.7019 75.4591 32.58C75.4591 33.4581 76.171 34.17 77.0491 34.17Z" fill="#CCC9C4"/>
<path d="M28.9092 40.75C32.4341 34.2227 37.6588 28.7703 44.0298 24.9702C50.4008 21.1701 57.6809 19.1638 65.0992 19.1638C72.5174 19.1638 79.7976 21.1701 86.1686 24.9702C92.5396 28.7703 97.7642 34.2227 101.289 40.75" stroke="#CCC9C4" stroke-width="1.12" stroke-miterlimit="10" stroke-linecap="round"/>
<path d="M87.649 95.53C81.0046 99.8088 73.2782 102.105 65.3754 102.149C57.4727 102.193 49.721 99.984 43.0291 95.78" stroke="#CCC9C4" stroke-width="1.15" stroke-miterlimit="10" stroke-linecap="round"/>
</svg>
