<svg width="21" height="21" viewBox="0 0 21 21" fill="none" xmlns="http://www.w3.org/2000/svg">
<path d="M20.7557 19.5781L15.7815 14.6039C17.137 12.9461 17.8035 10.8307 17.643 8.69525C17.4826 6.5598 16.5075 4.56772 14.9195 3.13105C13.3315 1.69437 11.252 0.923022 9.11119 0.976548C6.9704 1.03007 4.93207 1.90438 3.41783 3.41862C1.90359 4.93286 1.02928 6.97119 0.975755 9.11198C0.922229 11.2528 1.69358 13.3322 3.13025 14.9203C4.56693 16.5083 6.55901 17.4834 8.69445 17.6438C10.8299 17.8043 12.9453 17.1378 14.6032 15.7823L19.5773 20.7564C19.7345 20.9082 19.945 20.9922 20.1635 20.9903C20.382 20.9884 20.591 20.9008 20.7455 20.7463C20.9 20.5918 20.9877 20.3828 20.9895 20.1643C20.9914 19.9458 20.9075 19.7353 20.7557 19.5781ZM9.33315 16.0006C8.01461 16.0006 6.72568 15.6096 5.62935 14.8771C4.53302 14.1445 3.67854 13.1033 3.17395 11.8852C2.66937 10.667 2.53735 9.32655 2.79458 8.03334C3.05182 6.74014 3.68676 5.55225 4.61911 4.6199C5.55146 3.68755 6.73934 3.05261 8.03255 2.79538C9.32576 2.53814 10.6662 2.67016 11.8844 3.17475C13.1025 3.67933 14.1437 4.53382 14.8763 5.63014C15.6088 6.72647 15.9998 8.0154 15.9998 9.33395C15.9978 11.1014 15.2948 12.796 14.045 14.0458C12.7952 15.2956 11.1007 15.9986 9.33315 16.0006Z" fill="#324320"/>
</svg>
