<svg width="84" height="72" viewBox="0 0 84 72" fill="none" xmlns="http://www.w3.org/2000/svg">
<path d="M82.4771 48.0034C63.7101 47.6224 62.3903 48.7548 53.432 47.024C51.9877 46.745 50.7399 46.5036 49.4816 46.5036C46.8854 46.5036 44.4558 49.2152 45.2312 52.2508C45.7546 54.319 47.9818 55.4393 47.9818 60.0017C47.9818 66.6443 43.6054 69.0005 39.8589 69.0005C37.5432 69.0005 29.9843 68.0271 29.9843 55.5023C29.9843 54.5815 30.0982 53.7746 30.2077 52.9917C30.5077 50.859 30.8481 48.4428 27.4436 46.898C25.9333 46.2126 24.5205 46.5111 21.7594 47.0225C13.0891 48.6318 10.7269 47.7229 1.48817 48.0034C-0.494557 48.0034 -0.497557 51.003 1.48817 51.003C10.4854 50.7135 13.2271 51.6554 22.3068 49.9726C23.7151 49.7116 24.828 49.5047 25.8043 49.5047C25.8403 49.5047 25.9813 49.5287 26.2048 49.6291C27.5666 50.2471 27.5231 50.556 27.2381 52.5732C27.1197 53.4161 26.9847 54.3715 26.9847 55.5023C26.9847 71.5366 38.5421 72.0001 39.8589 72.0001C45.2147 72.0001 50.9814 68.2461 50.9814 60.0017C50.9814 54.6834 48.4062 52.5627 48.1378 51.5099C47.7268 49.9066 49.6316 49.3832 49.4816 49.5032C50.452 49.5032 51.5153 49.7086 52.8621 49.9696C62.0844 51.7514 65.1559 50.625 82.4771 51.003C84.4628 51.003 84.4613 48.0034 82.4771 48.0034Z" fill="#324320"/>
<path d="M39.8589 66.0008C43.0669 66.0008 44.9822 63.7586 44.9822 60.0016C44.9822 57.749 44.2188 56.6151 43.5454 55.6147C42.7775 54.4734 41.9826 53.2946 41.9826 49.5031C41.9826 29.0534 56.6416 2.50555 56.7901 2.24008C57.7244 0.566312 55.2723 -0.916984 54.2239 0.690795C53.357 2.02261 32.9838 33.5618 32.9838 55.5023C32.9838 64.978 37.7922 66.0008 39.8589 66.0008ZM41.6736 31.5296C40.0749 37.4912 38.983 43.6884 38.983 49.5031C38.983 54.2094 40.1333 55.9177 41.0572 57.29C41.6346 58.1479 41.9826 58.6638 41.9826 60.0016C41.9826 63.0012 40.6013 63.0012 39.8589 63.0012C36.6553 63.0012 35.9834 58.9233 35.9834 55.5023C35.9834 48.2178 38.4461 39.6404 41.6736 31.5296ZM11.9867 34.5051C17.032 34.5051 19.4857 36.9588 19.4857 42.0041C19.4857 43.9869 22.4853 43.9898 22.4853 42.0041C22.4853 36.9588 24.9389 34.5051 29.9842 34.5051C31.967 34.5051 31.97 31.5056 29.9842 31.5056C24.9389 31.5056 22.4853 29.0519 22.4853 24.0066C22.4853 22.0239 19.4857 22.0209 19.4857 24.0066C19.4857 29.0519 17.032 31.5056 11.9867 31.5056C10.004 31.5056 10.001 34.5051 11.9867 34.5051ZM20.9855 30.1572C21.6848 31.3275 22.6633 32.3061 23.8336 33.0054C22.6633 33.7046 21.6848 34.6832 20.9855 35.8535C20.2862 34.6832 19.3076 33.7046 18.1374 33.0054C19.3076 32.3061 20.2862 31.3275 20.9855 30.1572ZM26.9846 12.0082C31.0206 12.0082 32.9838 13.9715 32.9838 18.0074C32.9838 19.9901 35.9834 19.9931 35.9834 18.0074C35.9834 13.9715 37.9466 12.0082 41.9826 12.0082C43.9653 12.0082 43.9683 9.00865 41.9826 9.00865C37.9466 9.00865 35.9834 7.04542 35.9834 3.00948C35.9834 1.02675 32.9838 1.02375 32.9838 3.00948C32.9838 7.04542 31.0206 9.00865 26.9846 9.00865C25.0019 9.00865 24.9989 12.0082 26.9846 12.0082ZM34.4836 8.61721C34.992 9.3671 35.625 10 36.3749 10.5084C35.625 11.0169 34.992 11.6498 34.4836 12.3997C33.9797 11.6543 33.3377 11.0124 32.5924 10.5084C33.3423 10 33.9752 9.3671 34.4836 8.61721Z" fill="#324320"/>
<path d="M50.9814 33.0054C48.9957 33.0054 48.9972 36.005 50.9814 36.005C55.0174 36.005 56.9806 37.9682 56.9806 42.0041C56.9806 43.9884 59.9802 43.9899 59.9802 42.0041C59.9802 37.9682 61.9434 36.005 65.9794 36.005C67.9651 36.005 67.9636 33.0054 65.9794 33.0054C61.9434 33.0054 59.9802 31.0421 59.9802 27.0062C59.9802 25.022 56.9806 25.0205 56.9806 27.0062C56.9806 31.0421 55.0174 33.0054 50.9814 33.0054ZM58.4804 32.6139C58.9888 33.3638 59.6217 33.9967 60.3716 34.5052C59.6217 35.0136 58.9888 35.6465 58.4804 36.3964C57.9765 35.651 57.3345 35.0091 56.5891 34.5052C57.339 33.9967 57.9719 33.3638 58.4804 32.6139Z" fill="#324320"/>
</svg>
