<svg width="71" height="72" viewBox="0 0 71 72" fill="none" xmlns="http://www.w3.org/2000/svg">
<path d="M47.4267 37.2432C47.4267 36.9634 47.3155 36.6952 47.1177 36.4974C46.92 36.2996 46.6517 36.1885 46.372 36.1885C46.0922 36.1885 45.824 36.2996 45.6262 36.4974C45.4284 36.6952 45.3173 36.9634 45.3173 37.2432C45.3173 37.8457 44.8268 38.3362 44.2241 38.3362C43.6215 38.3362 43.131 37.8457 43.131 37.2432C43.131 36.9634 43.0199 36.6952 42.8221 36.4974C42.6243 36.2996 42.356 36.1885 42.0763 36.1885C41.7966 36.1885 41.5283 36.2996 41.3305 36.4974C41.1327 36.6952 41.0216 36.9634 41.0216 37.2432C41.0216 39.0091 42.4581 40.4456 44.2241 40.4456C45.9903 40.4456 47.4267 39.0087 47.4267 37.2432ZM57.2033 37.2432C57.2033 36.9634 57.0922 36.6952 56.8944 36.4974C56.6966 36.2996 56.4284 36.1885 56.1486 36.1885C56.0101 36.1884 55.873 36.2157 55.745 36.2686C55.617 36.3216 55.5007 36.3993 55.4027 36.4973C55.3048 36.5952 55.2271 36.7115 55.1741 36.8395C55.1211 36.9675 55.0939 37.1046 55.094 37.2432C55.094 37.8457 54.6035 38.3362 54.0009 38.3362C53.3976 38.3362 52.9077 37.8457 52.9077 37.2432C52.9077 36.9634 52.7965 36.6952 52.5987 36.4974C52.401 36.2996 52.1327 36.1885 51.853 36.1885C51.7145 36.1884 51.5773 36.2157 51.4493 36.2686C51.3213 36.3216 51.205 36.3993 51.1071 36.4973C51.0091 36.5952 50.9314 36.7115 50.8785 36.8395C50.8255 36.9675 50.7982 37.1046 50.7983 37.2432C50.7983 39.0091 52.2348 40.4456 54.0009 40.4456C55.7664 40.4456 57.2033 39.0087 57.2033 37.2432Z" fill="#324320"/>
<path d="M65.8096 61.5877L63.9127 60.7797C63.3766 60.5506 62.7575 60.8005 62.5289 61.3361C62.4746 61.4635 62.4459 61.6004 62.4444 61.739C62.443 61.8775 62.4689 62.0149 62.5206 62.1435C62.5724 62.272 62.6489 62.389 62.7459 62.4879C62.8429 62.5868 62.9585 62.6657 63.086 62.7199L64.9829 63.5285C65.7444 63.8521 66.3938 64.3929 66.8501 65.0832C67.3064 65.7735 67.5494 66.5829 67.5487 67.4104V69.8906H30.6726V67.4104C30.6719 66.5829 30.9148 65.7736 31.3711 65.0832C31.8274 64.3929 32.4767 63.8522 33.2383 63.5285L42.7344 59.4821C43.3768 59.2091 43.9245 58.7529 44.3094 58.1706C44.6943 57.5884 44.8992 56.9057 44.8986 56.2077V55.7221C46.2648 56.2199 47.6881 56.4719 49.1125 56.4719C50.5352 56.4719 51.9573 56.2203 53.3225 55.7232V56.2077C53.3225 57.6364 54.1717 58.9219 55.4867 59.4821L58.5689 60.7956C59.1046 61.0241 59.7242 60.7742 59.9527 60.2387C60.007 60.1113 60.0357 59.9744 60.0371 59.8359C60.0386 59.6974 60.0127 59.5599 59.961 59.4314C59.9092 59.3029 59.8327 59.1859 59.7357 59.087C59.6388 58.988 59.5233 58.9092 59.3958 58.8549L56.3135 57.5415C56.0518 57.4303 55.8286 57.2445 55.6718 57.0073C55.515 56.7701 55.4315 56.492 55.4317 56.2077V54.8058C59.3639 52.8421 62.4225 49.8554 64.54 45.9058C65.8244 43.5097 66.7412 40.8075 67.2805 37.8434C67.6487 37.6606 67.9349 37.415 68.0694 37.2881C71.0747 34.5741 70.6188 26.0799 70.5561 25.1093C70.1739 19.9111 68.5044 17.1942 66.7367 14.3173C66.5401 13.9988 66.3451 13.6793 66.1517 13.3588C66.1297 13.3224 66.1152 13.282 66.109 13.2399C66.1029 13.1979 66.1053 13.155 66.116 13.1138L66.3336 12.3009C66.4185 11.9811 66.4374 11.6474 66.389 11.3202C66.3406 10.9929 66.2261 10.6789 66.0523 10.3974C64.2209 7.43665 61.8874 4.91412 59.1178 2.9015C55.344 0.158745 50.5006 -0.704834 46.1616 0.591026C38.9996 2.72951 38.1365 8.75431 38.0636 9.41412C37.9484 10.0808 37.9198 10.7595 37.9783 11.4335C36.6556 11.8312 35.4543 12.3931 34.3918 13.1193C32.4407 14.4536 31.9129 15.5895 31.8349 17.7501C31.8349 17.7571 31.8337 17.7643 31.8337 17.772C31.8337 17.7786 31.8332 17.7928 31.8332 17.811C31.8266 18.0295 31.8236 18.2482 31.8244 18.4669C30.8921 18.2395 30.0001 18.5993 29.3492 19.476C28.8137 20.1973 27.8796 22.094 27.643 26.6929C27.5431 28.638 27.6826 30.5194 28.0578 32.2861C28.3956 33.8791 29.0802 35.3507 30.2105 36.9173C30.3856 37.1606 30.6178 37.3572 30.8868 37.4896C31.1603 39.0894 31.5415 40.6247 32.0331 42.0754C32.2199 42.6269 32.8192 42.923 33.3702 42.7356C33.5014 42.6913 33.6226 42.6214 33.7269 42.5302C33.8311 42.4389 33.9164 42.328 33.9778 42.2038C34.0391 42.0796 34.0754 41.9445 34.0846 41.8063C34.0938 41.6681 34.0756 41.5294 34.0311 41.3982C33.5751 40.0534 33.2218 38.6257 32.9676 37.1365C33.1944 36.9066 33.3575 36.6217 33.4411 36.3098C34.331 33.0232 35.2713 30.5205 37.2083 28.2002C38.8924 26.1825 41.1293 24.5632 43.677 23.5174L43.7721 23.4783C44.7009 23.0976 45.9095 22.6005 47.0201 21.9133C49.2208 23.1283 51.0092 23.8051 51.2147 23.8815C54.8681 25.2416 59.8516 27.7646 62.8438 32.057C64.6185 34.6037 64.857 36.6031 64.8587 36.6175C64.863 36.6597 64.8697 36.702 64.8789 36.7438C64.9492 37.0579 65.0668 37.2964 65.2031 37.4782C64.7026 40.2204 63.8601 42.7116 62.6811 44.9099C60.4999 48.9781 57.2083 51.9131 52.8978 53.632C50.4573 54.6059 47.7688 54.6054 45.3277 53.632C41.3034 52.0274 38.1619 49.3584 35.9899 45.6993C35.9194 45.5798 35.826 45.4754 35.7151 45.3921C35.6042 45.3088 35.4779 45.2481 35.3435 45.2137C35.2092 45.1792 35.0693 45.1716 34.932 45.1913C34.7947 45.211 34.6626 45.2575 34.5433 45.3284C34.424 45.3992 34.3198 45.4928 34.2367 45.6039C34.1537 45.7151 34.0934 45.8415 34.0593 45.9759C34.0252 46.1104 34.0179 46.2503 34.0379 46.3876C34.058 46.5249 34.1049 46.6568 34.176 46.7759C36.2645 50.2944 39.1572 52.986 42.7898 54.802V56.2077C42.7898 56.7899 42.4439 57.3134 41.9081 57.5419L32.4117 61.5883C31.2695 62.0736 30.2954 62.8846 29.6111 63.92C28.9268 64.9554 28.5625 66.1693 28.5636 67.4104V70.9453C28.5636 71.5275 29.0361 72 29.6183 72H68.6038C69.1861 72 69.6585 71.5275 69.6585 70.9453V67.4104C69.6595 66.1692 69.295 64.9551 68.6105 63.9197C67.9261 62.8842 66.9519 62.0732 65.8096 61.5877ZM42.9711 21.526L42.8755 21.5655C40.0114 22.7412 37.4916 24.5682 35.5883 26.8484C33.3373 29.545 32.3072 32.5206 31.5663 35.1706C30.8159 34.0362 30.3632 32.9913 30.1205 31.8476C29.7837 30.2607 29.659 28.5628 29.7497 26.8011C29.8947 23.9771 30.4022 21.5952 31.0422 20.7333C31.1752 20.5543 31.2432 20.5125 31.2981 20.5125C31.3202 20.5125 31.3404 20.5197 31.3619 20.5269C31.5405 20.5878 31.7195 20.6225 31.8969 20.6361C31.9644 21.9172 32.0991 23.3833 32.3682 24.4907C32.424 24.7202 32.5553 24.9244 32.7409 25.0705C32.9266 25.2166 33.1559 25.2962 33.3921 25.2965C33.4745 25.2965 33.5581 25.2872 33.6416 25.2664C33.7762 25.2337 33.9031 25.1749 34.0149 25.0933C34.1268 25.0116 34.2215 24.9088 34.2935 24.7905C34.3656 24.6723 34.4137 24.541 34.435 24.4041C34.4564 24.2673 34.4505 24.1276 34.4179 23.993C33.8942 21.8364 33.942 17.8407 33.9425 17.8C33.9425 17.794 33.942 17.7874 33.942 17.7813C33.9964 16.2032 34.3315 15.7154 35.5822 14.8601C36.4271 14.2827 37.385 13.8279 38.4442 13.4951C39.5363 16.4932 42.2692 18.9103 44.9311 20.6565C44.2224 21.013 43.516 21.303 42.9711 21.526ZM51.9492 21.904C51.9157 21.8914 48.5632 20.635 45.4135 18.4268C41.4012 15.6143 39.6296 12.692 40.1476 9.74108C40.152 9.7152 40.1559 9.6844 40.1586 9.65867C40.1769 9.47515 40.6035 5.73706 44.5306 3.5464C45.9463 5.67448 48.3791 6.86473 50.7769 7.90015C53.3241 8.99942 55.516 10.0662 56.5376 11.9883C56.6025 12.1107 56.6908 12.219 56.7976 12.3072C56.9044 12.3954 57.0276 12.4617 57.16 12.5023C57.2925 12.5428 57.4316 12.5569 57.5695 12.5436C57.7074 12.5303 57.8413 12.49 57.9636 12.4249C58.2106 12.2936 58.3954 12.0696 58.4773 11.8021C58.5592 11.5346 58.5315 11.2455 58.4003 10.9984C56.948 8.26662 53.8646 6.93504 51.6129 5.96332C49.5739 5.08329 47.6569 4.15882 46.5164 2.69225C46.5994 2.66525 46.6795 2.63726 46.7647 2.61209C47.8975 2.27361 49.0707 2.10767 50.2469 2.10767C52.9275 2.10767 55.6219 2.96787 57.8773 4.6077C60.4246 6.45889 62.5714 8.78019 64.2582 11.507C64.3043 11.5812 64.3181 11.6719 64.2956 11.756L64.0781 12.5688C63.9949 12.8839 63.9756 13.2125 64.0215 13.5351C64.0673 13.8578 64.1773 14.168 64.345 14.4475C64.5416 14.7731 64.7398 15.0977 64.9394 15.4215C66.6396 18.1884 68.1078 20.5779 68.4518 25.2543C68.6529 28.3953 68.3716 33.8555 66.8032 35.5753C66.2249 33.1771 63.5793 26.2343 51.9492 21.904Z" fill="#324320"/>
<path d="M31.386 52.0934C31.4845 51.6672 31.4458 51.2208 31.2755 50.8179L32.5901 49.9961C33.5948 49.3678 33.9007 48.0389 33.2724 47.0343L32.7862 46.2569L36.404 43.7362C36.6335 43.5763 36.7901 43.3317 36.8393 43.0563C36.8886 42.781 36.8264 42.4973 36.6665 42.2678C36.3336 41.7899 35.6761 41.6729 35.1982 42.0052L31.6662 44.4662L31.2354 43.7774C31.0863 43.5376 30.8911 43.3297 30.6611 43.1658C30.4312 43.0019 30.171 42.8853 29.8957 42.8225C29.6207 42.7584 29.3358 42.7495 29.0573 42.7963C28.7789 42.8431 28.5125 42.9446 28.2736 43.0951L26.959 43.9169C26.6713 43.5874 26.2868 43.3572 25.8605 43.2593C25.5931 43.197 25.3161 43.1883 25.0454 43.2337C24.7747 43.2792 24.5156 43.3779 24.2833 43.5241L19.8591 46.2916C19.8591 46.2916 19.8586 46.2916 19.8586 46.292H19.858L15.4349 49.059H15.4344L7.98898 53.7161L7.21709 52.4818C7.14365 52.3643 7.04779 52.2625 6.93499 52.1821C6.82219 52.1018 6.69465 52.0444 6.55966 52.0133C6.42468 51.9823 6.28489 51.9781 6.1483 52.0011C6.01171 52.024 5.88098 52.0737 5.76359 52.1472C5.64615 52.2207 5.54432 52.3165 5.46394 52.4293C5.38356 52.5421 5.3262 52.6697 5.29513 52.8047C5.26406 52.9397 5.2599 53.0794 5.28287 53.216C5.30585 53.3526 5.35552 53.4834 5.42904 53.6007L6.76006 55.7288L7.68467 57.2071L5.49289 58.5782L5.31753 58.2979C4.75953 57.4048 3.57898 57.1328 2.68587 57.6915L0.897822 58.8099C0.684727 58.9424 0.500036 59.1158 0.354452 59.3201C0.208869 59.5244 0.105288 59.7556 0.0497125 60.0003C-0.00734957 60.2446 -0.015378 60.4978 0.0260923 60.7452C0.0675625 60.9926 0.157707 61.2294 0.291306 61.4417L3.8487 67.1287C3.98112 67.3419 4.15453 67.5266 4.35887 67.6722C4.56321 67.8178 4.79441 67.9214 5.03909 67.977C5.2834 68.0339 5.53658 68.0419 5.78399 68.0004C6.03139 67.9589 6.26812 67.8688 6.4805 67.7352L8.26911 66.6169C9.16165 66.0581 9.43362 64.8777 8.87492 63.9845L8.6997 63.7049L10.8915 62.3338L13.1475 65.9406C13.2209 66.0581 13.3167 66.16 13.4295 66.2405C13.5423 66.3209 13.6698 66.3783 13.8049 66.4094C13.9399 66.4405 14.0797 66.4447 14.2163 66.4216C14.3529 66.3986 14.4837 66.3489 14.601 66.2753C14.7185 66.2018 14.8203 66.106 14.9007 65.9932C14.9811 65.8803 15.0385 65.7528 15.0696 65.6178C15.1006 65.4828 15.1048 65.343 15.0818 65.2064C15.0588 65.0698 15.0091 64.939 14.9356 64.8216L14.1638 63.5879L21.6092 58.9307L30.4576 53.3959C30.6908 53.2509 30.8929 53.0612 31.0523 52.8376C31.2116 52.6141 31.325 52.3611 31.3859 52.0934H31.386ZM5.53071 65.8412L2.18553 60.4925L3.63523 59.5855L4.2641 60.5909L6.3521 63.9289L6.98056 64.9343L5.53071 65.8412ZM7.58131 61.9163L6.61184 60.3662L8.80306 58.9955L9.77253 60.5452L7.58131 61.9163ZM13.0449 61.7993L10.0324 56.9824L9.10793 55.5041L11.7447 53.8551L12.8933 55.6909C12.9667 55.8083 13.0626 55.9101 13.1754 55.9905C13.2882 56.0708 13.4157 56.1282 13.5507 56.1593C13.6857 56.1904 13.8255 56.1945 13.962 56.1716C14.0986 56.1486 14.2294 56.099 14.3468 56.0255C14.584 55.8772 14.7525 55.6407 14.8153 55.3681C14.8781 55.0955 14.8301 54.8091 14.6817 54.5719L13.5331 52.7362L15.6591 51.4068L19.5966 57.7014L13.0449 61.7993ZM21.3845 56.583L17.4476 50.2879L20.0827 48.6393L21.2314 50.4758C21.3047 50.5933 21.4006 50.6951 21.5134 50.7755C21.6262 50.8559 21.7537 50.9133 21.8887 50.9444C22.0237 50.9754 22.1635 50.9796 22.3001 50.9565C22.4367 50.9335 22.5674 50.8838 22.6847 50.8102C22.8022 50.7368 22.904 50.6409 22.9844 50.5281C23.0648 50.4153 23.1222 50.2878 23.1533 50.1528C23.1843 50.0178 23.1885 49.878 23.1656 49.7414C23.1426 49.6048 23.0929 49.4741 23.0194 49.3567L21.8712 47.521L25.3847 45.323L25.8928 46.1344L28.9525 51.0267C28.9525 51.0272 28.9531 51.0272 28.9531 51.0277L29.3222 51.6183L21.3845 56.583ZM28.1027 45.6902L29.392 44.8831C29.3963 44.8803 29.4011 44.8784 29.4062 44.8776C29.4113 44.8767 29.4165 44.8769 29.4215 44.8782C29.4267 44.8792 29.4317 44.8813 29.436 44.8844C29.4403 44.8876 29.4439 44.8916 29.4464 44.8963L31.4838 48.1532C31.4866 48.1576 31.4925 48.167 31.4887 48.1827C31.4879 48.188 31.4859 48.1929 31.4828 48.1973C31.4798 48.2016 31.4758 48.2051 31.4711 48.2076L30.1819 49.014L28.1027 45.6902Z" fill="#324320"/>
</svg>
