<svg width="62" height="72" viewBox="0 0 62 72" fill="none" xmlns="http://www.w3.org/2000/svg">
<g id="icon">
<path id="Vector" d="M34.8708 0C16.1582 0 7.74166 16.5407 7.74166 28.2857V45C7.74166 46.7023 10.3254 46.701 10.3254 45V28.2857C10.3254 17.6079 17.9409 2.57143 34.8708 2.57143C51.8007 2.57143 59.4163 17.6079 59.4163 28.2857V55.2857C59.4163 56.988 62 56.9867 62 55.2857V28.2857C62 16.5407 53.5822 0 34.8708 0ZM7.74166 59.1429V66.8571C7.74166 68.5594 10.3254 68.5581 10.3254 66.8571V59.1429C10.3254 57.4406 7.74166 57.4419 7.74166 59.1429Z" fill="#324320"/>
<path id="Vector_2" d="M39.1766 46.5069C37.9923 47.5597 36.4622 48.1454 34.8742 48.1537C33.2863 48.162 31.75 47.5923 30.5547 46.5519C29.2706 45.4321 27.5653 47.3619 28.852 48.4856C30.5222 49.9398 32.6689 50.736 34.888 50.7244C37.107 50.7128 39.2452 49.8941 40.9 48.4226C42.1724 47.2886 40.4517 45.3703 39.1766 46.5069Z" fill="#324320"/>
<path id="Vector_3" d="M60.7081 69.4286C48.8759 69.4286 45.4564 60.4157 45.2316 55.1829C49.9869 51.1046 52.4518 44.9422 52.8859 41.9824C54.4994 41.1172 58.1244 38.5984 58.1244 33.4286C58.1244 30.2902 56.2951 28.8232 54.2488 28.4117V22.185C54.2569 19.5249 53.3853 16.9361 51.7684 14.8179C47.6642 9.41273 41.2255 6.42859 34.8708 6.42859C22.4676 6.42859 15.4929 15.3489 15.4929 22.185V28.4117C13.4465 28.8232 11.6173 30.2902 11.6173 33.4286C11.6173 38.5984 15.2409 41.1172 16.8558 41.9824C17.2911 44.9409 19.756 51.1046 24.5101 55.1816C24.2866 60.4157 20.867 69.4286 9.03353 69.4286C7.32439 69.4286 7.3231 72 9.03353 72C21.6551 72 26.0758 63.153 26.9427 56.9404C29.1892 58.284 31.8233 59.1429 34.8708 59.1429C37.9183 59.1429 40.5525 58.284 42.799 56.9404C43.6659 63.153 48.0879 72 60.7081 72C62.4186 72 62.4173 69.4286 60.7081 69.4286ZM51.5708 21.006C48.7132 18.2777 45.2755 16.263 41.5885 15.1483C42.5393 13.8857 42.9217 12.3339 42.5264 10.6894C46.4498 12.4663 50.9817 16.1717 51.5708 21.006ZM38.4519 9.38059C38.94 9.59973 39.3546 9.95371 39.6466 10.4005C39.9385 10.8473 40.0954 11.3681 40.0987 11.901C40.1019 12.4339 39.9514 12.9565 39.665 13.4068C39.3786 13.8571 38.9683 14.2161 38.4829 14.4412C30.9461 13.2326 23.5153 15.9017 18.1709 21.006C18.3661 19.3227 19.0092 17.7218 20.0338 16.3684C24.7762 10.125 31.0727 7.91359 38.4519 9.38059ZM19.3685 41.1429C19.3685 40.6132 19.0429 40.1387 18.5468 39.9446C18.5029 39.9292 14.201 38.2012 14.201 33.4286C14.201 32.7922 14.201 30.8572 16.7847 30.8572C17.1273 30.8572 17.4559 30.7217 17.6982 30.4806C17.9405 30.2395 18.0766 29.9124 18.0766 29.5714V24.8914C26.9762 14.0182 42.7615 14.0143 51.6651 24.8914V29.5714C51.6651 29.9124 51.8012 30.2395 52.0435 30.4806C52.2857 30.7217 52.6143 30.8572 52.9569 30.8572C55.5407 30.8572 55.5407 32.7922 55.5407 33.4286C55.5407 38.1536 51.368 39.8764 51.1948 39.9446C50.7001 40.1387 50.3732 40.6132 50.3732 41.1429C50.3732 44.1964 45.3879 56.5714 34.8708 56.5714C24.3538 56.5714 19.3685 44.1964 19.3685 41.1429Z" fill="#324320"/>
<path id="Vector_4" d="M48.8075 34.8094C49.8603 33.4658 47.8179 31.8844 46.7715 33.228C45.3698 35.0164 42.6892 35.3095 41.0369 33.309C39.9543 31.9937 37.9558 33.6278 39.041 34.9418C41.6324 38.0803 46.2935 38.0198 48.8075 34.8094ZM30.7007 34.9405C31.7871 33.6253 29.7873 31.995 28.7048 33.3077C27.161 35.1758 24.4661 35.136 22.9702 33.2267C21.9225 31.8895 19.88 33.4633 20.9329 34.8081C23.4546 38.025 28.1144 38.0751 30.7007 34.9405ZM40.9323 28.1417C42.0549 27.0681 44.4694 26.9987 47.3851 27.954C49.0077 28.4824 49.8164 26.0421 48.1925 25.5111C42.8494 23.7651 40.2321 25.2488 39.143 26.2877C37.8925 27.4834 39.7218 29.3014 40.9323 28.1417ZM22.3552 27.954C25.2723 26.9987 27.6842 27.0681 28.8094 28.1417C30.0212 29.3001 31.8492 27.4821 30.5986 26.2864C29.5096 25.2463 26.8871 23.7651 21.5504 25.5098C19.9252 26.0408 20.7314 28.4824 22.3552 27.954ZM14.201 51.4285V52.7143C14.201 54.4165 16.7847 54.4153 16.7847 52.7143V51.4285C16.7847 49.7263 14.201 49.7275 14.201 51.4285ZM14.201 59.1428C14.201 60.8451 16.7847 60.8438 16.7847 59.1428V57.8571C16.7847 56.1548 14.201 56.1561 14.201 57.8571V59.1428ZM18.0766 56.5714H19.3684C21.0776 56.5714 21.0789 54 19.3684 54H18.0766C16.3674 54 16.3662 56.5714 18.0766 56.5714ZM12.9091 54H11.6173C9.90812 54 9.90683 56.5714 11.6173 56.5714H12.9091C14.6183 56.5714 14.6196 54 12.9091 54ZM5.15793 48.8571C5.50056 48.8571 5.82915 48.7217 6.07142 48.4805C6.31369 48.2394 6.4498 47.9124 6.4498 47.5714V46.2857C6.4498 44.5834 3.86607 44.5847 3.86607 46.2857V47.5714C3.86607 47.9124 4.00217 48.2394 4.24445 48.4805C4.48672 48.7217 4.81531 48.8571 5.15793 48.8571ZM5.15793 51.4285C4.81531 51.4285 4.48672 51.564 4.24445 51.8051C4.00217 52.0462 3.86607 52.3733 3.86607 52.7143V54C3.86607 55.7023 6.4498 55.701 6.4498 54V52.7143C6.4498 52.3733 6.31369 52.0462 6.07142 51.8051C5.82915 51.564 5.50056 51.4285 5.15793 51.4285ZM9.03353 51.4285C10.7427 51.4285 10.744 48.8571 9.03353 48.8571H7.74166C7.39904 48.8571 7.07045 48.9926 6.82818 49.2337C6.5859 49.4748 6.4498 49.8018 6.4498 50.1428C6.4498 50.4838 6.5859 50.8108 6.82818 51.052C7.07045 51.2931 7.39904 51.4285 7.74166 51.4285H9.03353ZM2.5742 48.8571H1.28234C-0.4268 48.8571 -0.428092 51.4285 1.28234 51.4285H2.5742C2.91683 51.4285 3.24542 51.2931 3.48769 51.052C3.72996 50.8108 3.86607 50.4838 3.86607 50.1428C3.86607 49.8018 3.72996 49.4748 3.48769 49.2337C3.24542 48.9926 2.91683 48.8571 2.5742 48.8571ZM55.5407 56.5714C55.5407 56.2304 55.4046 55.9034 55.1623 55.6623C54.92 55.4211 54.5914 55.2857 54.2488 55.2857C53.9062 55.2857 53.5776 55.4211 53.3353 55.6623C53.093 55.9034 52.9569 56.2304 52.9569 56.5714V57.8571C52.9569 59.5594 55.5407 59.5581 55.5407 57.8571V56.5714ZM55.5407 64.2857V63C55.5407 61.2977 52.9569 61.299 52.9569 63V64.2857C52.9569 65.988 55.5407 65.9867 55.5407 64.2857ZM56.8325 61.7143H58.1244C59.8348 61.7143 59.8335 59.1428 58.1244 59.1428H56.8325C55.1221 59.1428 55.1234 61.7143 56.8325 61.7143ZM51.6651 59.1428H50.3732C48.6628 59.1428 48.6641 61.7143 50.3732 61.7143H51.6651C53.3755 61.7143 53.3742 59.1428 51.6651 59.1428Z" fill="#324320"/>
</g>
</svg>
