<svg width="71" height="72" viewBox="0 0 71 72" fill="none" xmlns="http://www.w3.org/2000/svg">
<path d="M37.1938 72C37.9586 65.8066 37.6165 59.5265 36.1832 53.4529C34.9693 48.2975 34.5754 42.983 35.0161 37.705L35.5226 31.6262L33.1599 31.4293L32.6534 37.5081C32.1906 43.0345 32.6025 48.5993 33.8739 53.9973C35.243 59.7978 35.5699 65.7956 34.8394 71.7106L37.1938 72Z" fill="#324320"/>
<path d="M24.9295 14.9295C22.6154 14.6721 20.8837 13.7469 19.6347 12.0982C16.5366 8.00975 17.654 0.953627 17.6658 0.882461L15.3256 0.494605C15.2711 0.823155 14.0245 8.61348 17.7382 13.5228C19.1734 15.4205 21.1364 16.6268 23.5845 17.119C23.3987 18.7333 22.7612 20.2623 21.7452 21.5304C20.7293 22.7986 19.3762 23.7543 17.8414 24.2878L16.73 23.5382L14.9556 17.0989L12.6688 17.7287L14.5594 24.5903C14.6341 24.8631 14.8049 25.1003 15.0386 25.2581L23.0946 30.6916C23.25 30.7961 23.3779 30.9364 23.4677 31.1007C23.5575 31.265 23.6065 31.4485 23.6106 31.6357C23.6173 31.832 23.5737 32.0268 23.4838 32.2014C23.3939 32.376 23.2607 32.5247 23.097 32.6332C22.9352 32.7448 22.7477 32.813 22.5521 32.8315C22.3565 32.85 22.1594 32.8181 21.9797 32.7388L18.3763 31.1886C18.1634 31.0976 17.9285 31.0708 17.7005 31.1116C17.4726 31.1524 17.2615 31.2589 17.0933 31.4181C16.9252 31.5773 16.8073 31.7823 16.7541 32.0076C16.7009 32.233 16.7148 32.469 16.794 32.6866L21.4863 45.4574L21.644 46.0018C22.2347 48.0348 21.4815 48.4001 21.2336 48.5211C20.7355 48.7654 19.8376 48.2945 19.4995 47.7537C19.2623 47.3741 19.0915 46.8001 18.9278 46.245C18.8508 45.9799 18.7681 45.7166 18.6799 45.455L16.6304 39.5494C16.5877 39.4261 16.4524 38.9789 16.3137 38.5305C16.2023 38.1618 16.0876 37.7941 15.9697 37.4275L13.7291 38.2056C13.7718 38.3289 13.9071 38.7761 14.0458 39.2244C14.1941 39.7083 14.3435 40.1923 14.3886 40.3263L16.4382 46.2319C16.5129 46.449 16.5829 46.6826 16.6529 46.9199C16.8095 47.4453 16.9838 48.0229 17.2448 48.5614L18.0893 50.9099C18.1274 51.046 18.1285 51.1898 18.0925 51.3265C18.0566 51.4632 17.9848 51.5878 17.8846 51.6875C17.7844 51.7872 17.6594 51.8584 17.5226 51.8937C17.3857 51.929 17.2419 51.9272 17.106 51.8884C16.9743 51.8517 16.7324 51.7461 16.641 51.5646L12.3165 39.1414L10.0759 39.9218L13.601 50.0334L13.1906 50.1864C13.0539 50.2231 12.9098 50.2231 12.773 50.1864C12.6362 50.1498 12.5115 50.0778 12.4114 49.9776L9.3714 42.1066L7.16169 42.9642L9.82568 49.859C9.11164 49.9397 8.68702 49.6111 8.49368 49.3917L5.23427 37.5164C5.13583 37.1535 5.02552 36.7846 4.91521 36.4086C4.25337 34.1704 3.56898 31.8563 4.77169 30.0724C4.89505 29.8898 5.0267 29.7154 5.15718 29.5423C5.55215 29.0216 6.00049 28.4297 6.24483 27.6421C6.52238 26.7431 6.57457 25.8215 6.58999 25.1193C6.62881 23.539 6.44108 21.9613 6.03252 20.4342C6.01531 20.3707 5.99269 20.3088 5.96491 20.2491L2.15159 12.0496L0 13.0507L3.77181 21.1577C4.09324 22.3663 4.24625 23.7161 4.21778 25.0707C4.20592 25.6186 4.16915 26.3256 3.97938 26.94C3.85839 27.329 3.5844 27.6919 3.26653 28.1106C3.10584 28.3184 2.95118 28.5308 2.80276 28.7476C1.63919 30.4757 1.59531 32.3676 1.90488 34.1621C1.57396 35.2617 1.12917 37.1511 1.12917 38.3941V61.9169C1.13036 64.5216 1.07698 71.847 1.07698 71.847L3.44919 71.8636C3.44919 71.8636 3.50256 64.5264 3.50256 61.9169V40.1662L6.265 50.2362C6.29702 50.3512 6.34565 50.4604 6.4097 50.5612C6.76412 51.0833 7.24095 51.5107 7.79855 51.8062C8.35615 52.1016 8.97758 52.2561 9.60862 52.2561C10.0783 52.2561 10.5919 52.1648 11.1411 51.9715C11.6724 52.3486 12.307 52.5728 12.9866 52.5728C13.2927 52.5728 13.6058 52.5313 13.9189 52.4435L14.3827 52.2727L14.4467 52.4554C14.6996 53.0055 15.1053 53.4712 15.6155 53.7972C16.1257 54.1231 16.7188 54.2955 17.3242 54.2939C17.9445 54.2939 18.5601 54.1112 19.088 53.7565C20.0238 53.1279 20.5314 52.0652 20.4638 50.9265C20.6168 50.9467 20.771 50.9609 20.9252 50.9609C21.3842 50.9609 21.8409 50.8672 22.2726 50.6573C23.3188 50.1472 24.9224 48.7808 23.9225 45.3435L19.9716 34.4598L21.0438 34.9212C21.5894 35.1564 22.1855 35.2502 22.777 35.194C23.3685 35.1378 23.9362 34.9335 24.4278 34.5998C24.9204 34.2686 25.3213 33.8184 25.5936 33.2909C25.8658 32.7634 26.0005 32.1757 25.9851 31.5824C25.9718 31.0166 25.8233 30.4622 25.552 29.9655C25.2806 29.4688 24.8943 29.0443 24.4254 28.7274L20.1732 25.8606C21.7577 25.0208 23.113 23.8068 24.1216 22.3241C25.1301 20.8414 25.7613 19.1348 25.9602 17.3527C36.7977 17.2969 47.8189 2.05314 48.2993 1.37825L46.3695 0C46.2556 0.160124 34.8252 16.0539 24.9295 14.9295Z" fill="#324320"/>
<path d="M49.8412 19.5114C51.274 19.5114 52.6736 18.9623 53.6534 17.9054C54.428 17.0709 54.9198 16.0134 55.0589 14.8832L56.8143 0.835047L54.4611 0.540894L52.7057 14.5891C52.6275 15.2262 52.3507 15.8225 51.9145 16.2935C50.987 17.2946 49.33 17.4346 48.0621 16.615L42.0485 12.7388L40.7628 14.7338L43.8562 16.7265C43.9665 18.74 44.6275 20.6846 45.7672 22.3482C46.9069 24.0118 48.4814 25.3306 50.3192 26.1607L46.8428 28.2743C46.3601 28.5688 45.9546 28.9743 45.6602 29.457C45.3658 29.9398 45.191 30.4859 45.1502 31.0498C45.1062 31.6423 45.2128 32.2362 45.46 32.7765C45.7071 33.3167 46.0869 33.7856 46.564 34.1396C47.0393 34.4962 47.5969 34.7269 48.1852 34.8105C48.7734 34.894 49.3732 34.8277 49.929 34.6176L51.0214 34.2072L46.7443 44.3579L46.5617 44.8928C45.4028 48.2792 46.94 49.7203 47.9601 50.2789C48.4175 50.5259 48.93 50.6532 49.4498 50.649C49.5471 50.649 49.6443 50.6371 49.7416 50.6288C49.6845 51.1318 49.7489 51.641 49.9295 52.1139C50.1101 52.5867 50.4016 53.0093 50.7794 53.3461C51.1572 53.6829 51.6104 53.9241 52.1008 54.0494C52.5912 54.1747 53.1045 54.1805 53.5976 54.0662C54.5014 53.8574 55.2653 53.2655 55.7433 52.338L55.7729 52.2645L56.3162 52.4934C56.6364 52.5989 56.9662 52.6488 57.2923 52.6488C57.9069 52.6424 58.5066 52.4587 59.0193 52.1198C59.6313 52.3688 60.203 52.4791 60.7237 52.4791C62.2431 52.4791 63.3379 51.6026 63.8123 50.9313C63.8815 50.834 63.9355 50.7269 63.9725 50.6134L66.3696 43.2525V71.8553H68.7418V38.3942C68.7418 38.3764 68.7358 37.0147 68.7133 36.1252C69.3775 33.9783 69.8057 31.5575 68.4417 29.3122C68.3053 29.0868 68.157 28.8698 68.0088 28.6527C67.7111 28.2186 67.4549 27.8438 67.3517 27.4476C67.1892 26.8261 67.1856 26.118 67.201 25.5688C67.2354 24.1787 67.4643 22.8029 67.8486 21.6274L70.9894 12.9535L68.7584 12.1445L65.6057 20.8541C65.1256 22.3596 64.8639 23.9262 64.8288 25.506C64.8099 26.2105 64.8193 27.1345 65.0554 28.0442C65.2618 28.8413 65.6805 29.4533 66.0505 29.9942C66.1739 30.1733 66.2984 30.3536 66.4135 30.5422C67.3374 32.0639 66.9733 33.8206 66.3672 35.6863L66.3209 35.691L66.3281 35.8097C66.2142 36.1572 66.0944 36.5071 65.9722 36.8617C65.8441 37.233 65.716 37.5983 65.5998 37.9565L61.7877 49.661C61.5765 49.8768 61.1365 50.1805 60.4355 50.069L63.4197 43.3082L61.2492 42.3486L57.8415 50.069C57.6327 50.2623 57.3374 50.3382 57.1488 50.2754L56.6566 50.0666L60.6466 40.1342L58.4464 39.2494L53.5869 51.3476C53.5341 51.45 53.4595 51.5397 53.3685 51.6104C53.2775 51.6811 53.1721 51.7311 53.0598 51.7569C52.9475 51.7828 52.8309 51.7838 52.7181 51.7601C52.6053 51.7363 52.4991 51.6882 52.4068 51.6192C52.1304 51.4152 52.0165 51.057 52.0925 50.8139L53.1101 48.3456L53.0935 48.3385C53.358 47.8344 53.5727 47.3066 53.7447 46.8155C53.8265 46.5807 53.9072 46.3494 53.9926 46.1371L56.3174 40.3335C56.3695 40.2018 56.5403 39.725 56.7111 39.2494C56.8701 38.8081 57.0278 38.3657 57.0765 38.2447L54.8739 37.3646C54.8217 37.4963 54.6509 37.9731 54.4801 38.4487C54.3211 38.89 54.1634 39.3324 54.1148 39.4522L51.79 45.2558C51.6916 45.5013 51.6002 45.7646 51.5065 46.0327C51.3156 46.5795 51.1175 47.1452 50.8625 47.5129C50.5007 48.0336 49.5791 48.4571 49.0952 48.1985C48.8544 48.0668 48.119 47.6648 48.8046 45.6602L54.2761 32.5894C54.3657 32.3757 54.3908 32.1406 54.3484 31.9128C54.306 31.6851 54.1979 31.4747 54.0373 31.3076C53.8768 31.1406 53.671 31.0241 53.4451 30.9726C53.2192 30.9211 52.9832 30.9368 52.7662 31.0178L49.094 32.3961C48.9106 32.4673 48.7119 32.4902 48.5171 32.4626C48.3223 32.435 48.1378 32.3577 47.9814 32.2383C47.8231 32.122 47.6971 31.9674 47.6151 31.7889C47.5331 31.6105 47.498 31.4141 47.5129 31.2183C47.5267 31.0316 47.5848 30.851 47.6824 30.6914C47.7799 30.5317 47.9142 30.3976 48.0739 30.3002L56.3767 25.251C56.6186 25.1039 56.7989 24.875 56.8879 24.6057L59.0988 17.8414L56.8452 17.1048L54.7695 23.4528L52.9002 24.5903L52.1435 24.3389C50.8004 23.8928 49.5875 23.1235 48.6115 22.0987C47.6356 21.0739 46.9263 19.8249 46.5462 18.4617L46.7752 18.6088C47.6894 19.1977 48.7538 19.511 49.8412 19.5114ZM12.938 58.8082H15.3102V71.8553H12.938V58.8082Z" fill="#324320"/>
<path d="M55.6377 58.8081H58.0099V71.8552H55.6377V58.8081Z" fill="#324320"/>
</svg>
