<svg width="50" height="50" viewBox="0 0 50 50" fill="none" xmlns="http://www.w3.org/2000/svg">
<path d="M30.5826 20.3536L23.0663 27.4487L19.4589 23.7398C19.059 23.3283 18.4005 23.3189 17.9892 23.7186C17.5774 24.1187 17.568 24.7764 17.9679 25.1879L22.2945 29.6267C22.4878 29.8211 22.7491 29.933 23.0233 29.9388C23.2976 29.9445 23.5633 29.8437 23.7646 29.6575L32.032 21.8644C32.1313 21.7707 32.2113 21.6584 32.2672 21.5338C32.3231 21.4092 32.3538 21.2748 32.3577 21.1384C32.3616 21.0019 32.3385 20.866 32.2897 20.7385C32.241 20.6109 32.1676 20.4942 32.0737 20.3951C31.6712 19.9771 31.0079 19.9587 30.5826 20.3536Z" fill="#324320"/>
<path d="M25.0051 9.43408C16.4148 9.43408 9.42978 16.4149 9.42978 25.0003C9.42978 33.5859 16.4148 40.5667 25.0051 40.5667C33.5959 40.5667 40.5809 33.5859 40.5809 25.0002C40.5809 16.415 33.5959 9.43408 25.0051 9.43408ZM25.0051 38.4829C17.5616 38.4829 11.5148 32.4292 11.5148 25.0002C11.5148 17.5712 17.5616 11.518 25.0051 11.518C32.4561 11.518 38.4958 17.5541 38.4958 25.0002C38.4958 32.4462 32.456 38.4829 25.0051 38.4829Z" fill="#324320"/>
<path d="M46.4398 19.2699L46.7838 13.0911C46.7956 12.8882 46.7475 12.6862 46.6456 12.5103C46.5437 12.3344 46.3924 12.1922 46.2104 12.1013L40.7059 9.31948L37.9223 3.81817C37.8296 3.63778 37.6869 3.48784 37.5113 3.38624C37.3357 3.28463 37.1346 3.23564 36.9319 3.24511L30.739 3.57884L25.5785 0.171359C25.4083 0.0592601 25.2089 -0.000488281 25.0051 -0.000488281C24.8012 -0.000488281 24.6019 0.0592601 24.4317 0.171359L19.2711 3.57884L13.0893 3.2349C12.8862 3.22294 12.684 3.27088 12.508 3.37276C12.3319 3.47464 12.1896 3.62597 12.0989 3.80796L9.31489 9.30927L3.81071 12.0912C3.6301 12.1837 3.47997 12.3262 3.37829 12.5018C3.2766 12.6773 3.22766 12.8784 3.23732 13.081L3.58094 19.2596L0.17195 24.417C0.059784 24.5871 0 24.7864 0 24.9901C0 25.1938 0.059784 25.3931 0.17195 25.5632L3.57083 30.7308L3.22668 36.9095C3.21486 37.1125 3.26288 37.3144 3.3648 37.4904C3.46673 37.6663 3.61807 37.8085 3.80008 37.8993L9.30467 40.6812L12.0882 46.1826C12.1808 46.3631 12.3234 46.5131 12.4991 46.6147C12.6747 46.7164 12.8759 46.7653 13.0787 46.7556L19.2609 46.4118L24.4214 49.8186C24.5903 49.9342 24.7902 49.996 24.9948 49.996C25.1995 49.996 25.3994 49.9342 25.5682 49.8186L30.7288 46.4117L36.9112 46.7556C37.1143 46.7673 37.3163 46.7192 37.4924 46.6174C37.6684 46.5155 37.8107 46.3644 37.9016 46.1826L40.6851 40.6812L46.1897 37.8993C46.3702 37.8067 46.5203 37.6642 46.622 37.4886C46.7236 37.3131 46.7726 37.1121 46.7631 36.9095L46.4191 30.7309L49.828 25.5735C49.9402 25.4034 50 25.2041 50 25.0004C50 24.7967 49.9402 24.5975 49.828 24.4274L46.4398 19.2699ZM44.5005 29.8766C44.3733 30.063 44.3145 30.2876 44.334 30.5124L44.6569 36.3572L39.4548 38.9828C39.2565 39.0823 39.0956 39.2432 38.9963 39.4415L36.3687 44.6404L30.5204 44.3177C30.2966 44.3095 30.0753 44.3674 29.8842 44.4841L25.0052 47.704L20.1264 44.4841C19.957 44.3697 19.7575 44.3081 19.553 44.3071H19.5009L13.652 44.6303L11.0249 39.4308C10.9254 39.2325 10.7644 39.0718 10.5659 38.9726L5.35325 36.3572L5.67664 30.5124C5.68478 30.2884 5.6266 30.0675 5.50963 29.8766L2.2884 25.0004L5.50963 20.124C5.63712 19.938 5.69614 19.7135 5.67664 19.4888L5.35325 13.6434L10.5558 11.0179C10.7541 10.9186 10.915 10.7579 11.0143 10.5597L13.6415 5.3602L19.4902 5.6834C19.7139 5.69111 19.935 5.63339 20.1264 5.51649L25.0051 2.29718L29.8842 5.51649C30.0706 5.6439 30.2954 5.70288 30.5204 5.6834L36.3687 5.3602L38.9963 10.5597C39.0957 10.7579 39.2565 10.9186 39.4548 11.0179L44.6569 13.6435L44.334 19.4887C44.326 19.7122 44.3839 19.9331 44.5005 20.124L47.7222 25.0003L44.5005 29.8766Z" fill="#324320"/>
</svg>
