<svg width="50" height="50" viewBox="0 0 50 50" fill="none" xmlns="http://www.w3.org/2000/svg">
<path d="M46.0125 49H3.98755C2.33753 49 1 47.6625 1 46.0124V17.1328H49V46.0124C49 47.6625 47.6625 49 46.0125 49Z" stroke="#324320" stroke-width="2" stroke-miterlimit="10" stroke-linecap="round" stroke-linejoin="round"/>
<path d="M49 17.1328H0.999939V8.17015C0.999939 6.52012 2.33747 5.1826 3.98749 5.1826H46.0124C47.6624 5.1826 49 6.52012 49 8.17015V17.1328Z" stroke="#324320" stroke-width="2" stroke-miterlimit="10" stroke-linecap="round" stroke-linejoin="round"/>
<path d="M19.0248 9.36499V0.99984" stroke="#324320" stroke-width="2" stroke-miterlimit="10" stroke-linecap="round" stroke-linejoin="round"/>
<path d="M42.9253 9.36499V0.99984" stroke="#324320" stroke-width="2" stroke-miterlimit="10" stroke-linecap="round" stroke-linejoin="round"/>
<path d="M30.975 9.36499V0.99984" stroke="#324320" stroke-width="2" stroke-miterlimit="10" stroke-linecap="round" stroke-linejoin="round"/>
<path d="M7.07462 9.36499V0.99984" stroke="#324320" stroke-width="2" stroke-miterlimit="10" stroke-linecap="round" stroke-linejoin="round"/>
<path d="M15.2167 28.9053C15.5314 27.3036 16.9429 26.0954 18.6368 26.0954C20.5617 26.0954 22.1222 27.6559 22.1222 29.5809C22.1222 31.5059 20.5617 33.0664 18.6368 33.0664" stroke="#324320" stroke-width="2" stroke-miterlimit="10" stroke-linecap="round" stroke-linejoin="round"/>
<path d="M18.6368 33.0663C20.5617 33.0663 22.1222 34.6269 22.1222 36.5518C22.1222 38.4768 20.5617 40.0374 18.6368 40.0374C16.8768 40.0374 15.4215 38.7328 15.1849 37.0379C15.1625 36.8769 15.1512 36.7144 15.1513 36.5518" stroke="#324320" stroke-width="2" stroke-miterlimit="10" stroke-linecap="round" stroke-linejoin="round"/>
<path d="M34.8487 36.1638C34.8487 38.3031 33.1145 40.0374 30.9752 40.0374C28.8358 40.0374 27.1015 38.3031 27.1015 36.1638V29.9691C27.1015 27.8297 28.8358 26.0954 30.9752 26.0954C33.1145 26.0954 34.8487 27.8297 34.8487 29.9691V36.1638Z" stroke="#324320" stroke-width="2" stroke-miterlimit="10" stroke-linecap="round" stroke-linejoin="round"/>
</svg>
