<svg width="55" height="50" viewBox="0 0 55 50" fill="none" xmlns="http://www.w3.org/2000/svg">
<path d="M0.141889 48.6252C0.0462378 48.7737 -0.00242559 48.9479 0.00232426 49.1248C0.00707412 49.3016 0.0650139 49.4729 0.168493 49.616C0.336986 49.857 0.611896 49.9998 0.895674 49.9998C0.95775 49.9998 1.01983 49.9998 1.09077 49.9819L9.24052 48.1611C11.5906 49.3661 14.2244 49.9998 16.867 49.9998C26.0632 49.9998 33.5567 42.5381 33.6986 33.3093C37.6892 34.3982 42.0612 33.9876 45.7681 32.0954L53.9178 33.9073C53.9799 33.9251 54.0419 33.9251 54.1129 33.9251C54.3967 33.9251 54.6716 33.7823 54.8401 33.5413C55.044 33.2468 55.0529 32.8541 54.8667 32.5506L51.5412 27.2579C53.7853 24.2993 55.0006 20.6802 54.9997 16.958C54.9997 7.60418 47.4441 -0.000244141 38.1504 -0.000244141C28.8567 -0.000244141 21.4607 7.46138 21.3188 16.6813C19.8999 16.2886 18.4101 16.0654 16.867 16.0654C7.55559 16.0744 0 23.6788 0 33.0326C0 36.7545 1.22379 40.3871 3.46741 43.3325L0.141889 48.6252ZM38.1327 1.79376C46.442 1.79376 53.2084 8.60383 53.2084 16.9669C53.2084 20.4924 51.9846 23.9287 49.7498 26.6331C49.5015 26.9276 49.4749 27.3561 49.6789 27.6774L52.2063 31.6938L45.8213 30.2747C45.6173 30.23 45.3956 30.2568 45.2094 30.355C41.671 32.2472 37.4055 32.6131 33.6099 31.4171C33.0069 24.9819 28.8035 19.5821 23.057 17.2793C23.057 17.1722 23.0481 17.0651 23.0481 16.958C23.0481 8.5949 29.8144 1.78483 38.1238 1.78483L38.1327 1.79376ZM1.77361 33.0326C1.77361 24.6695 8.53994 17.8594 16.8493 17.8594C25.1587 17.8594 31.925 24.6695 31.925 33.0326C31.925 41.3957 25.1587 48.2058 16.8493 48.2058C14.384 48.2058 11.9364 47.5899 9.76373 46.4207C9.63571 46.3509 9.49252 46.3141 9.34693 46.3136C9.28486 46.3136 9.21391 46.3136 9.15184 46.3314L2.7757 47.7506L5.3031 43.7341C5.50706 43.4039 5.48046 42.9844 5.24102 42.6899C3.00627 39.9766 1.78248 36.5403 1.78248 33.0148L1.77361 33.0326Z" fill="#324320"/>
<path d="M16.8493 41.0656C17.584 41.0656 18.1795 40.4662 18.1795 39.7267C18.1795 38.9873 17.584 38.3879 16.8493 38.3879C16.1147 38.3879 15.5191 38.9873 15.5191 39.7267C15.5191 40.4662 16.1147 41.0656 16.8493 41.0656Z" fill="#324320"/>
<path d="M16.8493 25.8924C18.3125 25.8924 19.5097 27.0973 19.5097 28.57C19.5097 30.0427 18.3125 31.2476 16.8493 31.2476C16.3616 31.2476 15.9625 31.6493 15.9625 32.1402V36.6028H17.7361V32.9434C18.5581 32.7746 19.3156 32.3745 19.9207 31.7896C20.5258 31.2047 20.9536 30.459 21.1544 29.6392C21.3553 28.8194 21.3209 27.9591 21.0553 27.1581C20.7897 26.3572 20.3038 25.6485 19.654 25.1144C19.0042 24.5803 18.2172 24.2427 17.3844 24.1408C16.5516 24.0389 15.7071 24.1769 14.9491 24.5388C14.1911 24.9006 13.5507 25.4715 13.1021 26.1851C12.6536 26.8986 12.4155 27.7256 12.4153 28.57H14.1889C14.1889 27.0973 15.3861 25.8924 16.8493 25.8924ZM31.0382 10.7192H45.2271V12.5043H31.0382V10.7192ZM31.0382 16.0745H45.2271V17.8595H31.0382V16.0745ZM34.5854 21.4297H45.2271V23.2148H34.5854V21.4297Z" fill="#324320"/>
</svg>
