<svg width="50" height="50" viewBox="0 0 50 50" fill="none" xmlns="http://www.w3.org/2000/svg">
<path d="M35.5116 25.6115C35.4686 25.4647 35.3918 25.3301 35.2872 25.2185C35.1827 25.1069 35.0534 25.0214 34.9098 24.9688C34.8504 24.9472 34.3691 24.7768 33.6214 24.6675C36.8155 21.2687 35.761 17.2979 35.5116 16.5225C35.4687 16.3757 35.3918 16.241 35.2873 16.1294C35.1827 16.0177 35.0534 15.9322 34.9098 15.8797C34.7727 15.8295 32.3819 14.9865 29.6581 15.9345C29.8119 15.3035 29.9019 14.6099 29.9019 13.8487C29.9019 8.97889 26.2141 6.83846 25.474 6.45848C25.3399 6.38505 25.1903 6.34417 25.0374 6.33915C24.8846 6.33413 24.7327 6.3651 24.594 6.42958C24.4109 6.51464 20.1087 8.57352 20.1087 13.8487C20.1087 14.6114 20.199 15.3065 20.3534 15.9385C17.6248 14.9842 15.2276 15.8294 15.0903 15.8797C14.9467 15.9322 14.8174 16.0177 14.7129 16.1294C14.6083 16.241 14.5315 16.3757 14.4885 16.5225C14.2392 17.2979 13.1846 21.2687 16.3787 24.6675C15.6311 24.7768 15.1497 24.9472 15.0903 24.9688C14.9467 25.0214 14.8174 25.1069 14.7128 25.2186C14.6083 25.3302 14.5314 25.4648 14.4884 25.6116C14.2339 26.4033 13.1396 30.5248 16.5831 33.9683C18.5759 35.9611 20.7876 36.4365 22.4446 36.4365C23.0581 36.4365 23.5943 36.3712 24.0165 36.2936V42.6836C24.0165 43.2228 24.4537 43.6601 24.9931 43.6601C25.5324 43.6601 25.9696 43.2228 25.9696 42.6836V36.2912C26.4927 36.3877 27.0235 36.4363 27.5554 36.4364C29.2123 36.4364 31.4243 35.9608 33.4169 33.9683C36.8605 30.5246 35.7661 26.4032 35.5116 25.6115ZM24.0165 33.2494C23.9992 33.614 23.9512 33.9765 23.8732 34.3331C22.8293 34.565 20.2176 34.8406 17.9643 32.5872C15.7448 30.368 15.9775 27.7995 16.2232 26.6788C16.8795 26.5361 18.1603 26.3771 19.5782 26.8373C19.6716 26.8723 19.7647 26.9053 19.8572 26.936C20.6082 27.2208 21.3879 27.6856 22.1269 28.4245C23.535 29.8326 23.9555 31.3805 24.0165 32.5978V33.2494ZM24.0165 24.1604C23.9992 24.525 23.9512 24.8875 23.8732 25.244C23.2264 25.3879 21.9777 25.5475 20.5855 25.113C20.4466 25.0594 20.3063 25.0098 20.1647 24.9642C19.4363 24.6766 18.6821 24.216 17.9642 23.4981C15.7448 21.2788 15.9775 18.7104 16.2232 17.5898C17.266 17.3631 19.8851 17.0937 22.1269 19.3355C22.1411 19.3498 22.154 19.3642 22.168 19.3783C22.2518 19.4723 22.3376 19.5644 22.4254 19.6546C23.5942 20.974 23.9601 22.3828 24.0165 23.5089V24.1604ZM25.0068 19.2606C24.7008 19.0643 24.2598 18.7408 23.8118 18.2731C23.7659 18.2226 23.7194 18.1726 23.6725 18.123C22.8566 17.2167 22.0617 15.8264 22.0617 13.8487C22.0617 10.6654 24.0988 9.01376 25.0003 8.43876C25.9657 9.05653 27.9486 10.7082 27.9486 13.8487C27.9486 15.7149 27.2484 17.054 26.4874 17.9591C26.3333 18.1135 26.1846 18.2733 26.0416 18.4382C25.6512 18.8178 25.2773 19.0884 25.0068 19.2606ZM25.9757 23.8439C25.9743 22.6975 26.2709 21.1803 27.4852 19.7555C27.6348 19.6068 27.7788 19.4527 27.917 19.2933C30.1579 17.0892 32.7392 17.3584 33.7765 17.5879C34.0223 18.7075 34.2565 21.2775 32.0358 23.4981C31.3192 24.2148 30.5664 24.675 29.8394 24.9629C29.6953 25.0092 29.5526 25.0596 29.4114 25.1141C28.0193 25.5479 26.7715 25.3877 26.1273 25.2443C26.055 24.9188 25.9784 24.4408 25.9756 23.8688L25.9757 23.8439ZM32.0358 32.5872C29.782 34.841 27.1702 34.5649 26.1288 34.3339C25.9018 33.295 25.6273 30.6704 27.8732 28.4245C28.5917 27.7059 29.3465 27.2453 30.0754 26.9576C30.2167 26.9122 30.3567 26.8628 30.4951 26.8094C31.8844 26.3758 33.1302 26.534 33.7765 26.6768C34.0223 27.7966 34.2565 30.3666 32.0358 32.5872Z" fill="#324320"/>
<path d="M30.2105 0.543555C28.5083 0.182617 26.7552 -0.000488281 25 -0.000488281C18.3223 -0.000488281 12.0442 2.5999 7.32236 7.32188C2.60049 12.0438 0 18.3218 0 24.9995C0 30.5638 1.87207 35.9953 5.28281 40.3688C4.89912 40.9623 4.69258 41.6537 4.69258 42.3773C4.69258 43.3686 5.07861 44.3004 5.77949 45.0014C6.48037 45.7022 7.4123 46.0883 8.40352 46.0883C9.39473 46.0883 10.3267 45.7022 11.0275 45.0014C11.7285 44.3004 12.1145 43.3686 12.1145 42.3773C12.1145 41.3861 11.7284 40.4543 11.0275 39.7533C10.3267 39.0523 9.39473 38.6663 8.40352 38.6663C7.82579 38.6654 7.2559 38.8 6.73965 39.0594C3.64863 35.0469 1.95312 30.0836 1.95312 24.9995C1.95312 12.2914 12.2919 1.95264 25 1.95264C26.6193 1.95264 28.236 2.12139 29.8054 2.4542C30.3333 2.56602 30.8514 2.229 30.9633 1.70146C31.0752 1.17383 30.7382 0.655469 30.2105 0.543555ZM7.16055 41.1343C7.50322 40.7915 7.95332 40.6202 8.40352 40.6202C8.85371 40.6202 9.30381 40.7916 9.64648 41.1343C9.97852 41.4662 10.1613 41.9077 10.1613 42.3772C10.1613 42.8468 9.97852 43.2882 9.64648 43.6202C8.96113 44.3058 7.8459 44.3056 7.16055 43.6202C6.82852 43.2883 6.6457 42.8468 6.6457 42.3772C6.6457 41.9077 6.82852 41.4663 7.16055 41.1343ZM44.7172 9.63027C45.1009 9.03672 45.3074 8.34531 45.3074 7.62168C45.3074 6.63047 44.9214 5.69853 44.2205 4.99766C43.5196 4.29668 42.5877 3.91074 41.5965 3.91074C40.6053 3.91074 39.6733 4.29678 38.9725 4.99766C38.2716 5.69853 37.8855 6.63047 37.8855 7.62168C37.8855 8.61289 38.2716 9.54482 38.9725 10.2457C39.6733 10.9467 40.6053 11.3326 41.5965 11.3326C42.1742 11.3335 42.7442 11.1989 43.2604 10.9396C46.3514 14.9521 48.0469 19.9154 48.0469 24.9995C48.0469 37.7076 37.7081 48.0464 25 48.0464C23.6351 48.0466 22.2728 47.9267 20.9289 47.6881C20.3982 47.5937 19.8907 47.9471 19.7962 48.4782C19.7016 49.0092 20.0553 49.5163 20.5862 49.6109C22.0432 49.8696 23.5202 49.9997 25 49.9995C31.6777 49.9995 37.9558 47.399 42.6777 42.6772C47.3997 37.9555 50 31.6772 50 24.9995C50 19.4353 48.1279 14.0037 44.7172 9.63027ZM42.8396 8.86465C42.5076 9.19668 42.0661 9.37949 41.5966 9.37949C41.1271 9.37949 40.6855 9.19678 40.3536 8.86465C39.6682 8.1793 39.6682 7.06416 40.3536 6.37871C40.6855 6.04668 41.1271 5.86387 41.5966 5.86387C42.0661 5.86387 42.5075 6.04668 42.8396 6.37871C43.0033 6.54155 43.1331 6.73526 43.2215 6.94862C43.3099 7.16198 43.355 7.39075 43.3544 7.62168C43.3544 8.09121 43.1716 8.53262 42.8396 8.86465ZM16.4193 46.3962L16.0506 47.3005L16.4166 46.3951C15.9163 46.1932 15.3474 46.4345 15.1452 46.9345C14.9431 47.4345 15.1846 48.0037 15.6846 48.206L15.7147 48.2179C15.8299 48.2619 15.9484 48.2828 16.065 48.2828C16.4584 48.2828 16.8302 48.0447 16.979 47.6563C17.172 47.1525 16.923 46.5891 16.4193 46.3962ZM34.3578 1.81035L34.3404 1.80342C33.8397 1.60303 33.2714 1.84668 33.071 2.34746C32.8706 2.84824 33.1143 3.41641 33.615 3.6168L33.6262 3.62129C33.7423 3.66835 33.8664 3.69256 33.9917 3.69258C34.378 3.69258 34.7438 3.46182 34.8975 3.08164C35.0995 2.58154 34.8579 2.0124 34.3578 1.81035Z" fill="#324320"/>
</svg>
