<svg width="41" height="29" viewBox="0 0 41 29" fill="none" xmlns="http://www.w3.org/2000/svg">
<mask id="mask0_1_2554" style="mask-type:alpha" maskUnits="userSpaceOnUse" x="0" y="0" width="41" height="29">
<rect y="0.677734" width="41" height="28" fill="#016FD0"/>
</mask>
<g mask="url(#mask0_1_2554)">
<rect x="0.5" y="1.17773" width="40" height="27" rx="3.5" fill="white" stroke="#E8ECEF"/>
<path d="M8.46289 22.2396V15.9366H14.9784L15.6774 16.87L16.3996 15.9366H40.0491V21.8049C40.0491 21.8049 39.4306 22.2333 38.7153 22.2396H25.6201L24.832 21.246V22.2396H22.2493V20.5435C22.2493 20.5435 21.8965 20.7803 21.1338 20.7803H20.2547V22.2396H16.3443L15.6463 21.2861L14.9375 22.2396H8.46289Z" fill="#016FD0"/>
<path d="M0.854492 11.1862L2.32376 7.67773H4.8647L5.69852 9.64306V7.67773H8.85715L9.35352 9.09821L9.83474 7.67773H24.0137V8.39186C24.0137 8.39186 24.7591 7.67773 25.984 7.67773L30.5846 7.6942L31.404 9.63381V7.67773H34.0473L34.7748 8.79188V7.67773H37.4424V13.9806H34.7748L34.0776 12.8629V13.9806H30.194L29.8035 12.9871H28.7594L28.3753 13.9806H25.7415C24.6875 13.9806 24.0137 13.2811 24.0137 13.2811V13.9806H20.0427L19.2545 12.9871V13.9806H4.48827L4.09799 12.9871H3.05728L2.66976 13.9806H0.854492V11.1862Z" fill="#016FD0"/>
<path d="M2.84305 8.45459L0.861328 13.1746H2.15153L2.51718 12.2294H4.64289L5.00664 13.1746H6.32526L4.34544 8.45459H2.84305ZM3.57624 9.55307L4.22419 11.2047H2.92641L3.57624 9.55307Z" fill="white"/>
<path d="M6.46094 13.1734V8.45343L8.29438 8.46041L9.36078 11.5035L10.4016 8.45343H12.2204V13.1734H11.0685V9.69553L9.84749 13.1734H8.83728L7.61283 9.69553V13.1734H6.46094Z" fill="white"/>
<path d="M13.0098 13.1734V8.45343H16.7686V9.50923H14.1738V10.3166H16.708V11.3103H14.1738V12.1487H16.7686V13.1734H13.0098Z" fill="white"/>
<path d="M17.4346 8.45459V13.1746H18.5865V11.4978H19.0715L20.4526 13.1746H21.8603L20.3447 11.4357C20.9667 11.3819 21.6083 10.835 21.6083 9.98588C21.6083 8.99262 20.8473 8.45459 19.9979 8.45459H17.4346ZM18.5865 9.51038H19.9032C20.2191 9.51038 20.4489 9.76349 20.4489 10.0072C20.4489 10.3208 20.1511 10.5041 19.9203 10.5041H18.5865V9.51038Z" fill="white"/>
<path d="M23.2562 13.1734H22.0801V8.45343H23.2562V13.1734Z" fill="white"/>
<path d="M26.0454 13.1734H25.7915C24.5632 13.1734 23.8174 12.1821 23.8174 10.8328C23.8174 9.45027 24.5548 8.45343 26.106 8.45343H27.3792V9.57133H26.0595C25.4298 9.57133 24.9844 10.0747 24.9844 10.8445C24.9844 11.7586 25.4937 12.1425 26.2273 12.1425H26.5304L26.0454 13.1734Z" fill="white"/>
<path d="M28.553 8.45459L26.5713 13.1746H27.8615L28.2271 12.2294H30.3528L30.7166 13.1746H32.0352L30.0554 8.45459H28.553ZM29.2862 9.55307L29.9341 11.2047H28.6364L29.2862 9.55307Z" fill="white"/>
<path d="M32.168 13.1734V8.45343H33.6325L35.5024 11.419V8.45343H36.6543V13.1734H35.2372L33.3199 10.1303V13.1734H32.168Z" fill="white"/>
<path d="M9.25098 21.433V16.713H13.0098V17.7687H10.415V18.5761H12.9492V19.5698H10.415V20.4082H13.0098V21.433H9.25098Z" fill="white"/>
<path d="M27.6689 21.433V16.713H31.4278V17.7687H28.833V18.5761H31.3551V19.5698H28.833V20.4082H31.4278V21.433H27.6689Z" fill="white"/>
<path d="M13.1559 21.4329L14.986 19.102L13.1123 16.713H14.5635L15.6794 18.1899L16.7991 16.713H18.1935L16.3444 19.0729L18.178 21.4329H16.7269L15.6434 19.9793L14.5863 21.4329H13.1559Z" fill="white"/>
<path d="M18.3145 16.7134V21.4335H19.4967V19.9429H20.7092C21.7352 19.9429 22.5129 19.3853 22.5129 18.301C22.5129 17.4028 21.9029 16.7134 20.8589 16.7134H18.3145ZM19.4967 17.7809H20.7736C21.1051 17.7809 21.342 17.989 21.342 18.3243C21.342 18.6393 21.1063 18.8677 20.7698 18.8677H19.4967V17.7809Z" fill="white"/>
<path d="M23.0137 16.713V21.433H24.1656V19.7561H24.6506L26.0317 21.433H27.4394L25.9238 19.694C26.5458 19.6402 27.1874 19.0933 27.1874 18.2442C27.1874 17.251 26.4264 16.713 25.577 16.713H23.0137ZM24.1656 17.7687H25.4823C25.7982 17.7687 26.028 18.0219 26.028 18.2656C26.028 18.5792 25.7302 18.7624 25.4994 18.7624H24.1656V17.7687Z" fill="white"/>
<path d="M31.9617 21.433V20.4082H34.267C34.6081 20.4082 34.7558 20.2194 34.7558 20.0123C34.7558 19.8139 34.6086 19.6133 34.267 19.6133H33.2253C32.3197 19.6133 31.8154 19.0481 31.8154 18.1996C31.8154 17.4428 32.2773 16.713 33.6229 16.713H35.8661L35.381 17.775H33.441C33.0701 17.775 32.956 17.9743 32.956 18.1647C32.956 18.3603 33.097 18.5761 33.3804 18.5761H34.4716C35.4811 18.5761 35.9191 19.1627 35.9191 19.9308C35.9191 20.7566 35.431 21.433 34.4167 21.433H31.9617Z" fill="white"/>
<path d="M36.1892 21.433V20.4082H38.4946C38.8357 20.4082 38.9834 20.2194 38.9834 20.0123C38.9834 19.8139 38.8361 19.6133 38.4946 19.6133H37.4528C36.5473 19.6133 36.043 19.0481 36.043 18.1996C36.043 17.4428 36.5048 16.713 37.8504 16.713H40.0478L39.6086 17.775H37.6685C37.2977 17.775 37.1835 17.9743 37.1835 18.1647C37.1835 18.3603 37.3246 18.5761 37.6079 18.5761H38.6992C39.7086 18.5761 40.1466 19.1627 40.1466 19.9308C40.1466 20.7566 39.6585 21.433 38.6442 21.433H36.1892Z" fill="white"/>
</g>
</svg>
