<svg width="41" height="29" viewBox="0 0 41 29" fill="none" xmlns="http://www.w3.org/2000/svg">
<rect x="0.5" y="1.17773" width="40" height="27" rx="3.5" fill="white" stroke="#E8ECEF"/>
<path fill-rule="evenodd" clip-rule="evenodd" d="M10.4818 10.712C10.9944 10.7562 11.5069 10.4462 11.8273 10.0531C12.1423 9.64895 12.3505 9.10638 12.2971 8.55273C11.8433 8.57488 11.2827 8.86278 10.9623 9.26694C10.6687 9.61573 10.4177 10.1805 10.4818 10.712ZM16.5791 17.8418V9.21147H19.7025C21.3149 9.21147 22.4415 10.3629 22.4415 12.0458C22.4415 13.7287 21.2936 14.8912 19.6598 14.8912H17.8712V17.8418H16.5791ZM12.2918 10.8169C11.8403 10.7899 11.4283 10.9577 11.0955 11.0932C10.8813 11.1804 10.6999 11.2542 10.5619 11.2542C10.4071 11.2542 10.2183 11.1764 10.0062 11.0891C9.7284 10.9746 9.41076 10.8438 9.07766 10.8501C8.31416 10.8611 7.60405 11.3095 7.2143 12.0237C6.41342 13.4519 7.00607 15.5666 7.78025 16.7291C8.15933 17.3048 8.61315 17.9359 9.21114 17.9138C9.47422 17.9035 9.66346 17.8202 9.85931 17.7341C10.0848 17.6349 10.319 17.5318 10.6847 17.5318C11.0378 17.5318 11.2618 17.6322 11.4768 17.7285C11.6812 17.8201 11.8776 17.9081 12.169 17.9027C12.7884 17.8916 13.1781 17.327 13.5572 16.7512C13.9663 16.1333 14.1461 15.5303 14.1734 15.4388L14.1766 15.4282C14.1759 15.4275 14.1709 15.4251 14.1619 15.4209L14.1619 15.4209C14.0252 15.356 12.9799 14.8598 12.9699 13.5294C12.9598 12.4127 13.799 11.8469 13.9311 11.7579L13.9311 11.7579C13.9391 11.7524 13.9445 11.7488 13.947 11.7469C13.4131 10.9276 12.5801 10.839 12.2918 10.8169ZM24.8017 17.9083C25.6132 17.9083 26.3661 17.482 26.7078 16.8066H26.7345V17.8418H27.9304V13.546C27.9304 12.3005 26.9694 11.4978 25.4904 11.4978C24.1183 11.4978 23.1038 12.3116 23.0665 13.4298H24.2304C24.3265 12.8983 24.8017 12.5496 25.4531 12.5496C26.2433 12.5496 26.6864 12.9316 26.6864 13.6346V14.1107L25.074 14.2103C23.5737 14.3044 22.7621 14.9411 22.7621 16.0482C22.7621 17.1665 23.6004 17.9083 24.8017 17.9083ZM25.1485 16.8843C24.4598 16.8843 24.0219 16.5411 24.0219 16.0151C24.0219 15.4725 24.4437 15.157 25.25 15.1071L26.6862 15.013V15.5002C26.6862 16.3086 26.0241 16.8843 25.1485 16.8843ZM31.897 18.1795C31.3791 19.6908 30.7865 20.189 29.5264 20.189C29.4303 20.189 29.11 20.1779 29.0352 20.1558V19.1206C29.1153 19.1316 29.3129 19.1427 29.4143 19.1427C29.9856 19.1427 30.306 18.8936 30.5035 18.2459L30.621 17.8639L28.4319 11.5808H29.7827L31.3044 16.6793H31.3311L32.8527 11.5808H34.1662L31.897 18.1795ZM17.8713 10.3408H19.3609C20.4821 10.3408 21.1228 10.9609 21.1228 12.0516C21.1228 13.1422 20.4821 13.7679 19.3556 13.7679H17.8713V10.3408Z" fill="black"/>
</svg>
