<svg width="19" height="20" viewBox="0 0 19 20" fill="none" xmlns="http://www.w3.org/2000/svg">
<path d="M16.625 5.25H14.25C14.25 3.99022 13.7496 2.78204 12.8588 1.89124C11.968 1.00044 10.7598 0.5 9.5 0.5C8.24022 0.5 7.03204 1.00044 6.14124 1.89124C5.25045 2.78204 4.75 3.99022 4.75 5.25H2.375C1.74511 5.25 1.14102 5.50022 0.695621 5.94562C0.250222 6.39102 0 6.99511 0 7.625L0 15.5417C0.00125705 16.5911 0.418698 17.5972 1.16076 18.3392C1.90282 19.0813 2.9089 19.4987 3.95833 19.5H15.0417C16.0911 19.4987 17.0972 19.0813 17.8392 18.3392C18.5813 17.5972 18.9987 16.5911 19 15.5417V7.625C19 6.99511 18.7498 6.39102 18.3044 5.94562C17.859 5.50022 17.2549 5.25 16.625 5.25ZM9.5 2.08333C10.3399 2.08333 11.1453 2.41696 11.7392 3.01083C12.333 3.60469 12.6667 4.41015 12.6667 5.25H6.33333C6.33333 4.41015 6.66696 3.60469 7.26083 3.01083C7.85469 2.41696 8.66015 2.08333 9.5 2.08333ZM17.4167 15.5417C17.4167 16.1716 17.1664 16.7756 16.721 17.221C16.2756 17.6664 15.6716 17.9167 15.0417 17.9167H3.95833C3.32844 17.9167 2.72435 17.6664 2.27895 17.221C1.83356 16.7756 1.58333 16.1716 1.58333 15.5417V7.625C1.58333 7.41504 1.66674 7.21367 1.81521 7.06521C1.96367 6.91674 2.16504 6.83333 2.375 6.83333H4.75V8.41667C4.75 8.62663 4.83341 8.82799 4.98187 8.97646C5.13034 9.12493 5.3317 9.20833 5.54167 9.20833C5.75163 9.20833 5.95299 9.12493 6.10146 8.97646C6.24993 8.82799 6.33333 8.62663 6.33333 8.41667V6.83333H12.6667V8.41667C12.6667 8.62663 12.7501 8.82799 12.8985 8.97646C13.047 9.12493 13.2484 9.20833 13.4583 9.20833C13.6683 9.20833 13.8697 9.12493 14.0181 8.97646C14.1666 8.82799 14.25 8.62663 14.25 8.41667V6.83333H16.625C16.835 6.83333 17.0363 6.91674 17.1848 7.06521C17.3333 7.21367 17.4167 7.41504 17.4167 7.625V15.5417Z" fill="#565656"/>
</svg>
