<svg width="26" height="15" viewBox="0 0 26 15" fill="none" xmlns="http://www.w3.org/2000/svg">
<path d="M22.2156 14.4163C21.7825 14.4166 21.3591 14.2885 20.9989 14.0482C20.6387 13.8078 20.3579 13.466 20.1919 13.0661C20.026 12.6661 19.9824 12.2259 20.0667 11.8011C20.151 11.3764 20.3594 10.9861 20.6654 10.6798C20.9715 10.3735 21.3616 10.1649 21.7863 10.0803C22.211 9.99567 22.6512 10.0389 23.0513 10.2046C23.4514 10.3702 23.7934 10.6508 24.034 11.0108C24.2746 11.3709 24.4031 11.7942 24.4031 12.2272C24.4028 12.8074 24.1723 13.3638 23.7622 13.7743C23.352 14.1847 22.7958 14.4156 22.2156 14.4163ZM22.2156 10.8366C21.9405 10.8363 21.6714 10.9176 21.4426 11.0702C21.2137 11.2228 21.0352 11.4399 20.9297 11.694C20.8242 11.948 20.7964 12.2277 20.8499 12.4975C20.9034 12.7674 21.0357 13.0153 21.2301 13.2099C21.4245 13.4046 21.6723 13.5371 21.9421 13.5909C22.2119 13.6447 22.4915 13.6173 22.7457 13.5121C22.9999 13.4069 23.2172 13.2286 23.3701 12.9999C23.5229 12.7712 23.6045 12.5023 23.6045 12.2272C23.6044 11.8587 23.458 11.5054 23.1976 11.2447C22.9372 10.9839 22.584 10.8372 22.2156 10.8366ZM10.6795 14.4163C10.2465 14.4168 9.82302 14.2887 9.46274 14.0484C9.10246 13.8081 8.82155 13.4664 8.65553 13.0664C8.48951 12.6665 8.44586 12.2262 8.53009 11.8014C8.61431 11.3767 8.82264 10.9864 9.12871 10.68C9.43478 10.3737 9.82484 10.1649 10.2495 10.0803C10.6743 9.99567 11.1145 10.0389 11.5147 10.2045C11.9148 10.3701 12.2568 10.6507 12.4974 11.0108C12.7381 11.3708 12.8665 11.7942 12.8665 12.2272C12.8661 12.8073 12.6356 13.3635 12.2256 13.7739C11.8156 14.1843 11.2596 14.4153 10.6795 14.4163ZM10.6795 10.8366C10.4044 10.8362 10.1354 10.9174 9.9064 11.07C9.67744 11.2225 9.49888 11.4395 9.39331 11.6936C9.28773 11.9476 9.25989 12.2273 9.3133 12.4972C9.36672 12.7671 9.49899 13.015 9.69338 13.2097C9.88777 13.4044 10.1355 13.5371 10.4053 13.5909C10.6751 13.6447 10.9548 13.6173 11.2091 13.5121C11.4633 13.4069 11.6806 13.2287 11.8335 13C11.9864 12.7713 12.068 12.5023 12.068 12.2272C12.0677 11.8589 11.9214 11.5057 11.6611 11.245C11.4009 10.9843 11.0479 10.8375 10.6795 10.8366Z" fill="#588157"/>
<path d="M25.0921 12.6267H24.0002C23.8944 12.6267 23.7928 12.5847 23.7179 12.5098C23.643 12.4349 23.601 12.3334 23.601 12.2275C23.601 12.1216 23.643 12.02 23.7179 11.9451C23.7928 11.8702 23.8944 11.8282 24.0002 11.8282H24.9793V9.71093C24.979 9.42467 24.9057 9.14322 24.7663 8.8932L22.6049 5.01805C22.5864 4.98498 22.5595 4.95743 22.5268 4.93825C22.4942 4.91906 22.457 4.90894 22.4191 4.90891H19.4735V11.8298H20.4243C20.5302 11.8298 20.6317 11.8718 20.7066 11.9467C20.7815 12.0216 20.8236 12.1232 20.8236 12.2291C20.8236 12.335 20.7815 12.4365 20.7066 12.5114C20.6317 12.5863 20.5302 12.6283 20.4243 12.6283H19.0742C18.9683 12.6283 18.8667 12.5863 18.7919 12.5114C18.717 12.4365 18.6749 12.335 18.6749 12.2291V4.50963C18.6749 4.40374 18.717 4.30218 18.7919 4.2273C18.8667 4.15242 18.9683 4.11035 19.0742 4.11035H22.4191C22.5992 4.11026 22.7761 4.15828 22.9315 4.24944C23.0868 4.3406 23.215 4.47159 23.3028 4.62888L25.4637 8.50457C25.6692 8.87347 25.7771 9.28868 25.7773 9.71093V11.9416C25.777 12.1232 25.7048 12.2973 25.5763 12.4258C25.4479 12.5542 25.2738 12.6265 25.0921 12.6267ZM8.88774 12.6267H5.05944C4.95354 12.6267 4.85198 12.5847 4.7771 12.5098C4.70222 12.4349 4.66016 12.3334 4.66016 12.2275V9.15673C4.66016 9.05083 4.70222 8.94927 4.7771 8.87439C4.85198 8.79951 4.95354 8.75745 5.05944 8.75745C5.16533 8.75745 5.26689 8.79951 5.34177 8.87439C5.41665 8.94927 5.45872 9.05083 5.45872 9.15673V11.8282H8.88774C8.99364 11.8282 9.09519 11.8702 9.17007 11.9451C9.24495 12.02 9.28702 12.1216 9.28702 12.2275C9.28702 12.3334 9.24495 12.4349 9.17007 12.5098C9.09519 12.5847 8.99364 12.6267 8.88774 12.6267ZM5.05944 7.74008C4.95354 7.74008 4.85198 7.69801 4.7771 7.62313C4.70222 7.54825 4.66016 7.44669 4.66016 7.3408V4.65976C4.66016 4.55387 4.70222 4.45231 4.7771 4.37743C4.85198 4.30255 4.95354 4.26048 5.05944 4.26048C5.16533 4.26048 5.26689 4.30255 5.34177 4.37743C5.41665 4.45231 5.45872 4.55387 5.45872 4.65976V7.3424C5.4583 7.44801 5.41604 7.54916 5.34121 7.6237C5.26637 7.69823 5.16506 7.74008 5.05944 7.74008Z" fill="#588157"/>
<path d="M19.0712 12.6268H12.4607C12.3548 12.6268 12.2532 12.5848 12.1784 12.5099C12.1035 12.435 12.0614 12.3334 12.0614 12.2275C12.0614 12.1216 12.1035 12.0201 12.1784 11.9452C12.2532 11.8703 12.3548 11.8283 12.4607 11.8283H18.6719V1.38255H5.45571V3.02705C5.45571 3.13295 5.41364 3.2345 5.33876 3.30938C5.26388 3.38426 5.16233 3.42633 5.05643 3.42633C4.95053 3.42633 4.84898 3.38426 4.7741 3.30938C4.69922 3.2345 4.65715 3.13295 4.65715 3.02705V1.30908C4.65743 1.11677 4.73399 0.932418 4.87002 0.796483C5.00606 0.660547 5.19046 0.584125 5.38278 0.583984H18.7454C18.9376 0.584266 19.1219 0.66075 19.2578 0.79667C19.3937 0.932591 19.4702 1.11686 19.4705 1.30908V12.2275C19.4705 12.3334 19.4284 12.435 19.3535 12.5099C19.2786 12.5848 19.1771 12.6268 19.0712 12.6268ZM6.63492 9.55609H1.56725C1.46135 9.55609 1.3598 9.51402 1.28492 9.43914C1.21004 9.36426 1.16797 9.2627 1.16797 9.15681C1.16797 9.05091 1.21004 8.94935 1.28492 8.87447C1.3598 8.79959 1.46135 8.75753 1.56725 8.75753H6.63492C6.74082 8.75753 6.84237 8.79959 6.91725 8.87447C6.99213 8.94935 7.0342 9.05091 7.0342 9.15681C7.0342 9.2627 6.99213 9.36426 6.91725 9.43914C6.84237 9.51402 6.74082 9.55609 6.63492 9.55609Z" fill="#588157"/>
<path d="M10.6748 7.73934H3.60323C3.49734 7.73934 3.39578 7.69728 3.3209 7.6224C3.24602 7.54752 3.20395 7.44596 3.20395 7.34006C3.20395 7.23417 3.24602 7.13261 3.3209 7.05773C3.39578 6.98285 3.49734 6.94078 3.60323 6.94078H10.6748C10.7807 6.94078 10.8822 6.98285 10.9571 7.05773C11.032 7.13261 11.074 7.23417 11.074 7.34006C11.074 7.44596 11.032 7.54752 10.9571 7.6224C10.8822 7.69728 10.7807 7.73934 10.6748 7.73934ZM3.38336 5.63114H0.621937C0.516041 5.63114 0.414483 5.58907 0.339603 5.51419C0.264723 5.43931 0.222656 5.33776 0.222656 5.23186C0.222656 5.12596 0.264723 5.02441 0.339603 4.94953C0.414483 4.87465 0.516041 4.83258 0.621937 4.83258H3.38336C3.48926 4.83258 3.59082 4.87465 3.6657 4.94953C3.74058 5.02441 3.78264 5.12596 3.78264 5.23186C3.78264 5.33776 3.74058 5.43931 3.6657 5.51419C3.59082 5.58907 3.48926 5.63114 3.38336 5.63114ZM7.81112 3.42551H2.9367C2.8308 3.42551 2.72925 3.38345 2.65437 3.30857C2.57949 3.23369 2.53742 3.13213 2.53742 3.02623C2.53742 2.92034 2.57949 2.81878 2.65437 2.7439C2.72925 2.66902 2.8308 2.62695 2.9367 2.62695H7.81112C7.91702 2.62695 8.01857 2.66902 8.09345 2.7439C8.16833 2.81878 8.2104 2.92034 8.2104 3.02623C8.2104 3.13213 8.16833 3.23369 8.09345 3.30857C8.01857 3.38345 7.91702 3.42551 7.81112 3.42551Z" fill="#588157"/>
</svg>
