<svg width="19" height="19" viewBox="0 0 19 19" fill="none" xmlns="http://www.w3.org/2000/svg">
<path d="M16.625 4.75H14.25C14.25 3.49022 13.7496 2.28204 12.8588 1.39124C11.968 0.500445 10.7598 0 9.5 0C8.24022 0 7.03204 0.500445 6.14124 1.39124C5.25045 2.28204 4.75 3.49022 4.75 4.75H2.375C1.74511 4.75 1.14102 5.00022 0.695621 5.44562C0.250222 5.89102 0 6.49511 0 7.125L0 15.0417C0.00125705 16.0911 0.418698 17.0972 1.16076 17.8392C1.90282 18.5813 2.9089 18.9987 3.95833 19H15.0417C16.0911 18.9987 17.0972 18.5813 17.8392 17.8392C18.5813 17.0972 18.9987 16.0911 19 15.0417V7.125C19 6.49511 18.7498 5.89102 18.3044 5.44562C17.859 5.00022 17.2549 4.75 16.625 4.75ZM9.5 1.58333C10.3399 1.58333 11.1453 1.91696 11.7392 2.51083C12.333 3.10469 12.6667 3.91015 12.6667 4.75H6.33333C6.33333 3.91015 6.66696 3.10469 7.26083 2.51083C7.85469 1.91696 8.66015 1.58333 9.5 1.58333ZM17.4167 15.0417C17.4167 15.6716 17.1664 16.2756 16.721 16.721C16.2756 17.1664 15.6716 17.4167 15.0417 17.4167H3.95833C3.32844 17.4167 2.72435 17.1664 2.27895 16.721C1.83356 16.2756 1.58333 15.6716 1.58333 15.0417V7.125C1.58333 6.91504 1.66674 6.71367 1.81521 6.56521C1.96367 6.41674 2.16504 6.33333 2.375 6.33333H4.75V7.91667C4.75 8.12663 4.83341 8.32799 4.98187 8.47646C5.13034 8.62493 5.3317 8.70833 5.54167 8.70833C5.75163 8.70833 5.95299 8.62493 6.10146 8.47646C6.24993 8.32799 6.33333 8.12663 6.33333 7.91667V6.33333H12.6667V7.91667C12.6667 8.12663 12.7501 8.32799 12.8985 8.47646C13.047 8.62493 13.2484 8.70833 13.4583 8.70833C13.6683 8.70833 13.8697 8.62493 14.0181 8.47646C14.1666 8.32799 14.25 8.12663 14.25 7.91667V6.33333H16.625C16.835 6.33333 17.0363 6.41674 17.1848 6.56521C17.3333 6.71367 17.4167 6.91504 17.4167 7.125V15.0417Z" fill="black"/>
</svg>
