<svg width="12" height="6" viewBox="0 0 12 6" fill="none" xmlns="http://www.w3.org/2000/svg">
<path d="M0.900009 0.94235C0.899624 1.01272 0.912376 1.08258 0.937653 1.14799C0.962932 1.21341 1.00031 1.27326 1.0479 1.32397L1.04818 1.32427L4.45167 4.92179C4.65418 5.13638 4.89505 5.30696 5.16065 5.42345C5.42626 5.53995 5.71122 5.6 5.99915 5.6C6.28708 5.6 6.57204 5.53995 6.83766 5.42345C7.10324 5.30696 7.3441 5.1364 7.5466 4.92182C7.54661 4.92181 7.54662 4.9218 7.54663 4.92179L10.9501 1.32427C11.0467 1.22222 11.1 1.08495 11.1 0.942898C11.1 0.800846 11.0467 0.663572 10.9501 0.561529C10.8534 0.459297 10.721 0.400751 10.5817 0.400751C10.4424 0.400751 10.31 0.459297 10.2133 0.561529L6.80973 4.1591C6.59367 4.3872 6.302 4.51421 5.99915 4.51421C5.6963 4.51421 5.40463 4.3872 5.18857 4.1591L1.78531 0.561826C1.78528 0.561797 1.78525 0.561768 1.78523 0.561738C1.7375 0.510897 1.68042 0.470222 1.61712 0.442346C1.55377 0.414448 1.4856 0.4 1.4166 0.4C1.34761 0.4 1.27944 0.414448 1.21609 0.442346C1.15275 0.470238 1.09564 0.510944 1.0479 0.561825C1.00031 0.612539 0.962932 0.672385 0.937653 0.737802C0.912508 0.802872 0.899761 0.872355 0.900009 0.94235ZM0.900009 0.94235L1.00001 0.942898L0.900009 0.943446C0.900007 0.94308 0.900009 0.942715 0.900009 0.94235Z" fill="white" stroke="white" stroke-width="0.2"/>
</svg>
