<svg width="19" height="20" viewBox="0 0 19 20" fill="none" xmlns="http://www.w3.org/2000/svg">
<path d="M10.2775 1.29424C10.2775 1.08393 10.361 0.882232 10.5097 0.733522C10.6584 0.584811 10.8601 0.501266 11.0704 0.501266C13.1728 0.503575 15.1883 1.33976 16.6749 2.82637C18.1615 4.31297 18.9977 6.32858 19 8.43096C19 8.64127 18.9165 8.84296 18.7677 8.99167C18.619 9.14038 18.4173 9.22393 18.207 9.22393C17.9967 9.22393 17.795 9.14038 17.6463 8.99167C17.4976 8.84296 17.4141 8.64127 17.4141 8.43096C17.4122 6.74907 16.7432 5.13661 15.554 3.94733C14.3647 2.75806 12.7523 2.08909 11.0704 2.0872C10.8601 2.0872 10.6584 2.00366 10.5097 1.85495C10.361 1.70624 10.2775 1.50454 10.2775 1.29424ZM11.0704 5.25908C11.9116 5.25908 12.7184 5.59326 13.3132 6.1881C13.9081 6.78295 14.2423 7.58973 14.2423 8.43096C14.2423 8.64127 14.3258 8.84296 14.4745 8.99167C14.6232 9.14038 14.8249 9.22393 15.0352 9.22393C15.2455 9.22393 15.4472 9.14038 15.5959 8.99167C15.7446 8.84296 15.8282 8.64127 15.8282 8.43096C15.8269 7.16949 15.3252 5.96006 14.4333 5.06807C13.5413 4.17608 12.3319 3.6744 11.0704 3.67314C10.8601 3.67314 10.6584 3.75669 10.5097 3.9054C10.361 4.05411 10.2775 4.2558 10.2775 4.46611C10.2775 4.67642 10.361 4.87812 10.5097 5.02683C10.6584 5.17554 10.8601 5.25908 11.0704 5.25908ZM18.2808 13.7748C18.7403 14.2356 18.9984 14.8598 18.9984 15.5106C18.9984 16.1614 18.7403 16.7856 18.2808 17.2464L17.5592 18.0782C11.0649 24.2959 -4.73878 8.49598 1.38286 1.98095L2.29476 1.18798C2.75608 0.74128 3.37471 0.494169 4.01683 0.500105C4.65894 0.506041 5.27291 0.764547 5.72589 1.2197C5.75047 1.24428 7.21982 3.15296 7.21982 3.15296C7.65581 3.611 7.89852 4.21944 7.89748 4.85182C7.89645 5.48419 7.65176 6.09184 7.21427 6.54845L6.29602 7.70301C6.80419 8.93775 7.55133 10.0599 8.49451 11.005C9.43769 11.9501 10.5583 12.6995 11.792 13.2102L12.9537 12.2864C13.4104 11.8492 14.0179 11.6048 14.6501 11.6039C15.2822 11.603 15.8905 11.8457 16.3483 12.2816C16.3483 12.2816 18.2562 13.7502 18.2808 13.7748ZM17.1897 14.9278C17.1897 14.9278 15.2921 13.4679 15.2675 13.4433C15.1042 13.2813 14.8835 13.1905 14.6534 13.1905C14.4234 13.1905 14.2026 13.2813 14.0393 13.4433C14.0178 13.4655 12.4185 14.7398 12.4185 14.7398C12.3107 14.8256 12.1824 14.8818 12.0463 14.903C11.9101 14.9241 11.7709 14.9094 11.6421 14.8604C10.0439 14.2653 8.59222 13.3337 7.38542 12.1286C6.17861 10.9236 5.24488 9.47326 4.64746 7.87588C4.59449 7.7454 4.57722 7.60317 4.59743 7.4638C4.61764 7.32444 4.67459 7.19297 4.76244 7.08291C4.76244 7.08291 6.03673 5.4827 6.05814 5.46208C6.22011 5.29872 6.31099 5.07798 6.31099 4.84793C6.31099 4.61787 6.22011 4.39714 6.05814 4.23377C6.03355 4.20998 4.57372 2.31082 4.57372 2.31082C4.40791 2.16215 4.19152 2.08252 3.96889 2.08827C3.74626 2.09402 3.53427 2.18471 3.37635 2.34175L2.46445 3.13472C-2.00942 8.51422 11.6858 21.4499 16.3999 16.995L17.1223 16.1624C17.2916 16.0056 17.3932 15.7891 17.4058 15.5587C17.4184 15.3283 17.3409 15.1021 17.1897 14.9278Z" fill="#588157"/>
</svg>
