<svg width="22" height="17" viewBox="0 0 22 17" fill="none" xmlns="http://www.w3.org/2000/svg">
<path d="M20.0664 0.5H1.93359C0.869602 0.5 0 1.39551 0 2.5V14.5C0 15.6049 0.87016 16.5 1.93359 16.5H20.0664C21.1304 16.5 22 15.6045 22 14.5V2.5C22 1.39524 21.13 0.5 20.0664 0.5ZM19.7695 1.83333L11.4995 10.4153C11.2475 10.6767 10.7526 10.6769 10.5005 10.4153L2.23051 1.83333H19.7695ZM1.28906 14.2549V2.74511L6.83482 8.5L1.28906 14.2549ZM2.23051 15.1667L7.74486 9.44436L9.58757 11.3566C10.3427 12.1402 11.6576 12.1399 12.4125 11.3566L14.2552 9.4444L19.7695 15.1667H2.23051ZM20.7109 14.2549L15.1652 8.5L20.7109 2.74511V14.2549Z" fill="#588157"/>
</svg>
