<svg width="19" height="20" viewBox="0 0 19 20" fill="none" xmlns="http://www.w3.org/2000/svg">
<path d="M14.6818 0.5H6.04545C5.2062 0.501012 4.38546 0.726183 3.68359 1.14798C2.98172 1.56977 2.42916 2.16991 2.09345 2.875H0.863636C0.634586 2.875 0.414916 2.95841 0.252953 3.10687C0.09099 3.25534 0 3.4567 0 3.66667C0 3.87663 0.09099 4.07799 0.252953 4.22646C0.414916 4.37493 0.634586 4.45833 0.863636 4.45833H1.72727V6.04167H0.863636C0.634586 6.04167 0.414916 6.12507 0.252953 6.27354C0.09099 6.42201 0 6.62337 0 6.83333C0 7.0433 0.09099 7.24466 0.252953 7.39313C0.414916 7.54159 0.634586 7.625 0.863636 7.625H1.72727V9.20833H0.863636C0.634586 9.20833 0.414916 9.29174 0.252953 9.44021C0.09099 9.58867 0 9.79004 0 10C0 10.21 0.09099 10.4113 0.252953 10.5598C0.414916 10.7083 0.634586 10.7917 0.863636 10.7917H1.72727V12.375H0.863636C0.634586 12.375 0.414916 12.4584 0.252953 12.6069C0.09099 12.7553 0 12.9567 0 13.1667C0 13.3766 0.09099 13.578 0.252953 13.7265C0.414916 13.8749 0.634586 13.9583 0.863636 13.9583H1.72727V15.5417H0.863636C0.634586 15.5417 0.414916 15.6251 0.252953 15.7735C0.09099 15.922 0 16.1234 0 16.3333C0 16.5433 0.09099 16.7447 0.252953 16.8931C0.414916 17.0416 0.634586 17.125 0.863636 17.125H2.09345C2.42916 17.8301 2.98172 18.4302 3.68359 18.852C4.38546 19.2738 5.2062 19.499 6.04545 19.5H14.6818C15.8267 19.4987 16.9242 19.0813 17.7337 18.3392C18.5432 17.5972 18.9986 16.5911 19 15.5417V4.45833C18.9986 3.4089 18.5432 2.40282 17.7337 1.66076C16.9242 0.918698 15.8267 0.501257 14.6818 0.5ZM17.2727 15.5417C17.2727 16.1716 16.9998 16.7756 16.5139 17.221C16.028 17.6664 15.369 17.9167 14.6818 17.9167H6.04545C5.3583 17.9167 4.6993 17.6664 4.21341 17.221C3.72752 16.7756 3.45455 16.1716 3.45455 15.5417V4.45833C3.45455 3.82844 3.72752 3.22435 4.21341 2.77895C4.6993 2.33356 5.3583 2.08333 6.04545 2.08333H14.6818C15.369 2.08333 16.028 2.33356 16.5139 2.77895C16.9998 3.22435 17.2727 3.82844 17.2727 4.45833V15.5417ZM10.3636 10C11.0508 10 11.7098 9.74978 12.1957 9.30438C12.6816 8.85898 12.9545 8.25489 12.9545 7.625C12.9545 6.99511 12.6816 6.39102 12.1957 5.94562C11.7098 5.50022 11.0508 5.25 10.3636 5.25C9.67648 5.25 9.01748 5.50022 8.53159 5.94562C8.0457 6.39102 7.77273 6.99511 7.77273 7.625C7.77273 8.25489 8.0457 8.85898 8.53159 9.30438C9.01748 9.74978 9.67648 10 10.3636 10ZM14.6818 14.75C14.6818 14.96 14.5908 15.1613 14.4289 15.3098C14.2669 15.4583 14.0472 15.5417 13.8182 15.5417C13.5891 15.5417 13.3695 15.4583 13.2075 15.3098C13.0455 15.1613 12.9545 14.96 12.9545 14.75C12.9545 14.1201 12.6816 13.516 12.1957 13.0706C11.7098 12.6252 11.0508 12.375 10.3636 12.375C9.67648 12.375 9.01748 12.6252 8.53159 13.0706C8.0457 13.516 7.77273 14.1201 7.77273 14.75C7.77273 14.96 7.68174 15.1613 7.51977 15.3098C7.35781 15.4583 7.13814 15.5417 6.90909 15.5417C6.68004 15.5417 6.46037 15.4583 6.29841 15.3098C6.13644 15.1613 6.04545 14.96 6.04545 14.75C6.22768 9.51867 14.5013 9.52025 14.6818 14.75Z" fill="#588157"/>
</svg>
