<svg width="82" height="14" viewBox="0 0 82 14" fill="none" xmlns="http://www.w3.org/2000/svg">
<path d="M13.9526 5.2387C13.8391 4.87378 13.538 4.60848 13.1752 4.55309L9.49993 3.99341L7.85766 0.515714C7.53248 -0.171905 6.45775 -0.171905 6.13257 0.515714L4.4903 3.99341L0.823747 4.55309C0.461963 4.60848 0.160845 4.8747 0.047335 5.23978C-0.0661747 5.60378 0.0281461 6.00413 0.290739 6.27222L2.95002 8.98866L2.32269 12.8212C2.26114 13.1993 2.40934 13.5825 2.70559 13.8083C3.00287 14.0331 3.39639 14.0625 3.71965 13.884L6.99475 12.074L10.2794 13.884C10.42 13.9616 10.5739 14 10.7268 14C10.926 14 11.1251 13.9344 11.2935 13.8085C11.5899 13.5815 11.7379 13.1995 11.6764 12.8214L11.0501 8.98881L13.7094 6.27237C13.972 6.00506 14.0661 5.60378 13.9526 5.2387Z" fill="#F8AF46"/>
<path d="M30.9526 5.2387C30.8391 4.87378 30.538 4.60848 30.1752 4.55309L26.4999 3.99341L24.8577 0.515714C24.5325 -0.171905 23.4578 -0.171905 23.1326 0.515714L21.4903 3.99341L17.8237 4.55309C17.462 4.60848 17.1608 4.8747 17.0473 5.23978C16.9338 5.60378 17.0281 6.00413 17.2907 6.27222L19.95 8.98866L19.3227 12.8212C19.2611 13.1993 19.4093 13.5836 19.7056 13.8083C20.002 14.0331 20.3964 14.0625 20.7196 13.884L23.9947 12.074L27.2794 13.884C27.42 13.9616 27.5739 14 27.7268 14C27.926 14 28.1251 13.9344 28.2935 13.8085C28.5899 13.5815 28.7379 13.1995 28.6764 12.8214L28.0501 8.98881L30.7094 6.27237C30.972 6.00506 31.0661 5.60378 30.9526 5.2387Z" fill="#F8AF46"/>
<path d="M47.9526 5.2387C47.8391 4.87378 47.538 4.60848 47.1752 4.55309L43.4999 3.99341L41.8577 0.515714C41.5325 -0.171905 40.4578 -0.171905 40.1326 0.515714L38.4903 3.99341L34.8237 4.55309C34.462 4.60848 34.1608 4.8747 34.0473 5.23978C33.9338 5.60378 34.0281 6.00413 34.2907 6.27222L36.95 8.98866L36.3227 12.8212C36.2611 13.1993 36.4093 13.5825 36.7056 13.8083C37.0029 14.0331 37.3964 14.0625 37.7196 13.884L40.9946 12.074L44.2793 13.884C44.4198 13.9616 44.5738 14 44.7267 14C44.9258 14 45.1249 13.9344 45.2934 13.8085C45.5898 13.5815 45.7378 13.1995 45.6762 12.8214L45.0499 8.98881L47.7092 6.27237C47.972 6.00506 48.0661 5.60378 47.9526 5.2387Z" fill="#F8AF46"/>
<path d="M64.9527 5.2387C64.8392 4.87378 64.538 4.60848 64.1752 4.55309L60.4999 3.99341L58.8577 0.515714C58.5325 -0.171905 57.4578 -0.171905 57.1326 0.515714L55.4903 3.99341L51.8237 4.55309C51.462 4.60848 51.1608 4.8747 51.0473 5.23978C50.9338 5.60378 51.0281 6.00413 51.2907 6.27222L53.95 8.98866L53.3227 12.8212C53.2611 13.1993 53.4093 13.5825 53.7056 13.8083C54.0029 14.0331 54.3964 14.0625 54.7197 13.884L57.9946 12.074L61.2793 13.884C61.4198 13.9616 61.5738 14 61.7267 14C61.9258 14 62.125 13.9344 62.2934 13.8085C62.5898 13.5815 62.7378 13.1995 62.6763 12.8214L62.05 8.98881L64.7093 6.27237C64.9719 6.00506 65.0662 5.60378 64.9527 5.2387Z" fill="#F8AF46"/>
<path d="M81.953 5.23836C81.8385 4.87346 81.5384 4.60818 81.1756 4.5528L77.5002 3.99315L75.8579 0.515681C75.5327 -0.171894 74.4579 -0.171894 74.1328 0.515681L72.4904 3.99315L68.8238 4.5528C68.462 4.60818 68.1608 4.87439 68.0473 5.23945C67.9338 5.60342 68.0281 6.00375 68.2907 6.27181L70.9501 8.98808L70.3228 12.8204C70.2612 13.1984 70.4094 13.5816 70.7057 13.8074C70.8731 13.9344 71.0713 13.9989 71.2704 13.9989C71.4244 13.9989 71.5783 13.9606 71.7206 13.8829L74.9958 12.0731L78.2815 13.8829C78.6048 14.0634 78.9973 14.0331 79.2947 13.8064C79.5901 13.5805 79.7383 13.1984 79.6767 12.8202L79.0504 8.98793L81.7098 6.27166C81.9722 6.00467 82.0657 5.60342 81.953 5.23836Z" fill="#F8AF46"/>
</svg>
