<svg width="19" height="10" viewBox="0 0 19 10" fill="none" xmlns="http://www.w3.org/2000/svg">
<path d="M18.3053 3.33222L15.2413 0.234359C15.1677 0.160099 15.0801 0.101156 14.9836 0.0609326C14.8871 0.020709 14.7836 0 14.6791 0C14.5746 0 14.4711 0.020709 14.3746 0.0609326C14.2781 0.101156 14.1906 0.160099 14.117 0.234359C13.9695 0.382805 13.8867 0.583613 13.8867 0.792925C13.8867 1.00224 13.9695 1.20305 14.117 1.35149L16.9356 4.19582H0.791754C0.581768 4.19582 0.380382 4.2793 0.231899 4.42788C0.0834167 4.57646 0 4.77799 0 4.98812C0 5.19825 0.0834167 5.39977 0.231899 5.54835C0.380382 5.69694 0.581768 5.78041 0.791754 5.78041H16.9831L14.117 8.64059C14.0428 8.71424 13.9839 8.80187 13.9437 8.89842C13.9035 8.99496 13.8828 9.09852 13.8828 9.20311C13.8828 9.30771 13.9035 9.41126 13.9437 9.50781C13.9839 9.60436 14.0428 9.69199 14.117 9.76564C14.1906 9.8399 14.2781 9.89884 14.3746 9.93907C14.4711 9.97929 14.5746 10 14.6791 10C14.7836 10 14.8871 9.97929 14.9836 9.93907C15.0801 9.89884 15.1677 9.8399 15.2413 9.76564L18.3053 6.69155C18.7502 6.24588 19 5.64176 19 5.01188C19 4.38201 18.7502 3.77789 18.3053 3.33222Z" fill="#588157"/>
</svg>
