<svg width="41" height="29" viewBox="0 0 41 29" fill="none" xmlns="http://www.w3.org/2000/svg">
<rect x="0.5" y="1.17773" width="40" height="27" rx="3.5" fill="white" stroke="#E8ECEF"/>
<path fill-rule="evenodd" clip-rule="evenodd" d="M20.4996 21.0546C19.0521 22.3341 17.1744 23.1065 15.1226 23.1065C10.5444 23.1065 6.83301 19.2609 6.83301 14.5171C6.83301 9.77332 10.5444 5.92773 15.1226 5.92773C17.1744 5.92773 19.0521 6.70014 20.4996 7.97962C21.9472 6.70014 23.8249 5.92773 25.8767 5.92773C30.4549 5.92773 34.1663 9.77332 34.1663 14.5171C34.1663 19.2609 30.4549 23.1065 25.8767 23.1065C23.8249 23.1065 21.9472 22.3341 20.4996 21.0546Z" fill="#ED0006"/>
<path fill-rule="evenodd" clip-rule="evenodd" d="M20.5 21.0546C22.2824 19.4791 23.4126 17.1349 23.4126 14.5171C23.4126 11.8993 22.2824 9.55507 20.5 7.97962C21.9475 6.70014 23.8252 5.92773 25.877 5.92773C30.4552 5.92773 34.1666 9.77332 34.1666 14.5171C34.1666 19.2609 30.4552 23.1065 25.877 23.1065C23.8252 23.1065 21.9475 22.3341 20.5 21.0546Z" fill="#F9A000"/>
<path fill-rule="evenodd" clip-rule="evenodd" d="M20.4995 21.0546C22.2818 19.4791 23.412 17.1349 23.412 14.5171C23.412 11.8993 22.2818 9.55506 20.4995 7.97961C18.7171 9.55506 17.5869 11.8993 17.5869 14.5171C17.5869 17.1349 18.7171 19.4791 20.4995 21.0546Z" fill="#FF5E00"/>
</svg>
