<svg width="20" height="20" viewBox="0 0 20 20" fill="none" xmlns="http://www.w3.org/2000/svg">
<path d="M0.833333 4.04624H3.11333C3.2922 4.71893 3.68264 5.31276 4.22444 5.73614C4.76623 6.15951 5.42927 6.38889 6.11125 6.38889C6.79323 6.38889 7.45627 6.15951 7.99806 5.73614C8.53986 5.31276 8.9303 4.71893 9.10917 4.04624H19.1667C19.3877 4.04624 19.5996 3.9565 19.7559 3.79675C19.9122 3.63701 20 3.42035 20 3.19444C20 2.96853 19.9122 2.75188 19.7559 2.59214C19.5996 2.43239 19.3877 2.34265 19.1667 2.34265H9.10917C8.9303 1.66996 8.53986 1.07613 7.99806 0.652753C7.45627 0.22938 6.79323 0 6.11125 0C5.42927 0 4.76623 0.22938 4.22444 0.652753C3.68264 1.07613 3.2922 1.66996 3.11333 2.34265H0.833333C0.61232 2.34265 0.400358 2.43239 0.244078 2.59214C0.0877974 2.75188 0 2.96853 0 3.19444C0 3.42035 0.0877974 3.63701 0.244078 3.79675C0.400358 3.9565 0.61232 4.04624 0.833333 4.04624ZM6.11083 1.70381C6.39926 1.70381 6.68122 1.79123 6.92104 1.95502C7.16086 2.11882 7.34778 2.35162 7.45816 2.624C7.56854 2.89638 7.59742 3.1961 7.54115 3.48525C7.48488 3.77441 7.34598 4.04002 7.14203 4.24848C6.93808 4.45695 6.67823 4.59892 6.39534 4.65644C6.11245 4.71396 5.81923 4.68444 5.55275 4.57161C5.28628 4.45879 5.05852 4.26773 4.89827 4.0226C4.73803 3.77746 4.6525 3.48926 4.6525 3.19444C4.65294 2.79924 4.80673 2.42035 5.08012 2.1409C5.35352 1.86145 5.72419 1.70426 6.11083 1.70381Z" fill="#3C3737"/>
<path d="M19.1667 9.18534H16.8867C16.7081 8.54192 16.3178 7.97385 15.7761 7.56882C15.2343 7.16379 14.5712 6.94434 13.8892 6.94434C13.2071 6.94434 12.544 7.16379 12.0023 7.56882C11.4605 7.97385 11.0702 8.54192 10.8917 9.18534H0.833333C0.61232 9.18534 0.400358 9.27116 0.244078 9.42392C0.0877974 9.57668 0 9.78386 0 9.99989C0 10.2159 0.0877974 10.4231 0.244078 10.5759C0.400358 10.7286 0.61232 10.8144 0.833333 10.8144H10.8917C11.0702 11.4579 11.4605 12.0259 12.0023 12.431C12.544 12.836 13.2071 13.0554 13.8892 13.0554C14.5712 13.0554 15.2343 12.836 15.7761 12.431C16.3178 12.0259 16.7081 11.4579 16.8867 10.8144H19.1667C19.3877 10.8144 19.5996 10.7286 19.7559 10.5759C19.9122 10.4231 20 10.2159 20 9.99989C20 9.78386 19.9122 9.57668 19.7559 9.42392C19.5996 9.27116 19.3877 9.18534 19.1667 9.18534ZM13.8892 11.4253C13.6007 11.4253 13.3188 11.3417 13.079 11.1851C12.8391 11.0285 12.6522 10.8059 12.5418 10.5454C12.4315 10.2849 12.4026 9.99831 12.4589 9.7218C12.5151 9.44529 12.654 9.19129 12.858 8.99194C13.0619 8.79259 13.3218 8.65683 13.6047 8.60182C13.8875 8.54682 14.1808 8.57505 14.4472 8.68294C14.7137 8.79083 14.9415 8.97353 15.1017 9.20795C15.262 9.44237 15.3475 9.71796 15.3475 9.99989C15.3471 10.3778 15.1933 10.7401 14.9199 11.0074C14.6465 11.2746 14.2758 11.4249 13.8892 11.4253Z" fill="#3C3737"/>
<path d="M19.1667 15.954H9.10917C8.9303 15.2813 8.53986 14.6875 7.99806 14.2641C7.45627 13.8407 6.79323 13.6113 6.11125 13.6113C5.42927 13.6113 4.76623 13.8407 4.22444 14.2641C3.68264 14.6875 3.2922 15.2813 3.11333 15.954H0.833333C0.61232 15.954 0.400358 16.0437 0.244078 16.2035C0.0877974 16.3632 0 16.5799 0 16.8058C0 17.0317 0.0877974 17.2483 0.244078 17.4081C0.400358 17.5678 0.61232 17.6576 0.833333 17.6576H3.11333C3.2922 18.3303 3.68264 18.9241 4.22444 19.3475C4.76623 19.7708 5.42927 20.0002 6.11125 20.0002C6.79323 20.0002 7.45627 19.7708 7.99806 19.3475C8.53986 18.9241 8.9303 18.3303 9.10917 17.6576H19.1667C19.3877 17.6576 19.5996 17.5678 19.7559 17.4081C19.9122 17.2483 20 17.0317 20 16.8058C20 16.5799 19.9122 16.3632 19.7559 16.2035C19.5996 16.0437 19.3877 15.954 19.1667 15.954ZM6.11083 18.2964C5.8224 18.2964 5.54045 18.209 5.30063 18.0452C5.0608 17.8814 4.87389 17.6486 4.76351 17.3762C4.65313 17.1038 4.62425 16.8041 4.68052 16.515C4.73679 16.2258 4.87568 15.9602 5.07964 15.7517C5.28359 15.5433 5.54344 15.4013 5.82633 15.3438C6.10922 15.2863 6.40244 15.3158 6.66891 15.4286C6.93539 15.5414 7.16315 15.7325 7.32339 15.9776C7.48364 16.2228 7.56917 16.511 7.56917 16.8058C7.56851 17.2009 7.41465 17.5797 7.1413 17.8591C6.86795 18.1385 6.4974 18.2957 6.11083 18.2964Z" fill="#3C3737"/>
</svg>
