<svg width="41" height="29" viewBox="0 0 41 29" fill="none" xmlns="http://www.w3.org/2000/svg">
<rect x="0.5" y="1.17773" width="40" height="27" rx="3.5" fill="white" stroke="#E8ECEF"/>
<path fill-rule="evenodd" clip-rule="evenodd" d="M8.11715 10.304H5.62387C5.45325 10.304 5.30814 10.431 5.28153 10.6034L4.27312 17.1521C4.25308 17.2814 4.35078 17.3979 4.47875 17.3979H5.66907C5.83969 17.3979 5.98479 17.2709 6.0114 17.098L6.28338 15.3318C6.30962 15.1588 6.45508 15.032 6.62535 15.032H7.41463C9.05705 15.032 10.0049 14.2179 10.2525 12.6047C10.3641 11.899 10.2573 11.3444 9.93452 10.956C9.58022 10.5296 8.9516 10.304 8.11715 10.304ZM8.4048 12.6958C8.26848 13.6122 7.5849 13.6122 6.92393 13.6122H6.54769L6.81164 11.9007C6.82731 11.7974 6.9148 11.7211 7.01689 11.7211H7.18933C7.63958 11.7211 8.06434 11.7211 8.28384 11.984C8.41459 12.1409 8.45474 12.3738 8.4048 12.6958ZM15.5702 12.6664H14.3762C14.2745 12.6664 14.1866 12.7426 14.1709 12.8461L14.1181 13.1881L14.0346 13.0642C13.7761 12.6799 13.1998 12.5515 12.6245 12.5515C11.305 12.5515 10.1781 13.575 9.95865 15.0109C9.8446 15.727 10.0067 16.4118 10.4034 16.8895C10.7673 17.3286 11.2879 17.5116 11.9073 17.5116C12.9703 17.5116 13.56 16.8114 13.56 16.8114L13.5067 17.1513C13.4866 17.2812 13.5843 17.3977 13.7115 17.3977H14.787C14.9581 17.3977 15.1023 17.2707 15.1293 17.0979L15.7747 12.9121C15.7951 12.7834 15.6977 12.6664 15.5702 12.6664ZM13.9058 15.0467C13.7906 15.7453 13.2492 16.2143 12.5588 16.2143C12.2121 16.2143 11.9349 16.1004 11.7571 15.8846C11.5806 15.6703 11.5135 15.3651 11.5697 15.0254C11.6773 14.3326 12.2278 13.8484 12.9077 13.8484C13.2467 13.8484 13.5224 13.9637 13.7039 14.1814C13.8858 14.4014 13.958 14.7083 13.9058 15.0467ZM20.7292 12.6662H21.9291C22.0972 12.6662 22.1952 12.8593 22.0997 13.0004L18.1091 18.9004C18.0445 18.996 17.9381 19.0528 17.8244 19.0528H16.626C16.4573 19.0528 16.3587 18.8583 16.4564 18.7167L17.699 16.9202L16.3775 12.9477C16.3318 12.8097 16.4313 12.6662 16.5747 12.6662H17.7537C17.9069 12.6662 18.042 12.7692 18.0862 12.9194L18.7875 15.3186L20.4424 12.8219C20.5072 12.7245 20.6149 12.6662 20.7292 12.6662Z" fill="#253B80"/>
<path fill-rule="evenodd" clip-rule="evenodd" d="M33.7389 17.1513L34.7622 10.4828C34.7778 10.3793 34.8654 10.3031 34.9671 10.3027H36.1191C36.2463 10.3027 36.344 10.4196 36.3239 10.5488L35.3149 17.0972C35.2885 17.27 35.1434 17.397 34.9725 17.397H33.9437C33.8165 17.397 33.7188 17.2805 33.7389 17.1513ZM25.9024 10.3031H23.4087C23.2384 10.3031 23.0933 10.4301 23.0667 10.6026L22.0583 17.1513C22.0382 17.2805 22.1359 17.397 22.2633 17.397H23.5428C23.6617 17.397 23.7635 17.3082 23.782 17.1872L24.0682 15.3309C24.0945 15.1579 24.2399 15.0311 24.4101 15.0311H25.199C26.8418 15.0311 27.7894 14.217 28.0373 12.6038C28.1491 11.8981 28.0417 11.3436 27.7191 10.9551C27.365 10.5288 26.7368 10.3031 25.9024 10.3031ZM26.1901 12.6949C26.0541 13.6113 25.3704 13.6113 24.7091 13.6113H24.3332L24.5976 11.8998C24.6133 11.7965 24.7 11.7203 24.8024 11.7203H24.9748C25.4248 11.7203 25.8499 11.7203 26.0693 11.9831C26.2002 12.14 26.24 12.373 26.1901 12.6949ZM33.3548 12.6655H32.1616C32.059 12.6655 31.972 12.7417 31.9566 12.8452L31.9038 13.1872L31.82 13.0633C31.5615 12.679 30.9855 12.5506 30.4102 12.5506C29.0907 12.5506 27.9642 13.5742 27.7447 15.01C27.631 15.7261 27.7925 16.411 28.1891 16.8886C28.5537 17.3277 29.0737 17.5107 29.693 17.5107C30.7561 17.5107 31.3456 16.8105 31.3456 16.8105L31.2924 17.1504C31.2723 17.2803 31.37 17.3968 31.4981 17.3968H32.5731C32.7433 17.3968 32.8884 17.2698 32.9151 17.097L33.5608 12.9113C33.5805 12.7825 33.4828 12.6655 33.3548 12.6655ZM31.6906 15.0458C31.576 15.7444 31.034 16.2134 30.3434 16.2134C29.9974 16.2134 29.7197 16.0996 29.5417 15.8837C29.3652 15.6694 29.2989 15.3643 29.3544 15.0245C29.4626 14.3317 30.0124 13.8475 30.6923 13.8475C31.0314 13.8475 31.3069 13.9628 31.4886 14.1805C31.6712 14.4005 31.7434 14.7074 31.6906 15.0458Z" fill="#179BD7"/>
</svg>
