<svg width="15" height="20" viewBox="0 0 15 20" fill="none" xmlns="http://www.w3.org/2000/svg">
<path d="M14.9573 11.7097C14.7282 8.72695 13.3394 6.85777 12.1143 5.20832C10.9798 3.68128 10 2.36261 10 0.41738C10 0.26113 9.9125 0.118318 9.77375 0.0467163C9.63457 -0.025315 9.46734 -0.0135181 9.34082 0.078435C7.50082 1.39508 5.96558 3.61418 5.42929 5.73152C5.05699 7.20562 5.00773 8.86281 5.00082 9.9573C3.3016 9.59437 2.91668 7.05265 2.91262 7.02496C2.90322 6.96003 2.87869 6.89822 2.84102 6.84451C2.80335 6.7908 2.75359 6.74669 2.69574 6.71574C2.57734 6.6539 2.43816 6.64941 2.31812 6.70882C2.22902 6.75195 0.131015 7.81796 0.00894516 12.0743C0.00039048 12.2159 0 12.3579 0 12.4999C0 16.6349 3.36465 19.9994 7.5 19.9994C7.5057 19.9998 7.51179 20.0006 7.51668 19.9994H7.52195C11.6471 19.9875 15 16.6276 15 12.4999C15 12.2919 14.9573 11.7097 14.9573 11.7097ZM7.5 19.1661C6.1214 19.1661 5 17.9715 5 16.5031C5 16.4531 4.99961 16.4026 5.00324 16.3408C5.01992 15.7215 5.13754 15.2988 5.26652 15.0176C5.50824 15.5368 5.94035 16.0141 6.64226 16.0141C6.69699 16.0141 6.75118 16.0033 6.80175 15.9824C6.85232 15.9615 6.89827 15.9308 6.93697 15.8921C6.97566 15.8534 7.00636 15.8075 7.02729 15.7569C7.04822 15.7063 7.05897 15.6521 7.05894 15.5974C7.05894 15.0042 7.07117 14.3198 7.21886 13.7022C7.35031 13.1545 7.66441 12.5719 8.06238 12.1048C8.23937 12.711 8.58445 13.2017 8.92136 13.6806C9.40355 14.3658 9.90199 15.0742 9.98949 16.2822C9.99476 16.3538 10.0001 16.4258 10.0001 16.5031C10 17.9715 8.87859 19.1661 7.5 19.1661Z" fill="#1A9452"/>
</svg>
