<svg width="18" height="21" viewBox="0 0 18 21" fill="none" xmlns="http://www.w3.org/2000/svg">
<path d="M14.5619 13.6997C13.5747 13.6997 12.6851 14.1134 12.0678 14.7715L6.51497 11.4343C6.66742 11.0562 6.74558 10.6537 6.74541 10.2476C6.74561 9.84156 6.66744 9.43905 6.51497 9.06091L12.0678 5.72354C12.6852 6.38166 13.5747 6.79555 14.5619 6.79555C16.4217 6.79555 17.9347 5.32738 17.9347 3.5227C17.9347 1.71801 16.4217 0.25 14.5619 0.25C12.7022 0.25 11.1892 1.71817 11.1892 3.52285C11.1891 3.92889 11.2672 4.33136 11.4196 4.70952L5.86693 8.04678C5.24955 7.38865 4.36008 6.97477 3.37281 6.97477C1.513 6.97477 0 8.44309 0 10.2476C0 12.0523 1.513 13.5205 3.37281 13.5205C4.36004 13.5205 5.24959 13.1067 5.86693 12.4485L11.4197 15.7857C11.2673 16.1639 11.1891 16.5664 11.1892 16.9725C11.1892 18.7771 12.7021 20.2452 14.5619 20.2452C16.4217 20.2452 17.9347 18.7771 17.9347 16.9726C17.9347 15.1679 16.4217 13.6997 14.5619 13.6997ZM12.419 3.52285C12.419 2.37625 13.3804 1.44343 14.5619 1.44343C15.7435 1.44343 16.7049 2.37625 16.7049 3.52285C16.7049 4.66945 15.7436 5.60228 14.5619 5.60228C13.3803 5.60228 12.419 4.66942 12.419 3.52285ZM3.37281 12.327C2.19103 12.327 1.22971 11.3942 1.22971 10.2476C1.22971 9.10106 2.19103 8.16819 3.37281 8.16819C4.55443 8.16819 5.51558 9.10106 5.51558 10.2476C5.51558 11.3942 4.55439 12.327 3.37281 12.327ZM12.419 16.9724C12.419 15.8258 13.3804 14.893 14.5619 14.893C15.7435 14.893 16.7049 15.8258 16.7049 16.9724C16.7049 18.119 15.7436 19.0518 14.5619 19.0518C13.3803 19.0518 12.419 18.119 12.419 16.9724V16.9724Z" fill="#616161"/>
</svg>
