<svg width="18" height="16" viewBox="0 0 18 16" fill="none" xmlns="http://www.w3.org/2000/svg">
<path d="M5.36287 1.47177C6.45045 1.49415 7.50982 1.99069 8.26919 3.30868C8.55135 3.79752 9.25564 3.79752 9.53894 3.30868C10.2985 1.99091 11.3579 1.49438 12.4453 1.47177C13.5328 1.44803 14.6462 1.96175 15.3328 2.7884C16.6579 4.38541 16.8272 7.17627 14.8872 9.13143L8.90395 14.2953L2.91976 9.13143C0.980935 7.17649 1.14911 4.38541 2.47529 2.7884C3.16197 1.96175 4.27529 1.44803 5.36287 1.47177ZM5.39447 0.00115576C3.8403 -0.0320822 2.33195 0.662977 1.34662 1.84869C-0.475723 4.04398 -0.585203 7.69451 1.88387 10.1758C1.89696 10.1892 1.91096 10.2018 1.92518 10.2147L8.42562 15.8224C8.55879 15.937 8.72852 16 8.90406 16C9.07961 16 9.24934 15.937 9.3825 15.8224L15.8841 10.2147C15.8983 10.2018 15.9112 10.1892 15.9243 10.1758C18.3933 7.69428 18.2825 4.04398 16.4604 1.84869C15.4764 0.66275 13.9667 -0.0323084 12.4134 0.00115576C11.1249 0.0278366 9.88228 0.745054 8.90395 1.91924C7.92585 0.745054 6.68319 0.0278366 5.39447 0.00115576Z" fill="#616161"/>
</svg>
