<svg width="15" height="13" viewBox="0 0 15 13" fill="none" xmlns="http://www.w3.org/2000/svg">
<path d="M4.71056 1.3672C5.56714 1.38481 6.4015 1.77523 6.99958 2.81156C7.22182 3.19594 7.77652 3.19594 7.99964 2.81156C8.5979 1.77541 9.43226 1.38498 10.2887 1.3672C11.1453 1.34854 12.0221 1.75247 12.5629 2.40247C13.6066 3.65819 13.7399 5.85263 12.212 7.38996L7.49952 11.4503L2.78635 7.38996C1.25933 5.8528 1.39178 3.65819 2.43629 2.40247C2.97712 1.75247 3.85397 1.34854 4.71056 1.3672ZM4.73545 0.21087C3.51137 0.184735 2.32339 0.731256 1.54735 1.66358C0.112062 3.38972 0.0258348 6.26012 1.97048 8.21117C1.9808 8.22166 1.99182 8.23161 2.00302 8.24174L7.12279 12.6511C7.22767 12.7412 7.36135 12.7907 7.49961 12.7907C7.63787 12.7907 7.77155 12.7412 7.87643 12.6511L12.9971 8.24174C13.0083 8.23161 13.0184 8.22166 13.0287 8.21117C14.9734 6.25994 14.8861 3.38972 13.451 1.66358C12.676 0.731078 11.487 0.184557 10.2636 0.21087C9.24878 0.231849 8.27006 0.795793 7.49952 1.71905C6.72917 0.795793 5.75044 0.231849 4.73545 0.21087Z" fill="#707070"/>
</svg>
