<svg width="19" height="19" viewBox="0 0 19 19" fill="none" xmlns="http://www.w3.org/2000/svg">
<path d="M9.85938 0.75C4.88508 0.75 0.859375 4.77525 0.859375 9.75C0.859375 14.7242 4.88462 18.75 9.85938 18.75C14.8337 18.75 18.8594 14.7247 18.8594 9.75C18.8594 4.77571 14.8341 0.75 9.85938 0.75ZM9.85938 17.4942C5.58923 17.4942 2.11519 14.0202 2.11519 9.75C2.11519 5.47982 5.58923 2.00582 9.85938 2.00582C14.1296 2.00582 17.6036 5.47982 17.6036 9.75C17.6036 14.0202 14.1296 17.4942 9.85938 17.4942Z" fill="#616161"/>
<path d="M9.59389 12.1381C9.09632 12.1381 8.69354 12.5527 8.69354 13.0502C8.69354 13.536 9.08448 13.9625 9.59389 13.9625C10.1033 13.9625 10.5061 13.536 10.5061 13.0502C10.5061 12.5527 10.0914 12.1381 9.59389 12.1381ZM9.74787 5.23145C8.14855 5.23145 7.41406 6.17922 7.41406 6.81893C7.41406 7.28095 7.805 7.49421 8.12485 7.49421C8.76459 7.49421 8.50398 6.58197 9.71233 6.58197C10.3046 6.58197 10.7786 6.84262 10.7786 7.38758C10.7786 8.02728 10.1151 8.39452 9.72418 8.72622C9.3806 9.02234 8.93046 9.5081 8.93046 10.5269C8.93046 11.1429 9.09632 11.3206 9.58201 11.3206C10.1625 11.3206 10.2809 11.06 10.2809 10.8349C10.2809 10.2189 10.2928 9.86349 10.9444 9.35408C11.2642 9.10531 12.2712 8.29971 12.2712 7.18613C12.2712 6.07256 11.2642 5.23145 9.74787 5.23145Z" fill="#616161"/>
</svg>
