<svg width="19" height="13" viewBox="0 0 19 13" fill="none" xmlns="http://www.w3.org/2000/svg">
<path d="M9.50169 9.99497C4.88876 9.99497 4.88876 3.00568 9.50169 3.00568C14.0622 3.00568 14.2593 9.99497 9.50169 9.99497ZM9.50169 4.40354C6.70597 4.40354 6.70597 8.59711 9.50169 8.59711C12.2974 8.59711 12.2974 4.40354 9.50169 4.40354Z" fill="#707070"/>
<path d="M9.50168 12.7907C6.04268 12.7907 2.73045 10.9532 0.415598 7.74861C0.152442 7.38559 0.0107422 6.94869 0.0107422 6.50032C0.0107422 6.05195 0.152442 5.61505 0.415598 5.25204C2.73045 2.04745 6.04268 0.209961 9.50168 0.209961C12.9607 0.209961 16.2729 2.04745 18.5878 5.25204C18.8509 5.61505 18.9926 6.05195 18.9926 6.50032C18.9926 6.94869 18.8509 7.38559 18.5878 7.74861C16.2729 10.9532 12.9607 12.7907 9.50168 12.7907ZM1.54577 6.92947C3.62718 9.80766 6.45225 11.3928 9.50168 11.3928C12.5511 11.3928 15.3762 9.80766 17.4576 6.92947C17.5481 6.80456 17.5969 6.65424 17.5969 6.49997C17.5969 6.34571 17.5481 6.19538 17.4576 6.07048C15.3762 3.19299 12.5511 1.60782 9.50168 1.60782C6.45225 1.60782 3.62718 3.19299 1.54577 6.07118C1.45522 6.19608 1.40647 6.3464 1.40647 6.50067C1.40647 6.65494 1.45522 6.80456 1.54577 6.92947Z" fill="#707070"/>
</svg>
