<svg width="16" height="15" viewBox="0 0 16 15" fill="none" xmlns="http://www.w3.org/2000/svg">
<path d="M15.6117 5.66765C15.5086 5.3507 15.2275 5.12631 14.8962 5.09633L10.3778 4.68612L8.59206 0.505394C8.46022 0.198241 8.16023 0 7.82633 0C7.49243 0 7.19232 0.198241 7.06131 0.505394L5.2756 4.68612L0.756428 5.09633C0.425152 5.12691 0.14463 5.3513 0.0409712 5.66765C-0.06209 5.98459 0.0330893 6.33223 0.283637 6.55197L3.69923 9.54695L2.69214 13.9825C2.61846 14.3087 2.74504 14.6459 3.01565 14.8415C3.16111 14.9472 3.332 15 3.50349 15C3.65086 15 3.79835 14.9608 3.93007 14.882L7.82633 12.5523L11.7219 14.882C12.0077 15.0528 12.367 15.0371 12.637 14.8415C12.9076 14.6459 13.0342 14.3087 12.9605 13.9825L11.9534 9.54695L15.369 6.55197C15.6195 6.33223 15.7147 5.98531 15.6117 5.66765Z" fill="url(#paint0_linear_1_2580)"/>
<defs>
<linearGradient id="paint0_linear_1_2580" x1="7.82632" y1="0" x2="7.82632" y2="15" gradientUnits="userSpaceOnUse">
<stop offset="0.0985536" stop-color="#FFA364"/>
<stop offset="0.788912" stop-color="#FFC112"/>
</linearGradient>
</defs>
</svg>
