<svg width="20" height="17" viewBox="0 0 20 17" fill="none" xmlns="http://www.w3.org/2000/svg">
<path d="M18.7363 3.77318H9.85254L12.1918 1.86219C12.2584 1.80778 12.3136 1.74079 12.3543 1.66503C12.395 1.58928 12.4204 1.50625 12.429 1.42069C12.4376 1.33512 12.4293 1.2487 12.4045 1.16635C12.3797 1.084 12.339 1.00734 12.2846 0.94074C12.2302 0.874143 12.1632 0.818914 12.0874 0.778207C12.0117 0.737501 11.9286 0.712113 11.8431 0.703494C11.6703 0.686088 11.4976 0.738041 11.3631 0.847925L7.60171 3.92083C7.53464 3.97661 7.47934 4.04517 7.43902 4.12253C7.3987 4.19988 7.37417 4.28448 7.36686 4.37141C7.35954 4.45833 7.3696 4.54585 7.39643 4.62885C7.42326 4.71185 7.46633 4.78869 7.52314 4.85489C7.54769 4.8837 7.57552 4.90825 7.60171 4.9351L11.3631 8.00801C11.4978 8.11586 11.6697 8.16618 11.8413 8.14802C12.0129 8.12986 12.1704 8.0447 12.2795 7.91104C12.3887 7.77739 12.4407 7.60605 12.4242 7.43427C12.4077 7.2625 12.324 7.10418 12.1914 6.99375L9.85254 5.08275H18.7363C18.91 5.08275 19.0766 5.01377 19.1994 4.89097C19.3221 4.76817 19.3911 4.60163 19.3911 4.42797C19.3911 4.25431 19.3221 4.08776 19.1994 3.96496C19.0766 3.84217 18.91 3.77318 18.7363 3.77318ZM12.3499 12.8845C12.4223 12.7509 12.4462 12.5962 12.4173 12.447C12.3885 12.2977 12.3088 12.1631 12.1918 12.066L8.43002 8.99248C8.29531 8.88462 8.12348 8.83431 7.95187 8.85246C7.78027 8.87062 7.62277 8.95579 7.51362 9.08944C7.40446 9.2231 7.35249 9.39444 7.36898 9.56621C7.38548 9.73799 7.46912 9.8963 7.60171 10.0067L9.94061 11.9177H1.05713C0.88347 11.9177 0.716922 11.9867 0.594126 12.1095C0.47133 12.2323 0.402344 12.3989 0.402344 12.5725C0.402344 12.7462 0.47133 12.9127 0.594126 13.0355C0.716922 13.1583 0.88347 13.2273 1.05713 13.2273H9.94094L7.60171 15.1383C7.46721 15.2482 7.38188 15.407 7.36447 15.5798C7.34706 15.7526 7.39902 15.9252 7.5089 16.0597C7.61878 16.1942 7.77759 16.2796 7.9504 16.297C8.1232 16.3144 8.29585 16.2624 8.43035 16.1526L12.1918 13.0797C12.2554 13.0241 12.3089 12.9583 12.3499 12.8845Z" fill="#707070"/>
</svg>
