<svg width="15" height="18" viewBox="0 0 15 18" fill="none" xmlns="http://www.w3.org/2000/svg">
<path d="M15 3H11.25V1.5C11.25 1.10218 11.092 0.720644 10.8107 0.43934C10.5294 0.158035 10.1478 0 9.75 0H5.25C4.85218 0 4.47064 0.158035 4.18934 0.43934C3.90803 0.720644 3.75 1.10218 3.75 1.5V3H0V4.5H1.5V15.75C1.5 16.3467 1.73705 16.919 2.15901 17.341C2.58097 17.7629 3.15326 18 3.75 18H11.25C11.8467 18 12.419 17.7629 12.841 17.341C13.2629 16.919 13.5 16.3467 13.5 15.75V4.5H15V3ZM5.25 1.5H9.75V3H5.25V1.5ZM12 15.75C12 15.9489 11.921 16.1397 11.7803 16.2803C11.6397 16.421 11.4489 16.5 11.25 16.5H3.75C3.55109 16.5 3.36032 16.421 3.21967 16.2803C3.07902 16.1397 3 15.9489 3 15.75V4.5H12V15.75Z" fill="#989898"/>
<path d="M5.24995 7.49999H6.74995V13.5H5.24995V7.49999ZM8.24995 7.49999H9.74995V13.5H8.24995V7.49999Z" fill="#989898"/>
</svg>
