<svg width="20" height="22" viewBox="0 0 20 22" fill="none" xmlns="http://www.w3.org/2000/svg">
<path d="M18.6754 18.7197L14.2641 14.0687C15.3983 12.7018 16.0197 10.9821 16.0197 9.19172C16.0197 5.00873 12.6626 1.60547 8.53624 1.60547C4.4099 1.60547 1.05273 5.00873 1.05273 9.19172C1.05273 13.3747 4.4099 16.778 8.53624 16.778C10.0853 16.778 11.5615 16.3043 12.8236 15.4052L17.2685 20.0915C17.4543 20.2871 17.7042 20.395 17.972 20.395C18.2254 20.395 18.4659 20.297 18.6484 20.1189C19.0362 19.7406 19.0486 19.1132 18.6754 18.7197ZM8.53624 3.58449C11.5863 3.58449 14.0675 6.09983 14.0675 9.19172C14.0675 12.2836 11.5863 14.799 8.53624 14.799C5.48622 14.799 3.00495 12.2836 3.00495 9.19172C3.00495 6.09983 5.48622 3.58449 8.53624 3.58449Z" fill="#4F4F4F"/>
</svg>
