<svg width="20" height="19" viewBox="0 0 20 19" fill="none" xmlns="http://www.w3.org/2000/svg">
<path d="M19.028 17.6595L14.3064 12.9379C15.5931 11.3642 16.2257 9.35623 16.0734 7.32922C15.9211 5.30222 14.9955 3.41129 13.4881 2.04757C11.9808 0.683849 10.0069 -0.0483305 7.97479 0.00247793C5.94271 0.0532864 4.00789 0.883195 2.57054 2.32054C1.1332 3.75789 0.303286 5.69271 0.252478 7.72479C0.201669 9.75687 0.933849 11.7308 2.29757 13.2381C3.66129 14.7455 5.55222 15.6711 7.57922 15.8234C9.60623 15.9757 11.6142 15.3431 13.1879 14.0564L17.9095 18.778C18.0586 18.922 18.2585 19.0018 18.4659 19C18.6733 18.9982 18.8717 18.915 19.0183 18.7683C19.165 18.6217 19.2482 18.4233 19.25 18.2159C19.2518 18.0085 19.172 17.8086 19.028 17.6595ZM8.18549 14.2636C6.9339 14.2636 5.71042 13.8925 4.66976 13.1971C3.62911 12.5018 2.81801 11.5135 2.33905 10.3572C1.86009 9.20084 1.73477 7.92847 1.97895 6.70093C2.22312 5.47339 2.82581 4.34583 3.71082 3.46082C4.59583 2.57581 5.72339 1.97312 6.95093 1.72895C8.17847 1.48477 9.45084 1.61009 10.6072 2.08905C11.7635 2.56801 12.7518 3.37911 13.4471 4.41976C14.1425 5.46042 14.5136 6.6839 14.5136 7.93549C14.5117 9.61323 13.8444 11.2217 12.6581 12.4081C11.4717 13.5944 9.86323 14.2617 8.18549 14.2636Z" fill="black"/>
</svg>
