<svg width="32" height="35" viewBox="0 0 32 35" fill="none" xmlns="http://www.w3.org/2000/svg">
<path d="M31.7174 7.72266L16.2174 0.0509602C16.1496 0.0174195 16.0753 0 16 0C15.9248 0 15.8504 0.0174195 15.7826 0.0509602L0.282638 7.72266C0.197948 7.76458 0.126506 7.83014 0.0765121 7.91181C0.0265182 7.99347 -5.91307e-07 8.08794 0 8.18436V26.8156C-5.91307e-07 26.9121 0.0265182 27.0065 0.0765121 27.0882C0.126506 27.1699 0.197948 27.2354 0.282638 27.2773L15.7826 34.949C15.8504 34.9826 15.9247 35 16 35C16.0753 35 16.1496 34.9826 16.2174 34.949L31.7174 27.2773C31.8021 27.2354 31.8735 27.1699 31.9235 27.0882C31.9735 27.0065 32 26.9121 32 26.8156V8.18443C32 8.088 31.9735 7.99353 31.9235 7.91185C31.8735 7.83017 31.8021 7.7646 31.7174 7.72266ZM16 1.08202L30.3497 8.18436L26.19 10.2432C26.1637 10.2221 26.1353 10.2038 26.1053 10.1885L11.8531 3.13451L16 1.08202ZM10.7238 3.7142L25.0526 10.8062L22.1179 12.2588L7.79497 5.16964L10.7238 3.7142ZM25.3879 11.7788V17.1482L22.6466 18.505V13.1356L25.3879 11.7788ZM30.9999 26.4939L16.5001 33.6704V16.1778L19.9587 14.466C20.0179 14.4367 20.0708 14.3958 20.1145 14.3455C20.1582 14.2953 20.1918 14.2367 20.2135 14.1731C20.2351 14.1095 20.2443 14.0422 20.2406 13.975C20.2368 13.9078 20.2202 13.842 20.1916 13.7813C20.1631 13.7207 20.1231 13.6664 20.0741 13.6216C20.0251 13.5768 19.968 13.5423 19.906 13.5202C19.844 13.498 19.7783 13.4886 19.7128 13.4924C19.6472 13.4963 19.583 13.5133 19.5239 13.5426L16 15.2868L14.6134 14.6004C14.5543 14.5711 14.4901 14.5541 14.4245 14.5502C14.359 14.5464 14.2933 14.5558 14.2313 14.578C14.1693 14.6002 14.1121 14.6346 14.0631 14.6795C14.0141 14.7243 13.9742 14.7786 13.9457 14.8392C13.9171 14.8998 13.9005 14.9656 13.8967 15.0329C13.893 15.1001 13.9022 15.1674 13.9238 15.231C13.9454 15.2945 13.9791 15.3531 14.0228 15.4034C14.0665 15.4536 14.1194 15.4946 14.1786 15.5238L15.4999 16.1778V33.6704L1.00013 26.4938V9.00118L12.0416 14.4662C12.1093 14.4998 12.1835 14.5173 12.2586 14.5173C12.372 14.5174 12.482 14.4781 12.5706 14.4058C12.6593 14.3334 12.7214 14.2324 12.7467 14.1191C12.772 14.0059 12.759 13.8871 12.7099 13.7824C12.6608 13.6777 12.5785 13.5932 12.4764 13.5428L1.65029 8.18436L6.61795 5.72561L21.6396 13.1606C21.6418 13.1637 21.6442 13.1665 21.6465 13.1696V19.3219C21.6465 19.4087 21.668 19.494 21.709 19.5699C21.75 19.6459 21.8091 19.7099 21.8808 19.756C21.9525 19.8022 22.0344 19.8289 22.1189 19.8337C22.2034 19.8385 22.2877 19.8213 22.364 19.7836L26.1053 17.9318C26.19 17.8899 26.2615 17.8243 26.3115 17.7426C26.3615 17.661 26.388 17.5665 26.388 17.4701V11.2839L30.9999 9.00125V26.4939Z" fill="black"/>
<path d="M5.1269 24.5058L2.85226 23.38C2.73283 23.3209 2.59538 23.3128 2.47015 23.3576C2.34492 23.4024 2.24217 23.4963 2.18451 23.6188C2.12684 23.7412 2.11898 23.8822 2.16266 24.0105C2.20634 24.1389 2.29797 24.2443 2.41741 24.3034L4.69204 25.4292C4.75969 25.4628 4.83389 25.4803 4.90907 25.4803C5.00319 25.4804 5.09541 25.4532 5.17513 25.4019C5.25485 25.3506 5.31884 25.2773 5.35973 25.1904C5.3883 25.1298 5.40493 25.064 5.40869 24.9968C5.41245 24.9296 5.40326 24.8623 5.38163 24.7987C5.36001 24.7351 5.32639 24.6765 5.28268 24.6263C5.23897 24.576 5.18604 24.5351 5.1269 24.5058ZM7.22031 23.1088L2.8554 20.9483C2.73625 20.8914 2.60004 20.8849 2.47624 20.9302C2.35244 20.9755 2.251 21.0689 2.19386 21.1902C2.13672 21.3116 2.12848 21.4512 2.17091 21.5787C2.21334 21.7062 2.30304 21.8115 2.42061 21.8718L6.78552 24.0322C6.85318 24.0658 6.92737 24.0833 7.00255 24.0834C7.1159 24.0835 7.22594 24.0442 7.31464 23.9719C7.40334 23.8995 7.46544 23.7984 7.49075 23.6851C7.51606 23.5719 7.50308 23.4531 7.45395 23.3484C7.40481 23.2437 7.32243 23.1592 7.22031 23.1088Z" fill="black"/>
</svg>
