<svg width="37" height="37" viewBox="0 0 37 37" fill="none" xmlns="http://www.w3.org/2000/svg">
<path d="M26.5929 13.5352H29.8887L27.2552 19.526M20.4178 17.7579H16.6558C16.6558 17.7579 18.6476 14.1475 18.9764 13.7442C19.3087 13.3364 19.6235 13.5907 19.6535 13.9504C19.6835 14.3101 19.6385 19.526 19.6385 19.526M15.6817 19.5708C15.6817 19.5708 12.7669 19.6074 12.6288 19.5615C12.4908 19.5154 12.8501 19.2723 14.7612 16.5418C15.1181 16.0319 15.3145 15.6017 15.3981 15.2413L15.4277 15.0095C15.4277 14.1629 14.7414 13.4766 13.8948 13.4766C13.1498 13.4766 12.5289 14.008 12.3906 14.7124M24.5422 13.5352L22.1361 19.5846" stroke="black" stroke-miterlimit="10" stroke-linecap="round" stroke-linejoin="round"/>
<path d="M1.85508 20.1142C1.03819 18.2766 0.529178 16.3412 0.70143 14.5207C0.744317 14.0679 0.953963 13.6471 1.27558 13.3255L3.92915 10.672C4.68845 9.91266 5.94478 10.0041 6.58611 10.8653L9.58341 14.8497C9.73821 15.0555 9.81251 15.3108 9.79233 15.5675C9.77215 15.8242 9.65889 16.0647 9.47384 16.2438L7.5323 18.1227C7.41663 18.2347 7.34279 18.3829 7.3231 18.5426C7.30341 18.7024 7.33904 18.8641 7.42406 19.0008V19.0008C10.0081 23.1553 13.5129 26.6601 17.6674 29.2442C17.8041 29.3291 17.9657 29.3648 18.1255 29.3451C18.2853 29.3254 18.4334 29.2516 18.5454 29.1359L20.4243 27.1944C20.6034 27.0093 20.8439 26.8961 21.1006 26.8759C21.3573 26.8557 21.6126 26.93 21.8184 27.0848L25.8028 30.0821C26.6641 30.7234 26.7555 31.9798 25.9962 32.7391L23.3426 35.3926C23.0092 35.7254 22.5693 35.9302 22.1 35.9711C15.7051 36.5343 7.91948 28.7488 7.91948 28.7488C7.91948 28.7488 5.0876 25.9169 2.96318 22.2661" stroke="black" stroke-miterlimit="10" stroke-linecap="round" stroke-linejoin="round"/>
<path d="M11.358 6.71785C16.5276 2.08366 24.4797 2.25091 29.4485 7.21968C34.5904 12.3616 34.5904 20.6982 29.4485 25.8402C28.0152 27.2735 26.3337 28.3072 24.5423 28.9414M7.71094 12.1705C8.18803 10.8071 8.88773 9.53215 9.78163 8.39749" stroke="black" stroke-miterlimit="10" stroke-linecap="round" stroke-linejoin="round"/>
<path d="M31.8248 6.30254C37.1738 12.4029 36.9385 21.6923 31.1187 27.512C29.7405 28.8902 28.1676 29.9553 26.4886 30.7071M5.9707 10.1559C6.72197 8.48555 7.78358 6.9207 9.15554 5.54874C14.9087 -0.204392 24.0526 -0.500236 30.1545 4.66135" stroke="black" stroke-miterlimit="10" stroke-linecap="round" stroke-linejoin="round"/>
</svg>
