<svg width="36" height="35" viewBox="0 0 36 35" fill="none" xmlns="http://www.w3.org/2000/svg">
<path d="M18.4012 21.3717C19.3722 21.1194 20.0948 20.2433 20.0948 19.1938C20.0948 17.9485 19.082 16.9358 17.8367 16.9358C17.214 16.9358 16.7077 16.4294 16.7077 15.8067C16.7077 15.1841 17.214 14.6777 17.8367 14.6777C18.4594 14.6777 18.9657 15.1841 18.9657 15.8067H20.0948C20.0948 14.7573 19.3722 13.8812 18.4012 13.6288V12.4196H17.2722V13.6288C16.3012 13.8812 15.5786 14.7573 15.5786 15.8067C15.5786 17.052 16.5914 18.0648 17.8367 18.0648C18.4594 18.0648 18.9657 18.5712 18.9657 19.1938C18.9657 19.8165 18.4594 20.3228 17.8367 20.3228C17.214 20.3228 16.7077 19.8165 16.7077 19.1938H15.5786C15.5786 20.2433 16.3012 21.1194 17.2722 21.3717V22.5809H18.4012V21.3717ZM17.8367 10.1616C13.7903 10.1616 10.498 13.4538 10.498 17.5003H11.627C11.627 14.0765 14.4129 11.2906 17.8367 11.2906V10.1616ZM24.0464 17.5003C24.0464 20.9241 21.2605 23.7099 17.8367 23.7099V24.839C21.8832 24.839 25.1754 21.5467 25.1754 17.5003H24.0464ZM11.9657 4.04446C10.2002 4.81438 8.60428 5.92555 7.26953 7.31414L8.08187 8.09825C9.31457 6.81636 10.7881 5.79024 12.4179 5.07866L11.9657 4.04446ZM14.3147 3.2485C13.9183 3.34594 13.5262 3.46007 13.1394 3.59059L13.5018 4.66035C13.854 4.54124 14.2187 4.43511 14.5845 4.34422L14.3147 3.2485ZM16.6636 2.86914C16.2781 2.89962 15.8829 2.94704 15.4894 3.00971L15.6678 4.12462C16.0272 4.06643 16.3888 4.0233 16.7517 3.99535L16.6636 2.86914Z" fill="black"/>
<path d="M17.8359 1.12903C22.2092 1.12903 26.3201 2.83218 29.4119 5.92403C29.5198 6.0259 29.6626 6.08264 29.811 6.08264C29.9594 6.08264 30.1022 6.0259 30.2101 5.92403L31.3843 4.74984V9.03226H27.1019L28.2146 7.9196C28.267 7.86722 28.3087 7.80501 28.3371 7.73652C28.3655 7.66804 28.3801 7.59462 28.3801 7.52048C28.3801 7.44634 28.3655 7.37293 28.3371 7.30445C28.3087 7.23596 28.267 7.17375 28.2146 7.12137C25.4422 4.34903 21.7565 2.82258 17.8359 2.82258V3.95161C21.2659 3.95161 24.5017 5.21782 27.0088 7.52895L25.34 9.19766C25.2611 9.27661 25.2074 9.37719 25.1856 9.48668C25.1638 9.59617 25.175 9.70965 25.2177 9.81279C25.2604 9.91593 25.3328 10.0041 25.4256 10.0661C25.5184 10.1281 25.6275 10.1613 25.7392 10.1613H31.9488C32.0986 10.1613 32.2421 10.1018 32.348 9.99595C32.4539 9.89008 32.5134 9.74649 32.5134 9.59678V3.3871C32.5133 3.27546 32.4802 3.16634 32.4182 3.07353C32.3561 2.98072 32.268 2.90838 32.1649 2.86567C32.0617 2.82295 31.9482 2.81177 31.8387 2.83354C31.7293 2.85531 31.6287 2.90906 31.5497 2.98798L29.8048 4.7329C26.5504 1.67661 22.3221 0 17.8359 0C8.18666 0 0.335938 7.85016 0.335938 17.5H1.46497C1.46497 8.47339 8.80876 1.12903 17.8359 1.12903ZM28.4037 27.6861L27.5913 26.902C26.3586 28.1839 24.8852 29.21 23.2553 29.9216L23.7075 30.9558C25.4729 30.1857 27.0688 29.0746 28.4037 27.6861ZM21.358 31.7518C21.7544 31.6543 22.1465 31.5402 22.5333 31.4097L22.1709 30.3399C21.8186 30.459 21.4539 30.5652 21.0881 30.6561L21.358 31.7518ZM19.009 32.1311C19.4021 32.0997 19.7938 32.0528 20.1832 31.9906L20.0048 30.8756C19.6455 30.9338 19.2839 30.977 18.9209 31.0049L19.009 32.1311Z" fill="black"/>
<path d="M34.2066 17.5C34.2066 26.5266 26.8628 33.871 17.8356 33.871C13.4623 33.871 9.35151 32.1678 6.25965 29.076C6.15173 28.9741 6.00895 28.9174 5.86054 28.9174C5.71214 28.9174 5.56935 28.9741 5.46143 29.076L4.28724 30.2502V25.9677H8.56965L7.45699 27.0804C7.40452 27.1328 7.3629 27.195 7.3345 27.2635C7.3061 27.332 7.29148 27.4054 7.29148 27.4795C7.29148 27.5537 7.3061 27.6271 7.3345 27.6956C7.3629 27.764 7.40452 27.8262 7.45699 27.8786C10.2293 30.651 13.9151 32.1774 17.8356 32.1774V31.0484C14.4056 31.0484 11.1698 29.7822 8.6628 27.471L10.3315 25.8023C10.4104 25.7234 10.4642 25.6228 10.486 25.5133C10.5077 25.4038 10.4965 25.2903 10.4538 25.1872C10.4111 25.0841 10.3388 24.9959 10.246 24.9339C10.1531 24.8719 10.044 24.8387 9.9324 24.8387H3.72272C3.573 24.8387 3.42941 24.8982 3.32355 25.0041C3.21768 25.1099 3.1582 25.2535 3.1582 25.4032V31.6129C3.15823 31.7245 3.19135 31.8337 3.25338 31.9265C3.31541 32.0193 3.40357 32.0916 3.5067 32.1343C3.60984 32.1771 3.72333 32.1882 3.83282 32.1665C3.94231 32.1447 4.04288 32.0909 4.12183 32.012L5.86675 30.2671C9.12119 33.3234 13.3494 35 17.8356 35C27.4849 35 35.3356 27.1498 35.3356 17.5H34.2066Z" fill="black"/>
<path d="M27.4318 17.5001C27.4318 12.2083 23.1268 7.90332 17.8351 7.90332C12.5433 7.90332 8.23828 12.2083 8.23828 17.5001C8.23828 22.7919 12.5433 27.0969 17.8351 27.0969C23.1268 27.0969 27.4318 22.7919 27.4318 17.5001ZM17.8351 25.9678C13.1659 25.9678 9.36731 22.1692 9.36731 17.5001C9.36731 12.831 13.1659 9.03235 17.8351 9.03235C22.5042 9.03235 26.3028 12.831 26.3028 17.5001C26.3028 22.1692 22.5042 25.9678 17.8351 25.9678Z" fill="black"/>
</svg>
