<svg width="49" height="37" viewBox="0 0 49 37" fill="none" xmlns="http://www.w3.org/2000/svg">
<path d="M27.1754 7.06909H10.7917M7.48182 7.06909H3.72293C2.22128 7.06909 1.00391 8.29221 1.00391 9.80095V33.2681C1.00391 34.7768 2.22128 36 3.72293 36H41.68C43.1816 36 44.399 34.7768 44.399 33.2681V18.4284" stroke="black" stroke-miterlimit="10" stroke-linecap="round" stroke-linejoin="round"/>
<path d="M41.8744 3.24499C40.3083 3.24499 38.9165 2.45723 38.072 1.25653C38.0172 1.17734 37.9441 1.11266 37.8589 1.06799C37.7738 1.02333 37.6792 1 37.5832 1C37.4871 1 37.3925 1.02333 37.3074 1.06799C37.2223 1.11266 37.1492 1.17734 37.0943 1.25653C36.2498 2.45713 34.8581 3.24499 33.2919 3.24499H28.8678C28.1916 3.24499 27.6069 3.72519 27.4789 4.39239C27.2681 5.49093 27.162 6.60718 27.1621 7.72597C27.1621 14.7525 31.2554 20.8177 37.1765 23.6479C37.3036 23.7086 37.4425 23.7401 37.5833 23.7401C37.724 23.7401 37.863 23.7086 37.9901 23.6479C43.9111 20.8176 48.0043 14.7524 48.0043 7.72587C48.0043 6.5857 47.8945 5.47166 47.6875 4.39229C47.5595 3.7251 46.9749 3.2449 46.2985 3.2449L41.8744 3.24499Z" stroke="black" stroke-miterlimit="10" stroke-linecap="round" stroke-linejoin="round"/>
<path d="M34.9532 16.91C35.7702 17.3196 36.6709 17.5323 37.584 17.5313C40.8459 17.5313 43.4902 14.8746 43.4902 11.5972C43.4902 8.31988 40.8459 5.66309 37.584 5.66309C34.322 5.66309 31.6777 8.31988 31.6777 11.5972C31.6777 12.7146 31.9856 13.7595 32.52 14.6518" stroke="black" stroke-miterlimit="10" stroke-linecap="round" stroke-linejoin="round"/>
<path d="M34.699 11.3068L36.9763 13.5949L40.7803 9.77295M25.2598 32.1914H40.2077C40.3331 32.1914 40.4533 32.1414 40.542 32.0523C40.6307 31.9632 40.6805 31.8423 40.6805 31.7164V28.8634C40.6805 28.7374 40.6307 28.6165 40.542 28.5274C40.4533 28.4383 40.3331 28.3883 40.2077 28.3883H20.3589C20.2335 28.3883 20.1132 28.4383 20.0245 28.5274C19.9358 28.6165 19.886 28.7374 19.886 28.8634V31.7164C19.886 31.8423 19.9358 31.9632 20.0245 32.0523C20.1132 32.1414 20.2335 32.1914 20.3589 32.1914H21.9499M14.2654 26.0761H5.19354C5.06814 26.0761 4.94787 26.0261 4.85919 25.937C4.77052 25.8479 4.7207 25.727 4.7207 25.601V21.457C4.7207 21.331 4.77052 21.2101 4.85919 21.121C4.94787 21.032 5.06814 20.9819 5.19354 20.9819H14.2654C14.3908 20.9819 14.511 21.032 14.5997 21.121C14.6884 21.2101 14.7382 21.331 14.7382 21.457V25.601C14.7382 25.727 14.6884 25.8479 14.5997 25.937C14.511 26.0261 14.3908 26.0761 14.2654 26.0761Z" stroke="black" stroke-miterlimit="10" stroke-linecap="round" stroke-linejoin="round"/>
<path d="M4.72157 32.1912H15.8226M4.89075 29.3421H5.35243M7.7155 29.3421H8.17718M10.5402 29.3421H11.0019M27.7058 12.0947H1.00391V17.4368H30.0641M40.2084 28.3881H34.1751V32.1912H40.2084C40.3338 32.1912 40.4541 32.1412 40.5428 32.0521C40.6314 31.963 40.6813 31.8422 40.6813 31.7162V28.8632C40.6813 28.7372 40.6314 28.6163 40.5428 28.5272C40.4541 28.4381 40.3338 28.3881 40.2084 28.3881Z" stroke="black" stroke-miterlimit="10" stroke-linecap="round" stroke-linejoin="round"/>
</svg>
