<svg width="41" height="29" viewBox="0 0 41 29" fill="none" xmlns="http://www.w3.org/2000/svg">
<rect x="0.5" y="1.17773" width="40" height="27" rx="3.5" fill="white" stroke="#E8ECEF"/>
<path fill-rule="evenodd" clip-rule="evenodd" d="M21.8376 9.45656L19.6853 9.92974V8.14216L21.8376 7.67773V9.45656ZM13.0913 8.69406L10.9989 9.14966L10.9904 16.1678C10.9904 17.4645 11.9422 18.4195 13.2113 18.4195C13.9145 18.4195 14.429 18.2881 14.7119 18.1304V16.3518C14.4375 16.4657 13.0827 16.8687 13.0827 15.572V12.4616H14.7119V10.5953H13.0827L13.0913 8.69406ZM8.02336 12.3477C7.56888 12.3477 7.29448 12.4791 7.29448 12.8208C7.29448 13.1939 7.76673 13.358 8.35261 13.5616C9.30773 13.8936 10.5648 14.3304 10.5701 15.9487C10.5701 17.5171 9.34392 18.4195 7.56031 18.4195C6.82286 18.4195 6.0168 18.2706 5.21933 17.9201V15.8348C5.93963 16.2379 6.84858 16.5358 7.56031 16.5358C8.04051 16.5358 8.38351 16.4044 8.38351 16.0013C8.38351 15.5881 7.87159 15.3992 7.25355 15.1711C6.31233 14.8238 5.125 14.3857 5.125 12.926C5.125 11.3752 6.28263 10.4464 8.02336 10.4464C8.73509 10.4464 9.43824 10.5603 10.15 10.8495V12.9084C9.49827 12.5492 8.67506 12.3477 8.02336 12.3477ZM17.3788 11.2437L17.2416 10.5954H15.3894V18.2618H17.5331V13.0662C18.0391 12.3915 18.8966 12.5142 19.1624 12.6105V10.5954C18.888 10.4902 17.8847 10.2975 17.3788 11.2437ZM19.6853 10.5953H21.8376V18.2618H19.6853V10.5953ZM35.9949 14.4593C35.9949 12.2163 34.9316 10.4464 32.8993 10.4464C30.8585 10.4464 29.6237 12.2163 29.6237 14.4417C29.6237 17.079 31.0814 18.4108 33.1737 18.4108C34.1942 18.4108 34.9659 18.1742 35.549 17.8413V16.0889C34.9659 16.3868 34.2971 16.5708 33.4481 16.5708C32.6164 16.5708 31.8789 16.2729 31.7846 15.239H35.9778C35.9778 15.1908 35.9809 15.0811 35.9844 14.9547C35.9892 14.7829 35.9949 14.5804 35.9949 14.4593ZM31.7591 13.6271C31.7591 12.6369 32.3508 12.225 32.891 12.225C33.4141 12.225 33.9715 12.6369 33.9715 13.6271H31.7591ZM24.6329 11.1298C24.933 10.8495 25.4732 10.4464 26.3136 10.4464C27.8142 10.4464 29.2291 11.8308 29.2377 14.3716C29.2377 17.1491 27.8399 18.4108 26.305 18.4108C25.5504 18.4108 25.0959 18.0866 24.7872 17.8588L24.7787 20.3384L22.6349 20.8027V10.5866H24.5214L24.6329 11.1298ZM24.7871 16.0718C24.9929 16.2996 25.293 16.4837 25.7989 16.4837C26.5878 16.4837 27.1195 15.6074 27.1195 14.4332C27.1195 13.2853 26.5792 12.3915 25.7989 12.3915C25.3101 12.3915 25.0014 12.5667 24.7785 12.8209L24.7871 16.0718Z" fill="#6461FC"/>
</svg>
