<svg width="80" height="57" viewBox="0 0 80 57" fill="none" xmlns="http://www.w3.org/2000/svg">
<path opacity="0.06" d="M16.25 57.0063C16.1316 57.0051 16.014 56.9884 15.9 56.9568C15.6404 56.8817 15.4123 56.7252 15.25 56.5107C15.0877 56.2962 15 56.0353 15 55.7672V31.6847H1.25C0.918479 31.6847 0.600537 31.5542 0.366117 31.3218C0.131696 31.0894 0 30.7742 0 30.4456V1.24548C0 0.91684 0.131696 0.601663 0.366117 0.369281C0.600537 0.136899 0.918479 0.00634766 1.25 0.00634766H32.5C32.8315 0.00634766 33.1495 0.136899 33.3839 0.369281C33.6183 0.601663 33.75 0.91684 33.75 1.24548V30.4208C33.7501 30.6555 33.6829 30.8854 33.5562 31.0837L17.3062 56.4301C17.1935 56.6067 17.0375 56.7521 16.8528 56.8528C16.6682 56.9536 16.4608 57.0064 16.25 57.0063ZM2.5 29.1817H16.25C16.5815 29.1817 16.8995 29.3122 17.1339 29.5446C17.3683 29.777 17.5 30.0922 17.5 30.4208V51.486L31.25 30.0553V2.48461H2.5V29.1817ZM62.5 57.0063C62.3816 57.0051 62.264 56.9884 62.15 56.9568C61.8904 56.8817 61.6623 56.7252 61.5 56.5107C61.3377 56.2962 61.25 56.0353 61.25 55.7672V31.6847H47.5C47.1685 31.6847 46.8505 31.5542 46.6161 31.3218C46.3817 31.0894 46.25 30.7742 46.25 30.4456V1.24548C46.25 0.91684 46.3817 0.601663 46.6161 0.369281C46.8505 0.136899 47.1685 0.00634766 47.5 0.00634766H78.75C79.0815 0.00634766 79.3995 0.136899 79.6339 0.369281C79.8683 0.601663 80 0.91684 80 1.24548V30.4208C80.0001 30.6555 79.9329 30.8854 79.8063 31.0837L63.5563 56.4301C63.4435 56.6067 63.2875 56.7521 63.1028 56.8528C62.9182 56.9536 62.7108 57.0064 62.5 57.0063ZM48.75 29.1817H62.5C62.8315 29.1817 63.1495 29.3122 63.3839 29.5446C63.6183 29.777 63.75 30.0922 63.75 30.4208V51.486L77.5 30.0553V2.48461H48.75V29.1817Z" fill="black"/>
</svg>
