<svg width="119" height="18" viewBox="0 0 119 18" fill="none" xmlns="http://www.w3.org/2000/svg">
<path d="M18.9063 6.80118C18.7815 6.42084 18.4411 6.15157 18.0399 6.1156L12.5679 5.62334L10.4053 0.606473C10.2456 0.237889 9.88234 0 9.47797 0C9.0736 0 8.71016 0.237889 8.5515 0.606473L6.38894 5.62334L0.916062 6.1156C0.514874 6.15229 0.175152 6.42156 0.0496176 6.80118C-0.0751932 7.18151 0.0400724 7.59868 0.343494 7.86236L4.47989 11.4563L3.26028 16.779C3.17104 17.1704 3.32435 17.5751 3.65207 17.8098C3.82822 17.9367 4.03517 18 4.24286 18C4.42132 18 4.59993 17.953 4.75945 17.8584L9.47797 15.0628L14.1956 17.8584C14.5417 18.0633 14.9769 18.0446 15.3039 17.8098C15.6316 17.5751 15.7849 17.1704 15.6957 16.779L14.476 11.4563L18.6124 7.86236C18.9157 7.59868 19.0311 7.18237 18.9063 6.80118Z" fill="url(#paint0_linear_1_2831)"/>
<path d="M43.918 6.80118C43.7932 6.42084 43.4528 6.15157 43.0516 6.1156L37.5796 5.62334L35.417 0.606473C35.2574 0.237889 34.8941 0 34.4897 0C34.0853 0 33.7219 0.237889 33.5632 0.606473L31.4007 5.62334L25.9278 6.1156C25.5266 6.15229 25.1869 6.42156 25.0613 6.80118C24.9365 7.18151 25.0518 7.59868 25.3552 7.86236L29.4916 11.4563L28.272 16.779C28.1828 17.1704 28.3361 17.5751 28.6638 17.8098C28.8399 17.9367 29.0469 18 29.2546 18C29.433 18 29.6117 17.953 29.7712 17.8584L34.4897 15.0628L39.2073 17.8584C39.5534 18.0633 39.9886 18.0446 40.3156 17.8098C40.6433 17.5751 40.7966 17.1704 40.7074 16.779L39.4878 11.4563L43.6242 7.86236C43.9274 7.59868 44.0428 7.18237 43.918 6.80118Z" fill="url(#paint1_linear_1_2831)"/>
<path d="M68.9298 6.80118C68.8049 6.42084 68.4645 6.15157 68.0633 6.1156L62.5913 5.62334L60.4287 0.606473C60.2691 0.237889 59.9058 0 59.5014 0C59.097 0 58.7336 0.237889 58.5749 0.606473L56.4124 5.62334L50.9395 6.1156C50.5383 6.15229 50.1986 6.42156 50.0731 6.80118C49.9482 7.18151 50.0635 7.59868 50.3669 7.86236L54.5033 11.4563L53.2837 16.779C53.1945 17.1704 53.3478 17.5751 53.6755 17.8098C53.8517 17.9367 54.0586 18 54.2663 18C54.4448 18 54.6234 17.953 54.7829 17.8584L59.5014 15.0628L64.219 17.8584C64.5651 18.0633 65.0003 18.0446 65.3273 17.8098C65.655 17.5751 65.8083 17.1704 65.7191 16.779L64.4995 11.4563L68.6359 7.86236C68.9392 7.59868 69.0546 7.18237 68.9298 6.80118Z" fill="url(#paint2_linear_1_2831)"/>
<path d="M93.9395 6.80118C93.8147 6.42084 93.4743 6.15157 93.0731 6.1156L87.6011 5.62334L85.4385 0.606473C85.2788 0.237889 84.9155 0 84.5112 0C84.1068 0 83.7434 0.237889 83.5847 0.606473L81.4221 5.62334L75.9493 6.1156C75.5481 6.15229 75.2084 6.42156 75.0828 6.80118C74.958 7.18151 75.0733 7.59868 75.3767 7.86236L79.5131 11.4563L78.2935 16.779C78.2042 17.1704 78.3575 17.5751 78.6853 17.8098C78.8614 17.9367 79.0684 18 79.2761 18C79.4545 18 79.6331 17.953 79.7927 17.8584L84.5112 15.0628L89.2288 17.8584C89.5749 18.0633 90.0101 18.0446 90.3371 17.8098C90.6648 17.5751 90.8181 17.1704 90.7289 16.779L89.5092 11.4563L93.6456 7.86236C93.9489 7.59868 94.0643 7.18237 93.9395 6.80118Z" fill="url(#paint3_linear_1_2831)"/>
<path d="M118.949 6.80118C118.824 6.42084 118.484 6.15157 118.083 6.1156L112.611 5.62334L110.448 0.606473C110.289 0.237889 109.925 0 109.521 0C109.117 0 108.753 0.237889 108.594 0.606473L106.432 5.62334L100.959 6.1156C100.558 6.15229 100.218 6.42156 100.093 6.80118C99.9678 7.18151 100.083 7.59868 100.386 7.86236L104.523 11.4563L103.303 16.779C103.214 17.1704 103.367 17.5751 103.695 17.8098C103.871 17.9367 104.078 18 104.286 18C104.464 18 104.643 17.953 104.802 17.8584L109.521 15.0628L114.239 17.8584C114.585 18.0633 115.02 18.0446 115.347 17.8098C115.675 17.5751 115.828 17.1704 115.739 16.779L114.519 11.4563L118.655 7.86236C118.959 7.59868 119.074 7.18237 118.949 6.80118Z" fill="url(#paint4_linear_1_2831)"/>
<defs>
<linearGradient id="paint0_linear_1_2831" x1="9.47795" y1="0" x2="9.47795" y2="18" gradientUnits="userSpaceOnUse">
<stop offset="0.0985536" stop-color="#FFA364"/>
<stop offset="0.788912" stop-color="#FFC112"/>
</linearGradient>
<linearGradient id="paint1_linear_1_2831" x1="34.4897" y1="0" x2="34.4897" y2="18" gradientUnits="userSpaceOnUse">
<stop offset="0.0985536" stop-color="#FFA364"/>
<stop offset="0.788912" stop-color="#FFC112"/>
</linearGradient>
<linearGradient id="paint2_linear_1_2831" x1="59.5014" y1="0" x2="59.5014" y2="18" gradientUnits="userSpaceOnUse">
<stop offset="0.0985536" stop-color="#FFA364"/>
<stop offset="0.788912" stop-color="#FFC112"/>
</linearGradient>
<linearGradient id="paint3_linear_1_2831" x1="84.5112" y1="0" x2="84.5112" y2="18" gradientUnits="userSpaceOnUse">
<stop offset="0.0985536" stop-color="#FFA364"/>
<stop offset="0.788912" stop-color="#FFC112"/>
</linearGradient>
<linearGradient id="paint4_linear_1_2831" x1="109.521" y1="0" x2="109.521" y2="18" gradientUnits="userSpaceOnUse">
<stop offset="0.0985536" stop-color="#FFA364"/>
<stop offset="0.788912" stop-color="#FFC112"/>
</linearGradient>
</defs>
</svg>
