<svg width="20" height="19" viewBox="0 0 20 19" fill="none" xmlns="http://www.w3.org/2000/svg">
<path d="M16.4675 12.2825C15.4328 11.2478 14.2012 10.4818 12.8575 10.0181C14.2967 9.02689 15.2422 7.36799 15.2422 5.49219C15.2422 2.4638 12.7784 0 9.75 0C6.72162 0 4.25781 2.4638 4.25781 5.49219C4.25781 7.36799 5.20332 9.02689 6.64253 10.0181C5.2988 10.4818 4.06722 11.2478 3.0325 12.2825C1.23819 14.0768 0.25 16.4625 0.25 19H1.73438C1.73438 14.5802 5.33016 10.9844 9.75 10.9844C14.1698 10.9844 17.7656 14.5802 17.7656 19H19.25C19.25 16.4625 18.2618 14.0768 16.4675 12.2825ZM9.75 9.5C7.5401 9.5 5.74219 7.70213 5.74219 5.49219C5.74219 3.28225 7.5401 1.48438 9.75 1.48438C11.9599 1.48438 13.7578 3.28225 13.7578 5.49219C13.7578 7.70213 11.9599 9.5 9.75 9.5Z" fill="black"/>
</svg>
