<svg width="19" height="12" viewBox="0 0 19 12" fill="none" xmlns="http://www.w3.org/2000/svg">
<path d="M9.05285 9.33333C4.65285 9.33333 4.65285 2.66667 9.05285 2.66667C13.4028 2.66667 13.5908 9.33333 9.05285 9.33333ZM9.05285 4C6.38618 4 6.38618 8 9.05285 8C11.7195 8 11.7195 4 9.05285 4Z" fill="#616161"/>
<path d="M9.05284 12C5.7535 12 2.59417 10.2473 0.386168 7.19067C0.135159 6.8444 0 6.42767 0 6C0 5.57233 0.135159 5.1556 0.386168 4.80933C2.59417 1.75267 5.7535 0 9.05284 0C12.3522 0 15.5115 1.75267 17.7195 4.80933C17.9705 5.1556 18.1057 5.57233 18.1057 6C18.1057 6.42767 17.9705 6.8444 17.7195 7.19067C15.5115 10.2473 12.3522 12 9.05284 12ZM1.46417 6.40933C3.4495 9.15467 6.14417 10.6667 9.05284 10.6667C11.9615 10.6667 14.6562 9.15467 16.6415 6.40933C16.7279 6.2902 16.7744 6.14681 16.7744 5.99967C16.7744 5.85252 16.7279 5.70914 16.6415 5.59C14.6562 2.84533 11.9615 1.33333 9.05284 1.33333C6.14417 1.33333 3.4495 2.84533 1.46417 5.59067C1.37781 5.7098 1.3313 5.85319 1.3313 6.00033C1.3313 6.14748 1.37781 6.2902 1.46417 6.40933Z" fill="#616161"/>
<path d="M9.12881 8.14531C10.3131 8.14531 11.2732 7.18522 11.2732 6.00088C11.2732 4.81654 10.3131 3.85645 9.12881 3.85645C7.94447 3.85645 6.98438 4.81654 6.98438 6.00088C6.98438 7.18522 7.94447 8.14531 9.12881 8.14531Z" fill="#616161"/>
</svg>
