<svg width="41" height="29" viewBox="0 0 41 29" fill="none" xmlns="http://www.w3.org/2000/svg">
<rect x="0.5" y="1.17773" width="40" height="27" rx="3.5" fill="white" stroke="#E8ECEF"/>
<path d="M17.8055 19.9164H14.9561L16.7383 8.75494H19.5877L17.8055 19.9164Z" fill="#00579F"/>
<path d="M28.1346 9.02792C27.5726 8.80209 26.6811 8.55273 25.5788 8.55273C22.7649 8.55273 20.7833 10.0725 20.7712 12.2454C20.7478 13.8485 22.1899 14.7389 23.2685 15.2734C24.3709 15.8196 24.7457 16.1761 24.7457 16.663C24.7345 17.4107 23.8548 17.7554 23.0344 17.7554C21.8968 17.7554 21.2872 17.5777 20.3609 17.1617L19.9857 16.9834L19.5869 19.4889C20.2552 19.7973 21.4865 20.0709 22.7649 20.0829C25.7548 20.0829 27.7013 18.5866 27.7243 16.2711C27.7357 15.0005 26.9742 14.027 25.3325 13.2314C24.3359 12.7207 23.7255 12.3763 23.7255 11.8538C23.7372 11.3788 24.2417 10.8922 25.3668 10.8922C26.2931 10.8684 26.9738 11.0939 27.4894 11.3196L27.7471 11.4381L28.1346 9.02792Z" fill="#00579F"/>
<path d="M31.9233 15.9623C32.158 15.3211 33.0609 12.8394 33.0609 12.8394C33.0491 12.8633 33.2951 12.1864 33.4358 11.7708L33.635 12.7326C33.635 12.7326 34.1746 15.4043 34.2918 15.9623C33.8464 15.9623 32.4861 15.9623 31.9233 15.9623ZM35.4406 8.75494H33.2365C32.5569 8.75494 32.0405 8.95663 31.7472 9.68102L27.5146 19.9163H30.5045C30.5045 19.9163 30.9968 18.5387 31.1026 18.242C31.4306 18.242 34.3391 18.242 34.7611 18.242C34.8429 18.6339 35.1011 19.9163 35.1011 19.9163H37.7395L35.4406 8.75494Z" fill="#00579F"/>
<path d="M12.5762 8.75494L9.78558 16.366L9.48063 14.8224C8.96471 13.0413 7.34667 11.1061 5.54102 10.1439L8.0971 19.9046H11.1104L15.5893 8.75494H12.5762Z" fill="#00579F"/>
<path d="M7.19396 8.75494H2.6094L2.5625 8.98049C6.13874 9.90683 8.50722 12.1397 9.48032 14.8236L8.48369 9.69328C8.31961 8.98033 7.81538 8.77846 7.19396 8.75494Z" fill="#FAA61A"/>
</svg>
