<svg width="73" height="73" viewBox="0 0 73 73" fill="none" xmlns="http://www.w3.org/2000/svg">
<circle cx="36.5005" cy="36.5005" r="36.0005" fill="#588157" fill-opacity="0.1"/>
<path d="M59.8932 33.7089C59.7028 32.5364 59.14 31.4563 58.2882 30.6283C57.4364 29.8004 56.3406 29.2687 55.1632 29.1118C54.9371 29.0897 54.7101 29.0793 54.483 29.0805V26.7273C54.4792 23.6181 53.2425 20.6374 51.044 18.439C48.8455 16.2405 45.8648 15.0037 42.7557 15H30.2466C27.1375 15.0037 24.1568 16.2405 21.9583 18.439C19.7598 20.6374 18.5231 23.6181 18.5193 26.7273V29.0805C18.2922 29.0793 18.0652 29.0897 17.8392 29.1118C16.6617 29.2687 15.566 29.8004 14.7141 30.6283C13.8623 31.4563 13.2995 32.5364 13.1092 33.7089C12.9002 35.0163 13.1757 36.3549 13.884 37.4735C14.5922 38.592 15.6845 39.4135 16.9557 39.7836V50.1818C16.9576 50.8033 17.2053 51.3988 17.6447 51.8383C18.0842 52.2777 18.6797 52.5254 19.3012 52.5273V57.2182C19.3012 57.4255 19.3835 57.6244 19.5301 57.771C19.6768 57.9176 19.8756 58 20.083 58H22.4284C22.5986 57.9995 22.764 57.9435 22.8994 57.8405C23.0349 57.7375 23.133 57.5931 23.179 57.4293L24.5784 52.5273H48.4239L49.8233 57.4293C49.8693 57.5931 49.9674 57.7375 50.1029 57.8405C50.2383 57.9435 50.4037 57.9995 50.5739 58H52.9193C53.1267 58 53.3255 57.9176 53.4722 57.771C53.6188 57.6244 53.7012 57.4255 53.7012 57.2182V52.5273C54.3226 52.5254 54.9181 52.2777 55.3576 51.8383C55.797 51.3988 56.0448 50.8033 56.0466 50.1818V39.7836C57.3178 39.4135 58.4101 38.592 59.1184 37.4735C59.8266 36.3549 60.1021 35.0163 59.8932 33.7089ZM20.083 26.7273C20.0855 24.0325 21.1571 21.4488 23.0626 19.5432C24.9681 17.6377 27.5518 16.5661 30.2466 16.5636H42.7557C45.4505 16.5661 48.0342 17.6377 49.9397 19.5432C51.8452 21.4488 52.9169 24.0325 52.9193 26.7273V29.3073C51.7894 29.641 50.7979 30.3317 50.0932 31.2759C49.3885 32.2202 49.0086 33.3672 49.0102 34.5455V37.0316C48.7595 36.9406 48.4951 36.893 48.2284 36.8909H24.7739C24.5072 36.893 24.2428 36.9406 23.9921 37.0316V34.5455C23.9937 33.3672 23.6138 32.2202 22.9091 31.2759C22.2044 30.3317 21.2129 29.641 20.083 29.3073V26.7273ZM49.0102 39.2364V43.1455H23.9921V39.2364C23.9921 39.029 24.0744 38.8302 24.2211 38.6835C24.3677 38.5369 24.5665 38.4545 24.7739 38.4545H48.2284C48.4358 38.4545 48.6346 38.5369 48.7813 38.6835C48.9279 38.8302 49.0102 39.029 49.0102 39.2364ZM21.8421 56.4364H20.8648V52.5273H22.9522L21.8421 56.4364ZM52.1375 56.4364H51.1602L50.0501 52.5273H52.1375V56.4364ZM55.1319 38.392C54.9502 38.4246 54.7857 38.5199 54.6671 38.6614C54.5485 38.8028 54.4834 38.9814 54.483 39.166V50.1818C54.483 50.3892 54.4006 50.588 54.254 50.7346C54.1074 50.8813 53.9085 50.9636 53.7012 50.9636H19.3012C19.0938 50.9636 18.8949 50.8813 18.7483 50.7346C18.6017 50.588 18.5193 50.3892 18.5193 50.1818V39.166C18.5189 38.9814 18.4538 38.8028 18.3352 38.6614C18.2166 38.5199 18.0521 38.4246 17.8704 38.392C16.9461 38.2371 16.1083 37.7549 15.5101 37.0334C14.9119 36.3119 14.5932 35.3993 14.6121 34.4623C14.6311 33.5252 14.9865 32.6263 15.6134 31.9296C16.2403 31.2329 17.0969 30.785 18.0268 30.6676C18.19 30.6455 18.3546 30.6351 18.5193 30.6364H18.5272C19.4793 30.6346 20.3984 30.9856 21.1072 31.6215C21.5214 31.9878 21.8534 32.4379 22.0811 32.9419C22.3089 33.4459 22.4272 33.9924 22.4284 34.5455V43.9273C22.4284 44.1346 22.5108 44.3335 22.6574 44.4801C22.804 44.6267 23.0029 44.7091 23.2102 44.7091H49.7921C49.9994 44.7091 50.1983 44.6267 50.3449 44.4801C50.4915 44.3335 50.5739 44.1346 50.5739 43.9273V34.5455C50.5751 33.9924 50.6934 33.4459 50.9212 32.9419C51.1489 32.4379 51.4809 31.9878 51.8952 31.6215C52.3093 31.2495 52.7991 30.9717 53.3308 30.8071C53.8626 30.6424 54.4237 30.5949 54.9755 30.6676C55.8144 30.7763 56.5958 31.1531 57.203 31.7421C57.8103 32.331 58.2109 33.1004 58.3452 33.9356V33.9435C58.5067 34.9592 58.2592 35.9975 57.657 36.8312C57.0548 37.6649 56.1469 38.2261 55.1319 38.392Z" fill="#588157"/>
</svg>
