<svg width="73" height="73" viewBox="0 0 73 73" fill="none" xmlns="http://www.w3.org/2000/svg">
<circle cx="36.5005" cy="36.5005" r="36.0005" fill="#588157" fill-opacity="0.1"/>
<path d="M57.9939 34.1884L54.9347 31.0209C54.8178 30.8996 54.7299 30.7532 54.6778 30.593C54.6256 30.4327 54.6105 30.2627 54.6336 30.0958L55.2478 25.7367C55.5002 23.9493 54.3043 22.306 52.5278 21.9951L48.1915 21.2346C48.0252 21.2051 47.8679 21.138 47.7314 21.0385C47.595 20.939 47.483 20.8097 47.4039 20.6605L45.3436 16.7737C44.4975 15.177 42.5628 14.5487 40.9401 15.3438L36.9873 17.2785C36.8353 17.3523 36.6687 17.3906 36.4998 17.3906C36.3309 17.3906 36.1642 17.3523 36.0123 17.2785L32.0595 15.3438C30.4357 14.5486 28.5031 15.1769 27.656 16.7737L25.5956 20.6605C25.4352 20.966 25.1471 21.174 24.8081 21.2346L20.4728 21.9951C18.6951 22.3049 17.5003 23.9493 17.7527 25.7356L18.3658 30.0957C18.4135 30.4359 18.3052 30.7738 18.0647 31.0208L15.0056 34.1883C14.4034 34.8071 14.0664 35.6365 14.0664 36.5C14.0664 37.3635 14.4034 38.1928 15.0056 38.8117L18.0647 41.9791C18.1817 42.1005 18.2695 42.2468 18.3217 42.4071C18.3738 42.5673 18.3889 42.7373 18.3658 42.9043L17.7516 47.2633C17.4993 49.0507 18.6951 50.6941 20.4717 51.005L24.808 51.7654C24.9742 51.795 25.1316 51.8621 25.268 51.9616C25.4045 52.0611 25.5165 52.1903 25.5955 52.3396L27.6559 56.2263C28.503 57.823 30.4366 58.4513 32.0594 57.6563L36.0122 55.7216C36.1641 55.6478 36.3308 55.6095 36.4997 55.6095C36.6686 55.6095 36.8353 55.6478 36.9872 55.7216L40.94 57.6563C41.4156 57.8892 41.9171 57.9997 42.411 57.9997C43.6026 57.9997 44.7455 57.3552 45.3434 56.2264L47.4038 52.3397C47.5641 52.0342 47.8523 51.8262 48.1913 51.7655L52.5265 51.0051C54.3042 50.6953 55.499 49.0508 55.2466 47.2646L54.6334 42.9044C54.5858 42.5643 54.6941 42.2264 54.9345 41.9793L57.9937 38.8118C58.596 38.1931 58.9331 37.3637 58.9331 36.5002C58.9331 35.6366 58.5961 34.8072 57.9939 34.1884ZM56.3982 37.2713L53.339 40.4366C52.6208 41.1797 52.2927 42.1915 52.4367 43.2141L53.0499 47.5732C53.0914 47.8582 53.0199 48.1481 52.8508 48.3813C52.6816 48.6144 52.4281 48.7722 52.1443 48.8211L47.8069 49.5816C46.7886 49.7604 45.9274 50.3875 45.4432 51.3007L43.3829 55.1864C43.1012 55.7194 42.4577 55.9295 41.915 55.6642L37.9622 53.7283C37.5051 53.5052 37.0024 53.3925 36.4999 53.3925C35.9973 53.3925 35.4946 53.5052 35.0375 53.7294L31.0847 55.663C30.5441 55.9295 29.8985 55.7194 29.6169 55.1864L27.5565 51.2997C27.0722 50.3854 26.21 49.7593 25.1906 49.5816L20.8554 48.8201C20.5716 48.7713 20.3181 48.6137 20.1488 48.3808C19.9795 48.1479 19.9077 47.8582 19.9487 47.5732L20.5629 43.2141C20.707 42.1915 20.3787 41.1798 19.6616 40.4377L16.6014 37.2713C16.4008 37.0647 16.2886 36.788 16.2886 36.5C16.2886 36.212 16.4008 35.9354 16.6014 35.7288L19.6606 32.5635C20.3788 31.8204 20.707 30.8086 20.5629 29.7859L19.9498 25.4269C19.9083 25.1419 19.9797 24.8519 20.1489 24.6188C20.318 24.3857 20.5715 24.2279 20.8553 24.1789L25.1928 23.4185C26.211 23.2397 27.0722 22.6125 27.5564 21.6993L29.6168 17.8136C29.8984 17.2807 30.5441 17.0727 31.0846 17.3359L35.0374 19.2717C35.9516 19.718 37.0479 19.7191 37.9622 19.2707L41.915 17.3371C42.4567 17.0706 43.1012 17.2808 43.3829 17.8137L45.4432 21.7005C45.9275 22.6147 46.7897 23.2409 47.8091 23.4185L52.1443 24.1801C52.4281 24.2289 52.6816 24.3865 52.8509 24.6193C53.0202 24.8522 53.092 25.142 53.051 25.4269L52.4368 29.786C52.2927 30.8087 52.621 31.8204 53.3381 32.5624L56.3983 35.7288C56.5989 35.9354 56.7111 36.2121 56.7111 36.5C56.711 36.788 56.5988 37.0647 56.3982 37.2713Z" fill="#588157"/>
<path d="M43.9397 29.0602C43.5063 28.6268 42.8044 28.6268 42.3711 29.0602L29.0599 42.3714C28.6265 42.8047 28.6265 43.5066 29.0599 43.94C29.2765 44.1566 29.5603 44.265 29.8442 44.265C30.128 44.265 30.4118 44.1567 30.6285 43.94L43.9397 30.6288C44.3729 30.1954 44.3729 29.4935 43.9397 29.0602ZM35.3948 30.9559C35.3948 28.5077 33.4038 26.5166 30.9556 26.5166C28.5074 26.5166 26.5163 28.5077 26.5163 30.9559C26.5163 33.4041 28.5074 35.3951 30.9556 35.3951C33.4038 35.3951 35.3948 33.4041 35.3948 30.9559ZM28.7349 30.9559C28.7349 29.7318 29.7316 28.7352 30.9557 28.7352C32.1798 28.7352 33.1764 29.7318 33.1764 30.9559C33.1764 32.18 32.1798 33.1766 30.9557 33.1766C29.7315 33.1766 28.7349 32.18 28.7349 30.9559ZM42.0439 37.605C39.5957 37.605 37.6046 39.596 37.6046 42.0443C37.6046 44.4925 39.5957 46.4835 42.0439 46.4835C44.4921 46.4835 46.4831 44.4925 46.4831 42.0443C46.4831 39.596 44.4921 37.605 42.0439 37.605ZM42.0439 44.2649C40.8198 44.2649 39.8231 43.2683 39.8231 42.0442C39.8231 40.8201 40.8198 39.8234 42.0439 39.8234C43.268 39.8234 44.2646 40.8201 44.2646 42.0442C44.2646 43.2683 43.268 44.2649 42.0439 44.2649Z" fill="#588157"/>
</svg>
