<svg width="73" height="73" viewBox="0 0 73 73" fill="none" xmlns="http://www.w3.org/2000/svg">
<circle cx="36.5005" cy="36.5005" r="36.0005" fill="#588157" fill-opacity="0.1"/>
<path d="M36.5022 15.001C32.1935 15.0044 28.0622 16.7177 25.0157 19.7647C21.9692 22.8117 20.2565 26.9432 20.2538 31.2519C20.2559 35.5606 21.9684 39.6923 25.0151 42.739C28.0618 45.7857 32.1935 47.4983 36.5022 47.5003C40.8109 47.4983 44.9426 45.7857 47.9893 42.739C51.036 39.6923 52.7486 35.5606 52.7506 31.2519C52.7479 26.9427 51.0349 22.8108 47.9878 19.7638C44.9408 16.7167 40.8088 15.0037 36.4997 15.001H36.5022ZM36.5022 16.3546C38.4585 16.3539 40.3958 16.7388 42.2032 17.4873C44.0106 18.2358 45.6528 19.3332 47.0359 20.7167C48.419 22.1003 49.5158 23.7428 50.2637 25.5506C51.0115 27.3583 51.3958 29.2956 51.3944 31.2519C51.3944 39.4861 44.7364 46.1441 36.5022 46.1441C28.268 46.1441 21.61 39.4861 21.61 31.2519C21.6086 29.2958 21.9928 27.3587 22.7405 25.5511C23.4882 23.7436 24.5848 22.1011 25.9676 20.7176C27.3504 19.3341 28.9923 18.2367 30.7995 17.488C32.6066 16.7394 34.5436 16.3542 36.4997 16.3546H36.5022Z" fill="#588157"/>
<path d="M36.5027 19.0646C33.2716 19.068 30.1739 20.3532 27.8894 22.6381C25.605 24.9231 24.3204 28.0211 24.3177 31.2522C24.3197 34.4832 25.6042 37.5813 27.8888 39.866C30.1735 42.1507 33.2717 43.4351 36.5027 43.4372C39.7337 43.4351 42.8319 42.1507 45.1166 39.866C47.4013 37.5813 48.6857 34.4832 48.6877 31.2522C48.685 28.0211 47.4004 24.9231 45.116 22.6381C42.8315 20.3532 39.7338 19.068 36.5027 19.0646ZM36.5027 20.4182C37.9254 20.4175 39.3343 20.6973 40.6487 21.2416C41.9632 21.7859 43.1574 22.584 44.1632 23.5902C45.1689 24.5964 45.9664 25.7911 46.5101 27.1058C47.0538 28.4205 47.3329 29.8295 47.3316 31.2522C47.3332 32.6748 47.0543 34.0838 46.5107 35.3986C45.9672 36.7133 45.1696 37.9079 44.1638 38.914C43.1579 39.9201 41.9635 40.7179 40.6489 41.2618C39.3343 41.8056 37.9254 42.0849 36.5027 42.0836C35.0796 42.0852 33.6701 41.8063 32.3549 41.2626C31.0398 40.7189 29.8447 39.9212 28.8382 38.9152C27.8317 37.9091 27.0334 36.7145 26.4891 35.3995C25.9448 34.0846 25.6652 32.6753 25.6662 31.2522C25.6652 29.8289 25.9448 28.4195 26.4891 27.1044C27.0333 25.7893 27.8315 24.5945 28.838 23.5882C29.8445 22.582 31.0396 21.784 32.3547 21.2401C33.6699 20.6961 35.0795 20.4168 36.5027 20.4182ZM23.7036 40.5585L17.345 51.569C17.2814 51.6819 17.2516 51.8107 17.2589 51.94C17.2662 52.0694 17.3105 52.1939 17.3864 52.2989C17.4623 52.4039 17.5667 52.4849 17.6873 52.5325C17.8078 52.58 17.9394 52.5919 18.0665 52.567L24.5429 51.2876L26.6718 57.5413C26.7139 57.6644 26.7906 57.7727 26.8926 57.8534C26.9947 57.9341 27.1178 57.9838 27.2472 57.9965C27.3767 58.0091 27.5071 57.9843 27.6228 57.9249C27.7386 57.8655 27.8348 57.7741 27.9 57.6616L34.1307 46.8736L32.9562 46.193L27.4727 55.6862L25.6355 50.2871C25.5823 50.1325 25.4751 50.0023 25.3336 49.9205C25.1921 49.8387 25.0258 49.8108 24.8653 49.8419L19.2666 50.9447L24.8755 41.2366L23.7036 40.5585ZM49.3018 40.5585L48.1325 41.2392L53.7388 50.9473L48.1427 49.8444C47.9822 49.8133 47.8159 49.8413 47.6744 49.9231C47.5329 50.0049 47.4256 50.1351 47.3725 50.2896L45.5327 55.6887L40.0518 46.1956L38.8747 46.8762L45.1028 57.6616C45.1681 57.7741 45.2643 57.8655 45.38 57.9249C45.4958 57.9843 45.6262 58.0091 45.7556 57.9965C45.8851 57.9838 46.0082 57.9341 46.1102 57.8534C46.2123 57.7727 46.2889 57.6644 46.3311 57.5413L48.4625 51.2876L54.9363 52.567C55.0634 52.5919 55.1951 52.58 55.3156 52.5325C55.4361 52.4849 55.5405 52.4039 55.6164 52.2989C55.6924 52.1939 55.7366 52.0694 55.7439 51.94C55.7513 51.8107 55.7214 51.6819 55.6579 51.569L49.3018 40.5585Z" fill="#588157"/>
<path d="M36.5027 23.7108C36.0216 23.7108 35.9397 23.9206 35.8118 24.0511C35.0723 24.9058 34.0769 26.6662 33.7084 27.2496C32.4649 27.5593 31.142 27.8177 30.0212 28.2578C29.8574 28.3397 29.6348 28.3576 29.4839 28.8131C29.338 29.2711 29.5069 29.4118 29.5913 29.573C30.1364 30.4865 31.687 32.2035 31.9838 32.5617C31.907 33.9256 31.7203 35.1538 31.8047 36.3794C31.8303 36.5586 31.7765 36.7761 32.1629 37.0601C32.5519 37.3416 32.7438 37.2238 32.9229 37.1931C33.9899 36.9373 35.9039 36.0826 36.5027 35.8447C37.7053 36.3027 38.8977 36.8886 40.0799 37.1931C40.259 37.2238 40.4509 37.3416 40.8398 37.0601C41.2288 36.7786 41.1725 36.5586 41.1981 36.3794C41.2902 35.3227 41.0522 33.0274 41.0189 32.5617C41.7098 31.7531 42.4519 30.8857 43.1044 30.0541C43.4754 29.6498 43.6264 29.2199 43.5189 28.8131C43.4089 28.4062 43.1479 28.3397 42.9841 28.2578C41.7891 27.7844 40.5225 27.5593 39.2969 27.2496C38.5906 26.1749 37.9714 24.9928 37.191 24.0511C37.063 23.9232 36.9837 23.7108 36.5001 23.7108H36.5027ZM36.5027 25.3561C37.0963 26.2236 37.5953 27.1063 38.1608 27.9687C38.2529 28.0966 38.2836 28.1862 38.5011 28.3448C38.7186 28.5009 38.8056 28.5009 38.9565 28.5495C39.9673 28.8182 40.955 29.0382 41.9555 29.3172C41.3209 30.1564 40.63 30.9011 39.9852 31.7071C39.8905 31.835 39.8189 31.8862 39.7344 32.1421C39.6525 32.3979 39.6781 32.4849 39.6807 32.641C39.7319 33.6901 39.8291 34.6983 39.8752 35.7372C38.7493 35.3457 37.5518 34.7137 36.5027 34.4911C36.234 34.4911 36.1623 34.5448 36.0114 34.5934C35.0313 34.967 34.0999 35.3713 33.1276 35.7346C33.1609 34.6804 33.276 33.6748 33.3246 32.641C33.3246 32.4849 33.3502 32.3954 33.2683 32.1421C33.1864 31.8862 33.1148 31.835 33.0176 31.7071C32.3779 30.8985 31.6153 30.0387 31.0473 29.3172C32.058 29.0203 33.0508 28.8156 34.0488 28.5495C34.1997 28.5009 34.2867 28.5009 34.5042 28.3448C34.7192 28.1862 34.7524 28.0966 34.842 27.9687C35.2002 27.4415 35.5482 26.853 35.8527 26.3566C36.0589 26.0165 36.2757 25.6828 36.5027 25.3561Z" fill="#588157"/>
</svg>
