<svg width="73" height="73" viewBox="0 0 73 73" fill="none" xmlns="http://www.w3.org/2000/svg">
<circle cx="36.5005" cy="36.5005" r="36.0005" fill="#588157" fill-opacity="0.1"/>
<path d="M43.4495 28.8017V30.8075C43.4495 31.9498 42.5235 32.8757 41.3813 32.8757H39.6764M25.7147 29.7416H25.7273C25.7771 31.702 26.5989 33.5857 28.0748 34.8611C29.263 35.8878 30.9309 36.7813 33.1293 36.7968C35.3276 36.7625 36.988 35.8548 38.1676 34.818C39.6037 33.5556 40.4047 31.714 40.4674 29.795M23.9616 24.2834C23.2626 24.4121 22.7326 25.0236 22.7326 25.7597V28.3268C22.7326 29.1565 23.4053 29.8292 24.235 29.8292H25.7147V26.1251M40.4674 26.1251V29.8292H41.9472C42.7769 29.8292 43.4495 29.1565 43.4495 28.3268V25.7597C43.4495 25.0236 42.9195 24.4121 42.2205 24.2834M22.3825 56.2625V52.5837M43.8236 40.2446C42.9909 39.8186 42.1104 39.493 41.2008 39.2748M33.0911 41.4615L30.6231 43.5231C30.4166 43.6955 30.1536 43.7853 29.8848 43.7751C29.616 43.7648 29.3605 43.6553 29.1678 43.4676L24.9801 39.2735L26.7936 38.1615C26.9607 38.059 27.1532 38.0055 27.3492 38.007C27.5453 38.0085 27.7369 38.065 27.9025 38.17L33.0911 41.4615ZM33.0911 41.4615L35.5592 43.5231C35.7656 43.6955 36.0287 43.7853 36.2974 43.7751C36.5662 43.7648 36.8216 43.6553 37.0144 43.4676L41.202 39.2735L39.3886 38.1615C39.2215 38.059 39.029 38.0055 38.8329 38.007C38.6369 38.0085 38.4452 38.065 38.2797 38.17L33.0911 41.4615ZM34.2831 45.6179L35.5214 43.4912M34.2831 45.6179L36.1729 56.2802M34.2831 45.6179H31.8991M30.6608 43.4912L31.8991 45.6179M31.8991 45.6179L30.0092 56.2802M53.4234 50.8513H49.7549C49.7549 50.8513 51.6973 47.3306 52.0177 46.9373C52.3419 46.5397 52.6488 46.7876 52.678 47.1385C52.7073 47.4893 52.6634 52.5754 52.6634 52.5754M47.7301 52.7608C47.7301 52.7608 44.8878 52.7966 44.7531 52.7517C44.6185 52.7068 44.969 52.4698 46.8324 49.8072C47.1805 49.3099 47.3721 48.8905 47.4536 48.539L47.4825 48.313C47.4825 47.4874 46.8131 46.8181 45.9876 46.8181C45.2612 46.8181 44.6558 47.3363 44.5208 48.0232M24.9812 39.2747C19.69 40.5459 15.9199 45.2874 15.9199 50.7763V53.3807C15.9199 54.982 17.2181 56.2803 18.8194 56.2803H40.3927M29.3289 35.7607V36.9988C29.3289 37.645 29.0163 38.2156 28.5389 38.5737M37.6419 38.5745C37.397 38.3912 37.1982 38.1533 37.0613 37.8798C36.9244 37.6063 36.8532 37.3046 36.8532 36.9987V35.768M39.9717 18.0084H39.8959C39.6944 18.0084 39.5012 17.9284 39.3588 17.786C39.2164 17.6435 39.1363 17.4503 39.1363 17.2489C39.1363 16.0068 38.1295 15 36.8874 15H29.7295C26.544 15 23.9617 17.5822 23.9617 20.7678V24.5795C23.9617 24.8526 24.0467 25.119 24.2049 25.3417C24.3632 25.5644 24.5868 25.7323 24.8448 25.8221L26.2655 26.3167C26.7621 26.4897 27.2807 26.1205 27.2798 25.5946L27.2767 22.9068C27.2713 21.5997 28.3137 20.5355 29.6051 20.53L29.6332 20.5298C30.0285 20.5281 30.4194 20.5895 30.7929 20.7095C31.4546 20.9221 32.1401 21.051 32.8351 21.048H33.3471C34.042 21.051 34.7277 20.9221 35.3894 20.7095C35.764 20.5889 36.1554 20.5282 36.549 20.5298L36.5771 20.53C37.8685 20.5355 38.911 21.5997 38.9055 22.9068L38.9028 25.5949C38.9021 26.1206 39.4207 26.4897 39.9173 26.3167L41.3376 25.8222C41.5955 25.7323 41.8191 25.5644 41.9773 25.3418C42.1355 25.1191 42.2206 24.8527 42.2206 24.5796V20.2573C42.2206 19.0154 41.2137 18.0084 39.9717 18.0084ZM38.1919 33.9366H36.4956C35.8485 33.9366 35.3239 33.412 35.3239 32.7648C35.3239 32.1177 35.8485 31.5931 36.4956 31.5931H38.1919C38.8389 31.5931 39.3636 32.1177 39.3636 32.7648C39.3636 33.412 38.8389 33.9366 38.1919 33.9366ZM57.0817 49.754C57.0817 54.3081 53.3898 58 48.8356 58C44.2815 58 40.5896 54.3081 40.5896 49.754C40.5896 45.1998 44.2815 41.5079 48.8356 41.5079C53.3898 41.5079 57.0817 45.1998 57.0817 49.754Z" stroke="#588157" stroke-width="1.2" stroke-miterlimit="10" stroke-linecap="round" stroke-linejoin="round"/>
</svg>
