<svg width="22" height="19" viewBox="0 0 22 19" fill="none" xmlns="http://www.w3.org/2000/svg">
<path d="M10.75 19C10.451 19 10.1628 18.8898 9.93818 18.6898C9.08981 17.9354 8.27192 17.2265 7.55029 16.6011L7.5466 16.5979C5.43093 14.7644 3.60397 13.181 2.33281 11.6212C0.911869 9.87757 0.25 8.22423 0.25 6.4181C0.25 4.66332 0.841691 3.0444 1.91593 1.85939C3.00301 0.660368 4.49463 0 6.11651 0C7.32872 0 8.43885 0.389747 9.41605 1.15831C9.90918 1.54622 10.3562 2.02102 10.75 2.57482C11.144 2.02102 11.5908 1.54622 12.0841 1.15831C13.0613 0.389747 14.1714 0 15.3837 0C17.0054 0 18.4972 0.660368 19.5842 1.85939C20.6585 3.0444 21.25 4.66332 21.25 6.4181C21.25 8.22419 20.5883 9.87753 19.1673 11.621C17.8962 13.181 16.0694 14.7642 13.954 16.5975C13.2311 17.2239 12.412 17.9339 11.5617 18.6901C11.3369 18.89 11.0485 19.0001 10.75 19ZM6.11651 1.25099C4.84231 1.25099 3.67177 1.76817 2.8202 2.70729C1.956 3.66064 1.47998 4.97845 1.47998 6.4181C1.47998 7.93713 2.03512 9.29566 3.27987 10.823C4.48294 12.2993 6.27241 13.8502 8.34435 15.6459L8.34817 15.6491C9.0725 16.2769 9.89363 16.9886 10.7482 17.7485C11.608 16.9871 12.4304 16.2743 13.1561 15.6455C15.2279 13.8498 17.0172 12.2993 18.2203 10.823C19.4649 9.29566 20.02 7.93713 20.02 6.4181C20.02 4.97841 19.544 3.66059 18.6798 2.70729C17.8284 1.76817 16.6577 1.25099 15.3837 1.25099C14.4502 1.25099 13.5932 1.55277 12.8365 2.14778C12.1622 2.6783 11.6924 3.34893 11.417 3.81818C11.2754 4.05948 11.0261 4.2035 10.75 4.2035C10.4739 4.2035 10.2246 4.05948 10.083 3.81818C9.80779 3.34893 9.338 2.6783 8.66345 2.14778C7.9068 1.55277 7.04978 1.25099 6.11651 1.25099Z" fill="black"/>
</svg>
