<svg width="165" height="48" viewBox="0 0 165 48" fill="none" xmlns="http://www.w3.org/2000/svg">
<path d="M15.7132 33.4284C24.3919 33.4284 31.4274 26.3929 31.4274 17.7141C31.4274 16.7306 31.3371 15.7681 31.1642 14.8345C30.2307 14.6617 29.2682 14.5713 28.2846 14.5713C19.6058 14.5713 12.5703 21.6068 12.5703 30.2856C12.5703 31.2692 12.6607 32.2317 12.8336 33.1652C13.7671 33.3381 14.7296 33.4284 15.7132 33.4284Z" fill="#DADADA"/>
<path opacity="0.8" fill-rule="evenodd" clip-rule="evenodd" d="M12.8347 33.1653C5.53118 31.8127 0 25.4095 0 17.7143C0 9.03553 7.03553 2 15.7143 2C23.4095 2 29.8128 7.53118 31.1653 14.8347C30.2318 14.6618 29.2693 14.5714 28.2857 14.5714C19.607 14.5714 12.5714 21.607 12.5714 30.2857C12.5714 31.2693 12.6618 32.2318 12.8347 33.1653Z" fill="#DADADA"/>
<path opacity="0.6" fill-rule="evenodd" clip-rule="evenodd" d="M15.7155 33.4284C24.3943 33.4284 31.4298 26.3928 31.4298 17.7141C31.4298 16.7305 31.3395 15.768 31.1666 14.8345C38.4701 16.187 44.0013 22.5903 44.0013 30.2855C44.0013 38.9643 36.9657 45.9998 28.287 45.9998C20.5918 45.9998 14.1885 40.4686 12.8359 33.1651C13.7695 33.338 14.732 33.4284 15.7155 33.4284Z" fill="#DADADA"/>
<path d="M67.5495 34.2401C72.9195 34.2401 76.7895 31.2101 77.1795 26.7101H72.6795C72.3195 28.8701 70.2495 30.3401 67.5495 30.3401C64.1595 30.3401 61.5495 28.0001 61.5495 23.5001C61.5495 19.0001 64.1595 16.6301 67.5495 16.6301C70.1895 16.6301 72.2595 18.1001 72.5595 20.2901H77.2695C76.6995 15.7601 72.8295 12.7601 67.5495 12.7601C61.9395 12.7601 57.0195 16.4201 57.0195 23.5001C57.0195 30.5801 61.8495 34.2401 67.5495 34.2401Z" fill="#DADADA"/>
<path d="M85.5308 18.6401C81.3908 18.6401 78.9308 21.0701 78.7508 24.1001H82.4708C82.5308 22.8401 83.4608 21.7001 85.2908 21.7001C87.0008 21.7001 87.9908 22.5701 87.9908 23.8301C87.9908 24.4601 87.6008 24.9401 86.8508 24.9401H84.3008C81.0008 24.9401 78.7808 26.7401 78.7808 29.7101C78.7808 32.2901 80.7908 34.2401 83.7308 34.2401C85.8008 34.2401 87.4808 33.3101 87.9908 31.9001V34.0001H92.1308V24.2801C92.1308 20.8601 89.3408 18.6401 85.5308 18.6401ZM84.7808 31.2101C83.6108 31.2101 82.7708 30.5201 82.7708 29.5301C82.7708 28.3601 83.6708 27.5801 84.9308 27.5801H87.9908V27.7901C87.9908 29.7101 86.8208 31.2101 84.7808 31.2101Z" fill="#DADADA"/>
<path d="M94.9332 40.1201H99.1032V32.6501C99.9132 33.6701 101.383 34.2401 103.093 34.2401C107.443 34.2401 110.383 31.1501 110.383 26.4401C110.383 21.7301 107.683 18.6401 103.453 18.6401C101.503 18.6401 100.003 19.3601 99.1032 20.5301V18.8801H94.9332V40.1201ZM102.583 30.6401C100.333 30.6401 98.8632 28.9601 98.8632 26.4401C98.8632 23.8901 100.333 22.2101 102.583 22.2101C104.773 22.2101 106.273 23.8901 106.273 26.4401C106.273 28.9601 104.773 30.6401 102.583 30.6401Z" fill="#DADADA"/>
<path d="M117.726 34.2401C121.266 34.2401 123.606 32.3501 123.606 29.4701C123.606 22.6301 115.326 26.1401 115.326 23.0501C115.326 22.0901 116.136 21.5801 117.306 21.5801C118.446 21.5801 119.616 22.2701 119.796 23.5601H123.426C123.276 20.5901 120.816 18.6401 117.186 18.6401C114.096 18.6401 111.786 20.5301 111.786 23.2001C111.786 29.5601 119.916 26.5301 119.916 29.6201C119.916 30.4601 119.016 31.0901 117.726 31.0901C116.166 31.0901 115.116 30.2501 114.966 28.9001H111.366C111.516 32.1701 114.036 34.2401 117.726 34.2401Z" fill="#DADADA"/>
<path d="M140.076 18.8801H135.876V27.1601C135.876 29.0801 134.586 30.5201 132.756 30.5201C131.046 30.5201 129.846 29.2001 129.846 27.3701V18.8801H125.676V28.3001C125.676 31.7501 127.896 34.2401 131.286 34.2401C133.356 34.2401 135.036 33.3401 135.876 31.9001V34.0001H140.076V18.8801Z" fill="#DADADA"/>
<path d="M143.076 34.0001H147.246V12.3101H143.076V34.0001Z" fill="#DADADA"/>
<path d="M160.351 28.8701C160.021 30.1601 158.911 30.8201 157.231 30.8201C155.131 30.8201 153.781 29.5001 153.481 27.3701H164.341C164.371 27.0401 164.401 26.5901 164.401 26.0201C164.401 22.5701 162.271 18.6401 156.931 18.6401C151.801 18.6401 149.461 22.5701 149.461 26.4101C149.461 30.2201 152.101 34.2401 157.231 34.2401C160.951 34.2401 163.831 32.1401 164.431 28.8701H160.351ZM156.931 21.7001C158.941 21.7001 160.111 23.0501 160.231 24.7301H153.541C153.901 22.6301 155.041 21.7001 156.931 21.7001Z" fill="#DADADA"/>
</svg>
