<svg width="166" height="48" viewBox="0 0 166 48" fill="none" xmlns="http://www.w3.org/2000/svg">
<circle cx="22" cy="24.25" r="20.5" stroke="#DADADA" stroke-width="3"/>
<path d="M30.131 32.3817C25.9917 36.5211 21.3021 39.2233 17.1258 40.2972C12.9117 41.3808 9.51504 40.7571 7.50363 38.7456C5.49222 36.7342 4.86844 33.3376 5.95206 29.1235C7.02598 24.9472 9.7282 20.2576 13.8676 16.1182C18.007 11.9788 22.6965 9.27662 26.8729 8.2027C31.087 7.11907 34.4836 7.74286 36.495 9.75427C38.5064 11.7657 39.1302 15.1623 38.0466 19.3764C36.9727 23.5528 34.2704 28.2423 30.131 32.3817Z" stroke="#DADADA" stroke-width="3"/>
<path d="M30.1324 16.1182C34.2718 20.2576 36.974 24.9471 38.0479 29.1235C39.1316 33.3376 38.5078 36.7342 36.4964 38.7456C34.485 40.757 31.0883 41.3808 26.8743 40.2972C22.6979 39.2233 18.0084 36.5211 13.869 32.3817C9.72957 28.2423 7.02735 23.5528 5.95343 19.3764C4.86981 15.1623 5.49359 11.7657 7.505 9.75426C9.51641 7.74285 12.913 7.11906 17.1271 8.20269C21.3035 9.27661 25.993 11.9788 30.1324 16.1182Z" stroke="#DADADA" stroke-width="3"/>
<path d="M62.8507 34.2401C67.5607 34.2401 70.7407 31.7801 70.7407 27.8501C70.7407 19.5401 59.7007 23.0801 59.7007 18.7001C59.7007 17.4701 60.8107 16.6301 62.5807 16.6301C64.5907 16.6301 65.8507 17.7101 66.0007 19.3601H70.2907C70.1707 15.3701 67.1107 12.7601 62.5807 12.7601C58.3207 12.7601 55.3207 15.2201 55.3207 18.7001C55.3207 26.9501 66.2107 23.8001 66.2107 27.9101C66.2107 29.5001 64.8607 30.3401 62.8507 30.3401C60.6307 30.3401 59.2207 28.9901 59.0407 26.8601H54.7207C54.9007 31.3301 58.0807 34.2401 62.8507 34.2401Z" fill="#DADADA"/>
<path d="M71.7609 40.1201H75.9309V32.6501C76.7409 33.6701 78.2109 34.2401 79.9209 34.2401C84.2709 34.2401 87.2109 31.1501 87.2109 26.4401C87.2109 21.7301 84.5109 18.6401 80.2809 18.6401C78.3309 18.6401 76.8309 19.3601 75.9309 20.5301V18.8801H71.7609V40.1201ZM79.4109 30.6401C77.1609 30.6401 75.6909 28.9601 75.6909 26.4401C75.6909 23.8901 77.1609 22.2101 79.4109 22.2101C81.6009 22.2101 83.1009 23.8901 83.1009 26.4401C83.1009 28.9601 81.6009 30.6401 79.4109 30.6401Z" fill="#DADADA"/>
<path d="M88.2199 34.0001H92.3899V25.7201C92.3899 23.7701 93.6799 22.3601 95.5099 22.3601C97.2499 22.3601 98.4499 23.6801 98.4499 25.5101V34.0001H102.62V24.5801C102.62 21.1001 100.4 18.6401 97.0099 18.6401C94.9099 18.6401 93.2599 19.5101 92.3899 20.9801V12.3101H88.2199V34.0001Z" fill="#DADADA"/>
<path d="M114.285 28.8701C113.955 30.1601 112.845 30.8201 111.165 30.8201C109.065 30.8201 107.715 29.5001 107.415 27.3701H118.275C118.305 27.0401 118.335 26.5901 118.335 26.0201C118.335 22.5701 116.205 18.6401 110.865 18.6401C105.735 18.6401 103.395 22.5701 103.395 26.4101C103.395 30.2201 106.035 34.2401 111.165 34.2401C114.885 34.2401 117.765 32.1401 118.365 28.8701H114.285ZM110.865 21.7001C112.875 21.7001 114.045 23.0501 114.165 24.7301H107.475C107.835 22.6301 108.975 21.7001 110.865 21.7001Z" fill="#DADADA"/>
<path d="M129.272 22.3601V18.8801H127.12C125.29 18.8801 124.15 19.5101 123.34 21.4001V18.8801H119.14V34.0001H123.34V26.6501C123.34 24.0701 124.27 22.3601 126.34 22.3601H129.272Z" fill="#DADADA"/>
<path d="M143.672 18.8801H139.472V27.1601C139.472 29.0801 138.182 30.5201 136.352 30.5201C134.642 30.5201 133.442 29.2001 133.442 27.3701V18.8801H129.272V28.3001C129.272 31.7501 131.492 34.2401 134.882 34.2401C136.952 34.2401 138.632 33.3401 139.472 31.9001V34.0001H143.672V18.8801Z" fill="#DADADA"/>
<path d="M145.472 34.0001H149.642V12.3101H145.472V34.0001Z" fill="#DADADA"/>
<path d="M161.547 28.8701C161.217 30.1601 160.107 30.8201 158.427 30.8201C156.327 30.8201 154.977 29.5001 154.677 27.3701H165.537C165.567 27.0401 165.597 26.5901 165.597 26.0201C165.597 22.5701 163.467 18.6401 158.127 18.6401C152.997 18.6401 150.657 22.5701 150.657 26.4101C150.657 30.2201 153.297 34.2401 158.427 34.2401C162.147 34.2401 165.027 32.1401 165.627 28.8701H161.547ZM158.127 21.7001C160.137 21.7001 161.307 23.0501 161.427 24.7301H154.737C155.097 22.6301 156.237 21.7001 158.127 21.7001Z" fill="#DADADA"/>
</svg>
