<svg width="160" height="48" viewBox="0 0 160 48" fill="none" xmlns="http://www.w3.org/2000/svg">
<path opacity="0.8" d="M22 2C9.84969 2 0 11.8497 0 24C0 36.1503 9.84969 46 22 46C32.901 46 41.9502 38.0716 43.6958 27.6667H43.5379C41.9098 33.9925 36.1674 38.6667 29.3333 38.6667C21.2332 38.6667 14.6667 32.1002 14.6667 24C14.6667 15.8998 21.2332 9.33333 29.3333 9.33333C36.1674 9.33333 41.9098 14.0075 43.5379 20.3333H43.6958C41.9502 9.92838 32.901 2 22 2Z" fill="#DADADA"/>
<path d="M0 24C0 11.8497 9.84974 2 22 2C32.901 2 41.9502 9.92838 43.6958 20.3333H28.8713C27.2431 14.0075 21.5007 9.33333 14.6667 9.33333C6.56649 9.33333 0 15.8998 0 24Z" fill="#DADADA"/>
<path d="M0 24C0 36.1503 9.84974 46 22 46C32.901 46 41.9502 38.0716 43.6958 27.6667H28.8713C27.2431 33.9925 21.5007 38.6667 14.6667 38.6667C6.56649 38.6667 0 32.1002 0 24Z" fill="#DADADA"/>
<path d="M75.4396 20.5071C74.8132 15.9829 71.3331 13.3579 66.8189 13.3579C61.4993 13.3579 57.4922 17.2358 57.4922 23.8181C57.4922 30.3906 61.4496 34.2784 66.8189 34.2784C71.6612 34.2784 74.8729 31.1463 75.4396 27.2585L71.7209 27.2386C71.2535 29.625 69.3047 30.9673 66.8686 30.9673C63.5675 30.9673 61.201 28.4914 61.201 23.8181C61.201 19.2244 63.5476 16.669 66.8785 16.669C69.3544 16.669 71.2933 18.071 71.7209 20.5071H75.4396Z" fill="#DADADA"/>
<path d="M83.0536 34.3082C85.4499 34.3082 86.8817 33.1846 87.538 31.9019H87.6573V34H91.1175V23.7784C91.1175 19.7414 87.8263 18.5284 84.913 18.5284C81.7013 18.5284 79.2354 19.9602 78.44 22.7443L81.8008 23.2215C82.1587 22.1775 83.1729 21.2826 84.9329 21.2826C86.6033 21.2826 87.5181 22.1377 87.5181 23.6392V23.6988C87.5181 24.7329 86.4343 24.7826 83.7397 25.071C80.7766 25.3892 77.9428 26.2741 77.9428 29.7144C77.9428 32.7173 80.1403 34.3082 83.0536 34.3082ZM83.9883 31.6633C82.4869 31.6633 81.413 30.9772 81.413 29.6548C81.413 28.2727 82.6161 27.696 84.2269 27.4673C85.1715 27.338 87.0607 27.0994 87.528 26.7215V28.5213C87.528 30.2215 86.1559 31.6633 83.9883 31.6633Z" fill="#DADADA"/>
<path d="M102.363 18.7272H99.3505V15.0681H95.7511V18.7272H93.5834V21.5113H95.7511V30.0028C95.7312 32.8764 97.8192 34.2883 100.524 34.2088C101.548 34.1789 102.254 33.9801 102.642 33.8508L102.035 31.0369C101.836 31.0866 101.429 31.1761 100.981 31.1761C100.076 31.1761 99.3505 30.8579 99.3505 29.4062V21.5113H102.363V18.7272Z" fill="#DADADA"/>
<path d="M109.768 34.3082C112.165 34.3082 113.597 33.1846 114.253 31.9019H114.372V34H117.832V23.7784C117.832 19.7414 114.541 18.5284 111.628 18.5284C108.416 18.5284 105.95 19.9602 105.155 22.7443L108.516 23.2215C108.874 22.1775 109.888 21.2826 111.648 21.2826C113.318 21.2826 114.233 22.1377 114.233 23.6392V23.6988C114.233 24.7329 113.149 24.7826 110.455 25.071C107.491 25.3892 104.658 26.2741 104.658 29.7144C104.658 32.7173 106.855 34.3082 109.768 34.3082ZM110.703 31.6633C109.202 31.6633 108.128 30.9772 108.128 29.6548C108.128 28.2727 109.331 27.696 110.942 27.4673C111.886 27.338 113.776 27.0994 114.243 26.7215V28.5213C114.243 30.2215 112.871 31.6633 110.703 31.6633Z" fill="#DADADA"/>
<path d="M125.051 13.6363H121.452V34H125.051V13.6363Z" fill="#DADADA"/>
<path d="M135.414 34.2983C139.889 34.2983 142.733 31.1463 142.733 26.4233C142.733 21.6903 139.889 18.5284 135.414 18.5284C130.94 18.5284 128.096 21.6903 128.096 26.4233C128.096 31.1463 130.94 34.2983 135.414 34.2983ZM135.434 31.4147C132.958 31.4147 131.745 29.2073 131.745 26.4133C131.745 23.6193 132.958 21.3821 135.434 21.3821C137.87 21.3821 139.083 23.6193 139.083 26.4133C139.083 29.2073 137.87 31.4147 135.434 31.4147Z" fill="#DADADA"/>
<path d="M152.43 40.0454C156.556 40.0454 159.599 38.1562 159.599 34.2485V18.7272H156.049V21.2528H155.85C155.303 20.1491 154.16 18.5284 151.465 18.5284C147.935 18.5284 145.161 21.2926 145.161 26.3139C145.161 31.2954 147.935 33.7812 151.455 33.7812C154.07 33.7812 155.293 32.3792 155.85 31.2556H156.029V34.1491C156.029 36.3963 154.538 37.321 152.489 37.321C150.322 37.321 149.367 36.2968 148.93 35.4019L145.688 36.1875C146.344 38.3252 148.542 40.0454 152.43 40.0454ZM152.459 30.9573C150.083 30.9573 148.83 29.1079 148.83 26.294C148.83 23.5198 150.063 21.4815 152.459 21.4815C154.776 21.4815 156.049 23.4005 156.049 26.294C156.049 29.2073 154.756 30.9573 152.459 30.9573Z" fill="#DADADA"/>
</svg>
