<svg width="65" height="35" viewBox="0 0 65 35" fill="none" xmlns="http://www.w3.org/2000/svg">
<path d="M55.6352 34.9999C54.5395 35.0007 53.4682 34.6765 52.5568 34.0684C51.6454 33.4602 50.9348 32.5954 50.515 31.5834C50.0951 30.5713 49.9848 29.4575 50.1981 28.3828C50.4114 27.308 50.9386 26.3207 51.7131 25.5456C52.4876 24.7706 53.4745 24.2427 54.5491 24.0286C55.6237 23.8146 56.7376 23.924 57.7499 24.3431C58.7623 24.7622 59.6276 25.4722 60.2364 26.3832C60.8452 27.2941 61.1702 28.3652 61.1702 29.4609C61.1695 30.929 60.5862 32.3368 59.5485 33.3753C58.5108 34.4138 57.1033 34.9981 55.6352 34.9999ZM55.6352 25.9424C54.9392 25.9416 54.2585 26.1473 53.6794 26.5334C53.1002 26.9196 52.6486 27.4688 52.3817 28.1116C52.1148 28.7545 52.0445 29.462 52.1798 30.1448C52.3151 30.8276 52.6499 31.4549 53.1418 31.9474C53.6337 32.4398 54.2607 32.7753 54.9433 32.9114C55.6259 33.0475 56.3335 32.9781 56.9767 32.7119C57.6198 32.4457 58.1696 31.9947 58.5564 31.416C58.9432 30.8374 59.1496 30.1569 59.1496 29.4609C59.1493 28.5285 58.779 27.6344 58.1201 26.9748C57.4613 26.3151 56.5676 25.9439 55.6352 25.9424ZM26.4463 34.9999C25.3506 35.001 24.2791 34.677 23.3676 34.069C22.456 33.461 21.7452 32.5963 21.3251 31.5843C20.9051 30.5723 20.7946 29.4584 21.0077 28.3836C21.2208 27.3088 21.7479 26.3213 22.5224 25.5461C23.2968 24.7709 24.2837 24.2429 25.3583 24.0287C26.433 23.8145 27.5469 23.9239 28.5594 24.343C29.5718 24.7621 30.4372 25.472 31.0461 26.383C31.655 27.294 31.9799 28.3651 31.9799 29.4609C31.9789 30.9287 31.3957 32.3361 30.3583 33.3745C29.321 34.4128 27.9141 34.9974 26.4463 34.9999ZM26.4463 25.9424C25.7502 25.9414 25.0694 26.1468 24.4901 26.5328C23.9108 26.9187 23.459 27.4679 23.1919 28.1107C22.9247 28.7535 22.8543 29.4611 22.9894 30.144C23.1246 30.8269 23.4593 31.4543 23.9511 31.9469C24.443 32.4395 25.0699 32.7751 25.7525 32.9113C26.4352 33.0475 27.1429 32.9782 27.7861 32.712C28.4294 32.4459 28.9792 31.9949 29.3661 31.4162C29.7529 30.8375 29.9594 30.157 29.9594 29.4609C29.9587 28.5289 29.5885 27.6352 28.93 26.9756C28.2715 26.3161 27.3783 25.9446 26.4463 25.9424Z" fill="white"/>
<path d="M62.9227 30.4714H60.1599C59.892 30.4714 59.635 30.3649 59.4455 30.1755C59.2561 29.986 59.1496 29.729 59.1496 29.4611C59.1496 29.1931 59.2561 28.9362 59.4455 28.7467C59.635 28.5572 59.892 28.4508 60.1599 28.4508H62.6371V23.0937C62.6365 22.3694 62.451 21.6572 62.0983 21.0246L56.6293 11.2195C56.5826 11.1359 56.5144 11.0662 56.4318 11.0176C56.3491 10.9691 56.2551 10.9435 56.1592 10.9434H48.7061V28.4549H51.1119C51.3798 28.4549 51.6368 28.5613 51.8263 28.7508C52.0157 28.9402 52.1222 29.1972 52.1222 29.4651C52.1222 29.7331 52.0157 29.99 51.8263 30.1795C51.6368 30.369 51.3798 30.4754 51.1119 30.4754H47.6958C47.4279 30.4754 47.1709 30.369 46.9814 30.1795C46.792 29.99 46.6855 29.7331 46.6855 29.4651V9.93313C46.6855 9.66519 46.792 9.40822 46.9814 9.21875C47.1709 9.02929 47.4279 8.92285 47.6958 8.92285H56.1592C56.615 8.92263 57.0626 9.04412 57.4557 9.27478C57.8488 9.50543 58.1732 9.83688 58.3953 10.2349L63.8629 20.0413C64.3827 20.9747 64.6558 22.0253 64.6563 23.0937V28.7377C64.6556 29.1973 64.4727 29.6378 64.1478 29.9628C63.8228 30.2878 63.3822 30.4706 62.9227 30.4714ZM21.9216 30.4714H12.2351C11.9672 30.4714 11.7102 30.3649 11.5207 30.1755C11.3313 29.986 11.2248 29.729 11.2248 29.4611V21.6914C11.2248 21.4235 11.3313 21.1665 11.5207 20.977C11.7102 20.7876 11.9672 20.6811 12.2351 20.6811C12.5031 20.6811 12.76 20.7876 12.9495 20.977C13.139 21.1665 13.2454 21.4235 13.2454 21.6914V28.4508H21.9216C22.1896 28.4508 22.4465 28.5572 22.636 28.7467C22.8255 28.9362 22.9319 29.1931 22.9319 29.4611C22.9319 29.729 22.8255 29.986 22.636 30.1755C22.4465 30.3649 22.1896 30.4714 21.9216 30.4714ZM12.2351 18.1069C11.9672 18.1069 11.7102 18.0005 11.5207 17.811C11.3313 17.6216 11.2248 17.3646 11.2248 17.0967V10.313C11.2248 10.045 11.3313 9.78808 11.5207 9.59862C11.7102 9.40915 11.9672 9.30272 12.2351 9.30272C12.5031 9.30272 12.76 9.40915 12.9495 9.59862C13.139 9.78808 13.2454 10.045 13.2454 10.313V17.1007C13.2443 17.3679 13.1374 17.6239 12.9481 17.8125C12.7587 18.001 12.5024 18.1069 12.2351 18.1069Z" fill="white"/>
<path d="M47.6958 30.4713H30.9697C30.7017 30.4713 30.4448 30.3648 30.2553 30.1754C30.0658 29.9859 29.9594 29.7289 29.9594 29.461C29.9594 29.193 30.0658 28.9361 30.2553 28.7466C30.4448 28.5572 30.7017 28.4507 30.9697 28.4507H46.6855V2.02055H13.2454V6.18154C13.2454 6.44948 13.139 6.70645 12.9495 6.89591C12.76 7.08538 12.5031 7.19182 12.2351 7.19182C11.9672 7.19182 11.7102 7.08538 11.5207 6.89591C11.3313 6.70645 11.2248 6.44948 11.2248 6.18154V1.83466C11.2256 1.34806 11.4193 0.881621 11.7635 0.537671C12.1077 0.193721 12.5743 0.00035622 13.0608 0H46.8714C47.3578 0.000712622 47.824 0.194235 48.1679 0.538147C48.5118 0.882058 48.7054 1.3483 48.7061 1.83466V29.461C48.7061 29.7289 48.5996 29.9859 48.4102 30.1754C48.2207 30.3648 47.9637 30.4713 47.6958 30.4713ZM16.2291 22.7016H3.40665C3.13871 22.7016 2.88174 22.5951 2.69228 22.4057C2.50282 22.2162 2.39638 21.9592 2.39638 21.6913C2.39638 21.4234 2.50282 21.1664 2.69228 20.9769C2.88174 20.7875 3.13871 20.681 3.40665 20.681H16.2291C16.497 20.681 16.754 20.7875 16.9434 20.9769C17.1329 21.1664 17.2394 21.4234 17.2394 21.6913C17.2394 21.9592 17.1329 22.2162 16.9434 22.4057C16.754 22.5951 16.497 22.7016 16.2291 22.7016Z" fill="white"/>
<path d="M26.4463 18.107H8.55367C8.28573 18.107 8.02876 18.0005 7.8393 17.8111C7.64983 17.6216 7.54339 17.3646 7.54339 17.0967C7.54339 16.8287 7.64983 16.5718 7.8393 16.3823C8.02876 16.1928 8.28573 16.0864 8.55367 16.0864H26.4463C26.7143 16.0864 26.9712 16.1928 27.1607 16.3823C27.3502 16.5718 27.4566 16.8287 27.4566 17.0967C27.4566 17.3646 27.3502 17.6216 27.1607 17.8111C26.9712 18.0005 26.7143 18.107 26.4463 18.107ZM7.99734 12.7727H1.01028C0.742334 12.7727 0.485366 12.6663 0.295903 12.4768C0.106439 12.2873 0 12.0304 0 11.7624C0 11.4945 0.106439 11.2375 0.295903 11.0481C0.485366 10.8586 0.742334 10.7522 1.01028 10.7522H7.99734C8.26529 10.7522 8.52225 10.8586 8.71172 11.0481C8.90118 11.2375 9.00762 11.4945 9.00762 11.7624C9.00762 12.0304 8.90118 12.2873 8.71172 12.4768C8.52225 12.6663 8.26529 12.7727 7.99734 12.7727ZM19.2006 7.19194H6.86718C6.59924 7.19194 6.34227 7.0855 6.15281 6.89604C5.96335 6.70657 5.85691 6.4496 5.85691 6.18166C5.85691 5.91372 5.96335 5.65675 6.15281 5.46729C6.34227 5.27783 6.59924 5.17139 6.86718 5.17139H19.2006C19.4686 5.17139 19.7255 5.27783 19.915 5.46729C20.1045 5.65675 20.2109 5.91372 20.2109 6.18166C20.2109 6.4496 20.1045 6.70657 19.915 6.89604C19.7255 7.0855 19.4686 7.19194 19.2006 7.19194Z" fill="white"/>
</svg>
