<svg width="36" height="35" viewBox="0 0 36 35" fill="none" xmlns="http://www.w3.org/2000/svg">
<path d="M34.2831 12.0315L32.3273 12.6743C32.8373 14.2263 33.096 15.8499 33.096 17.5C33.096 26.0143 26.1691 32.9412 17.6548 32.9412C13.6989 32.9412 9.98814 31.4644 7.15328 28.8235H10.1058V26.7647H3.58616V32.9412H5.64498V30.2237C6.88604 31.3939 8.29524 32.3867 9.81293 33.1487C12.2598 34.3771 14.8982 35 17.6548 35C22.3292 35 26.7238 33.1797 30.0292 29.8744C33.3346 26.569 35.1548 22.1744 35.1548 17.5C35.1548 15.6311 34.8615 13.7912 34.2831 12.0315ZM17.6548 2.05882C21.5851 2.05882 25.3126 3.5396 28.1525 6.17647H25.2038V8.23529H31.7234V2.05882H29.6646V4.77249C26.4326 1.71809 22.1616 0 17.6548 0C12.9804 0 8.58574 1.82027 5.28043 5.12565C1.97513 8.43102 0.154785 12.8256 0.154785 17.5C0.154785 19.5006 0.489893 21.4632 1.15084 23.3332L3.09197 22.6472C2.50919 20.9981 2.21361 19.2663 2.21361 17.5C2.21361 8.98574 9.14052 2.05882 17.6548 2.05882Z" fill="white"/>
<path d="M20.743 14.0688H22.8019C22.8019 11.653 21.009 9.64878 18.6842 9.3147V7.20605H16.6254V9.3147C14.3006 9.64885 12.5078 11.653 12.5078 14.0688C12.5067 14.9847 12.8124 15.8746 13.376 16.5965C13.9397 17.3184 14.7289 17.8308 15.6177 18.0519L16.6254 18.3039V23.5898C15.4427 23.2842 14.5666 22.2083 14.5666 20.9315H12.5078C12.5078 23.3474 14.3006 25.3516 16.6254 25.6856V27.7943H18.6842V25.6856C21.009 25.3515 22.8019 23.3473 22.8019 20.9315C22.8029 20.0156 22.4973 19.1258 21.9336 18.4038C21.3699 17.6819 20.5808 17.1695 19.6919 16.9484L18.6842 16.6965V11.4106C19.8669 11.7161 20.743 12.7921 20.743 14.0688ZM19.1925 18.9457C19.6357 19.056 20.0291 19.3114 20.3102 19.6713C20.5912 20.0312 20.7436 20.4749 20.743 20.9315C20.743 22.2083 19.8669 23.2842 18.6842 23.5898V18.8186L19.1925 18.9457ZM16.1171 16.0546C15.6739 15.9444 15.2805 15.6889 14.9995 15.329C14.7184 14.9691 14.566 14.5254 14.5666 14.0688C14.5666 12.7921 15.4427 11.7161 16.6254 11.4106V16.1817L16.1171 16.0546Z" fill="white"/>
</svg>
