<svg width="17" height="17" viewBox="0 0 17 17" fill="none" xmlns="http://www.w3.org/2000/svg">
<g clip-path="url(#clip0_202_406)">
<path d="M15.0078 0H1.99219C0.893695 0 0 0.893695 0 1.99219V15.0078C0 16.1063 0.893695 17 1.99219 17H15.0078C16.1063 17 17 16.1063 17 15.0078V1.99219C17 0.893695 16.1063 0 15.0078 0ZM15.6719 15.0078C15.6719 15.374 15.374 15.6719 15.0078 15.6719H11.2227V10.2598H13.2743L13.6133 8.20117H11.2227V6.77344C11.2227 6.20981 11.6551 5.77734 12.2188 5.77734H13.5801V3.71875H12.2188C10.5279 3.71875 9.16479 5.08838 9.16479 6.77921V8.20117H7.17188V10.2598H9.16479V15.6719H1.99219C1.62602 15.6719 1.32812 15.374 1.32812 15.0078V1.99219C1.32812 1.62602 1.62602 1.32812 1.99219 1.32812H15.0078C15.374 1.32812 15.6719 1.62602 15.6719 1.99219V15.0078Z" fill="white"/>
</g>
<defs>
<clipPath id="clip0_202_406">
<rect width="17" height="17" fill="white"/>
</clipPath>
</defs>
</svg>
