<svg width="46" height="35" viewBox="0 0 46 35" fill="none" xmlns="http://www.w3.org/2000/svg">
<path d="M24.2021 27.9024H4.05736C3.41178 27.9018 2.79283 27.645 2.33634 27.1885C1.87984 26.732 1.6231 26.1131 1.62246 25.4675V9.78507H39.0697V13.4236C39.0697 13.6389 39.1552 13.8453 39.3074 13.9975C39.4596 14.1498 39.6661 14.2353 39.8813 14.2353C40.0966 14.2353 40.303 14.1498 40.4552 13.9975C40.6074 13.8453 40.693 13.6389 40.693 13.4236V4.05736C40.6914 2.9816 40.2634 1.95035 39.5026 1.18975C38.7419 0.429147 37.7105 0.00128831 36.6348 0H4.05818C2.98228 0.00128876 1.95081 0.429259 1.19004 1.19004C0.429259 1.95081 0.00128876 2.98228 0 4.05818V25.4675C0.00128876 26.5434 0.429259 27.5749 1.19004 28.3356C1.95081 29.0964 2.98228 29.5244 4.05818 29.5257H24.2021C24.4174 29.5257 24.6238 29.4402 24.7761 29.2879C24.9283 29.1357 25.0138 28.9293 25.0138 28.714C25.0138 28.4988 24.9283 28.2923 24.7761 28.1401C24.6238 27.9879 24.4174 27.9024 24.2021 27.9024ZM1.62246 4.05899C1.6231 3.41341 1.87984 2.79446 2.33634 2.33796C2.79283 1.88147 3.41178 1.62473 4.05736 1.62408H36.6348C37.2804 1.62473 37.8993 1.88147 38.3558 2.33796C38.8123 2.79446 39.069 3.41341 39.0697 4.05899V5.26832H1.62327L1.62246 4.05899ZM1.62246 6.89159H39.0697V8.16261H1.62327L1.62246 6.89159Z" fill="white"/>
<path d="M5.87621 22.6301C5.66095 22.6301 5.45451 22.7157 5.3023 22.8679C5.15009 23.0201 5.06458 23.2265 5.06458 23.4418C5.06458 23.657 5.15009 23.8635 5.3023 24.0157C5.45451 24.1679 5.66095 24.2534 5.87621 24.2534H11.6632C11.8784 24.2534 12.0849 24.1679 12.2371 24.0157C12.3893 23.8635 12.4748 23.657 12.4748 23.4418C12.4748 23.2265 12.3893 23.0201 12.2371 22.8679C12.0849 22.7157 11.8784 22.6301 11.6632 22.6301H5.87621ZM45.1155 18.6734C45.0181 18.2092 44.9694 17.6021 44.4313 17.447L35.6007 14.6055C35.4389 14.554 35.265 14.554 35.1032 14.6055L26.2742 17.447C25.7385 17.6045 25.6898 18.2067 25.5892 18.6726C24.2898 25.1714 26.8245 30.9916 32.0458 33.4996L35.0009 34.9199C35.1106 34.9727 35.2307 35.0001 35.3524 35.0001C35.474 35.0001 35.5942 34.9727 35.7038 34.9199L38.6598 33.4996C43.881 30.9916 46.415 25.1722 45.1155 18.6734ZM37.9569 32.037L35.3524 33.2869L32.7478 32.037C28.1751 29.8537 25.9926 24.6073 27.21 18.8512L35.3524 16.2304L43.4955 18.8512C44.7105 24.6089 42.5288 29.8545 37.9569 32.037Z" fill="white"/>
<path d="M39.2791 22.0065L34.979 25.8374L33.0839 23.9431C32.9308 23.7952 32.7258 23.7134 32.513 23.7153C32.3001 23.7171 32.0966 23.8025 31.9461 23.953C31.7956 24.1034 31.7103 24.307 31.7084 24.5198C31.7066 24.7326 31.7884 24.9377 31.9362 25.0907L34.3727 27.5273C34.5192 27.6737 34.716 27.7587 34.9231 27.7647C35.1301 27.7707 35.3316 27.6974 35.4863 27.5597L40.3585 23.2183C40.5137 23.0737 40.606 22.8741 40.6159 22.6622C40.6257 22.4504 40.5522 22.2431 40.4111 22.0847C40.2701 21.9264 40.0726 21.8295 39.861 21.8149C39.6495 21.8003 39.4406 21.8691 39.2791 22.0065Z" fill="white"/>
</svg>
