<svg width="100" height="15" viewBox="0 0 100 15" fill="none" xmlns="http://www.w3.org/2000/svg">
<path d="M15.9581 5.66765C15.8528 5.3507 15.5654 5.12631 15.2268 5.09633L10.6081 4.68612L8.78274 0.505394C8.64797 0.198241 8.34132 0 8.00001 0C7.6587 0 7.35193 0.198241 7.21802 0.505394L5.39267 4.68612L0.773215 5.09633C0.434587 5.12691 0.147839 5.3513 0.0418804 5.66765C-0.0634679 5.98459 0.0338237 6.33223 0.289931 6.55197L3.78132 9.54695L2.75188 13.9825C2.67656 14.3087 2.80596 14.6459 3.08258 14.8415C3.23126 14.9472 3.40595 15 3.58124 15C3.73188 15 3.88264 14.9608 4.01728 14.882L8.00001 12.5523L11.982 14.882C12.2741 15.0528 12.6414 15.0371 12.9174 14.8415C13.1941 14.6459 13.3235 14.3087 13.2481 13.9825L12.2187 9.54695L15.7101 6.55197C15.9661 6.33223 16.0635 5.98531 15.9581 5.66765Z" fill="url(#paint0_linear_199_256)"/>
<path d="M36.9581 5.66765C36.8528 5.3507 36.5654 5.12631 36.2268 5.09633L31.6081 4.68612L29.7827 0.505394C29.648 0.198241 29.3413 0 29 0C28.6587 0 28.3519 0.198241 28.218 0.505394L26.3927 4.68612L21.7732 5.09633C21.4346 5.12691 21.1478 5.3513 21.0419 5.66765C20.9365 5.98459 21.0338 6.33223 21.2899 6.55197L24.7813 9.54695L23.7519 13.9825C23.6766 14.3087 23.806 14.6459 24.0826 14.8415C24.2313 14.9472 24.4059 15 24.5812 15C24.7319 15 24.8826 14.9608 25.0173 14.882L29 12.5523L32.982 14.882C33.2741 15.0528 33.6414 15.0371 33.9174 14.8415C34.1941 14.6459 34.3235 14.3087 34.2481 13.9825L33.2187 9.54695L36.7101 6.55197C36.9661 6.33223 37.0635 5.98531 36.9581 5.66765Z" fill="url(#paint1_linear_199_256)"/>
<path d="M57.9581 5.66765C57.8528 5.3507 57.5654 5.12631 57.2268 5.09633L52.6081 4.68612L50.7827 0.505394C50.648 0.198241 50.3413 0 50 0C49.6587 0 49.3519 0.198241 49.218 0.505394L47.3927 4.68612L42.7732 5.09633C42.4346 5.12691 42.1478 5.3513 42.0419 5.66765C41.9365 5.98459 42.0338 6.33223 42.2899 6.55197L45.7813 9.54695L44.7519 13.9825C44.6766 14.3087 44.806 14.6459 45.0826 14.8415C45.2313 14.9472 45.4059 15 45.5812 15C45.7319 15 45.8826 14.9608 46.0173 14.882L50 12.5523L53.982 14.882C54.2741 15.0528 54.6414 15.0371 54.9174 14.8415C55.1941 14.6459 55.3235 14.3087 55.2481 13.9825L54.2187 9.54695L57.7101 6.55197C57.9661 6.33223 58.0635 5.98531 57.9581 5.66765Z" fill="url(#paint2_linear_199_256)"/>
<path d="M78.9581 5.66765C78.8528 5.3507 78.5654 5.12631 78.2268 5.09633L73.6081 4.68612L71.7827 0.505394C71.648 0.198241 71.3413 0 71 0C70.6587 0 70.3519 0.198241 70.218 0.505394L68.3927 4.68612L63.7732 5.09633C63.4346 5.12691 63.1478 5.3513 63.0419 5.66765C62.9365 5.98459 63.0338 6.33223 63.2899 6.55197L66.7813 9.54695L65.7519 13.9825C65.6766 14.3087 65.806 14.6459 66.0826 14.8415C66.2313 14.9472 66.4059 15 66.5812 15C66.7319 15 66.8826 14.9608 67.0173 14.882L71 12.5523L74.982 14.882C75.2741 15.0528 75.6414 15.0371 75.9174 14.8415C76.1941 14.6459 76.3235 14.3087 76.2481 13.9825L75.2187 9.54695L78.7101 6.55197C78.9661 6.33223 79.0635 5.98531 78.9581 5.66765Z" fill="url(#paint3_linear_199_256)"/>
<path d="M99.1826 5.59437L99.1827 5.59439C99.3275 5.6072 99.4425 5.70182 99.4836 5.82504C99.5243 5.94785 99.4883 6.08333 99.3845 6.17247C99.3845 6.1725 99.3845 6.17254 99.3844 6.17257L95.8932 9.16745L95.6631 9.36477L95.7316 9.65999L96.761 14.095C96.761 14.0951 96.761 14.0952 96.761 14.0952C96.79 14.2212 96.7416 14.3535 96.6288 14.4333L96.6283 14.4336C96.513 14.5153 96.3576 14.5223 96.2345 14.4504C96.2344 14.4504 96.2344 14.4504 96.2343 14.4504L92.2525 12.1208L92 11.9731L91.7476 12.1207L87.7648 14.4504L87.7647 14.4505C87.7085 14.4834 87.6453 14.5 87.5812 14.5C87.5063 14.5 87.4335 14.4775 87.3723 14.434L87.3713 14.4333C87.2585 14.3535 87.21 14.2212 87.239 14.0952C87.239 14.0952 87.239 14.0951 87.2391 14.095L88.2684 9.65999L88.3369 9.36477L88.1069 9.16745L84.6155 6.1725C84.6155 6.17249 84.6155 6.17248 84.6155 6.17247C84.5119 6.08356 84.4759 5.94781 84.5162 5.82591C84.5579 5.70218 84.673 5.6075 84.818 5.59433C84.818 5.59432 84.8181 5.59432 84.8182 5.59431L89.4369 5.18416L89.7323 5.15793L89.8509 4.88619L91.6762 0.705461L91.6763 0.705219C91.7289 0.584795 91.8527 0.5 92 0.5C92.1469 0.5 92.2714 0.584539 92.3248 0.706109C92.3248 0.706169 92.3248 0.706229 92.3249 0.70629L94.1499 4.88619L94.2685 5.15793L94.5638 5.18416L99.1826 5.59437Z" stroke="url(#paint4_linear_199_256)"/>
<defs>
<linearGradient id="paint0_linear_199_256" x1="8" y1="0" x2="8" y2="15" gradientUnits="userSpaceOnUse">
<stop offset="0.0985536" stop-color="#FFA364"/>
<stop offset="0.788912" stop-color="#FFC112"/>
</linearGradient>
<linearGradient id="paint1_linear_199_256" x1="29" y1="0" x2="29" y2="15" gradientUnits="userSpaceOnUse">
<stop offset="0.0985536" stop-color="#FFA364"/>
<stop offset="0.788912" stop-color="#FFC112"/>
</linearGradient>
<linearGradient id="paint2_linear_199_256" x1="50" y1="0" x2="50" y2="15" gradientUnits="userSpaceOnUse">
<stop offset="0.0985536" stop-color="#FFA364"/>
<stop offset="0.788912" stop-color="#FFC112"/>
</linearGradient>
<linearGradient id="paint3_linear_199_256" x1="71" y1="0" x2="71" y2="15" gradientUnits="userSpaceOnUse">
<stop offset="0.0985536" stop-color="#FFA364"/>
<stop offset="0.788912" stop-color="#FFC112"/>
</linearGradient>
<linearGradient id="paint4_linear_199_256" x1="92" y1="0" x2="92" y2="15" gradientUnits="userSpaceOnUse">
<stop offset="0.0985536" stop-color="#FFA364"/>
<stop offset="0.788912" stop-color="#FFC112"/>
</linearGradient>
</defs>
</svg>
