<svg width="16" height="16" viewBox="0 0 16 16" fill="none" xmlns="http://www.w3.org/2000/svg">
<path d="M15.7569 14.5735L11.8126 10.6129C12.8267 9.44901 13.3824 7.98455 13.3824 6.45999C13.3824 2.89801 10.3807 0 6.69125 0C3.00182 0 0.00012207 2.89801 0.00012207 6.45999C0.00012207 10.022 3.00182 12.92 6.69125 12.92C8.07631 12.92 9.39621 12.5167 10.5247 11.751L14.4989 15.7416C14.665 15.9082 14.8885 16 15.1279 16C15.3545 16 15.5695 15.9166 15.7327 15.7649C16.0795 15.4428 16.0905 14.9085 15.7569 14.5735ZM6.69125 1.68522C9.41832 1.68522 11.6369 3.82713 11.6369 6.45999C11.6369 9.09286 9.41832 11.2348 6.69125 11.2348C3.96418 11.2348 1.74563 9.09286 1.74563 6.45999C1.74563 3.82713 3.96418 1.68522 6.69125 1.68522Z" fill="black"/>
</svg>
