<svg width="36" height="35" viewBox="0 0 36 35" fill="none" xmlns="http://www.w3.org/2000/svg">
<path d="M6.97341 6.57576C9.89139 3.65777 13.771 2.05078 17.8976 2.05078C21.0534 2.05078 24.1044 3.01075 26.6703 4.7829L24.6894 4.98606L24.8987 7.02611L30.2307 6.47924L29.6838 1.14721L27.6437 1.35646L27.821 3.08533C24.9173 1.08397 21.4666 0 17.8976 0C13.2232 0 8.82861 1.82034 5.5233 5.12565C2.21799 8.43097 0.397644 12.8256 0.397644 17.5C0.397644 20.9995 1.42741 24.3773 3.37558 27.2682L5.07623 26.1222C5.05264 26.0871 5.02974 26.0518 5.00643 26.0166C3.33286 23.4889 2.44843 20.5472 2.44843 17.5C2.44843 13.3734 4.05542 9.49375 6.97341 6.57576ZM32.4198 7.73179L30.7191 8.87783C30.7426 8.91283 30.7655 8.94831 30.7889 8.98345C32.4624 11.5111 33.3469 14.4528 33.3469 17.5C33.3469 21.6266 31.7399 25.5063 28.8219 28.4242C25.904 31.3422 22.0244 32.9492 17.8976 32.9492C14.7419 32.9492 11.6909 31.9892 9.12502 30.2171L11.1059 30.0139L10.8966 27.9739L5.56459 28.5208L6.11146 33.8528L8.15158 33.6435L7.97426 31.9147C10.8781 33.916 14.3288 35 17.8976 35C22.5721 35 26.9667 33.1797 30.2721 29.8743C33.5774 26.569 35.3976 22.1744 35.3976 17.5C35.3976 14.0005 34.3679 10.6227 32.4198 7.73179Z" fill="white"/>
<path d="M8.94131 19.6528L10.2689 18.4258C11.2746 17.5006 11.4657 16.877 11.4657 16.1931C11.4657 14.8857 10.3493 14.0509 8.73015 14.0509C7.34225 14.0509 6.3466 14.6343 5.8136 15.5193L7.29201 16.344C7.57358 15.8915 8.03624 15.6601 8.54914 15.6601C9.15254 15.6601 9.45428 15.9317 9.45428 16.3843C9.45428 16.6759 9.37382 16.9978 8.81061 17.5207L6.17563 19.9847V21.2318H11.6568V19.6529L8.94131 19.6528ZM17.9831 19.8841H19.029V18.3052H17.9831V17.1084H16.1024V18.3052H14.6743L17.5406 14.1918H15.4789L12.3209 18.5867V19.8841H16.0421V21.2318H17.9831V19.8841ZM20.8396 22.2375L24.1584 12.7637H22.4588L19.1399 22.2375H20.8396ZM25.8481 16.8569V15.7707H27.6986L25.3251 21.2318H27.4975L29.9816 15.4388V14.1918H24.1484V16.8569H25.8481Z" fill="white"/>
</svg>
