<svg width="16" height="16" viewBox="0 0 16 16" fill="none" xmlns="http://www.w3.org/2000/svg">
<path fill-rule="evenodd" clip-rule="evenodd" d="M4.44454 5.3334C4.44454 4.39042 4.81914 3.48605 5.48593 2.81926C6.15273 2.15247 7.05706 1.77787 8.00008 1.77787C8.9431 1.77787 9.84745 2.15247 10.5142 2.81926C11.181 3.48605 11.5556 4.39042 11.5556 5.3334C11.5556 6.27641 11.181 7.18076 10.5142 7.84751C9.84745 8.51435 8.9431 8.88893 8.00008 8.88893C7.05706 8.88893 6.15273 8.51435 5.48593 7.84751C4.81914 7.18076 4.44454 6.27641 4.44454 5.3334ZM11.3992 9.4427C12.2449 8.74306 12.8543 7.79942 13.1439 6.74067C13.4336 5.68184 13.3895 4.55952 13.0177 3.52673C12.6458 2.49394 11.9644 1.60104 11.0663 0.969862C10.1682 0.338692 9.09732 0 7.99963 0C6.90195 0 5.83101 0.338692 4.93295 0.969862C4.03488 1.60104 3.35345 2.49394 2.98163 3.52673C2.6098 4.55952 2.56571 5.68184 2.85537 6.74067C3.14502 7.79942 3.75432 8.74306 4.6001 9.4427C1.76545 10.4409 0.00012207 12.664 0.00012207 15.1111C0.00012207 15.3468 0.093775 15.573 0.260467 15.7396C0.427169 15.9064 0.653256 16 0.889006 16C1.12476 16 1.35084 15.9064 1.51754 15.7396C1.68424 15.573 1.77789 15.3468 1.77789 15.1111C1.77789 13.0933 3.87121 10.6667 8.00008 10.6667C12.1289 10.6667 14.2223 13.0933 14.2223 15.1111C14.2223 15.3468 14.316 15.573 14.4826 15.7396C14.6493 15.9064 14.8754 16 15.1111 16C15.3469 16 15.573 15.9064 15.7397 15.7396C15.9063 15.573 16 15.3468 16 15.1111C16 12.664 14.2365 10.4409 11.3992 9.4427Z" fill="black"/>
</svg>
